<svg xmlns="http://www.w3.org/2000/svg" viewBox="0 0 225 458.15"><defs><style>.cls-1{fill:#054752;stroke:#115860;stroke-miterlimit:10;stroke-width:4px;}.cls-2{fill:#206b74;opacity:0.3;isolation:isolate;}.cls-3{fill:#ededed;}.cls-4{fill:#fff;}.cls-5{fill:none;stroke:#2ed1ff;stroke-linecap:round;stroke-linejoin:round;stroke-width:1.5px;}</style></defs><g id="Layer_2" data-name="Layer 2"><g id="Layer_2-2" data-name="Layer 2"><g id="phone-frame"><path class="cls-1" d="M192.4,2H32.6A30.61,30.61,0,0,0,2,32.6v393a31.25,31.25,0,0,0,9,21.64,30.54,30.54,0,0,0,21.64,9H192.4a30.6,30.6,0,0,0,30.6-30.6V32.6A30.61,30.61,0,0,0,192.4,2Zm18.26,417.9v0A22.66,22.66,0,0,1,188,442.57H35.78A22.67,22.67,0,0,1,13.12,419.9V56.58H210.66Z"/><circle class="cls-2" cx="129.9" cy="19.72" r="3.09"/><rect class="cls-2" x="90.98" y="18.07" width="28.22" height="3.09" rx="1.54"/></g><g id="phone-canvas"><rect class="cls-3" x="13.12" y="59.58" width="197.54" height="210"/><path class="cls-4" d="M210.66,37.9V59.58H13.12V37.88A22.67,22.67,0,0,1,35.78,15.22H55.14a1.42,1.42,0,0,1,1.41,1.41h0A14.44,14.44,0,0,0,71,31.08h82.38A14.44,14.44,0,0,0,167.8,16.64v0h0a1.42,1.42,0,0,1,1.42-1.4h18.85A22.65,22.65,0,0,1,210.66,37.9Z"/></g><g id="Arrow"><line class="cls-5" x1="26.6" y1="45.64" x2="37" y2="45.64"/><polyline class="cls-5" points="30.38 49.42 26.6 45.65 30.43 41.84"/></g></g></g></svg>