<svg xmlns="http://www.w3.org/2000/svg" width="100" height="100"><g fill="none" fill-rule="evenodd"><g fill="#9EF769" fill-rule="nonzero"><path d="M99.35 58.68a28.05 28.05 0 00-32.3-22.95l4.5-25.54-16.3-2.88c-1.41 3.08-7.54 17.09-10.52 32.88a28.03 28.03 0 00-20.45-4.5l4.49-25.54-16.3-2.88C11.03 10.46 4.49 25.4 1.64 41.9-.62 55.15-.5 69.4 6.47 79.43A26.82 26.82 0 0012 85.26c6.37 5 14.1 6.95 21.64 5.68a27.92 27.92 0 0016.92-9.8 26.6 26.6 0 004.21 4.12c6.37 5 14.11 6.95 21.65 5.68a27.95 27.95 0 0022.94-32.26z"/></g></g></svg>