<svg xmlns="http://www.w3.org/2000/svg" viewBox="0 0 2000 800"><defs><pattern id="Horizontal_line_3" data-name="Horizontal line 3" width="50" height="50" patternTransform="matrix(-1.11 0 0 1.11 2588.13 -627.57)" patternUnits="userSpaceOnUse"><path class="cls-1" d="M0 0h50v50H0z"/><path class="cls-2" d="M0 0h50v6.27H0z"/><path class="cls-3" d="M0 6.27h50v6.27H0z"/><path class="cls-2" d="M0 12.53h50v6.27H0z"/><path class="cls-3" d="M0 18.8h50v6.27H0z"/><path class="cls-2" d="M0 25.06h50v6.27H0z"/><path class="cls-3" d="M0 31.33h50v6.27H0z"/><path class="cls-2" d="M0 37.59h50v6.27H0z"/><path class="cls-3" d="M0 43.73h50V50H0z"/></pattern><pattern id="Horizontal_line_3-3" data-name="Horizontal line 3" width="50" height="50" patternTransform="matrix(-1 .49 .49 1 2463 -422.35)" patternUnits="userSpaceOnUse"><path class="cls-1" d="M0 0h50v50H0z"/><path class="cls-2" d="M0 0h50v6.27H0z"/><path class="cls-3" d="M0 6.27h50v6.27H0z"/><path class="cls-2" d="M0 12.53h50v6.27H0z"/><path class="cls-3" d="M0 18.8h50v6.27H0z"/><path class="cls-2" d="M0 25.06h50v6.27H0z"/><path class="cls-3" d="M0 31.33h50v6.27H0z"/><path class="cls-2" d="M0 37.59h50v6.27H0z"/><path class="cls-3" d="M0 43.73h50V50H0z"/></pattern><pattern id="Horizontal_line_3-5" data-name="Horizontal line 3" width="50" height="50" patternTransform="matrix(.54 0 0 .54 2082.07 100.97)" patternUnits="userSpaceOnUse"><path class="cls-1" d="M0 0h50v50H0z"/><path class="cls-2" d="M0 0h50v6.27H0z"/><path class="cls-3" d="M0 6.27h50v6.27H0z"/><path class="cls-2" d="M0 12.53h50v6.27H0z"/><path class="cls-3" d="M0 18.8h50v6.27H0z"/><path class="cls-2" d="M0 25.06h50v6.27H0z"/><path class="cls-3" d="M0 31.33h50v6.27H0z"/><path class="cls-2" d="M0 37.59h50v6.27H0z"/><path class="cls-3" d="M0 43.73h50V50H0z"/></pattern><pattern id="Horizontal_line_3-9" data-name="Horizontal line 3" width="50" height="50" patternTransform="matrix(-1.11 0 0 1.11 2548.78 -634.63)" patternUnits="userSpaceOnUse"><path class="cls-1" d="M0 0h50v50H0z"/><path class="cls-2" d="M0 0h50v6.27H0z"/><path class="cls-3" d="M0 6.27h50v6.27H0z"/><path class="cls-2" d="M0 12.53h50v6.27H0z"/><path class="cls-3" d="M0 18.8h50v6.27H0z"/><path class="cls-2" d="M0 25.06h50v6.27H0z"/><path class="cls-3" d="M0 31.33h50v6.27H0z"/><path class="cls-2" d="M0 37.59h50v6.27H0z"/><path class="cls-3" d="M0 43.73h50V50H0z"/></pattern><pattern id="Horizontal_line_3-11" data-name="Horizontal line 3" width="50" height="50" patternTransform="matrix(-1 .49 .49 1 2449.91 -428.36)" patternUnits="userSpaceOnUse"><path class="cls-1" d="M0 0h50v50H0z"/><path class="cls-2" d="M0 0h50v6.27H0z"/><path class="cls-3" d="M0 6.27h50v6.27H0z"/><path class="cls-2" d="M0 12.53h50v6.27H0z"/><path class="cls-3" d="M0 18.8h50v6.27H0z"/><path class="cls-2" d="M0 25.06h50v6.27H0z"/><path class="cls-3" d="M0 31.33h50v6.27H0z"/><path class="cls-2" d="M0 37.59h50v6.27H0z"/><path class="cls-3" d="M0 43.73h50V50H0z"/></pattern><pattern id="Unnamed_Pattern_23" data-name="Unnamed Pattern 23" width="50.86" height="47.05" patternTransform="matrix(.27 0 0 .28 1975.21 850.16)" patternUnits="userSpaceOnUse"><path class="cls-1" d="M0 0h50.86v47.05H0z"/><path class="cls-4" d="M50.82 46.67h50.9v47.52h-50.9z"/><path class="cls-4" d="M-.03 46.67h50.9v47.52H-.03z"/><path class="cls-4" d="M-50.89 46.67H.01v47.52h-50.9zM50.82-.38h50.9v47.52h-50.9z"/><path class="cls-4" d="M-.03-.38h50.9v47.52H-.03z"/><path class="cls-5" d="M12.9 4.7h-1.8L11.08.05h1.81l.01 4.65zM20.38 6.83l-1.47 1.04-2.68-3.82 1.47-1.03 2.68 3.81zM13.65 14.45l-.35-1.77 4.57-.9.35 1.77-4.57.9zM22.64 13.24l-1.38-1.16 3-3.56 1.37 1.16-2.99 3.56zM26.98 19.7l-1.79-.16.4-4.64 1.8.16-.41 4.64zM16.93 21.17l.87-1.57 4.07 2.26-.88 1.58-4.06-2.27zM4.16 6.85L2.68 7.89 0 4.08l1.48-1.03 2.68 3.8zM6.41 13.26l-1.38-1.15 3-3.57 1.38 1.17-3 3.55zM10.75 19.73l-1.79-.16.41-4.65 1.79.17-.41 4.64zM.69 21.2l.88-1.57 4.07 2.25-.87 1.58L.69 21.2zM29.73 4.68h-1.81L27.91.02h1.81l.01 4.66zM37.21 6.81l-1.48 1.03-2.68-3.81L34.53 3l2.68 3.81zM30.48 14.43l-.35-1.77 4.57-.91.35 1.77-4.57.91zM39.46 13.22l-1.37-1.16 2.99-3.56 1.39 1.16-3.01 3.56zM43.81 19.68l-1.8-.16.4-4.64 1.8.16-.4 4.64zM33.75 21.15l.87-1.58 4.08 2.26-.88 1.58-4.07-2.26zM45.5 4.65l-1.81.01V0h1.8l.01 4.65zM46.26 14.4l-.35-1.77 4.56-.9.36 1.77-4.57.9zM12.94 28.29h-1.81l-.01-4.65 1.8-.01.02 4.66zM20.42 30.42l-1.48 1.04-2.67-3.81 1.47-1.04 2.68 3.81zM13.69 38.03l-.36-1.77 4.58-.9.35 1.77-4.57.9zM22.67 36.83l-1.38-1.16 3.01-3.56 1.37 1.16-3 3.56zM27.02 43.29l-1.8-.16.41-4.63 1.8.15-.41 4.64zM16.96 44.77l.87-1.58 4.07 2.26-.87 1.57-4.07-2.25zM4.19 30.44l-1.47 1.04-2.69-3.81 1.49-1.03 2.67 3.8zM6.44 36.85l-1.37-1.16 3-3.56 1.37 1.16-3 3.56zM10.79 43.31l-1.8-.15.41-4.64 1.8.16-.41 4.63zM.73 44.79l.88-1.58 4.06 2.26-.87 1.58-4.07-2.26zM29.76 28.26l-1.8.01-.01-4.66h1.8l.01 4.65zM37.25 30.39l-1.48 1.05-2.68-3.81 1.48-1.05 2.68 3.81zM30.52 38.01l-.35-1.76 4.57-.91.34 1.77-4.56.9zM39.49 36.81l-1.38-1.16 3.01-3.56 1.38 1.15-3.01 3.57zM43.84 43.26l-1.79-.16.41-4.63 1.79.16-.41 4.63zM33.78 44.74l.88-1.58 4.07 2.26-.87 1.58-4.08-2.26zM45.53 28.24l-1.8.01-.01-4.66h1.81v4.65zM46.29 37.99l-.35-1.77 4.57-.9.35 1.77-4.57.9z"/><path class="cls-4" d="M-50.89-.38H.01v47.52h-50.9zM50.82-47.42h50.9V.1h-50.9z"/><path class="cls-4" d="M-.03-47.42h50.9V.1H-.03z"/><path class="cls-4" d="M-50.89-47.42H.01V.1h-50.9z"/></pattern><pattern id="Horizontal_line_5" data-name="Horizontal line 5" width="50" height="50" patternTransform="matrix(.71 0 0 .71 1956.57 498.15)" patternUnits="userSpaceOnUse"><path class="cls-1" d="M0 0h50v50H0z"/><path class="cls-4" d="M0 0h50v6.27H0z"/><path class="cls-3" d="M0 6.27h50v6.27H0z"/><path class="cls-4" d="M0 12.53h50v6.27H0z"/><path class="cls-3" d="M0 18.8h50v6.27H0z"/><path class="cls-4" d="M0 25.06h50v6.27H0z"/><path class="cls-3" d="M0 31.33h50v6.27H0z"/><path class="cls-4" d="M0 37.59h50v6.27H0z"/><path class="cls-3" d="M0 43.73h50V50H0z"/></pattern><pattern id="Horizontal_line_5-3" data-name="Horizontal line 5" width="50" height="50" patternTransform="rotate(26.32 -285.641 4776.112) scale(.71)" patternUnits="userSpaceOnUse"><path class="cls-1" d="M0 0h50v50H0z"/><path class="cls-4" d="M0 0h50v6.27H0z"/><path class="cls-3" d="M0 6.27h50v6.27H0z"/><path class="cls-4" d="M0 12.53h50v6.27H0z"/><path class="cls-3" d="M0 18.8h50v6.27H0z"/><path class="cls-4" d="M0 25.06h50v6.27H0z"/><path class="cls-3" d="M0 31.33h50v6.27H0z"/><path class="cls-4" d="M0 37.59h50v6.27H0z"/><path class="cls-3" d="M0 43.73h50V50H0z"/></pattern><pattern id="Unnamed_Pattern_23-3" data-name="Unnamed Pattern 23" width="50.86" height="47.05" patternTransform="matrix(.2 -.1 .11 .21 2061.96 1010.81)" patternUnits="userSpaceOnUse"><path class="cls-1" d="M0 0h50.86v47.05H0z"/><path class="cls-4" d="M50.82 46.67h50.9v47.52h-50.9z"/><path class="cls-4" d="M-.03 46.67h50.9v47.52H-.03z"/><path class="cls-4" d="M-50.89 46.67H.01v47.52h-50.9zM50.82-.38h50.9v47.52h-50.9z"/><path class="cls-4" d="M-.03-.38h50.9v47.52H-.03z"/><path class="cls-5" d="M12.9 4.7h-1.8L11.08.05h1.81l.01 4.65zM20.38 6.83l-1.47 1.04-2.68-3.82 1.47-1.03 2.68 3.81zM13.65 14.45l-.35-1.77 4.57-.9.35 1.77-4.57.9zM22.64 13.24l-1.38-1.16 3-3.56 1.37 1.16-2.99 3.56zM26.98 19.7l-1.79-.16.4-4.64 1.8.16-.41 4.64zM16.93 21.17l.87-1.57 4.07 2.26-.88 1.58-4.06-2.27zM4.16 6.85L2.68 7.89 0 4.08l1.48-1.03 2.68 3.8zM6.41 13.26l-1.38-1.15 3-3.57 1.38 1.17-3 3.55zM10.75 19.73l-1.79-.16.41-4.65 1.79.17-.41 4.64zM.69 21.2l.88-1.57 4.07 2.25-.87 1.58L.69 21.2zM29.73 4.68h-1.81L27.91.02h1.81l.01 4.66zM37.21 6.81l-1.48 1.03-2.68-3.81L34.53 3l2.68 3.81zM30.48 14.43l-.35-1.77 4.57-.91.35 1.77-4.57.91zM39.46 13.22l-1.37-1.16 2.99-3.56 1.39 1.16-3.01 3.56zM43.81 19.68l-1.8-.16.4-4.64 1.8.16-.4 4.64zM33.75 21.15l.87-1.58 4.08 2.26-.88 1.58-4.07-2.26zM45.5 4.65l-1.81.01V0h1.8l.01 4.65zM46.26 14.4l-.35-1.77 4.56-.9.36 1.77-4.57.9zM12.94 28.29h-1.81l-.01-4.65 1.8-.01.02 4.66zM20.42 30.42l-1.48 1.04-2.67-3.81 1.47-1.04 2.68 3.81zM13.69 38.03l-.36-1.77 4.58-.9.35 1.77-4.57.9zM22.67 36.83l-1.38-1.16 3.01-3.56 1.37 1.16-3 3.56zM27.02 43.29l-1.8-.16.41-4.63 1.8.15-.41 4.64zM16.96 44.77l.87-1.58 4.07 2.26-.87 1.57-4.07-2.25zM4.19 30.44l-1.47 1.04-2.69-3.81 1.49-1.03 2.67 3.8zM6.44 36.85l-1.37-1.16 3-3.56 1.37 1.16-3 3.56zM10.79 43.31l-1.8-.15.41-4.64 1.8.16-.41 4.63zM.73 44.79l.88-1.58 4.06 2.26-.87 1.58-4.07-2.26zM29.76 28.26l-1.8.01-.01-4.66h1.8l.01 4.65zM37.25 30.39l-1.48 1.05-2.68-3.81 1.48-1.05 2.68 3.81zM30.52 38.01l-.35-1.76 4.57-.91.34 1.77-4.56.9zM39.49 36.81l-1.38-1.16 3.01-3.56 1.38 1.15-3.01 3.57zM43.84 43.26l-1.79-.16.41-4.63 1.79.16-.41 4.63zM33.78 44.74l.88-1.58 4.07 2.26-.87 1.58-4.08-2.26zM45.53 28.24l-1.8.01-.01-4.66h1.81v4.65zM46.29 37.99l-.35-1.77 4.57-.9.35 1.77-4.57.9z"/><path class="cls-4" d="M-50.89-.38H.01v47.52h-50.9zM50.82-47.42h50.9V.1h-50.9z"/><path class="cls-4" d="M-.03-47.42h50.9V.1H-.03z"/><path class="cls-4" d="M-50.89-47.42H.01V.1h-50.9z"/></pattern><clipPath id="clip-path"><path class="cls-1" d="M0 0h2000v800H0z"/></clipPath><clipPath id="clip-path-2"><path class="cls-1" d="M2261 247.55h800V619h-800z"/></clipPath><linearGradient id="Dégradé_sans_nom_12" x1="1001.41" y1="662.71" x2="999.17" y2="-9.1" gradientUnits="userSpaceOnUse"><stop offset="0" stop-color="#fff"/><stop offset=".09" stop-color="#f7fdff"/><stop offset=".24" stop-color="#e0f8ff"/><stop offset=".42" stop-color="#bcf0ff"/><stop offset=".63" stop-color="#89e5ff"/><stop offset=".86" stop-color="#48d7ff"/><stop offset=".94" stop-color="#2ed1ff"/></linearGradient><style>.cls-1,.cls-17,.cls-86,.cls-87,.cls-88,.cls-89,.cls-92{fill:none}.cls-2,.cls-85{fill:#054752}.cls-18,.cls-3,.cls-66{fill:#fff}.cls-4{fill:#004753}.cls-5{fill:#eae8f5}.cls-9{fill:#669aa2}.cls-11{fill:#91b7bc}.cls-12{fill:#bdd4d7}.cls-13{fill:#cddadc}.cls-14{fill:#538c94}.cls-15{fill:#2e5862}.cls-16{fill:#d3e2e4}.cls-17,.cls-87,.cls-88,.cls-89,.cls-92{stroke:#054752;stroke-miterlimit:10}.cls-17{stroke-width:4px}.cls-18{opacity:.4}.cls-19,.cls-23,.cls-24{fill:#facca3}.cls-25{opacity:.47}.cls-23,.cls-24,.cls-25,.cls-37,.cls-39,.cls-44,.cls-49,.cls-50,.cls-54,.cls-55,.cls-67,.cls-68,.cls-72,.cls-73,.cls-81{mix-blend-mode:multiply}.cls-25{fill:#95abbd}.cls-40{fill:#014753}.cls-23,.cls-49,.cls-55,.cls-72{opacity:.67}.cls-26{fill:#f5b240}.cls-27{fill:#2ed1ff}.cls-28{fill:#8f4160;opacity:.3}.cls-30{fill:#f1890e}.cls-32,.cls-37{fill:#f9cfc4}.cls-35{fill:#e9ca91}.cls-36{fill:url(#Horizontal_line_3-5)}.cls-37{opacity:.69}.cls-42,.cls-44{fill:#947347}.cls-48,.cls-49,.cls-50{fill:#ddb68d}.cls-53,.cls-54,.cls-55{fill:#cd904d}.cls-57{fill:#a9b7c0}.cls-58{fill:#01353a}.cls-59{fill:#cd8f4d}.cls-61{fill:#ff595a}.cls-64{fill:#022327}.cls-66,.cls-67,.cls-85{opacity:.45}.cls-67{fill:#044752}.cls-68{opacity:.49}.cls-69{fill:#004553}.cls-71,.cls-72,.cls-73{fill:#ce914d}.cls-86{stroke:#fff;stroke-linecap:round;stroke-linejoin:round}.cls-76{fill:#033}.cls-77{fill:url(#Horizontal_line_5)}.cls-78,.cls-81{fill:#eacb92}.cls-81{opacity:.59}.cls-87{stroke-width:10px}.cls-88{stroke-width:20px}.cls-89{stroke-width:7px}.cls-90{fill:#32707a}.cls-92{stroke-width:5px}</style></defs><g style="isolation:isolate"><g id="Calque_1" data-name="Calque 1"><path fill="url(#Dégradé_sans_nom_12)" d="M0 0h2000v480H0z"/><g clip-path="url(#clip-path)"><path class="cls-9" d="M475.8 402.56s66.09-3.07 120.65-22.28c0 0 53 16.91 83 22.28s89.14-3.07 107.59 6.15c0 0 38.42 23.83 59.94 26.13s52.26 3.84 72.24-6.91 23.82-3.85 33 0 20.75 13.83 50-6.92 41.49-27.67 55.33-23.06 40.73 26.9 116.81 46.88 122.19-16.14 122.19-16.14 9.22-10 33.81-10 101.44-3.07 101.44-3.07L1049.09 670 559.56 500.93z"/><path d="M2136.51 57.51s-81.46 122.19-151.39 129.88c0 0-32.28 7.68-36.12 19.21s-12.3 26.9-26.9 27.67-43 13.06-71.47 0-60.71-12.3-84.53 6.14S1635.45 328 1584 350.31s-73.77 6.91-73.77 6.91-347.36 215.95-504.9 290.49l158.31 112.2 847.64-56.1 171.38-49.18z" fill="#a7c6ca"/><path class="cls-11" d="M-8.35 159s61.48-7 104.51 13.79S265.23 290.37 314.41 305s91.46 13.83 118.35 29.2 63.79 55.33 116.81 81.46 378.1 212.87 518 216.71L1049.09 670l-501.82-10-381.94-245.91z"/><path class="cls-12" d="M-176.27-50.46s40-18.44 65.32 0 144.48 296.64 443.42 478c0 0 199.43 125.65 307 142.56s186 76.85 282.8 67.62 172.91 16.91 212.87 16.91 414.22-10.76 414.22-10.76l265.9-8.45-952.91 124.49H-175.88z"/><path class="cls-9" d="M-195.1 680s302 43.8 910.67 34.58l-67.63 25.36-405.76 10-442.65-6.14z"/><path class="cls-11" d="M973.78 703.81s-77.62-13.06-107.59-10-189.05 24.59-189.05 24.59-33 3.85-95.29 2.31c0 0-35.35 0-61.48 4.61S353.61 741.47 322.1 740.7s-509.51-6.92-509.51-6.92v26.13l464.17 30 577.14-23.85 135.25-34.58z"/><path class="cls-13" d="M624.89 719.18s-13.07 3.08-8.46 7.69 16.91 6.91 11.53 11.53-22.29 9.22-60.71 11.52-259.75 6.92-259.75 6.92L120 761.45l-417.29-1.54v16.91l532.56-9.22 180.6-5.38 156-6.15s55.33-4.61 61.48-10.76.77-13.06-2.31-14.6-11.52-3.07-11.52-5.38 5.37-6.15 5.37-6.15z"/><path class="cls-14" d="M2163.41 510.15S1321.14 651.56 1015.28 690c0 0-171.37 26.13-201.35 43.8S953 738.4 953 738.4s-193.66 21.51-395.77 31.5-733.91 0-733.91 0V783l698.56 27.66 1630.74-5.38z"/><path class="cls-9" d="M2169.55 797.57l-1108.16-7.69H519.6L296 783.74h-472.65l.77 64.55 501.05 8.45s263.6 11.53 480.31 33.82 571 41.5 646.3 125.26-102.21 179.06-102.21 179.06h802.31z"/><path class="cls-11" d="M1510.51 722.19c0-5.17-5.42-9.37-12.11-9.37a15 15 0 00-5 .84 16.2 16.2 0 00-26.71 3.77 10.47 10.47 0 00-1.6-.13 9.51 9.51 0 00-9.78 9.18h53.86a7.72 7.72 0 001.34-4.29z"/><path class="cls-15" d="M401.42 723.75c0-5.14-5.39-9.32-12-9.32a14.81 14.81 0 00-5 .84 16.12 16.12 0 00-26.58 3.73 10.31 10.31 0 00-1.58-.12 9.46 9.46 0 00-9.73 9.13h53.56a7.67 7.67 0 001.33-4.26z"/><path class="cls-16" d="M962.57 748.33c0-5.15-5.39-9.32-12-9.32a14.87 14.87 0 00-5 .83 16.12 16.12 0 00-26.57 3.74 10.22 10.22 0 00-1.58-.12 9.47 9.47 0 00-9.73 9.13h53.56a7.64 7.64 0 001.32-4.26zM690.38 730.69c0-2.7-2.83-4.89-6.31-4.89a7.85 7.85 0 00-2.61.44 8.44 8.44 0 00-13.92 2 5.69 5.69 0 00-.83-.06 5 5 0 00-5.1 4.78h28.07a4.06 4.06 0 00.7-2.27zM853.66 709.94c0-2.69-2.82-4.88-6.3-4.88a7.81 7.81 0 00-2.61.44 8.45 8.45 0 00-13.93 2 5.55 5.55 0 00-.82-.07 5 5 0 00-5.1 4.79H853a4.05 4.05 0 00.66-2.28z"/><path class="cls-17" d="M277.96 689.41v34.94"/><path class="cls-15" d="M298.51 663.59h-1c-.94-7.07-7.58-12.54-15.63-12.54a15.83 15.83 0 00-14.57 8.84 9.25 9.25 0 10-8.41 16.14 12.34 12.34 0 0016 17.2 16.52 16.52 0 009.24 2.7c6.85 0 12.59-3.86 14.06-9h.36a11.68 11.68 0 100-23.35z"/><path class="cls-17" d="M1411.96 624.76v21.93"/><path class="cls-15" d="M1424.86 608.56h-.64c-.59-4.43-4.76-7.87-9.81-7.87a9.93 9.93 0 00-9.14 5.55 5.8 5.8 0 10-5.27 10.16 7.64 7.64 0 00-1 3.77 7.74 7.74 0 0011 7 10.37 10.37 0 005.79 1.7c4.3 0 7.91-2.42 8.83-5.68h.23a7.33 7.33 0 100-14.66z"/><path class="cls-17" d="M1462.68 615.54v21.93"/><path class="cls-15" d="M1475.58 599.34h-.64c-.59-4.44-4.76-7.87-9.81-7.87a9.93 9.93 0 00-9.14 5.55 5.71 5.71 0 00-3.55-1.22 5.81 5.81 0 00-1.73 11.35 7.64 7.64 0 00-1 3.77 7.74 7.74 0 0011 7 10.37 10.37 0 005.79 1.7c4.31 0 7.91-2.43 8.83-5.68h.23a7.33 7.33 0 100-14.65z"/><path class="cls-17" d="M1508.79 606.32v21.93"/><path class="cls-15" d="M1521.69 590.12h-.64c-.59-4.44-4.76-7.87-9.81-7.87a9.93 9.93 0 00-9.14 5.54 5.81 5.81 0 10-5.28 10.14 7.62 7.62 0 00-1 3.77 7.74 7.74 0 0011 7 10.37 10.37 0 005.79 1.7c4.3 0 7.91-2.43 8.83-5.68h.23a7.33 7.33 0 100-14.65z"/><rect class="cls-18" x="861.76" y="382.52" width="524.62" height="111.09" rx="5.99" transform="rotate(-180 1124.065 438.065)"/><path class="cls-19" d="M1172.43 415.13l11.25.16s1.71 5.08 1.45 14.58c0 .39-9.69 3.15-9.69 3.15z"/><path class="cls-19" d="M1165.13 439.13c2.23-3.94 9.78-12.79 9.78-12.79l10-1.67s7.2 5.1 9 13.61c.07.32-.63 9.25-.63 9.25h-30.25s2.04-8.3 2.1-8.4zM1168.64 417.1c.32 1.29 2.07 1.36 5 1.91h.07a4.58 4.58 0 001.28 0 17.26 17.26 0 002.43-.55 44.42 44.42 0 004.57-1.68c4-1.75 5.57-9.21 5.57-12.26 0-6.41-5.56-7.17-9.67-6.47a11.43 11.43 0 00-5.36 2.38c-2.37 1.93-3.49 5.78-3.3 6.25a6.36 6.36 0 01.5 1.8c0 1-.61 2-.59 2.6v.51c.13 4.22-.91 3.84-.5 5.51z"/><path d="M1173.26 406.08a3 3 0 00-3.63-.22" fill="#95abbd" opacity=".47"/><circle cx="1171.49" cy="407.89" r=".55" style="mix-blend-mode:multiply" fill="#014753"/><path class="cls-19" d="M1169.93 406.71a48.13 48.13 0 01-2.09 4.41c0 .16 1.3.38 1.46.38a4.36 4.36 0 00.88-2 8.4 8.4 0 00-.25-2.79z"/><path class="cls-23" d="M1178.8 419.3c-.23.12 1.26 6.23-4.37 7.91l-1.34-8.29z"/><path class="cls-24" d="M1169.18 412.47s1.47.37 1.44.64c-.06.56-1.55.61-1.55.61z"/><path class="cls-25" d="M1168.64 417.1c.32 1.29 2.07 1.36 5 1.91h1.35a12.34 12.34 0 001.5-.16 2.42 2.42 0 00.93-.39c2-1.34 2.07-5.33 2.07-5.33l-10.3-1.73v.19c.08 4.22-.96 3.84-.55 5.51zM1167.75 418.7s-.03-.02 0 0z"/><path class="cls-26" d="M1179.62 404s-9.48.44-10.8-.78-5.41-8.15 1.65-8.15a17.2 17.2 0 0111.58 4.74z"/><path class="cls-27" d="M1185 422.92l-12.53 6.4-7.49 9.91-2 8.47h30.46l.68-10.16s-2.62-7.67-6.73-10.77z"/><path class="cls-3" d="M1185.25 422.31l-12.87 7.11 14.22-4.74-1.35-2.37z"/><path class="cls-26" d="M1172 400.31s6.11-7.89 15.14-2.51c5.49 3.28 3.06 11.47-3 18.46-.09.1-2.7-.52-3.43-1.74-.91-1.52-.85-6-.85-6l-3.18.66s-.82-3.49-1-4.1c-.68-2.58-3.68-4.77-3.68-4.77z"/><path class="cls-23" d="M1180.18 407.46s.21 2.28-.89 2.7a2.3 2.3 0 01-1.47 0s.39 3.36 2.23 2.62.13-5.32.13-5.32z"/><path class="cls-19" d="M1177.94 408.25s1-2.07 1.94-1.22a1.79 1.79 0 01-1.25 3c-1.08 0-1.19-.26-1.19-.26z"/><path class="cls-24" d="M1178.8 408.28c0-.38.51-.57.71-.26v.09a.61.61 0 010 .27.76.76 0 01-.23.54.41.41 0 01-.55 0z"/><path class="cls-28" d="M1184.16 439.49s.34 4.35-2.46 6.87c-3.31 3-17.28 15.59-18.11 15.84-5.83 1.76-5.41-3.57-4.2-6s3.61-8.76 8.25-13.63c4.14-4.34 11.94-11.89 16.52-3.08z"/><path class="cls-19" d="M1161.69 461.24c-2.31.63-2.93-.78-2.93-.78-2.53-7.47-5.25-17.12-6.81-21.9a8.84 8.84 0 01-.21-1.86l3.16-1.81c15.42 20.91 9.1 25.71 6.79 26.35zM1152.55 429.09a11.3 11.3 0 00-.7-2.32 16.23 16.23 0 00-.06-2.06 12.81 12.81 0 01.72-1.43.86.86 0 00-.12-.93l-2.08 2.3-.17 2.39-.32 2.75a1.63 1.63 0 001.64.36 1.35 1.35 0 001.09-1.06z"/><path class="cls-19" d="M1155.39 429.37c.09.51 0 1.59.06 2 .16 1.61-.25 2.1-.42 5.24-.19 3.41-3 2.86-3.24 1.46-.08-.45-.06-1.09-.17-1.54a67.43 67.43 0 01-1.85-6.53s.35-1.09 1.21-1.24a1.47 1.47 0 011.61.63c.09.26.17.6.61.54.62-.2.81-.56.82-1.24-.09-1.45.31-1.95.7-1.94-.01.47.56 1.83.67 2.62z"/><path class="cls-19" d="M1152.59 429.89a14.1 14.1 0 00-.23-2.43 15.27 15.27 0 00.35-2 13.43 13.43 0 011-1.26.86.86 0 00.06-.94l-2.49 1.84-.64 2.31-.87 2.64a1.44 1.44 0 001.41.77 2.24 2.24 0 001.41-.93zM1183.49 438.81s.33 4.36-2.47 6.87c-3.31 3-17.28 15.59-18.11 15.84-5.83 1.76-5.41-3.56-4.2-6s3.61-8.76 8.25-13.63c4.14-4.33 11.94-11.89 16.53-3.08z"/><path fill="#19b4d8" d="M1176.45 450.4l-10.16-9.47 10.16-7.79 7.11 2.03 1.69 6.43-8.8 8.8z"/><path class="cls-3" d="M1166.29 440.93l10.16 9.47-.68.68-10.16-9.48.68-.67z"/><path class="cls-30" d="M1247.3 407.18s1.54 7.26-2.66 10.81c-8.2 6.94-.7 14.4 6 12.69s4.6-15.67 4.6-15.67z"/><path d="M1248.9 409.08s.41 6.5-2.6 11.05c-3.65 5.52.24 11.12 3.41 10.8.62-.07 6.33-7.45 6.33-7.45s-5.67-14.43-7.14-14.4z" style="mix-blend-mode:multiply" fill="#f5b240"/><path class="cls-32" d="M1248.93 413.94l6.68-.21a20.3 20.3 0 013.53 12.38c0 .31-7.82 2.53-7.82 2.53z"/><path d="M1245.66 446.07s9-7.53 8.54-7.53-5.53-10.05-5.53-10.05" fill="url(#Horizontal_line_3)"/><path class="cls-32" d="M1258.17 429.88s.64 4.4-3.18 12.07-17.7 17.76-18.63 18c-6.55 1.94-6.72-3.33-5.35-6 1.15-2.28 4.19-7.34 12.39-17.41 3.79-4.65 10.3-11.02 14.77-6.66z"/><path fill="url(#Horizontal_line_3-3)" d="M1248.7 430.68l-6.32 6.49 11.41 10.61"/><path class="cls-35" d="M1267.22 442.92l-5.57 22.19-16.6.16-1.68-22.64 23.85.29z"/><path class="cls-32" d="M1262.28 465.11l-16.94-.24s-4.52 6.79 1 18.42c.6 1.27 3.41 12.93 3.41 12.93s13.81 4 20.07-.68c.62-.47 2.36-6.88 2.93-9 2.25-8.28-4.65-12.05-10.47-21.43z"/><path class="cls-35" d="M1248 446.93s-8.53.76-8.53-4.26c0-2.67.21-.86 7.25-10.88"/><path class="cls-32" d="M1241.34 446.59c-2.51-2.91-5.72-.24-5.72-.24-6.1 5.06-16.13 16.4-18.91 21.24a14.87 14.87 0 00-1.13 2.17 1.84 1.84 0 001.12 2.29c.82.29 3.22-1.65 3.22-1.65 28.47-18.93 23.17-21.77 21.42-23.81zM1212.85 478.53a11.91 11.91 0 01-1.8 2 17.94 17.94 0 01-1 2.07c-.08.1.07 1 .07 1.8a1 1 0 01-.56.89l-1-3.32.94-2.5 1-3a1.81 1.81 0 011.83.4 1.51 1.51 0 01.52 1.66z"/><path class="cls-32" d="M1215.88 479.57c.32-.48.76-1.61 1-2 .91-1.58 1.61-5.4 2.07-6.22s1-1.92-.31-3c-1.46-1.21-2.36.65-2.36.65a12.58 12.58 0 01-.89 1.5c-.87 1.12-3.72 3.87-4.93 5.78a2.08 2.08 0 00.64 1.83 1.66 1.66 0 001.94.11c.21-.22.45-.53.88-.27a1.7 1.7 0 01.54 1.74c-.94 1.69-.87 1.79-.49 2.22.08-.11 1.42-1.59 1.91-2.34z"/><path class="cls-32" d="M1213.26 477.73a14.42 14.42 0 01-1.37 2.36 15.85 15.85 0 01-.59 2.25 16.22 16.22 0 00.43 1.74 1 1 0 01-.38 1l-1.67-3 .42-2.65.36-3.1a1.61 1.61 0 011.79-.13 2.56 2.56 0 011.01 1.53zM1244.55 434.87c1.66-1.82 5.82-11.87 5.82-11.87l9.34-.43s5.91 5.82 6.75 10.46a34.62 34.62 0 01.12 9.64h-21.11s-1-7.67-.92-7.8z"/><path class="cls-36" d="M1262.17 425.31a11.13 11.13 0 01-7.7 3.57c-4.79.11-5.87-1.78-5.87-1.78l-1 2-8.18 12.32s-1.72 3.95 4.26 5.56l1.36 18.29 16.6-.16s7.62-21.55 6.11-29.09-5.59-10.71-5.59-10.71"/><path class="cls-32" d="M1264.64 430.45s5.31 4.19 2.41 12.25c-1.69 4.7-8.16 23.71-8.89 24.36-5 4.61-7.49-.05-7.45-3.1 0-2.55.15-13.83 2.92-20.87 2.19-5.58 5.08-14.61 11.01-12.64z"/><path class="cls-32" d="M1259.16 462.61c1.59 3.49-2.18 5.28-2.18 5.28-7.16 3.42-21.66 7.76-27.23 8.26a14.53 14.53 0 01-2.43.11 1.84 1.84 0 01-1.61-2c.08-.86 2.85-2.23 2.85-2.23 29.13-17.87 29.49-11.87 30.6-9.42zM1218.21 475.05a12.85 12.85 0 00-2.6.79 16.49 16.49 0 00-2.31.06 16.38 16.38 0 01-1.6-.82 1 1 0 00-1 .14l2.57 2.33 2.67.2 3.09.37a1.81 1.81 0 00.41-1.83 1.56 1.56 0 00-1.23-1.24z"/><path class="cls-32" d="M1218.54 471.87c.57-.09 1.78 0 2.26-.06 1.81-.16 5.57.81 6.51.74s2.14-.08 2.57 1.53c.49 1.83-1.58 1.86-1.58 1.86a12.8 12.8 0 00-1.73.18c-1.39.32-5.08 1.76-7.32 2.05 0 0-1.23-.39-1.39-1.35a1.68 1.68 0 01.71-1.81c.29-.09.67-.19.61-.68a1.7 1.7 0 00-1.34-1.23c-1.93.15-2 0-2.22-.48.12-.02 2.03-.62 2.92-.75z"/><path class="cls-32" d="M1219.11 475a15 15 0 00-2.72.25 16.59 16.59 0 00-2.28-.41 15.46 15.46 0 01-1.41-1.11 1 1 0 00-1-.08l2.06 2.8 2.58.73 3 1a1.63 1.63 0 00.87-1.57 2.55 2.55 0 00-1.1-1.61z"/><path class="cls-36" d="M1265.83 448.46s6.45-17.46-2.09-18.46c-7.55-.89-11.55 15.07-11.55 15.07z"/><path class="cls-37" d="M1253.53 415.81c.33 1.54-.66 6.73-3 7.56l-1.44-8.48z"/><path class="cls-32" d="M1246.39 407.37c.11 1.68.12 3.05.12 4.18v.85c0 3.75-.2 4.26 2.92 4.78 1.75.3 6.34-2.25 6.71-2.89 1.36-2.29 3.26-5.52 3.26-7.93a7.18 7.18 0 00-7.3-7.47 6.31 6.31 0 00-5.3 3.84c-.71 2.27-.54 2.5-.41 4.64z"/><path d="M1249.87 406.39a1.38 1.38 0 00-.38-.24 2.49 2.49 0 00-.61-.16 5.57 5.57 0 00-2 .14c-.26.06-.36-.33-.11-.39a6.09 6.09 0 012.25-.14 2.28 2.28 0 011.17.5c.19.18-.1.46-.29.29z" style="mix-blend-mode:multiply" fill="#edb6ab"/><g class="cls-39"><circle class="cls-40" cx="1248.46" cy="407.55" r=".44"/></g><path class="cls-32" d="M1246.69 406.94c-.08.11-.76 1.49-1.17 2.07-.29.4 0 .44.44.56l.71.13c.47.04.02-2.76.02-2.76z"/><path class="cls-3" d="M1246.84 412.4a1.13 1.13 0 001-.76l-1-.09z"/><path class="cls-30" d="M1253.61 400.92c-.12 0-.34 1.27-1.46 1.28-3.53 0-6.89-1-6-4.45.53-2 3-2.31 6.92-1.05 5.39 1.7 8.47 4.89 9.07 6.62 1.01 2.8-8.53-2.4-8.53-2.4z"/><path class="cls-30" d="M1250.43 399.57a9.54 9.54 0 001.35 5.69c.72 1.15 4.58 2.08 4.68 3.87 0 .89-1.31 2.27-1.39 3.41-.62 8.14-1.32 17.8 9.7 18.53 6.93.46 10.78-1.94 9.77-9.46-.35-2.55-3.68-5.29-9.14-6.1-1.22-.18-2.22-5.83-2.57-9.74a7.91 7.91 0 00-2.41-4.92s-6.99-3.23-9.99-1.28z"/><path class="cls-37" d="M1256.89 408.3c0 .14 1.32 4.53-1.72 5.6-.32.11-.21-3-.21-3z"/><path class="cls-32" d="M1254.75 408.72s1.2-1.43 1.93-.75-.59 3.26-1.42 3-.86-.72-.86-.72z"/><path d="M1255.31 408.84a.49.49 0 01.64.08.48.48 0 01.07.21.6.6 0 01-.08.47.33.33 0 01-.43.1" style="mix-blend-mode:multiply" fill="#f9cfc4"/><path d="M1010.33 407.59c-.69.9-1.52 1.69-2.3 2.52-1.24 1.33-5.07 4.25-5 7.77.07 5.79 4 6.84 6.67 7a6.09 6.09 0 002.2.11c1.12-.36 3.58-1.41 4.21-2.39 2.1-3.24-1-9.18 0-12.9.52-2 1.43-6.32-1.24-7.23a1.88 1.88 0 00-2.32.89c-.85 1.39-1.2 2.92-2.22 4.23z"/><path class="cls-42" d="M1011.34 409.57l6.81.12a20.63 20.63 0 013 12.77c0 .32-8.08 2.19-8.08 2.19z"/><path d="M1017.16 410.76c-.19.08-.21 5.67-4.89 6.82l-1-7.65z" style="mix-blend-mode:multiply" opacity=".64" fill="#947347"/><path class="cls-42" d="M1009.3 402.56c.36 1.48-.27 2.16-.31 3.12-.23 4.72-.82 6.45 2.69 7.22 1.76.39 6.55-2 7-2.6 1.49-2.27 3.59-5.47 3.71-7.92a7.31 7.31 0 00-7.05-7.95 6.41 6.41 0 00-5.59 3.63c-.86 2.24-.96 2.41-.45 4.5z"/><path class="cls-44" d="M1012.54 402.24a1.85 1.85 0 00-1-.57 5.79 5.79 0 00-1.44 0 .21.21 0 010-.41 6.44 6.44 0 011.58.07 2.27 2.27 0 011.12.67.2.2 0 01-.29.28z"/><circle cx="1011.17" cy="403.05" r=".45"/><path class="cls-42" d="M1009.35 402.53a6.82 6.82 0 01-1 2.09c-.39.54.29 1.08.79 1.11h-.13c1.76-1.04.34-3.2.34-3.2z"/><path d="M1009.35 406.21a11.14 11.14 0 011.7 1.22c-.26 1-1.77 1-1.77 1s-1.37-.39-.47-1.14c.34-.29-.42-.91.54-1.08z" style="mix-blend-mode:multiply" fill="#573a22"/><path d="M1009.18 439.69s9-7.53 8.54-7.53-5.52-10.05-5.52-10.05" fill="url(#Horizontal_line_3-9)"/><path class="cls-42" d="M1021.69 423.5s.65 4.4-3.18 12.07-17.69 17.77-18.63 18c-6.55 1.94-6.72-3.32-5.35-6 1.15-2.28 4.2-7.34 12.4-17.4 3.79-4.66 10.29-11.03 14.76-6.67z"/><path fill="url(#Horizontal_line_3-11)" d="M1012.22 424.3l-6.32 6.49 11.42 10.61"/><path class="cls-35" d="M1030.75 436.54l-5.57 22.19-16.61.16-1.68-22.64 23.86.29z"/><path class="cls-42" d="M1025.8 458.73l-16.93-.24s-4.53 6.79 1 18.43c.59 1.26 3.4 12.93 3.4 12.93s13.82 4 20.08-.69c.62-.47 2.35-6.88 2.93-9 2.27-8.28-4.65-12.05-10.48-21.43z"/><path class="cls-35" d="M1011.49 440.56s-8.54.75-8.54-4.27c0-2.67.22-.85 7.26-10.88"/><path class="cls-42" d="M1004.86 440.21c-2.5-2.91-5.71-.24-5.71-.24-6.1 5.06-16.14 16.4-18.92 21.25a13.3 13.3 0 00-1.12 2.16 1.83 1.83 0 001.11 2.29c.83.29 3.23-1.65 3.23-1.65 28.46-18.92 23.17-21.77 21.41-23.81zM976.38 472.15a12.67 12.67 0 01-1.81 2 17.42 17.42 0 01-1 2.07 15.84 15.84 0 00.07 1.8 1 1 0 01-.56.89l-1-3.32.94-2.5 1-3a1.83 1.83 0 011.84.4 1.56 1.56 0 01.52 1.66z"/><path class="cls-42" d="M979.4 473.19c.32-.48.76-1.61 1-2 .92-1.58 1.61-5.4 2.07-6.22s1-1.92-.31-3c-1.46-1.21-2.35.65-2.35.65a14.11 14.11 0 01-.89 1.5c-.88 1.12-3.73 3.87-4.94 5.78a2.11 2.11 0 00.64 1.83 1.66 1.66 0 001.94.11c.21-.22.46-.53.88-.27a1.71 1.71 0 01.55 1.74c-.94 1.69-.88 1.79-.49 2.22.07-.11 1.42-1.59 1.9-2.34z"/><path class="cls-42" d="M976.79 471.35a16.1 16.1 0 01-1.37 2.37 19.8 19.8 0 01-.59 2.24 15.2 15.2 0 00.42 1.74 1 1 0 01-.37 1l-1.68-3 .43-2.65.35-3.1a1.61 1.61 0 011.79-.13 2.59 2.59 0 011.02 1.53zM1008.07 428.49c1.67-1.82 5.82-11.87 5.82-11.87l9.34-.43s5.91 5.82 6.75 10.46a34.18 34.18 0 01.12 9.64H1009s-1-7.72-.93-7.8z"/><path class="cls-3" d="M1025.7 418.94a11.15 11.15 0 01-7.71 3.56c-4.79.11-5.86-1.78-5.86-1.78l-1 2L1003 435s-1.71 3.95 4.27 5.56l1.35 18.3 16.61-.17s7.61-21.55 6.11-29.09-5.59-10.7-5.59-10.7"/><path class="cls-42" d="M1028.16 424.07s5.32 4.19 2.41 12.25c-1.69 4.7-8.16 23.71-8.88 24.36-5.05 4.61-7.5-.05-7.45-3.1 0-2.55.15-13.83 2.91-20.86 2.19-5.59 5.09-14.62 11.01-12.65z"/><path class="cls-42" d="M1022.69 456.23c1.58 3.49-2.19 5.28-2.19 5.28-7.15 3.42-21.66 7.76-27.22 8.26a14.64 14.64 0 01-2.44.11 1.83 1.83 0 01-1.61-2c.09-.87 2.85-2.24 2.85-2.24 29.13-17.86 29.49-11.86 30.61-9.41zM981.74 468.68a11.77 11.77 0 00-2.6.78 16.63 16.63 0 00-2.32.06 16.71 16.71 0 01-1.59-.82 1 1 0 00-1.05.14l2.58 2.33 2.67.2 3.09.37a1.81 1.81 0 00.4-1.83 1.53 1.53 0 00-1.18-1.23z"/><path class="cls-42" d="M982.06 465.49c.57-.09 1.78 0 2.26-.06 1.82-.16 5.58.81 6.52.74s2.14-.08 2.56 1.53c.49 1.83-1.57 1.86-1.57 1.86a13 13 0 00-1.74.18c-1.38.32-5.07 1.76-7.31 2.06 0 0-1.23-.39-1.4-1.36a1.68 1.68 0 01.72-1.81c.28-.09.67-.18.61-.68a1.7 1.7 0 00-1.35-1.22c-1.93.14-2 0-2.22-.49.13-.02 2.04-.62 2.92-.75z"/><path class="cls-42" d="M982.63 468.64a15.1 15.1 0 00-2.72.25 17.61 17.61 0 00-2.28-.41 14.49 14.49 0 01-1.4-1.11 1 1 0 00-1.06-.08l2.06 2.8 2.58.73 3 1a1.62 1.62 0 00.86-1.58 2.51 2.51 0 00-1.04-1.6z"/><path class="cls-3" d="M1029.36 442.08s6.45-17.46-2.09-18.46c-7.55-.89-11.56 15.07-11.56 15.07z"/><path d="M1035.49 425.6c-1.77.55-3.69 0-5.42-.64a43.42 43.42 0 01-5.51-2.52 5.56 5.56 0 01-1.83-1.39 5.67 5.67 0 01-.88-2.56 5.16 5.16 0 01.22-3.58 3.34 3.34 0 012.55-1.49c3.47-.36 7.54 2.44 10.1 4.59 1.08.9 2.82 2.25 3.24 3.61.52 1.71-.88 3.49-2.47 3.98z"/><path d="M1037.54 411.61a4.64 4.64 0 012.53 1.72 4.26 4.26 0 01.39 2.1 4.08 4.08 0 01-.42 2.13 3.2 3.2 0 01-2.78 1.29c-2.87 0-5.25-2.1-7.87-3.27a25.36 25.36 0 01-3.45-1.54 3.65 3.65 0 01-1.89-3.06c.32-6.59 10.95-.35 13.49.63z"/><path d="M1020.74 403.79a4.59 4.59 0 004.21.83 10.42 10.42 0 004.94 6.92 5 5 0 002.3.9 5.55 5.55 0 002.09-.36 6.34 6.34 0 004-3.09 3.79 3.79 0 00-3.1-5.27c-1-.1-2.08.22-3.1 0a5.21 5.21 0 01-2.75-1.61c-1.13-1.13-2.24-3.8-3.16-5.1-3.26-4.65-6.62-3.11-8.21-3-3.65.37.52 7.92 2.78 9.78z"/><path d="M1016.25 398.57c-.27 0-7 1.2-8.85-1.64-1.75-2.67.5-6.75 5.29-6.15 5.83.72 11.42 5.1 12 7.8.95 4.42-8.44-.01-8.44-.01z"/><path d="M1010.74 396.12s2.3 8.74 5.24 8.36 3.34-5.33 3.34-5.33z"/><path d="M1013 397.47s5.69 4.17 4 9.53c-3.1 9.77-.18 15.48 5 17.4s12.42 1.84 12.56 1.19-8.31-26.15-8.31-26.15z"/><path class="cls-42" d="M1016.18 404.49s1.18-1.4 1.82-.67-.23 3.26-1 2.92a5.68 5.68 0 01-1.24-.74z"/><path class="cls-44" d="M1017 404.56a.41.41 0 01.58.11.51.51 0 01.06.22.65.65 0 01-.1.47.28.28 0 01-.4.08"/><path class="cls-48" d="M1331.14 417.25l11.29.15s1.71 5.1 1.45 14.63c0 .4-9.72 3.16-9.72 3.16z"/><path class="cls-48" d="M1327.92 408.12a6.87 6.87 0 01.5 1.9c0 1-.61 2.15-.59 2.75.22 5-.92 4.52-.49 6.35.32 1.37 2.08 1.44 5 2 2.16.42 7.51-2 8.39-2.36 4-1.84 5.58-9.72 5.58-12.94 0-6.77-5.58-7.57-9.7-6.83a11.19 11.19 0 00-5.38 2.51c-2.38 2.06-3.5 6.12-3.31 6.62z"/><path d="M1332 408.17a3 3 0 00-3.64-.22"/><g class="cls-39"><circle class="cls-40" cx="1330.2" cy="409.98" r=".55"/></g><path class="cls-48" d="M1328.63 408.79a48 48 0 01-2.09 4.43c-.06.16 1.3.38 1.46.38s.63-4.81.63-4.81z"/><path class="cls-49" d="M1337.53 421.43c-.22.12 1.26 6.25-4.38 7.93l-1.35-8.36z"/><path class="cls-50" d="M1327.88 414.58s1.48.37 1.45.64c-.06.56-1.56.62-1.56.62z"/><path d="M1327.8 413.46s3.51.28 3.51 1.43c0 .07-3.43-.31-3.43-.31zM1327.68 404.76s4.65-12 17-5.31c5.64 3.06 3.48 11.7-1.33 19-.07.1-2.91.47-3.65-.75-.91-1.52-1.17-7.05-1.17-7.05l-3.18.67s-.38-3.94-1-4.11c-5.76-1.62-6.67-2.45-6.67-2.45z"/><path class="cls-49" d="M1338.92 409.55s.2 2.29-.9 2.71a2.3 2.3 0 01-1.47 0s.39 3.37 2.23 2.62.14-5.33.14-5.33z"/><path class="cls-48" d="M1336.67 410.34s1-2.07 1.95-1.22a1.8 1.8 0 01-1.25 3c-1.1 0-1.2-.26-1.2-.26z"/><path class="cls-50" d="M1337.53 410.37a.41.41 0 01.72-.26v.09a.83.83 0 010 .27.76.76 0 01-.24.54.41.41 0 01-.55 0z"/><path class="cls-48" d="M1323.61 442.11c2.23-3.93 9.78-12.79 9.78-12.79l10-1.66s7.2 5.1 9 13.6c.07.32-.63 9.25-.63 9.25h-30.25s2.04-8.3 2.1-8.4z"/><path class="cls-25" d="M1326.23 421.69s-.02-.02 0 0z"/><path d="M1343.44 425.9l-12.53 6.4-7.49 9.92-2 8.46h30.46l.68-10.15s-2.62-7.68-6.73-10.78z" fill="#1d6d75"/><path class="cls-2" d="M1343.73 425.29l-12.87 7.11 14.22-4.74-1.35-2.37z"/><path class="cls-28" d="M1342.64 442.47s.34 4.36-2.46 6.87c-3.31 3-17.28 15.59-18.11 15.84-5.83 1.76-5.41-3.56-4.2-6s3.61-8.76 8.25-13.63c4.14-4.33 11.94-11.89 16.52-3.08z"/><path class="cls-48" d="M1325.38 458.42c1.25 2.05.06 3 .06 3-6.48 4.49-15 9.76-19.18 12.58-.78.53-1.24.43-1.73.71l-2.61-2.54c15.86-20.55 22.21-15.79 23.46-13.75z"/><path class="cls-24" d="M1297 476.05a11.45 11.45 0 00-2 1.32 16.53 16.53 0 00-2 .63 14.81 14.81 0 01-1.57-.3.85.85 0 00-.86.37l2.78 1.36 2.34-.49 2.74-.45a1.63 1.63 0 00-.11-1.67 1.38 1.38 0 00-1.32-.77z"/><path class="cls-48" d="M1296.48 473.25c.47-.22 1.52-.46 1.92-.61 1.51-.6 2.09-.34 5.16-1 3.33-.76 3.57 2.09 2.29 2.71-.41.2-1 .36-1.44.59a67.58 67.58 0 01-5.76 3.57s-1.15 0-1.52-.81a1.49 1.49 0 01.16-1.73c.22-.15.53-.33.35-.74a1.11 1.11 0 00-1.42-.44c-1.37.48-2 .24-2.06-.14.44-.16 1.59-1.08 2.32-1.4z"/><path class="cls-48" d="M1297.75 475.8a13.51 13.51 0 00-2.27.89 15.28 15.28 0 00-2.06.22 13.76 13.76 0 01-1.48-.61.87.87 0 00-.92.2l2.46 1.88h2.39l2.78.1a1.45 1.45 0 00.36-1.56 2.26 2.26 0 00-1.26-1.12zM1342 441.79s.34 4.36-2.47 6.88c-3.31 3-17.28 15.59-18.11 15.84-5.83 1.75-5.4-3.57-4.2-6s3.61-8.76 8.25-13.62c4.11-4.35 11.91-11.89 16.53-3.1z"/><path class="cls-2" d="M1334.93 453.39l-10.16-9.48 10.16-7.78 7.11 2.03 1.69 6.43-8.8 8.8z"/><path fill="#005156" d="M1324.77 443.91l10.16 9.48-.68.68-10.16-9.48.68-.68z"/><path class="cls-53" d="M1108.15 450.65c-2.67-1.54-4.61 1.4-4.61 1.4-3.69 5.58-9 17.07-10.14 21.56a11.81 11.81 0 00-.4 2 1.41 1.41 0 001.42 1.46c.73 0 2.19-2.17 2.19-2.17 18.29-22.44 13.39-23.16 11.54-24.25z"/><path class="cls-54" d="M1105 424s6.81.07 6.64 9c-.08 4.23-1.28 21.19-1.7 21.88-2.91 4.83-5.78 1.51-6.39-1-.51-2.1-1.47-11.41-2.16-17.76-.39-3.9-1.33-12.55 3.61-12.12z"/><path class="cls-53" d="M1122.6 458.49l-19 .41s.94 9.9 1.59 13.63c.2 1.16 1.65 10 1.65 10s11 3.4 16-.59c.49-.39 1.13-2.92 1.58-4.69 1.87-7.03 2.82-10.8-1.82-18.76z"/><path class="cls-53" d="M1096.29 424.78l5.26-6.23s13.67 2.18 16.69 9.42c4.93 11.83 4.85 30.68 4.85 30.68l-19.35.25z"/><path class="cls-53" d="M1091.1 418.07l6.7-5s5.63 6.77 6.2 8.46c.11.3-7.61 3.78-7.61 3.78z"/><path class="cls-53" d="M1086.91 408.84c0 .5.49 1.19.42 1.49a5.91 5.91 0 00.13 2.42c1.06 4 .53 3.73 1.18 5.12.49 1 1.66 1.65 4 1.56 1.71-.06 5.09-3.79 5.68-4.28 2.74-2.26 2.49-8.9 1.92-11.49-1.21-5.47-5.57-5.05-8.56-3.67-4.46 2.01-4.88 6.93-4.77 8.85z"/><g class="cls-39"><path class="cls-53" d="M1089.71 408.26a2.18 2.18 0 00-2.37.34"/></g><ellipse class="cls-40" cx="1088.71" cy="410.83" rx=".43" ry=".46"/><path class="cls-53" d="M1087.4 409.2c-.92 2.42-1.11 3.28-.66 3.54a1.16 1.16 0 001.11 0c.32-.24-.4-3.58-.45-3.54z"/><path class="cls-55" d="M1095.22 418.3c-.12.08 1.17 3.42 0 5.54l-3.19-4.41z"/><path d="M1091.2 416.77c-1.6.42-2.33-2.22-2.17-2.61" style="mix-blend-mode:multiply" stroke="#cd904d" stroke-width="1.02" opacity=".67" stroke-miterlimit="10" fill="none"/><path class="cls-55" d="M1087.92 411a2.18 2.18 0 001.37 1.3c.61.19 1.87 0 2-1"/><path class="cls-57" d="M1089.33 413.82c-.51-.47-1.29-1-1.93-.73v2.73l2.92-.26a4.43 4.43 0 00-.99-1.74z"/><path class="cls-2" d="M1102 418.62s14.34 2.36 17 9.39a72.55 72.55 0 014 20.29c.81 11.85-.2 10.28-.2 10.28l-19.35.25-7.12-32.93s6.4-3.21 5.67-7.28z"/><path class="cls-54" d="M1110.63 423.76s5.36 4.2-.19 11.18c-2.63 3.31-13.89 16.05-14.64 16.34-5.25 2.07-5.51-2.32-4.47-4.68.88-2 5.77-10 9.08-15.42 2-3.31 6.5-10.75 10.22-7.42z"/><path class="cls-54" d="M1096.88 446.85c-1.19-2.85-4.51-1.69-4.51-1.69-6.32 2.18-17.56 8-21.16 11a12.24 12.24 0 00-1.51 1.33 1.39 1.39 0 00.25 2c.58.44 3-.39 3-.39 28.2-6.71 24.76-10.25 23.93-12.25z"/><path class="cls-53" d="M1065 463.31a10.76 10.76 0 01-2 1.05c-.19.06-.77.93-1.41 1.29a12.34 12.34 0 00-.45 1.37.83.83 0 01-.7.52l.11-2.77 1.46-1.63 1.6-2a1.57 1.57 0 011.36.78 1.19 1.19 0 01.03 1.39z"/><path class="cls-53" d="M1067.17 464.9c.39-.28 1.06-1 1.37-1.26 1.18-.94 2.82-3.63 3.42-4.13s1.31-1.18.59-2.31c-.83-1.3-2.07-.14-2.07-.14a10.6 10.6 0 01-1.14.89 62.73 62.73 0 00-5.59 3 1.58 1.58 0 000 1.54 1.45 1.45 0 001.52.6c.23-.11.52-.28.78 0a1.28 1.28 0 010 1.45c-1.23 1-1.21 1.12-1 1.54.02.01 1.52-.75 2.12-1.18z"/><path class="cls-53" d="M1065.59 462.82a12.28 12.28 0 01-1.76 1.42c-.18.09-.56 1.05-1.11 1.52a12.71 12.71 0 00-.15 1.43.79.79 0 01-.58.64l-.48-2.73 1.09-1.88 1.15-2.23a1.45 1.45 0 011.48.38 1.92 1.92 0 01.36 1.45z"/><path class="cls-58" d="M1110.66 423.76s5.36 4.2-.19 11.18c-2.63 3.31-13.89 16.05-14.64 16.34-5.25 2.07-5.51-2.32-4.46-4.68.87-2 5.77-10 9.07-15.42 2-3.31 6.56-10.75 10.22-7.42z"/><path class="cls-58" d="M1096.31 447.18c-1.19-2.84-4.51-1.69-4.51-1.69-6.32 2.19-17.56 8.06-21.16 11a12.24 12.24 0 00-1.51 1.33 1.4 1.4 0 00.24 2c.58.43 3.05-.39 3.05-.39 28.15-6.71 24.72-10.25 23.89-12.25z"/><path class="cls-53" d="M1092.87 483.08a11.57 11.57 0 01-1 2.06 15.16 15.16 0 01-.34 1.87 11.89 11.89 0 00.48 1.36.84.84 0 01-.24.84l-1.6-2.26.17-2.19.08-2.53a1.54 1.54 0 011.55-.2 1.17 1.17 0 01.9 1.05z"/><path class="cls-53" d="M1095.52 483c.14-.46.23-1.45.33-1.83.36-1.47 0-4.6.2-5.35s.32-1.74-.94-2.2c-1.44-.53-1.72 1.15-1.72 1.15a12.21 12.21 0 01-.37 1.39c-.43 1.11-2.07 4-2.59 5.81 0 0 .17 1 .94 1.23a1.46 1.46 0 001.57-.45c.12-.23.24-.53.64-.45a1.28 1.28 0 01.84 1.18c-.36 1.56-.28 1.62.12 1.84.04-.06.77-1.57.98-2.32z"/><path class="cls-53" d="M1093 482.35a12 12 0 01-.55 2.2 12 12 0 010 1.88 13.8 13.8 0 00.75 1.23.8.8 0 01-.07.86l-2-1.88-.28-2.15-.44-2.48a1.44 1.44 0 011.4-.59 2 2 0 011.19.93z"/><path class="cls-55" d="M1095.36 409.75s.56 1.81-.19 2.36a1.74 1.74 0 01-1.11.3s.89 2.65 2.15 1.7-.85-4.36-.85-4.36z"/><path class="cls-57" d="M1083.84 404.32a4.29 4.29 0 01-2.18-4 4.43 4.43 0 012.65-3.71 3.28 3.28 0 011.69-.26c1.3.19 2.23 1.35 3.45 1.85a2.42 2.42 0 012.42-1.13 3.56 3.56 0 012.34 1.47c.17.24.36.51.65.54a1.23 1.23 0 00.63-.22 3.11 3.11 0 013.27.73c1.77 1.51 4 2.43 2.82 7.15-.58 2.26-.81 3.83-1.52 6.05-2.07.74-4.76.47-4.35-2.4-.42.31-2-.41-2.4-.77s-.3-5.23-4-5.58c-1.98-.17-3.41 1.4-5.47.28z"/><path class="cls-53" d="M1093.8 410.82s.42-1.87 1.26-1.36.83 2.69 0 2.59a3.26 3.26 0 01-1.34-.43z"/><path class="cls-54" d="M1094.46 410.68c-.07-.31.28-.56.49-.34a.1.1 0 010 .06.52.52 0 01.07.21.71.71 0 01-.08.48.32.32 0 01-.42.11z"/><path class="cls-59" d="M918.27 464.89c-.57 2.75-4.35 2.66-4.35 2.66-7.46-2.65-15.93-6.23-20.67-8-.89-.32-1.08-.75-1.6-1l.54-3.62c26.1.87 26.57 7.6 26.08 9.96z"/><path d="M886.16 453.2a11.25 11.25 0 00-2.28-.88c-.21 0-.94-.93-1.66-1.24a16 16 0 01-.68-1.46.87.87 0 00-.81-.48l.53 3.07 1.77 1.61 2 2a1.62 1.62 0 001.3-1.06 1.41 1.41 0 00-.17-1.56z" style="mix-blend-mode:multiply" fill="#cd8f4d"/><path class="cls-59" d="M888.14 451.14c.46.25 1.27 1 1.63 1.2 1.37.89 1.5 1.51 3.87 3.6 2.58 2.27.39 4.14-.86 3.46-.41-.22-.89-.62-1.32-.83a67.18 67.18 0 01-6.3-2.59 1.89 1.89 0 01-.23-1.73 1.48 1.48 0 011.5-.88c.25.09.58.24.81-.14a1.12 1.12 0 00-.47-1.42c-1.2-.84-1.35-1.46-1.1-1.76.33.29 1.78.68 2.47 1.09z"/><path class="cls-59" d="M886.81 453.67a14.23 14.23 0 00-2.06-1.33c-.2-.08-.74-1.1-1.39-1.54-.09-.07-.18-.87-.37-1.57a.87.87 0 00-.7-.64l-.1 3.12 1.42 1.94 1.55 2.33a1.44 1.44 0 001.48-.64 2.31 2.31 0 00.17-1.67zM933.87 442.35s1 4.27-1.35 7.21c-2.81 3.47-13.57 18.25-17.63 17.81-6.08-.66-3.76-1.9-2.95-4.5s2.2-9.26 6-14.82c3.45-4.98 9.99-13.71 15.93-5.7z"/><path class="cls-53" d="M941.59 444.85s1.9 4.57-.23 8.27c-2.52 4.35-13.12 22.85-13.92 23.41-5.66 3.94-7.08-1.94-6.63-5s.8-10.69 4.08-17.56c2.94-6.11 8.67-16.97 16.7-9.12z"/><path class="cls-53" d="M941.14 453.65l-7.33 22.44-19.07.15-1.53-22.15 27.93-.44z"/><path class="cls-53" d="M936.5 484.26c.14.29 3.74 5.33 4.18 9.86s-4.23 10.47-4.23 10.47l-18.36.2-2.16-12.71-1-16.26 18.9.26a66 66 0 002.67 8.18zM922 424l10.63.15S934.24 429 934 438c0 .36-9.16 3-9.16 3z"/><path class="cls-53" d="M915.09 446.71c2.11-3.71 9.24-12.08 9.24-12.08l9.47-1.58s6.8 4.82 8.51 12.86c.06.31-.59 8.75-.59 8.75h-28.6s1.88-7.85 1.97-7.95zM919 415.43a6.47 6.47 0 01.48 1.79c0 1-.58 2-.56 2.59.21 4.73-.87 4.26-.47 6 .31 1.28 2 1.35 4.72 1.9 2 .4 7.07-1.85 7.9-2.22 3.82-1.74 5.27-9.17 5.27-12.19 0-6.39-5.27-7.14-9.15-6.44a10.54 10.54 0 00-5.07 2.36c-2.29 1.92-3.35 5.78-3.12 6.21z"/><path d="M922.77 415.47a2.8 2.8 0 00-3.43-.2"/><g class="cls-39"><circle class="cls-40" cx="921.1" cy="417.18" r=".52"/></g><path class="cls-53" d="M919.62 416.07a45.59 45.59 0 01-2 4.17c0 .15 1.23.35 1.38.35s.62-4.52.62-4.52z"/><path class="cls-55" d="M928 428c-.21.1 1.19 5.88-4.13 7.47l-1.27-7.84z"/><path d="M921.56 410s5.78-7.46 14.31-2.37c5.2 3.09 2.9 10.85-2.86 17.45-.08.09-2.55-.49-3.24-1.65-.87-1.43-.81-5.64-.81-5.64l-3 .63s-.77-3.3-.92-3.87c-.62-2.46-3.48-4.55-3.48-4.55z"/><path class="cls-55" d="M929.31 416.78s.2 2.15-.84 2.55a2.22 2.22 0 01-1.39 0s.37 3.18 2.11 2.47.12-5.02.12-5.02z"/><path class="cls-53" d="M927.2 417.52s1-1.95 1.83-1.15a1.69 1.69 0 01-1.18 2.86c-1 0-1.13-.24-1.13-.24z"/><path class="cls-54" d="M928 417.55a.38.38 0 01.67-.24.2.2 0 010 .08.57.57 0 010 .26.73.73 0 01-.22.51.4.4 0 01-.52 0zM918.91 421.52s1.4.35 1.37.6c-.06.53-1.47.58-1.47.58z"/><path d="M914.88 410.18a2.24 2.24 0 012.41-2c.47.07.91.31 1.38.39a1 1 0 001.19-.56c.12-.4-.14-.8-.23-1.2a2.07 2.07 0 011.56-2.23c1-.29 2 .49 3 .44 3-.15 5.62-.87 9.08 1.43l-3.71 3c.22-.1.35.26.32.51a5.82 5.82 0 01-2.15 3.56 4.46 4.46 0 01-2 1.05c-4.94.85-1.26-4.28-5.69-2.78-1.28.73-2.06 1.34-3.19 1a2.64 2.64 0 01-1.97-2.61z"/><path class="cls-61" d="M934.61 433.23l-13.1 4.48-6.64 9-1.66 6.93 2.43 33.5 20.29-4.69-2.14-6.67 8.31-22.61s1.95-8.41-2-13.43-5.47-6.5-5.47-6.5"/><path fill="#ed6a5e" d="M934.94 433.09l-13.86 5.2"/><path class="cls-53" d="M898.27 461.47c29.58 0 24.73 7.49 24.26 10.17" opacity=".67"/><path class="cls-64" d="M891.6 472a2.67 2.67 0 002.36-3.9l-10.27-19.56a2.66 2.66 0 10-4.71 2.48l10.27 19.55a2.66 2.66 0 002.35 1.43z"/><path d="M939.87 443c0 .66 3 6.24-2.39 18.48-5.65 12.75-22.14 18.45-22.14 18.45l-.47-5.54z" opacity=".12" fill="#022327"/><path class="cls-59" d="M923.45 473c-.55 3.14-4.83 3.17-4.83 3.17-8.55-2.74-18.27-6.5-23.7-8.31-1-.34-1.25-.82-1.84-1.07l.48-4.12c29.58.07 30.36 7.67 29.89 10.33zM886.66 460.93a12.31 12.31 0 00-2.6-.92c-.24 0-1.1-1-1.93-1.35a15.11 15.11 0 01-.82-1.62 1 1 0 00-.94-.52l.71 3.45 2.07 1.77 2.3 2.16a1.84 1.84 0 001.44-1.25 1.58 1.58 0 00-.23-1.72z"/><path class="cls-59" d="M888.84 458.52c.52.27 1.46 1.06 1.88 1.31 1.59.95 1.76 1.65 4.52 3.93 3 2.49.59 4.68-.86 4-.47-.24-1-.68-1.53-.89-1.32-.58-5.2-1.62-7.22-2.72a2.14 2.14 0 01-.32-1.95 1.69 1.69 0 011.67-1.05c.29.1.66.25.91-.19a1.28 1.28 0 00-.59-1.6c-1.38-.89-1.57-1.6-1.3-1.95.41.28 2 .68 2.84 1.11z"/><path class="cls-59" d="M887.41 461.43A15.16 15.16 0 00885 460c-.23-.09-.88-1.22-1.63-1.71a15.79 15.79 0 01-.48-1.76 1 1 0 00-.81-.7v3.53l1.68 2.15 1.83 2.59a1.65 1.65 0 001.66-.77 2.58 2.58 0 00.16-1.9zM938 444.87s1.68 4.68-.64 8.29c-2.74 4.25-13 22.22-17.67 22.22-6.93 0-4.47-1.68-3.88-4.71s1.34-10.7 5-17.44c3.25-6.02 9.54-16.66 17.19-8.36z"/><path class="cls-61" d="M920 454.23l12.94 7s12-16.31 5.46-19.63-14.8-3.6-18.4 12.63z"/><path class="cls-3" d="M933.34 459.84l-13.09-6.46c-1.36-.68-2.57 1.37-1.2 2.05l13.09 6.46c1.37.67 2.57-1.37 1.2-2.05z"/><path class="cls-64" d="M936 435s-20.3 7-22 16.58c-1 5.32-.44 6.1-.44 6.1a32.88 32.88 0 0125.12-19.72"/><path class="cls-3" d="M933.59 430.61l-7.44 4.94-1.45 4.94 11.93-5.52-3.04-4.36zM922.42 435.21l-1 2.6 1.23 3.51 1.84-3.1-2.07-3.01z"/><path class="cls-61" d="M860.82 485.21c0 2.73 0 5.31.08 7.71.08 4.55.18 8.44.33 11.43a35 35 0 00.59 6.08c2.35 7.95 14.09 7.95 14.09 7.95h461.39a10.66 10.66 0 001.49-.1l45.59-6.53a10.83 10.83 0 009.21-10.77V383.8a10.79 10.79 0 00-9.83-10.84 7.5 7.5 0 00-.82 0l-69.43-.32-30.72-.15-57-.27-173.93-.83-57-.27c-62.26-.29-107.91-.5-112.77-.5-11 0-16.41 5.73-18.76 9.5a10.81 10.81 0 00-1.63 5.53v2.7c5.73-.08 70.84-.6 70.84.41h-1.35l-.33 57.73c-26.86 5.02-43.73 37.02-70.04 38.72zm95.49-37.16l.33-58.47h139a5.57 5.57 0 001.64.25h125.86a5.68 5.68 0 001.65-.25h83.51a5.63 5.63 0 001.65.25h53.67a5.45 5.45 0 001.63-.25H1378v58.47zm-69.43-53.85a11.46 11.46 0 00-11.35 11.53v10.74A11.46 11.46 0 00886.88 428z"/><rect class="cls-66" x="1199.09" y="465.24" width="61.32" height="13.5" rx="6.75" transform="rotate(-180 1229.75 471.99)"/><rect class="cls-66" x="1025.21" y="465.24" width="61.32" height="13.5" rx="6.75" transform="rotate(-180 1055.87 471.99)"/><path class="cls-66" d="M1091.67 381.4v2.29a5.63 5.63 0 004 5.36 5.56 5.56 0 001.64.24h125.86a5.58 5.58 0 005.61-5.6v-2.29a5.62 5.62 0 00-5.61-5.6h-125.9a5.62 5.62 0 00-5.6 5.6zM1304.33 381.4v2.29a5.58 5.58 0 005.61 5.6h53.67a5.45 5.45 0 001.63-.24 5.64 5.64 0 004-5.36v-2.29a5.62 5.62 0 00-5.6-5.6h-53.67a5.62 5.62 0 00-5.64 5.6z"/><path class="cls-61" transform="rotate(-180 1254.31 369.51)" d="M1225.83 366.07h56.97v6.89h-56.97z"/><path class="cls-61" d="M1313.17 373h71.62v-7a8.45 8.45 0 00-8.38-8.52h-48.59z"/><path class="cls-2" d="M1322.24 368.88h53v-3.45a4.19 4.19 0 00-4.18-4.19h-41.5z"/><path class="cls-61" transform="rotate(-180 1023.415 369.51)" d="M994.93 366.07h56.97v6.89h-56.97z"/><path class="cls-3" d="M1365.24 389.05h-57a5.63 5.63 0 001.65.24h53.67a5.45 5.45 0 001.68-.24zM1224.78 389.05h-129.15a5.56 5.56 0 001.64.24h125.86a5.68 5.68 0 001.65-.24z"/><path class="cls-67" d="M1021.08 516v-20.59a19.12 19.12 0 00-19.08-19.12h-17.46a19.12 19.12 0 00-19.12 19.12V516z"/><path class="cls-2" d="M967.74 504.67A25 25 0 10994.91 482a24.83 24.83 0 00-27.17 22.67z"/><path class="cls-2" d="M989.52 480.67a26.71 26.71 0 015.52-.08l.62.08-3 26.24zM995.83 533a27.54 27.54 0 01-5.53.08l-.62-.08 3-26.24z"/><path class="cls-2" d="M966.53 510a26.74 26.74 0 01-.08-5.52c0-.21 0-.42.07-.63l26.25 3zM1018.81 503.66a26 26 0 01.08 5.52c0 .21 0 .42-.07.63l-26.24-3z"/><path class="cls-2" d="M1008.93 486.1a26.62 26.62 0 014 3.85l.39.49-20.72 16.44zM976.42 527.53a25.69 25.69 0 01-4-3.85c-.14-.16-.26-.33-.39-.49l20.67-16.44z"/><path class="cls-2" d="M972 490.56a27.65 27.65 0 013.85-4l.5-.39 16.43 20.68zM1013.39 523.07a26.62 26.62 0 01-3.85 4l-.5.39-16.43-20.68z"/><path class="cls-2" d="M1000 481.52a26.75 26.75 0 015.12 2.09l.54.32-13 23zM985.34 532.1a25.44 25.44 0 01-5.11-2.09 6 6 0 01-.55-.31l13-23z"/><path class="cls-2" d="M967.38 499.48a26.67 26.67 0 012.09-5.11c.1-.19.21-.37.31-.55l23 13zM1018 514.15a26.67 26.67 0 01-2.09 5.11c-.1.19-.21.36-.31.55l-23-13z"/><path class="cls-2" d="M1015.19 493.17a26.33 26.33 0 012.35 5c.07.2.13.4.19.6l-25.15 8.08z"/><path class="cls-2" d="M970.15 520.46a26.33 26.33 0 01-2.35-5c-.07-.2-.12-.4-.19-.6l25.15-8.08z"/><path class="cls-2" d="M979 484.29a27 27 0 015-2.35l.6-.19 8.08 25.15zM1006.32 529.34a27.23 27.23 0 01-5 2.34l-.6.19-8.08-25.15z"/><g class="cls-68"><path class="cls-69" d="M970.62 518.57a24.94 24.94 0 1042.44-26l-13.46 8.23-15.54 9.54z"/></g><path class="cls-3" d="M978.17 505.6A14.55 14.55 0 10994 492.42a14.55 14.55 0 00-15.83 13.18z"/><path class="cls-2" d="M992.25 511.53a4.66 4.66 0 01-4.21-5 4.64 4.64 0 114.63 5.06zm-2.84-4.91a3.27 3.27 0 103.55-3h-.3a3.27 3.27 0 00-3.25 3z"/><path class="cls-2" transform="rotate(-180 1183.905 500.465)" d="M1179.21 498.51h9.39v3.91h-9.39z"/><path class="cls-2" transform="rotate(-180 1067.825 500.465)" d="M1063.13 498.51h9.39v3.91h-9.39z"/><path class="cls-2" transform="rotate(-180 890.195 500.465)" d="M885.5 498.51h9.39v3.91h-9.39z"/><path class="cls-2" d="M870.11 490.67s-.15 7.42-.93 8.53c-1.47 2.11-4.77 2.88-8.58 2.7v-11.23z"/><path class="cls-3" d="M875.53 404.93v10.57a11.37 11.37 0 0011.35 11.34v-33.25a11.37 11.37 0 00-11.35 11.34z"/><path class="cls-61" d="M875.53 405.73v10.74A11.46 11.46 0 00886.88 428v-33.8a11.46 11.46 0 00-11.35 11.53z"/><path class="cls-2" d="M1393.59 466.51a42.26 42.26 0 00-17.51-18.51l-67.22.28c-.17 3.32-.26 6.72-.24 10.15a42.43 42.43 0 0120.46 59.29l.77.63h8.1l46.43-6.64a13.36 13.36 0 003.36-1.07c1.11-.67 3.17-2.2 3.17-2.2s2.69-3.19 2.68-6.06z"/><path class="cls-3" d="M1255.57 518.39c-7.54-12.59-10.21-29-10.55-44.95a200.57 200.57 0 011.17-25.07l30.56-.05.15 9.37a42.3 42.3 0 0131.72.78v2.67c.42 20.36 4.68 41.54 18 54.45.78.75 1.59 1.47 2.43 2.17l-.35.63z"/><path d="M1331.56 482.53a42.3 42.3 0 00-22.94-24.06v2.67c.42 20.36 4.68 41.54 18 54.45.78.75 1.59 1.47 2.43 2.17a42.34 42.34 0 002.51-35.23z" fill="#36bcee"/><rect class="cls-2" x="1386.73" y="446.72" width="8.02" height="42.88" rx="1.36" transform="rotate(180 1390.735 468.155)"/><path class="cls-67" d="M1321.42 516v-20.59a19.12 19.12 0 00-19.12-19.12h-17.42a19.12 19.12 0 00-19.12 19.12V516z"/><path class="cls-2" d="M1268.12 504.24a25 25 0 1027.17-22.68 24.83 24.83 0 00-27.17 22.68z"/><path class="cls-2" d="M1289.89 480.24a26.82 26.82 0 015.53-.08l.62.08-3 26.24z"/><path class="cls-2" d="M1296.21 532.53a26.83 26.83 0 01-5.53.07c-.21 0-.41-.05-.62-.07l3-26.24z"/><path class="cls-2" d="M1266.91 509.54a26.06 26.06 0 01-.08-5.52c0-.21.05-.42.07-.63l26.25 3z"/><path class="cls-2" d="M1319.19 503.23a26 26 0 01.08 5.52c0 .21 0 .42-.07.63l-26.25-3z"/><path class="cls-2" d="M1309.3 485.67a26.21 26.21 0 014 3.85c.13.16.25.33.39.49L1293 506.45zM1276.8 527.1a26.21 26.21 0 01-4-3.85l-.39-.49 20.68-16.44z"/><path class="cls-2" d="M1272.33 490.13a26.63 26.63 0 013.85-4c.16-.14.33-.26.5-.39l16.43 20.68z"/><path class="cls-2" d="M1313.77 522.64a27.12 27.12 0 01-3.85 4l-.5.39-16.42-20.72z"/><path class="cls-2" d="M1300.38 481.09a27 27 0 015.12 2.09l.54.32-13 23zM1285.72 531.67a25.52 25.52 0 01-5.12-2.09l-.54-.31 13-23z"/><path class="cls-2" d="M1267.76 499.05a26.67 26.67 0 012.09-5.11c.1-.19.21-.37.31-.55l23 13zM1318.34 513.72a26.93 26.93 0 01-2.09 5.11c-.1.18-.21.36-.31.55l-23-13z"/><path class="cls-2" d="M1315.57 492.74a26.33 26.33 0 012.35 5c.07.2.12.4.19.6l-25.11 8.08zM1270.53 520a26.33 26.33 0 01-2.35-5c-.07-.2-.12-.4-.19-.6l25.15-8.08z"/><path class="cls-2" d="M1279.41 483.86a27 27 0 015-2.35l.6-.19 8.07 25.15z"/><path class="cls-2" d="M1306.69 528.9a26.33 26.33 0 01-5 2.35l-.6.19-8.09-25.15z"/><g class="cls-68"><path class="cls-69" d="M1271 518.14a24.94 24.94 0 1042.45-26l-13.45 8.23-15.54 9.54z"/></g><path class="cls-3" d="M1278.55 505.17a14.55 14.55 0 1015.8-13.18 14.55 14.55 0 00-15.8 13.18z"/><path class="cls-2" d="M1292.63 511.1a4.65 4.65 0 01-4.21-5 4.64 4.64 0 114.63 5.06zm-2.85-4.92a3.27 3.27 0 103.56-3h-.3a3.29 3.29 0 00-3.26 3z"/><path class="cls-3" d="M1363.82 389.62h-57a5.57 5.57 0 001.64.25h53.67a5.57 5.57 0 001.69-.25zM1223.35 389.62h-129.14a5.45 5.45 0 001.63.25h125.86a5.58 5.58 0 001.65-.25z"/><path class="cls-18" d="M856.19 463.62l-27.12-24.12-36.93-15.07h-85.9l-19.59 15.07v15.83l93.44 10.55h47.47l28.63-2.26z"/><path class="cls-4" d="M777.13 485.38a1.28 1.28 0 01-1.28 1.29h-6.33a1.28 1.28 0 01-1.29-1.28 1.29 1.29 0 011.28-1.3h6.33a1.29 1.29 0 011.29 1.29z"/><path class="cls-71" d="M783.43 455.61s-1.39 3.36.17 6.06c1.85 3.2 9.62 16.77 10.22 17.18 4.14 2.89 5.18-1.42 4.86-3.65s-.59-7.84-3-12.88c-2.15-4.5-6.36-12.48-12.25-6.71z"/><path class="cls-71" d="M783.76 462.06l5.38 16.47 13.99.1 1.12-16.24-20.49-.33z"/><path class="cls-71" d="M787.17 484.52c-.1.21-2.75 3.91-3.07 7.23s3.11 7.69 3.11 7.69l13.46.14 1.59-9.32.76-11.93-13.87.19a49.13 49.13 0 01-1.98 6zM797.81 440.34l-7.8.11s-1.18 3.52-1 10.11c0 .27 6.72 2.18 6.72 2.18z"/><path class="cls-71" d="M802.87 457c-1.54-2.73-6.78-8.87-6.78-8.87l-6.94-1.13a17.13 17.13 0 00-6.24 9.43c0 .22.43 6.41.43 6.41h21s-1.42-5.79-1.47-5.84zM800 434a4.66 4.66 0 00-.35 1.31c0 .72.43 1.49.41 1.9-.15 3.47.64 3.13.34 4.39-.22.95-1.44 1-3.46 1.4-1.49.29-5.19-1.36-5.79-1.63-2.81-1.28-3.87-6.72-3.87-8.94 0-4.69 3.86-5.24 6.71-4.73a7.77 7.77 0 013.72 1.74A7.53 7.53 0 01800 434z"/><path d="M797.24 434.06a2.06 2.06 0 012.52-.15"/><g class="cls-39"><circle class="cls-4" cx="798.46" cy="435.32" r=".38"/></g><path class="cls-71" d="M799.55 434.49a29.92 29.92 0 001.45 3.06c0 .12-.9.27-1 .27s-.45-3.33-.45-3.33z"/><path class="cls-72" d="M793.4 443.23c.15.08-.88 4.32 3 5.48l.94-5.75z"/><path class="cls-73" d="M800.07 438.5s-1 .25-1 .44c0 .38 1.07.42 1.07.42z"/><path d="M803 430.18a1.64 1.64 0 00-1.77-1.49c-.35.05-.67.23-1 .28a.77.77 0 01-.88-.41c-.08-.29.11-.58.17-.88a1.51 1.51 0 00-1.14-1.63c-.7-.21-1.46.35-2.19.32-2.16-.11-4.12-.64-6.66 1.05l2.73 2.2c-.17-.07-.27.19-.24.37a4.2 4.2 0 001.58 2.61 3.09 3.09 0 001.46.77c3.62.63.92-3.13 4.17-2 .94.53 1.51 1 2.34.75a1.93 1.93 0 001.43-1.94z"/><path d="M798.12 430.06s-4.23-5.47-10.49-1.74c-3.81 2.27-2.13 8 2.1 12.8a3.78 3.78 0 002.38-1.21c.63-1.05.59-4.13.59-4.13l2.2.46.67-2.84a7.38 7.38 0 012.55-3.34z"/><path class="cls-72" d="M792.44 435s-.14 1.58.62 1.87a1.57 1.57 0 001 0s-.27 2.33-1.54 1.82-.08-3.69-.08-3.69z"/><path class="cls-71" d="M794 435.56s-.72-1.43-1.35-.84a1.24 1.24 0 00.87 2.09c.75 0 .83-.17.83-.17z"/><path class="cls-73" d="M793.39 435.58a.27.27 0 00-.49-.17.33.33 0 000 .06.58.58 0 000 .19.52.52 0 00.17.37.29.29 0 00.38 0z"/><path d="M788.56 447.09l10.18 3.73L803 457l1.22 5.08-1.78 24.58-14.89-3.45 1.57-4.89-6.09-16.58s-1.43-6.17 1.48-9.86a61.39 61.39 0 014-4.76" fill="url(#Unnamed_Pattern_23)"/><path stroke-width=".84" stroke="#fff" stroke-linecap="round" stroke-linejoin="round" fill="none" d="M788.31 446.98l10.83 4.07"/><path class="cls-76" d="M787.55 446.35s14.89 5.11 16.16 12.16c.71 3.9.33 4.48.33 4.48a24.11 24.11 0 00-18.43-14.47"/><path class="cls-77" d="M740.42 464.16s-6.35-5.29-6-5.29 3.89-7.07 3.89-7.07"/><path class="cls-78" d="M731.63 452.78s-.45 3.1 2.23 8.49S746.31 473.76 747 474c4.61 1.36 4.73-2.34 3.76-4.25-.8-1.6-3-5.16-8.71-12.23-2.71-3.33-7.28-7.81-10.42-4.74z"/><path fill="url(#Horizontal_line_5-3)" d="M738.29 453.34l4.44 4.57-8.02 7.46"/><path class="cls-78" d="M725.26 461.95l3.92 15.6 11.67.12 1.18-15.92-16.77.2z"/><path class="cls-78" d="M728.74 477.55l11.91-.17s3.18 4.77-.68 13c-.42.88-2.39 9.09-2.39 9.09s-9.72 2.82-14.12-.49c-.43-.32-1.65-4.83-2.06-6.29-1.62-5.89 3.24-8.54 7.34-15.14zM738.8 464.77s6 .53 6-3c0-1.87-.15-.6-5.11-7.65M747.07 474c1.78 2 4 .14 4 .14 4.26-3.59 11.25-11.62 13.18-15a10.09 10.09 0 00.78-1.53 1.3 1.3 0 00-.8-1.61c-.58-.19-2.26 1.18-2.26 1.18-19.89 13.41-16.15 15.38-14.9 16.82zM766.92 451.37a8.42 8.42 0 011.26-1.44 11.25 11.25 0 01.7-1.46 10.41 10.41 0 00-.06-1.26.68.68 0 01.39-.63l.75 2.32-.65 1.77-.66 2.08a1.27 1.27 0 01-1.29-.27 1.06 1.06 0 01-.44-1.11z"/><path class="cls-78" d="M764.79 450.65c-.23.34-.53 1.14-.7 1.43-.63 1.12-1.1 3.81-1.42 4.39a1.44 1.44 0 00.24 2.09c1 .84 1.65-.48 1.65-.48a7.86 7.86 0 01.62-1.05 53.29 53.29 0 003.43-4.09 1.49 1.49 0 00-.46-1.29 1.18 1.18 0 00-1.36-.07c-.15.16-.32.38-.62.2a1.2 1.2 0 01-.39-1.22c.65-1.19.6-1.26.33-1.56a20.89 20.89 0 00-1.32 1.65z"/><path class="cls-78" d="M766.63 451.93a11.61 11.61 0 011-1.67 12.38 12.38 0 01.41-1.58 12.27 12.27 0 00-.31-1.22.7.7 0 01.25-.7l1.2 2.13-.28 1.87-.24 2.18a1.13 1.13 0 01-1.26.09 1.81 1.81 0 01-.77-1.1zM741.21 456.29c-1.18-1.28-4.1-8.35-4.1-8.35l-6.56-.3s-4.16 4.09-4.75 7.36a23.87 23.87 0 00-.08 6.78h14.83s.71-5.43.66-5.49z"/><path class="cls-77" d="M728.81 449.57a7.86 7.86 0 005.42 2.51c3.37.07 4.12-1.26 4.12-1.26l.7 1.41 5.76 8.66s1.2 2.78-3 3.91l-.95 12.87-11.67-.12s-5.36-15.15-4.3-20.45 3.93-7.53 3.93-7.53"/><path class="cls-78" d="M727.08 453.18s-3.74 2.95-1.7 8.61c1.19 3.31 5.74 16.67 6.25 17.13 3.55 3.24 5.27 0 5.24-2.18 0-1.79-.11-9.72-2-14.67-1.59-3.93-3.62-10.28-7.79-8.89z"/><path class="cls-78" d="M730.93 475.79c-1.12 2.46 1.53 3.72 1.53 3.72 5 2.4 15.23 5.45 19.15 5.8a9.81 9.81 0 001.71.08 1.29 1.29 0 001.13-1.39c-.06-.61-2-1.57-2-1.57-20.45-12.58-20.74-8.36-21.52-6.64z"/><path d="M759.72 484.54a8.52 8.52 0 011.83.56 10.76 10.76 0 011.63 0 11.49 11.49 0 001.12-.58.68.68 0 01.73.1l-1.81 1.64-1.87.14-2.18.26a1.27 1.27 0 01-.28-1.29 1.09 1.09 0 01.83-.83z" style="mix-blend-mode:multiply" fill="#eacb92"/><path class="cls-78" d="M759.49 482.31c-.4-.07-1.25 0-1.58-.05-1.28-.11-3.93.57-4.58.52s-1.51 0-1.81 1.08 1.11 1.31 1.11 1.31a9 9 0 011.22.12 51.89 51.89 0 005.14 1.45s.87-.28 1-.95a1.19 1.19 0 00-.5-1.28c-.2-.06-.47-.13-.43-.48a1.2 1.2 0 011-.86c1.35.1 1.4 0 1.56-.34a20.31 20.31 0 00-2.13-.52z"/><path class="cls-78" d="M759.09 484.52a10.2 10.2 0 011.91.17 12.36 12.36 0 011.61-.28c.09 0 .53-.45 1-.79a.7.7 0 01.74-.05l-1.45 2-1.82.51-2.08.69a1.14 1.14 0 01-.61-1.11 1.83 1.83 0 01.7-1.14z"/><path class="cls-77" d="M726.24 465.84s-4.54-12.27 1.47-13c5.31-.62 8.12 10.6 8.12 10.6z"/><path class="cls-4" d="M736.05 429.16a5.15 5.15 0 014.22 4.34 135.46 135.46 0 011.21 13.91l-16-.13s-2-20.15 10.57-18.12z"/><path class="cls-78" d="M731.59 442.97l-1.41 6.01h7.07v-7.42l-5.66 1.41z"/><path class="cls-81" d="M732 443.21c.16.06 0 3.34 5.34 4l-.23-5.48z"/><path class="cls-78" d="M739.36 437.6c0 3.6-1.93 6.45-5.16 6.45s-5.1-2.95-5.1-6.56 1.9-6.49 5.1-6.49 5.16 3 5.16 6.6z"/><path class="cls-4" d="M730.53 436.91c.3-.39 2.1-.51 2.49 0M735.82 437c.59-.56 2.45-.39 2.75.12"/><g class="cls-39"><circle class="cls-4" cx="731.57" cy="437.88" r=".38"/></g><g class="cls-39"><circle class="cls-4" cx="736.98" cy="437.88" r=".38"/></g><path class="cls-3" d="M732.9 440.21h2.86a1.55 1.55 0 01-1.47 1.23 1.45 1.45 0 01-1.39-1.23z"/><rect class="cls-78" x="728.42" y="437.12" width="1.46" height="2.46" rx=".33"/><rect class="cls-78" x="738.35" y="437.12" width="1.46" height="2.46" rx=".33"/><path class="cls-4" d="M731.54 431.45s-.83 4.2-.48 4.32 4.56.12 4.56.12.84-4.44.72-4a32.12 32.12 0 00.36 4l1.68.36s1.07-6.95-2-6.83-4.6.36-4.84 2.03z"/><path class="cls-81" d="M734.72 436.92v1.91l-1.13.18s1 1 1.6.5.05-2.46-.47-2.59zM729.31 437.8c0 .05-.12 0-.19 0a.21.21 0 00-.19.11.9.9 0 00-.08.23 1.1 1.1 0 000 .36.39.39 0 00.17.3.7.7 0 00.29 0M739.11 437.8a.31.31 0 01.31.21.9.9 0 01.05.4.93.93 0 01-.06.34.3.3 0 01-.28.17.1.1 0 01-.08-.06"/><path class="cls-76" d="M729.61 448.54l-2 2.35s13.59 8.17 12.84 24.87l.55.28s4.2-19.26-11.36-27.5"/><path class="cls-4" d="M828.11 465.55a1.93 1.93 0 01-.92-.23 2 2 0 01-.82-2.63l7.54-14.35a2 2 0 113.45 1.82l-7.53 14.34a1.94 1.94 0 01-1.72 1.05z"/><path d="M784.69 454.25c0 .48-2.23 4.57 1.76 13.55 4.15 9.35 16.24 13.54 16.24 13.54l.34-4.06z" style="mix-blend-mode:multiply" fill="#054752"/><path class="cls-53" d="M804.13 469.35c.56 2.27 3.69 2.07 3.69 2.07 6.12-2.43 13-5.66 16.93-7.26.73-.3.88-.66 1.3-.88l-.56-3c-21.65 1.52-21.84 7.12-21.36 9.07zM830.45 458.65a9.47 9.47 0 011.86-.81c.17 0 .75-.8 1.34-1.08a10.58 10.58 0 00.52-1.23.72.72 0 01.66-.42l-.35 2.56-1.42 1.4-1.58 1.7a1.37 1.37 0 01-1.11-.85 1.16 1.16 0 01.08-1.27z"/><path class="cls-53" d="M828.74 457c-.38.23-1 .85-1.32 1.06-1.11.77-1.2 1.29-3.11 3.1-2.06 2-.19 3.46.83 2.86.33-.2.72-.56 1.07-.74a55.32 55.32 0 005.15-2.35 1.57 1.57 0 00.14-1.44 1.23 1.23 0 00-1.27-.68c-.21.08-.48.21-.68-.1a.91.91 0 01.35-1.19c1-.73 1.07-1.26.86-1.5-.29.24-1.46.62-2.02.98z"/><path class="cls-53" d="M829.92 459.06a10.68 10.68 0 011.67-1.17c.16-.07.58-.93 1.1-1.33a10.79 10.79 0 00.27-1.31.72.72 0 01.56-.55l.17 2.58-1.12 1.66-1.21 2a1.21 1.21 0 01-1.25-.48 1.91 1.91 0 01-.19-1.4zM785.64 457.12s.46 3.63 3.18 5.2c3.22 1.87 15.95 10.16 19 8.62 4.53-2.32 2.36-2.59 1-4.37s-4.45-6.55-9.07-9.74c-4.2-2.83-11.87-7.69-14.11.29z"/><path d="M800.56 457.2l-6.11 8.89s-13.28-6.65-10.12-11 8.43-7.3 16.23 2.11z" fill="url(#Unnamed_Pattern_23-3)"/><path class="cls-3" d="M795 466.56l6.34-8.63c.38-.52-.49-1-.87-.51l-6.34 8.63c-.38.52.49 1 .87.51z"/><path d="M778.07 460.71s-8.62 15.62-5.75 25.21c4 13.23 12.51 31.35 12.51 31.35" stroke="#000" stroke-width=".59" stroke-miterlimit="10" fill="none"/><path class="cls-27" d="M939.77 487.15c0-21.22-87-26.65-87-26.65l-189.66-.08-4.75-.15-2.47 47.14L667.5 518H933c4.16 0 7.32-3.38 6.59-7.06l-.8-4.09s.76-18.28 1-18.55c1.89-1.88-.02-.89-.02-1.15z"/><rect class="cls-2" x="720.66" y="471.03" width="13.87" height="3.38" rx="1.2"/><rect class="cls-2" x="785.55" y="471.03" width="13.87" height="3.38" rx="1.2"/><path class="cls-3" d="M921.33 479.13s1.16 12.17 5.36 12.17c8.91 0 14.46.26 14.46.26s.62-8.83-7.24-11.37a31.94 31.94 0 00-12.58-1.06z"/><path class="cls-85" d="M864.3 517.62H716.51l-3.57-13.99h156.5l-5.14 13.99z"/><path class="cls-2" d="M727.35 520H864.3v4.17H727.35zM665.47 520h13.24v4.17h-16.2V523a3 3 0 012.96-3zM911.03 520h27.9v4.17h-27.9z"/><path class="cls-3" d="M655.94 469.5h19s.28 13.29-10.7 15.25c-9.16 1.64-8.54.21-8.54.21z"/><rect class="cls-2" x="654.51" y="462.77" width="21.79" height="5.58" rx="1.99"/><path class="cls-27" d="M730.2 457.39c-.83-.07-5.65-.6-11.74-1.47l-1 5.31h59.33l-.14-.9c-15.89-.68-32.39-1.64-46.45-2.94zM783.25 460.63l.1.62h17.18c-5.53-.17-11.32-.38-17.28-.62z"/><path class="cls-27" d="M688.47 447.74c-.69-2.76 14.27-20.51 28-20.94.52 0 2 0 4.24-.05l.07-.38h3l-.06.35c11.63-.08 34.22-.18 47.77-.21v-.14H778v.13h.61c37.44 0 67.51 30.8 67.51 30.8s-2.27 2.52-3.48 4H860s-2.58-1.71-13.83-12.25c-8.7-8.16-34-26.87-65-26.87-22 0-87.36-.62-88.17-.62-9.12 0-11.08 3.67-9.61 9.57 1.72 6.87-23.88 27.19-25.09 30.12h56.21l1-5.74c-11.69-1.78-26.25-4.61-27.04-7.77z"/><path class="cls-27" d="M713.9 464.66h2.99l.61-3.42-2.98-.01-.62 3.43zM723.77 426.37h-3l-.07.38h3zM715.55 455.49l-1 5.74h3l1-5.31z"/><path class="cls-27" d="M720.72 426.75l-5.17 28.74 2.91.43 5.25-29.2zM777.32 464.39h6.51l-.48-3.14h-6.51l.48 3.14zM778 426.37h-6.51v.14H778zM776.7 460.35l.14.9h6.51l-.1-.62z"/><path class="cls-27" d="M771.48 426.51l5.22 33.84 6.55.28L778 426.5z"/><path class="cls-2" d="M931.46 495.89c-2.76 0-7.84 9.64-7.84 14.22s5.08 8.33 7.84 8.33h2.23a6.43 6.43 0 006.44-6.43v-8.16c0-1.15-.92-8-2.06-8zM654.62 488.21S671 485 678.7 494s10.75 23.87 10.75 23.87l-22.25.1c-6.08.06-12.65.07-12.65-12.34z"/><path class="cls-85" d="M939.62 495.1H923.9a1.4 1.4 0 01-1.4-1.4 1.4 1.4 0 011.4-1.39h15.72M839.28 453.86v19.83a6.79 6.79 0 006.76-6.77v-6.3a6.78 6.78 0 00-6.76-6.76z"/><rect class="cls-66" x="783.98" y="480.35" width="65.45" height="11.67" rx="4.15"/><rect class="cls-66" x="726.3" y="480.35" width="45.48" height="11.67" rx="4.15"/><path class="cls-85" d="M657.06 473.13a4.39 4.39 0 110 8.77"/><path class="cls-3" d="M863.8 518.25a24.57 24.57 0 0149.13 0"/><path class="cls-2" d="M908.63 518.56a20.29 20.29 0 01-20.27 20.27 20.27 20.27 0 1120.27-20.27z"/><g class="cls-68"><path class="cls-69" d="M905.35 529.6a20.26 20.26 0 11-32.45-24.14l10.29 7.65 11.88 8.89z"/></g><path class="cls-3" d="M895.89 518.55a7.53 7.53 0 11-7.53-7.52 7.53 7.53 0 017.53 7.52zM678.21 518.25a24.57 24.57 0 0149.14 0"/><path class="cls-2" d="M723 518.56a20.26 20.26 0 11-20.27-20.27A20.11 20.11 0 01723 518.56z"/><g class="cls-68"><path class="cls-69" d="M719.77 529.6a20.27 20.27 0 11-32.46-24.14l10.3 7.65 11.88 8.89z"/></g><path class="cls-3" d="M710.3 518.55a7.53 7.53 0 11-7.53-7.52 7.52 7.52 0 017.53 7.52z"/><path class="cls-86" d="M633 430h59M621.5 442.5h59M1380.13 379.19h59M1380.5 445.5h59M1398.63 411.69h59"/><path class="cls-87" d="M108.64 829.67c0-144 116.75-260.78 260.78-260.78S630.2 685.64 630.2 829.67"/><path class="cls-87" d="M624.65 829.67c0-144 116.76-260.78 260.78-260.78s260.79 116.75 260.79 260.78M1151.67 829.67c0-144 116.75-260.78 260.78-260.78s260.78 116.75 260.78 260.78"/><path class="cls-87" d="M1668.74 829.67c0-144 118.8-260.78 260.78-260.78 144 0 260.78 116.75 260.78 260.78"/><path class="cls-88" d="M-136.29 492.96H2183"/><path class="cls-89" d="M65.83 541.15v-48.29M158.97 541.15v-48.29M252.11 541.15v-48.29M345.24 541.15v-48.29M438.38 541.15v-48.29M531.51 541.15v-48.29M624.65 541.15v-48.29M717.79 541.15v-48.29M810.92 541.15v-48.29M904.06 541.15v-48.29M997.2 541.15v-48.29M1090.33 541.15v-48.29M1183.47 541.15v-48.29M1276.61 541.15v-48.29M1369.74 541.15v-48.29M1462.88 541.15v-48.29M1556.02 541.15v-48.29M1649.15 541.15v-48.29M1742.29 541.15v-48.29M1835.43 541.15v-48.29M1928.56 541.15v-48.29"/><path class="cls-2" d="M-136.69 524.1H2183v42.01H-136.69z"/><path class="cls-2" d="M82.48 556.21v247.3l-29.33 20.61v45.98h110.97v-48.36l-33.29-22.19V556.21H82.48zM604.04 556.21v247.3l-29.33 20.61v45.98h110.97v-48.36l-33.29-22.19V556.21h-48.35zM1125.61 556.21v247.3l-29.33 20.61v45.98h110.97v-48.36l-33.29-22.19V556.21h-48.35zM1647.17 556.21v247.3l-29.33 20.61v45.98h110.97v-48.36l-33.29-22.19V556.21h-48.35z"/><path class="cls-90" d="M86.82 668.06c-2.44 0-4.84.11-7.22.32-6.66-50.08-53.71-88.88-110.77-88.88-46.6 0-86.52 25.88-103.22 62.65a65.27 65.27 0 00-40.11-13.71A65.55 65.55 0 00-240 694a65.58 65.58 0 0046 62.59 87 87 0 00-11.06 42.58 87.39 87.39 0 0087.4 87.39 87 87 0 0036.79-8.1c17.74 12 40.56 19.17 65.46 19.17 48.57 0 89.23-27.39 99.66-64.13h2.6a82.74 82.74 0 000-165.47zM373.13 797.22q-2.11 0-4.2.18c-3.87-29.13-31.24-51.7-64.44-51.7-27.11 0-50.33 15.06-60.05 36.44a38.14 38.14 0 10-34.69 66.58 50.85 50.85 0 0065.81 70.89 68.17 68.17 0 0038.08 11.16c28.26 0 51.91-15.94 58-37.31h1.51a48.13 48.13 0 100-96.26z"/><path class="cls-17" d="M1947.08 571.16v91.83"/><path class="cls-15" d="M2001.1 503.31c-.9 0-1.79.05-2.67.12-2.47-18.57-19.92-33-41.08-33-17.28 0-32.09 9.6-38.28 23.23a24.31 24.31 0 10-22.07 42.48 32.43 32.43 0 0042 45.2 43.44 43.44 0 0024.27 7.11c18 0 33.09-10.16 37-23.79h1a30.69 30.69 0 100-61.37z"/></g><g clip-path="url(#clip-path-2)"><path class="cls-11" d="M1790 154.93s51.27-5.76 87.17 11.54 141 98.06 182 110.24 76.27 11.54 98.7 24.36 53.2 46.14 97.42 67.93 315.34 177.54 432 180.75l-15.38 31.4-418.53-8.33-318.54-205.1z"/><path class="cls-12" d="M1650-19.72s33.32-15.38 54.48 0 120.52 247.4 369.79 398.66c0 0 166.32 104.79 256.05 118.89s155.11 64.09 235.86 56.4 144.21 14.1 177.54 14.1 345.46-9 345.46-9l221.76-7.05-794.75 103.86H1650.3z"/><path class="cls-9" d="M1634.27 589.48s251.89 36.54 759.5 28.85l-56.4 21.15-338.37 8.33-369.17-5.13z"/><path class="cls-11" d="M2609.13 609.35s-64.74-10.89-89.73-8.33-157.67 20.51-157.67 20.51-27.56 3.2-79.48 1.92c0 0-29.48 0-51.27 3.85s-139.08 13.46-165.36 12.82-424.94-5.77-424.94-5.77v21.79l387.12 25 481.34-19.87 112.8-28.84z"/><path class="cls-13" d="M2318.14 622.17s-10.89 2.56-7 6.41 14.1 5.77 9.62 9.61-18.59 7.7-50.64 9.62-216.63 5.77-216.63 5.77l-156.39 3.84-348-1.28v14.1l444.16-7.69 150.62-4.49 130.11-5.12s46.15-3.85 51.27-9 .65-10.89-1.92-12.18-9.61-2.56-9.61-4.48 4.41-5.11 4.41-5.11z"/><path class="cls-9" d="M1571.78 716.71h1501.05v301.88H1571.78z"/><path class="cls-14" d="M3601.28 447.84s-702.46 117.93-957.54 150c0 0-142.93 21.79-167.93 36.53s116 3.84 116 3.84-161.51 17.95-330.08 26.28-612.08 0-612.08 0v10.9l582.6 23.07 1360-4.49z"/><path class="cls-9" d="M3606.41 687.55l-924.22-6.41h-451.85L2043.83 676h-394.17l.64 53.84 417.88 7s219.84 9.61 400.58 28.2 476.21 34.61 539 104.47-85.24 149.34-85.24 149.34h669.13z"/><path class="cls-14" d="M2714.24 984.3s130.11-31.41 71.78-105.12-433.27-105.11-433.27-105.11L1877.19 744h-227.53v248.63z"/><path class="cls-92" d="M1887.59 714.32c0-120.12 97.37-217.5 217.49-217.5s217.5 97.38 217.5 217.5M1683.31 433.5h1934.32M1851.89 473.69v-40.27M1929.57 473.69v-40.27"/><path class="cls-2" d="M1682.98 459.47h1934.64v35.04H1682.98z"/><path class="cls-2" d="M1865.77 486.25V692.5l-24.46 17.19v38.34h92.55v-40.32l-27.76-18.51V486.25h-40.33z"/><path class="cls-88" d="M1646.6 602.7v260.78"/><path stroke="#417e87" stroke-width="20" stroke-miterlimit="10" fill="none" d="M1747.91 732.12v206.52"/><path class="cls-90" d="M1869.39 579.53c-2 0-4 .1-6 .27-5.55-41.76-44.79-74.13-92.38-74.13-38.87 0-72.16 21.59-86.09 52.25a54.67 54.67 0 10-49.74 95.44A72.91 72.91 0 001729.51 755c14.8 10 33.83 16 54.6 16 40.51 0 74.42-22.85 83.12-53.49h2.16a69 69 0 000-138zM2108.18 687.25c-1.18 0-2.35.06-3.5.16-3.23-24.3-26.06-43.13-53.75-43.13-22.61 0-42 12.56-50.08 30.4a31.81 31.81 0 10-28.94 55.52 42.42 42.42 0 0054.9 59.13 56.83 56.83 0 0031.76 9.31c23.56 0 43.29-13.3 48.35-31.12h1.26a40.15 40.15 0 000-80.29z"/></g></g></g></svg>
