<svg version="1.1" id="Calque_1" xmlns="http://www.w3.org/2000/svg" xmlns:xlink="http://www.w3.org/1999/xlink" x="0" y="0" viewBox="0 0 800 438" xml:space="preserve"><style>.st0{fill:none}.st1{fill:#054752}.st2{fill:#fff}.st3{fill:#004753}.st4{fill:#eae8f5}.st6{clip-path:url(#SVGID_3_);fill:#669aa2}.st8{fill:#91b7bc}.st12,.st8{clip-path:url(#SVGID_3_)}.st15{fill:#2e5862}.st17,.st18{fill:none;stroke-miterlimit:10}.st17{stroke-width:4;stroke:#054752}.st18{stroke:#fff;stroke-linecap:round;stroke-linejoin:round}.st19{opacity:.4;fill:#fff}.st20{fill:#947347}.st25{fill:#e9ca91}.st26,.st28{fill:#cd904d}.st28{opacity:.67}.st30{fill:#a9b7c0}.st32{fill:#01353a}.st35,.st36,.st38{fill:#2ed1ff}.st36,.st38{opacity:.45}.st38{fill:#fff}.st39{fill:#004553}.st40{opacity:.49}.st41,.st42{fill:#ce914d}.st42{opacity:.67}.st45{fill:#033}.st47,.st51{fill:#eacb92}.st51{opacity:.59}.st54{opacity:.45;fill:#054752}.st267{fill:none;stroke:#054752;stroke-width:5;stroke-miterlimit:10}</style><pattern x="-882.5" y="1558" width="50" height="50" patternUnits="userSpaceOnUse" id="Horizontal_line_3" viewBox="0 -50 50 50" overflow="visible"><path class="st0" d="M0-50h50V0H0z"/><path class="st1" d="M0-50h50v6.3H0z"/><path class="st2" d="M0-43.7h50v6.3H0z"/><path class="st1" d="M0-37.5h50v6.3H0z"/><path class="st2" d="M0-31.2h50v6.3H0z"/><path class="st1" d="M0-24.9h50v6.3H0z"/><path class="st2" d="M0-18.7h50v6.3H0z"/><path class="st1" d="M0-12.4h50v6.3H0z"/><path class="st2" d="M0-6.3h50V0H0z"/></pattern><pattern x="-882.5" y="1558" width="50" height="50" patternUnits="userSpaceOnUse" id="Horizontal_line_5" viewBox="0 -50 50 50" overflow="visible"><path class="st0" d="M0-50h50V0H0z"/><path class="st3" d="M0-50h50v6.3H0z"/><path class="st2" d="M0-43.7h50v6.3H0z"/><path class="st3" d="M0-37.5h50v6.3H0z"/><path class="st2" d="M0-31.2h50v6.3H0z"/><path class="st3" d="M0-24.9h50v6.3H0z"/><path class="st2" d="M0-18.7h50v6.3H0z"/><path class="st3" d="M0-12.4h50v6.3H0z"/><path class="st2" d="M0-6.3h50V0H0z"/></pattern><pattern x="-882.5" y="1558" width="50.9" height="47" patternUnits="userSpaceOnUse" id="Unnamed_Pattern_23" viewBox="50.9 -94.2 50.9 47" overflow="visible"><path class="st0" d="M50.9-94.2h50.9v47H50.9z"/><path class="st3" d="M101.7-47.5h50.9V0h-50.9z"/><path class="st3" d="M50.9-47.5h50.9V0H50.9zM0-47.5h50.9V0H0z"/><path class="st3" d="M101.7-94.6h50.9v47.5h-50.9z"/><path class="st3" d="M50.9-94.6h50.9v47.5H50.9z"/><path class="st4" d="M63.8-89.5H62v-4.6h1.8zM71.3-87.4l-1.5 1.1-2.7-3.8 1.5-1.1z"/><path transform="rotate(-78.854 66.658 -81.075)" class="st4" d="M65.8-83.4h1.8v4.7h-1.8z"/><path class="st4" d="M73.5-80.9l-1.3-1.2 2.9-3.6 1.4 1.2zM77.9-74.5l-1.8-.1.4-4.7 1.8.2zM67.8-73l.9-1.6 4.1 2.3-.9 1.6zM55.1-87.3l-1.5 1-2.7-3.8 1.5-1zM57.3-80.9l-1.4-1.2 3-3.5 1.4 1.1z"/><path transform="rotate(-5.228 60.95 -76.857) scale(.99996)" class="st4" d="M60.1-79.2h1.8v4.7h-1.8z"/><path transform="rotate(-29.07 54.054 -72.64)" class="st4" d="M51.7-73.5h4.7v1.8h-4.7z"/><g><path transform="rotate(-89.881 79.713 -91.834)" class="st4" d="M77.4-92.7h4.7v1.8h-4.7z"/><path class="st4" d="M88.1-87.4l-1.5 1.1-2.7-3.9 1.5-1z"/><path transform="rotate(-78.954 83.481 -81.089)" class="st4" d="M82.6-83.4h1.8v4.7h-1.8z"/><path class="st4" d="M90.4-81L89-82.1l3-3.6 1.4 1.2z"/><path transform="matrix(.9962 -.08667 .08667 .9962 7.02 7.859)" class="st4" d="M93.1-79.2h1.8v4.7h-1.8z"/><path transform="rotate(-28.955 87.124 -72.7)" class="st4" d="M84.8-73.6h4.7v1.8h-4.7z"/></g><g><path transform="rotate(-89.884 95.486 -91.856)" class="st4" d="M93.2-92.8h4.7v1.8h-4.7z"/><path transform="rotate(-78.89 99.255 -81.115)" class="st4" d="M98.4-83.4h1.8v4.7h-1.8z"/></g><g><path transform="rotate(-89.886 62.921 -68.221)" class="st4" d="M60.6-69.1h4.7v1.8h-4.7z"/><path class="st4" d="M71.3-63.8l-1.5 1.1-2.6-3.8 1.4-1.1z"/><path transform="rotate(-78.708 66.694 -57.488)" class="st4" d="M65.8-59.8h1.8v4.7h-1.8z"/><path transform="rotate(-40.111 74.37 -59.714)" class="st4" d="M73.5-62h1.8v4.7h-1.8z"/><path transform="rotate(-5.125 77.217 -53.29)" class="st4" d="M76.3-55.6h1.8v4.7h-1.8z"/><path class="st4" d="M67.9-49.4l.8-1.6 4.1 2.3-.9 1.5z"/></g><g><path class="st4" d="M55.1-63.7l-1.5 1-2.7-3.8 1.5-1z"/><path transform="rotate(-40.157 58.148 -59.694)" class="st4" d="M57.2-62H59v4.7h-1.8z"/><path transform="rotate(-4.963 60.992 -53.27) scale(1.00005)" class="st4" d="M60.1-55.6h1.8v4.7h-1.8z"/><path transform="rotate(-29.144 54.1 -49.056)" class="st4" d="M51.8-50h4.7v1.8h-4.7z"/></g><g><path class="st4" d="M80.7-65.9h-1.8l-.1-4.7h1.8z"/><path transform="rotate(-54.69 86.066 -65.173)" class="st4" d="M83.7-66.1h4.7v1.8h-4.7z"/><path class="st4" d="M81.4-56.2l-.3-1.7 4.5-.9.4 1.7z"/><path transform="rotate(-40.173 91.202 -59.74)" class="st4" d="M90.3-62.1h1.8v4.7h-1.8z"/><path transform="rotate(-5.065 94.044 -53.318)" class="st4" d="M93.1-55.6h1.8v4.7h-1.8z"/><path class="st4" d="M84.7-49.4l.9-1.6 4 2.2-.8 1.6z"/></g><g><path class="st4" d="M96.4-65.9h-1.8v-4.7h1.8zM97.2-56.2l-.4-1.8 4.6-.9.4 1.8z"/></g><g><path class="st3" d="M0-94.6h50.9v47.5H0z"/></g><g><path class="st3" d="M101.7-141.6h50.9v47.5h-50.9z"/></g><g><path class="st3" d="M50.9-141.6h50.9v47.5H50.9z"/></g><g><path class="st3" d="M0-141.6h50.9v47.5H0z"/></g></pattern><linearGradient id="SVGID_1_" gradientUnits="userSpaceOnUse" x1="401.335" y1="393.733" x2="400.008" y2="-4.753"><stop offset="0" stop-color="#fff"/><stop offset=".093" stop-color="#f7fdff"/><stop offset=".239" stop-color="#e0f8ff"/><stop offset=".419" stop-color="#bcf0ff"/><stop offset=".627" stop-color="#89e5ff"/><stop offset=".856" stop-color="#48d7ff"/><stop offset=".943" stop-color="#2ed1ff"/></linearGradient><path fill="url(#SVGID_1_)" d="M.5 0h800v286H.5z"/><g><defs><path id="SVGID_144_" d="M.5 66.5h800V438H.5z"/></defs><clipPath id="SVGID_3_"><use xlink:href="#SVGID_144_" overflow="visible"/></clipPath><path class="st6" d="M-66.7 177.1s55.1-2.6 100.6-18.6c0 0 44.2 14.1 69.2 18.6s74.3-2.6 89.7 5.1c0 0 32 19.9 50 21.8 17.9 1.9 43.6 3.2 60.2-5.8s19.9-3.2 27.6 0c7.7 3.2 17.3 11.5 41.7-5.8 24.4-17.3 34.6-23.1 46.1-19.2 11.5 3.8 34 22.4 97.4 39.1s101.9-13.5 101.9-13.5 7.7-8.3 28.2-8.3 84.6-2.6 84.6-2.6L411.4 400.2 3.2 259.1l-69.9-82z"/><path d="M1318.3-110.7S1250.4-8.8 1192-2.4c0 0-26.9 6.4-30.1 16-3.2 9.6-10.3 22.4-22.4 23.1-12.2.6-35.9 10.9-59.6 0s-50.6-10.3-70.5 5.1-109 73.1-151.9 91.7-61.5 5.8-61.5 5.8-289.7 180.1-421.1 242.3l132 93.6 706.9-46.8 142.9-41-38.4-498.1z" clip-path="url(#SVGID_3_)" fill="#a7c6ca"/><path class="st8" d="M-470.5-26.1s51.3-5.8 87.2 11.5 141 98.1 182 110.2 76.3 11.5 98.7 24.4 53.2 46.1 97.4 67.9 315.3 177.5 432 180.7L411.4 400l-418.5-8.3-318.5-205.1-144.9-212.7z"/><path d="M-610.5-200.7s33.3-15.4 54.5 0S-435.5 46.7-186.2 198c0 0 166.3 104.8 256.1 118.9C159.6 331 225 381 305.8 373.3c80.8-7.7 144.2 14.1 177.5 14.1s345.5-9 345.5-9l221.8-7.1-794.9 103.8h-865.9l-.3-675.8z" clip-path="url(#SVGID_3_)" fill="#bdd4d7"/><path class="st6" d="M-626.2 408.5s251.9 36.5 759.5 28.8l-56.4 21.2-338.4 8.3-369.2-5.1 4.5-53.2z"/><path class="st8" d="M348.6 428.4s-64.7-10.9-89.7-8.3c-25 2.6-157.7 20.5-157.7 20.5s-27.6 3.2-79.5 1.9c0 0-29.5 0-51.3 3.8-21.8 3.8-139.1 13.5-165.4 12.8-26.3-.6-424.9-5.8-424.9-5.8v21.8l387.1 25 481.3-19.9 112.8-28.8-12.7-23z"/><path d="M1340.8 266.8s-702.5 117.9-957.5 150c0 0-142.9 21.8-167.9 36.5s116 3.8 116 3.8-161.6 18-330.2 26.4-612.1 0-612.1 0v10.9l582.6 23.1 1360-4.5 9.1-246.2z" clip-path="url(#SVGID_3_)" fill="#538c94"/><path d="M796.3 443.7c0-4.3-4.5-7.8-10.1-7.8-1.5 0-2.9.2-4.2.7-2.5-2.8-6.1-4.5-10.1-4.5-5.4 0-10 3.1-12.2 7.7-.4-.1-.9-.1-1.3-.1-4.5 0-8.1 3.4-8.2 7.7h44.9c.8-1.2 1.2-2.4 1.2-3.7z" fill="#91b7bc"/><path d="M248.4 433.5c0-2.2-2.4-4.1-5.3-4.1-.8 0-1.5.1-2.2.4-1.3-1.4-3.2-2.4-5.3-2.4-2.8 0-5.2 1.6-6.4 4-.2 0-.5-.1-.7-.1-2.3 0-4.2 1.8-4.3 4h23.4c.6-.5.8-1.2.8-1.8z" fill="#d3e2e4"/><g class="st12"><path class="st17" d="M714.1 362.4v18.3"/><path class="st15" d="M724.8 348.9h-.5c-.5-3.7-4-6.6-8.2-6.6-3.4 0-6.4 1.9-7.6 4.6-.8-.6-1.8-1-3-1-2.7 0-4.8 2.2-4.8 4.8 0 2.2 1.4 4 3.4 4.6-.5.9-.8 2-.8 3.1 0 3.6 2.9 6.5 6.5 6.5 1 0 1.9-.2 2.7-.6 1.3.9 3 1.4 4.8 1.4 3.6 0 6.6-2 7.4-4.7h.2c3.4 0 6.1-2.7 6.1-6.1-.1-3.3-2.8-6-6.2-6z"/></g><g class="st12"><path class="st17" d="M756.4 354.7V373"/><path class="st15" d="M767.1 341.2h-.5c-.5-3.7-4-6.6-8.2-6.6-3.4 0-6.4 1.9-7.6 4.6-.8-.6-1.8-1-3-1-2.7 0-4.8 2.2-4.8 4.8 0 2.2 1.4 4 3.4 4.6-.5.9-.8 2-.8 3.1 0 3.6 2.9 6.5 6.5 6.5 1 0 1.9-.2 2.7-.6 1.3.9 3 1.4 4.8 1.4 3.6 0 6.6-2 7.4-4.7h.2c3.4 0 6.1-2.7 6.1-6.1-.1-3.2-2.8-6-6.2-6z"/></g><g class="st12"><path class="st17" d="M794.8 347v18.3"/><path class="st15" d="M805.6 333.5h-.5c-.5-3.7-4-6.6-8.2-6.6-3.4 0-6.4 1.9-7.6 4.6-.8-.6-1.8-1-3-1-2.7 0-4.8 2.2-4.8 4.8 0 2.2 1.4 4 3.4 4.6-.5.9-.8 2-.8 3.1 0 3.6 2.9 6.5 6.5 6.5 1 0 1.9-.2 2.7-.6 1.3.9 3 1.4 4.8 1.4 3.6 0 6.6-2 7.4-4.7h.2c3.4 0 6.1-2.7 6.1-6.1s-2.8-6-6.2-6z"/></g><g class="st12"><path class="st19" d="M440.5 205.1l25.9-22.9 35.2-14.4h81.8l18.6 14.4v15l-89 10.1h-45.2z"/><path d="M490.3 185.2c-.5.6-1 1.1-1.5 1.6-.8.9-3.3 2.8-3.3 5 0 3.8 2.6 4.4 4.3 4.6.5 0 1 .2 1.4.1.7-.2 2.3-.9 2.7-1.5 1.4-2.1-.6-5.9 0-8.4.3-1.3.9-4.1-.8-4.7-.6-.2-1.2 0-1.5.6-.4.9-.6 1.9-1.3 2.7z"/><path class="st20" d="M490.9 186.5l4.4.1s2.3 3.2 1.9 8.3c0 .2-5.2 1.4-5.2 1.4l-1.1-9.8z"/><path d="M494.7 187.3c-.1.1-.1 3.7-3.2 4.4l-.6-5 3.8.6z" opacity=".64" fill="#947347"/><path class="st20" d="M489.6 182c.2 1-.2 1.4-.2 2-.1 3.1-.5 4.2 1.7 4.7 1.1.3 4.2-1.3 4.5-1.7 1-1.5 2.3-3.5 2.4-5.1.2-3.3-2.4-5.1-4.6-5.2-1.3-.1-3.1 1-3.6 2.4-.4 1.4-.5 1.5-.2 2.9z"/><path class="st20" d="M491.7 181.8c-.2-.2-.4-.3-.6-.4-.3-.1-.6 0-.9 0-.2 0-.2-.3 0-.3h1c.3.1.5.2.7.4.1.2-.1.4-.2.3z"/><circle cx="490.8" cy="182.3" r=".3"/><path class="st20" d="M489.7 182c0 .1-.2.7-.7 1.4-.3.3.2.7.5.7h-.1c1.2-.7.3-2.1.3-2.1z"/><path d="M489.7 184.4s1.1.7 1.1.8c-.2.7-1.1.6-1.1.6s-.9-.2-.3-.7c.1-.2-.4-.6.3-.7z" fill="#573a22"/><pattern id="SVGID_4_" xlink:href="#Horizontal_line_3" patternTransform="matrix(-.7212 0 0 .7212 -9883.277 -2832.777)"/><path d="M489.5 206.1s5.9-4.9 5.5-4.9c-.3 0-3.6-6.5-3.6-6.5" fill="url(#SVGID_4_)"/><path class="st20" d="M497.7 195.6s.4 2.9-2.1 7.8c-2.5 5.1-11.5 11.5-12.1 11.7-4.2 1.3-4.4-2.2-3.5-3.9.7-1.5 2.7-4.8 8-11.3 2.5-3 6.8-7.2 9.7-4.3z"/><pattern id="SVGID_5_" xlink:href="#Horizontal_line_3" patternTransform="matrix(-.6465 .3198 .3198 .6465 -6609.49 -1700.976)"/><path fill="url(#SVGID_5_)" d="M491.5 196.1l-4.1 4.2 7.4 6.9"/><path class="st25" d="M503.5 204l-3.6 14.4-10.7.1-1.1-14.7z"/><path class="st20" d="M500.3 218.4l-11-.2s-2.9 4.4.6 11.9c.4.8 2.2 8.4 2.2 8.4s9 2.6 13-.4c.4-.3 1.5-4.5 1.9-5.8 1.6-5.4-2.9-7.8-6.7-13.9z"/><path class="st25" d="M491 206.6s-5.5.5-5.5-2.8c0-1.7.1-.6 4.7-7.1"/><path class="st20" d="M486.7 206.4c-1.6-1.9-3.7-.2-3.7-.2-4 3.3-10.5 10.6-12.3 13.8-.3.6-.6 1-.7 1.4 0 0-.3 1.1.7 1.5.5.2 2.1-1.1 2.1-1.1 18.5-12.2 15.1-14.1 13.9-15.4zM468.3 227.1c.1-.1-.7 1-1.2 1.3-.1.1-.3.9-.7 1.3-.1.1 0 .6 0 1.2 0 .4-.4.6-.4.6l-.7-2.1.6-1.6.6-1.9s.5-.3 1.2.3c.7.3.6.9.6.9z"/><path class="st20" d="M470.2 227.8c.2-.3.5-1 .7-1.3.6-1 1-3.5 1.3-4 .3-.5.6-1.2-.2-1.9-.9-.8-1.5.4-1.5.4-.3.5-.4.7-.6 1-.6.7-2.4 2.5-3.2 3.7 0 0-.1.8.4 1.2.6.5 1.3.1 1.3.1.1-.1.3-.3.6-.2.3.3.5.8.4 1.1-.6 1.1-.6 1.2-.3 1.4 0-.1.8-1 1.1-1.5z"/><path class="st20" d="M468.5 226.6s-.5 1.1-.9 1.5c-.1.1-.1 1-.4 1.5 0 .1.2.6.3 1.1.1.4-.2.6-.2.6l-1.1-2 .3-1.7.2-2s.5-.4 1.2-.1c.4.3.7 1 .6 1.1z"/><g><path class="st20" d="M488.8 198.8c1.1-1.2 3.8-7.7 3.8-7.7l6.1-.3s3.8 3.8 4.4 6.8c.5 3 .1 6.3.1 6.3h-13.7c-.1-.1-.7-5-.7-5.1z"/></g><path class="st2" d="M500.3 192.6s-1.9 2.2-5 2.3-3.8-1.2-3.8-1.2l-.6 1.3-5.3 8s-1.1 2.6 2.8 3.6l.9 11.9 10.8-.1s4.9-14 4-18.9c-1.2-4.8-3.8-6.9-3.8-6.9"/><g><path class="st20" d="M501.9 195.9s3.4 2.7 1.6 7.9c-1.1 3-5.3 15.4-5.8 15.8-3.3 3-4.9 0-4.8-2 0-1.7.1-9 1.9-13.5 1.3-3.6 3.2-9.4 7.1-8.2z"/></g><g><path class="st20" d="M498.3 216.8c1 2.3-1.4 3.4-1.4 3.4-4.6 2.2-14 5-17.7 5.4-.7.1-1.1.1-1.6.1 0 0-1.2-.2-1-1.3.1-.6 1.9-1.4 1.9-1.4 18.8-11.7 19.1-7.8 19.8-6.2zM471.8 224.9c.1 0-1.2.2-1.7.5-.1.1-.9-.1-1.5 0-.1 0-.6-.3-1-.5s-.7.1-.7.1l1.7 1.5 1.7.1 2 .2s.5-.4.3-1.2c-.2-.6-.8-.8-.8-.7z"/><path class="st20" d="M472 222.8c.4-.1 1.2 0 1.5 0 1.2-.1 3.6.5 4.2.5.6 0 1.4 0 1.7 1 .3 1.2-1 1.2-1 1.2-.6.1-.8 0-1.1.1-.9.2-3.3 1.1-4.7 1.3 0 0-.8-.3-.9-.9-.2-.8.5-1.2.5-1.2.2-.1.4-.1.4-.4-.1-.4-.5-.8-.9-.8-1.3.1-1.3 0-1.4-.3-.1 0 1.1-.4 1.7-.5z"/><path class="st20" d="M472.3 224.8s-1.2 0-1.8.2c-.1 0-.9-.3-1.5-.3-.1 0-.5-.4-.9-.7-.3-.3-.7 0-.7 0l1.3 1.8 1.7.5 1.9.6s.6-.3.6-1c.1-.6-.5-1.1-.6-1.1z"/></g><path class="st2" d="M502.6 207.6s4.2-11.3-1.4-12c-4.9-.6-7.5 9.8-7.5 9.8l8.9 2.2z"/><path d="M506.6 196.9c-1.1.4-2.4 0-3.5-.4-1.2-.5-2.4-1-3.6-1.6-.4-.2-.9-.5-1.2-.9-.4-.5-.5-1.1-.6-1.7-.1-.8-.3-1.6.1-2.3.3-.6 1-.9 1.7-1 2.2-.2 4.9 1.6 6.5 3 .7.6 1.8 1.5 2.1 2.3.4 1.1-.5 2.3-1.5 2.6z"/><path d="M507.9 187.9c.6.2 1.3.5 1.6 1.1.2.4.3.9.3 1.4 0 .5 0 1-.3 1.4-.4.6-1.1.8-1.8.8-1.9 0-3.4-1.4-5.1-2.1-.7-.3-1.5-.6-2.2-1s-1.3-1.2-1.2-2c.2-4.3 7.1-.3 8.7.4z"/><path d="M497 182.8c.7.6 1.8.8 2.7.5.3 1.9 1.6 3.5 3.2 4.5.5.3 1 .5 1.5.6.5 0 .9-.1 1.4-.2 1.1-.4 2.2-1 2.6-2 .3-.7.3-1.6-.1-2.2-.4-.7-1.1-1.1-1.9-1.2-.7-.1-1.3.1-2 0s-1.3-.6-1.8-1c-.7-.7-1.5-2.5-2-3.3-2.1-3-4.3-2-5.3-1.9-2.4.1.3 5 1.7 6.2z"/><path d="M494.1 179.4c-.2 0-4.5.8-5.7-1.1-1.1-1.7.3-4.4 3.4-4 3.8.5 7.4 3.3 7.8 5.1.6 2.9-5.5 0-5.5 0z"/><path d="M490.6 177.8s1.5 5.7 3.4 5.4 2.2-3.5 2.2-3.5l-5.6-1.9z"/><path d="M492 178.7s3.7 2.7 2.6 6.2c-2 6.3-.1 10 3.3 11.3s8.1 1.2 8.1.8c.1-.4-5.4-17-5.4-17l-8.6-1.3z"/><path class="st20" d="M494.1 183.2s.8-.9 1.2-.4-.1 2.1-.6 1.9c-.5-.2-.8-.5-.8-.5l.2-1z"/><path class="st20" d="M494.6 183.3c.1-.1.3-.1.4.1v.1c0 .1 0 .2-.1.3-.1.1-.2.1-.3.1"/><g><path class="st3" d="M468.1 213.8c.3 0 .6-.1.9-.2.9-.5 1.3-1.7.8-2.6l-7.4-14.1c-.5-.9-1.7-1.3-2.6-.8-.9.5-1.3 1.7-.8 2.6l7.4 14.1c.4.6 1 1 1.7 1z"/></g><g><path class="st26" d="M553.7 208.2c-1.7-1-3 .9-3 .9-2.4 3.6-5.9 11.1-6.6 14-.1.6-.2.9-.3 1.3 0 0 0 1 .9.9.5 0 1.4-1.4 1.4-1.4 12-14.5 8.8-15 7.6-15.7z"/><path class="st26" d="M551.7 190.9s4.4 0 4.3 5.8c-.1 2.7-.8 13.7-1.1 14.2-1.9 3.1-3.8 1-4.1-.7-.3-1.4-1-7.4-1.4-11.5-.3-2.4-.9-8 2.3-7.8zM563.1 213.3l-12.3.3s.6 6.4 1 8.8c.1.7 1.1 6.5 1.1 6.5s7.1 2.2 10.4-.4c.3-.3.7-1.9 1-3 1.2-4.6 1.8-7-1.2-12.2z"/><path class="st26" d="M546 191.5l3.4-4s8.9 1.4 10.8 6.1c3.2 7.7 3.1 19.9 3.1 19.9l-12.5.2-4.8-22.2z"/><path class="st26" d="M542.7 187.1l4.3-3.3s3.6 4.4 4 5.5c.1.2-4.9 2.4-4.9 2.4l-3.4-4.6z"/><path class="st26" d="M539.9 181.1c0 .3.3.8.3 1-.1.6 0 1.3.1 1.6.7 2.6.3 2.4.8 3.3.3.7 1.1 1.1 2.6 1 1.1 0 3.3-2.5 3.7-2.8 1.8-1.5 1.6-5.8 1.2-7.5-.8-3.5-3.6-3.3-5.5-2.4-3 1.4-3.2 4.6-3.2 5.8zM541.8 180.8c-.2-.1-.8-.3-1.5.2"/><circle cx="541.1" cy="182.4" fill="#014753" r=".3"/><path class="st26" d="M540.3 181.4c-.6 1.6-.7 2.1-.4 2.3 0 0 .4.2.7 0 .2-.2-.3-2.4-.3-2.3z"/><path class="st28" d="M545.3 187.3c-.1 0 .8 2.2 0 3.6l-2.1-2.9 2.1-.7z"/><path d="M542.7 186.3c-1 .3-1.5-1.4-1.4-1.7" opacity=".67" fill="none" stroke="#cd904d" stroke-width="1.02" stroke-miterlimit="10"/><path class="st28" d="M540.6 182.6c.2.4.5.7.9.8s1.2 0 1.3-.7"/><path class="st30" d="M541.5 184.4c-.3-.3-.8-.7-1.2-.5v1.8l1.9-.2c.1 0-.4-.8-.7-1.1z"/><pattern id="SVGID_6_" xlink:href="#Horizontal_line_5" patternTransform="translate(-1026.683 -1835.619) scale(.6953)"/><path d="M549.7 187.5s9.3 1.5 11 6.1c.2.5 2.1 5.5 2.6 13.2.5 7.7-.1 6.7-.1 6.7l-12.5.2-4.6-21.4c0-.1 4.1-2.2 3.6-4.8z" fill="url(#SVGID_6_)"/><path class="st26" d="M555.3 190.8s3.5 2.7-.1 7.2c-1.7 2.1-9 10.4-9.5 10.6-3.4 1.3-3.6-1.5-2.9-3 .6-1.3 3.7-6.5 5.9-10 1.3-2.1 4.2-7 6.6-4.8z"/><path class="st26" d="M546.4 205.8c-.8-1.8-2.9-1.1-2.9-1.1-4.1 1.4-11.4 5.2-13.7 7.1-.4.4-.7.6-1 .9 0 0-.6.8.2 1.3.4.3 2-.3 2-.3 18.2-4.3 15.9-6.6 15.4-7.9zM525.8 216.5c.1 0-.8.5-1.3.7-.1 0-.5.6-.9.8-.1 0-.1.5-.3.9-.1.3-.5.3-.5.3l.1-1.8.9-1.1 1-1.3s.5-.1.9.5c.3.5.1.9.1 1z"/><path class="st26" d="M527.1 217.5c.3-.2.7-.7.9-.8.8-.6 1.8-2.4 2.2-2.7.4-.3.9-.8.4-1.5-.5-.8-1.3-.1-1.3-.1-.4.3-.5.4-.7.6-.7.4-2.6 1.2-3.6 2 0 0-.3.6 0 1 .4.5 1 .4 1 .4.1-.1.3-.2.5 0 .2.3.2.7 0 .9-.8.7-.8.7-.7 1 0 0 1-.5 1.3-.8z"/><path class="st26" d="M526.1 216.1s-.7.7-1.1.9c-.1.1-.4.7-.7 1-.1 0 0 .5-.1.9 0 .3-.4.4-.4.4l-.3-1.8.7-1.2.8-1.4s.5-.2 1 .2c.2.4.1 1 .1 1z"/><path class="st32" d="M555.3 190.8s3.5 2.7-.1 7.2c-1.7 2.1-9 10.4-9.5 10.6-3.4 1.3-3.6-1.5-2.9-3 .6-1.3 3.7-6.5 5.9-10 1.3-2.1 4.2-7 6.6-4.8z"/><path class="st32" d="M546 206c-.8-1.8-2.9-1.1-2.9-1.1-4.1 1.4-11.4 5.2-13.7 7.1-.4.4-.7.6-1 .9 0 0-.6.8.2 1.3.4.3 2-.3 2-.3 18.2-4.3 16-6.6 15.4-7.9z"/><path class="st26" d="M543.8 229.3c0-.1-.3.9-.6 1.3-.1.1 0 .8-.2 1.2 0 .1.2.5.3.9.1.3-.2.5-.2.5l-1-1.5.1-1.4.1-1.6s.4-.3 1-.1c.5.2.5.6.5.7z"/><path class="st26" d="M545.5 229.2c.1-.3.2-.9.2-1.2.2-1 0-3 .1-3.5s.2-1.1-.6-1.4c-.9-.3-1.1.7-1.1.7-.1.5-.1.6-.2.9-.3.7-1.3 2.6-1.7 3.8 0 0 .1.7.6.8.6.2 1-.3 1-.3.1-.1.2-.3.4-.3.3.1.6.5.5.8-.2 1-.2 1 .1 1.2.1 0 .6-1 .7-1.5z"/><path class="st26" d="M543.9 228.8s-.1 1-.4 1.4c-.1.1.1.8 0 1.2 0 .1.3.4.5.8.2.3 0 .6 0 .6l-1.3-1.2-.2-1.4-.3-1.6s.3-.5.9-.4c.4 0 .8.6.8.6z"/><path class="st28" d="M545.4 181.7s.4 1.2-.1 1.5c-.3.2-.7.2-.7.2s.6 1.7 1.4 1.1c.8-.6-.6-2.8-.6-2.8z"/><path class="st30" d="M538 178.2c-.9-.5-1.5-1.5-1.4-2.6.1-1 .8-2 1.7-2.4.3-.1.7-.2 1.1-.2.8.1 1.4.9 2.2 1.2.3-.5 1-.8 1.6-.7.6.1 1.2.5 1.5 1 .1.2.2.3.4.3.1 0 .3-.1.4-.1.7-.3 1.5 0 2.1.5 1.2 1 2.6 1.6 1.8 4.6-.4 1.5-.5 2.5-1 3.9-1.3.5-3.1.3-2.8-1.6-.3.2-1.3-.3-1.6-.5-.2-.2-.2-3.4-2.6-3.6-1.2-.1-2.1.9-3.4.2z"/><path class="st26" d="M544.4 182.4s.3-1.2.8-.9c.5.3.5 1.7 0 1.7a4 4 0 01-.9-.3l.1-.5z"/><path class="st26" d="M544.8 182.3c0-.2.2-.4.3-.2v.1c0 .1 0 .2-.1.3-.1.1-.2.1-.3.1l.1-.3z"/></g><g><path opacity=".18" fill="#8e405f" d="M636.1 284l-291.3-1.3 13.6-6.3 257.4-1z"/><path d="M514.4 203.2s8.3 15.1 5.6 24.3c-3.8 12.8-12.1 30.3-12.1 30.3" fill="none" stroke="#000" stroke-width=".294" stroke-miterlimit="10"/><path class="st1" d="M358.2 228.8c0-20.5 84.1-25.7 84.1-25.7l183.1-.1 4.6-.1 2.4 45.5-11.3 10.3H364.8c-4 0-7.1-3.3-6.4-6.8l.8-4s-.7-17.7-1-17.9c-1.8-1.9 0-1 0-1.2z"/><path class="st35" d="M557.1 216.5h12c.4 0 .7-.3.7-.7V214c0-.4-.3-.7-.7-.7h-12c-.4 0-.7.3-.7.7v1.8c0 .3.3.7.7.7zM494.5 216.5h12c.4 0 .7-.3.7-.7V214c0-.4-.3-.7-.7-.7h-12c-.4 0-.7.3-.7.7v1.8c0 .3.3.7.7.7z"/><path class="st2" d="M376 221s-1.1 11.8-5.2 11.8c-8.6 0-14 .2-14 .2s-.6-8.5 7-11c6-1.8 12.2-1 12.2-1z"/><path class="st36" d="M431.1 258.2h142.7l3.5-13.5H426.1z"/><path transform="rotate(-180 497.228 262.507)" class="st35" d="M431.1 260.5h132.2v4H431.1z"/><path class="st35" d="M610.3 264.5H626v-2.2c0-1-.8-1.8-1.8-1.8h-13.9v4z"/><path transform="rotate(-180 372.502 262.507)" class="st35" d="M359 260.5h26.9v4H359z"/><path class="st2" d="M632.3 211.7H614s-.3 12.8 10.3 14.7c8.8 1.6 8.2.2 8.2.2l-.2-14.9z"/><path class="st35" d="M613.8 210.6h18.7c.7 0 1.2-.5 1.2-1.2v-3c0-.7-.5-1.2-1.2-1.2h-18.7c-.7 0-1.2.5-1.2 1.2v3c0 .7.6 1.2 1.2 1.2z"/><path class="st1" d="M560.6 200c.8-.1 5.5-.6 11.3-1.4l.9 5.1h-57.3l.1-.9c15.5-.6 31.4-1.5 45-2.8z"/><path class="st1" d="M600.9 190.7c.7-2.7-13.8-19.8-27.1-20.2-.5 0-1.9 0-4.1-.1l-.1-.4h-2.9l.1.3c-11.2-.1-33-.2-46.1-.2v-.1h-6.3v.1h-.6c-36.2 0-65.2 29.7-65.2 29.7 0-.1 2.2 2.4 3.4 3.8h-16.8s2.5-1.7 13.4-11.8c8.4-7.9 32.8-25.9 62.8-25.9 21.2 0 84.4-.6 85.1-.6 8.8 0 10.7 3.5 9.3 9.2-1.7 6.6 23.1 26.3 24.2 29.1h-54.3l-1-5.5c11.4-1.6 25.4-4.3 26.2-7.4z"/><path class="st1" d="M569.7 170.1l.1.4h-2.9l-.1-.3h2.9z"/><path class="st1" d="M574.7 198.2l1 5.5.6 3.3h-2.9l-.6-3.3-.9-5.1-5.1-28.2h2.9l5 27.8zM492.7 203.8c5.3-.2 10.9-.4 16.7-.6l5.1-33v-.1h6.3v.1l-5 32.7-.1.9-.5 3h-6.3l.5-3h-16.7z"/><path class="st35" d="M366.2 237.2c2.7 0 7.6 9.3 7.6 13.7 0 4.4-4.9 8-7.6 8H364c-3.4 0-6.2-2.8-6.2-6.2v-7.9c0-1.1.9-7.7 2-7.7h6.4zM633.6 229.8s-15.8-3.1-23.3 5.6-10.4 23-10.4 23l21.5.1c5.9.1 12.2.1 12.2-11.9v-16.8z"/><path class="st36" d="M358.4 236.5h15.2c.7 0 1.3-.6 1.3-1.3 0-.7-.6-1.3-1.3-1.3h-15.2M455.3 196.6v19.1c-3.6 0-6.5-2.9-6.5-6.5v-6.1c-.1-3.5 2.9-6.5 6.5-6.5z"/><path class="st38" d="M447.9 233.5h58.2c1.4 0 2.5-1.1 2.5-2.5v-6.3c0-1.4-1.1-2.5-2.5-2.5h-58.2c-1.4 0-2.5 1.1-2.5 2.5v6.3c.1 1.4 1.2 2.5 2.5 2.5zM522.9 233.5h38.9c1.4 0 2.5-1.1 2.5-2.5v-6.3c0-1.4-1.1-2.5-2.5-2.5h-38.9c-1.4 0-2.5 1.1-2.5 2.5v6.3c0 1.4 1.2 2.5 2.5 2.5z"/><path class="st36" d="M631.2 215.2c-2.3 0-4.2 1.9-4.2 4.2s1.9 4.2 4.2 4.2"/><g><path class="st2" d="M431.6 258.8c0-13.1-10.6-23.7-23.7-23.7s-23.7 10.6-23.7 23.7"/><path class="st39" d="M388.3 259.1c0 3.9 1.2 7.6 3.2 10.7 3.5 5.4 9.5 8.9 16.4 8.9 10.8 0 19.6-8.8 19.6-19.6 0-4.8-1.7-9.2-4.6-12.7-3.6-4.2-9-6.9-14.9-6.9-10.9 0-19.7 8.8-19.7 19.6z"/><g class="st40"><path class="st39" d="M391.5 269.8c3.5 5.4 9.5 8.9 16.4 8.9 10.8 0 19.6-8.8 19.6-19.6 0-4.8-1.7-9.2-4.6-12.7l-9.9 7.4-11.5 8.5-10 7.5z"/></g><path class="st2" d="M400.6 259.1c0 4 3.3 7.3 7.3 7.3s7.3-3.3 7.3-7.3-3.3-7.3-7.3-7.3-7.3 3.3-7.3 7.3z"/></g><g><path class="st2" d="M610.8 258.8c0-13.1-10.6-23.7-23.7-23.7s-23.7 10.6-23.7 23.7"/><path class="st39" d="M567.5 259.1c0 3.9 1.2 7.6 3.2 10.7 3.5 5.4 9.5 8.9 16.4 8.9 10.8 0 19.6-8.8 19.6-19.6 0-4.8-1.7-9.2-4.6-12.7-3.6-4.2-9-6.9-14.9-6.9-10.9 0-19.7 8.8-19.7 19.6z"/><g class="st40"><path class="st39" d="M570.7 269.8c3.5 5.4 9.5 8.9 16.4 8.9 10.8 0 19.6-8.8 19.6-19.6 0-4.8-1.7-9.2-4.6-12.7l-9.9 7.4-11.5 8.5-10 7.5z"/></g><path class="st2" d="M579.8 259.1c0 4 3.3 7.3 7.3 7.3s7.3-3.3 7.3-7.3-3.3-7.3-7.3-7.3-7.3 3.3-7.3 7.3z"/></g></g><g><path class="st19" d="M367.6 216l-26.7-23.8-36.3-14.8H220l-19.3 14.8v15.6l92 10.4h46.7z"/><path class="st3" d="M289.8 237.4c0 .7-.6 1.3-1.3 1.3h-6.2c-.7 0-1.3-.6-1.3-1.3 0-.7.6-1.3 1.3-1.3h6.2c.7 0 1.3.6 1.3 1.3z"/><path class="st41" d="M296 208.1s-1.4 3.3.2 6c1.8 3.1 9.5 16.5 10.1 16.9 4.1 2.8 5.1-1.4 4.8-3.6-.3-2.1-.6-7.7-3-12.7-2.2-4.4-6.3-12.3-12.1-6.6z"/><path class="st41" d="M296.3 214.4l5.3 16.2 13.8.1 1.1-15.9z"/><path class="st41" d="M299.7 236.5c-.1.2-2.7 3.8-3 7.1-.3 3.4 3.1 7.6 3.1 7.6l13.3.1 1.6-9.2.7-11.7-13.6.2c-.2 0-1.2 4-2.1 5.9zM310.1 193.1l-7.7.1s-1.2 3.5-1 10c0 .3 6.6 2.1 6.6 2.1l2.1-12.2z"/><path class="st41" d="M315.1 209.4c-1.5-2.7-6.7-8.7-6.7-8.7l-6.8-1.1s-4.9 3.5-6.1 9.3c0 .2.4 6.3.4 6.3h20.6c.1 0-1.3-5.7-1.4-5.8zM312.3 186.8c-.1.4-.3.9-.3 1.3 0 .7.4 1.5.4 1.9-.1 3.4.6 3.1.3 4.3-.2.9-1.4 1-3.4 1.4-1.5.3-5.1-1.3-5.7-1.6-2.8-1.3-3.8-6.6-3.8-8.8 0-4.6 3.8-5.2 6.6-4.7 1.5.3 2.7.9 3.7 1.7 1.6 1.4 2.4 4.2 2.2 4.5z"/><path d="M309.6 186.9c.2-.2 1.3-.9 2.5-.1"/><circle class="st3" cx="310.8" cy="188.1" r=".4"/><path class="st41" d="M311.9 187.3c.5 1.6 1.2 2.4 1.4 3 0 .1-.9.3-1 .3l-.4-3.3z"/><path class="st42" d="M305.8 195.9c.2.1-.9 4.3 3 5.4l.9-5.7-3.9.3z"/><path class="st41" d="M312.4 191.2s-1 .3-1 .4c0 .4 1.1.4 1.1.4l-.1-.8z"/><path d="M315.3 183.1c-.1-.8-.9-1.6-1.7-1.5-.3.1-.7.2-1 .3-.3.1-.8-.1-.9-.4-.1-.3.1-.6.2-.9.2-.7-.4-1.4-1.1-1.6-.7-.2-1.4.4-2.2.3-2.1-.1-4.1-.6-6.6 1l2.7 2.2c-.2-.1-.3.2-.2.4.1 1 .8 1.9 1.6 2.6.4.3.9.7 1.4.8 3.6.6.9-3.1 4.1-2 .9.5 1.5 1 2.3.7.8-.3 1.4-1.1 1.4-1.9z"/><path d="M310.5 182.9s-4.2-5.4-10.3-1.7c-3.7 2.2-2.1 7.8 2.1 12.6.1.1 1.8-.4 2.3-1.2.6-1 .6-4.1.6-4.1l2.2.5.7-2.8c.3-1.8 2.4-3.3 2.4-3.3z"/><path class="st42" d="M304.9 187.8s-.1 1.6.6 1.8c.5.2 1 0 1 0s-.3 2.3-1.5 1.8c-1.3-.4-.1-3.6-.1-3.6z"/><path class="st41" d="M306.4 188.4s-.7-1.4-1.3-.8c-.6.6-.4 2.1.9 2.1.7 0 .8-.2.8-.2l-.4-1.1z"/><path class="st41" d="M305.8 188.4c0-.3-.3-.4-.5-.2V188.5c0 .1.1.3.2.4.1.1.3.1.4 0l-.1-.5z"/><pattern id="SVGID_7_" xlink:href="#Unnamed_Pattern_23" patternTransform="matrix(.2682 0 0 .2737 -3654.382 -5761.79)"/><path d="M301 199.7l10 3.7 4.2 6 1.2 5-1.8 24.2-14.6-3.4 1.5-4.8-6-16.3s-1.4-6.1 1.5-9.7c3-3.6 4-4.7 4-4.7" fill="url(#SVGID_7_)"/><path fill="none" stroke="#fff" stroke-width=".836" stroke-linecap="round" stroke-linejoin="round" stroke-miterlimit="10" d="M300.8 199.6l10.7 4"/><path class="st45" d="M300 199s14.7 5 15.9 12c.7 3.8.3 4.4.3 4.4s-4.1-11.7-18.1-14.2"/><pattern id="SVGID_8_" xlink:href="#Horizontal_line_5" patternTransform="translate(-1026.683 -1835.619) scale(.6953)"/><path d="M253.7 216.5s-6.3-5.2-5.9-5.2 3.8-7 3.8-7" fill="url(#SVGID_8_)"/><path class="st47" d="M245 205.3s-.4 3.1 2.2 8.4c2.7 5.4 12.2 12.3 12.9 12.5 4.5 1.3 4.7-2.3 3.7-4.2-.8-1.6-2.9-5.1-8.6-12-2.6-3.3-7.1-7.7-10.2-4.7z"/><pattern id="SVGID_9_" xlink:href="#Horizontal_line_5" patternTransform="rotate(26.324 -777.83 -9097.905) scale(.6953)"/><path fill="url(#SVGID_9_)" d="M251.6 205.9l4.3 4.4-7.9 7.4"/><path class="st47" d="M238.7 214.3l3.9 15.4 11.5.1 1.1-15.7z"/><path class="st47" d="M242.2 229.7l11.7-.2s3.1 4.7-.7 12.8c-.4.9-2.4 8.9-2.4 8.9s-9.6 2.8-13.9-.5c-.4-.3-1.6-4.8-2-6.2-1.6-5.7 3.2-8.3 7.3-14.8zM252.1 217.1s5.9.5 5.9-3c0-1.8-.1-.6-5-7.5M260.2 226.2c1.7 2 4 .1 4 .1 4.2-3.5 11.1-11.4 13-14.8.4-.6.6-1 .8-1.5 0 0 .3-1.2-.8-1.6-.6-.2-2.2 1.2-2.2 1.2-19.7 13.2-16 15.2-14.8 16.6zM279.7 203.9c-.1.1.7-1 1.2-1.4.1-.1.3-1 .7-1.4.1-.1 0-.7-.1-1.2 0-.5.4-.6.4-.6l.7 2.3-.6 1.7-.6 2.1s-.6.3-1.3-.3c-.5-.5-.4-1.1-.4-1.2z"/><path class="st47" d="M277.6 203.2c-.2.3-.5 1.1-.7 1.4-.6 1.1-1.1 3.7-1.4 4.3s-.7 1.3.2 2.1c1 .8 1.6-.5 1.6-.5.3-.5.4-.8.6-1 .6-.8 2.6-2.7 3.4-4 0 0 .1-.9-.5-1.3-.7-.5-1.3-.1-1.3-.1-.1.2-.3.4-.6.2-.4-.3-.5-.9-.4-1.2.6-1.2.6-1.2.3-1.5.1 0-.8 1.1-1.2 1.6z"/><path class="st47" d="M279.5 204.5s.5-1.2.9-1.6c.1-.1.1-1 .4-1.6 0-.1-.2-.7-.3-1.2-.1-.4.3-.7.3-.7l1.2 2.1-.3 1.8-.2 2.1s-.5.5-1.2.1c-.6-.2-.9-1-.8-1zM254.4 208.8c-1.2-1.3-4-8.2-4-8.2l-6.5-.3s-4.1 4-4.7 7.2c-.6 3.2-.1 6.7-.1 6.7h14.6c.1-.1.8-5.4.7-5.4z"/><pattern id="SVGID_10_" xlink:href="#Horizontal_line_5" patternTransform="translate(-1026.683 -1835.619) scale(.6953)"/><path d="M242.2 202.1s2 2.4 5.3 2.5c3.3.1 4.1-1.2 4.1-1.2l.7 1.4 5.7 8.5s1.2 2.7-3 3.8c-4.1 1.1 0 0 0 0l-.9 12.7-11.5-.1s-5.3-14.9-4.2-20.1c1-5.3 3.8-7.5 3.8-7.5" fill="url(#SVGID_10_)"/><g><path class="st47" d="M240.5 205.7s-3.7 2.9-1.7 8.5c1.2 3.3 5.6 16.4 6.1 16.9 3.5 3.2 5.2 0 5.2-2.1 0-1.8-.1-9.6-2-14.4-1.5-4-3.5-10.3-7.6-8.9z"/></g><g><path class="st47" d="M244.3 227.9c-1.1 2.4 1.5 3.7 1.5 3.7 5 2.4 15 5.4 18.8 5.7.7.1 1.2.1 1.7.1 0 0 1.2-.2 1.1-1.4-.1-.6-2-1.5-2-1.5-20.1-12.4-20.3-8.2-21.1-6.6zM272.7 236.6c-.1 0 1.2.2 1.8.5.1.1 1-.1 1.6 0 .1 0 .6-.3 1.1-.6.4-.2.7.1.7.1l-1.8 1.6-1.8.1-2.1.3s-.5-.4-.3-1.3c.1-.6.7-.7.8-.7z"/><path class="st47" d="M272.4 234.4c-.4-.1-1.2 0-1.6 0-1.3-.1-3.9.6-4.5.5-.6-.1-1.5 0-1.8 1.1-.3 1.3 1.1 1.3 1.1 1.3.6.1.8 0 1.2.1 1 .2 3.5 1.2 5.1 1.4 0 0 .9-.3 1-.9.2-.8-.5-1.3-.5-1.3-.2-.1-.5-.1-.4-.5.2-.5.6-.8.9-.8 1.3.1 1.4 0 1.5-.3 0-.1-1.4-.6-2-.6z"/><path class="st47" d="M272 236.5s1.3 0 1.9.2c.2 0 1-.3 1.6-.3.1 0 .5-.4 1-.8.4-.3.7-.1.7-.1l-1.4 1.9-1.8.6-2 .7s-.6-.3-.6-1.1c0-.5.6-1.1.6-1.1z"/></g><pattern id="SVGID_11_" xlink:href="#Horizontal_line_5" patternTransform="translate(-1026.683 -1835.619) scale(.6953)"/><path d="M239.7 218.2s-4.5-12.1 1.4-12.8c5.2-.6 8 10.4 8 10.4l-9.4 2.4z" fill="url(#SVGID_11_)"/><g><path class="st3" d="M249.4 182s3.4.4 4.2 4.3c.8 4.4 1.2 13.7 1.2 13.7l-15.7-.1c-.1 0-2.1-19.9 10.3-17.9z"/><path class="st47" d="M245 195.6l-1.4 6h6.9v-7.3z"/><path class="st51" d="M245.4 195.9c.2.1 0 3.3 5.2 3.9l-.2-5.4-5 1.5z"/><path class="st47" d="M252.6 190.4c0 3.5-1.9 6.4-5.1 6.4-3.2 0-5-2.9-5-6.5 0-3.5 1.8-6.4 5-6.4s5.1 2.9 5.1 6.5z"/><path class="st3" d="M243.9 189.7c.3-.4 2.1-.5 2.4.1M249.1 189.8c.6-.6 2.4-.4 2.7.1"/><circle class="st3" cx="244.9" cy="190.6" r=".4"/><circle class="st3" cx="250.3" cy="190.6" r=".4"/><path class="st2" d="M246.3 192.9h2.8s-.2 1.2-1.4 1.2-1.4-1.2-1.4-1.2z"/><path class="st47" d="M243 192.3h-.8c-.2 0-.3-.1-.3-.3v-1.8c0-.2.1-.3.3-.3h.8c.2 0 .3.1.3.3v1.8c0 .2-.2.3-.3.3zM252.7 192.3h-.8c-.2 0-.3-.1-.3-.3v-1.8c0-.2.1-.3.3-.3h.8c.2 0 .3.1.3.3v1.8c.1.2-.1.3-.3.3z"/><path class="st3" d="M244.9 184.3s-.8 4.1-.5 4.2c.4.1 4.5.1 4.5.1s.8-4.4.7-3.9c-.1.5.4 3.9.4 3.9l1.7.4s1.1-6.8-2-6.7-4.5.4-4.8 2z"/><path class="st51" d="M248 189.7v1.9l-1.1.2s1 1 1.6.5c.6-.6.1-2.5-.5-2.6zM242.7 190.6h-.2c-.1 0-.2 0-.2.1s-.1.1-.1.2v.4c0 .1.1.2.2.3h.3M252.4 190.6c.1 0 .3.1.3.2.1.1 0 .3 0 .4 0 .1 0 .2-.1.3s-.2.2-.3.2c0 0-.1 0-.1-.1"/></g><path class="st45" d="M243 201.1l-2 2.3s13.4 8 12.6 24.5l.5.3c.1 0 4.2-19-11.1-27.1"/><g><path class="st3" d="M340 217.9c-.3 0-.6-.1-.9-.2-.9-.5-1.3-1.7-.8-2.6l7.4-14.1c.5-.9 1.7-1.3 2.6-.8.9.5 1.3 1.7.8 2.6l-7.4 14.1c-.4.6-1 1-1.7 1z"/><path class="st1" d="M297.2 206.7c0 .5-2.2 4.5 1.7 13.3 4.1 9.2 16 13.3 16 13.3l.3-4-18-22.6z"/><path class="st26" d="M316.4 221.6c.6 2.2 3.6 2 3.6 2 6-2.4 12.8-5.6 16.7-7.2.7-.3.9-.7 1.3-.9l-.6-2.9c-21.3 1.6-21.5 7.1-21 9zM342.3 211.1c-.1 0 1.2-.7 1.8-.8.2 0 .7-.8 1.3-1.1.1 0 .3-.7.5-1.2.2-.4.6-.4.6-.4l-.3 2.5-1.4 1.4-1.6 1.7s-.7 0-1.1-.8c-.3-.8.1-1.3.2-1.3z"/><path class="st26" d="M340.6 209.4c-.4.2-1 .8-1.3 1-1.1.8-1.2 1.3-3.1 3.1-2 1.9-.2 3.4.8 2.8.3-.2.7-.5 1.1-.7.9-.5 3.7-1.4 5.1-2.3 0 0 .5-.8.1-1.4-.4-.8-1.3-.7-1.3-.7-.2.1-.5.2-.7-.1-.2-.5-.1-.8.3-1.2 1-.7 1.1-1.2.8-1.5-.1.3-1.3.7-1.8 1z"/><path class="st26" d="M341.8 211.5s1-.9 1.6-1.1c.2-.1.6-.9 1.1-1.3.1-.1.1-.7.3-1.3.1-.5.6-.5.6-.5l.2 2.5-1.1 1.6-1.2 2s-.7.2-1.2-.5c-.5-.5-.4-1.4-.3-1.4zM298.2 209.6s.5 3.6 3.1 5.1c3.2 1.8 15.7 10 18.7 8.5 4.5-2.3 2.3-2.5.9-4.3-1.3-1.7-4.4-6.4-8.9-9.6-4.1-2.8-11.6-7.6-13.8.3z"/><pattern id="SVGID_12_" xlink:href="#Unnamed_Pattern_23" patternTransform="matrix(.1995 -.102 .1041 .2036 -2989.183 -7060.437)"/><path d="M312.9 209.6l-6 8.8s-13.1-6.5-10-10.8c3.1-4.3 8.3-7.2 16 2z" fill="url(#SVGID_12_)"/><g><path class="st2" d="M307.4 218.9c2.1-2.8 4.2-5.7 6.2-8.5.4-.5-.5-1-.9-.5-2.1 2.8-4.2 5.7-6.2 8.5-.4.5.5 1 .9.5z"/></g></g><path d="M290.7 213.1s-8.5 15.4-5.7 24.8c3.9 13 12.3 30.9 12.3 30.9" fill="none" stroke="#000" stroke-width=".587" stroke-miterlimit="10"/><path class="st35" d="M449.9 239.1c0-20.9-85.7-26.2-85.7-26.2l-186.7-.1-4.7-.1-2.4 46.4 11.5 10.4h261.3c4.1 0 7.2-3.3 6.5-6.9l-.8-4s.7-18 1-18.3c1.9-1.9 0-.9 0-1.2z"/><path class="st1" d="M247.1 226.6h-12.2c-.4 0-.7-.3-.7-.7V224c0-.4.3-.7.7-.7h12.2c.4 0 .7.3.7.7v1.9c.1.4-.3.7-.7.7zM311 226.6h-12.2c-.4 0-.7-.3-.7-.7V224c0-.4.3-.7.7-.7H311c.4 0 .7.3.7.7v1.9c0 .4-.3.7-.7.7z"/><path class="st2" d="M431.7 231.2s1.1 12 5.3 12c8.8 0 14.2.2 14.2.2s.6-8.7-7.1-11.2c-6-1.9-12.4-1-12.4-1z"/><path class="st54" d="M375.6 269.1H230.1l-3.5-13.8h154.1z"/><path class="st1" d="M240.8 271.5h134.8v4.1H240.8zM192.9 275.6H177v-2.3c0-1 .8-1.8 1.8-1.8h14.1v4.1zM421.6 271.5h27.5v4.1h-27.5z"/><path class="st2" d="M170.5 221.8h18.7s.3 13.1-10.5 15c-9 1.6-8.4.2-8.4.2l.2-15.2z"/><path class="st1" d="M189.3 220.6h-19c-.7 0-1.2-.5-1.2-1.2v-3.1c0-.7.5-1.2 1.2-1.2h19c.7 0 1.2.5 1.2 1.2v3.1c0 .7-.5 1.2-1.2 1.2z"/><g><path class="st35" d="M243.6 209.8c-.8-.1-5.6-.6-11.6-1.5l-.9 5.2h58.4l-.1-.9c-15.7-.5-32-1.5-45.8-2.8zM295.8 213l.1.6h16.9c-5.4-.1-11.1-.3-17-.6z"/><path class="st35" d="M202.5 200.3c-.7-2.7 14-20.2 27.6-20.6.5 0 2 0 4.2-.1l.1-.4h2.9l-.1.4c11.4-.1 33.7-.2 47-.2v-.1h6.4v.1h.6c36.9 0 66.4 30.3 66.4 30.3 0-.1-2.2 2.5-3.4 3.9h17.1s-2.5-1.7-13.6-12.1c-8.6-8-33.4-26.4-64-26.4-21.6 0-86-.6-86.8-.6-9 0-10.9 3.6-9.5 9.4 1.7 6.8-23.5 26.8-24.7 29.6H228l1-5.6c-11.4-1.7-25.7-4.5-26.5-7.6zM227.6 217h2.9l.6-3.4h-2.9z"/><path class="st35" d="M237.3 179.3h-2.9l-.1.4h2.9l.1-.4zM229.2 208l-1 5.6h2.9l.9-5.2c-.9-.1-1.8-.3-2.8-.4z"/><path class="st35" d="M234.3 179.7l-5.1 28.3c1 .1 1.9.3 2.9.4l5.2-28.7h-3zM290 216.7h6.4l-.5-3.1h-6.4zM290.6 179.3h-6.4v.1h6.4v-.1z"/><path class="st35" d="M289.4 212.8l.1.9h6.4l-.1-.6c-2.1-.2-4.3-.3-6.4-.3z"/><path class="st35" d="M284.2 179.4l5.1 33.3c2.2.1 4.3.2 6.4.3l-5.2-33.6h-6.3z"/></g><path class="st1" d="M441.7 247.7c-2.7 0-7.7 9.5-7.7 14s5 8.2 7.7 8.2h2.2c3.5 0 6.3-2.8 6.3-6.3v-8c0-1.1-.9-7.8-2-7.8h-6.5zM169.2 240.2s16.1-3.2 23.7 5.7c7.6 8.9 10.6 23.5 10.6 23.5l-21.9.1c-6 .1-12.4.1-12.4-12.1v-17.2z"/><path class="st54" d="M449.7 247h-15.5c-.8 0-1.4-.6-1.4-1.4 0-.8.6-1.4 1.4-1.4h15.5M351 206.4v19.5c3.7 0 6.7-3 6.7-6.7V213c-.1-3.6-3.1-6.6-6.7-6.6z"/><path class="st38" d="M358.4 243.9H299c-1.4 0-2.5-1.1-2.5-2.5V235c0-1.4 1.1-2.5 2.5-2.5h59.4c1.4 0 2.5 1.1 2.5 2.5v6.4c.1 1.4-1.1 2.5-2.5 2.5zM282 243.9h-39.7c-1.4 0-2.5-1.1-2.5-2.5V235c0-1.4 1.1-2.5 2.5-2.5H282c1.4 0 2.5 1.1 2.5 2.5v6.4c0 1.4-1.1 2.5-2.5 2.5z"/><path class="st54" d="M171.6 225.3c2.4 0 4.3 1.9 4.3 4.3s-1.9 4.3-4.3 4.3"/><g><path class="st2" d="M375.1 269.7c0-13.4 10.8-24.2 24.2-24.2s24.2 10.8 24.2 24.2"/><path class="st1" d="M419.2 270c0 4-1.2 7.7-3.2 10.9-3.5 5.5-9.7 9.1-16.7 9.1-11 0-20-8.9-20-20 0-4.9 1.8-9.4 4.7-12.9 3.7-4.3 9.1-7.1 15.2-7.1 11.1.1 20 9 20 20z"/><g class="st40"><path class="st39" d="M416 280.9c-3.5 5.5-9.7 9.1-16.7 9.1-11 0-20-8.9-20-20 0-4.9 1.8-9.4 4.7-12.9l10.1 7.5 11.7 8.7 10.2 7.6z"/></g><path class="st2" d="M406.7 270c0 4.1-3.3 7.4-7.4 7.4-4.1 0-7.4-3.3-7.4-7.4 0-4.1 3.3-7.4 7.4-7.4 4.1 0 7.4 3.3 7.4 7.4z"/></g><g><path class="st2" d="M192.4 269.7c0-13.4 10.8-24.2 24.2-24.2s24.2 10.8 24.2 24.2"/><path class="st1" d="M236.6 270c0 4-1.2 7.7-3.2 10.9-3.5 5.5-9.7 9.1-16.7 9.1-11 0-20-8.9-20-20 0-4.9 1.8-9.4 4.7-12.9 3.7-4.3 9.1-7.1 15.2-7.1 11 .1 20 9 20 20z"/><g class="st40"><path class="st39" d="M233.3 280.9c-3.5 5.5-9.7 9.1-16.7 9.1-11 0-20-8.9-20-20 0-4.9 1.8-9.4 4.7-12.9l10.1 7.5 11.7 8.7 10.2 7.6z"/></g><path class="st2" d="M224 270c0 4.1-3.3 7.4-7.4 7.4-4.1 0-7.4-3.3-7.4-7.4 0-4.1 3.3-7.4 7.4-7.4 4.1 0 7.4 3.3 7.4 7.4z"/></g></g><path class="st18" d="M147.9 182.9H206M136.6 195.2h58.1M597.7 175h58.1M611 187.3h58.1"/></g><g class="st12"><path class="st267" d="M-372.9 533.3c0-120.1 97.4-217.5 217.5-217.5S62.1 413.2 62.1 533.3"/><path class="st267" d="M57.4 533.3c0-120.1 97.4-217.5 217.5-217.5s217.5 97.4 217.5 217.5M497 533.3c0-120.1 97.4-217.5 217.5-217.5S932 413.2 932 533.3M-577.2 252.5h1934.3M57.4 292.7v-40.3M135.1 292.7v-40.3M212.8 292.7v-40.3M290.5 292.7v-40.3M368.2 292.7v-40.3M445.8 292.7v-40.3M523.5 292.7v-40.3M601.2 292.7v-40.3M678.9 292.7v-40.3M756.5 292.7v-40.3"/><path class="st1" d="M-577.5 278.5h1934.6v35H-577.5z"/><path class="st1" d="M40.3 305.2v206.3l-24.5 17.2V567h92.6v-40.3l-27.8-18.5v-203zM475.2 305.2v206.3l-24.4 17.2V567h92.5v-40.3l-27.7-18.5v-203z"/></g></g></svg>
