<svg xmlns="http://www.w3.org/2000/svg" viewBox="0 0 2000 800"><defs><pattern id="Horizontal_line_3" data-name="Horizontal line 3" width="50" height="50" patternTransform="matrix(-1.11 0 0 1.11 2364.21 -1405.69)" patternUnits="userSpaceOnUse"><path class="cls-1" d="M0 0h50v50H0z"/><path class="cls-2" d="M0 0h50v6.27H0z"/><path class="cls-3" d="M0 6.27h50v6.27H0z"/><path class="cls-2" d="M0 12.53h50v6.27H0z"/><path class="cls-3" d="M0 18.8h50v6.27H0z"/><path class="cls-2" d="M0 25.06h50v6.27H0z"/><path class="cls-3" d="M0 31.33h50v6.27H0z"/><path class="cls-2" d="M0 37.59h50v6.27H0z"/><path class="cls-3" d="M0 43.73h50V50H0z"/></pattern><pattern id="Horizontal_line_3-3" data-name="Horizontal line 3" width="50" height="50" patternTransform="matrix(-1 .49 .49 1 2363.97 -869.93)" patternUnits="userSpaceOnUse"><path class="cls-1" d="M0 0h50v50H0z"/><path class="cls-2" d="M0 0h50v6.27H0z"/><path class="cls-3" d="M0 6.27h50v6.27H0z"/><path class="cls-2" d="M0 12.53h50v6.27H0z"/><path class="cls-3" d="M0 18.8h50v6.27H0z"/><path class="cls-2" d="M0 25.06h50v6.27H0z"/><path class="cls-3" d="M0 31.33h50v6.27H0z"/><path class="cls-2" d="M0 37.59h50v6.27H0z"/><path class="cls-3" d="M0 43.73h50V50H0z"/></pattern><pattern id="Horizontal_line_3-5" data-name="Horizontal line 3" width="50" height="50" patternTransform="matrix(.54 0 0 .54 2026.41 -332.32)" patternUnits="userSpaceOnUse"><path class="cls-1" d="M0 0h50v50H0z"/><path class="cls-2" d="M0 0h50v6.27H0z"/><path class="cls-3" d="M0 6.27h50v6.27H0z"/><path class="cls-2" d="M0 12.53h50v6.27H0z"/><path class="cls-3" d="M0 18.8h50v6.27H0z"/><path class="cls-2" d="M0 25.06h50v6.27H0z"/><path class="cls-3" d="M0 31.33h50v6.27H0z"/><path class="cls-2" d="M0 37.59h50v6.27H0z"/><path class="cls-3" d="M0 43.73h50V50H0z"/></pattern><pattern id="Horizontal_line_3-9" data-name="Horizontal line 3" width="50" height="50" patternTransform="matrix(-1.11 0 0 1.11 2324.87 -1412.75)" patternUnits="userSpaceOnUse"><path class="cls-1" d="M0 0h50v50H0z"/><path class="cls-2" d="M0 0h50v6.27H0z"/><path class="cls-3" d="M0 6.27h50v6.27H0z"/><path class="cls-2" d="M0 12.53h50v6.27H0z"/><path class="cls-3" d="M0 18.8h50v6.27H0z"/><path class="cls-2" d="M0 25.06h50v6.27H0z"/><path class="cls-3" d="M0 31.33h50v6.27H0z"/><path class="cls-2" d="M0 37.59h50v6.27H0z"/><path class="cls-3" d="M0 43.73h50V50H0z"/></pattern><pattern id="Horizontal_line_3-11" data-name="Horizontal line 3" width="50" height="50" patternTransform="matrix(-1 .49 .49 1 2350.88 -875.94)" patternUnits="userSpaceOnUse"><path class="cls-1" d="M0 0h50v50H0z"/><path class="cls-2" d="M0 0h50v6.27H0z"/><path class="cls-3" d="M0 6.27h50v6.27H0z"/><path class="cls-2" d="M0 12.53h50v6.27H0z"/><path class="cls-3" d="M0 18.8h50v6.27H0z"/><path class="cls-2" d="M0 25.06h50v6.27H0z"/><path class="cls-3" d="M0 31.33h50v6.27H0z"/><path class="cls-2" d="M0 37.59h50v6.27H0z"/><path class="cls-3" d="M0 43.73h50V50H0z"/></pattern><pattern id="Unnamed_Pattern_23" data-name="Unnamed Pattern 23" width="50.86" height="47.05" patternTransform="matrix(.27 0 0 .28 1975.21 850.16)" patternUnits="userSpaceOnUse"><path class="cls-1" d="M0 0h50.86v47.05H0z"/><path class="cls-4" d="M50.82 46.67h50.9v47.52h-50.9z"/><path class="cls-4" d="M-.03 46.67h50.9v47.52H-.03z"/><path class="cls-4" d="M-50.89 46.67H.01v47.52h-50.9zM50.82-.38h50.9v47.52h-50.9z"/><path class="cls-4" d="M-.03-.38h50.9v47.52H-.03z"/><path class="cls-5" d="M12.9 4.7h-1.8L11.08.05h1.81l.01 4.65zM20.38 6.83l-1.47 1.04-2.68-3.82 1.47-1.03 2.68 3.81zM13.65 14.45l-.35-1.77 4.57-.9.35 1.77-4.57.9zM22.64 13.24l-1.38-1.16 3-3.56 1.37 1.16-2.99 3.56zM26.98 19.7l-1.79-.16.4-4.64 1.8.16-.41 4.64zM16.93 21.17l.87-1.57 4.07 2.26-.88 1.58-4.06-2.27zM4.16 6.85L2.68 7.89 0 4.08l1.48-1.03 2.68 3.8zM6.41 13.26l-1.38-1.15 3-3.57 1.38 1.17-3 3.55zM10.75 19.73l-1.79-.16.41-4.65 1.79.17-.41 4.64zM.69 21.2l.88-1.57 4.07 2.25-.87 1.58L.69 21.2zM29.73 4.68h-1.81L27.91.02h1.81l.01 4.66zM37.21 6.81l-1.48 1.03-2.68-3.81L34.53 3l2.68 3.81zM30.48 14.43l-.35-1.77 4.57-.91.35 1.77-4.57.91zM39.46 13.22l-1.37-1.16 2.99-3.56 1.39 1.16-3.01 3.56zM43.81 19.68l-1.8-.16.4-4.64 1.8.16-.4 4.64zM33.75 21.15l.87-1.58 4.08 2.26-.88 1.58-4.07-2.26zM45.5 4.65l-1.81.01V0h1.8l.01 4.65zM46.26 14.4l-.35-1.77 4.56-.9.36 1.77-4.57.9zM12.94 28.29h-1.81l-.01-4.65 1.8-.01.02 4.66zM20.42 30.42l-1.48 1.04-2.67-3.81 1.47-1.04 2.68 3.81zM13.69 38.03l-.36-1.77 4.58-.9.35 1.77-4.57.9zM22.67 36.83l-1.38-1.16 3.01-3.56 1.37 1.16-3 3.56zM27.02 43.29l-1.8-.16.41-4.63 1.8.15-.41 4.64zM16.96 44.77l.87-1.58 4.07 2.26-.87 1.57-4.07-2.25zM4.19 30.44l-1.47 1.04-2.69-3.81 1.49-1.03 2.67 3.8zM6.44 36.85l-1.37-1.16 3-3.56 1.37 1.16-3 3.56zM10.79 43.31l-1.8-.15.41-4.64 1.8.16-.41 4.63zM.73 44.79l.88-1.58 4.06 2.26-.87 1.58-4.07-2.26zM29.76 28.26l-1.8.01-.01-4.66h1.8l.01 4.65zM37.25 30.39l-1.48 1.05-2.68-3.81 1.48-1.05 2.68 3.81zM30.52 38.01l-.35-1.76 4.57-.91.34 1.77-4.56.9zM39.49 36.81l-1.38-1.16 3.01-3.56 1.38 1.15-3.01 3.57zM43.84 43.26l-1.79-.16.41-4.63 1.79.16-.41 4.63zM33.78 44.74l.88-1.58 4.07 2.26-.87 1.58-4.08-2.26zM45.53 28.24l-1.8.01-.01-4.66h1.81v4.65zM46.29 37.99l-.35-1.77 4.57-.9.35 1.77-4.57.9z"/><path class="cls-4" d="M-50.89-.38H.01v47.52h-50.9zM50.82-47.42h50.9V.1h-50.9z"/><path class="cls-4" d="M-.03-47.42h50.9V.1H-.03z"/><path class="cls-4" d="M-50.89-47.42H.01V.1h-50.9z"/></pattern><pattern id="Horizontal_line_5" data-name="Horizontal line 5" width="50" height="50" patternTransform="matrix(.71 0 0 .71 1956.57 498.15)" patternUnits="userSpaceOnUse"><path class="cls-1" d="M0 0h50v50H0z"/><path class="cls-4" d="M0 0h50v6.27H0z"/><path class="cls-3" d="M0 6.27h50v6.27H0z"/><path class="cls-4" d="M0 12.53h50v6.27H0z"/><path class="cls-3" d="M0 18.8h50v6.27H0z"/><path class="cls-4" d="M0 25.06h50v6.27H0z"/><path class="cls-3" d="M0 31.33h50v6.27H0z"/><path class="cls-4" d="M0 37.59h50v6.27H0z"/><path class="cls-3" d="M0 43.73h50V50H0z"/></pattern><pattern id="Horizontal_line_5-3" data-name="Horizontal line 5" width="50" height="50" patternTransform="rotate(26.32 -285.641 4776.112) scale(.71)" patternUnits="userSpaceOnUse"><path class="cls-1" d="M0 0h50v50H0z"/><path class="cls-4" d="M0 0h50v6.27H0z"/><path class="cls-3" d="M0 6.27h50v6.27H0z"/><path class="cls-4" d="M0 12.53h50v6.27H0z"/><path class="cls-3" d="M0 18.8h50v6.27H0z"/><path class="cls-4" d="M0 25.06h50v6.27H0z"/><path class="cls-3" d="M0 31.33h50v6.27H0z"/><path class="cls-4" d="M0 37.59h50v6.27H0z"/><path class="cls-3" d="M0 43.73h50V50H0z"/></pattern><pattern id="Unnamed_Pattern_23-3" data-name="Unnamed Pattern 23" width="50.86" height="47.05" patternTransform="matrix(.2 -.1 .11 .21 2061.96 1010.81)" patternUnits="userSpaceOnUse"><path class="cls-1" d="M0 0h50.86v47.05H0z"/><path class="cls-4" d="M50.82 46.67h50.9v47.52h-50.9z"/><path class="cls-4" d="M-.03 46.67h50.9v47.52H-.03z"/><path class="cls-4" d="M-50.89 46.67H.01v47.52h-50.9zM50.82-.38h50.9v47.52h-50.9z"/><path class="cls-4" d="M-.03-.38h50.9v47.52H-.03z"/><path class="cls-5" d="M12.9 4.7h-1.8L11.08.05h1.81l.01 4.65zM20.38 6.83l-1.47 1.04-2.68-3.82 1.47-1.03 2.68 3.81zM13.65 14.45l-.35-1.77 4.57-.9.35 1.77-4.57.9zM22.64 13.24l-1.38-1.16 3-3.56 1.37 1.16-2.99 3.56zM26.98 19.7l-1.79-.16.4-4.64 1.8.16-.41 4.64zM16.93 21.17l.87-1.57 4.07 2.26-.88 1.58-4.06-2.27zM4.16 6.85L2.68 7.89 0 4.08l1.48-1.03 2.68 3.8zM6.41 13.26l-1.38-1.15 3-3.57 1.38 1.17-3 3.55zM10.75 19.73l-1.79-.16.41-4.65 1.79.17-.41 4.64zM.69 21.2l.88-1.57 4.07 2.25-.87 1.58L.69 21.2zM29.73 4.68h-1.81L27.91.02h1.81l.01 4.66zM37.21 6.81l-1.48 1.03-2.68-3.81L34.53 3l2.68 3.81zM30.48 14.43l-.35-1.77 4.57-.91.35 1.77-4.57.91zM39.46 13.22l-1.37-1.16 2.99-3.56 1.39 1.16-3.01 3.56zM43.81 19.68l-1.8-.16.4-4.64 1.8.16-.4 4.64zM33.75 21.15l.87-1.58 4.08 2.26-.88 1.58-4.07-2.26zM45.5 4.65l-1.81.01V0h1.8l.01 4.65zM46.26 14.4l-.35-1.77 4.56-.9.36 1.77-4.57.9zM12.94 28.29h-1.81l-.01-4.65 1.8-.01.02 4.66zM20.42 30.42l-1.48 1.04-2.67-3.81 1.47-1.04 2.68 3.81zM13.69 38.03l-.36-1.77 4.58-.9.35 1.77-4.57.9zM22.67 36.83l-1.38-1.16 3.01-3.56 1.37 1.16-3 3.56zM27.02 43.29l-1.8-.16.41-4.63 1.8.15-.41 4.64zM16.96 44.77l.87-1.58 4.07 2.26-.87 1.57-4.07-2.25zM4.19 30.44l-1.47 1.04-2.69-3.81 1.49-1.03 2.67 3.8zM6.44 36.85l-1.37-1.16 3-3.56 1.37 1.16-3 3.56zM10.79 43.31l-1.8-.15.41-4.64 1.8.16-.41 4.63zM.73 44.79l.88-1.58 4.06 2.26-.87 1.58-4.07-2.26zM29.76 28.26l-1.8.01-.01-4.66h1.8l.01 4.65zM37.25 30.39l-1.48 1.05-2.68-3.81 1.48-1.05 2.68 3.81zM30.52 38.01l-.35-1.76 4.57-.91.34 1.77-4.56.9zM39.49 36.81l-1.38-1.16 3.01-3.56 1.38 1.15-3.01 3.57zM43.84 43.26l-1.79-.16.41-4.63 1.79.16-.41 4.63zM33.78 44.74l.88-1.58 4.07 2.26-.87 1.58-4.08-2.26zM45.53 28.24l-1.8.01-.01-4.66h1.81v4.65zM46.29 37.99l-.35-1.77 4.57-.9.35 1.77-4.57.9z"/><path class="cls-4" d="M-50.89-.38H.01v47.52h-50.9zM50.82-47.42h50.9V.1h-50.9z"/><path class="cls-4" d="M-.03-47.42h50.9V.1H-.03z"/><path class="cls-4" d="M-50.89-47.42H.01V.1h-50.9z"/></pattern><clipPath id="clip-path"><path class="cls-1" d="M0 0h2000v800H0z"/></clipPath><clipPath id="clip-path-2"><path class="cls-1" d="M2477 374.55h800V746h-800z"/></clipPath><linearGradient id="Dégradé_sans_nom_12" x1="1001.67" y1="788.62" x2="999.01" y2="-10.19" gradientUnits="userSpaceOnUse"><stop offset="0" stop-color="#fff"/><stop offset=".09" stop-color="#f7fdff"/><stop offset=".24" stop-color="#e0f8ff"/><stop offset=".42" stop-color="#bcf0ff"/><stop offset=".63" stop-color="#89e5ff"/><stop offset=".86" stop-color="#48d7ff"/><stop offset=".94" stop-color="#2ed1ff"/></linearGradient><style>.cls-1,.cls-17,.cls-86,.cls-87,.cls-88,.cls-89{fill:none}.cls-2{fill:#054752}.cls-18,.cls-3,.cls-66{fill:#fff}.cls-4{fill:#004753}.cls-5{fill:#eae8f5}.cls-9{fill:#669aa2}.cls-11{fill:#91b7bc}.cls-12{fill:#bdd4d7}.cls-13{fill:#cddadc}.cls-14{fill:#538c94}.cls-15{fill:#2e5862}.cls-16{fill:#d3e2e4}.cls-17,.cls-87,.cls-88,.cls-89{stroke:#054752;stroke-miterlimit:10}.cls-17{stroke-width:4px}.cls-18{opacity:.4}.cls-19,.cls-23,.cls-24{fill:#facca3}.cls-25{opacity:.47}.cls-23,.cls-24,.cls-25,.cls-37,.cls-39,.cls-44,.cls-49,.cls-50,.cls-54,.cls-55,.cls-67,.cls-68,.cls-71,.cls-72,.cls-80{mix-blend-mode:multiply}.cls-25{fill:#95abbd}.cls-40{fill:#014753}.cls-23,.cls-49,.cls-55,.cls-71{opacity:.67}.cls-26{fill:#f5b240}.cls-27,.cls-84{fill:#2ed1ff}.cls-28{fill:#8f4160;opacity:.3}.cls-30{fill:#f1890e}.cls-32,.cls-37{fill:#f9cfc4}.cls-35{fill:#e9ca91}.cls-36{fill:url(#Horizontal_line_3-5)}.cls-37{opacity:.69}.cls-42,.cls-44{fill:#947347}.cls-48,.cls-49,.cls-50{fill:#ddb68d}.cls-53,.cls-54,.cls-55{fill:#cd904d}.cls-57{fill:#a9b7c0}.cls-58{fill:#01353a}.cls-59{fill:#cd8f4d}.cls-61{fill:#ff595a}.cls-64{fill:#022327}.cls-66,.cls-67,.cls-84{opacity:.45}.cls-67{fill:#044752}.cls-68{opacity:.49}.cls-69{fill:#004553}.cls-70,.cls-71,.cls-72{fill:#ce914d}.cls-86{stroke:#fff;stroke-linecap:round;stroke-linejoin:round}.cls-75{fill:#033}.cls-76{fill:url(#Horizontal_line_5)}.cls-77,.cls-80{fill:#eacb92}.cls-80{opacity:.59}.cls-87{stroke-width:10px}.cls-88{stroke-width:20px}.cls-89{stroke-width:7px}.cls-90{fill:#32707a}</style></defs><g style="isolation:isolate"><g id="Calque_1" data-name="Calque 1"><path fill="url(#Dégradé_sans_nom_12)" d="M0 0h2000v572H0z"/><g clip-path="url(#clip-path)"><path class="cls-9" d="M475.8 402.56s66.09-3.07 120.65-22.28c0 0 53 16.91 83 22.28s89.14-3.07 107.59 6.15c0 0 38.42 23.83 59.94 26.13s52.26 3.84 72.24-6.91 23.82-3.85 33 0 20.75 13.83 50-6.92 41.49-27.67 55.33-23.06 40.73 26.9 116.81 46.88 122.19-16.14 122.19-16.14 9.22-10 33.81-10 101.44-3.07 101.44-3.07L1049.09 670 559.56 500.93z"/><path d="M2136.51 57.51s-81.46 122.19-151.39 129.88c0 0-32.28 7.68-36.12 19.21s-12.3 26.9-26.9 27.67-43 13.06-71.47 0-60.71-12.3-84.53 6.14S1635.45 328 1584 350.31s-73.77 6.91-73.77 6.91-347.36 215.95-504.9 290.49l158.31 112.2 847.64-56.1 171.38-49.18z" fill="#a7c6ca"/><path class="cls-11" d="M-8.35 159s61.48-7 104.51 13.79S265.23 290.37 314.41 305s91.46 13.83 118.35 29.2 63.79 55.33 116.81 81.46 378.1 212.87 518 216.71L1049.09 670l-501.82-10-381.94-245.91z"/><path class="cls-12" d="M-176.27-50.46s40-18.44 65.32 0 144.48 296.64 443.42 478c0 0 199.43 125.65 307 142.56s186 76.85 282.8 67.62 172.91 16.91 212.87 16.91 414.22-10.76 414.22-10.76l265.9-8.45-952.91 124.49H-175.88z"/><path class="cls-9" d="M-195.1 680s302 43.8 910.67 34.58l-67.63 25.36-405.76 10-442.65-6.14z"/><path class="cls-11" d="M973.78 703.81s-77.62-13.06-107.59-10-189.05 24.59-189.05 24.59-33 3.85-95.29 2.31c0 0-35.35 0-61.48 4.61S353.61 741.47 322.1 740.7s-509.51-6.92-509.51-6.92v26.13l464.17 30 577.14-23.85 135.25-34.58z"/><path class="cls-13" d="M624.89 719.18s-13.07 3.08-8.46 7.69 16.91 6.91 11.53 11.53-22.29 9.22-60.71 11.52-259.75 6.92-259.75 6.92L120 761.45l-417.29-1.54v16.91l532.56-9.22 180.6-5.38 156-6.15s55.33-4.61 61.48-10.76.77-13.06-2.31-14.6-11.52-3.07-11.52-5.38 5.37-6.15 5.37-6.15z"/><path class="cls-14" d="M2163.41 510.15S1321.14 651.56 1015.28 690c0 0-171.37 26.13-201.35 43.8S953 738.4 953 738.4s-193.66 21.51-395.77 31.5-733.91 0-733.91 0V783l698.56 27.66 1630.74-5.38z"/><path class="cls-9" d="M2169.55 797.57l-1108.16-7.69H519.6L296 783.74h-472.65l.77 64.55 501.05 8.45s263.6 11.53 480.31 33.82 571 41.5 646.3 125.26-102.21 179.06-102.21 179.06h802.31z"/><path class="cls-11" d="M1510.51 722.19c0-5.17-5.42-9.37-12.11-9.37a15 15 0 00-5 .84 16.2 16.2 0 00-26.71 3.77 10.47 10.47 0 00-1.6-.13 9.51 9.51 0 00-9.78 9.18h53.86a7.72 7.72 0 001.34-4.29z"/><path class="cls-15" d="M401.42 723.75c0-5.14-5.39-9.32-12-9.32a14.81 14.81 0 00-5 .84 16.12 16.12 0 00-26.58 3.73 10.31 10.31 0 00-1.58-.12 9.46 9.46 0 00-9.73 9.13h53.56a7.67 7.67 0 001.33-4.26z"/><path class="cls-16" d="M962.57 748.33c0-5.15-5.39-9.32-12-9.32a14.87 14.87 0 00-5 .83 16.12 16.12 0 00-26.57 3.74 10.22 10.22 0 00-1.58-.12 9.47 9.47 0 00-9.73 9.13h53.56a7.64 7.64 0 001.32-4.26zM690.38 730.69c0-2.7-2.83-4.89-6.31-4.89a7.85 7.85 0 00-2.61.44 8.44 8.44 0 00-13.92 2 5.69 5.69 0 00-.83-.06 5 5 0 00-5.1 4.78h28.07a4.06 4.06 0 00.7-2.27zM853.66 709.94c0-2.69-2.82-4.88-6.3-4.88a7.81 7.81 0 00-2.61.44 8.45 8.45 0 00-13.93 2 5.55 5.55 0 00-.82-.07 5 5 0 00-5.1 4.79H853a4.05 4.05 0 00.66-2.28z"/><path class="cls-17" d="M277.96 689.41v34.94"/><path class="cls-15" d="M298.51 663.59h-1c-.94-7.07-7.58-12.54-15.63-12.54a15.83 15.83 0 00-14.57 8.84 9.25 9.25 0 10-8.41 16.14 12.34 12.34 0 0016 17.2 16.52 16.52 0 009.24 2.7c6.85 0 12.59-3.86 14.06-9h.36a11.68 11.68 0 100-23.35z"/><path class="cls-17" d="M1411.96 624.76v21.93"/><path class="cls-15" d="M1424.86 608.56h-.64c-.59-4.43-4.76-7.87-9.81-7.87a9.93 9.93 0 00-9.14 5.55 5.8 5.8 0 10-5.27 10.16 7.64 7.64 0 00-1 3.77 7.74 7.74 0 0011 7 10.37 10.37 0 005.79 1.7c4.3 0 7.91-2.42 8.83-5.68h.23a7.33 7.33 0 100-14.66z"/><path class="cls-17" d="M1462.68 615.54v21.93"/><path class="cls-15" d="M1475.58 599.34h-.64c-.59-4.44-4.76-7.87-9.81-7.87a9.93 9.93 0 00-9.14 5.55 5.71 5.71 0 00-3.55-1.22 5.81 5.81 0 00-1.73 11.35 7.64 7.64 0 00-1 3.77 7.74 7.74 0 0011 7 10.37 10.37 0 005.79 1.7c4.31 0 7.91-2.43 8.83-5.68h.23a7.33 7.33 0 100-14.65z"/><path class="cls-17" d="M1508.79 606.32v21.93"/><path class="cls-15" d="M1521.69 590.12h-.64c-.59-4.44-4.76-7.87-9.81-7.87a9.93 9.93 0 00-9.14 5.54 5.81 5.81 0 10-5.28 10.14 7.62 7.62 0 00-1 3.77 7.74 7.74 0 0011 7 10.37 10.37 0 005.79 1.7c4.3 0 7.91-2.43 8.83-5.68h.23a7.33 7.33 0 100-14.65z"/><rect class="cls-18" x="860.33" y="383.1" width="524.62" height="111.09" rx="5.99" transform="rotate(-180 1122.64 438.64)"/><path class="cls-19" d="M1171 415.71l11.25.15s1.71 5.09 1.46 14.59c0 .39-9.7 3.14-9.7 3.14z"/><path class="cls-19" d="M1163.71 439.7c2.23-3.93 9.77-12.78 9.77-12.78l10-1.67s7.19 5.1 9 13.6c.07.33-.62 9.25-.62 9.25h-30.25s2.04-8.29 2.1-8.4zM1167.21 417.68c.32 1.29 2.08 1.36 5 1.91h.07a5 5 0 001.28 0 16.65 16.65 0 002.44-.59 44.89 44.89 0 004.58-1.68c4-1.75 5.57-9.22 5.57-12.26 0-6.42-5.57-7.17-9.67-6.47a11.28 11.28 0 00-5.36 2.37c-2.38 1.94-3.49 5.79-3.31 6.26a6.25 6.25 0 01.51 1.79c0 1-.62 2.05-.59 2.61v.51c.11 4.25-.93 3.87-.52 5.55z"/><path d="M1171.83 406.66a3 3 0 00-3.63-.22" fill="#95abbd" opacity=".47"/><circle cx="1170.07" cy="408.46" r=".55" style="mix-blend-mode:multiply" fill="#014753"/><path class="cls-19" d="M1168.5 407.28a45.57 45.57 0 01-2.09 4.41c-.05.16 1.3.38 1.47.38a4.34 4.34 0 00.87-2 8.16 8.16 0 00-.25-2.79z"/><path class="cls-23" d="M1177.37 419.88c-.22.11 1.26 6.23-4.36 7.91l-1.35-8.3z"/><path class="cls-24" d="M1167.75 413.05s1.47.37 1.45.64c-.06.55-1.56.61-1.56.61z"/><path class="cls-25" d="M1167.21 417.68c.32 1.29 2.08 1.36 5 1.91h1.35a10.69 10.69 0 001.51-.17 2.6 2.6 0 00.92-.38c2-1.34 2.07-5.33 2.07-5.33l-10.3-1.73v.19c.08 4.21-.96 3.83-.55 5.51zM1166.32 419.28h.06c.06 0-.08-.02-.06 0z"/><path class="cls-26" d="M1178.2 404.56s-9.49.44-10.81-.77-5.4-8.16 1.65-8.16a17.2 17.2 0 0111.58 4.74z"/><path class="cls-27" d="M1183.54 423.49l-12.54 6.4-7.49 9.92-2 8.46h30.46l.68-10.15s-2.61-7.67-6.72-10.78z"/><path class="cls-3" d="M1183.82 422.89l-12.86 7.1 14.21-4.74-1.35-2.36z"/><path class="cls-26" d="M1170.56 400.88s6.1-7.88 15.13-2.5c5.5 3.27 3.06 11.47-3 18.46-.08.09-2.7-.52-3.43-1.74-.91-1.52-.85-6-.85-6l-3.17.67s-.82-3.5-1-4.1c-.66-2.6-3.68-4.79-3.68-4.79z"/><path class="cls-23" d="M1178.75 408s.21 2.29-.89 2.7a2.31 2.31 0 01-1.46 0s.38 3.36 2.22 2.61.13-5.31.13-5.31z"/><path class="cls-19" d="M1176.51 408.82s1-2.06 2-1.21a1.79 1.79 0 01-1.25 3c-1.09 0-1.2-.25-1.2-.25z"/><path class="cls-24" d="M1177.38 408.85a.4.4 0 01.71-.25v.08a.86.86 0 010 .28.82.82 0 01-.24.54.41.41 0 01-.55 0z"/><path class="cls-28" d="M1182.74 440.06s.34 4.36-2.47 6.87c-3.3 3-17.28 15.6-18.11 15.85-5.83 1.75-5.4-3.57-4.2-6s3.61-8.76 8.25-13.62c4.14-4.35 11.94-11.9 16.53-3.1z"/><path class="cls-19" d="M1160.26 461.81c-2.31.64-2.93-.78-2.93-.78-2.53-7.46-5.25-17.11-6.81-21.89a9.42 9.42 0 01-.2-1.87l3.16-1.81c15.42 20.92 9.09 25.72 6.78 26.35zM1151.13 429.67a11.4 11.4 0 00-.71-2.32 16.23 16.23 0 00-.06-2.06 15 15 0 01.72-1.43.86.86 0 00-.12-.93l-2.07 2.3-.17 2.38-.32 2.76a1.59 1.59 0 001.63.35 1.38 1.38 0 001.1-1.05z"/><path class="cls-19" d="M1154 430c.08.51 0 1.59.06 2 .15 1.62-.25 2.1-.43 5.25-.19 3.4-3 2.85-3.24 1.46-.07-.46-.06-1.09-.16-1.55a66.34 66.34 0 01-1.85-6.52s.34-1.1 1.2-1.24a1.47 1.47 0 011.61.62c.09.26.17.6.62.55.61-.2.8-.57.82-1.24-.09-1.45.31-2 .69-2-.03.47.53 1.83.68 2.67z"/><path class="cls-19" d="M1151.16 430.46a12.17 12.17 0 00-.23-2.42 16.89 16.89 0 00.36-2 13 13 0 011-1.25.88.88 0 00.06-.95l-2.49 1.85-.64 2.31-.86 2.64a1.43 1.43 0 001.4.77 2.29 2.29 0 001.4-.95zM1182.06 439.39s.34 4.35-2.46 6.87c-3.31 3-17.28 15.59-18.12 15.84-5.82 1.76-5.4-3.57-4.2-6s3.61-8.75 8.25-13.62c4.15-4.35 11.94-11.9 16.53-3.09z"/><path fill="#19b4d8" d="M1175.02 450.98l-10.16-9.48 10.16-7.78 7.11 2.03 1.69 6.43-8.8 8.8z"/><path class="cls-3" d="M1164.86 441.5l10.16 9.48-.68.68-10.15-9.48.67-.68z"/><path class="cls-30" d="M1245.88 407.75s1.53 7.26-2.67 10.81c-8.2 6.95-.69 14.4 6 12.7s4.59-15.67 4.59-15.67z"/><path d="M1247.47 409.66s.41 6.5-2.6 11c-3.65 5.52.25 11.13 3.41 10.8.62-.06 6.33-7.44 6.33-7.44s-5.67-14.4-7.14-14.36z" style="mix-blend-mode:multiply" fill="#f5b240"/><path class="cls-32" d="M1247.51 414.51l6.68-.21a20.29 20.29 0 013.52 12.38c0 .32-7.82 2.54-7.82 2.54z"/><path d="M1244.23 446.65s9-7.54 8.54-7.54-5.53-10.05-5.53-10.05" fill="url(#Horizontal_line_3)"/><path class="cls-32" d="M1256.74 430.45s.64 4.41-3.18 12.08-17.69 17.76-18.63 18c-6.55 1.94-6.72-3.33-5.35-6.05 1.15-2.28 4.2-7.34 12.4-17.4 3.79-4.61 10.29-10.99 14.76-6.63z"/><path fill="url(#Horizontal_line_3-3)" d="M1247.27 431.26l-6.32 6.49 11.41 10.61"/><path class="cls-35" d="M1265.79 443.5l-5.57 22.19-16.6.16-1.68-22.64 23.85.29z"/><path class="cls-32" d="M1260.85 465.69l-16.94-.24s-4.52 6.78 1 18.42c.59 1.26 3.4 12.93 3.4 12.93s13.81 4 20.08-.69c.62-.46 2.35-6.88 2.93-9 2.27-8.27-4.64-12.04-10.47-21.42z"/><path class="cls-35" d="M1246.54 447.51s-8.54.76-8.54-4.27c0-2.66.21-.85 7.26-10.88"/><path class="cls-32" d="M1239.91 447.16c-2.5-2.9-5.71-.23-5.71-.23-6.11 5.06-16.14 16.4-18.92 21.24a13.34 13.34 0 00-1.12 2.17 1.83 1.83 0 001.11 2.29c.82.28 3.22-1.66 3.22-1.66 28.51-18.92 23.18-21.77 21.42-23.81zM1211.43 479.1a13 13 0 01-1.81 2 17.42 17.42 0 01-1 2.07 15.68 15.68 0 00.07 1.79 1 1 0 01-.56.89l-1-3.31.94-2.51 1-3a1.81 1.81 0 011.83.4 1.55 1.55 0 01.53 1.67z"/><path class="cls-32" d="M1214.45 480.15c.32-.48.76-1.61 1-2 .92-1.58 1.61-5.4 2.07-6.22s1-1.91-.31-3c-1.46-1.22-2.35.65-2.35.65a11.38 11.38 0 01-.9 1.49c-.87 1.13-3.72 3.87-4.93 5.78a2.11 2.11 0 00.64 1.83 1.66 1.66 0 001.94.12c.21-.23.46-.53.88-.27a1.69 1.69 0 01.55 1.73c-.94 1.69-.88 1.8-.5 2.22a28.43 28.43 0 001.91-2.33z"/><path class="cls-32" d="M1211.83 478.31a14.9 14.9 0 01-1.36 2.36 18.75 18.75 0 01-.59 2.24 15.16 15.16 0 00.42 1.75 1 1 0 01-.37 1l-1.68-3 .43-2.65.35-3.1a1.62 1.62 0 011.79-.12 2.46 2.46 0 011.01 1.52zM1243.12 435.45c1.67-1.82 5.82-11.87 5.82-11.87l9.34-.44s5.91 5.83 6.75 10.47a34.18 34.18 0 01.12 9.64h-21.1s-1.05-7.72-.93-7.8z"/><path class="cls-36" d="M1260.75 425.89a11.14 11.14 0 01-7.71 3.57c-4.79.11-5.86-1.79-5.86-1.79l-1 2L1238 442s-1.71 3.94 4.27 5.55l1.35 18.3 16.6-.16s7.62-21.55 6.11-29.09-5.58-10.71-5.58-10.71"/><path class="cls-32" d="M1263.21 431s5.32 4.19 2.41 12.26c-1.69 4.7-8.16 23.7-8.88 24.36-5 4.6-7.5-.06-7.45-3.1 0-2.55.15-13.84 2.91-20.87 2.19-5.57 5.09-14.6 11.01-12.65z"/><path class="cls-32" d="M1257.73 463.18c1.59 3.5-2.18 5.29-2.18 5.29-7.15 3.42-21.66 7.76-27.22 8.25a13.66 13.66 0 01-2.44.11 1.83 1.83 0 01-1.61-2c.08-.87 2.85-2.23 2.85-2.23 29.13-17.87 29.49-11.87 30.6-9.42zM1216.79 475.63a12.87 12.87 0 00-2.61.79 16.51 16.51 0 00-2.31.06 16.71 16.71 0 01-1.59-.82 1 1 0 00-1 .13l2.58 2.34 2.66.19 3.09.37a1.8 1.8 0 00.41-1.83 1.55 1.55 0 00-1.23-1.23z"/><path class="cls-32" d="M1217.11 472.45c.57-.09 1.78 0 2.26-.06 1.81-.17 5.58.81 6.51.73s2.14-.07 2.57 1.53c.49 1.83-1.58 1.87-1.58 1.87a11.49 11.49 0 00-1.73.18c-1.39.32-5.07 1.75-7.32 2.05 0 0-1.23-.39-1.39-1.35a1.67 1.67 0 01.71-1.81c.29-.09.68-.19.62-.68a1.72 1.72 0 00-1.35-1.23c-1.93.14-2 0-2.22-.48a29.44 29.44 0 012.92-.75z"/><path class="cls-32" d="M1217.68 475.59a15 15 0 00-2.72.25 18.46 18.46 0 00-2.28-.4 14.47 14.47 0 01-1.41-1.12 1 1 0 00-1-.07l2.06 2.79 2.58.73 3 1a1.62 1.62 0 00.87-1.58 2.58 2.58 0 00-1.1-1.6z"/><path class="cls-36" d="M1264.4 449s6.45-17.45-2.09-18.46c-7.55-.89-11.55 15.07-11.55 15.07z"/><path class="cls-37" d="M1252.11 416.39c.32 1.54-.67 6.73-3.06 7.55l-1.44-8.47z"/><path class="cls-32" d="M1245 408c.11 1.68.13 3.05.12 4.17v.83c-.06 3.74-.21 4.25 2.92 4.78 1.74.29 6.33-2.26 6.71-2.89 1.35-2.29 3.26-5.53 3.26-7.94a7.19 7.19 0 00-7.3-7.46 6.32 6.32 0 00-5.31 3.83c-.74 2.22-.57 2.49-.4 4.68z"/><path d="M1248.45 407a1.74 1.74 0 00-.38-.23 2.69 2.69 0 00-.62-.16 5.36 5.36 0 00-2 .14c-.25.06-.36-.33-.11-.39a5.89 5.89 0 012.25-.14 2.2 2.2 0 011.17.5c.19.17-.09.46-.28.28z" style="mix-blend-mode:multiply" fill="#edb6ab"/><g class="cls-39"><circle class="cls-40" cx="1247.03" cy="408.12" r=".44"/></g><path class="cls-32" d="M1245.27 407.52c-.09.11-.76 1.49-1.18 2.06-.29.41 0 .45.45.57l.71.13c.47.04.02-2.76.02-2.76z"/><path class="cls-3" d="M1245.41 413a1.14 1.14 0 001-.77l-1-.09c.01.28 0 .57 0 .86z"/><path class="cls-30" d="M1252.18 401.49c-.12 0-.34 1.28-1.46 1.29-3.53 0-6.89-1-6-4.45.54-2 3-2.31 6.93-1.06 5.38 1.71 8.46 4.9 9.06 6.62 1.01 2.81-8.53-2.4-8.53-2.4z"/><path class="cls-30" d="M1249 400.15a9.38 9.38 0 001.35 5.69c.71 1.15 4.58 2.07 4.68 3.87 0 .88-1.31 2.27-1.4 3.41-.61 8.13-1.31 17.8 9.7 18.52 6.94.46 10.79-1.93 9.77-9.46-.34-2.55-3.67-5.29-9.14-6.1-1.22-.18-2.21-5.83-2.57-9.74a7.87 7.87 0 00-2.41-4.91s-6.98-3.23-9.98-1.28z"/><path class="cls-37" d="M1255.46 408.87c0 .15 1.33 4.54-1.71 5.6-.32.12-.22-3-.22-3z"/><path class="cls-32" d="M1253.33 409.3s1.19-1.43 1.92-.75-.59 3.26-1.41 3-.87-.73-.87-.73z"/><path d="M1253.88 409.42a.49.49 0 01.64.07.9.9 0 01.08.21.64.64 0 01-.09.47.32.32 0 01-.43.1" style="mix-blend-mode:multiply" fill="#f9cfc4"/><path d="M1008.91 408.17c-.7.9-1.53 1.68-2.3 2.51-1.24 1.33-5.07 4.26-5 7.77.07 5.79 4 6.85 6.67 7a5.91 5.91 0 002.21.1c1.11-.35 3.57-1.41 4.2-2.39 2.1-3.23-1-9.17 0-12.9.52-2 1.43-6.31-1.23-7.22a1.86 1.86 0 00-2.32.88c-.86 1.41-1.22 2.94-2.23 4.25z"/><path class="cls-42" d="M1009.91 410.15l6.81.12a20.67 20.67 0 013 12.77c0 .32-8.09 2.19-8.09 2.19z"/><path d="M1015.73 411.33c-.18.09-.21 5.67-4.89 6.83l-1-7.65z" style="mix-blend-mode:multiply" opacity=".64" fill="#947347"/><path class="cls-42" d="M1007.87 403.14c.37 1.47-.26 2.16-.31 3.12-.23 4.72-.82 6.45 2.69 7.22 1.76.38 6.56-2 7-2.61 1.49-2.26 3.59-5.46 3.71-7.91a7.32 7.32 0 00-7-8 6.44 6.44 0 00-5.59 3.64c-.9 2.28-1.01 2.45-.5 4.54z"/><path class="cls-44" d="M1011.12 402.82a1.89 1.89 0 00-1-.57 6.38 6.38 0 00-1.45-.05c-.26 0-.26-.39 0-.4a6 6 0 011.58.07 2.13 2.13 0 011.12.67c.18.18-.1.47-.28.28z"/><circle cx="1009.75" cy="403.63" r=".45"/><path class="cls-42" d="M1007.92 403.11a6.41 6.41 0 01-1 2.09c-.39.53.29 1.07.8 1.1h-.14c1.76-1.03.34-3.19.34-3.19z"/><path d="M1007.92 406.79a11.26 11.26 0 011.7 1.21c-.26 1-1.77 1-1.77 1s-1.37-.38-.47-1.14c.34-.29-.38-.86.54-1.07z" style="mix-blend-mode:multiply" fill="#573a22"/><path d="M1007.76 440.27s9-7.54 8.54-7.54-5.53-10-5.53-10" fill="url(#Horizontal_line_3-9)"/><path class="cls-42" d="M1020.27 424.07s.64 4.41-3.18 12.08-17.7 17.76-18.63 18c-6.55 1.94-6.72-3.33-5.35-6.05 1.15-2.27 4.19-7.34 12.39-17.4 3.79-4.61 10.3-10.99 14.77-6.63z"/><path fill="url(#Horizontal_line_3-11)" d="M1010.79 424.88l-6.31 6.49 11.41 10.61"/><path class="cls-35" d="M1029.32 437.12l-5.57 22.19-16.61.16-1.67-22.64 23.85.29z"/><path class="cls-42" d="M1024.38 459.31l-16.94-.24s-4.53 6.78 1 18.42c.6 1.26 3.4 12.93 3.4 12.93s13.82 4 20.08-.69c.62-.46 2.36-6.88 2.93-9 2.27-8.27-4.65-12.04-10.47-21.42z"/><path class="cls-35" d="M1010.06 441.13s-8.53.76-8.53-4.27c0-2.66.21-.85 7.25-10.88"/><path class="cls-42" d="M1003.43 440.78c-2.5-2.9-5.71-.23-5.71-.23-6.1 5.06-16.13 16.4-18.92 21.24a15.71 15.71 0 00-1.12 2.17 1.84 1.84 0 001.11 2.29c.83.29 3.23-1.65 3.23-1.65 28.47-18.93 23.17-21.78 21.41-23.82zM975 472.72a12.31 12.31 0 01-1.8 2 17.94 17.94 0 01-1 2.07 15.68 15.68 0 00.07 1.79 1 1 0 01-.56.89l-1-3.31.94-2.51 1-3a1.8 1.8 0 011.83.41 1.55 1.55 0 01.52 1.66z"/><path class="cls-42" d="M978 473.77c.33-.48.77-1.61 1-2 .91-1.58 1.61-5.4 2.07-6.22s1-1.91-.32-3c-1.45-1.21-2.35.65-2.35.65a14.11 14.11 0 01-.89 1.5c-.87 1.12-3.72 3.86-4.94 5.77a2.12 2.12 0 00.65 1.84 1.66 1.66 0 001.94.11c.2-.22.45-.53.88-.27a1.7 1.7 0 01.54 1.74c-.94 1.68-.87 1.79-.49 2.22.06-.11 1.4-1.59 1.91-2.34z"/><path class="cls-42" d="M975.36 471.93a14.42 14.42 0 01-1.37 2.36 15.47 15.47 0 01-.59 2.24 15.6 15.6 0 00.43 1.75 1 1 0 01-.38 1l-1.67-3 .42-2.65.35-3.1a1.63 1.63 0 011.8-.12 2.55 2.55 0 011.01 1.52zM1006.65 429.07c1.66-1.82 5.82-11.87 5.82-11.87l9.34-.44s5.9 5.83 6.75 10.47a34.41 34.41 0 01.11 9.64h-21.1s-1-7.72-.92-7.8z"/><path class="cls-3" d="M1024.27 419.51a11.13 11.13 0 01-7.7 3.57c-4.8.11-5.87-1.78-5.87-1.78l-1 2-8.17 12.32s-1.72 3.95 4.26 5.55l1.36 18.3 16.6-.16s7.62-21.55 6.11-29.09-5.59-10.71-5.59-10.71"/><path class="cls-42" d="M1026.73 424.65s5.32 4.19 2.42 12.25c-1.7 4.7-8.17 23.7-8.89 24.36-5 4.61-7.49-.06-7.45-3.1 0-2.55.15-13.84 2.91-20.87 2.2-5.59 5.09-14.62 11.01-12.64z"/><path class="cls-42" d="M1021.26 456.81c1.59 3.49-2.18 5.28-2.18 5.28-7.16 3.42-21.66 7.76-27.23 8.25a13.52 13.52 0 01-2.43.11 1.84 1.84 0 01-1.62-2c.09-.87 2.86-2.23 2.86-2.23 29.12-17.87 29.49-11.87 30.6-9.41zM980.31 469.25a12.85 12.85 0 00-2.6.79 16.48 16.48 0 00-2.31.06 16.38 16.38 0 01-1.6-.82 1 1 0 00-1 .14l2.57 2.33 2.67.2 3.09.37a1.81 1.81 0 00.4-1.84 1.54 1.54 0 00-1.22-1.23z"/><path class="cls-42" d="M980.64 466.07c.57-.09 1.78 0 2.25-.06 1.82-.17 5.58.81 6.52.73s2.14-.07 2.57 1.53c.49 1.84-1.58 1.87-1.58 1.87a11.19 11.19 0 00-1.73.18c-1.39.32-5.08 1.75-7.32 2.05 0 0-1.23-.39-1.39-1.35a1.66 1.66 0 01.71-1.81c.29-.09.67-.19.61-.68a1.7 1.7 0 00-1.34-1.23c-1.93.15-2 .05-2.23-.48a29.06 29.06 0 012.93-.75z"/><path class="cls-42" d="M981.21 469.21a16 16 0 00-2.72.25 18.73 18.73 0 00-2.29-.4 16.4 16.4 0 01-1.4-1.12 1 1 0 00-1-.07l2.06 2.79 2.58.73 3 1a1.63 1.63 0 00.87-1.57 2.62 2.62 0 00-1.1-1.61z"/><path class="cls-3" d="M1027.93 442.65s6.45-17.45-2.09-18.46c-7.55-.89-11.55 15.07-11.55 15.07z"/><path d="M1034.06 426.18c-1.77.55-3.68 0-5.42-.65a44 44 0 01-5.5-2.51 5.5 5.5 0 01-1.84-1.39 5.84 5.84 0 01-.88-2.56 5.27 5.27 0 01.22-3.58 3.33 3.33 0 012.55-1.49c3.47-.37 7.55 2.44 10.11 4.58 1.07.91 2.82 2.26 3.23 3.61.52 1.71-.87 3.49-2.47 3.99z"/><path d="M1036.12 412.18a4.63 4.63 0 012.52 1.72 4.17 4.17 0 01.39 2.1 4.06 4.06 0 01-.42 2.13 3.18 3.18 0 01-2.78 1.3c-2.87 0-5.24-2.11-7.86-3.27a26.06 26.06 0 01-3.45-1.54 3.69 3.69 0 01-1.9-3.07c.32-6.55 10.98-.34 13.5.63z"/><path d="M1019.31 404.36a4.63 4.63 0 004.21.84 10.4 10.4 0 005 6.92 5.27 5.27 0 002.29.9 5.37 5.37 0 002.09-.37c1.65-.56 3.33-1.48 4-3.08a3.79 3.79 0 00-3.1-5.27c-1-.11-2.08.21-3.1.05a5.26 5.26 0 01-2.75-1.62c-1.13-1.12-2.24-3.79-3.15-5.1-3.27-4.65-6.63-3.11-8.21-3-3.71.37.46 7.87 2.72 9.73z"/><path d="M1014.82 399.15c-.27 0-7 1.2-8.85-1.64-1.74-2.67.51-6.75 5.29-6.16 5.84.72 11.42 5.11 12 7.81.95 4.39-8.44-.01-8.44-.01z"/><path d="M1009.31 396.7s2.31 8.73 5.24 8.36 3.34-5.33 3.34-5.33z"/><path d="M1011.56 398s5.68 4.17 4 9.54c-3.1 9.76-.18 15.48 5 17.39s12.42 1.85 12.57 1.19-8.32-26.14-8.32-26.14z"/><path class="cls-42" d="M1014.76 405.07s1.17-1.4 1.81-.67-.23 3.25-1 2.92a5.94 5.94 0 01-1.24-.75z"/><path class="cls-44" d="M1015.56 405.14a.42.42 0 01.59.1.9.9 0 01.06.22.74.74 0 01-.1.47.3.3 0 01-.41.09"/><path class="cls-48" d="M1329.72 417.82l11.28.18s1.71 5.1 1.46 14.63c0 .39-9.73 3.16-9.73 3.16z"/><path class="cls-48" d="M1326.49 408.7a6.6 6.6 0 01.51 1.89c0 1-.62 2.16-.59 2.75.22 5-.93 4.52-.5 6.36.32 1.36 2.08 1.44 5 2 2.17.43 7.51-1.95 8.39-2.35 4.06-1.85 5.59-9.73 5.59-12.94 0-6.77-5.59-7.57-9.7-6.83a11.17 11.17 0 00-5.39 2.5c-2.37 2.06-3.5 6.12-3.31 6.62z"/><path d="M1330.54 408.74a3 3 0 00-3.64-.22"/><g class="cls-39"><circle class="cls-40" cx="1328.77" cy="410.56" r=".55"/></g><path class="cls-48" d="M1327.2 409.37a46.12 46.12 0 01-2.09 4.42c-.06.17 1.3.38 1.47.38s.62-4.8.62-4.8z"/><path class="cls-49" d="M1336.1 422c-.22.11 1.27 6.25-4.38 7.93l-1.35-8.32z"/><path class="cls-50" d="M1326.45 415.16s1.48.37 1.45.63c-.06.57-1.56.62-1.56.62z"/><path d="M1326.38 414s3.5.28 3.5 1.42c0 .08-3.43-.3-3.43-.3zM1326.26 405.33s4.64-12 17-5.31c5.64 3.07 3.49 11.7-1.32 19-.07.11-2.92.48-3.65-.74-.92-1.53-1.17-7-1.17-7l-3.19.66s-.37-3.94-1-4.11c-5.76-1.67-6.67-2.5-6.67-2.5z"/><path class="cls-49" d="M1337.49 410.12s.21 2.29-.89 2.71a2.37 2.37 0 01-1.48 0s.39 3.37 2.24 2.62.13-5.33.13-5.33z"/><path class="cls-48" d="M1335.24 410.92s1-2.07 2-1.23a1.79 1.79 0 01-1.25 3c-1.09 0-1.2-.25-1.2-.25z"/><path class="cls-50" d="M1336.11 411a.4.4 0 01.71-.26v.08a.54.54 0 010 .28.73.73 0 01-.24.54.41.41 0 01-.55 0z"/><path class="cls-48" d="M1322.19 442.68c2.23-3.93 9.77-12.78 9.77-12.78l10-1.67s7.19 5.1 9 13.6c.07.33-.62 9.26-.62 9.26h-30.25s2.04-8.3 2.1-8.41z"/><path class="cls-25" d="M1324.8 422.26h.06c.06 0-.08-.02-.06 0z"/><path d="M1342 426.48l-12.53 6.4-7.5 9.91-2 8.47h30.47l.67-10.16s-2.61-7.67-6.72-10.77z" fill="#1d6d75"/><path class="cls-2" d="M1342.3 425.87l-12.86 7.11 14.21-4.74-1.35-2.37z"/><path class="cls-28" d="M1341.22 443.05s.34 4.35-2.47 6.87c-3.3 3-17.28 15.59-18.11 15.84-5.83 1.76-5.4-3.57-4.2-6s3.61-8.76 8.25-13.63c4.15-4.34 11.94-11.89 16.53-3.08z"/><path class="cls-48" d="M1324 459c1.25 2 .06 3 .06 3-6.48 4.49-15 9.76-19.18 12.58-.78.53-1.23.43-1.73.7l-2.61-2.54c15.81-20.55 22.17-15.74 23.46-13.74z"/><path class="cls-24" d="M1295.57 476.63a11.16 11.16 0 00-2 1.32 16.54 16.54 0 00-2 .62 12.82 12.82 0 01-1.57-.3.88.88 0 00-.86.38l2.79 1.36 2.33-.5 2.74-.45a1.59 1.59 0 00-.11-1.67 1.37 1.37 0 00-1.32-.76z"/><path class="cls-48" d="M1295.05 473.83c.47-.23 1.52-.46 1.92-.62 1.52-.59 2.09-.34 5.16-1 3.33-.75 3.57 2.1 2.3 2.71-.42.21-1 .36-1.44.59a66.48 66.48 0 01-5.76 3.58s-1.15 0-1.53-.82a1.47 1.47 0 01.16-1.72c.22-.15.53-.33.36-.74a1.12 1.12 0 00-1.43-.45c-1.37.49-2 .24-2.06-.13.45-.16 1.6-1.08 2.32-1.4z"/><path class="cls-48" d="M1296.32 476.38a13 13 0 00-2.27.89 13.79 13.79 0 00-2 .22 14.27 14.27 0 01-1.48-.61.88.88 0 00-.93.19l2.46 1.89h2.4l2.78.11a1.45 1.45 0 00.35-1.57 2.27 2.27 0 00-1.31-1.12zM1340.54 442.37s.34 4.36-2.46 6.87c-3.31 3-17.28 15.59-18.12 15.84-5.82 1.76-5.4-3.57-4.2-6s3.61-8.76 8.25-13.63c4.15-4.34 11.99-11.89 16.53-3.08z"/><path class="cls-2" d="M1333.5 453.96l-10.15-9.47 10.15-7.79 7.11 2.03 1.69 6.43-8.8 8.8z"/><path fill="#005156" d="M1323.35 444.49l10.15 9.47-.68.68-10.15-9.48.68-.67z"/><path class="cls-53" d="M1106.72 451.23c-2.67-1.54-4.61 1.4-4.61 1.4-3.69 5.57-9 17.06-10.14 21.55a11.91 11.91 0 00-.39 2 1.39 1.39 0 001.42 1.45c.72 0 2.18-2.16 2.18-2.16 18.3-22.47 13.42-23.16 11.54-24.24z"/><path class="cls-54" d="M1103.61 424.54s6.81.08 6.64 9c-.08 4.23-1.28 21.19-1.69 21.88-2.92 4.83-5.79 1.5-6.39-1-.51-2.1-1.47-11.41-2.17-17.76-.42-3.86-1.36-12.51 3.61-12.12z"/><path class="cls-53" d="M1121.18 459.06l-19 .41s.94 9.9 1.58 13.64c.21 1.15 1.66 10 1.66 10s11 3.41 16-.58c.5-.39 1.13-2.92 1.59-4.69 1.85-7.04 2.81-10.84-1.83-18.78z"/><path class="cls-53" d="M1094.86 425.36l5.26-6.23s13.67 2.17 16.69 9.41c4.93 11.84 4.85 30.68 4.85 30.68l-19.35.25z"/><path class="cls-53" d="M1089.67 418.65l6.7-5s5.63 6.78 6.2 8.46c.11.31-7.61 3.78-7.61 3.78z"/><path class="cls-53" d="M1085.49 409.41c0 .51.48 1.2.41 1.49a5.77 5.77 0 00.14 2.43c1.06 4 .52 3.72 1.17 5.12.49 1 1.67 1.65 4 1.56 1.71-.07 5.08-3.8 5.67-4.28 2.74-2.26 2.5-8.91 1.92-11.5-1.2-5.46-5.57-5-8.55-3.67-4.46 2.05-4.88 6.94-4.76 8.85z"/><g class="cls-39"><path class="cls-53" d="M1088.28 408.83a2.21 2.21 0 00-2.36.34"/></g><ellipse class="cls-40" cx="1087.28" cy="411.4" rx=".43" ry=".46"/><path class="cls-53" d="M1086 409.77c-.91 2.43-1.11 3.28-.65 3.55a1.15 1.15 0 001.1 0c.3-.25-.45-3.59-.45-3.55z"/><path class="cls-55" d="M1093.8 418.88c-.13.07 1.16 3.41 0 5.54l-3.19-4.41z"/><path d="M1089.78 417.34c-1.6.43-2.33-2.21-2.18-2.6" style="mix-blend-mode:multiply" stroke="#cd904d" stroke-width="1.02" opacity=".67" stroke-miterlimit="10" fill="none"/><path class="cls-55" d="M1086.5 411.61a2.19 2.19 0 001.37 1.31c.61.18 1.86-.05 2-1"/><path class="cls-57" d="M1087.9 414.4c-.51-.48-1.29-1-1.92-.74v2.73l2.91-.26a4.35 4.35 0 00-.99-1.73z"/><path class="cls-2" d="M1100.61 419.19s14.34 2.36 17 9.39c.34.83 3.21 8.45 4 20.3s-.19 10.28-.19 10.28l-19.35.25-7.07-32.94s6.3-3.21 5.61-7.28z"/><path class="cls-54" d="M1109.2 424.34s5.36 4.2-.19 11.17c-2.63 3.31-13.89 16.05-14.64 16.35-5.25 2.07-5.51-2.32-4.46-4.68.87-2 5.77-10 9.07-15.43 2.02-3.3 6.51-10.75 10.22-7.41z"/><path class="cls-54" d="M1095.45 447.42c-1.18-2.84-4.51-1.69-4.51-1.69-6.32 2.19-17.56 8.06-21.15 11a11.72 11.72 0 00-1.52 1.33 1.41 1.41 0 00.25 2c.58.43 3-.39 3-.39 28.2-6.67 24.76-10.25 23.93-12.25z"/><path class="cls-53" d="M1063.61 463.89a10.42 10.42 0 01-2 1.05c-.19.06-.77.93-1.4 1.29a10.07 10.07 0 00-.45 1.36.82.82 0 01-.71.52l.11-2.76 1.46-1.64 1.61-2a1.55 1.55 0 011.35.79 1.15 1.15 0 01.03 1.39z"/><path class="cls-53" d="M1065.74 465.47c.39-.27 1.06-1 1.37-1.25 1.18-1 2.82-3.64 3.42-4.13s1.31-1.18.59-2.32c-.83-1.3-2.07-.13-2.07-.13a10.91 10.91 0 01-1.14.89c-1 .61-4.07 1.92-5.58 3a1.59 1.59 0 000 1.55 1.47 1.47 0 001.52.6c.23-.11.51-.28.78 0a1.32 1.32 0 01-.05 1.45c-1.23 1-1.21 1.11-1 1.54.06 0 1.56-.76 2.16-1.2z"/><path class="cls-53" d="M1064.16 463.4a12.47 12.47 0 01-1.76 1.41c-.17.1-.55 1.06-1.11 1.53a12.41 12.41 0 00-.15 1.42.81.81 0 01-.58.65l-.48-2.73 1.09-1.88 1.16-2.24a1.44 1.44 0 011.47.38 1.94 1.94 0 01.36 1.46z"/><path class="cls-58" d="M1109.24 424.34s5.35 4.2-.19 11.17c-2.63 3.31-13.89 16.05-14.64 16.35-5.25 2.07-5.51-2.32-4.47-4.68.88-2 5.77-10 9.08-15.43 1.98-3.3 6.5-10.75 10.22-7.41z"/><path class="cls-58" d="M1094.88 447.76c-1.18-2.85-4.51-1.69-4.51-1.69-6.32 2.19-17.56 8.05-21.16 11a12.24 12.24 0 00-1.51 1.33 1.39 1.39 0 00.25 2c.58.44 3-.38 3-.38 28.2-6.72 24.76-10.26 23.93-12.26z"/><path class="cls-53" d="M1091.44 483.65a10.94 10.94 0 01-1 2.06 14.38 14.38 0 01-.33 1.88 13.26 13.26 0 00.47 1.36.82.82 0 01-.24.84l-1.6-2.26.17-2.19.08-2.54a1.58 1.58 0 011.55-.2 1.17 1.17 0 01.9 1.05z"/><path class="cls-53" d="M1094.09 483.62c.15-.46.23-1.45.33-1.84.36-1.46 0-4.59.2-5.35s.33-1.73-.94-2.2c-1.44-.53-1.72 1.15-1.72 1.15a10.48 10.48 0 01-.36 1.4 62.08 62.08 0 00-2.59 5.81s.16 1 .93 1.22a1.48 1.48 0 001.58-.44c.11-.23.24-.54.63-.45a1.28 1.28 0 01.84 1.18c-.35 1.56-.28 1.62.13 1.84.03-.1.76-1.61.97-2.32z"/><path class="cls-53" d="M1091.58 482.93a12.55 12.55 0 01-.54 2.19 13.58 13.58 0 010 1.89 11.86 11.86 0 00.74 1.22.79.79 0 01-.07.86l-2-1.87-.28-2.15-.43-2.48a1.44 1.44 0 011.4-.6 1.94 1.94 0 011.18.94z"/><path class="cls-55" d="M1093.93 410.33s.57 1.81-.19 2.35a1.71 1.71 0 01-1.11.31s.9 2.65 2.16 1.69-.86-4.35-.86-4.35z"/><path class="cls-57" d="M1082.41 404.9a4.29 4.29 0 01-2.18-4 4.44 4.44 0 012.66-3.7 3.15 3.15 0 011.68-.27c1.3.19 2.24 1.36 3.45 1.86a2.44 2.44 0 012.43-1.14 3.6 3.6 0 012.34 1.48c.17.23.36.51.64.53a1.12 1.12 0 00.64-.22 3.12 3.12 0 013.26.73c1.78 1.52 4.06 2.43 2.83 7.16-.59 2.26-.82 3.83-1.53 6.05-2.07.74-4.76.47-4.34-2.41-.43.32-2-.4-2.41-.76s-.3-5.23-4-5.58c-1.97-.18-3.4 1.37-5.47.27z"/><path class="cls-53" d="M1092.37 411.39s.42-1.86 1.26-1.35.83 2.69 0 2.59a3.33 3.33 0 01-1.34-.43z"/><path class="cls-54" d="M1093 411.25c-.06-.3.28-.55.5-.34v.06a.57.57 0 01.07.22.66.66 0 01-.08.48.31.31 0 01-.42.1z"/><path class="cls-59" d="M916.85 465.46c-.58 2.76-4.35 2.67-4.35 2.67-7.47-2.66-15.93-6.24-20.68-8-.89-.33-1.08-.76-1.59-1l.53-3.62c26.1.87 26.58 7.6 26.09 9.95z"/><path d="M884.73 453.78a11.22 11.22 0 00-2.27-.89c-.21 0-.94-.92-1.67-1.23a15.6 15.6 0 01-.67-1.46.85.85 0 00-.81-.48l.52 3.06 1.78 1.62 2 2a1.62 1.62 0 001.3-1.07 1.39 1.39 0 00-.18-1.55z" style="mix-blend-mode:multiply" fill="#cd8f4d"/><path class="cls-59" d="M886.71 451.71c.46.25 1.27 1 1.63 1.21 1.38.89 1.51 1.5 3.88 3.6 2.57 2.27.39 4.14-.86 3.46-.41-.22-.9-.63-1.33-.83-1.15-.54-4.55-1.57-6.3-2.6a1.87 1.87 0 01-.23-1.72 1.49 1.49 0 011.5-.83c.26.09.58.24.81-.15a1.1 1.1 0 00-.47-1.42c-1.2-.83-1.34-1.46-1.1-1.76.36.24 1.76.64 2.47 1.04z"/><path class="cls-59" d="M885.38 454.25a12.88 12.88 0 00-2.06-1.33c-.2-.08-.74-1.1-1.38-1.55a12.22 12.22 0 01-.38-1.56.87.87 0 00-.7-.64l-.09 3.11 1.42 1.94 1.54 2.33a1.47 1.47 0 001.49-.63 2.29 2.29 0 00.16-1.67zM932.45 442.93s1 4.27-1.36 7.21c-2.81 3.47-13.56 18.25-17.62 17.81-6.08-.66-3.77-1.9-3-4.5s2.2-9.26 6-14.83c3.53-4.97 10.03-13.7 15.98-5.69z"/><path class="cls-53" d="M940.17 445.43s1.89 4.57-.24 8.26c-2.51 4.36-13.11 22.86-13.92 23.42-5.65 3.94-7.07-1.94-6.63-5s.81-10.7 4.09-17.57c2.93-6.11 8.67-16.98 16.7-9.11z"/><path class="cls-53" d="M939.71 454.22l-7.33 22.44-19.07.15-1.52-22.15 27.92-.44z"/><path class="cls-53" d="M935.08 484.84c.13.28 3.73 5.33 4.18 9.85S935 505.17 935 505.17l-18.35.19-2.17-12.71-1-16.25 18.9.26a65.45 65.45 0 002.7 8.18zM920.56 424.61l10.64.14s1.61 4.81 1.37 13.79c0 .37-9.16 3-9.16 3z"/><path class="cls-53" d="M913.66 447.29c2.11-3.72 9.25-12.09 9.25-12.09l9.46-1.57s6.81 4.82 8.51 12.86c.07.3-.59 8.74-.59 8.74H911.7s1.91-7.84 1.96-7.94zM917.52 416a6.14 6.14 0 01.48 1.79c0 1-.58 2-.56 2.59.21 4.73-.87 4.26-.46 6 .3 1.29 2 1.36 4.71 1.9 2 .41 7.08-1.84 7.9-2.22 3.83-1.73 5.27-9.16 5.27-12.19 0-6.38-5.26-7.13-9.14-6.44a10.51 10.51 0 00-5.07 2.37c-2.25 1.91-3.3 5.74-3.13 6.2z"/><path d="M921.34 416.05a2.8 2.8 0 00-3.43-.2"/><g class="cls-39"><circle class="cls-40" cx="919.67" cy="417.76" r=".52"/></g><path class="cls-53" d="M918.19 416.64a43 43 0 01-2 4.17c-.05.16 1.23.36 1.38.36s.62-4.53.62-4.53z"/><path class="cls-55" d="M926.58 428.55c-.21.11 1.19 5.89-4.12 7.48l-1.28-7.85z"/><path d="M920.14 410.59s5.77-7.45 14.31-2.36c5.19 3.09 2.89 10.84-2.87 17.45-.08.09-2.55-.5-3.24-1.65-.86-1.44-.8-5.64-.8-5.64l-3 .63s-.78-3.3-.92-3.87c-.62-2.49-3.48-4.56-3.48-4.56z"/><path class="cls-55" d="M927.89 417.35s.19 2.16-.84 2.56a2.22 2.22 0 01-1.39 0s.37 3.18 2.1 2.47.13-5.03.13-5.03z"/><path class="cls-53" d="M925.77 418.1s1-2 1.84-1.15a1.69 1.69 0 01-1.18 2.85c-1 0-1.13-.24-1.13-.24z"/><path class="cls-54" d="M926.59 418.13a.37.37 0 01.67-.24.59.59 0 010 .08.57.57 0 010 .26.7.7 0 01-.22.51.4.4 0 01-.52 0zM917.49 422.1s1.39.34 1.36.6c-.05.52-1.46.58-1.46.58z"/><path d="M913.46 410.76a2.22 2.22 0 012.4-2c.47.07.91.31 1.38.38a1 1 0 001.2-.56c.11-.39-.15-.79-.24-1.2a2.07 2.07 0 011.56-2.22c1-.29 2 .48 3 .43 3-.14 5.61-.87 9.07 1.44l-3.71 3c.22-.1.36.26.32.5a5.73 5.73 0 01-2.15 3.56 4.32 4.32 0 01-2 1.05c-4.93.86-1.25-4.27-5.68-2.77-1.29.73-2.06 1.33-3.2 1a2.64 2.64 0 01-1.95-2.61z"/><path class="cls-61" d="M933.18 433.81l-13.1 4.48-6.63 9-1.66 6.92 2.43 33.51 20.29-4.7-2.15-6.67 8.31-22.6s2-8.41-2-13.43a84.55 84.55 0 00-5.47-6.5"/><path fill="#ed6a5e" d="M933.52 433.67l-13.87 5.2"/><path class="cls-53" d="M896.84 462c29.58 0 24.73 7.49 24.26 10.18" opacity=".67"/><path class="cls-64" d="M890.17 472.6a2.56 2.56 0 001.25-.3 2.68 2.68 0 001.12-3.6l-10.27-19.55a2.66 2.66 0 00-4.72 2.47l10.27 19.56a2.67 2.67 0 002.35 1.42z"/><path d="M938.44 443.57c0 .66 3 6.23-2.38 18.47-5.66 12.75-22.15 18.46-22.15 18.46l-.46-5.54z" opacity=".12" fill="#022327"/><path class="cls-59" d="M922 473.6c-.55 3.15-4.83 3.17-4.83 3.17-8.55-2.74-18.26-6.49-23.7-8.3-1-.34-1.25-.82-1.84-1.08l.48-4.11c29.61.04 30.38 7.64 29.89 10.32zM885.23 461.5a13.36 13.36 0 00-2.6-.92c-.24 0-1.1-1-1.93-1.34a16.92 16.92 0 01-.82-1.63 1 1 0 00-.93-.52l.7 3.46 2.07 1.77 2.31 2.16a1.84 1.84 0 001.43-1.26 1.59 1.59 0 00-.23-1.72z"/><path class="cls-59" d="M887.41 459.09c.52.27 1.47 1.06 1.89 1.31 1.58 1 1.75 1.65 4.51 3.94 3 2.48.59 4.68-.85 4-.47-.23-1-.68-1.53-.89-1.33-.57-5.21-1.61-7.22-2.72a2.12 2.12 0 01-.33-1.94 1.71 1.71 0 011.67-1.06c.29.1.66.25.91-.19a1.27 1.27 0 00-.58-1.59c-1.39-.9-1.58-1.61-1.31-1.95.43.26 2.04.66 2.84 1.09z"/><path class="cls-59" d="M886 462a16.06 16.06 0 00-2.38-1.43c-.23-.08-.88-1.22-1.63-1.7-.1-.07-.23-1-.47-1.76a1 1 0 00-.82-.7V460l1.68 2.15 1.84 2.58a1.63 1.63 0 001.65-.77A2.63 2.63 0 00886 462zM936.61 445.45s1.68 4.68-.65 8.28c-2.74 4.26-13 22.23-17.67 22.23-6.93 0-4.47-1.68-3.88-4.71s1.34-10.7 5-17.44c3.22-6.02 9.52-16.66 17.2-8.36z"/><path class="cls-61" d="M918.54 454.8l12.94 7s12-16.31 5.45-19.63-14.76-3.63-18.39 12.63z"/><path class="cls-3" d="M931.91 460.42L918.82 454c-1.36-.67-2.56 1.38-1.19 2.05l13.09 6.47c1.36.67 2.56-1.38 1.19-2.05z"/><path class="cls-64" d="M934.56 435.53s-20.31 7-22 16.58c-1 5.32-.44 6.1-.44 6.1a32.83 32.83 0 0125.11-19.72"/><path class="cls-3" d="M932.16 431.19l-7.43 4.94-1.46 4.94 11.94-5.52-3.05-4.36zM920.99 435.79l-1 2.6 1.24 3.5 1.84-3.09-2.08-3.01z"/><path class="cls-27" d="M859.39 485.79c0 2.72.05 5.31.08 7.7.08 4.56.19 8.45.33 11.43a36.28 36.28 0 00.59 6.09c2.35 8 14.09 8 14.09 8h461.39a9.26 9.26 0 001.49-.11l45.6-6.53a10.82 10.82 0 009.21-10.77V384.38a10.82 10.82 0 00-9.84-10.85h-.82l-69.43-.32-30.71-.15c-17.82-.09-37-.17-57-.28l-173.93-.83-57-.27c-62.26-.29-107.91-.5-112.78-.5-11 0-16.41 5.74-18.76 9.51a10.87 10.87 0 00-1.62 5.53c0 .71 0 1.62-.06 2.7 5.73-.08 70.84-.6 70.84.41h-1.35l-.25 57.67c-26.93 5.09-43.75 37.09-70.07 38.79zm95.49-37.17l.33-58.47h139a5.15 5.15 0 001.63.25h125.86a5.27 5.27 0 001.65-.25h83.52a5.26 5.26 0 001.64.25h53.67a5.26 5.26 0 001.64-.25h12.7v58.47zm-69.43-53.85a11.48 11.48 0 00-11.35 11.53v10.75a11.48 11.48 0 0011.35 11.53z"/><rect class="cls-66" x="1197.66" y="465.82" width="61.32" height="13.5" rx="6.75" transform="rotate(-180 1228.325 472.565)"/><rect class="cls-66" x="1023.78" y="465.82" width="61.32" height="13.5" rx="6.75" transform="rotate(180 1054.445 472.565)"/><path class="cls-66" d="M1090.24 382v2.3a5.64 5.64 0 004 5.35 5.45 5.45 0 001.63.25h125.83a5.62 5.62 0 005.61-5.6V382a5.63 5.63 0 00-5.61-5.6h-125.86a5.63 5.63 0 00-5.6 5.6zM1302.9 382v2.3a5.62 5.62 0 004 5.35 5.57 5.57 0 001.64.25h53.67a5.57 5.57 0 001.64-.25 5.64 5.64 0 004-5.35V382a5.63 5.63 0 00-5.61-5.6h-53.67a5.63 5.63 0 00-5.67 5.6z"/><path class="cls-27" transform="rotate(-180 1252.885 370.085)" d="M1224.4 366.64h56.97v6.89h-56.97z"/><path class="cls-27" d="M1311.75 373.53h71.61v-7A8.44 8.44 0 001375 358h-48.6z"/><path class="cls-2" d="M1320.81 369.45h53V366a4.19 4.19 0 00-4.19-4.18h-41.49z"/><path class="cls-27" transform="rotate(-180 1021.99 370.085)" d="M993.5 366.64h56.97v6.89H993.5z"/><path class="cls-3" d="M1363.82 389.62h-57a5.57 5.57 0 001.64.25h53.67a5.57 5.57 0 001.69-.25zM1223.35 389.62h-129.14a5.45 5.45 0 001.63.25h125.86a5.58 5.58 0 001.65-.25z"/><path class="cls-67" d="M1019.65 516.57V496a19.12 19.12 0 00-19.12-19.12h-17.42A19.12 19.12 0 00964 496v20.58z"/><path class="cls-2" d="M966.31 505.24a25 25 0 1027.18-22.67 24.81 24.81 0 00-27.18 22.67z"/><path class="cls-2" d="M988.09 481.25a26.06 26.06 0 015.52-.08l.63.07-3 26.25z"/><path class="cls-2" d="M994.4 533.53a26.06 26.06 0 01-5.52.08l-.63-.07 3-26.25z"/><path class="cls-2" d="M965.1 510.55a26.82 26.82 0 01-.1-5.55c0-.21.05-.41.08-.62l26.24 3z"/><path class="cls-2" d="M1017.39 504.23a26.82 26.82 0 01.08 5.53c0 .21-.05.41-.08.62l-26.24-3z"/><path class="cls-2" d="M1007.5 486.67a27.12 27.12 0 014 3.85c.14.16.26.33.39.5l-20.68 16.43zM975 528.11a27.12 27.12 0 01-4-3.85c-.14-.16-.26-.33-.39-.5l20.68-16.43z"/><path class="cls-2" d="M970.53 491.14a26.21 26.21 0 013.85-4c.16-.13.33-.25.49-.39l16.44 20.68z"/><path class="cls-2" d="M1012 523.64a26.21 26.21 0 01-3.85 4c-.16.13-.33.25-.49.39l-16.44-20.68z"/><path class="cls-2" d="M998.58 482.1a26.67 26.67 0 015.11 2.09l.55.31-13 23zM983.91 532.68a26.67 26.67 0 01-5.11-2.09l-.55-.31 13-23z"/><path class="cls-2" d="M966 500.06a27 27 0 012.09-5.12c.1-.18.21-.36.32-.54l23 13zM1016.54 514.72a27 27 0 01-2.09 5.12c-.1.18-.21.36-.32.54l-23-13z"/><path class="cls-2" d="M1013.77 493.75a26.92 26.92 0 012.34 5c.07.19.13.4.19.6l-25.14 8.07z"/><path class="cls-2" d="M968.72 521a26.3 26.3 0 01-2.34-5c-.07-.2-.13-.4-.19-.6l25.14-8.07z"/><path class="cls-2" d="M977.6 484.87a26.33 26.33 0 015-2.35l.6-.19 8.08 25.15z"/><path class="cls-2" d="M1004.89 529.91a26.33 26.33 0 01-5 2.35l-.6.19-8.08-25.15z"/><g class="cls-68"><path class="cls-69" d="M969.19 519.15a24.94 24.94 0 1042.44-26l-13.46 8.23-15.54 9.53z"/></g><path class="cls-3" d="M976.75 506.18A14.55 14.55 0 10992.54 493a14.54 14.54 0 00-15.79 13.18z"/><path class="cls-2" d="M990.82 512.11a4.64 4.64 0 01-4.2-5 4.64 4.64 0 114.62 5.05zm-2.82-4.92a3.27 3.27 0 103.55-3h-.29a3.27 3.27 0 00-3.26 3z"/><path class="cls-2" transform="rotate(-180 1182.48 501.04)" d="M1177.79 499.09h9.39V503h-9.39z"/><path class="cls-2" transform="rotate(-180 1066.4 501.04)" d="M1061.71 499.09h9.39V503h-9.39z"/><path class="cls-2" transform="rotate(-180 888.77 501.04)" d="M884.07 499.09h9.39V503h-9.39z"/><path class="cls-2" d="M868.68 491.25s-.15 7.41-.93 8.52c-1.47 2.11-4.77 2.89-8.58 2.71v-11.23z"/><path class="cls-3" d="M874.1 405.5v10.57a11.38 11.38 0 0011.35 11.34v-33.25a11.38 11.38 0 00-11.35 11.34z"/><path class="cls-27" d="M874.1 406.3v10.75a11.48 11.48 0 0011.35 11.53v-33.81a11.48 11.48 0 00-11.35 11.53z"/><rect class="cls-2" x="1385.3" y="447.29" width="8.02" height="42.88" rx="1.36" transform="rotate(180 1389.31 468.73)"/><path class="cls-67" d="M1320 516.57V496a19.11 19.11 0 00-19.11-19.12h-17.42a19.12 19.12 0 00-19.13 19.12v20.58z"/><path class="cls-2" d="M1266.69 504.81a25 25 0 1027.17-22.67 24.81 24.81 0 00-27.17 22.67z"/><path class="cls-2" d="M1288.47 480.82a26 26 0 015.52-.08l.63.07-3 26.24z"/><path class="cls-2" d="M1294.78 533.1a26.06 26.06 0 01-5.52.08l-.63-.07 3-26.25z"/><path class="cls-2" d="M1265.48 510.11a26.71 26.71 0 01-.08-5.52c0-.21 0-.42.08-.62l26.24 3z"/><path class="cls-2" d="M1317.77 503.8a26.83 26.83 0 01.07 5.53c0 .21 0 .41-.07.62l-26.24-3z"/><path class="cls-2" d="M1307.88 486.24a27.12 27.12 0 014 3.85l.39.5-20.72 16.41z"/><path class="cls-2" d="M1275.37 527.68a26.63 26.63 0 01-4-3.85l-.39-.5 20.68-16.43z"/><path class="cls-2" d="M1270.91 490.71a26.21 26.21 0 013.85-4l.49-.39 16.44 20.68zM1312.34 523.21a25.69 25.69 0 01-3.85 4l-.49.4-16.44-20.68z"/><path class="cls-2" d="M1299 481.67a26.93 26.93 0 015.11 2.09l.55.31-13 23zM1284.29 532.25a26.67 26.67 0 01-5.11-2.09l-.55-.31 13-23z"/><path class="cls-2" d="M1266.33 499.63a26.75 26.75 0 012.09-5.12c.1-.18.21-.36.32-.54l23 13zM1316.91 514.29a25.44 25.44 0 01-2.09 5.11c-.1.19-.21.37-.31.55l-23-13z"/><path class="cls-2" d="M1314.14 493.31a26.92 26.92 0 012.35 5c.07.2.13.41.19.61l-25.15 8.08z"/><path class="cls-2" d="M1269.1 520.6a27 27 0 01-2.35-5c-.06-.2-.12-.4-.19-.6l25.15-8.07z"/><path class="cls-2" d="M1278 484.44a26.33 26.33 0 015-2.35l.6-.19 8.08 25.15z"/><path class="cls-2" d="M1305.27 529.48a26.33 26.33 0 01-5 2.35l-.6.19-8.08-25.15z"/><g class="cls-68"><path class="cls-69" d="M1269.57 518.72a24.94 24.94 0 1042.44-26l-13.46 8.28-15.55 9.48z"/></g><path class="cls-3" d="M1277.13 505.75a14.55 14.55 0 1015.79-13.18 14.54 14.54 0 00-15.79 13.18z"/><path class="cls-2" d="M1291.2 511.68a4.64 4.64 0 01-4.2-5 4.64 4.64 0 114.62 5.05zm-2.84-4.92a3.27 3.27 0 103.55-3h-.3a3.27 3.27 0 00-3.25 3z"/><path class="cls-18" d="M856.19 463.62l-27.12-24.12-36.93-15.07h-85.9l-19.59 15.07v15.83l93.44 10.55h47.47l28.63-2.26z"/><path class="cls-4" d="M777.13 485.38a1.28 1.28 0 01-1.28 1.29h-6.33a1.28 1.28 0 01-1.29-1.28 1.29 1.29 0 011.28-1.3h6.33a1.29 1.29 0 011.29 1.29z"/><path class="cls-70" d="M783.43 455.61s-1.39 3.36.17 6.06c1.85 3.2 9.62 16.77 10.22 17.18 4.14 2.89 5.18-1.42 4.86-3.65s-.59-7.84-3-12.88c-2.15-4.5-6.36-12.48-12.25-6.71z"/><path class="cls-70" d="M783.76 462.06l5.38 16.47 13.99.1 1.12-16.24-20.49-.33z"/><path class="cls-70" d="M787.17 484.52c-.1.21-2.75 3.91-3.07 7.23s3.11 7.69 3.11 7.69l13.46.14 1.59-9.32.76-11.93-13.87.19a49.13 49.13 0 01-1.98 6zM797.81 440.34l-7.8.11s-1.18 3.52-1 10.11c0 .27 6.72 2.18 6.72 2.18z"/><path class="cls-70" d="M802.87 457c-1.54-2.73-6.78-8.87-6.78-8.87l-6.94-1.13a17.13 17.13 0 00-6.24 9.43c0 .22.43 6.41.43 6.41h21s-1.42-5.79-1.47-5.84zM800 434a4.66 4.66 0 00-.35 1.31c0 .72.43 1.49.41 1.9-.15 3.47.64 3.13.34 4.39-.22.95-1.44 1-3.46 1.4-1.49.29-5.19-1.36-5.79-1.63-2.81-1.28-3.87-6.72-3.87-8.94 0-4.69 3.86-5.24 6.71-4.73a7.77 7.77 0 013.72 1.74A7.53 7.53 0 01800 434z"/><path d="M797.24 434.06a2.06 2.06 0 012.52-.15"/><g class="cls-39"><circle class="cls-4" cx="798.46" cy="435.32" r=".38"/></g><path class="cls-70" d="M799.55 434.49a29.92 29.92 0 001.45 3.06c0 .12-.9.27-1 .27s-.45-3.33-.45-3.33z"/><path class="cls-71" d="M793.4 443.23c.15.08-.88 4.32 3 5.48l.94-5.75z"/><path class="cls-72" d="M800.07 438.5s-1 .25-1 .44c0 .38 1.07.42 1.07.42z"/><path d="M803 430.18a1.64 1.64 0 00-1.77-1.49c-.35.05-.67.23-1 .28a.77.77 0 01-.88-.41c-.08-.29.11-.58.17-.88a1.51 1.51 0 00-1.14-1.63c-.7-.21-1.46.35-2.19.32-2.16-.11-4.12-.64-6.66 1.05l2.73 2.2c-.17-.07-.27.19-.24.37a4.2 4.2 0 001.58 2.61 3.09 3.09 0 001.46.77c3.62.63.92-3.13 4.17-2 .94.53 1.51 1 2.34.75a1.93 1.93 0 001.43-1.94z"/><path d="M798.12 430.06s-4.23-5.47-10.49-1.74c-3.81 2.27-2.13 8 2.1 12.8a3.78 3.78 0 002.38-1.21c.63-1.05.59-4.13.59-4.13l2.2.46.67-2.84a7.38 7.38 0 012.55-3.34z"/><path class="cls-71" d="M792.44 435s-.14 1.58.62 1.87a1.57 1.57 0 001 0s-.27 2.33-1.54 1.82-.08-3.69-.08-3.69z"/><path class="cls-70" d="M794 435.56s-.72-1.43-1.35-.84a1.24 1.24 0 00.87 2.09c.75 0 .83-.17.83-.17z"/><path class="cls-72" d="M793.39 435.58a.27.27 0 00-.49-.17.33.33 0 000 .06.58.58 0 000 .19.52.52 0 00.17.37.29.29 0 00.38 0z"/><path d="M788.56 447.09l10.18 3.73L803 457l1.22 5.08-1.78 24.58-14.89-3.45 1.57-4.89-6.09-16.58s-1.43-6.17 1.48-9.86a61.39 61.39 0 014-4.76" fill="url(#Unnamed_Pattern_23)"/><path stroke-width=".84" stroke="#fff" stroke-linecap="round" stroke-linejoin="round" fill="none" d="M788.31 446.98l10.83 4.07"/><path class="cls-75" d="M787.55 446.35s14.89 5.11 16.16 12.16c.71 3.9.33 4.48.33 4.48a24.11 24.11 0 00-18.43-14.47"/><path class="cls-76" d="M740.42 464.16s-6.35-5.29-6-5.29 3.89-7.07 3.89-7.07"/><path class="cls-77" d="M731.63 452.78s-.45 3.1 2.23 8.49S746.31 473.76 747 474c4.61 1.36 4.73-2.34 3.76-4.25-.8-1.6-3-5.16-8.71-12.23-2.71-3.33-7.28-7.81-10.42-4.74z"/><path fill="url(#Horizontal_line_5-3)" d="M738.29 453.34l4.44 4.57-8.02 7.46"/><path class="cls-77" d="M725.26 461.95l3.92 15.6 11.67.12 1.18-15.92-16.77.2z"/><path class="cls-77" d="M728.74 477.55l11.91-.17s3.18 4.77-.68 13c-.42.88-2.39 9.09-2.39 9.09s-9.72 2.82-14.12-.49c-.43-.32-1.65-4.83-2.06-6.29-1.62-5.89 3.24-8.54 7.34-15.14zM738.8 464.77s6 .53 6-3c0-1.87-.15-.6-5.11-7.65M747.07 474c1.78 2 4 .14 4 .14 4.26-3.59 11.25-11.62 13.18-15a10.09 10.09 0 00.78-1.53 1.3 1.3 0 00-.8-1.61c-.58-.19-2.26 1.18-2.26 1.18-19.89 13.41-16.15 15.38-14.9 16.82zM766.92 451.37a8.42 8.42 0 011.26-1.44 11.25 11.25 0 01.7-1.46 10.41 10.41 0 00-.06-1.26.68.68 0 01.39-.63l.75 2.32-.65 1.77-.66 2.08a1.27 1.27 0 01-1.29-.27 1.06 1.06 0 01-.44-1.11z"/><path class="cls-77" d="M764.79 450.65c-.23.34-.53 1.14-.7 1.43-.63 1.12-1.1 3.81-1.42 4.39a1.44 1.44 0 00.24 2.09c1 .84 1.65-.48 1.65-.48a7.86 7.86 0 01.62-1.05 53.29 53.29 0 003.43-4.09 1.49 1.49 0 00-.46-1.29 1.18 1.18 0 00-1.36-.07c-.15.16-.32.38-.62.2a1.2 1.2 0 01-.39-1.22c.65-1.19.6-1.26.33-1.56a20.89 20.89 0 00-1.32 1.65z"/><path class="cls-77" d="M766.63 451.93a11.61 11.61 0 011-1.67 12.38 12.38 0 01.41-1.58 12.27 12.27 0 00-.31-1.22.7.7 0 01.25-.7l1.2 2.13-.28 1.87-.24 2.18a1.13 1.13 0 01-1.26.09 1.81 1.81 0 01-.77-1.1zM741.21 456.29c-1.18-1.28-4.1-8.35-4.1-8.35l-6.56-.3s-4.16 4.09-4.75 7.36a23.87 23.87 0 00-.08 6.78h14.83s.71-5.43.66-5.49z"/><path class="cls-76" d="M728.81 449.57a7.86 7.86 0 005.42 2.51c3.37.07 4.12-1.26 4.12-1.26l.7 1.41 5.76 8.66s1.2 2.78-3 3.91l-.95 12.87-11.67-.12s-5.36-15.15-4.3-20.45 3.93-7.53 3.93-7.53"/><path class="cls-77" d="M727.08 453.18s-3.74 2.95-1.7 8.61c1.19 3.31 5.74 16.67 6.25 17.13 3.55 3.24 5.27 0 5.24-2.18 0-1.79-.11-9.72-2-14.67-1.59-3.93-3.62-10.28-7.79-8.89z"/><path class="cls-77" d="M730.93 475.79c-1.12 2.46 1.53 3.72 1.53 3.72 5 2.4 15.23 5.45 19.15 5.8a9.81 9.81 0 001.71.08 1.29 1.29 0 001.13-1.39c-.06-.61-2-1.57-2-1.57-20.45-12.58-20.74-8.36-21.52-6.64z"/><path d="M759.72 484.54a8.52 8.52 0 011.83.56 10.76 10.76 0 011.63 0 11.49 11.49 0 001.12-.58.68.68 0 01.73.1l-1.81 1.64-1.87.14-2.18.26a1.27 1.27 0 01-.28-1.29 1.09 1.09 0 01.83-.83z" style="mix-blend-mode:multiply" fill="#eacb92"/><path class="cls-77" d="M759.49 482.31c-.4-.07-1.25 0-1.58-.05-1.28-.11-3.93.57-4.58.52s-1.51 0-1.81 1.08 1.11 1.31 1.11 1.31a9 9 0 011.22.12 51.89 51.89 0 005.14 1.45s.87-.28 1-.95a1.19 1.19 0 00-.5-1.28c-.2-.06-.47-.13-.43-.48a1.2 1.2 0 011-.86c1.35.1 1.4 0 1.56-.34a20.31 20.31 0 00-2.13-.52z"/><path class="cls-77" d="M759.09 484.52a10.2 10.2 0 011.91.17 12.36 12.36 0 011.61-.28c.09 0 .53-.45 1-.79a.7.7 0 01.74-.05l-1.45 2-1.82.51-2.08.69a1.14 1.14 0 01-.61-1.11 1.83 1.83 0 01.7-1.14z"/><path class="cls-76" d="M726.24 465.84s-4.54-12.27 1.47-13c5.31-.62 8.12 10.6 8.12 10.6z"/><path class="cls-4" d="M736.05 429.16a5.15 5.15 0 014.22 4.34 135.46 135.46 0 011.21 13.91l-16-.13s-2-20.15 10.57-18.12z"/><path class="cls-77" d="M731.59 442.97l-1.41 6.01h7.07v-7.42l-5.66 1.41z"/><path class="cls-80" d="M732 443.21c.16.06 0 3.34 5.34 4l-.23-5.48z"/><path class="cls-77" d="M739.36 437.6c0 3.6-1.93 6.45-5.16 6.45s-5.1-2.95-5.1-6.56 1.9-6.49 5.1-6.49 5.16 3 5.16 6.6z"/><path class="cls-4" d="M730.53 436.91c.3-.39 2.1-.51 2.49 0M735.82 437c.59-.56 2.45-.39 2.75.12"/><g class="cls-39"><circle class="cls-4" cx="731.57" cy="437.88" r=".38"/></g><g class="cls-39"><circle class="cls-4" cx="736.98" cy="437.88" r=".38"/></g><path class="cls-3" d="M732.9 440.21h2.86a1.55 1.55 0 01-1.47 1.23 1.45 1.45 0 01-1.39-1.23z"/><rect class="cls-77" x="728.42" y="437.12" width="1.46" height="2.46" rx=".33"/><rect class="cls-77" x="738.35" y="437.12" width="1.46" height="2.46" rx=".33"/><path class="cls-4" d="M731.54 431.45s-.83 4.2-.48 4.32 4.56.12 4.56.12.84-4.44.72-4a32.12 32.12 0 00.36 4l1.68.36s1.07-6.95-2-6.83-4.6.36-4.84 2.03z"/><path class="cls-80" d="M734.72 436.92v1.91l-1.13.18s1 1 1.6.5.05-2.46-.47-2.59zM729.31 437.8c0 .05-.12 0-.19 0a.21.21 0 00-.19.11.9.9 0 00-.08.23 1.1 1.1 0 000 .36.39.39 0 00.17.3.7.7 0 00.29 0M739.11 437.8a.31.31 0 01.31.21.9.9 0 01.05.4.93.93 0 01-.06.34.3.3 0 01-.28.17.1.1 0 01-.08-.06"/><path class="cls-75" d="M729.61 448.54l-2 2.35s13.59 8.17 12.84 24.87l.55.28s4.2-19.26-11.36-27.5"/><path class="cls-4" d="M828.11 465.55a1.93 1.93 0 01-.92-.23 2 2 0 01-.82-2.63l7.54-14.35a2 2 0 113.45 1.82l-7.53 14.34a1.94 1.94 0 01-1.72 1.05z"/><path d="M784.69 454.25c0 .48-2.23 4.57 1.76 13.55 4.15 9.35 16.24 13.54 16.24 13.54l.34-4.06z" style="mix-blend-mode:multiply" fill="#054752"/><path class="cls-53" d="M804.13 469.35c.56 2.27 3.69 2.07 3.69 2.07 6.12-2.43 13-5.66 16.93-7.26.73-.3.88-.66 1.3-.88l-.56-3c-21.65 1.52-21.84 7.12-21.36 9.07zM830.45 458.65a9.47 9.47 0 011.86-.81c.17 0 .75-.8 1.34-1.08a10.58 10.58 0 00.52-1.23.72.72 0 01.66-.42l-.35 2.56-1.42 1.4-1.58 1.7a1.37 1.37 0 01-1.11-.85 1.16 1.16 0 01.08-1.27z"/><path class="cls-53" d="M828.74 457c-.38.23-1 .85-1.32 1.06-1.11.77-1.2 1.29-3.11 3.1-2.06 2-.19 3.46.83 2.86.33-.2.72-.56 1.07-.74a55.32 55.32 0 005.15-2.35 1.57 1.57 0 00.14-1.44 1.23 1.23 0 00-1.27-.68c-.21.08-.48.21-.68-.1a.91.91 0 01.35-1.19c1-.73 1.07-1.26.86-1.5-.29.24-1.46.62-2.02.98z"/><path class="cls-53" d="M829.92 459.06a10.68 10.68 0 011.67-1.17c.16-.07.58-.93 1.1-1.33a10.79 10.79 0 00.27-1.31.72.72 0 01.56-.55l.17 2.58-1.12 1.66-1.21 2a1.21 1.21 0 01-1.25-.48 1.91 1.91 0 01-.19-1.4zM785.64 457.12s.46 3.63 3.18 5.2c3.22 1.87 15.95 10.16 19 8.62 4.53-2.32 2.36-2.59 1-4.37s-4.45-6.55-9.07-9.74c-4.2-2.83-11.87-7.69-14.11.29z"/><path d="M800.56 457.2l-6.11 8.89s-13.28-6.65-10.12-11 8.43-7.3 16.23 2.11z" fill="url(#Unnamed_Pattern_23-3)"/><path class="cls-3" d="M795 466.56l6.34-8.63c.38-.52-.49-1-.87-.51l-6.34 8.63c-.38.52.49 1 .87.51z"/><path d="M778.07 460.71s-8.62 15.62-5.75 25.21c4 13.23 12.51 31.35 12.51 31.35" stroke="#000" stroke-width=".59" stroke-miterlimit="10" fill="none"/><path class="cls-2" d="M939.77 487.15c0-21.22-87-26.65-87-26.65l-189.66-.08-4.75-.15-2.47 47.14L667.5 518H933c4.16 0 7.32-3.38 6.59-7.06l-.8-4.09s.76-18.28 1-18.55c1.89-1.88-.02-.89-.02-1.15z"/><rect class="cls-27" x="720.66" y="471.03" width="13.87" height="3.38" rx="1.2"/><rect class="cls-27" x="785.55" y="471.03" width="13.87" height="3.38" rx="1.2"/><path class="cls-3" d="M921.33 479.13s1.16 12.17 5.36 12.17c8.91 0 14.46.26 14.46.26s.62-8.83-7.24-11.37a31.94 31.94 0 00-12.58-1.06z"/><path class="cls-84" d="M864.3 517.62H716.51l-3.57-13.99h156.5l-5.14 13.99z"/><path class="cls-2" d="M727.35 520H864.3v4.17H727.35zM665.47 520h13.24v4.17h-16.2V523a3 3 0 012.96-3zM911.03 520h27.9v4.17h-27.9z"/><path class="cls-3" d="M655.94 469.5h19s.28 13.29-10.7 15.25c-9.16 1.64-8.54.21-8.54.21z"/><rect class="cls-27" x="654.51" y="462.77" width="21.79" height="5.58" rx="1.99"/><path class="cls-2" d="M730.2 457.39c-.83-.07-5.65-.6-11.74-1.47l-1 5.31h59.33l-.14-.9c-15.89-.68-32.39-1.64-46.45-2.94zM783.25 460.63l.1.62h17.18c-5.53-.17-11.32-.38-17.28-.62z"/><path class="cls-2" d="M688.47 447.74c-.69-2.76 14.27-20.51 28-20.94.52 0 2 0 4.24-.05l.07-.38h3l-.06.35c11.63-.08 34.22-.18 47.77-.21v-.14H778v.13h.61c37.44 0 67.51 30.8 67.51 30.8s-2.27 2.52-3.48 4H860s-2.58-1.71-13.83-12.25c-8.7-8.16-34-26.87-65-26.87-22 0-87.36-.62-88.17-.62-9.12 0-11.08 3.67-9.61 9.57 1.72 6.87-23.88 27.19-25.09 30.12h56.21l1-5.74c-11.69-1.78-26.25-4.61-27.04-7.77z"/><path class="cls-2" d="M713.9 464.66h2.99l.61-3.42-2.98-.01-.62 3.43zM723.77 426.37h-3l-.07.38h3zM715.55 455.49l-1 5.74h3l1-5.31z"/><path class="cls-2" d="M720.72 426.75l-5.17 28.74 2.91.43 5.25-29.2zM777.32 464.39h6.51l-.48-3.14h-6.51l.48 3.14zM778 426.37h-6.51v.14H778zM776.7 460.35l.14.9h6.51l-.1-.62z"/><path class="cls-2" d="M771.48 426.51l5.22 33.84 6.55.28L778 426.5z"/><path class="cls-27" d="M931.46 495.89c-2.76 0-7.84 9.64-7.84 14.22s5.08 8.33 7.84 8.33h2.23a6.43 6.43 0 006.44-6.43v-8.16c0-1.15-.92-8-2.06-8zM654.62 488.21S671 485 678.7 494s10.75 23.87 10.75 23.87l-22.25.1c-6.08.06-12.65.07-12.65-12.34z"/><path class="cls-84" d="M939.62 495.1H923.9a1.4 1.4 0 01-1.4-1.4 1.4 1.4 0 011.4-1.39h15.72M839.28 453.86v19.83a6.79 6.79 0 006.76-6.77v-6.3a6.78 6.78 0 00-6.76-6.76z"/><rect class="cls-66" x="783.98" y="480.35" width="65.45" height="11.67" rx="4.15"/><rect class="cls-66" x="726.3" y="480.35" width="45.48" height="11.67" rx="4.15"/><path d="M657.06 473.13a4.39 4.39 0 110 8.77" opacity=".45" fill="#054752"/><path class="cls-3" d="M863.8 518.25a24.57 24.57 0 0149.13 0"/><path class="cls-2" d="M908.63 518.56a20.29 20.29 0 01-20.27 20.27 20.27 20.27 0 1120.27-20.27z"/><g class="cls-68"><path class="cls-69" d="M905.35 529.6a20.26 20.26 0 11-32.45-24.14l10.29 7.65 11.88 8.89z"/></g><path class="cls-3" d="M895.89 518.55a7.53 7.53 0 11-7.53-7.52 7.53 7.53 0 017.53 7.52zM678.21 518.25a24.57 24.57 0 0149.14 0"/><path class="cls-2" d="M723 518.56a20.26 20.26 0 11-20.27-20.27A20.11 20.11 0 01723 518.56z"/><g class="cls-68"><path class="cls-69" d="M719.77 529.6a20.27 20.27 0 11-32.46-24.14l10.3 7.65 11.88 8.89z"/></g><path class="cls-3" d="M710.3 518.55a7.53 7.53 0 11-7.53-7.52 7.52 7.52 0 017.53 7.52z"/><path class="cls-86" d="M633 430h59M621.5 442.5h59M1380.13 379.19h59M1380.5 445.5h59M1398.63 411.69h59"/><path class="cls-87" d="M108.64 829.67c0-144 116.75-260.78 260.78-260.78S630.2 685.64 630.2 829.67"/><path class="cls-87" d="M624.65 829.67c0-144 116.76-260.78 260.78-260.78s260.79 116.75 260.79 260.78M1151.67 829.67c0-144 116.75-260.78 260.78-260.78s260.78 116.75 260.78 260.78"/><path class="cls-87" d="M1668.74 829.67c0-144 118.8-260.78 260.78-260.78 144 0 260.78 116.75 260.78 260.78"/><path class="cls-88" d="M-136.29 492.96H2183"/><path class="cls-89" d="M65.83 541.15v-48.29M158.97 541.15v-48.29M252.11 541.15v-48.29M345.24 541.15v-48.29M438.38 541.15v-48.29M531.51 541.15v-48.29M624.65 541.15v-48.29M717.79 541.15v-48.29M810.92 541.15v-48.29M904.06 541.15v-48.29M997.2 541.15v-48.29M1090.33 541.15v-48.29M1183.47 541.15v-48.29M1276.61 541.15v-48.29M1369.74 541.15v-48.29M1462.88 541.15v-48.29M1556.02 541.15v-48.29M1649.15 541.15v-48.29M1742.29 541.15v-48.29M1835.43 541.15v-48.29M1928.56 541.15v-48.29"/><path class="cls-2" d="M-136.69 524.1H2183v42.01H-136.69z"/><path class="cls-2" d="M82.48 556.21v247.3l-29.33 20.61v45.98h110.97v-48.36l-33.29-22.19V556.21H82.48zM604.04 556.21v247.3l-29.33 20.61v45.98h110.97v-48.36l-33.29-22.19V556.21h-48.35zM1125.61 556.21v247.3l-29.33 20.61v45.98h110.97v-48.36l-33.29-22.19V556.21h-48.35zM1647.17 556.21v247.3l-29.33 20.61v45.98h110.97v-48.36l-33.29-22.19V556.21h-48.35z"/><path class="cls-90" d="M86.82 668.06c-2.44 0-4.84.11-7.22.32-6.66-50.08-53.71-88.88-110.77-88.88-46.6 0-86.52 25.88-103.22 62.65a65.27 65.27 0 00-40.11-13.71A65.55 65.55 0 00-240 694a65.58 65.58 0 0046 62.59 87 87 0 00-11.06 42.58 87.39 87.39 0 0087.4 87.39 87 87 0 0036.79-8.1c17.74 12 40.56 19.17 65.46 19.17 48.57 0 89.23-27.39 99.66-64.13h2.6a82.74 82.74 0 000-165.47zM373.13 797.22q-2.11 0-4.2.18c-3.87-29.13-31.24-51.7-64.44-51.7-27.11 0-50.33 15.06-60.05 36.44a38.14 38.14 0 10-34.69 66.58 50.85 50.85 0 0065.81 70.89 68.17 68.17 0 0038.08 11.16c28.26 0 51.91-15.94 58-37.31h1.51a48.13 48.13 0 100-96.26z"/><path class="cls-17" d="M1947.08 681.16v91.83"/><path class="cls-15" d="M2001.1 613.31c-.9 0-1.79.05-2.67.12-2.47-18.57-19.92-33-41.08-33-17.28 0-32.09 9.6-38.28 23.23a24.31 24.31 0 10-22.07 42.48 32.43 32.43 0 0042 45.2 43.44 43.44 0 0024.27 7.11c18 0 33.09-10.16 37-23.79h1a30.69 30.69 0 100-61.37z"/></g><g clip-path="url(#clip-path-2)"><path class="cls-12" d="M1866 107.28s33.32-15.38 54.48 0 120.52 247.4 369.79 398.66c0 0 166.32 104.79 256.05 118.89s155.11 64.09 235.86 56.4 144.21 14.1 177.54 14.1 345.46-9 345.46-9l221.76-7.05-794.75 103.86H1866.3z"/><path class="cls-9" d="M1850.27 716.48s251.89 36.54 759.5 28.85l-56.4 21.15-338.37 8.33-369.17-5.13z"/><path class="cls-11" d="M2825.13 736.35s-64.74-10.89-89.73-8.33-157.67 20.51-157.67 20.51-27.56 3.2-79.48 1.92c0 0-29.48 0-51.27 3.85s-139.08 13.46-165.36 12.82-424.94-5.77-424.94-5.77v21.79l387.12 25 481.34-19.87 112.8-28.84z"/><path class="cls-13" d="M2534.14 749.17s-10.89 2.56-7 6.41 14.1 5.77 9.62 9.61-18.59 7.7-50.64 9.62-216.63 5.77-216.63 5.77l-156.39 3.84-348-1.28v14.1l444.16-7.69 150.62-4.49 130.11-5.12s46.15-3.85 51.27-9 .65-10.89-1.92-12.18-9.61-2.56-9.61-4.48 4.41-5.11 4.41-5.11z"/><path class="cls-14" d="M3817.28 574.84s-702.46 117.93-957.54 150c0 0-142.93 21.79-167.93 36.53s116 3.84 116 3.84-161.51 17.95-330.08 26.28-612.08 0-612.08 0v10.9l582.6 23.07 1360-4.49z"/><path stroke-width="5" stroke-miterlimit="10" stroke="#054752" fill="none" d="M1899.31 560.5h1934.32"/><path class="cls-2" d="M1898.98 586.47h1934.64v35.04H1898.98z"/><path class="cls-88" d="M1862.6 729.7v260.78"/><path class="cls-90" d="M2085.39 706.53c-2 0-4 .1-6 .27-5.55-41.76-44.79-74.13-92.38-74.13-38.87 0-72.16 21.59-86.09 52.25a54.67 54.67 0 10-49.74 95.44A72.91 72.91 0 001945.51 882c14.8 10 33.83 16 54.6 16 40.51 0 74.42-22.85 83.12-53.49h2.16a69 69 0 000-138z"/></g></g></g></svg>
