<svg version="1.1" id="Calque_1" xmlns="http://www.w3.org/2000/svg" xmlns:xlink="http://www.w3.org/1999/xlink" x="0" y="0" viewBox="0 0 800 438" xml:space="preserve"><style>.st0{fill:none}.st1{fill:#054752}.st2{fill:#fff}.st3{fill:#004753}.st4{fill:#eae8f5}.st6{clip-path:url(#SVGID_3_);fill:#669aa2}.st8{fill:#91b7bc}.st12,.st8{clip-path:url(#SVGID_3_)}.st15{fill:#2e5862}.st17{fill:none;stroke:#054752;stroke-width:4;stroke-miterlimit:10}.st18{opacity:.4;fill:#fff}.st19{fill:#facca3}.st22{fill:#014753}.st23{opacity:.67;fill:#facca3}.st24{opacity:.47;fill:#95abbd}.st25{fill:#f5b240}.st26{fill:#2ed1ff}.st27{opacity:.3;fill:#8f4160}.st29{fill:#f1890e}.st30{fill:#f9cfc4}.st33{fill:#e9ca91}.st36{opacity:.69;fill:#f9cfc4}.st38{fill:#947347}.st43,.st44{fill:#ddb68d}.st44{opacity:.67}.st47,.st48{fill:#cd904d}.st48{opacity:.67}.st50{fill:#a9b7c0}.st51{fill:#01353a}.st52{fill:#cd8f4d}.st53{fill:#ff595a}.st56{fill:#022327}.st59,.st60{opacity:.45;fill:#fff}.st60{fill:#044752}.st61{opacity:.49}.st62{fill:#004553}.st64,.st65{fill:#ce914d}.st65{opacity:.67}.st68{fill:#033}.st70,.st74{fill:#eacb92}.st74{opacity:.59}.st77{opacity:.45;fill:#054752}.st304,.st79{fill:none;stroke-miterlimit:10}.st79{stroke-linecap:round;stroke-linejoin:round;stroke:#fff}.st304{stroke:#054752;stroke-width:5}</style><pattern x="-692.5" y="1685" width="50" height="50" patternUnits="userSpaceOnUse" id="Horizontal_line_3" viewBox="0 -50 50 50" overflow="visible"><path class="st0" d="M0-50h50V0H0z"/><path class="st1" d="M0-50h50v6.3H0z"/><path class="st2" d="M0-43.7h50v6.3H0z"/><path class="st1" d="M0-37.5h50v6.3H0z"/><path class="st2" d="M0-31.2h50v6.3H0z"/><path class="st1" d="M0-24.9h50v6.3H0z"/><path class="st2" d="M0-18.7h50v6.3H0z"/><path class="st1" d="M0-12.4h50v6.3H0z"/><path class="st2" d="M0-6.3h50V0H0z"/></pattern><pattern x="-692.5" y="1685" width="50" height="50" patternUnits="userSpaceOnUse" id="Horizontal_line_5" viewBox="0 -50 50 50" overflow="visible"><path class="st0" d="M0-50h50V0H0z"/><path class="st3" d="M0-50h50v6.3H0z"/><path class="st2" d="M0-43.7h50v6.3H0z"/><path class="st3" d="M0-37.5h50v6.3H0z"/><path class="st2" d="M0-31.2h50v6.3H0z"/><path class="st3" d="M0-24.9h50v6.3H0z"/><path class="st2" d="M0-18.7h50v6.3H0z"/><path class="st3" d="M0-12.4h50v6.3H0z"/><path class="st2" d="M0-6.3h50V0H0z"/></pattern><pattern x="-692.5" y="1685" width="50.9" height="47" patternUnits="userSpaceOnUse" id="Unnamed_Pattern_23" viewBox="50.9 -94.2 50.9 47" overflow="visible"><path class="st0" d="M50.9-94.2h50.9v47H50.9z"/><path class="st3" d="M101.7-47.5h50.9V0h-50.9z"/><path class="st3" d="M50.9-47.5h50.9V0H50.9zM0-47.5h50.9V0H0z"/><path class="st3" d="M101.7-94.6h50.9v47.5h-50.9z"/><path class="st3" d="M50.9-94.6h50.9v47.5H50.9z"/><path class="st4" d="M63.8-89.5H62v-4.6h1.8zM71.3-87.4l-1.5 1.1-2.7-3.8 1.5-1.1z"/><path transform="rotate(-78.854 66.658 -81.075)" class="st4" d="M65.8-83.4h1.8v4.7h-1.8z"/><path class="st4" d="M73.5-80.9l-1.3-1.2 2.9-3.6 1.4 1.2zM77.9-74.5l-1.8-.1.4-4.7 1.8.2zM67.8-73l.9-1.6 4.1 2.3-.9 1.6zM55.1-87.3l-1.5 1-2.7-3.8 1.5-1zM57.3-80.9l-1.4-1.2 3-3.5 1.4 1.1z"/><path transform="rotate(-5.228 60.95 -76.857) scale(.99996)" class="st4" d="M60.1-79.2h1.8v4.7h-1.8z"/><path transform="rotate(-29.07 54.054 -72.64)" class="st4" d="M51.7-73.5h4.7v1.8h-4.7z"/><g><path transform="rotate(-89.881 79.713 -91.834)" class="st4" d="M77.4-92.7h4.7v1.8h-4.7z"/><path class="st4" d="M88.1-87.4l-1.5 1.1-2.7-3.9 1.5-1z"/><path transform="rotate(-78.954 83.481 -81.089)" class="st4" d="M82.6-83.4h1.8v4.7h-1.8z"/><path class="st4" d="M90.4-81L89-82.1l3-3.6 1.4 1.2z"/><path transform="matrix(.9962 -.08667 .08667 .9962 7.02 7.859)" class="st4" d="M93.1-79.2h1.8v4.7h-1.8z"/><path transform="rotate(-28.955 87.124 -72.7)" class="st4" d="M84.8-73.6h4.7v1.8h-4.7z"/></g><g><path transform="rotate(-89.884 95.486 -91.856)" class="st4" d="M93.2-92.8h4.7v1.8h-4.7z"/><path transform="rotate(-78.89 99.255 -81.115)" class="st4" d="M98.4-83.4h1.8v4.7h-1.8z"/></g><g><path transform="rotate(-89.886 62.921 -68.221)" class="st4" d="M60.6-69.1h4.7v1.8h-4.7z"/><path class="st4" d="M71.3-63.8l-1.5 1.1-2.6-3.8 1.4-1.1z"/><path transform="rotate(-78.708 66.694 -57.488)" class="st4" d="M65.8-59.8h1.8v4.7h-1.8z"/><path transform="rotate(-40.111 74.37 -59.714)" class="st4" d="M73.5-62h1.8v4.7h-1.8z"/><path transform="rotate(-5.125 77.217 -53.29)" class="st4" d="M76.3-55.6h1.8v4.7h-1.8z"/><path class="st4" d="M67.9-49.4l.8-1.6 4.1 2.3-.9 1.5z"/></g><g><path class="st4" d="M55.1-63.7l-1.5 1-2.7-3.8 1.5-1z"/><path transform="rotate(-40.157 58.148 -59.694)" class="st4" d="M57.2-62H59v4.7h-1.8z"/><path transform="rotate(-4.963 60.992 -53.27) scale(1.00005)" class="st4" d="M60.1-55.6h1.8v4.7h-1.8z"/><path transform="rotate(-29.144 54.1 -49.056)" class="st4" d="M51.8-50h4.7v1.8h-4.7z"/></g><g><path class="st4" d="M80.7-65.9h-1.8l-.1-4.7h1.8z"/><path transform="rotate(-54.69 86.066 -65.173)" class="st4" d="M83.7-66.1h4.7v1.8h-4.7z"/><path class="st4" d="M81.4-56.2l-.3-1.7 4.5-.9.4 1.7z"/><path transform="rotate(-40.173 91.202 -59.74)" class="st4" d="M90.3-62.1h1.8v4.7h-1.8z"/><path transform="rotate(-5.065 94.044 -53.318)" class="st4" d="M93.1-55.6h1.8v4.7h-1.8z"/><path class="st4" d="M84.7-49.4l.9-1.6 4 2.2-.8 1.6z"/></g><g><path class="st4" d="M96.4-65.9h-1.8v-4.7h1.8zM97.2-56.2l-.4-1.8 4.6-.9.4 1.8z"/></g><g><path class="st3" d="M0-94.6h50.9v47.5H0z"/></g><g><path class="st3" d="M101.7-141.6h50.9v47.5h-50.9z"/></g><g><path class="st3" d="M50.9-141.6h50.9v47.5H50.9z"/></g><g><path class="st3" d="M0-141.6h50.9v47.5H0z"/></g></pattern><linearGradient id="SVGID_1_" gradientUnits="userSpaceOnUse" x1="401.315" y1="384.153" x2="400.02" y2="-4.67"><stop offset="0" stop-color="#fff"/><stop offset=".093" stop-color="#f7fdff"/><stop offset=".239" stop-color="#e0f8ff"/><stop offset=".419" stop-color="#bcf0ff"/><stop offset=".627" stop-color="#89e5ff"/><stop offset=".856" stop-color="#48d7ff"/><stop offset=".943" stop-color="#2ed1ff"/></linearGradient><path fill="url(#SVGID_1_)" d="M.5 0h800v279H.5z"/><g><defs><path id="SVGID_170_" d="M.5 66.5h800V438H.5z"/></defs><clipPath id="SVGID_3_"><use xlink:href="#SVGID_170_" overflow="visible"/></clipPath><path class="st6" d="M-66.7 177.1s55.1-2.6 100.6-18.6c0 0 44.2 14.1 69.2 18.6s74.3-2.6 89.7 5.1c0 0 32 19.9 50 21.8 17.9 1.9 43.6 3.2 60.2-5.8s19.9-3.2 27.6 0c7.7 3.2 17.3 11.5 41.7-5.8 24.4-17.3 34.6-23.1 46.1-19.2 11.5 3.8 34 22.4 97.4 39.1s101.9-13.5 101.9-13.5 7.7-8.3 28.2-8.3 84.6-2.6 84.6-2.6L411.4 400.2 3.2 259.1l-69.9-82z"/><path d="M1318.3-110.7S1250.4-8.8 1192-2.4c0 0-26.9 6.4-30.1 16-3.2 9.6-10.3 22.4-22.4 23.1-12.2.6-35.9 10.9-59.6 0s-50.6-10.3-70.5 5.1-109 73.1-151.9 91.7-61.5 5.8-61.5 5.8-289.7 180.1-421.1 242.3l132 93.6 706.9-46.8 142.9-41-38.4-498.1z" clip-path="url(#SVGID_3_)" fill="#a7c6ca"/><path class="st8" d="M-470.5-26.1s51.3-5.8 87.2 11.5 141 98.1 182 110.2 76.3 11.5 98.7 24.4 53.2 46.1 97.4 67.9 315.3 177.5 432 180.7L411.4 400l-418.5-8.3-318.5-205.1-144.9-212.7z"/><path d="M-610.5-200.7s33.3-15.4 54.5 0S-435.5 46.7-186.2 198c0 0 166.3 104.8 256.1 118.9C159.6 331 225 381 305.8 373.3c80.8-7.7 144.2 14.1 177.5 14.1s345.5-9 345.5-9l221.8-7.1-794.9 103.8h-865.9l-.3-675.8z" clip-path="url(#SVGID_3_)" fill="#bdd4d7"/><path class="st6" d="M-626.2 408.5s251.9 36.5 759.5 28.8l-56.4 21.2-338.4 8.3-369.2-5.1 4.5-53.2z"/><path class="st8" d="M348.6 428.4s-64.7-10.9-89.7-8.3c-25 2.6-157.7 20.5-157.7 20.5s-27.6 3.2-79.5 1.9c0 0-29.5 0-51.3 3.8-21.8 3.8-139.1 13.5-165.4 12.8-26.3-.6-424.9-5.8-424.9-5.8v21.8l387.1 25 481.3-19.9 112.8-28.8-12.7-23z"/><path d="M1340.8 266.8s-702.5 117.9-957.5 150c0 0-142.9 21.8-167.9 36.5s116 3.8 116 3.8-161.6 18-330.2 26.4-612.1 0-612.1 0v10.9l582.6 23.1 1360-4.5 9.1-246.2z" clip-path="url(#SVGID_3_)" fill="#538c94"/><path d="M796.3 443.7c0-4.3-4.5-7.8-10.1-7.8-1.5 0-2.9.2-4.2.7-2.5-2.8-6.1-4.5-10.1-4.5-5.4 0-10 3.1-12.2 7.7-.4-.1-.9-.1-1.3-.1-4.5 0-8.1 3.4-8.2 7.7h44.9c.8-1.2 1.2-2.4 1.2-3.7z" fill="#91b7bc"/><path d="M248.4 433.5c0-2.2-2.4-4.1-5.3-4.1-.8 0-1.5.1-2.2.4-1.3-1.4-3.2-2.4-5.3-2.4-2.8 0-5.2 1.6-6.4 4-.2 0-.5-.1-.7-.1-2.3 0-4.2 1.8-4.3 4h23.4c.6-.5.8-1.2.8-1.8z" fill="#d3e2e4"/><g class="st12"><path class="st17" d="M714.1 362.4v18.3"/><path class="st15" d="M724.8 348.9h-.5c-.5-3.7-4-6.6-8.2-6.6-3.4 0-6.4 1.9-7.6 4.6-.8-.6-1.8-1-3-1-2.7 0-4.8 2.2-4.8 4.8 0 2.2 1.4 4 3.4 4.6-.5.9-.8 2-.8 3.1 0 3.6 2.9 6.5 6.5 6.5 1 0 1.9-.2 2.7-.6 1.3.9 3 1.4 4.8 1.4 3.6 0 6.6-2 7.4-4.7h.2c3.4 0 6.1-2.7 6.1-6.1-.1-3.3-2.8-6-6.2-6z"/></g><g class="st12"><path class="st17" d="M756.4 354.7V373"/><path class="st15" d="M767.1 341.2h-.5c-.5-3.7-4-6.6-8.2-6.6-3.4 0-6.4 1.9-7.6 4.6-.8-.6-1.8-1-3-1-2.7 0-4.8 2.2-4.8 4.8 0 2.2 1.4 4 3.4 4.6-.5.9-.8 2-.8 3.1 0 3.6 2.9 6.5 6.5 6.5 1 0 1.9-.2 2.7-.6 1.3.9 3 1.4 4.8 1.4 3.6 0 6.6-2 7.4-4.7h.2c3.4 0 6.1-2.7 6.1-6.1-.1-3.2-2.8-6-6.2-6z"/></g><g class="st12"><path class="st17" d="M794.8 347v18.3"/><path class="st15" d="M805.6 333.5h-.5c-.5-3.7-4-6.6-8.2-6.6-3.4 0-6.4 1.9-7.6 4.6-.8-.6-1.8-1-3-1-2.7 0-4.8 2.2-4.8 4.8 0 2.2 1.4 4 3.4 4.6-.5.9-.8 2-.8 3.1 0 3.6 2.9 6.5 6.5 6.5 1 0 1.9-.2 2.7-.6 1.3.9 3 1.4 4.8 1.4 3.6 0 6.6-2 7.4-4.7h.2c3.4 0 6.1-2.7 6.1-6.1s-2.8-6-6.2-6z"/></g><g class="st12"><path class="st18" d="M261.2 253h425.6c3.3 0 6-2.7 6-6v-80.7c0-3.3-2.7-6-6-6H261.2c-3.3 0-6 2.7-6 6V247c0 3.4 2.7 6 6 6z"/><path class="st19" d="M514.3 187.6l9.4.1s1.4 4.2 1.2 12.2c0 .3-8.1 2.6-8.1 2.6l-2.5-14.9z"/><path class="st19" d="M508.2 207.6c1.9-3.3 8.2-10.7 8.2-10.7l8.3-1.4s6 4.3 7.5 11.3c.1.3-.5 7.7-.5 7.7h-25.2c0 .1 1.7-6.8 1.7-6.9zM511.1 189.2c.3 1.1 1.7 1.1 4.2 1.6H516.5c.6-.1 1.3-.2 2-.5 1.7-.5 3.4-1.2 3.8-1.4 3.4-1.5 4.6-7.7 4.6-10.2 0-5.4-4.6-6-8.1-5.4-1.9.3-3.3 1.1-4.5 2-2 1.6-2.9 4.8-2.8 5.2.2.5.4 1.1.4 1.5 0 .8-.5 1.7-.5 2.2v.4c.3 3.6-.6 3.2-.3 4.6z"/><path d="M515 180c-.2-.3-1.6-1.1-3-.2" fill="#95abbd" opacity=".47"/><circle class="st22" cx="513.5" cy="181.5" r=".5"/><path class="st19" d="M512.2 180.6c-.7 2-1.5 2.9-1.7 3.7 0 .1 1.1.3 1.2.3 0 0 .6-.8.7-1.7.2-1.1-.2-2.3-.2-2.3z"/><path class="st23" d="M519.6 191.1c-.2.1 1.1 5.2-3.6 6.6l-1.1-6.9 4.7.3z"/><path class="st19" d="M511.6 185.4s1.2.3 1.2.5c0 .5-1.3.5-1.3.5l.1-1z"/><path class="st24" d="M511.1 189.2c.3 1.1 1.7 1.1 4.2 1.6H516.5c.5 0 .9-.1 1.3-.1.3-.1.5-.2.8-.3 1.7-1.1 1.7-4.4 1.7-4.4l-8.6-1.4v.2c0 3.4-.9 3-.6 4.4zM510.4 190.6c0-.1 0 0 0 0z"/><path class="st25" d="M520.3 178.3s-7.9.4-9-.6c-1.1-1-4.5-6.8 1.4-6.8s9.7 4 9.7 4l-2.1 3.4z"/><path class="st26" d="M524.8 194.1l-10.5 5.3-6.3 8.3-1.7 7.1h25.4l.6-8.5s-2.2-6.4-5.6-9l-1.9-3.2z"/><path class="st2" d="M525 193.6l-10.7 5.9 11.8-3.9z"/><path class="st25" d="M513.9 175.2s5.1-6.6 12.6-2.1c4.6 2.7 2.6 9.6-2.5 15.4-.1.1-2.3-.4-2.9-1.5-.8-1.3-.7-5-.7-5l-2.6.6s-.7-2.9-.8-3.4c-.6-2.1-3.1-4-3.1-4z"/><path class="st23" d="M520.8 181.2s.2 1.9-.7 2.3c-.6.2-1.2 0-1.2 0s.3 2.8 1.9 2.2c1.4-.7 0-4.5 0-4.5z"/><path class="st19" d="M518.9 181.8s.9-1.7 1.6-1c.8.7.5 2.5-1 2.5-.9 0-1-.2-1-.2l.4-1.3z"/><path class="st19" d="M519.6 181.9c0-.3.4-.5.6-.2V182c0 .2-.1.3-.2.5-.1.1-.3.1-.5 0l.1-.6z"/><path class="st27" d="M524.1 207.9s.3 3.6-2.1 5.7c-2.8 2.5-14.4 13-15.1 13.2-4.9 1.5-4.5-3-3.5-5 1-1.9 3-7.3 6.9-11.4 3.5-3.5 10-9.8 13.8-2.5z"/><path class="st19" d="M505.3 226c-1.9.5-2.4-.6-2.4-.6-2.1-6.2-4.4-14.3-5.7-18.3-.2-.7-.1-1.1-.2-1.6l2.6-1.5c12.9 17.5 7.7 21.5 5.7 22zM497.7 199.2c0 .1-.3-1.3-.6-1.9-.1-.2.1-1.1 0-1.7 0-.1.3-.6.6-1.2.2-.4-.1-.8-.1-.8l-1.7 1.9-.1 2-.3 2.3s.4.5 1.4.3c.7-.2.8-.8.8-.9z"/><path class="st19" d="M500.1 199.5c.1.4 0 1.3 0 1.7.1 1.4-.2 1.8-.4 4.4-.2 2.8-2.5 2.4-2.7 1.2-.1-.4-.1-.9-.1-1.3-.2-1-1.3-3.8-1.5-5.4 0 0 .3-.9 1-1 .9-.2 1.3.5 1.3.5.1.2.1.5.5.5.5-.2.7-.5.7-1-.1-1.2.3-1.6.6-1.6 0 .2.5 1.3.6 2z"/><path class="st19" d="M497.8 199.9s0-1.4-.2-2c-.1-.2.3-1 .3-1.7 0-.1.5-.6.8-1 .3-.4.1-.8.1-.8l-2.1 1.5-.5 1.9-.7 2.2s.3.7 1.2.6c.5 0 1-.6 1.1-.7zM523.5 207.3s.3 3.6-2.1 5.7c-2.8 2.5-14.4 13-15.1 13.2-4.9 1.5-4.5-3-3.5-5 1-1.9 3-7.3 6.9-11.4 3.5-3.5 10-9.8 13.8-2.5z"/><path fill="#19b4d8" d="M517.6 217l-8.4-7.9 8.4-6.5 6 1.7 1.4 5.4z"/><path class="st2" d="M509.2 209.1l8.4 7.9-.5.6-8.5-7.9z"/><g><path class="st29" d="M576.7 181s1.3 6.1-2.2 9c-6.8 5.8-.6 12 5 10.6 5.5-1.4 3.8-13.1 3.8-13.1l-6.6-6.5z"/><path class="st25" d="M578.1 182.5s.3 5.4-2.2 9.2c-3 4.6.2 9.3 2.8 9 .5-.1 5.3-6.2 5.3-6.2s-4.7-12-5.9-12z"/><path class="st30" d="M578.1 186.6l5.6-.2s3.1 3.9 2.9 10.3c0 .3-6.5 2.1-6.5 2.1l-2-12.2z"/><pattern id="SVGID_4_" xlink:href="#Horizontal_line_3" patternTransform="matrix(-.9278 0 0 .9278 -10190.082 -1612.018)"/><path d="M575.4 213.4s7.5-6.3 7.1-6.3-4.6-8.4-4.6-8.4" fill="url(#SVGID_4_)"/><path class="st30" d="M585.8 199.9s.5 3.7-2.7 10.1c-3.2 6.5-14.8 14.8-15.5 15-5.5 1.6-5.6-2.8-4.5-5 1-1.9 3.5-6.1 10.3-14.5 3.3-3.9 8.7-9.3 12.4-5.6z"/><pattern id="SVGID_5_" xlink:href="#Horizontal_line_3" patternTransform="matrix(-.8316 .4114 .4114 .8316 -5924.622 312.66)"/><path fill="url(#SVGID_5_)" d="M577.9 200.6l-5.3 5.4 9.6 8.8"/><path class="st33" d="M593.4 210.8l-4.7 18.5-13.8.1-1.4-18.9z"/><path class="st30" d="M589.2 229.3l-14.1-.2s-3.8 5.7.8 15.4c.5 1.1 2.8 10.8 2.8 10.8s11.5 3.3 16.7-.6c.5-.4 2-5.7 2.4-7.5 2.1-7-3.7-10.1-8.6-17.9z"/><path class="st33" d="M577.3 214.1s-7.1.6-7.1-3.6c0-2.2.2-.7 6.1-9.1"/><path class="st30" d="M571.8 213.8c-2.1-2.4-4.8-.2-4.8-.2-5.1 4.2-13.5 13.7-15.8 17.7-.4.8-.7 1.2-.9 1.8 0 0-.4 1.4.9 1.9.7.2 2.7-1.4 2.7-1.4 23.8-15.7 19.3-18.1 17.9-19.8zM548 240.5c.1-.1-.9 1.2-1.5 1.7-.2.1-.4 1.2-.9 1.7-.1.1.1.8.1 1.5 0 .5-.5.7-.5.7l-.9-2.8.8-2.1.8-2.5s.7-.3 1.5.3c.8.7.6 1.4.6 1.5z"/><path class="st30" d="M550.5 241.3c.3-.4.6-1.3.8-1.7.8-1.3 1.3-4.5 1.7-5.2.4-.7.8-1.6-.3-2.5-1.2-1-2 .5-2 .5-.4.6-.5.9-.7 1.2-.7.9-3.1 3.2-4.1 4.8 0 0-.1 1.1.5 1.5.8.6 1.6.1 1.6.1.2-.2.4-.4.7-.2.4.4.6 1 .5 1.4-.8 1.4-.7 1.5-.4 1.9.2.1 1.3-1.1 1.7-1.8z"/><path class="st30" d="M548.4 239.8s-.6 1.4-1.1 2c-.1.1-.1 1.2-.5 1.9-.1.1.2.8.4 1.5.1.5-.3.8-.3.8l-1.4-2.5.4-2.2.3-2.6s.6-.6 1.5-.1c.4.2.7 1.1.7 1.2zM574.4 204.1c1.4-1.5 4.9-9.9 4.9-9.9l7.8-.4s4.9 4.9 5.6 8.7c.7 3.9.1 8 .1 8h-17.6l-.8-6.4z"/><pattern id="SVGID_6_" xlink:href="#Horizontal_line_3" patternTransform="translate(-1647.884 -5357.29) scale(.4523)"/><path d="M589.1 196.1s-2.4 2.9-6.4 3c-4 .1-4.9-1.5-4.9-1.5l-.8 1.7-6.8 10.3s-1.4 3.3 3.6 4.6c5 1.3 0 0 0 0l1.1 15.3 13.8-.1s6.4-18 5.1-24.3c-1.3-6.4-4.7-9-4.7-9" fill="url(#SVGID_6_)"/><g><path class="st30" d="M591.2 200.4s4.4 3.5 2 10.2c-1.4 3.9-6.8 19.8-7.4 20.3-4.2 3.8-6.3 0-6.2-2.6 0-2.1.1-11.5 2.4-17.4 1.8-4.6 4.3-12.2 9.2-10.5z"/></g><g><path class="st30" d="M586.6 227.2c1.3 2.9-1.8 4.4-1.8 4.4-6 2.8-18.1 6.5-22.7 6.9-.9.1-1.4.1-2 .1 0 0-1.5-.2-1.3-1.6.1-.7 2.4-1.9 2.4-1.9 24.2-15 24.5-10 25.4-7.9zM552.5 237.6c.1 0-1.5.3-2.2.7-.2.1-1.2-.1-1.9 0-.1 0-.7-.4-1.3-.7-.5-.2-.9.1-.9.1l2.1 1.9 2.2.2 2.6.3s.6-.5.3-1.5c-.1-.9-.9-1-.9-1z"/><path class="st30" d="M552.8 234.9c.5-.1 1.5 0 1.9-.1 1.5-.1 4.7.7 5.4.6.8-.1 1.8-.1 2.1 1.3.4 1.5-1.3 1.6-1.3 1.6-.7.1-1 .1-1.4.2-1.2.3-4.2 1.5-6.1 1.7 0 0-1-.3-1.2-1.1-.2-1 .6-1.5.6-1.5.2-.1.6-.2.5-.6-.2-.6-.7-1-1.1-1-1.6.1-1.7 0-1.9-.4.1-.1 1.7-.6 2.5-.7z"/><path class="st30" d="M553.2 237.5s-1.5 0-2.3.2c-.2.1-1.2-.4-1.9-.3-.1 0-.6-.5-1.2-.9-.4-.3-.9-.1-.9-.1l1.7 2.3 2.2.6 2.5.8s.8-.3.7-1.3c0-.6-.7-1.3-.8-1.3z"/></g><pattern id="SVGID_7_" xlink:href="#Horizontal_line_3" patternTransform="translate(-1647.884 -5357.29) scale(.4523)"/><path d="M592.2 215.4s5.4-14.6-1.7-15.4c-6.3-.7-9.6 12.6-9.6 12.6l11.3 2.8z" fill="url(#SVGID_7_)"/><path class="st36" d="M581.9 188.2c.3 1.3-.6 5.6-2.5 6.3l-1.2-7.1 3.7.8z"/><path class="st30" d="M576 181.1c.1 1.4.1 2.5.1 3.5v.7c0 3.1-.2 3.5 2.4 4 1.5.2 5.3-1.9 5.6-2.4 1.1-1.9 2.7-4.6 2.7-6.6 0-4.2-3.3-6.2-6.1-6.2-1.6 0-3.9 1.5-4.4 3.2-.6 1.8-.4 2-.3 3.8z"/><path d="M578.9 180.3c-.1-.1-.2-.1-.3-.2-.2-.1-.3-.1-.5-.1-.6-.1-1.1 0-1.7.1-.2 0-.3-.3-.1-.3.6-.1 1.2-.2 1.9-.1.3.1.7.2 1 .4.1.1-.2.3-.3.2z" fill="#edb6ab"/><g><circle class="st22" cx="577.7" cy="181.3" r=".4"/></g><path class="st30" d="M576.2 180.8c-.1.1-.6 1.2-1 1.7-.2.3 0 .4.4.5l.6.1c.4 0 0-2.3 0-2.3z"/><path class="st2" d="M576.4 185.3c.7 0 .9-.6.9-.6s-.4 0-.9-.1v.7z"/><path class="st29" d="M582 175.7c-.1 0-.3 1.1-1.2 1.1-2.9 0-5.7-.9-5-3.7.4-1.6 2.5-1.9 5.8-.9 4.5 1.4 7.1 4.1 7.6 5.5.8 2.4-7.2-2-7.2-2z"/><path class="st29" d="M579.4 174.6c-.1 0-.2 2.5 1.1 4.7.6 1 3.8 1.7 3.9 3.2 0 .7-1.1 1.9-1.2 2.8-.5 6.8-1.1 14.8 8.1 15.5 5.8.4 9-1.6 8.1-7.9-.3-2.1-3.1-4.4-7.6-5.1-1-.2-1.8-4.9-2.1-8.1-.2-2.6-2-4.1-2-4.1s-5.8-2.6-8.3-1z"/><path class="st36" d="M584.7 181.9c0 .1 1.1 3.8-1.4 4.7-.3.1-.2-2.5-.2-2.5l1.6-2.2z"/><g><path class="st30" d="M583 182.2s1-1.2 1.6-.6c.6.6-.5 2.7-1.2 2.5-.7-.2-.7-.6-.7-.6l.3-1.3z"/><path class="st30" d="M583.4 182.3c.2-.1.4-.1.5.1 0 .1.1.1.1.2s0 .3-.1.4c-.1.1-.2.2-.4.1"/></g></g><g><path d="M379.1 181.3c-.6.7-1.3 1.4-1.9 2.1-1 1.1-4.2 3.6-4.2 6.5.1 4.8 3.4 5.7 5.6 5.9.6 0 1.2.3 1.8.1.9-.3 3-1.2 3.5-2 1.8-2.7-.8-7.7 0-10.8.4-1.6 1.2-5.3-1-6-.8-.3-1.5 0-1.9.7-.7 1.1-1 2.4-1.9 3.5z"/><path class="st38" d="M379.9 183l5.7.1s3 4.2 2.5 10.6c0 .3-6.7 1.8-6.7 1.8l-1.5-12.5z"/><path d="M384.8 183.9c-.2.1-.2 4.7-4.1 5.7l-.8-6.4 4.9.7z" opacity=".64" fill="#947347"/><path class="st38" d="M378.2 177.1c.3 1.2-.2 1.8-.3 2.6-.2 3.9-.7 5.4 2.2 6 1.5.3 5.5-1.7 5.8-2.2 1.2-1.9 3-4.6 3.1-6.6.2-4.3-3-6.5-5.9-6.6-1.6-.1-4 1.3-4.7 3-.5 1.9-.6 2.1-.2 3.8z"/><path class="st38" d="M381 176.8c-.2-.2-.5-.4-.8-.5-.4-.1-.8-.1-1.2 0-.2 0-.2-.3 0-.3.4 0 .9 0 1.3.1s.7.3.9.6c.1.1-.1.3-.2.1z"/><circle cx="379.8" cy="177.5" r=".4"/><path class="st38" d="M378.3 177.1c-.1.1-.2.9-.8 1.7-.3.4.2.9.7.9h-.1c1.4-.8.2-2.6.2-2.6z"/><path d="M378.3 180.1s1.4.9 1.4 1c-.2.8-1.5.8-1.5.8s-1.1-.3-.4-1c.3-.1-.3-.6.5-.8z" fill="#573a22"/><pattern id="SVGID_8_" xlink:href="#Horizontal_line_3" patternTransform="matrix(-.9278 0 0 .9278 -10222.893 -1617.909)"/><path d="M378.1 208.1s7.5-6.3 7.1-6.3c-.4 0-4.6-8.4-4.6-8.4" fill="url(#SVGID_8_)"/><path class="st38" d="M388.6 194.6s.5 3.7-2.7 10.1c-3.2 6.5-14.8 14.8-15.5 15-5.5 1.6-5.6-2.8-4.5-5 1-1.9 3.5-6.1 10.3-14.5 3.2-4 8.7-9.3 12.4-5.6z"/><pattern id="SVGID_9_" xlink:href="#Horizontal_line_3" patternTransform="matrix(-.8316 .4114 .4114 .8316 -5935.533 307.647)"/><path fill="url(#SVGID_9_)" d="M380.7 195.2l-5.3 5.5 9.5 8.8"/><path class="st33" d="M396.1 205.4l-4.6 18.6-13.9.1-1.4-18.9z"/><path class="st38" d="M392 224l-14.1-.2s-3.8 5.7.8 15.4c.5 1.1 2.8 10.8 2.8 10.8s11.5 3.3 16.7-.6c.5-.4 2-5.7 2.4-7.5 2-7-3.7-10.1-8.6-17.9z"/><path class="st33" d="M380.1 208.8s-7.1.6-7.1-3.6c0-2.2.2-.7 6.1-9.1"/><path class="st38" d="M374.5 208.5c-2.1-2.4-4.8-.2-4.8-.2-5.1 4.2-13.5 13.7-15.8 17.7-.4.8-.7 1.2-.9 1.8 0 0-.4 1.4.9 1.9.7.2 2.7-1.4 2.7-1.4 23.8-15.7 19.4-18.1 17.9-19.8zM350.8 235.1c.1-.1-.9 1.2-1.5 1.7-.2.1-.4 1.2-.9 1.7-.1.1.1.8.1 1.5 0 .5-.5.7-.5.7l-.9-2.8.8-2.1.8-2.5s.7-.3 1.5.3c.8.8.6 1.5.6 1.5z"/><path class="st38" d="M353.3 236c.3-.4.6-1.3.8-1.7.8-1.3 1.3-4.5 1.7-5.2.4-.7.8-1.6-.3-2.5-1.2-1-2 .5-2 .5-.4.6-.5.9-.7 1.2-.7.9-3.1 3.2-4.1 4.8 0 0-.1 1.1.5 1.5.8.6 1.6.1 1.6.1.2-.2.4-.4.7-.2.4.4.6 1 .5 1.4-.8 1.4-.7 1.5-.4 1.9.2.1 1.3-1.2 1.7-1.8z"/><path class="st38" d="M351.1 234.5s-.6 1.4-1.1 2c-.1.1-.1 1.2-.5 1.9-.1.1.2.8.4 1.5.1.5-.3.8-.3.8l-1.4-2.5.4-2.2.3-2.6s.6-.6 1.5-.1c.5.2.7 1.1.7 1.2z"/><g><path class="st38" d="M377.2 198.7c1.4-1.5 4.9-9.9 4.9-9.9l7.8-.4s4.9 4.9 5.6 8.7c.7 3.9.1 8 .1 8H378c0 .1-.8-6.3-.8-6.4z"/></g><path class="st2" d="M391.9 190.8s-2.4 2.9-6.4 3-4.9-1.5-4.9-1.5l-.8 1.7-6.8 10.3s-1.4 3.3 3.6 4.6c5 1.3 0 0 0 0l1.1 15.3 13.8-.1s6.4-18 5.1-24.3c-1.3-6.4-4.7-9-4.7-9"/><g><path class="st38" d="M394 195s4.4 3.5 2 10.2c-1.4 3.9-6.8 19.8-7.4 20.3-4.2 3.8-6.3 0-6.2-2.6 0-2.1.1-11.5 2.4-17.4 1.8-4.6 4.2-12.1 9.2-10.5z"/></g><g><path class="st38" d="M389.4 221.9c1.3 2.9-1.8 4.4-1.8 4.4-6 2.8-18.1 6.5-22.7 6.9-.9.1-1.4.1-2 .1 0 0-1.5-.2-1.3-1.6.1-.7 2.4-1.9 2.4-1.9 24.2-15 24.5-10 25.4-7.9zM355.3 232.2c.1 0-1.5.3-2.2.7-.2.1-1.2-.1-1.9 0-.1 0-.7-.4-1.3-.7-.5-.2-.9.1-.9.1l2.1 1.9 2.2.2 2.6.3s.6-.5.3-1.5c-.2-.8-.9-1-.9-1z"/><path class="st38" d="M355.5 229.6c.5-.1 1.5 0 1.9-.1 1.5-.1 4.7.7 5.4.6.8-.1 1.8-.1 2.1 1.3.4 1.5-1.3 1.6-1.3 1.6-.7.1-1 .1-1.4.2-1.2.3-4.2 1.5-6.1 1.7 0 0-1-.3-1.2-1.1-.2-1 .6-1.5.6-1.5.2-.1.6-.2.5-.6-.2-.6-.7-1-1.1-1-1.6.1-1.7 0-1.9-.4.2-.1 1.8-.6 2.5-.7z"/><path class="st38" d="M356 232.2s-1.5 0-2.3.2c-.2.1-1.2-.4-1.9-.3-.1 0-.6-.5-1.2-.9-.4-.3-.9-.1-.9-.1l1.7 2.3 2.2.6 2.5.8s.8-.3.7-1.3c0-.6-.7-1.3-.8-1.3z"/></g><path class="st2" d="M395 210.1s5.4-14.6-1.7-15.4c-6.3-.7-9.6 12.6-9.6 12.6l11.3 2.8z"/><path d="M400.1 196.3c-1.5.5-3.1 0-4.5-.5-1.6-.6-3.1-1.3-4.6-2.1-.6-.3-1.1-.6-1.5-1.2-.5-.6-.6-1.4-.7-2.1-.2-1-.3-2.1.2-3 .4-.7 1.3-1.2 2.1-1.2 2.9-.3 6.3 2 8.4 3.8.9.8 2.4 1.9 2.7 3 .4 1.4-.8 2.9-2.1 3.3z"/><path d="M401.8 184.7c.8.3 1.7.7 2.1 1.4.3.5.3 1.1.3 1.8 0 .6 0 1.3-.4 1.8-.5.8-1.4 1.1-2.3 1.1-2.4 0-4.4-1.8-6.6-2.7-1-.4-2-.7-2.9-1.3-.9-.6-1.6-1.5-1.6-2.6.4-5.6 9.3-.4 11.4.5z"/><path d="M387.8 178.1c1 .8 2.3 1.1 3.5.7.4 2.4 2.1 4.5 4.1 5.8.6.4 1.2.7 1.9.7.6 0 1.2-.1 1.7-.3 1.4-.5 2.8-1.2 3.4-2.6.4-.9.3-2-.2-2.9-.5-.9-1.4-1.4-2.4-1.5-.9-.1-1.7.2-2.6 0-.9-.1-1.7-.7-2.3-1.3-.9-.9-1.9-3.2-2.6-4.3-2.7-3.9-5.5-2.6-6.8-2.5-3.1.4.4 6.7 2.3 8.2z"/><path d="M384 173.8c-.2 0-5.8 1-7.4-1.4-1.5-2.2.4-5.6 4.4-5.1 4.9.6 9.5 4.3 10 6.5.9 3.6-7 0-7 0z"/><path d="M379.4 171.7s1.9 7.3 4.4 7c2.4-.3 2.8-4.4 2.8-4.4l-7.2-2.6z"/><path d="M381.3 172.9s4.7 3.5 3.3 8c-2.6 8.1-.2 12.9 4.2 14.5s10.4 1.5 10.5 1c.1-.5-6.9-21.8-6.9-21.8l-11.1-1.7z"/><path class="st38" d="M384 178.7s1-1.2 1.5-.6-.2 2.7-.8 2.4c-.6-.3-1-.6-1-.6l.3-1.2z"/><path class="st38" d="M384.7 178.8c.2-.1.4-.1.5.1v.2c0 .1 0 .3-.1.4-.1.1-.2.2-.3.1"/></g><g><path class="st43" d="M646.7 189.4l9.4.1s1.4 4.3 1.2 12.2c0 .3-8.1 2.6-8.1 2.6l-2.5-14.9z"/><path class="st43" d="M644 181.7c.2.5.4 1.2.4 1.6 0 .9-.5 1.8-.5 2.3.2 4.2-.8 3.8-.4 5.3.3 1.1 1.7 1.2 4.2 1.7 1.8.4 6.3-1.6 7-2 3.4-1.5 4.7-8.1 4.7-10.8 0-5.7-4.7-6.3-8.1-5.7-1.9.3-3.4 1.1-4.5 2.1-2 1.7-3 5.1-2.8 5.5z"/><path d="M647.4 181.8c-.2-.3-1.6-1.1-3-.2"/><circle class="st22" cx="645.9" cy="183.3" r=".5"/><path class="st43" d="M644.6 182.3c-.7 2-1.5 2.9-1.7 3.7 0 .1 1.1.3 1.2.3l.5-4z"/><path class="st44" d="M652 192.8c-.2.1 1.1 5.2-3.6 6.6l-1.1-6.9 4.7.3z"/><path class="st43" d="M643.9 187.1s1.2.3 1.2.5c0 .5-1.3.5-1.3.5l.1-1z"/><path d="M643.9 186.2s2.9.2 2.9 1.2c0 .1-2.9-.3-2.9-.3v-.9zM643.8 178.9s3.9-10 14.2-4.4c4.7 2.6 2.9 9.8-1.1 15.8-.1.1-2.4.4-3-.6-.8-1.3-1-5.9-1-5.9l-2.7.6s-.3-3.3-.8-3.4c-4.9-1.4-5.6-2.1-5.6-2.1z"/><path class="st44" d="M653.2 182.9s.2 1.9-.7 2.3c-.6.2-1.2 0-1.2 0s.3 2.8 1.9 2.2 0-4.5 0-4.5z"/><path class="st43" d="M651.3 183.6s.9-1.7 1.6-1c.8.7.5 2.5-1 2.5-.9 0-1-.2-1-.2l.4-1.3z"/><path class="st43" d="M652 183.6c0-.3.4-.5.6-.2V183.7c0 .2-.1.3-.2.5s-.3.1-.5 0l.1-.6zM640.4 210.1c1.9-3.3 8.2-10.7 8.2-10.7l8.3-1.4s6 4.3 7.5 11.3c.1.3-.5 7.7-.5 7.7h-25.2c0 .1 1.6-6.8 1.7-6.9z"/><path class="st24" d="M642.6 193.1c0-.1-.1-.1 0 0z"/><path d="M656.9 196.6l-10.5 5.3-6.3 8.3-1.7 7.1h25.4l.6-8.5s-2.2-6.4-5.6-9l-1.9-3.2z" fill="#1d6d75"/><path class="st1" d="M657.2 196.1l-10.8 5.9 11.9-4z"/><g><path class="st27" d="M656.3 210.4s.3 3.6-2.1 5.7c-2.8 2.5-14.4 13-15.1 13.2-4.9 1.5-4.5-3-3.5-5 1-1.9 3-7.3 6.9-11.4 3.4-3.6 9.9-9.9 13.8-2.5z"/><path class="st43" d="M641.9 223.7c1 1.7 0 2.5 0 2.5-5.4 3.7-12.5 8.1-16 10.5-.7.4-1 .4-1.4.6l-2.2-2.1c13.2-17.2 18.5-13.2 19.6-11.5z"/><path class="st19" d="M618.2 238.4c.1-.1-1.2.6-1.7 1.1-.1.1-1.1.2-1.6.5-.1 0-.7-.2-1.3-.3-.5-.1-.7.3-.7.3l2.3 1.1 1.9-.4 2.3-.4s.4-.6-.1-1.4c-.4-.6-1.1-.5-1.1-.5z"/><path class="st43" d="M617.8 236.1c.4-.2 1.3-.4 1.6-.5 1.3-.5 1.7-.3 4.3-.9 2.8-.6 3 1.7 1.9 2.3-.3.2-.9.3-1.2.5-.9.5-3.3 2.3-4.8 3 0 0-1 0-1.3-.7-.5-.8.1-1.4.1-1.4.2-.1.4-.3.3-.6-.3-.4-.6-.5-1.2-.4-1.1.4-1.6.2-1.7-.1.4-.2 1.4-1 2-1.2z"/><path class="st43" d="M618.8 238.2s-1.3.4-1.9.7c-.1.1-1.1 0-1.7.2-.1 0-.7-.3-1.2-.5s-.8.2-.8.2l2.1 1.6h2l2.3.1s.6-.5.3-1.3c-.2-.6-1-1-1.1-1zM655.7 209.8s.3 3.6-2.1 5.7c-2.8 2.5-14.4 13-15.1 13.2-4.9 1.5-4.5-3-3.5-5 1-1.9 3-7.3 6.9-11.4 3.5-3.5 10-9.8 13.8-2.5z"/><path class="st1" d="M649.8 219.5l-8.4-7.9 8.4-6.5 6 1.7 1.4 5.4z"/><path fill="#005156" d="M641.4 211.6l8.4 7.9-.5.6-8.5-7.9z"/></g></g><g><path class="st47" d="M460.7 217.2c-2.2-1.3-3.8 1.2-3.8 1.2-3.1 4.7-7.5 14.2-8.5 18-.2.7-.3 1.2-.3 1.6 0 0 0 1.2 1.2 1.2.6 0 1.8-1.8 1.8-1.8 15.2-18.7 11.2-19.3 9.6-20.2z"/><path class="st47" d="M458.1 195s5.7.1 5.5 7.5c-.1 3.5-1.1 17.7-1.4 18.2-2.4 4-4.8 1.3-5.3-.8-.4-1.8-1.2-9.5-1.8-14.8-.4-3.3-1.2-10.5 3-10.1zM472.7 223.7l-15.8.3s.8 8.3 1.3 11.4c.2 1 1.4 8.4 1.4 8.4s9.2 2.8 13.3-.5c.4-.3.9-2.4 1.3-3.9 1.6-5.9 2.4-9-1.5-15.7z"/><path class="st47" d="M450.8 195.6l4.4-5.2s11.4 1.8 13.9 7.9c4.1 9.9 4 25.6 4 25.6l-16.1.2-6.2-28.5z"/><path class="st47" d="M446.5 190l5.6-4.2s4.7 5.7 5.2 7.1c.1.3-6.3 3.2-6.3 3.2l-4.5-6.1z"/><path class="st47" d="M443 182.3c0 .4.4 1 .3 1.2-.2.7 0 1.6.1 2 .9 3.3.4 3.1 1 4.3.4.9 1.4 1.4 3.3 1.3 1.4-.1 4.2-3.2 4.7-3.6 2.3-1.9 2.1-7.4 1.6-9.6-1-4.6-4.6-4.2-7.1-3.1-3.7 1.9-4 5.9-3.9 7.5zM445.3 181.9c-.2-.2-1-.4-2 .3"/><circle class="st22" cx="444.5" cy="184" r=".4"/><path class="st47" d="M443.4 182.6c-.8 2-.9 2.7-.5 3 0 0 .5.3.9 0 .2-.2-.4-3-.4-3z"/><path class="st48" d="M449.9 190.2c-.1.1 1 2.9 0 4.6l-2.7-3.7 2.7-.9z"/><path d="M446.6 189c-1.3.4-1.9-1.8-1.8-2.2" opacity=".67" fill="none" stroke="#cd904d" stroke-width="1.02" stroke-miterlimit="10"/><path class="st48" d="M443.8 184.2c.2.5.6.9 1.1 1.1.5.2 1.6 0 1.7-.9"/><path class="st50" d="M445 186.5c-.4-.4-1.1-.8-1.6-.6v2.3l2.4-.2c.1-.1-.4-1.1-.8-1.5z"/><path class="st1" d="M455.6 190.5s12 2 14.2 7.8c.3.7 2.7 7 3.4 16.9.7 9.9-.2 8.6-.2 8.6l-16.1.2-5.9-27.5c-.1.1 5.2-2.6 4.6-6z"/><path class="st47" d="M462.8 194.8s4.5 3.5-.2 9.3c-2.2 2.8-11.6 13.4-12.2 13.6-4.4 1.7-4.6-1.9-3.7-3.9.7-1.7 4.8-8.3 7.6-12.9 1.6-2.7 5.4-8.9 8.5-6.1z"/><path class="st47" d="M451.3 214c-1-2.4-3.8-1.4-3.8-1.4-5.3 1.8-14.6 6.7-17.6 9.1-.6.5-.9.7-1.3 1.1 0 0-.7 1 .2 1.7.5.4 2.5-.3 2.5-.3 23.5-5.5 20.7-8.5 20-10.2zM424.7 227.8c.1 0-1.1.7-1.7.9-.2 0-.6.8-1.2 1.1-.1 0-.2.6-.4 1.1-.1.4-.6.4-.6.4l.1-2.3 1.2-1.4 1.3-1.6s.6-.1 1.1.7c.6.5.3 1 .2 1.1z"/><path class="st47" d="M426.5 229.1c.3-.2.9-.8 1.1-1 1-.8 2.3-3 2.8-3.4.5-.4 1.1-1 .5-1.9-.7-1.1-1.7-.1-1.7-.1-.5.4-.6.6-.9.7-.8.5-3.4 1.6-4.7 2.5 0 0-.4.8 0 1.3.5.7 1.3.5 1.3.5.2-.1.4-.2.6 0 .2.4.2.9 0 1.2-1 .9-1 .9-.9 1.3.2-.1 1.4-.7 1.9-1.1z"/><path class="st47" d="M425.2 227.4s-.9.9-1.5 1.2c-.1.1-.5.9-.9 1.3-.1.1-.1.7-.1 1.2-.1.4-.5.5-.5.5l-.4-2.3.9-1.6 1-1.9s.7-.2 1.2.3c.4.4.3 1.2.3 1.3z"/><path class="st51" d="M462.8 194.8s4.5 3.5-.2 9.3c-2.2 2.8-11.6 13.4-12.2 13.6-4.4 1.7-4.6-1.9-3.7-3.9.7-1.7 4.8-8.3 7.6-12.9 1.6-2.7 5.4-8.9 8.5-6.1z"/><path class="st51" d="M450.8 214.3c-1-2.4-3.8-1.4-3.8-1.4-5.3 1.8-14.6 6.7-17.6 9.1-.6.5-.9.7-1.3 1.1 0 0-.7 1 .2 1.7.5.4 2.5-.3 2.5-.3 23.6-5.6 20.7-8.5 20-10.2z"/><path class="st47" d="M447.9 244.3c0-.1-.4 1.2-.8 1.7-.1.1 0 1-.3 1.6 0 .1.2.6.4 1.1.1.4-.2.7-.2.7l-1.3-1.9.1-1.8.1-2.1s.5-.4 1.3-.2c.7.2.8.8.7.9z"/><path class="st47" d="M450.2 244.2c.1-.4.2-1.2.3-1.5.3-1.2 0-3.8.2-4.5s.3-1.4-.8-1.8c-1.2-.4-1.4 1-1.4 1-.1.6-.2.8-.3 1.2-.4.9-1.7 3.3-2.2 4.8 0 0 .1.9.8 1 .8.3 1.3-.4 1.3-.4.1-.2.2-.4.5-.4.4.2.7.6.7 1-.3 1.3-.2 1.4.1 1.5 0 0 .6-1.3.8-1.9z"/><path class="st47" d="M448.1 243.7s-.2 1.2-.5 1.8c-.1.2.2 1 0 1.6 0 .1.4.6.6 1 .2.4-.1.7-.1.7l-1.7-1.6-.2-1.8-.4-2.1s.4-.6 1.2-.5c.6.1 1.1.8 1.1.9z"/><path class="st48" d="M450 183.1s.5 1.5-.2 2c-.4.3-.9.3-.9.3s.7 2.2 1.8 1.4c1.1-.9-.7-3.7-.7-3.7z"/><path class="st50" d="M440.4 178.6c-1.2-.6-1.9-2-1.8-3.3s1-2.6 2.2-3.1c.4-.2.9-.3 1.4-.2 1.1.2 1.9 1.1 2.9 1.5.4-.7 1.2-1 2-.9s1.5.6 2 1.2c.1.2.3.4.5.4s.4-.1.5-.2c.9-.4 2 0 2.7.6 1.5 1.3 3.4 2 2.4 6-.5 1.9-.7 3.2-1.3 5-1.7.6-4 .4-3.6-2-.4.3-1.7-.3-2-.6-.3-.3-.2-4.4-3.4-4.7-1.6-.1-2.8 1.2-4.5.3z"/><path class="st47" d="M448.7 184s.3-1.6 1-1.1c.7.4.7 2.2 0 2.2s-1.1-.4-1.1-.4l.1-.7z"/><path class="st47" d="M449.3 183.9c-.1-.3.2-.5.4-.3v.1c0 .1 0 .1.1.2 0 .1 0 .3-.1.4-.1.1-.2.2-.3.1l-.1-.5z"/></g><g><path class="st52" d="M302.3 229.1c-.5 2.3-3.6 2.2-3.6 2.2-6.2-2.2-13.3-5.2-17.2-6.7-.7-.3-.9-.6-1.3-.8l.4-3c21.7.7 22.1 6.3 21.7 8.3zM275.5 219.3c.1 0-1.2-.6-1.9-.7-.2 0-.8-.8-1.4-1-.1 0-.3-.7-.6-1.2-.2-.4-.7-.4-.7-.4l.4 2.6 1.5 1.3 1.6 1.6s.7 0 1.1-.9c.5-.7.1-1.2 0-1.3z"/><path class="st52" d="M277.2 217.6c.4.2 1.1.8 1.4 1 1.1.7 1.3 1.3 3.2 3 2.1 1.9.3 3.5-.7 2.9-.3-.2-.7-.5-1.1-.7-1-.5-3.8-1.3-5.3-2.2 0 0-.5-.8-.2-1.4.4-.9 1.3-.7 1.3-.7.2.1.5.2.7-.1.2-.5 0-.8-.4-1.2-1-.7-1.1-1.2-.9-1.5.2.3 1.4.6 2 .9z"/><path class="st52" d="M276.1 219.7s-1.1-.9-1.7-1.1c-.2-.1-.6-.9-1.2-1.3-.1-.1-.2-.7-.3-1.3-.1-.5-.6-.5-.6-.5l-.1 2.6 1.2 1.6 1.3 1.9s.7.2 1.2-.5c.4-.5.2-1.3.2-1.4zM315.3 210.3s.9 3.6-1.1 6c-2.3 2.9-11.3 15.2-14.7 14.9-5.1-.6-3.1-1.6-2.5-3.8.6-2.1 1.8-7.7 5-12.4 2.9-4.1 8.4-11.4 13.3-4.7z"/><path class="st47" d="M321.8 212.4s1.6 3.8-.2 6.9c-2.1 3.6-10.9 19.1-11.6 19.5-4.7 3.3-5.9-1.6-5.5-4.1.4-2.4.7-8.9 3.4-14.6 2.4-5.2 7.2-14.3 13.9-7.7z"/><path class="st47" d="M321.4 219.7l-6.1 18.7-15.9.1-1.3-18.4z"/><path class="st47" d="M317.5 245.2c.1.2 3.1 4.4 3.5 8.2.4 3.9-3.5 8.7-3.5 8.7l-15.3.2-1.8-10.6-.9-13.6 15.8.2c0 .1 1.2 4.7 2.2 6.9zM305.4 195l8.9.1s1.3 4 1.1 11.5c0 .3-7.6 2.5-7.6 2.5l-2.4-14.1z"/><path class="st47" d="M299.7 213.9c1.8-3.1 7.7-10.1 7.7-10.1l7.9-1.3s5.7 4 7.1 10.7c.1.3-.5 7.3-.5 7.3h-23.8c-.1.1 1.5-6.5 1.6-6.6zM302.9 187.8c.2.5.4 1.1.4 1.5 0 .8-.5 1.7-.5 2.2.2 3.9-.7 3.6-.4 5 .3 1.1 1.6 1.1 3.9 1.6 1.7.3 5.9-1.5 6.6-1.9 3.2-1.4 4.4-7.6 4.4-10.2 0-5.3-4.4-5.9-7.6-5.4-1.8.3-3.2 1.1-4.2 2-1.9 1.7-2.8 4.8-2.6 5.2z"/><path d="M306.1 187.9c-.2-.3-1.5-1.1-2.9-.2"/><circle class="st22" cx="304.7" cy="189.3" r=".4"/><path class="st47" d="M303.5 188.4c-.6 1.9-1.4 2.7-1.6 3.5 0 .1 1 .3 1.2.3-.1-.1.4-3.8.4-3.8z"/><path class="st48" d="M310.4 198.3c-.2.1 1 4.9-3.4 6.2l-1.1-6.5 4.5.3z"/><path d="M305.1 183.3s4.8-6.2 11.9-2c4.3 2.6 2.4 9-2.4 14.6-.1.1-2.1-.4-2.7-1.4-.7-1.2-.7-4.7-.7-4.7l-2.5.5s-.6-2.8-.8-3.2c-.4-2-2.8-3.8-2.8-3.8z"/><path class="st48" d="M311.5 189s.2 1.8-.7 2.1c-.6.2-1.2 0-1.2 0s.3 2.7 1.8 2.1c1.5-.6.1-4.2.1-4.2z"/><path class="st47" d="M309.8 189.6s.8-1.6 1.5-1 .4 2.4-1 2.4c-.9 0-.9-.2-.9-.2l.4-1.2z"/><path class="st47" d="M310.5 189.6c0-.3.4-.4.6-.2V189.7c0 .2-.1.3-.2.4s-.3.1-.4 0v-.5zM302.9 192.9s1.2.3 1.1.5c0 .4-1.2.5-1.2.5l.1-1z"/><path d="M299.5 183.5c.1-1 1-1.8 2-1.7.4.1.8.3 1.2.3s.9-.1 1-.5c.1-.3-.1-.7-.2-1-.2-.8.5-1.6 1.3-1.9.8-.2 1.7.4 2.5.4 2.5-.1 4.7-.7 7.6 1.2l-3.1 2.5c.2-.1.3.2.3.4-.2 1.2-.9 2.2-1.8 3-.5.4-1 .8-1.7.9-4.1.7-1-3.6-4.7-2.3-1.1.6-1.7 1.1-2.7.9-1-.3-1.8-1.3-1.7-2.2z"/><path class="st53" d="M316 202.7l-10.9 3.7-5.5 7.5-1.4 5.8 2 27.9 16.9-3.9-1.8-5.6 6.9-18.9s1.6-7-1.7-11.2-4.5-5.3-4.5-5.3"/><path fill="#ed6a5e" d="M316.2 202.6l-11.5 4.3"/><g opacity=".67"><path class="st47" d="M285.6 226.2c24.7 0 20.6 6.2 20.2 8.5"/></g><g><path class="st56" d="M280.1 235c.4 0 .7-.1 1-.3 1.1-.6 1.5-1.9.9-3l-8.6-16.3c-.6-1.1-1.9-1.5-3-.9s-1.5 1.9-.9 3l8.6 16.3c.4.8 1.2 1.2 2 1.2z"/><path d="M320.3 210.8c0 .6 2.5 5.2-2 15.4-4.7 10.6-18.5 15.4-18.5 15.4l-.4-4.6 20.9-26.2z" opacity=".12" fill="#022327"/><path class="st52" d="M306.6 235.9c-.5 2.6-4 2.6-4 2.6-7.1-2.3-15.2-5.4-19.8-6.9-.8-.3-1-.7-1.5-.9l.4-3.4c24.7 0 25.3 6.3 24.9 8.6zM276 225.8c.1 0-1.4-.7-2.2-.8-.2 0-.9-.8-1.6-1.1-.1 0-.4-.8-.7-1.4-.3-.5-.8-.4-.8-.4l.6 2.9 1.7 1.5 1.9 1.8s.8 0 1.2-1c.4-.9-.1-1.5-.1-1.5z"/><path class="st52" d="M277.8 223.8c.4.2 1.2.9 1.6 1.1 1.3.8 1.5 1.4 3.8 3.3 2.5 2.1.5 3.9-.7 3.3-.4-.2-.9-.6-1.3-.7-1.1-.5-4.3-1.3-6-2.3 0 0-.6-.9-.3-1.6.4-1 1.4-.9 1.4-.9.2.1.6.2.8-.2.2-.6 0-.9-.5-1.3-1.2-.8-1.3-1.3-1.1-1.6.3.2 1.6.5 2.3.9z"/><path class="st52" d="M276.6 226.2s-1.2-.9-2-1.2c-.2-.1-.7-1-1.4-1.4-.1-.1-.2-.8-.4-1.5-.2-.5-.7-.6-.7-.6v2.9l1.4 1.8 1.5 2.2s.8.2 1.4-.6c.5-.6.2-1.5.2-1.6zM318.8 212.4s1.4 3.9-.5 6.9c-2.3 3.5-10.9 18.5-14.7 18.5-5.8 0-3.7-1.4-3.2-3.9.5-2.4 1.1-8.9 4.1-14.5 2.7-5.1 7.9-13.9 14.3-7z"/><path class="st53" d="M303.7 220.2l10.8 5.8s10-13.6 4.6-16.4c-5.5-2.7-12.3-3-15.4 10.6z"/><g><path class="st2" d="M315 224.7c-3.6-1.8-7.3-3.6-10.9-5.4-.6-.3-1.3-.2-1.6.4-.3.5-.2 1.3.4 1.6 3.6 1.8 7.3 3.6 10.9 5.4.6.3 1.3.2 1.6-.4.3-.5.2-1.3-.4-1.6z"/></g></g><path class="st56" d="M317.1 204.1s-16.9 5.8-18.4 13.8c-.8 4.4-.4 5.1-.4 5.1s4.7-13.5 20.9-16.4"/><path class="st2" d="M315.1 200.5l-6.2 4.1-1.2 4.1 9.9-4.6zM305.8 204.3l-.8 2.2 1 2.9 1.5-2.6z"/></g><path class="st53" d="M254.4 246c0 2.3 0 4.4.1 6.4.1 3.8.2 7 .3 9.5.1 2.6.3 4.4.5 5.1 2 6.6 11.7 6.6 11.7 6.6h384.8c.4 0 .8 0 1.2-.1l38-5.4c4.4-.6 7.7-4.5 7.7-9v-97.7c0-4.8-3.6-8.7-8.2-9h-.7c-11.6-.1-32.1-.1-57.9-.3-8.1 0-16.6-.1-25.6-.1-14.9-.1-30.8-.1-47.5-.2-46.6-.2-98.4-.5-145.1-.7-16.7-.1-32.6-.2-47.5-.2-51.9-.2-90-.4-94.1-.4-9.2 0-13.7 4.8-15.7 7.9-.9 1.4-1.3 3-1.4 4.6v2.3c4.8-.1 59.1-.5 59.1.3H313l-.3 48.1c-22.3 4.2-36.3 30.9-58.3 32.3zm79.7-31l.3-48.8h115.9c.4.1.9.2 1.4.2h105c.5 0 .9-.1 1.4-.2h69.7c.4.1.9.2 1.4.2H674c.5 0 .9-.1 1.4-.2H686V215H334.1zm-58-44.9c-5.2 0-9.5 4.3-9.5 9.6v9c0 5.3 4.3 9.6 9.5 9.6v-28.2z"/><path class="st59" d="M539.3 240.6h45.5c1.5 0 2.8-1.3 2.8-2.8v-5.6c0-1.5-1.3-2.8-2.8-2.8h-45.5c-1.5 0-2.8 1.3-2.8 2.8v5.6c0 1.6 1.3 2.8 2.8 2.8zM394.3 240.6h45.5c1.5 0 2.8-1.3 2.8-2.8v-5.6c0-1.5-1.3-2.8-2.8-2.8h-45.5c-1.5 0-2.8 1.3-2.8 2.8v5.6c0 1.6 1.3 2.8 2.8 2.8zM446.9 159.5v1.9c0 2.1 1.4 3.9 3.3 4.5.4.1.9.2 1.4.2h105c.5 0 .9-.1 1.4-.2 1.9-.6 3.3-2.4 3.3-4.5v-1.9c0-2.6-2.1-4.7-4.7-4.7h-105c-2.6 0-4.7 2.1-4.7 4.7zM624.3 159.5v1.9c0 2.1 1.4 3.9 3.3 4.5.4.1.9.2 1.4.2h44.8c.5 0 .9-.1 1.4-.2 1.9-.6 3.3-2.4 3.3-4.5v-1.9c0-2.6-2.1-4.7-4.7-4.7H629c-2.6 0-4.7 2.1-4.7 4.7z"/><path transform="rotate(-180 582.589 149.54)" class="st53" d="M558.8 146.7h47.5v5.7h-47.5z"/><path class="st53" d="M631.7 152.4h59.7v-5.9c0-3.9-3.1-7.1-7-7.1h-40.5l-12.2 13z"/><path class="st1" d="M639.2 149h44.2v-2.9c0-1.9-1.6-3.5-3.5-3.5h-34.6l-6.1 6.4z"/><path transform="rotate(-180 390.02 149.54)" class="st53" d="M366.3 146.7h47.5v5.7h-47.5z"/><path class="st2" d="M675.1 165.8h-47.5c.4.1.9.2 1.4.2h44.8c.4 0 .9 0 1.3-.2zM558 165.8H450.3c.4.1.9.2 1.4.2h105c.4 0 .8 0 1.3-.2z"/><path class="st60" d="M388.1 271.7v-17.2c0-8.8-7.1-15.9-15.9-15.9h-14.5c-8.8 0-15.9 7.1-15.9 15.9v17.2h46.3z"/><g><path class="st1" d="M343.6 262.3c-.4 4.2.5 8.2 2.3 11.6 3.2 6 9.3 10.4 16.6 11 11.5 1 21.6-7.4 22.7-18.9.5-5.1-1-10-3.7-13.9-3.4-4.8-8.8-8.2-15.2-8.8-11.5-1-21.7 7.5-22.7 19z"/><path class="st1" d="M361.7 242.2c1.5-.2 3-.2 4.6-.1.2 0 .3 0 .5.1l-2.5 21.9-2.6-21.9zM367 285.9c-1.5.2-3 .2-4.6.1-.2 0-.3 0-.5-.1l2.5-21.9 2.6 21.9z"/><path class="st1" d="M342.6 266.7c-.2-1.5-.2-3-.1-4.6 0-.2 0-.3.1-.5l21.9 2.5-21.9 2.6zM386.2 261.4c.2 1.5.2 3 .1 4.6 0 .2 0 .3-.1.5l-21.9-2.5 21.9-2.6z"/><g><path class="st1" d="M377.9 246.8c1.2.9 2.3 2 3.3 3.2.1.1.2.3.3.4l-17.2 13.7 13.6-17.3z"/><path class="st1" d="M350.8 281.3c-1.2-.9-2.3-2-3.3-3.2-.1-.1-.2-.3-.3-.4l17.2-13.7-13.6 17.3z"/><g><path class="st1" d="M347.1 250.5c.9-1.2 2-2.3 3.2-3.3.1-.1.3-.2.4-.3l13.7 17.2-17.3-13.6z"/><path class="st1" d="M381.7 277.6c-.9 1.2-2 2.3-3.2 3.3-.1.1-.3.2-.4.3L364.3 264l17.4 13.6z"/></g></g><g><path class="st1" d="M370.5 243c1.5.4 2.9 1 4.3 1.7.2.1.3.2.5.3l-10.9 19.2 6.1-21.2zM358.3 285.1c-1.5-.4-2.9-1-4.3-1.7-.2-.1-.3-.2-.5-.3l10.9-19.2-6.1 21.2z"/><g><path class="st1" d="M343.3 257.9c.4-1.5 1-2.9 1.7-4.3.1-.2.2-.3.3-.5l19.2 10.9-21.2-6.1zM385.5 270.2c-.4 1.5-1 2.9-1.7 4.3-.1.2-.2.3-.3.5l-19.2-11 21.2 6.2z"/></g></g><g><path class="st1" d="M383.2 252.7c.8 1.3 1.4 2.7 2 4.2.1.2.1.3.2.5l-21 6.7 18.8-11.4zM345.6 275.4c-.8-1.3-1.4-2.7-2-4.2-.1-.2-.1-.3-.2-.5l21-6.7-18.8 11.4z"/><g><path class="st1" d="M353 245.3c1.3-.8 2.7-1.4 4.2-2 .2-.1.3-.1.5-.2l6.7 21-11.4-18.8zM375.8 282.8c-1.3.8-2.7 1.4-4.2 2-.2.1-.3.1-.5.2l-6.7-21 11.4 18.8z"/></g></g><g class="st61"><path class="st62" d="M346 273.9c3.2 6 9.2 10.3 16.5 11 11.4 1 21.6-7.4 22.6-18.8.5-5.1-1-10-3.7-13.8l-11.2 6.9-13 8-11.2 6.7z"/></g><g><path class="st2" d="M352.3 263c-.6 6.7 4.3 12.6 11 13.2 6.7.6 12.6-4.3 13.2-11 .6-6.7-4.3-12.6-11-13.2-6.7-.6-12.6 4.4-13.2 11z"/></g><g><path class="st1" d="M364 268c-2.1-.2-3.7-2.1-3.5-4.2.2-2.1 2.1-3.7 4.2-3.5 2.1.2 3.7 2.1 3.5 4.2-.2 2-1.9 3.5-3.9 3.5h-.3zm-2.3-4.1c-.1 1.5 1 2.8 2.5 3 1.5.1 2.8-1 3-2.5.1-1.5-1-2.8-2.5-3h-.2c-1.5 0-2.7 1.1-2.8 2.5z"/></g></g><path transform="rotate(-180 523.873 258.759)" class="st1" d="M520 257.1h7.8v3.3H520z"/><path transform="rotate(-180 427.06 258.759)" class="st1" d="M423.1 257.1h7.8v3.3h-7.8z"/><path transform="rotate(-180 278.914 258.759)" class="st1" d="M275 257.1h7.8v3.3H275z"/><path class="st1" d="M262.2 250.6s-.1 6.2-.8 7.1c-1.2 1.8-4 2.4-7.2 2.3v-9.4h8z"/><path class="st2" d="M266.7 179.1v8.8c0 5.2 4.3 9.5 9.5 9.5v-27.7c-5.3-.1-9.5 4.2-9.5 9.4z"/><path class="st53" d="M266.7 179.7v9c0 5.3 4.3 9.6 9.5 9.6v-28.2c-5.3 0-9.5 4.4-9.5 9.6z"/><g><path class="st1" d="M698.8 230.4c-3.3-6.7-8.4-12-14.6-15.4l-56.1.2c-.1 2.8-.2 5.6-.2 8.5 8.5 3.7 15.6 10.7 19.1 20.1 3.8 10 2.7 20.7-2.1 29.4.2.2.4.4.6.5h6.8l38.7-5.5s1.9-.3 2.8-.9 2.6-1.8 2.6-1.8 2.2-2.7 2.2-5.1c.2-2.4.2-30 .2-30z"/><path class="st2" d="M583.6 273.7c-6.3-10.5-8.5-24.2-8.8-37.5-.2-7.3.3-14.5 1-20.9h25.5l.1 7.8c8.9-3.3 18.3-2.9 26.5.6v2.2c.4 17 3.9 34.6 15 45.4.6.6 1.3 1.2 2 1.8-.1.2-.2.3-.3.5l-61 .1z"/><path d="M647 243.8c-3.5-9.4-10.6-16.4-19.1-20.1v2.2c.4 17 3.9 34.6 15 45.4.6.6 1.3 1.2 2 1.8 4.8-8.6 5.9-19.3 2.1-29.3z" fill="#36bcee"/></g><path class="st1" d="M694.4 249.7h4c.8 0 1.4-.6 1.4-1.4v-33c0-.8-.6-1.4-1.4-1.4h-4c-.8 0-1.4.6-1.4 1.4v33c0 .8.6 1.4 1.4 1.4z"/><path class="st60" d="M638.6 271.7v-17.2c0-8.8-7.1-15.9-15.9-15.9h-14.5c-8.8 0-15.9 7.1-15.9 15.9v17.2h46.3z"/><g><path class="st1" d="M594.1 261.9c-.4 4.2.5 8.2 2.3 11.6 3.2 6 9.3 10.4 16.6 11 11.5 1 21.6-7.4 22.7-18.9.5-5.1-1-10-3.7-13.9-3.4-4.8-8.8-8.2-15.2-8.8-11.5-.9-21.7 7.5-22.7 19z"/><path class="st1" d="M612.3 241.9c1.5-.2 3-.2 4.6-.1.2 0 .3 0 .5.1l-2.5 21.9-2.6-21.9z"/><path class="st1" d="M617.5 285.5c-1.5.2-3 .2-4.6.1-.2 0-.3 0-.5-.1l2.5-21.9 2.6 21.9z"/><path class="st1" d="M593.1 266.3c-.2-1.5-.2-3-.1-4.6 0-.2 0-.3.1-.5l21.9 2.5-21.9 2.6z"/><path class="st1" d="M636.7 261.1c.2 1.5.2 3 .1 4.6 0 .2 0 .3-.1.5l-21.9-2.5 21.9-2.6z"/><g><path class="st1" d="M628.5 246.4c1.2.9 2.3 2 3.3 3.2.1.1.2.3.3.4l-17.2 13.7 13.6-17.3zM601.3 281c-1.2-.9-2.3-2-3.3-3.2-.1-.1-.2-.3-.3-.4l17.2-13.7-13.6 17.3z"/><g><path class="st1" d="M597.6 250.1c.9-1.2 2-2.3 3.2-3.3.1-.1.3-.2.4-.3l13.7 17.2-17.3-13.6zM632.2 277.2c-.9 1.2-2 2.3-3.2 3.3-.1.1-.3.2-.4.3l-13.7-17.2 17.3 13.6z"/></g></g><g><path class="st1" d="M621 242.6c1.5.4 2.9 1 4.3 1.7.2.1.3.2.5.3l-10.9 19.2 6.1-21.2zM608.8 284.8c-1.5-.4-2.9-1-4.3-1.7-.2-.1-.3-.2-.5-.3l10.9-19.2-6.1 21.2z"/><g><path class="st1" d="M593.8 257.6c.4-1.5 1-2.9 1.7-4.3.1-.2.2-.3.3-.5l19.2 10.9-21.2-6.1zM636 269.8c-.4 1.5-1 2.9-1.7 4.3-.1.2-.2.3-.3.5l-19.2-10.9 21.2 6.1z"/></g></g><g><path class="st1" d="M633.7 252.3c.8 1.3 1.4 2.7 2 4.2.1.2.1.3.2.5l-21 6.7 18.8-11.4zM596.1 275.1c-.8-1.3-1.4-2.7-2-4.2-.1-.2-.1-.3-.2-.5l21-6.7-18.8 11.4z"/><g><path class="st1" d="M603.5 244.9c1.3-.8 2.7-1.4 4.2-2 .2-.1.3-.1.5-.2l6.7 21-11.4-18.8zM626.3 282.5c-1.3.8-2.7 1.4-4.2 2-.2.1-.3.1-.5.2l-6.7-21 11.4 18.8z"/></g></g><g class="st61"><path class="st62" d="M596.5 273.5c3.2 6 9.2 10.3 16.5 11 11.4 1 21.6-7.4 22.6-18.8.5-5.1-1-10-3.7-13.8l-11.2 6.9-13 8-11.2 6.7z"/></g><g><path class="st2" d="M602.8 262.7c-.6 6.7 4.3 12.6 11 13.2 6.7.6 12.6-4.3 13.2-11 .6-6.7-4.3-12.6-11-13.2-6.7-.6-12.6 4.3-13.2 11z"/></g><g><path class="st1" d="M614.5 267.6c-2.1-.2-3.7-2.1-3.5-4.2.2-2.1 2.1-3.7 4.2-3.5 2.1.2 3.7 2.1 3.5 4.2-.2 2-1.9 3.5-3.9 3.5h-.3zm-2.3-4.1c-.1 1.5 1 2.8 2.5 3 1.5.1 2.8-1 3-2.5.1-1.5-1-2.8-2.5-3h-.2c-1.5 0-2.7 1.1-2.8 2.5z"/></g></g><path class="st2" d="M673.9 166.3h-47.5c.4.1.9.2 1.4.2h44.8c.4 0 .9-.1 1.3-.2zM556.8 166.3H449.1c.4.1.9.2 1.4.2h105c.4 0 .8-.1 1.3-.2z"/><g><path class="st18" d="M250.6 228l-22.7-20.1-30.8-12.6h-71.6l-16.3 12.6v13.2l77.9 8.8h39.6z"/><path class="st3" d="M184.6 246.2c0 .6-.5 1.1-1.1 1.1h-5.3c-.6 0-1.1-.5-1.1-1.1 0-.6.5-1.1 1.1-1.1h5.3c.6 0 1.1.5 1.1 1.1z"/><path class="st64" d="M189.9 221.4s-1.2 2.8.1 5.1c1.5 2.7 8 14 8.5 14.3 3.5 2.4 4.3-1.2 4.1-3-.3-1.8-.5-6.5-2.5-10.7-1.8-3.9-5.3-10.6-10.2-5.7z"/><path class="st64" d="M190.1 226.7l4.5 13.8 11.7.1.9-13.6z"/><path class="st64" d="M193 245.5c-.1.2-2.3 3.3-2.6 6-.3 2.8 2.6 6.4 2.6 6.4l11.2.1 1.3-7.8.6-9.9-11.6.2c.1 0-.7 3.3-1.5 5zM201.9 208.6l-6.5.1s-1 2.9-.8 8.4c0 .2 5.6 1.8 5.6 1.8l1.7-10.3z"/><path class="st64" d="M206.1 222.5c-1.3-2.3-5.7-7.4-5.7-7.4l-5.8-1s-4.2 2.9-5.2 7.9c0 .2.4 5.4.4 5.4h17.5l-1.2-4.9zM203.7 203.3c-.1.3-.3.8-.3 1.1 0 .6.4 1.2.3 1.6-.1 2.9.5 2.6.3 3.7-.2.8-1.2.8-2.9 1.2-1.2.2-4.3-1.1-4.8-1.4-2.3-1.1-3.2-5.6-3.2-7.5 0-3.9 3.2-4.4 5.6-3.9 1.3.2 2.3.8 3.1 1.4 1.4 1.2 2 3.6 1.9 3.8z"/><path d="M201.4 203.4c.2-.2 1.1-.8 2.1-.1"/><circle class="st3" cx="202.4" cy="204.4" r=".3"/><path class="st64" d="M203.3 203.7c.5 1.4 1 2 1.2 2.6 0 .1-.8.2-.8.2-.1 0-.4-2.8-.4-2.8z"/><path class="st65" d="M198.2 211c.1.1-.7 3.6 2.5 4.6l.8-4.8-3.3.2z"/><path class="st64" d="M203.7 207.1s-.9.2-.8.4c0 .3.9.4.9.4l-.1-.8z"/><path d="M206.2 200.1c0-.7-.8-1.3-1.5-1.2-.3 0-.6.2-.8.2-.3 0-.6-.1-.7-.3-.1-.2.1-.5.1-.7.1-.6-.4-1.2-1-1.4-.6-.2-1.2.3-1.8.3-1.8-.1-3.4-.5-5.6.9l2.3 1.8c-.1-.1-.2.2-.2.3.1.9.6 1.6 1.3 2.2.4.3.8.6 1.2.6 3 .5.8-2.6 3.5-1.7.8.4 1.3.8 2 .6.7-.2 1.3-.8 1.2-1.6z"/><path d="M202.1 200s-3.5-4.6-8.8-1.4c-3.2 1.9-1.8 6.6 1.8 10.7 0 .1 1.6-.3 2-1 .5-.9.5-3.5.5-3.5l1.8.4.6-2.4c.4-1.5 2.1-2.8 2.1-2.8z"/><path class="st65" d="M197.4 204.2s-.1 1.3.5 1.6c.4.2.8 0 .8 0s-.2 1.9-1.3 1.5c-1-.5 0-3.1 0-3.1z"/><path class="st64" d="M198.7 204.6s-.6-1.2-1.1-.7c-.5.5-.3 1.7.7 1.7.6 0 .7-.1.7-.1l-.3-.9z"/><path class="st64" d="M198.2 204.6c0-.2-.3-.3-.4-.1v.2c0 .1 0 .2.1.3.1.1.2.1.3 0v-.4z"/><pattern id="SVGID_10_" xlink:href="#Unnamed_Pattern_23" patternTransform="matrix(.2273 0 0 .2319 -3170.65 -6783.229)"/><path d="M194.1 214.2l8.5 3.1 3.6 5.1 1 4.2-1.5 20.5-12.4-2.9 1.3-4.1-5.1-13.8s-1.2-5.1 1.2-8.2c2.5-3 3.4-3.9 3.4-3.9" fill="url(#SVGID_10_)"/><path fill="none" stroke="#fff" stroke-width=".836" stroke-linecap="round" stroke-linejoin="round" stroke-miterlimit="10" d="M193.9 214.2l9.1 3.3"/><path class="st68" d="M193.3 213.6s12.4 4.3 13.5 10.1c.6 3.3.3 3.7.3 3.7s-3.5-9.9-15.4-12.1"/><pattern id="SVGID_11_" xlink:href="#Horizontal_line_5" patternTransform="translate(-899.954 -3785.167) scale(.5892)"/><path d="M154 228.5s-5.3-4.4-5-4.4 3.2-5.9 3.2-5.9" fill="url(#SVGID_11_)"/><path class="st70" d="M146.7 219s-.4 2.6 1.9 7.1c2.3 4.6 10.4 10.4 10.9 10.6 3.8 1.1 3.9-2 3.1-3.5-.7-1.3-2.5-4.3-7.3-10.2-2.2-2.8-6-6.6-8.6-4z"/><pattern id="SVGID_12_" xlink:href="#Horizontal_line_5" patternTransform="rotate(26.324 3724.093 -8863.492) scale(.5892)"/><path fill="url(#SVGID_12_)" d="M152.2 219.5l3.7 3.8-6.7 6.2"/><path class="st70" d="M141.4 226.6l3.2 13 9.8.1.9-13.2z"/><path class="st70" d="M144.3 239.6l9.9-.1s2.7 4-.6 10.8c-.3.7-2 7.6-2 7.6s-8.1 2.4-11.8-.4c-.4-.3-1.4-4-1.7-5.3-1.3-4.8 2.7-7.1 6.2-12.6zM152.7 229s5 .4 5-2.5c0-1.6-.1-.5-4.3-6.4M159.5 236.7c1.5 1.7 3.4.1 3.4.1 3.6-3 9.4-9.7 11-12.5.3-.5.5-.9.6-1.3 0 0 .3-1-.7-1.3-.5-.2-1.9 1-1.9 1-16.5 11.1-13.4 12.8-12.4 14zM176.1 217.8c-.1.1.6-.9 1-1.2.1-.1.3-.8.6-1.2v-1.1c0-.4.3-.5.3-.5l.6 1.9-.5 1.5-.5 1.7s-.5.2-1.1-.2c-.5-.3-.4-.9-.4-.9z"/><path class="st70" d="M174.3 217.2c-.2.3-.4.9-.6 1.2-.5.9-.9 3.2-1.2 3.7-.3.5-.6 1.1.2 1.7.9.7 1.4-.4 1.4-.4.3-.4.3-.6.5-.9.5-.7 2.2-2.3 2.9-3.4 0 0 .1-.8-.4-1.1-.6-.4-1.1-.1-1.1-.1-.1.1-.3.3-.5.2-.3-.3-.4-.7-.3-1 .5-1 .5-1.1.3-1.3-.1.1-.9 1-1.2 1.4z"/><path class="st70" d="M175.9 218.3s.4-1 .8-1.4c.1-.1.1-.9.3-1.3 0-.1-.2-.6-.3-1-.1-.4.2-.6.2-.6l1 1.8-.2 1.6-.2 1.8s-.4.4-1.1.1c-.3-.3-.5-1-.5-1zM154.7 221.9c-1-1.1-3.4-7-3.4-7l-5.5-.3s-3.5 3.4-4 6.1c-.5 2.7-.1 5.7-.1 5.7h12.4c0 .1.6-4.4.6-4.5z"/><pattern id="SVGID_13_" xlink:href="#Horizontal_line_5" patternTransform="translate(-899.954 -3785.167) scale(.5892)"/><path d="M144.3 216.3s1.7 2 4.5 2.1c2.8.1 3.4-1 3.4-1l.6 1.2 4.8 7.2s1 2.3-2.5 3.3l-.8 10.7-9.7-.1s-4.5-12.6-3.6-17.1c.9-4.4 3.3-6.3 3.3-6.3" fill="url(#SVGID_13_)"/><g><path class="st70" d="M142.9 219.3s-3.1 2.5-1.4 7.2c1 2.8 4.8 13.9 5.2 14.3 3 2.7 4.4 0 4.4-1.8 0-1.5-.1-8.1-1.7-12.2-1.4-3.3-3.1-8.6-6.5-7.5z"/></g><g><path class="st70" d="M146.1 238.2c-.9 2 1.3 3.1 1.3 3.1 4.2 2 12.7 4.6 16 4.8.6.1 1 .1 1.4.1 0 0 1-.2.9-1.2-.1-.5-1.7-1.3-1.7-1.3-17-10.5-17.3-7-17.9-5.5zM170.1 245.5c-.1 0 1.1.2 1.5.5.1.1.9-.1 1.4 0 .1 0 .5-.3.9-.5.3-.2.6.1.6.1L173 247l-1.6.1-1.8.2s-.4-.3-.2-1.1c.1-.6.7-.7.7-.7z"/><path class="st70" d="M169.9 243.6c-.3-.1-1 0-1.3 0-1.1-.1-3.3.5-3.8.4-.5 0-1.3 0-1.5.9-.3 1.1.9 1.1.9 1.1.5 0 .7 0 1 .1.8.2 3 1 4.3 1.2 0 0 .7-.2.8-.8.2-.7-.4-1.1-.4-1.1-.2-.1-.4-.1-.4-.4.1-.4.5-.7.8-.7 1.1.1 1.2 0 1.3-.3-.1 0-1.2-.3-1.7-.4z"/><path class="st70" d="M169.6 245.5s1.1 0 1.6.1c.1 0 .8-.3 1.3-.2.1 0 .4-.4.8-.7.3-.2.6 0 .6 0l-1.2 1.6-1.5.4-1.7.6s-.5-.2-.5-.9c0-.5.5-.9.6-.9z"/></g><pattern id="SVGID_14_" xlink:href="#Horizontal_line_5" patternTransform="translate(-899.954 -3785.167) scale(.5892)"/><path d="M142.2 229.9s-3.8-10.2 1.2-10.8c4.4-.5 6.8 8.8 6.8 8.8l-8 2z" fill="url(#SVGID_14_)"/><g><path class="st3" d="M150.4 199.3s2.9.3 3.5 3.6c.7 3.7 1 11.6 1 11.6l-13.3-.1s-1.7-16.8 8.8-15.1z"/><path class="st70" d="M146.6 210.8l-1.1 5h5.9v-6.2z"/><path class="st74" d="M147 211c.1 0 0 2.8 4.4 3.3l-.2-4.6-4.2 1.3z"/><path class="st70" d="M153.1 206.3c0 3-1.6 5.4-4.3 5.4-2.7 0-4.3-2.5-4.3-5.5s1.6-5.4 4.3-5.4c2.7 0 4.3 2.5 4.3 5.5z"/><path class="st3" d="M145.8 205.8c.3-.3 1.7-.4 2.1 0M150.2 205.8c.5-.5 2-.3 2.3.1"/><circle class="st3" cx="146.6" cy="206.6" r=".3"/><circle class="st3" cx="151.1" cy="206.6" r=".3"/><path class="st2" d="M147.7 208.5h2.4s-.2 1-1.2 1-1.2-1-1.2-1z"/><path class="st70" d="M144.9 208h-.6c-.2 0-.3-.1-.3-.3v-1.4c0-.2.1-.3.3-.3h.6c.2 0 .3.1.3.3v1.4c0 .1-.1.3-.3.3zM153.2 208h-.6c-.2 0-.3-.1-.3-.3v-1.4c0-.2.1-.3.3-.3h.6c.2 0 .3.1.3.3v1.4c0 .1-.1.3-.3.3z"/><path class="st3" d="M146.6 201.2s-.7 3.5-.4 3.6c.3.1 3.8.1 3.8.1s.7-3.7.6-3.3c-.1.4.3 3.3.3 3.3l1.4.3s.9-5.8-1.7-5.7c-2.6.1-3.8.3-4 1.7z"/><path class="st74" d="M149.2 205.8v1.6l-.9.2s.9.9 1.3.4c.5-.5.1-2.1-.4-2.2zM144.7 206.5h-.2c-.1 0-.1 0-.2.1 0 .1 0 .1-.1.2v.3c0 .1.1.2.1.2h.2M152.9 206.5c.1 0 .2.1.3.2s0 .2 0 .3c0 .1 0 .2-.1.3 0 .1-.1.2-.2.1h-.1"/></g><path class="st68" d="M145 215.5l-1.7 2s11.3 6.8 10.7 20.7c-.6 13.9 0 0 0 0l.5.2s3.5-16.1-9.5-22.9"/><g><path class="st3" d="M227.1 229.6c-.3 0-.5-.1-.8-.2-.8-.4-1.1-1.4-.7-2.2l6.3-12c.4-.8 1.4-1.1 2.2-.7.8.4 1.1 1.4.7 2.2l-6.3 12c-.2.6-.8.9-1.4.9z"/><path class="st1" d="M190.9 220.2c0 .4-1.9 3.8 1.5 11.3 3.5 7.8 13.5 11.3 13.5 11.3l.3-3.4-15.3-19.2z"/><path class="st47" d="M207.1 232.8c.5 1.9 3.1 1.7 3.1 1.7 5.1-2 10.9-4.7 14.1-6.1.6-.2.7-.6 1.1-.7l-.5-2.5c-18 1.3-18.2 6-17.8 7.6zM229.1 223.9c-.1 0 1-.6 1.6-.7.1 0 .6-.7 1.1-.9.1 0 .2-.6.4-1s.6-.4.6-.4l-.3 2.1-1.2 1.2-1.3 1.4s-.6 0-.9-.7c-.4-.5-.1-1 0-1z"/><path class="st47" d="M227.7 222.5c-.3.2-.9.7-1.1.9-.9.6-1 1.1-2.6 2.6-1.7 1.6-.2 2.9.7 2.4.3-.2.6-.5.9-.6.8-.4 3.1-1.2 4.3-2 0 0 .4-.7.1-1.2-.4-.7-1.1-.6-1.1-.6-.2.1-.4.2-.6-.1-.2-.4-.1-.7.3-1 .8-.6.9-1 .7-1.2-.2.2-1.2.5-1.6.8z"/><path class="st47" d="M228.6 224.2s.9-.7 1.4-1c.1-.1.5-.8.9-1.1.1 0 .1-.6.2-1.1.1-.4.5-.5.5-.5l.1 2.2-.9 1.4-1 1.7s-.6.2-1-.4c-.3-.4-.2-1.1-.2-1.2zM191.7 222.6s.4 3 2.7 4.3c2.7 1.6 13.3 8.5 15.8 7.2 3.8-1.9 2-2.2.8-3.6-1.1-1.4-3.7-5.5-7.6-8.1-3.4-2.4-9.8-6.4-11.7.2z"/><pattern id="SVGID_15_" xlink:href="#Unnamed_Pattern_23" patternTransform="matrix(.1691 -.08643 .0882 .1725 -2683.204 -7771.046)"/><path d="M204.2 222.7l-5.1 7.4s-11.1-5.5-8.4-9.2c2.6-3.6 6.9-6.1 13.5 1.8z" fill="url(#SVGID_15_)"/><g><path class="st2" d="M199.6 230.5c1.8-2.4 3.5-4.8 5.3-7.2.4-.5-.5-1-.9-.5-1.8 2.4-3.5 4.8-5.3 7.2-.4.5.5 1 .9.5z"/></g></g><path d="M185.4 225.6s-7.2 13-4.8 21c3.3 11 10.4 26.1 10.4 26.1" fill="none" stroke="#000" stroke-width=".587" stroke-miterlimit="10"/><path class="st26" d="M320.3 247.7c0-17.7-72.6-22.2-72.6-22.2l-158.2-.1-4-.1-2.1 39.3 9.7 8.9h221.4c3.5 0 6.1-2.8 5.5-5.9l-.7-3.4s.6-15.2.9-15.5c1.7-1.7.1-.8.1-1z"/><path class="st1" d="M148.4 237h-10.2c-.4 0-.7-.3-.7-.7v-1.4c0-.4.3-.7.7-.7h10.2c.4 0 .7.3.7.7v1.4c0 .4-.3.7-.7.7zM202.5 237h-10.2c-.4 0-.7-.3-.7-.7v-1.4c0-.4.3-.7.7-.7h10.2c.4 0 .7.3.7.7v1.4c0 .4-.3.7-.7.7z"/><path class="st2" d="M304.9 241s1 10.2 4.5 10.2c7.4 0 12.1.2 12.1.2s.5-7.4-6-9.5c-5.2-1.7-10.6-.9-10.6-.9z"/><path class="st77" d="M257.3 273.1H134.1l-3-11.7h130.5z"/><path class="st1" d="M143.1 275h114.2v3.5H143.1zM102.5 278.5H89v-1.7c0-1 .8-1.7 1.7-1.7h11.8v3.4zM296.3 275h23.3v3.5h-23.3z"/><path class="st2" d="M83.5 232.9h15.8s.2 11.1-8.9 12.7c-7.6 1.4-7.1.2-7.1.2l.2-12.9z"/><path class="st1" d="M99.4 232H83.5c-.6 0-1.2-.5-1.2-1.2v-2.3c0-.6.5-1.2 1.2-1.2h15.8c.6 0 1.2.5 1.2 1.2v2.3c0 .7-.5 1.2-1.1 1.2z"/><g><path class="st26" d="M145.5 222.8c-.7-.1-4.7-.5-9.8-1.2l-.8 4.4h49.5l-.1-.7c-13.3-.6-27.1-1.4-38.8-2.5zM189.7 225.5l.1.5h14.3c-4.6-.1-9.4-.3-14.4-.5z"/><path class="st26" d="M110.7 214.8c-.6-2.3 11.9-17.1 23.4-17.5h3.5l.1-.3h2.5l-.1.3c9.7-.1 28.5-.2 39.8-.2v-.1h5.4v.1h.5c31.2 0 56.3 25.7 56.3 25.7 0-.1-1.9 2.1-2.9 3.3h14.5s-2.2-1.4-11.5-10.2c-7.3-6.8-28.3-22.4-54.2-22.4-18.3 0-72.9-.5-73.5-.5-7.6 0-9.2 3.1-8 8 1.4 5.7-19.9 22.7-20.9 25.1h46.9l.9-4.8c-9.9-1.5-22.1-3.9-22.7-6.5z"/><path class="st26" d="M131.9 228.9h2.5l.5-2.9h-2.5zM140.1 197h-2.5l-.1.3h2.5l.1-.3z"/><path class="st26" d="M133.3 221.3l-.9 4.8h2.5l.8-4.4c-.8-.2-1.6-.3-2.4-.4z"/><path class="st26" d="M137.6 197.3l-4.3 24c.8.1 1.6.2 2.4.4l4.4-24.4h-2.5zM184.8 228.7h5.4l-.4-2.6h-5.4zM185.3 197h-5.4v.1h5.4v-.1zM184.3 225.3l.1.7h5.4l-.1-.5c-1.8 0-3.6-.1-5.4-.2z"/><path class="st26" d="M179.9 197.1l4.4 28.2c1.8.1 3.7.2 5.5.2l-4.4-28.5c-1.5.1-3.4.1-5.5.1z"/></g><path class="st1" d="M313.3 254.9c-2.3 0-6.5 8-6.5 11.9 0 3.8 4.2 6.9 6.5 6.9h1.9c3 0 5.4-2.4 5.4-5.4v-6.8c0-1-.8-6.6-1.7-6.6h-5.6zM82.4 248.5s13.6-2.7 20.1 4.8 9 19.9 9 19.9l-18.6.1c-5.1 0-10.5.1-10.5-10.3v-14.5z"/><path class="st77" d="M320.1 254.3H307c-.6 0-1.2-.5-1.2-1.2 0-.6.5-1.2 1.2-1.2h13.1M236.4 219.9v16.5c3.1 0 5.6-2.5 5.6-5.6v-5.3c.1-3.1-2.5-5.6-5.6-5.6z"/><path class="st59" d="M242.5 251.7h-49.7c-1.3 0-2.4-1.1-2.4-2.4v-4.9c0-1.3 1.1-2.4 2.4-2.4h49.7c1.3 0 2.4 1.1 2.4 2.4v4.9c0 1.3-1.1 2.4-2.4 2.4zM177.7 251.7h-33.1c-1.3 0-2.4-1.1-2.4-2.4v-4.9c0-1.3 1.1-2.4 2.4-2.4h33.1c1.3 0 2.4 1.1 2.4 2.4v4.9c.1 1.3-1 2.4-2.4 2.4z"/><path class="st77" d="M84.5 236c2 0 3.7 1.6 3.7 3.7 0 2-1.6 3.7-3.7 3.7"/><g><path class="st2" d="M256.9 273.6c0-11.3 9.2-20.5 20.5-20.5s20.5 9.2 20.5 20.5"/><path class="st1" d="M294.3 273.9c0 3.4-1 6.6-2.7 9.2-3 4.6-8.2 7.7-14.2 7.7-9.3 0-16.9-7.6-16.9-16.9 0-4.2 1.5-8 4-10.9 3.1-3.7 7.7-6 12.9-6 9.3-.1 16.9 7.5 16.9 16.9z"/><g class="st61"><path class="st62" d="M291.6 283.1c-3 4.6-8.2 7.7-14.2 7.7-9.3 0-16.9-7.6-16.9-16.9 0-4.2 1.5-8 4-10.9l8.6 6.4 9.9 7.4 8.6 6.3z"/></g><path class="st2" d="M283.7 273.8c0 3.5-2.8 6.3-6.3 6.3s-6.3-2.8-6.3-6.3 2.8-6.3 6.3-6.3c3.4.1 6.3 2.9 6.3 6.3z"/></g><g><path class="st2" d="M102.1 273.6c0-11.3 9.2-20.5 20.5-20.5s20.5 9.2 20.5 20.5"/><path class="st1" d="M139.5 273.9c0 3.4-1 6.6-2.7 9.2-3 4.6-8.2 7.7-14.2 7.7-9.3 0-16.9-7.6-16.9-16.9 0-4.2 1.5-8 4-10.9 3.1-3.7 7.7-6 12.9-6 9.3-.1 16.9 7.5 16.9 16.9z"/><g class="st61"><path class="st62" d="M136.8 283.1c-3 4.6-8.2 7.7-14.2 7.7-9.3 0-16.9-7.6-16.9-16.9 0-4.2 1.5-8 4-10.9l8.6 6.4 9.9 7.4 8.6 6.3z"/></g><path class="st2" d="M128.9 273.8c0 3.5-2.8 6.3-6.3 6.3s-6.3-2.8-6.3-6.3 2.8-6.3 6.3-6.3c3.5.1 6.3 2.9 6.3 6.3z"/></g></g><path class="st79" d="M64.4 200h49.2M54.8 210.4H104M687.5 157.6h49.2M687.8 212.9H737M703 184.7h49.2"/></g><g class="st12"><path class="st304" d="M-372.9 533.3c0-120.1 97.4-217.5 217.5-217.5S62.1 413.2 62.1 533.3"/><path class="st304" d="M57.4 533.3c0-120.1 97.4-217.5 217.5-217.5s217.5 97.4 217.5 217.5M497 533.3c0-120.1 97.4-217.5 217.5-217.5S932 413.2 932 533.3M-577.2 252.5h1934.3M57.4 292.7v-40.3M135.1 292.7v-40.3M212.8 292.7v-40.3M290.5 292.7v-40.3M368.2 292.7v-40.3M445.8 292.7v-40.3M523.5 292.7v-40.3M601.2 292.7v-40.3M678.9 292.7v-40.3M756.5 292.7v-40.3"/><path class="st1" d="M-577.5 278.5h1934.6v35H-577.5z"/><path class="st1" d="M40.3 305.2v206.3l-24.5 17.2V567h92.6v-40.3l-27.8-18.5v-203zM475.2 305.2v206.3l-24.4 17.2V567h92.5v-40.3l-27.7-18.5v-203z"/></g></g></svg>