<svg version="1.1" id="Calque_1" xmlns="http://www.w3.org/2000/svg" xmlns:xlink="http://www.w3.org/1999/xlink" x="0" y="0" viewBox="0 0 728 934.5" xml:space="preserve"><style>.st0{fill:none}.st1{fill:#054752}.st2{fill:#fff}.st3{fill:#004753}.st4{fill:#eae8f5}.st6{fill:#669aa2}.st8{fill:#91b7bc}.st11{opacity:.4;fill:#fff;enable-background:new}.st12{fill:#facca3}.st13{opacity:.47;fill:#95abbd;enable-background:new}.st14{fill:#014753}.st15{opacity:.67;fill:#facca3;enable-background:new}.st16{fill:#f5b240}.st17{fill:#2ed1ff}.st18{opacity:.3;fill:#8f4160;enable-background:new}.st20{fill:#f1890e}.st21{fill:#f9cfc4}.st24{fill:#e9ca91}.st27{opacity:.69;fill:#f9cfc4;enable-background:new}.st29{fill:#947347}.st34,.st35{fill:#ddb68d}.st35{opacity:.67;enable-background:new}.st38,.st39{fill:#cd904d}.st39{opacity:.67;enable-background:new}.st41{fill:#a9b7c0}.st42{fill:#01353a}.st43{fill:#cd8f4d}.st44{fill:#ff595a}.st47{fill:#022327}.st49,.st50{opacity:.45;fill:#fff;enable-background:new}.st50{fill:#044752}.st51{opacity:.49}.st52{fill:#004553}.st53,.st54{fill:#ce914d}.st54{opacity:.67;enable-background:new}.st57{fill:#033}.st59,.st63,.st66{fill:#eacb92}.st63,.st66{opacity:.59;enable-background:new}.st66{opacity:.45;fill:#054752}.st69{fill:none;stroke:#054752;stroke-width:4;stroke-miterlimit:10}.st70{fill:#2e5862}</style><pattern y="934.5" width="50" height="50" patternUnits="userSpaceOnUse" id="SVGID_16_" viewBox="0 -50 50 50" overflow="visible"><path class="st0" d="M0-50h50V0H0z"/><path class="st0" d="M0-50h50V0H0z"/><path class="st0" d="M0-50h50V0H0v-50z"/><path class="st1" d="M0-50h50v6.3H0V-50z"/><path class="st2" d="M0-43.7h50v6.3H0v-6.3z"/><path class="st1" d="M0-37.5h50v6.3H0v-6.3z"/><path class="st2" d="M0-31.2h50v6.3H0v-6.3z"/><path class="st1" d="M0-24.9h50v6.3H0v-6.3z"/><path class="st2" d="M0-18.7h50v6.3H0v-6.3z"/><path class="st1" d="M0-12.4h50v6.3H0v-6.3z"/><path class="st2" d="M0-6.3h50V0H0v-6.3z"/></pattern><pattern y="934.5" width="50" height="50" patternUnits="userSpaceOnUse" id="SVGID_17_" viewBox="0 -50 50 50" overflow="visible"><path class="st0" d="M0-50h50V0H0z"/><path class="st0" d="M0-50h50V0H0z"/><path class="st0" d="M0-50h50V0H0v-50z"/><path class="st1" d="M0-50h50v6.3H0V-50z"/><path class="st2" d="M0-43.7h50v6.3H0v-6.3z"/><path class="st1" d="M0-37.5h50v6.3H0v-6.3z"/><path class="st2" d="M0-31.2h50v6.3H0v-6.3z"/><path class="st1" d="M0-24.9h50v6.3H0v-6.3z"/><path class="st2" d="M0-18.7h50v6.3H0v-6.3z"/><path class="st1" d="M0-12.4h50v6.3H0v-6.3z"/><path class="st2" d="M0-6.3h50V0H0v-6.3z"/></pattern><pattern y="934.5" width="50" height="50" patternUnits="userSpaceOnUse" id="SVGID_18_" viewBox="0 -50 50 50" overflow="visible"><path class="st0" d="M0-50h50V0H0z"/><path class="st0" d="M0-50h50V0H0z"/><path class="st0" d="M0-50h50V0H0v-50z"/><path class="st1" d="M0-50h50v6.3H0V-50z"/><path class="st2" d="M0-43.7h50v6.3H0v-6.3z"/><path class="st1" d="M0-37.5h50v6.3H0v-6.3z"/><path class="st2" d="M0-31.2h50v6.3H0v-6.3z"/><path class="st1" d="M0-24.9h50v6.3H0v-6.3z"/><path class="st2" d="M0-18.7h50v6.3H0v-6.3z"/><path class="st1" d="M0-12.4h50v6.3H0v-6.3z"/><path class="st2" d="M0-6.3h50V0H0v-6.3z"/></pattern><pattern y="934.5" width="50" height="50" patternUnits="userSpaceOnUse" id="SVGID_19_" viewBox="0 -50 50 50" overflow="visible"><path class="st0" d="M0-50h50V0H0z"/><path class="st0" d="M0-50h50V0H0z"/><path class="st0" d="M0-50h50V0H0v-50z"/><path class="st1" d="M0-50h50v6.3H0V-50z"/><path class="st2" d="M0-43.7h50v6.3H0v-6.3z"/><path class="st1" d="M0-37.5h50v6.3H0v-6.3z"/><path class="st2" d="M0-31.2h50v6.3H0v-6.3z"/><path class="st1" d="M0-24.9h50v6.3H0v-6.3z"/><path class="st2" d="M0-18.7h50v6.3H0v-6.3z"/><path class="st1" d="M0-12.4h50v6.3H0v-6.3z"/><path class="st2" d="M0-6.3h50V0H0v-6.3z"/></pattern><pattern y="934.5" width="50" height="50" patternUnits="userSpaceOnUse" id="SVGID_2_" viewBox="0 -50 50 50" overflow="visible"><path class="st0" d="M0-50h50V0H0z"/><path class="st0" d="M0-50h50V0H0z"/><path class="st0" d="M0-50h50V0H0v-50z"/><path class="st1" d="M0-50h50v6.3H0V-50z"/><path class="st2" d="M0-43.7h50v6.3H0v-6.3z"/><path class="st1" d="M0-37.5h50v6.3H0v-6.3z"/><path class="st2" d="M0-31.2h50v6.3H0v-6.3z"/><path class="st1" d="M0-24.9h50v6.3H0v-6.3z"/><path class="st2" d="M0-18.7h50v6.3H0v-6.3z"/><path class="st1" d="M0-12.4h50v6.3H0v-6.3z"/><path class="st2" d="M0-6.3h50V0H0v-6.3z"/></pattern><pattern y="934.5" width="50.9" height="47" patternUnits="userSpaceOnUse" id="SVGID_20_" viewBox="50.9 -94.2 50.9 47" overflow="visible"><path class="st0" d="M50.9-94.2h50.9v47H50.9z"/><path class="st0" d="M50.9-94.2h50.9v47H50.9z"/><path class="st0" d="M50.9-94.2h50.9v47H50.9v-47z"/><path class="st3" d="M101.7-47.5h50.9V0h-50.9v-47.5z"/><path class="st3" d="M50.9-47.5h50.9V0H50.9v-47.5zM0-47.5h50.9V0H0v-47.5z"/><path class="st3" d="M101.7-94.6h50.9v47.5h-50.9v-47.5z"/><path class="st3" d="M50.9-94.6h50.9v47.5H50.9v-47.5z"/><path class="st4" d="M63.8-89.5H62v-4.6h1.8v4.6zm7.5 2.1l-1.5 1.1-2.7-3.8 1.5-1.1 2.7 3.8zM64.2-80.7l.3-1.8 4.6.9-.3 1.8-4.6-.9zM73.5-80.9l-1.3-1.2 2.9-3.6 1.4 1.2-3 3.6zm4.4 6.4l-1.8-.1.4-4.7 1.8.2-.4 4.6zM67.8-73l.9-1.6 4.1 2.3-.9 1.6-4.1-2.3zM55.1-87.3l-1.5 1-2.7-3.8 1.5-1 2.7 3.8zm2.2 6.4l-1.4-1.2 3-3.5 1.4 1.1-3 3.6zM59.9-79.1l1.8-.2.4 4.7-1.8.2-.4-4.7zM51.6-72.2l4.1-2.3.9 1.6-4.1 2.3-.9-1.6zM78.8-89.5v-4.7h1.8v4.7h-1.8zM88.1-87.4l-1.5 1.1-2.7-3.9 1.5-1 2.7 3.8zM81-80.7l.3-1.8 4.6.9-.3 1.8-4.6-.9zM90.4-81L89-82.1l3-3.6 1.4 1.2-3 3.5zM92.9-79.1l1.8-.2.4 4.7-1.8.2-.4-4.7zM84.7-72.4l4.1-2.3.9 1.6-4.1 2.3-.9-1.6zM94.5-89.6v-4.7h1.8v4.7h-1.8zM96.8-80.7l.3-1.8 4.6.9-.3 1.8-4.6-.9zM62-65.9v-4.7h1.8v4.7H62zM71.3-63.8l-1.5 1.1-2.6-3.8 1.4-1.1 2.7 3.8zM64.3-57.1l.4-1.8 4.6.9-.4 1.8-4.6-.9zM72.2-60.9l1.4-1.2 3 3.6-1.4 1.2-3-3.6zM76.1-55.5l1.8-.2.4 4.7-1.8.2-.4-4.7zM67.9-49.4l.8-1.6 4.1 2.3-.9 1.5-4-2.2z"/><g><path class="st4" d="M55.1-63.7l-1.5 1-2.7-3.8 1.5-1 2.7 3.8zM55.9-60.8l1.4-1.2 3 3.6-1.3 1.1-3.1-3.5zM59.9-55.5l1.8-.2.4 4.7-1.8.2-.4-4.7zM51.6-48.8l4.1-2.3.9 1.6-4.1 2.3-.9-1.6z"/></g><g><path class="st4" d="M80.7-65.9h-1.8l-.1-4.7h1.8l.1 4.7zM83.9-63.8l2.7-3.8 1.5 1-2.7 3.8-1.5-1zM81.4-56.2l-.3-1.7 4.5-.9.4 1.7-4.6.9zM89-61l1.4-1.2 3 3.6-1.4 1.2-3-3.6zM92.9-55.5l1.8-.2.4 4.7-1.8.2-.4-4.7zM84.7-49.4l.9-1.6 4 2.2-.8 1.6-4.1-2.2z"/></g><g><path class="st4" d="M96.4-65.9h-1.8v-4.7h1.8v4.7zm.8 9.7l-.4-1.8 4.6-.9.4 1.8-4.6.9z"/></g><g><path class="st3" d="M0-94.6h50.9v47.5H0v-47.5z"/></g><g><path class="st3" d="M101.7-141.6h50.9v47.5h-50.9v-47.5z"/></g><g><path class="st3" d="M50.9-141.6h50.9v47.5H50.9v-47.5z"/></g><g><path class="st3" d="M0-141.6h50.9v47.5H0v-47.5z"/></g></pattern><pattern y="934.5" width="50" height="50" patternUnits="userSpaceOnUse" id="SVGID_21_" viewBox="0 -50 50 50" overflow="visible"><path class="st0" d="M0-50h50V0H0z"/><path class="st0" d="M0-50h50V0H0z"/><path class="st0" d="M0-50h50V0H0v-50z"/><path class="st3" d="M0-50h50v6.3H0V-50z"/><path class="st2" d="M0-43.7h50v6.3H0v-6.3z"/><path class="st3" d="M0-37.5h50v6.3H0v-6.3z"/><path class="st2" d="M0-31.2h50v6.3H0v-6.3z"/><path class="st3" d="M0-24.9h50v6.3H0v-6.3z"/><path class="st2" d="M0-18.7h50v6.3H0v-6.3z"/><path class="st3" d="M0-12.4h50v6.3H0v-6.3z"/><path class="st2" d="M0-6.3h50V0H0v-6.3z"/></pattern><pattern y="934.5" width="50" height="50" patternUnits="userSpaceOnUse" id="SVGID_22_" viewBox="0 -50 50 50" overflow="visible"><path class="st0" d="M0-50h50V0H0z"/><path class="st0" d="M0-50h50V0H0z"/><path class="st0" d="M0-50h50V0H0v-50z"/><path class="st3" d="M0-50h50v6.3H0V-50z"/><path class="st2" d="M0-43.7h50v6.3H0v-6.3z"/><path class="st3" d="M0-37.5h50v6.3H0v-6.3z"/><path class="st2" d="M0-31.2h50v6.3H0v-6.3z"/><path class="st3" d="M0-24.9h50v6.3H0v-6.3z"/><path class="st2" d="M0-18.7h50v6.3H0v-6.3z"/><path class="st3" d="M0-12.4h50v6.3H0v-6.3z"/><path class="st2" d="M0-6.3h50V0H0v-6.3z"/></pattern><pattern y="934.5" width="50" height="50" patternUnits="userSpaceOnUse" id="SVGID_23_" viewBox="0 -50 50 50" overflow="visible"><path class="st0" d="M0-50h50V0H0z"/><path class="st0" d="M0-50h50V0H0z"/><path class="st0" d="M0-50h50V0H0v-50z"/><path class="st3" d="M0-50h50v6.3H0V-50z"/><path class="st2" d="M0-43.7h50v6.3H0v-6.3z"/><path class="st3" d="M0-37.5h50v6.3H0v-6.3z"/><path class="st2" d="M0-31.2h50v6.3H0v-6.3z"/><path class="st3" d="M0-24.9h50v6.3H0v-6.3z"/><path class="st2" d="M0-18.7h50v6.3H0v-6.3z"/><path class="st3" d="M0-12.4h50v6.3H0v-6.3z"/><path class="st2" d="M0-6.3h50V0H0v-6.3z"/></pattern><pattern y="934.5" width="50" height="50" patternUnits="userSpaceOnUse" id="SVGID_24_" viewBox="0 -50 50 50" overflow="visible"><path class="st0" d="M0-50h50V0H0z"/><path class="st0" d="M0-50h50V0H0z"/><path class="st0" d="M0-50h50V0H0v-50z"/><path class="st3" d="M0-50h50v6.3H0V-50z"/><path class="st2" d="M0-43.7h50v6.3H0v-6.3z"/><path class="st3" d="M0-37.5h50v6.3H0v-6.3z"/><path class="st2" d="M0-31.2h50v6.3H0v-6.3z"/><path class="st3" d="M0-24.9h50v6.3H0v-6.3z"/><path class="st2" d="M0-18.7h50v6.3H0v-6.3z"/><path class="st3" d="M0-12.4h50v6.3H0v-6.3z"/><path class="st2" d="M0-6.3h50V0H0v-6.3z"/></pattern><pattern y="934.5" width="50.9" height="47" patternUnits="userSpaceOnUse" id="SVGID_25_" viewBox="50.9 -94.2 50.9 47" overflow="visible"><path class="st0" d="M50.9-94.2h50.9v47H50.9z"/><path class="st0" d="M50.9-94.2h50.9v47H50.9z"/><path class="st0" d="M50.9-94.2h50.9v47H50.9v-47z"/><path class="st3" d="M101.7-47.5h50.9V0h-50.9v-47.5z"/><path class="st3" d="M50.9-47.5h50.9V0H50.9v-47.5zM0-47.5h50.9V0H0v-47.5z"/><path class="st3" d="M101.7-94.6h50.9v47.5h-50.9v-47.5z"/><path class="st3" d="M50.9-94.6h50.9v47.5H50.9v-47.5z"/><path class="st4" d="M63.8-89.5H62v-4.6h1.8v4.6zm7.5 2.1l-1.5 1.1-2.7-3.8 1.5-1.1 2.7 3.8zM64.2-80.7l.3-1.8 4.6.9-.3 1.8-4.6-.9zM73.5-80.9l-1.3-1.2 2.9-3.6 1.4 1.2-3 3.6zm4.4 6.4l-1.8-.1.4-4.7 1.8.2-.4 4.6zM67.8-73l.9-1.6 4.1 2.3-.9 1.6-4.1-2.3zM55.1-87.3l-1.5 1-2.7-3.8 1.5-1 2.7 3.8zm2.2 6.4l-1.4-1.2 3-3.5 1.4 1.1-3 3.6zM59.9-79.1l1.8-.2.4 4.7-1.8.2-.4-4.7zM51.6-72.2l4.1-2.3.9 1.6-4.1 2.3-.9-1.6zM78.8-89.5v-4.7h1.8v4.7h-1.8zM88.1-87.4l-1.5 1.1-2.7-3.9 1.5-1 2.7 3.8zM81-80.7l.3-1.8 4.6.9-.3 1.8-4.6-.9zM90.4-81L89-82.1l3-3.6 1.4 1.2-3 3.5zM92.9-79.1l1.8-.2.4 4.7-1.8.2-.4-4.7zM84.7-72.4l4.1-2.3.9 1.6-4.1 2.3-.9-1.6zM94.5-89.6v-4.7h1.8v4.7h-1.8zM96.8-80.7l.3-1.8 4.6.9-.3 1.8-4.6-.9zM62-65.9v-4.7h1.8v4.7H62zM71.3-63.8l-1.5 1.1-2.6-3.8 1.4-1.1 2.7 3.8zM64.3-57.1l.4-1.8 4.6.9-.4 1.8-4.6-.9zM72.2-60.9l1.4-1.2 3 3.6-1.4 1.2-3-3.6zM76.1-55.5l1.8-.2.4 4.7-1.8.2-.4-4.7zM67.9-49.4l.8-1.6 4.1 2.3-.9 1.5-4-2.2z"/><g><path class="st4" d="M55.1-63.7l-1.5 1-2.7-3.8 1.5-1 2.7 3.8zM55.9-60.8l1.4-1.2 3 3.6-1.3 1.1-3.1-3.5zM59.9-55.5l1.8-.2.4 4.7-1.8.2-.4-4.7zM51.6-48.8l4.1-2.3.9 1.6-4.1 2.3-.9-1.6z"/></g><g><path class="st4" d="M80.7-65.9h-1.8l-.1-4.7h1.8l.1 4.7zM83.9-63.8l2.7-3.8 1.5 1-2.7 3.8-1.5-1zM81.4-56.2l-.3-1.7 4.5-.9.4 1.7-4.6.9zM89-61l1.4-1.2 3 3.6-1.4 1.2-3-3.6zM92.9-55.5l1.8-.2.4 4.7-1.8.2-.4-4.7zM84.7-49.4l.9-1.6 4 2.2-.8 1.6-4.1-2.2z"/></g><g><path class="st4" d="M96.4-65.9h-1.8v-4.7h1.8v4.7zm.8 9.7l-.4-1.8 4.6-.9.4 1.8-4.6.9z"/></g><g><path class="st3" d="M0-94.6h50.9v47.5H0v-47.5z"/></g><g><path class="st3" d="M101.7-141.6h50.9v47.5h-50.9v-47.5z"/></g><g><path class="st3" d="M50.9-141.6h50.9v47.5H50.9v-47.5z"/></g><g><path class="st3" d="M0-141.6h50.9v47.5H0v-47.5z"/></g></pattern><pattern y="934.5" width="50" height="50" patternUnits="userSpaceOnUse" id="SVGID_3_" viewBox="0 -50 50 50" overflow="visible"><path class="st0" d="M0-50h50V0H0z"/><path class="st0" d="M0-50h50V0H0z"/><path class="st0" d="M0-50h50V0H0v-50z"/><path class="st1" d="M0-50h50v6.3H0V-50z"/><path class="st2" d="M0-43.7h50v6.3H0v-6.3z"/><path class="st1" d="M0-37.5h50v6.3H0v-6.3z"/><path class="st2" d="M0-31.2h50v6.3H0v-6.3z"/><path class="st1" d="M0-24.9h50v6.3H0v-6.3z"/><path class="st2" d="M0-18.7h50v6.3H0v-6.3z"/><path class="st1" d="M0-12.4h50v6.3H0v-6.3z"/><path class="st2" d="M0-6.3h50V0H0v-6.3z"/></pattern><linearGradient id="SVGID_1_" gradientUnits="userSpaceOnUse" x1="365.744" y1="-33.847" x2="362.972" y2="-866.362" gradientTransform="translate(0 858)"><stop offset="0" stop-color="#fff"/><stop offset=".093" stop-color="#f7fdff"/><stop offset=".239" stop-color="#e0f8ff"/><stop offset=".419" stop-color="#bcf0ff"/><stop offset=".627" stop-color="#89e5ff"/><stop offset=".856" stop-color="#48d7ff"/><stop offset=".943" stop-color="#2ed1ff"/></linearGradient><path d="M0 0h728v600.8H0V0z" fill="url(#SVGID_1_)"/><path class="st6" d="M395.8 705.1l319.6-212.6s-64.2 2.6-84.7 2.6-28.2 8.3-28.2 8.3-38.5 30.2-102.1 13.5c-63.6-16.7-86-35.3-97.6-39.2-11.5-3.8-21.8 2-46.2 19.3-24.4 17.4-34 9-41.7 5.8s-10.9-9-27.6 0c-16.6 9-42.3 7.7-60.3 5.8-18-1.9-50.1-21.8-50.1-21.8-15.4-7.7-64.9-.6-89.9-5.1s-69.3-18.6-69.3-18.6c-5.8 2-11.7 3.8-17.7 5.5v99.9l395.8 136.6z"/><path d="M491.4 780.2l236.3-15.7v-288c-90.1 55-272 164.2-368.5 209.9l132.2 93.8z" fill="#a7c6ca"/><path class="st8" d="M395.9 705.1l15.4-31.5C306.8 670.7 78.9 545.9 0 503.8v193.5l395.9 7.8z"/><path d="M239.8 780.2l487.9-63.7v-30.7c-95.1 2.7-238 6.6-260 6.6-33.4 0-96.9-21.8-177.8-14.1s-146.3-42.4-236.2-56.5c-15.9-2.5-34.3-7.9-53.7-15v173.5l239.8-.1z" fill="#bdd4d7"/><path class="st6" d="M60.7 763.5l56.5-21.2c-40.7.6-79.8.9-117.2 1V765l60.7-1.5z"/><path d="M232.5 738.5c0-2.3-2.4-4.1-5.3-4.1-.8 0-1.5.1-2.2.4-1.3-1.4-3.2-2.4-5.3-2.4-2.8 0-5.2 1.6-6.4 4-.2 0-.5-.1-.7-.1-2.3 0-4.3 1.8-4.3 4h23.4c.6-.5.8-1.2.8-1.8z" fill="#d3e2e4"/><path class="st11" d="M226.3 557.7h426.2c3.3 0 6-2.7 6-6v-80.8c0-3.3-2.7-6-6-6H226.3c-3.3 0-6 2.7-6 6v80.8c0 3.4 2.7 6 6 6z"/><path class="st12" d="M479.8 492.2l9.4.1s1.4 4.2 1.2 12.2c0 .3-8.1 2.6-8.1 2.6l-2.5-14.9z"/><path class="st12" d="M473.7 512.2c1.9-3.3 8.2-10.7 8.2-10.7l8.4-1.4s6 4.3 7.5 11.4c.1.3-.5 7.7-.5 7.7H472c0 .1 1.7-6.9 1.7-7zm2.9-18.4c.3 1.1 1.7 1.1 4.2 1.6h1.2c.6-.1 1.3-.2 2-.5 1.7-.5 3.4-1.2 3.8-1.4 3.4-1.5 4.7-7.7 4.7-10.2 0-5.4-4.6-6-8.1-5.4-1.9.3-3.3 1.1-4.5 2-2 1.6-2.9 4.8-2.8 5.2.2.5.4 1.1.4 1.5 0 .8-.5 1.7-.5 2.2v.4c.2 3.6-.7 3.2-.4 4.6z"/><path class="st13" d="M480.5 484.6c-.2-.3-1.6-1.1-3-.2"/><circle class="st14" cx="479" cy="486.1" r=".5"/><path class="st12" d="M477.7 485.2c-.7 2-1.5 2.9-1.7 3.7 0 .1 1.1.3 1.2.3 0 0 .6-.8.7-1.7.2-1.1-.2-2.3-.2-2.3z"/><path class="st15" d="M485.1 495.7c-.2.1 1.1 5.2-3.6 6.6l-1.1-6.9 4.7.3z"/><path class="st12" d="M477.1 490s1.2.3 1.2.5c0 .5-1.3.5-1.3.5l.1-1z"/><path class="st13" d="M476.6 493.8c.3 1.1 1.7 1.1 4.2 1.6h1.2c.5 0 .9-.1 1.3-.1.3-.1.5-.2.8-.3 1.7-1.1 1.7-4.5 1.7-4.5l-8.6-1.4v.2c0 3.5-.9 3.1-.6 4.5z"/><path class="st16" d="M485.8 482.9s-7.9.4-9-.6-4.5-6.8 1.4-6.8 9.7 4 9.7 4l-2.1 3.4z"/><path class="st17" d="M490.3 498.7l-10.5 5.3-6.3 8.3-1.7 7.1h25.4l.6-8.5s-2.2-6.4-5.6-9l-1.9-3.2z"/><path class="st2" d="M490.5 498.2l-10.7 5.9 11.8-3.9-1.1-2z"/><path class="st16" d="M479.4 479.8s5.1-6.6 12.6-2.1c4.6 2.7 2.6 9.6-2.5 15.4-.1.1-2.3-.4-2.9-1.5-.8-1.3-.7-5-.7-5l-2.7.6s-.7-2.9-.8-3.4c-.4-2.2-3-4-3-4z"/><path class="st15" d="M486.3 485.8s.2 1.9-.7 2.3c-.6.2-1.2 0-1.2 0s.3 2.8 1.9 2.2c1.6-.6 0-4.5 0-4.5z"/><path class="st12" d="M484.4 486.4s.9-1.7 1.6-1c.8.7.5 2.5-1 2.5-.9 0-1-.2-1-.2l.4-1.3z"/><path class="st12" d="M485.1 486.5c0-.3.4-.5.6-.2v.3c0 .2-.1.3-.2.5s-.3.1-.5 0l.1-.6z"/><path class="st18" d="M489.6 512.5s.3 3.6-2.1 5.7c-2.8 2.5-14.4 13-15.1 13.2-4.9 1.5-4.5-3-3.5-5 1-1.9 3-7.3 6.9-11.4 3.5-3.5 10-9.8 13.8-2.5z"/><path class="st12" d="M470.8 530.7c-1.9.5-2.4-.6-2.4-.6-2.1-6.2-4.4-14.3-5.7-18.3-.2-.7-.1-1.1-.2-1.6l2.6-1.5c12.9 17.5 7.7 21.5 5.7 22zm-7.6-26.8c0 .1-.3-1.3-.6-1.9-.1-.2.1-1.1 0-1.7 0-.1.3-.6.6-1.2.2-.4-.1-.8-.1-.8l-1.7 1.9-.1 2-.3 2.3s.4.5 1.4.3c.7-.2.8-.9.8-.9z"/><path class="st12" d="M465.6 504.1c.1.4 0 1.3.1 1.7.1 1.4-.2 1.8-.4 4.4-.2 2.8-2.5 2.4-2.7 1.2-.1-.4-.1-.9-.1-1.3-.2-1-1.3-3.8-1.5-5.4 0 0 .3-.9 1-1 .9-.2 1.3.5 1.3.5.1.2.1.5.5.5.5-.2.7-.5.7-1-.1-1.2.3-1.6.6-1.6-.1.2.4 1.3.5 2z"/><path class="st12" d="M463.2 504.5s0-1.4-.2-2c-.1-.2.3-1 .3-1.7 0-.1.5-.6.8-1s.1-.8.1-.8l-2.1 1.5-.5 1.9-.7 2.2s.3.7 1.2.6c.5 0 1.1-.6 1.1-.7zM489 512s.3 3.6-2.1 5.7c-2.8 2.5-14.4 13-15.1 13.2-4.9 1.5-4.5-3-3.5-5 1-1.9 3-7.3 6.9-11.4 3.5-3.6 10-9.9 13.8-2.5z"/><path d="M483.2 521.7l-8.5-8 8.5-6.5 5.9 1.7 1.4 5.4-7.3 7.4z" fill="#19b4d8"/><path class="st2" d="M474.7 513.7l8.5 8-.6.5-8.5-7.9.6-.6z"/><path class="st20" d="M542.3 485.6s1.3 6.1-2.2 9c-6.9 5.8-.6 12 5 10.6 5.5-1.4 3.8-13.1 3.8-13.1l-6.6-6.5z"/><path class="st16" d="M543.7 487.1s.3 5.4-2.2 9.2c-3.1 4.6.2 9.3 2.8 9 .5-.1 5.3-6.2 5.3-6.2s-4.7-12-5.9-12z"/><path class="st21" d="M543.7 491.2l5.6-.2s3.1 3.9 2.9 10.3c0 .3-6.5 2.1-6.5 2.1l-2-12.2z"/><pattern id="SVGID_4_" xlink:href="#SVGID_2_" patternTransform="matrix(-.9292 0 0 .9292 -40698.004 14439.959)"/><path d="M541 518s7.6-6.3 7.1-6.3-4.6-8.4-4.6-8.4" fill="url(#SVGID_4_)"/><path class="st21" d="M551.4 504.5s.5 3.7-2.7 10.1c-3.2 6.5-14.8 14.8-15.6 15.1-5.5 1.6-5.6-2.8-4.5-5 1-1.9 3.5-6.1 10.4-14.5 3.3-4 8.7-9.3 12.4-5.7z"/><pattern id="SVGID_5_" xlink:href="#SVGID_3_" patternTransform="matrix(-.8329 .412 .412 .8329 -34901.617 14593.85)"/><path d="M543.5 505.2l-5.3 5.4 9.6 8.9" fill="url(#SVGID_5_)"/><path class="st24" d="M559 515.4l-4.7 18.5-13.8.2-1.4-18.9 19.9.2z"/><path class="st21" d="M554.9 533.9l-14.1-.2s-3.8 5.7.8 15.4c.5 1.1 2.8 10.8 2.8 10.8s11.5 3.3 16.8-.6c.5-.4 2-5.7 2.4-7.5 1.9-6.9-3.9-10-8.7-17.9z"/><path class="st24" d="M542.9 518.8s-7.1.6-7.1-3.6c0-2.2.2-.7 6.1-9.1"/><path class="st21" d="M537.4 518.5c-2.1-2.4-4.8-.2-4.8-.2-5.1 4.2-13.5 13.7-15.8 17.7-.4.8-.7 1.2-.9 1.8 0 0-.4 1.4.9 1.9.7.2 2.7-1.4 2.7-1.4 23.8-15.7 19.3-18.1 17.9-19.8zm-23.8 26.7c.1-.1-.9 1.2-1.5 1.7-.2.1-.4 1.2-.9 1.7-.1.1.1.8.1 1.5 0 .5-.5.7-.5.7l-.9-2.8.8-2.1.8-2.5s.7-.3 1.5.3c.7.7.6 1.4.6 1.5z"/><path class="st21" d="M516.1 546c.3-.4.6-1.3.8-1.7.8-1.3 1.3-4.5 1.7-5.2s.8-1.6-.3-2.5c-1.2-1-2 .5-2 .5-.4.6-.5.9-.7 1.3-.7.9-3.1 3.2-4.1 4.8 0 0-.1 1.1.5 1.5.8.6 1.6.1 1.6.1.2-.2.4-.4.7-.2.4.4.6 1 .5 1.4-.8 1.4-.7 1.5-.4 1.9.2 0 1.3-1.3 1.7-1.9z"/><path class="st21" d="M513.9 544.5s-.6 1.4-1.1 2c-.1.1-.1 1.2-.5 1.9-.1.1.2.8.4 1.5.1.5-.3.8-.3.8l-1.4-2.5.4-2.2.3-2.6s.6-.6 1.5-.1c.4.2.7 1.1.7 1.2zm26.1-35.8c1.4-1.5 4.9-9.9 4.9-9.9l7.8-.4s4.9 4.9 5.6 8.7c.7 3.9.1 8.1.1 8.1h-17.6s-.8-6.4-.8-6.5z"/><pattern id="SVGID_6_" xlink:href="#SVGID_16_" patternTransform="matrix(.453 0 0 .453 -10996.703 2613.326)"/><path d="M554.8 500.7s-2.4 2.9-6.4 3-4.9-1.5-4.9-1.5l-.8 1.7-6.8 10.3s-1.4 3.3 3.6 4.6l1.1 15.3 13.9-.1s6.4-18 5.1-24.3c-1.4-6.3-4.8-9-4.8-9" fill="url(#SVGID_6_)"/><path class="st21" d="M556.8 505s4.4 3.5 2 10.2c-1.4 3.9-6.8 19.8-7.4 20.4-4.2 3.8-6.3 0-6.2-2.6 0-2.1.1-11.6 2.4-17.4 1.9-4.7 4.3-12.3 9.2-10.6z"/><path class="st21" d="M552.3 531.9c1.3 2.9-1.8 4.4-1.8 4.4-6 2.9-18.1 6.5-22.7 6.9-.9.1-1.4.1-2 .1 0 0-1.5-.2-1.3-1.6.1-.7 2.4-1.9 2.4-1.9 24.1-15 24.4-10 25.4-7.9zm-34.2 10.4c.1 0-1.5.3-2.2.7-.2.1-1.2-.1-1.9 0-.1 0-.7-.4-1.3-.7-.5-.2-.9.1-.9.1l2.2 1.9 2.2.2 2.6.3s.6-.5.3-1.5c-.3-.9-1-1.1-1-1z"/><path class="st21" d="M518.3 539.6c.5-.1 1.5 0 1.9-.1 1.5-.1 4.7.7 5.4.6.8-.1 1.8-.1 2.1 1.3.4 1.5-1.3 1.6-1.3 1.6-.7.1-1 .1-1.4.2-1.2.3-4.2 1.5-6.1 1.7 0 0-1-.3-1.2-1.1-.2-1 .6-1.5.6-1.5.2-.1.6-.2.5-.6-.2-.6-.7-1-1.1-1-1.6.1-1.7 0-1.9-.4.2-.1 1.8-.6 2.5-.7z"/><path class="st21" d="M518.8 542.2s-1.5 0-2.3.2c-.2.1-1.2-.4-1.9-.3-.1 0-.6-.5-1.2-.9-.4-.3-.9-.1-.9-.1l1.7 2.3 2.2.6 2.5.8s.8-.3.7-1.3c0-.6-.7-1.3-.8-1.3z"/><pattern id="SVGID_7_" xlink:href="#SVGID_17_" patternTransform="matrix(.453 0 0 .453 -10996.703 2613.326)"/><path d="M557.8 520s5.4-14.6-1.7-15.4c-6.3-.7-9.7 12.6-9.7 12.6l11.4 2.8z" fill="url(#SVGID_7_)"/><path class="st27" d="M547.6 492.8c.3 1.3-.6 5.6-2.6 6.3l-1.2-7.1 3.8.8z"/><path class="st21" d="M541.6 485.7c.1 1.4.1 2.5.1 3.5v.7c0 3.1-.2 3.6 2.4 4 1.5.2 5.3-1.9 5.6-2.4 1.1-1.9 2.7-4.6 2.7-6.6 0-4.2-3.3-6.2-6.1-6.2-1.6 0-3.9 1.5-4.4 3.2-.6 1.8-.4 2-.3 3.8z"/><path d="M544.5 484.9c-.1-.1-.2-.1-.3-.2-.2-.1-.3-.1-.5-.1-.6-.1-1.1 0-1.7.1-.2 0-.3-.3-.1-.3.6-.1 1.3-.2 1.9-.1.3.1.7.2 1 .4.1.1-.1.3-.3.2z" fill="#edb6ab"/><circle class="st14" cx="543.3" cy="485.9" r=".4"/><path class="st21" d="M541.8 485.4c-.1.1-.6 1.2-1 1.7-.2.3 0 .4.4.5l.6.1c.4 0 0-2.3 0-2.3z"/><path class="st2" d="M542 489.9c.7 0 .9-.6.9-.6s-.4 0-.9-.1v.7z"/><path class="st20" d="M547.6 480.3c-.1 0-.3 1.1-1.2 1.1-2.9 0-5.8-.9-5-3.7.4-1.7 2.5-1.9 5.8-.9 4.5 1.4 7.1 4.1 7.6 5.5.8 2.4-7.2-2-7.2-2z"/><path class="st20" d="M545 479.2c-.1 0-.2 2.6 1.1 4.8.6 1 3.8 1.7 3.9 3.2 0 .7-1.1 1.9-1.2 2.8-.5 6.8-1.1 14.9 8.1 15.5 5.8.4 9-1.6 8.2-7.9-.3-2.1-3.1-4.4-7.6-5.1-1-.2-1.8-4.9-2.1-8.1-.2-2.6-2-4.1-2-4.1s-5.9-2.7-8.4-1.1z"/><path class="st27" d="M550.4 486.5c0 .1 1.1 3.8-1.4 4.7-.3.1-.2-2.5-.2-2.5l1.6-2.2z"/><g><path class="st21" d="M548.6 486.8s1-1.2 1.6-.6-.5 2.7-1.2 2.5-.7-.6-.7-.6l.3-1.3z"/><path class="st21" d="M549 486.9c.2-.1.4-.1.5.1 0 .1.1.1.1.2s0 .3-.1.4-.2.2-.4.1"/></g><g><path d="M344.4 485.9c-.6.8-1.3 1.4-1.9 2.1-1 1.1-4.2 3.6-4.2 6.5.1 4.8 3.4 5.7 5.6 5.9.6 0 1.2.3 1.8.1.9-.3 3-1.2 3.5-2 1.8-2.7-.8-7.7 0-10.8.4-1.6 1.2-5.3-1-6-.8-.3-1.5 0-1.9.7-.8 1.1-1.1 2.4-1.9 3.5z"/><path class="st29" d="M345.2 487.6l5.7.1s3 4.2 2.5 10.7c0 .3-6.8 1.8-6.8 1.8l-1.4-12.6z"/><path d="M350.1 488.5c-.2.1-.2 4.7-4.1 5.7l-.8-6.4 4.9.7z" opacity=".64" fill="#947347"/><path class="st29" d="M343.5 481.7c.3 1.2-.2 1.8-.3 2.6-.2 3.9-.7 5.4 2.2 6 1.5.3 5.5-1.7 5.8-2.2 1.2-1.9 3-4.6 3.1-6.6.2-4.3-3-6.5-5.9-6.6-1.6-.1-4 1.3-4.7 3-.5 1.9-.6 2.1-.2 3.8z"/><path class="st29" d="M346.2 481.4c-.2-.2-.5-.4-.8-.5-.4-.1-.8-.1-1.2 0-.2 0-.2-.3 0-.3.4 0 .9 0 1.3.1s.7.3.9.6c.2 0 0 .3-.2.1z"/><circle cx="345.1" cy="482.1" r=".4"/><path class="st29" d="M343.6 481.7c-.1.1-.2.9-.8 1.8-.3.4.2.9.7.9h-.1c1.4-.9.2-2.7.2-2.7z"/><path d="M343.6 484.7s1.5.9 1.4 1c-.2.8-1.5.8-1.5.8s-1.1-.3-.4-1c.3-.1-.3-.6.5-.8z" fill="#573a22"/><pattern id="SVGID_8_" xlink:href="#SVGID_18_" patternTransform="matrix(-.9292 0 0 .9292 -40730.867 14434.059)"/><path d="M343.4 512.7s7.6-6.3 7.1-6.3c-.4 0-4.6-8.4-4.6-8.4" fill="url(#SVGID_8_)"/><path class="st29" d="M353.9 499.2s.5 3.7-2.7 10.1c-3.2 6.5-14.8 14.8-15.6 15.1-5.5 1.6-5.6-2.8-4.5-5 1-1.9 3.5-6.1 10.4-14.5 3.2-4 8.7-9.4 12.4-5.7z"/><pattern id="SVGID_9_" xlink:href="#SVGID_19_" patternTransform="matrix(-.8329 .412 .412 .8329 -34912.543 14588.83)"/><path d="M346 499.9l-5.3 5.4 9.5 8.8" fill="url(#SVGID_9_)"/><path class="st24" d="M361.5 510.1l-4.7 18.5-13.9.2-1.4-19 20 .3z"/><path class="st29" d="M357.3 528.6l-14.1-.2s-3.8 5.7.8 15.4c.5 1.1 2.8 10.8 2.8 10.8s11.5 3.3 16.8-.6c.5-.4 2-5.7 2.4-7.5 2-6.9-3.8-10-8.7-17.9z"/><path class="st24" d="M345.4 513.4s-7.1.6-7.1-3.6c0-2.2.2-.7 6.1-9.1"/><path class="st29" d="M339.8 513.1c-2.1-2.4-4.8-.2-4.8-.2-5.1 4.2-13.5 13.7-15.8 17.7-.4.8-.7 1.2-.9 1.8 0 0-.4 1.4.9 1.9.7.2 2.7-1.4 2.7-1.4 23.8-15.7 19.4-18.1 17.9-19.8zM316 539.8c.1-.1-.9 1.2-1.5 1.7-.2.1-.4 1.2-.9 1.7-.1.1.1.8.1 1.5 0 .5-.5.7-.5.7l-.9-2.8.8-2.1.8-2.5s.7-.3 1.5.3c.8.7.7 1.5.6 1.5z"/><path class="st29" d="M318.6 540.7c.3-.4.6-1.3.8-1.7.8-1.3 1.3-4.5 1.7-5.2.4-.7.8-1.6-.3-2.5-1.2-1-2 .5-2 .5-.4.6-.5.9-.7 1.3-.7.9-3.1 3.2-4.1 4.8 0 0-.1 1.1.5 1.5.8.6 1.6.1 1.6.1.2-.2.4-.4.7-.2.4.4.6 1 .5 1.4-.8 1.4-.7 1.5-.4 1.9.1 0 1.3-1.3 1.7-1.9z"/><path class="st29" d="M316.4 539.2s-.6 1.4-1.1 2c-.1.1-.1 1.2-.5 1.9-.1.1.2.8.4 1.5.1.5-.3.8-.3.8l-1.4-2.5.4-2.2.3-2.6s.6-.6 1.5-.1c.4.1.7 1.1.7 1.2zM342.5 503.4c1.4-1.5 4.9-9.9 4.9-9.9l7.8-.4s4.9 4.9 5.6 8.7c.7 3.9.1 8.1.1 8.1h-17.6c0-.1-.8-6.5-.8-6.5z"/><path class="st2" d="M357.2 495.4s-2.4 2.9-6.4 3-4.9-1.5-4.9-1.5l-.8 1.7-6.8 10.3s-1.4 3.3 3.6 4.6l1.1 15.3 13.9-.1s6.4-18 5.1-24.3c-1.4-6.4-4.8-9-4.8-9"/><path class="st29" d="M359.3 499.7s4.4 3.5 2 10.2c-1.4 3.9-6.8 19.8-7.4 20.4-4.2 3.8-6.3 0-6.2-2.6 0-2.1.1-11.6 2.4-17.4 1.8-4.7 4.2-12.3 9.2-10.6z"/><path class="st29" d="M354.7 526.5c1.3 2.9-1.8 4.4-1.8 4.4-6 2.9-18.1 6.5-22.7 6.9-.9.1-1.4.1-2 .1 0 0-1.5-.2-1.3-1.6.1-.7 2.4-1.9 2.4-1.9 24.2-14.9 24.5-9.9 25.4-7.9zm-34.2 10.4c.1 0-1.5.3-2.2.7-.2.1-1.2-.1-1.9 0-.1 0-.7-.4-1.3-.7-.5-.2-.9.1-.9.1l2.2 1.9 2.2.2 2.6.3s.6-.5.3-1.5c-.2-.8-.9-1-1-1z"/><path class="st29" d="M320.8 534.3c.5-.1 1.5 0 1.9-.1 1.5-.1 4.7.7 5.4.6.8-.1 1.8-.1 2.1 1.3.4 1.5-1.3 1.6-1.3 1.6-.7.1-1 .1-1.4.2-1.2.3-4.2 1.5-6.1 1.7 0 0-1-.3-1.2-1.1-.2-1 .6-1.5.6-1.5.2-.1.6-.2.5-.6-.2-.6-.7-1-1.1-1-1.6.1-1.7 0-1.9-.4.2-.1 1.8-.6 2.5-.7z"/><path class="st29" d="M321.3 536.9s-1.5 0-2.3.2c-.2.1-1.2-.4-1.9-.3-.1 0-.6-.5-1.2-.9-.4-.3-.9-.1-.9-.1l1.7 2.3 2.2.6 2.5.8s.8-.3.7-1.3c0-.6-.8-1.3-.8-1.3z"/><path class="st2" d="M360.3 514.7s5.4-14.6-1.7-15.4c-6.3-.7-9.7 12.6-9.7 12.6l11.4 2.8z"/><path d="M365.4 500.9c-1.5.5-3.1 0-4.5-.5-1.6-.6-3.1-1.3-4.6-2.1-.6-.3-1.1-.6-1.5-1.2-.5-.6-.6-1.4-.7-2.1-.2-1-.3-2.1.2-3 .4-.7 1.3-1.2 2.1-1.2 2.9-.3 6.3 2 8.4 3.8.9.8 2.4 1.9 2.7 3 .4 1.4-.8 2.9-2.1 3.3z"/><path d="M367.1 489.3c.8.3 1.7.7 2.1 1.4.3.5.3 1.2.3 1.8s0 1.3-.4 1.8c-.5.8-1.4 1.1-2.3 1.1-2.4 0-4.4-1.8-6.6-2.7-1-.4-2-.7-2.9-1.3-.9-.6-1.6-1.5-1.6-2.6.4-5.6 9.3-.4 11.4.5z"/><path d="M353.1 482.7c1 .8 2.3 1.1 3.5.7.4 2.4 2.1 4.5 4.1 5.8.6.4 1.2.7 1.9.7.6 0 1.2-.1 1.7-.3 1.4-.5 2.8-1.2 3.4-2.6.4-.9.3-2-.2-2.9s-1.4-1.4-2.4-1.5c-.9-.1-1.7.2-2.6 0-.9-.1-1.7-.7-2.3-1.4-.9-.9-1.9-3.2-2.6-4.3-2.7-3.9-5.5-2.6-6.9-2.5-3 .5.5 6.8 2.4 8.3z"/><path d="M349.3 478.4c-.2 0-5.8 1-7.4-1.4-1.5-2.2.4-5.6 4.4-5.1 4.9.6 9.5 4.3 10 6.5.9 3.6-7 0-7 0z"/><path d="M344.7 476.3s1.9 7.3 4.4 7 2.8-4.5 2.8-4.5l-7.2-2.5z"/><path d="M346.6 477.4s4.7 3.5 3.3 8c-2.6 8.2-.2 12.9 4.2 14.5s10.4 1.5 10.5 1-6.9-21.8-6.9-21.8l-11.1-1.7z"/><path class="st29" d="M349.3 483.3s1-1.2 1.5-.6-.2 2.7-.8 2.4c-.6-.3-1-.6-1-.6l.3-1.2z"/><path class="st29" d="M350 483.4c.2-.1.4-.1.5.1v.2c0 .1 0 .3-.1.4s-.2.2-.3.1"/></g><g><path class="st34" d="M612.4 494l9.4.1s1.4 4.3 1.2 12.2c0 .3-8.1 2.6-8.1 2.6l-2.5-14.9z"/><path class="st34" d="M609.7 486.3c.2.5.4 1.2.4 1.6 0 .9-.5 1.8-.5 2.3.2 4.2-.8 3.8-.4 5.3.3 1.1 1.7 1.2 4.2 1.7 1.8.4 6.3-1.6 7-2 3.4-1.5 4.7-8.1 4.7-10.8 0-5.7-4.7-6.3-8.1-5.7-1.9.3-3.4 1.1-4.5 2.1-2 1.7-3 5.1-2.8 5.5z"/><path d="M613.1 486.4c-.2-.3-1.6-1.1-3-.2"/><circle class="st14" cx="611.6" cy="487.9" r=".5"/><path class="st34" d="M610.3 486.9c-.7 2-1.5 2.9-1.7 3.7 0 .1 1.1.3 1.2.3l.5-4z"/><path class="st35" d="M617.7 497.5c-.2.1 1.1 5.2-3.7 6.6l-1.1-7 4.8.4z"/><path class="st34" d="M609.7 491.7s1.2.3 1.2.5c0 .5-1.3.5-1.3.5l.1-1z"/><path d="M609.6 490.8s2.9.2 2.9 1.2c0 .1-2.9-.3-2.9-.3v-.9zm-.1-7.3s3.9-10 14.2-4.4c4.7 2.6 2.9 9.8-1.1 15.9-.1.1-2.4.4-3-.6-.8-1.3-1-5.9-1-5.9l-2.7.6s-.3-3.3-.8-3.4c-4.8-1.5-5.6-2.2-5.6-2.2z"/><path class="st35" d="M618.9 487.5s.2 1.9-.7 2.3c-.6.2-1.2 0-1.2 0s.3 2.8 1.9 2.2c1.4-.6 0-4.5 0-4.5z"/><path class="st34" d="M617 488.2s.9-1.7 1.6-1c.8.7.5 2.5-1 2.5-.9 0-1-.2-1-.2l.4-1.3z"/><path class="st34" d="M617.7 488.2c0-.3.4-.5.6-.2v.3c0 .2-.1.3-.2.5s-.3.1-.5 0l.1-.6zm-11.6 26.5c1.9-3.3 8.2-10.7 8.2-10.7l8.4-1.4s6 4.3 7.5 11.4c.1.3-.5 7.7-.5 7.7h-25.3c0 .1 1.6-6.9 1.7-7z"/><path class="st13" d="M608.3 497.7c0-.1 0 0 0 0z"/><path d="M622.7 501.2l-10.5 5.3-6.3 8.3-1.7 7.1h25.5l.6-8.5s-2.2-6.4-5.6-9l-2-3.2z" fill="#1d6d75"/><path class="st1" d="M622.9 500.7l-10.8 5.9 11.9-3.9-1.1-2z"/><path class="st18" d="M622 515s.3 3.6-2.1 5.7c-2.8 2.5-14.4 13-15.1 13.2-4.9 1.5-4.5-3-3.5-5 1-1.9 3-7.3 6.9-11.4 3.4-3.5 10-9.8 13.8-2.5z"/><path class="st34" d="M607.6 528.4c1 1.7 0 2.5 0 2.5-5.4 3.7-12.5 8.2-16 10.5-.7.4-1 .4-1.4.6l-2.2-2.1c13.2-17.2 18.5-13.3 19.6-11.5z"/><path class="st12" d="M583.9 543.1c.1-.1-1.2.6-1.7 1.1-.1.1-1.1.2-1.6.5-.1 0-.7-.2-1.3-.3-.5-.1-.7.3-.7.3l2.3 1.1 2-.4 2.3-.4s.4-.6-.1-1.4c-.5-.6-1.2-.5-1.2-.5z"/><path class="st34" d="M583.4 540.7c.4-.2 1.3-.4 1.6-.5 1.3-.5 1.7-.3 4.3-.9 2.8-.6 3 1.7 1.9 2.3-.3.2-.9.3-1.2.5-.9.5-3.3 2.3-4.8 3 0 0-1 0-1.3-.7-.5-.8.1-1.4.1-1.4.2-.1.4-.3.3-.6-.3-.4-.6-.5-1.2-.4-1.1.4-1.6.2-1.7-.1.5-.1 1.4-.9 2-1.2z"/><path class="st34" d="M584.5 542.9s-1.3.4-1.9.7c-.1.1-1.1 0-1.7.2-.1 0-.7-.3-1.2-.5s-.8.2-.8.2l2.1 1.6h2l2.3.1s.6-.5.3-1.3c-.3-.7-1.1-1-1.1-1zm36.9-28.4s.3 3.6-2.1 5.7c-2.8 2.5-14.4 13-15.1 13.2-4.9 1.5-4.5-3-3.5-5 1-1.9 3-7.3 6.9-11.4 3.5-3.6 10-9.9 13.8-2.5z"/><path class="st1" d="M615.5 524.2l-8.4-8 8.4-6.5 6 1.7 1.4 5.4-7.4 7.4z"/><path d="M607.1 516.2l8.4 8-.5.5-8.5-7.9.6-.6z" fill="#005156"/></g><g><path class="st38" d="M426.1 521.9c-2.2-1.3-3.9 1.2-3.9 1.2-3.1 4.7-7.6 14.3-8.5 18-.2.7-.3 1.2-.3 1.6 0 0 0 1.2 1.2 1.2.6 0 1.8-1.8 1.8-1.8 15.4-18.7 11.3-19.3 9.7-20.2z"/><path class="st38" d="M423.5 499.6s5.7.1 5.5 7.5c-.1 3.5-1.1 17.7-1.4 18.3-2.4 4-4.8 1.3-5.3-.8-.4-1.8-1.2-9.5-1.8-14.8-.4-3.3-1.1-10.6 3-10.2zm14.7 28.8l-15.8.3s.8 8.3 1.3 11.4c.2 1 1.4 8.4 1.4 8.4s9.2 2.8 13.4-.5c.4-.3.9-2.4 1.3-3.9 1.5-5.9 2.3-9-1.6-15.7z"/><path class="st38" d="M416.2 500.3l4.4-5.2s11.4 1.8 13.9 7.9c4.1 9.9 4.1 25.6 4.1 25.6l-16.2.2-6.2-28.5z"/><path class="st38" d="M411.9 494.7l5.6-4.2s4.7 5.7 5.2 7.1c.1.3-6.4 3.2-6.4 3.2l-4.4-6.1z"/><path class="st38" d="M408.4 486.9c0 .4.4 1 .3 1.2-.2.7 0 1.6.1 2 .9 3.3.4 3.1 1 4.3.4.9 1.4 1.4 3.3 1.3 1.4-.1 4.2-3.2 4.7-3.6 2.3-1.9 2.1-7.4 1.6-9.6-1-4.6-4.7-4.2-7.1-3.1-3.7 1.9-4 5.9-3.9 7.5zm2.3-.4c-.2-.2-1-.4-2 .3"/><circle class="st14" cx="409.9" cy="488.6" r=".4"/><path class="st38" d="M408.8 487.2c-.8 2-.9 2.7-.5 3 0 0 .5.3.9 0 .2-.2-.4-3-.4-3z"/><path class="st39" d="M415.3 494.8c-.1.1 1 2.9 0 4.6l-2.7-3.7 2.7-.9z"/><path d="M412 493.6c-1.3.4-1.9-1.9-1.8-2.2" opacity=".67" fill="none" stroke="#cd904d" stroke-width="1.02" stroke-miterlimit="10"/><path class="st39" d="M409.2 488.8c.2.5.6.9 1.1 1.1s1.6 0 1.7-.9"/><path class="st41" d="M410.4 491.1c-.4-.4-1.1-.8-1.6-.6v2.3l2.4-.2c.1-.1-.4-1.1-.8-1.5z"/><path class="st1" d="M421 495.1s12 2 14.2 7.8c.3.7 2.7 7.1 3.4 17 .7 9.9-.2 8.6-.2 8.6l-16.2.2-6-27.5c.1 0 5.4-2.7 4.8-6.1z"/><path class="st38" d="M428.2 499.4s4.5 3.5-.2 9.3c-2.2 2.8-11.6 13.4-12.2 13.7-4.4 1.7-4.6-1.9-3.7-3.9.7-1.7 4.8-8.3 7.6-12.9 1.6-2.8 5.4-9 8.5-6.2z"/><path class="st38" d="M416.7 518.7c-1-2.4-3.8-1.4-3.8-1.4-5.3 1.8-14.7 6.7-17.7 9.2-.6.5-.9.7-1.3 1.1 0 0-.8 1 .2 1.7.5.4 2.5-.3 2.5-.3 23.7-5.7 20.8-8.6 20.1-10.3zm-26.6 13.7c.1 0-1.1.7-1.7.9-.2 0-.6.8-1.2 1.1-.1 0-.2.6-.4 1.1-.2.4-.6.4-.6.4l.1-2.3 1.2-1.4 1.3-1.6s.6-.1 1.1.7c.6.6.2 1.1.2 1.1z"/><path class="st38" d="M391.9 533.8c.3-.2.9-.8 1.1-1 1-.8 2.4-3 2.9-3.4s1.1-1 .5-1.9c-.7-1.1-1.7-.1-1.7-.1-.5.4-.6.6-1 .7-.8.5-3.4 1.6-4.7 2.5 0 0-.4.8 0 1.3.5.7 1.3.5 1.3.5.2-.1.4-.2.7 0 .2.4.2.9 0 1.2-1 .9-1 .9-.9 1.3 0-.1 1.3-.8 1.8-1.1z"/><path class="st38" d="M390.6 532s-.9.9-1.5 1.2c-.1.1-.5.9-.9 1.3-.1.1-.1.7-.1 1.2-.1.4-.5.5-.5.5l-.4-2.3.9-1.6 1-1.9s.7-.3 1.2.3c.3.5.3 1.3.3 1.3z"/><path class="st42" d="M428.2 499.4s4.5 3.5-.2 9.3c-2.2 2.8-11.6 13.4-12.2 13.7-4.4 1.7-4.6-1.9-3.7-3.9.7-1.7 4.8-8.3 7.6-12.9 1.6-2.8 5.4-9 8.5-6.2z"/><path class="st42" d="M416.2 519c-1-2.4-3.8-1.4-3.8-1.4-5.3 1.8-14.7 6.7-17.7 9.2-.6.5-.9.7-1.3 1.1 0 0-.8 1 .2 1.7.5.4 2.5-.3 2.5-.3 23.7-5.7 20.8-8.7 20.1-10.3z"/><path class="st38" d="M413.3 549c0-.1-.4 1.2-.8 1.7-.1.1 0 1-.3 1.6 0 .1.2.6.4 1.1.1.4-.2.7-.2.7l-1.3-1.9.1-1.8.1-2.1s.5-.4 1.3-.2c.7.2.8.8.7.9z"/><path class="st38" d="M415.6 548.9c.1-.4.2-1.2.3-1.5.3-1.2 0-3.8.2-4.5.1-.6.3-1.5-.8-1.8-1.2-.4-1.4 1-1.4 1-.1.6-.2.8-.3 1.2-.4.9-1.7 3.3-2.2 4.8 0 0 .1.9.8 1 .8.3 1.3-.4 1.3-.4.1-.2.2-.4.5-.4.4.2.7.6.7 1-.3 1.3-.2 1.4.1 1.5 0 0 .6-1.3.8-1.9z"/><path class="st38" d="M413.5 548.3s-.2 1.2-.5 1.8c-.1.2.2 1 0 1.6 0 .1.4.6.6 1s-.1.7-.1.7l-1.7-1.6-.2-1.8-.4-2.1s.4-.6 1.2-.5c.6.2 1.1.9 1.1.9z"/><path class="st39" d="M415.4 487.7s.5 1.5-.2 2c-.4.3-.9.3-.9.3s.7 2.2 1.8 1.4c1.1-.9-.7-3.7-.7-3.7z"/><path class="st41" d="M405.8 483.2c-1.2-.6-1.9-2-1.8-3.3s1-2.6 2.2-3.1c.4-.2.9-.3 1.4-.2 1.1.2 1.9 1.1 2.9 1.5.4-.7 1.2-1 2-.9s1.5.6 2 1.2c.1.2.3.4.5.4s.4-.1.5-.2c.9-.4 2 0 2.7.6 1.5 1.3 3.4 2 2.4 6-.5 1.9-.7 3.2-1.3 5.1-1.7.6-4 .4-3.6-2-.4.3-1.7-.3-2-.6-.3-.3-.2-4.4-3.4-4.7-1.6-.2-2.8 1.1-4.5.2z"/><path class="st38" d="M414.1 488.6s.4-1.6 1.1-1.1c.7.4.7 2.2 0 2.2-.7-.1-1.1-.4-1.1-.4v-.7z"/><path class="st38" d="M414.7 488.5c-.1-.3.2-.5.4-.3v.1c0 .1 0 .1.1.2 0 .1 0 .3-.1.4s-.2.2-.3.1l-.1-.5z"/></g><g><path class="st43" d="M267.5 533.8c-.5 2.3-3.6 2.2-3.6 2.2-6.2-2.2-13.3-5.2-17.3-6.7-.7-.3-.9-.6-1.3-.8l.4-3c21.8.7 22.2 6.3 21.8 8.3zm-26.8-9.8c.1 0-1.2-.6-1.9-.7-.2 0-.8-.8-1.4-1-.1 0-.3-.7-.6-1.2-.2-.4-.7-.4-.7-.4l.4 2.6 1.5 1.4 1.7 1.6s.7 0 1.1-.9c.3-.8-.1-1.4-.1-1.4z"/><path class="st43" d="M242.3 522.3c.4.2 1.1.8 1.4 1 1.1.7 1.3 1.3 3.2 3 2.1 1.9.3 3.5-.7 2.9-.3-.2-.7-.5-1.1-.7-1-.5-3.8-1.3-5.3-2.2 0 0-.5-.8-.2-1.4.4-.9 1.3-.7 1.3-.7.2.1.5.2.7-.1.2-.5 0-.8-.4-1.2-1-.7-1.1-1.2-.9-1.5.3.2 1.5.5 2 .9z"/><path class="st43" d="M241.2 524.4s-1.1-.9-1.7-1.1c-.2-.1-.6-.9-1.2-1.3-.1-.1-.2-.7-.3-1.3-.1-.5-.6-.5-.6-.5l-.1 2.6 1.2 1.6 1.3 1.9s.7.2 1.2-.5c.4-.5.3-1.4.2-1.4zm39.3-9.5s.9 3.6-1.1 6c-2.3 2.9-11.3 15.2-14.7 14.9-5.1-.6-3.1-1.6-2.5-3.8.6-2.1 1.8-7.7 5-12.4 2.9-4.1 8.4-11.4 13.3-4.7z"/><path class="st38" d="M287 517s1.6 3.8-.2 6.9c-2.1 3.6-11 19.1-11.6 19.6-4.7 3.3-5.9-1.6-5.5-4.2.4-2.4.7-8.9 3.4-14.7 2.4-5.1 7.2-14.1 13.9-7.6z"/><path class="st38" d="M286.6 524.4l-6.1 18.7-15.9.1-1.3-18.5 23.3-.3z"/><path class="st38" d="M282.7 549.9c.1.2 3.1 4.5 3.5 8.2.4 3.9-3.5 8.8-3.5 8.8l-15.3.2-1.8-10.6-.9-13.6 15.8.2s1.2 4.6 2.2 6.8zm-12.1-50.3l8.9.1s1.3 4 1.1 11.5c0 .3-7.7 2.5-7.7 2.5l-2.3-14.1z"/><path class="st38" d="M264.8 518.6c1.8-3.1 7.7-10.1 7.7-10.1l7.9-1.3s5.7 4 7.1 10.7c.1.3-.5 7.3-.5 7.3h-23.9c.1 0 1.7-6.5 1.7-6.6zm3.3-26.2c.2.5.4 1.1.4 1.5 0 .8-.5 1.7-.5 2.2.2 4-.7 3.6-.4 5 .3 1.1 1.6 1.1 3.9 1.6 1.7.3 5.9-1.5 6.6-1.9 3.2-1.5 4.4-7.7 4.4-10.2 0-5.3-4.4-6-7.6-5.4-1.8.3-3.2 1.1-4.2 2-1.9 1.7-2.8 4.9-2.6 5.2z"/><path d="M271.3 492.5c-.2-.3-1.5-1.1-2.9-.2"/><circle class="st14" cx="269.9" cy="493.9" r=".4"/><path class="st38" d="M268.6 493c-.6 1.9-1.4 2.8-1.6 3.5 0 .1 1 .3 1.2.3l.4-3.8z"/><path class="st39" d="M275.6 502.9c-.2.1 1 4.9-3.4 6.2l-1.1-6.6 4.5.4z"/><path d="M270.3 487.9s4.8-6.2 12-2c4.3 2.6 2.4 9.1-2.4 14.6-.1.1-2.1-.4-2.7-1.4-.7-1.2-.7-4.7-.7-4.7l-2.5.5s-.6-2.8-.8-3.2c-.6-2-2.9-3.8-2.9-3.8z"/><path class="st39" d="M276.7 493.6s.2 1.8-.7 2.1c-.6.2-1.2 0-1.2 0s.3 2.7 1.8 2.1.1-4.2.1-4.2z"/><path class="st38" d="M275 494.2s.8-1.6 1.5-1c.7.7.4 2.4-1 2.4-.9 0-.9-.2-.9-.2l.4-1.2z"/><path class="st38" d="M275.6 494.2c0-.3.4-.4.6-.2v.3c0 .2-.1.3-.2.4s-.3.1-.4 0v-.5zm-7.6 3.3s1.2.3 1.1.5c0 .4-1.2.5-1.2.5l.1-1z"/><path d="M264.7 488.1c.1-1 1-1.8 2-1.7.4.1.8.3 1.2.3.4.1.9-.1 1-.5.1-.3-.1-.7-.2-1-.2-.8.5-1.6 1.3-1.9.8-.2 1.7.4 2.5.4 2.5-.1 4.7-.7 7.6 1.2l-3.1 2.5c.2-.1.3.2.3.4-.2 1.2-.9 2.2-1.8 3-.5.4-1 .8-1.7.9-4.1.7-1-3.6-4.7-2.3-1.1.6-1.7 1.1-2.7.9-1-.3-1.8-1.3-1.7-2.2z"/><path class="st44" d="M281.1 507.3l-10.9 3.7-5.5 7.5-1.4 5.8 2 28 16.9-3.9-1.8-5.6 6.9-18.9s1.6-7-1.7-11.2c-3.2-4.2-4.5-5.4-4.5-5.4"/><path d="M281.4 507.2l-11.6 4.3" fill="#ed6a5e"/><path class="st38" d="M250.8 530.9c24.7 0 20.7 6.3 20.3 8.5" opacity=".67"/><path class="st47" d="M245.2 539.7c.4 0 .7-.1 1-.3 1.1-.6 1.5-1.9.9-3l-8.6-16.3c-.6-1.1-1.9-1.5-3-.9s-1.5 1.9-.9 3l8.6 16.3c.5.8 1.2 1.2 2 1.2z"/><path d="M285.5 515.5c0 .6 2.5 5.2-2 15.4-4.7 10.6-18.5 15.4-18.5 15.4l-.4-4.6 20.9-26.2z" opacity=".12" fill="#022327"/><path class="st43" d="M271.8 540.6c-.5 2.6-4 2.6-4 2.6-7.1-2.3-15.3-5.4-19.8-6.9-.9-.3-1-.7-1.5-.9l.4-3.4c24.7 0 25.3 6.3 24.9 8.6zm-30.7-10.1c.1 0-1.4-.7-2.2-.8-.2 0-.9-.8-1.6-1.1-.1 0-.4-.8-.7-1.4-.3-.5-.8-.4-.8-.4l.6 2.9 1.7 1.5 1.9 1.8s.8 0 1.2-1c.4-.9-.1-1.5-.1-1.5z"/><path class="st43" d="M242.9 528.4c.4.2 1.2.9 1.6 1.1 1.3.8 1.5 1.4 3.8 3.3 2.5 2.1.5 3.9-.7 3.3-.4-.2-.9-.6-1.3-.7-1.1-.5-4.4-1.3-6-2.3 0 0-.6-.9-.3-1.6.4-1 1.4-.9 1.4-.9.2.1.6.2.8-.2.2-.6 0-.9-.5-1.3-1.2-.8-1.3-1.3-1.1-1.6.3.2 1.7.6 2.3.9z"/><path class="st43" d="M241.7 530.9s-1.3-.9-2-1.2c-.2-.1-.7-1-1.4-1.4-.1-.1-.2-.8-.4-1.5-.2-.5-.7-.6-.7-.6v2.9l1.4 1.8 1.5 2.2s.8.2 1.4-.6c.5-.6.3-1.6.2-1.6zM284 517s1.4 3.9-.5 6.9c-2.3 3.6-10.9 18.6-14.8 18.6-5.8 0-3.7-1.4-3.2-3.9.5-2.4 1.1-8.9 4.2-14.6 2.6-5 7.9-13.9 14.3-7z"/><path class="st44" d="M268.9 524.9l10.8 5.8s10-13.6 4.6-16.4c-5.5-2.8-12.3-3-15.4 10.6z"/><path class="st2" d="M280.2 529.4c-3.6-1.8-7.3-3.6-10.9-5.4-.6-.3-1.3-.2-1.6.4-.3.5-.2 1.3.4 1.6 3.6 1.8 7.3 3.6 10.9 5.4.6.3 1.3.2 1.6-.4.3-.5.2-1.3-.4-1.6z"/><path class="st47" d="M282.3 508.8s-17 5.8-18.4 13.9c-.8 4.4-.4 5.1-.4 5.1s4.7-13.6 21-16.5"/><path class="st2" d="M280.3 505.1l-6.2 4.2-1.2 4.1 9.9-4.6-2.5-3.7zM271 509l-.9 2.1 1.1 3 1.5-2.6-1.7-2.5z"/></g><path class="st44" d="M219.5 550.7c0 2.3 0 4.4.1 6.4.1 3.8.2 7.1.3 9.5.1 2.6.3 4.4.5 5.1 2 6.6 11.8 6.6 11.8 6.6h385.4c.4 0 .8 0 1.2-.1l38.1-5.5c4.4-.6 7.7-4.5 7.7-9V466c0-4.8-3.6-8.7-8.2-9.1h-.7c-11.7-.1-32.1-.1-58-.3-8.1 0-16.7-.1-25.7-.1-14.9-.1-30.9-.1-47.6-.2-46.7-.2-98.6-.5-145.3-.7-16.7-.1-32.7-.2-47.6-.2-52-.2-90.1-.4-94.2-.4-9.2 0-13.7 4.8-15.7 7.9-.9 1.4-1.3 3-1.4 4.6v2.3c4.8-.1 59.2-.5 59.2.3h-1.1l-.3 48.2c-22.5 4.3-36.5 31-58.5 32.4zm79.8-31l.3-48.8h116.1c.4.1.9.2 1.4.2h105.1c.5 0 .9-.1 1.4-.2h69.8c.4.1.9.2 1.4.2h44.8c.5 0 .9-.1 1.4-.2h10.6v48.8H299.3zm-58-45c-5.2 0-9.5 4.3-9.5 9.6v9c0 5.3 4.3 9.6 9.5 9.6v-28.2z"/><path class="st49" d="M504.9 545.3h45.6c1.5 0 2.8-1.3 2.8-2.8v-5.6c0-1.5-1.3-2.8-2.8-2.8h-45.6c-1.5 0-2.8 1.3-2.8 2.8v5.6c0 1.6 1.2 2.8 2.8 2.8zm-145.3 0h45.6c1.5 0 2.8-1.3 2.8-2.8v-5.6c0-1.5-1.3-2.8-2.8-2.8h-45.6c-1.5 0-2.8 1.3-2.8 2.8v5.6c0 1.6 1.3 2.8 2.8 2.8zm52.7-81.3v1.9c0 2.1 1.4 3.9 3.3 4.5.4.1.9.2 1.4.2h105.1c.5 0 .9-.1 1.4-.2 1.9-.6 3.3-2.4 3.3-4.5V464c0-2.6-2.1-4.7-4.7-4.7H417c-2.5 0-4.7 2.1-4.7 4.7zm177.7 0v1.9c0 2.1 1.4 3.9 3.3 4.5.4.1.9.2 1.4.2h44.8c.5 0 .9-.1 1.4-.2 1.9-.6 3.3-2.4 3.3-4.5V464c0-2.6-2.1-4.7-4.7-4.7h-44.8c-2.6 0-4.7 2.1-4.7 4.7z"/><path class="st44" d="M572 457h-47.6v-5.8H572v5.8zM597.4 457h59.8v-5.9c0-3.9-3.1-7.1-7-7.1h-40.6l-12.2 13z"/><path class="st1" d="M604.9 453.6h44.3v-2.9c0-1.9-1.6-3.5-3.5-3.5H611l-6.1 6.4z"/><path class="st44" d="M379.2 457h-47.6v-5.8h47.6v5.8z"/><path class="st2" d="M640.9 470.4h-47.6c.4.1.9.2 1.4.2h44.8c.5 0 .9-.1 1.4-.2zm-117.4 0H415.7c.4.1.9.2 1.4.2h105.1c.4 0 .9-.1 1.3-.2z"/><path class="st50" d="M353.4 576.4v-17.2c0-8.8-7.2-16-16-16h-14.6c-8.8 0-16 7.2-16 16v17.2h46.6z"/><g><path class="st1" d="M308.8 567c-.4 4.2.5 8.2 2.3 11.6 3.2 6 9.3 10.4 16.6 11.1 11.5 1 21.7-7.4 22.7-18.9.5-5.1-1-10-3.7-13.9-3.4-4.9-8.9-8.2-15.2-8.8-11.5-1.1-21.6 7.4-22.7 18.9z"/><path class="st1" d="M327 546.9c1.5-.2 3-.2 4.6-.1.2 0 .3 0 .5.1l-2.5 21.9-2.6-21.9zm5.3 43.7c-1.5.2-3 .2-4.6.1-.2 0-.3 0-.5-.1l2.5-21.9 2.6 21.9z"/><path class="st1" d="M307.8 571.4c-.2-1.5-.2-3-.1-4.6 0-.2 0-.3.1-.5l21.9 2.5-21.9 2.6zm43.7-5.3c.2 1.5.2 3 .1 4.6 0 .2 0 .3-.1.5l-21.9-2.5 21.9-2.6z"/><path class="st1" d="M343.2 551.5c1.2.9 2.3 2 3.3 3.2.1.1.2.3.3.4l-17.3 13.7 13.7-17.3zm-27.1 34.6c-1.2-.9-2.3-2-3.3-3.2-.1-.1-.2-.3-.3-.4l17.3-13.7-13.7 17.3z"/><path class="st1" d="M312.3 555.2c.9-1.2 2-2.3 3.2-3.3.1-.1.3-.2.4-.3l13.7 17.3-17.3-13.7zm34.7 27.2c-.9 1.2-2 2.3-3.2 3.3-.1.1-.3.2-.4.3l-13.7-17.3 17.3 13.7z"/><path class="st1" d="M335.8 547.7c1.5.4 2.9 1 4.3 1.7.2.1.3.2.5.3l-10.9 19.2 6.1-21.2zm-12.3 42.2c-1.5-.4-2.9-1-4.3-1.7-.2-.1-.3-.2-.5-.3l10.9-19.2-6.1 21.2z"/><path class="st1" d="M308.5 562.7c.4-1.5 1-2.9 1.7-4.3.1-.2.2-.3.3-.5l19.2 10.9-21.2-6.1zm42.3 12.2c-.4 1.5-1 2.9-1.7 4.3-.1.2-.2.3-.3.5l-19.2-10.9 21.2 6.1zM348.5 557.4c.8 1.3 1.4 2.7 2 4.2.1.2.1.3.2.5l-21 6.7 18.8-11.4zm-37.7 22.8c-.8-1.3-1.4-2.7-2-4.2-.1-.2-.1-.3-.2-.5l21-6.7-18.8 11.4zM318.3 550c1.3-.8 2.7-1.4 4.2-2 .2-.1.3-.1.5-.2l6.7 21-11.4-18.8zm22.7 37.6c-1.3.8-2.7 1.4-4.2 2-.2.1-.3.1-.5.2l-6.7-21 11.4 18.8z"/><g class="st51"><path class="st52" d="M311.2 578.6c3.2 6 9.3 10.4 16.5 11 11.5 1 21.6-7.4 22.6-18.9.5-5.1-1-10-3.7-13.9l-11.2 6.9-13 8-11.2 6.9z"/></g><g><path class="st2" d="M317.5 567.8c-.6 6.7 4.3 12.6 11 13.2s12.6-4.3 13.2-11-4.3-12.6-11-13.2c-6.6-.6-12.6 4.3-13.2 11z"/></g><g><path class="st1" d="M329.3 572.7c-2.1-.2-3.7-2.1-3.5-4.2s2.1-3.7 4.2-3.5 3.7 2.1 3.5 4.2c-.2 2-1.9 3.5-3.9 3.5h-.3zm-2.4-4.1c-.1 1.5 1 2.8 2.5 3 1.5.1 2.8-1 3-2.5.1-1.5-1-2.8-2.5-3h-.2c-1.5 0-2.6 1.1-2.8 2.5z"/></g></g><path class="st1" d="M493.3 565.2h-7.8v-3.3h7.8v3.3zM396.4 565.2h-7.8v-3.3h7.8v3.3zM248 565.2h-7.8v-3.3h7.8v3.3zM227.3 555.3s-.1 6.2-.8 7.1c-1.2 1.8-4 2.4-7.2 2.3v-9.4h8z"/><path class="st2" d="M231.8 483.7v8.8c0 5.2 4.3 9.5 9.5 9.5v-27.8c-5.2 0-9.5 4.3-9.5 9.5z"/><path class="st44" d="M231.8 484.3v9c0 5.3 4.3 9.6 9.5 9.6v-28.2c-5.2 0-9.5 4.3-9.5 9.6z"/><path class="st1" d="M660.2 554.4h4c.8 0 1.4-.6 1.4-1.4v-33.1c0-.8-.6-1.4-1.4-1.4h-4c-.8 0-1.4.6-1.4 1.4V553c0 .8.6 1.4 1.4 1.4z"/><path class="st50" d="M604.3 576.4v-17.2c0-8.8-7.2-16-16-16h-14.6c-8.8 0-16 7.2-16 16v17.2h46.6z"/><g><path class="st1" d="M559.7 566.6c-.4 4.2.5 8.2 2.3 11.6 3.2 6 9.3 10.4 16.6 11.1 11.5 1 21.7-7.4 22.7-18.9.5-5.1-1-10-3.7-13.9-3.4-4.9-8.9-8.2-15.2-8.8-11.5-1-21.6 7.4-22.7 18.9z"/><path class="st1" d="M577.9 546.6c1.5-.2 3-.2 4.6-.1.2 0 .3 0 .5.1l-2.5 21.9-2.6-21.9zm5.3 43.7c-1.5.2-3 .2-4.6.1-.2 0-.3 0-.5-.1l2.5-21.9 2.6 21.9z"/><path class="st1" d="M558.7 571.1c-.2-1.5-.2-3-.1-4.6 0-.2 0-.3.1-.5l21.9 2.5-21.9 2.6zm43.7-5.3c.2 1.5.2 3 .1 4.6 0 .2 0 .3-.1.5l-21.9-2.5 21.9-2.6z"/><path class="st1" d="M594.1 551.1c1.2.9 2.3 2 3.3 3.2.1.1.2.3.3.4l-17.3 13.7 13.7-17.3zM567 585.7c-1.2-.9-2.3-2-3.3-3.2-.1-.1-.2-.3-.3-.4l17.3-13.7-13.7 17.3z"/><path class="st1" d="M563.3 554.8c.9-1.2 2-2.3 3.2-3.3.1-.1.3-.2.4-.3l13.7 17.3-17.3-13.7zm34.6 27.2c-.9 1.2-2 2.3-3.2 3.3-.1.1-.3.2-.4.3l-13.7-17.3 17.3 13.7z"/><path class="st1" d="M586.7 547.3c1.5.4 2.9 1 4.3 1.7.2.1.3.2.5.3l-10.9 19.2 6.1-21.2zm-12.3 42.2c-1.5-.4-2.9-1-4.3-1.7-.2-.1-.3-.2-.5-.3l10.9-19.2-6.1 21.2z"/><path class="st1" d="M559.4 562.3c.4-1.5 1-2.9 1.7-4.3.1-.2.2-.3.3-.5l19.2 10.9-21.2-6.1zm42.3 12.2c-.4 1.5-1 2.9-1.7 4.3-.1.2-.2.3-.3.5l-19.2-10.9 21.2 6.1zM599.4 557c.8 1.3 1.4 2.7 2 4.2.1.2.1.3.2.5l-21 6.7 18.8-11.4zm-37.7 22.8c-.8-1.3-1.4-2.7-2-4.2-.1-.2-.1-.3-.2-.5l21-6.7-18.8 11.4z"/><path class="st1" d="M569.2 549.6c1.3-.8 2.7-1.4 4.2-2 .2-.1.3-.1.5-.2l6.7 21-11.4-18.8zm22.8 37.6c-1.3.8-2.7 1.4-4.2 2-.2.1-.3.1-.5.2l-6.7-21 11.4 18.8z"/><g class="st51"><path class="st52" d="M562.1 578.2c3.2 6 9.3 10.4 16.5 11 11.5 1 21.6-7.4 22.6-18.9.5-5.1-1-10-3.7-13.9l-11.2 6.9-13 8-11.2 6.9z"/></g><g><path class="st2" d="M568.5 567.4c-.6 6.7 4.3 12.6 11 13.2 6.7.6 12.6-4.3 13.2-11 .6-6.7-4.3-12.6-11-13.2s-12.6 4.3-13.2 11z"/></g><g><path class="st1" d="M580.2 572.4c-2.1-.2-3.7-2.1-3.5-4.2.2-2.1 2.1-3.7 4.2-3.5 2.1.2 3.7 2.1 3.5 4.2-.2 2-1.9 3.5-3.9 3.5h-.3zm-2.4-4.1c-.1 1.5 1 2.8 2.5 3 1.5.1 2.8-1 3-2.5.1-1.5-1-2.8-2.5-3h-.2c-1.4 0-2.6 1-2.8 2.5z"/></g></g><path class="st2" d="M639.7 470.9h-47.6c.4.1.9.2 1.4.2h44.8c.5 0 .9-.1 1.4-.2zm-117.4 0H414.5c.4.1.9.2 1.4.2H521c.4 0 .9-.1 1.3-.2z"/><g><path class="st11" d="M215.6 532.7L193 512.6 162.1 500H90.4L74 512.6v13.2l78.1 8.8h39.6l23.9-1.9z"/><path class="st3" d="M149.6 550.9c0 .6-.5 1.1-1.1 1.1h-5.3c-.6 0-1.1-.5-1.1-1.1s.5-1.1 1.1-1.1h5.3c.6 0 1.1.5 1.1 1.1z"/><path class="st53" d="M154.9 526s-1.2 2.8.1 5.1c1.5 2.7 8 14 8.5 14.3 3.5 2.4 4.3-1.2 4.1-3-.3-1.8-.5-6.6-2.5-10.8-1.8-3.7-5.3-10.4-10.2-5.6z"/><path class="st53" d="M155.1 531.4l4.5 13.8h11.7l1-13.5-17.2-.3z"/><path class="st53" d="M158 550.2c-.1.2-2.3 3.3-2.6 6-.3 2.9 2.6 6.4 2.6 6.4l11.2.1 1.3-7.8.6-10-11.6.2c.1 0-.7 3.4-1.5 5.1zm8.9-36.9l-6.5.1s-1 2.9-.8 8.4c0 .2 5.6 1.8 5.6 1.8l1.7-10.3z"/><path class="st53" d="M171.1 527.2c-1.3-2.3-5.7-7.4-5.7-7.4l-5.8-1s-4.2 3-5.2 7.9c0 .2.4 5.4.4 5.4h17.5c0-.1-1.2-4.9-1.2-4.9zm-2.4-19.2c-.1.3-.3.8-.3 1.1 0 .6.4 1.2.3 1.6-.1 2.9.5 2.6.3 3.7-.2.8-1.2.8-2.9 1.2-1.2.2-4.3-1.1-4.8-1.4-2.3-1.1-3.2-5.6-3.2-7.5 0-3.9 3.2-4.4 5.6-3.9 1.3.2 2.3.8 3.1 1.4 1.4 1.1 2.1 3.5 1.9 3.8z"/><path d="M166.4 508c.2-.2 1.1-.8 2.1-.1"/><circle class="st3" cx="167.4" cy="509.1" r=".3"/><path class="st53" d="M168.3 508.4c.5 1.4 1 2 1.2 2.6 0 .1-.8.2-.8.2 0-.1-.4-2.8-.4-2.8z"/><path class="st54" d="M163.2 515.7c.1.1-.7 3.6 2.5 4.6l.8-4.8-3.3.2z"/><path class="st53" d="M168.8 511.7s-.9.2-.8.4c0 .3.9.4.9.4l-.1-.8z"/><path d="M171.2 504.8c0-.7-.8-1.3-1.5-1.2-.3 0-.6.2-.8.2-.3 0-.6-.1-.7-.3-.1-.2.1-.5.1-.7.1-.6-.4-1.2-1-1.4-.6-.2-1.2.3-1.8.3-1.8-.1-3.4-.5-5.6.9l2.3 1.8c-.1-.1-.2.2-.2.3.1.9.6 1.6 1.3 2.2.4.3.8.6 1.2.6 3 .5.8-2.6 3.5-1.7.8.4 1.3.8 2 .6s1.3-.9 1.2-1.6z"/><path d="M167.1 504.7s-3.5-4.6-8.8-1.4c-3.2 1.9-1.8 6.6 1.8 10.7 0 .1 1.6-.3 2-1 .5-.9.5-3.5.5-3.5l1.8.4.6-2.4c.4-1.6 2.1-2.8 2.1-2.8z"/><path class="st54" d="M162.4 508.8s-.1 1.3.5 1.6c.4.2.9 0 .9 0s-.2 1.9-1.3 1.5c-1.1-.4-.1-3.1-.1-3.1z"/><path class="st53" d="M163.7 509.3s-.6-1.2-1.1-.7-.3 1.7.7 1.7c.6 0 .7-.1.7-.1l-.3-.9z"/><path class="st53" d="M163.2 509.3c0-.2-.3-.3-.4-.1v.2c0 .1 0 .2.1.3.1.1.2.1.3 0v-.4z"/><pattern id="SVGID_10_" xlink:href="#SVGID_20_" patternTransform="matrix(.2276 0 0 .2323 -16003.38 -2541.743)"/><path d="M159.1 518.9l8.5 3.1 3.6 5.1 1 4.2-1.5 20.5-12.4-2.9 1.3-4.1-5.1-13.9s-1.2-5.2 1.2-8.2 3.4-3.8 3.4-3.8" fill="url(#SVGID_10_)"/><path d="M158.9 518.8l9.1 3.4" fill="none" stroke="#fff" stroke-width=".836" stroke-linecap="round" stroke-linejoin="round" stroke-miterlimit="10"/><path class="st57" d="M158.3 518.3s12.4 4.3 13.5 10.2c.6 3.3.3 3.7.3 3.7s-3.5-9.9-15.4-12.1"/><pattern id="SVGID_11_" xlink:href="#SVGID_21_" patternTransform="translate(-8157.505 6491.257) scale(.5901)"/><path d="M118.9 533.2s-5.3-4.4-5-4.4 3.2-5.9 3.2-5.9" fill="url(#SVGID_11_)"/><path class="st59" d="M111.6 523.6s-.4 2.6 1.9 7.1c2.3 4.6 10.4 10.4 10.9 10.6 3.8 1.1 3.9-2 3.1-3.6-.7-1.3-2.5-4.3-7.3-10.2-2.2-2.7-6-6.4-8.6-3.9z"/><pattern id="SVGID_12_" xlink:href="#SVGID_22_" patternTransform="rotate(26.326 -20033.694 -21876.783) scale(.5901)"/><path d="M117.2 524.1l3.7 3.8-6.7 6.3" fill="url(#SVGID_12_)"/><path class="st59" d="M106.3 531.3l3.3 13 9.7.1 1-13.3-14 .2z"/><path class="st59" d="M109.2 544.3l9.9-.1s2.7 4-.6 10.8c-.3.7-2 7.6-2 7.6s-8.1 2.4-11.8-.4c-.4-.3-1.4-4-1.7-5.3-1.3-4.8 2.8-7.1 6.2-12.6zm8.4-10.6s5 .4 5-2.5c0-1.6-.1-.5-4.3-6.4m6.2 16.6c1.5 1.7 3.4.1 3.4.1 3.6-3 9.4-9.7 11-12.6.3-.5.5-.9.6-1.3 0 0 .3-1-.7-1.3-.5-.2-1.9 1-1.9 1-16.6 11.2-13.4 12.9-12.4 14.1zm16.6-18.9c-.1.1.6-.9 1.1-1.2.1-.1.3-.8.6-1.2V519c0-.4.3-.5.3-.5l.6 1.9-.5 1.5-.6 1.7s-.5.2-1.1-.2c-.5-.4-.4-.9-.4-.9z"/><path class="st59" d="M139.3 521.9c-.2.3-.4.9-.6 1.2-.5.9-.9 3.2-1.2 3.7s-.6 1.1.2 1.7c.9.7 1.4-.4 1.4-.4.3-.4.3-.6.5-.9.5-.7 2.2-2.3 2.9-3.4 0 0 .1-.8-.4-1.1-.6-.4-1.1-.1-1.1-.1-.1.1-.3.3-.5.2-.3-.3-.4-.7-.3-1 .5-1 .5-1.1.3-1.3-.1 0-.9.9-1.2 1.4z"/><path class="st59" d="M140.8 522.9s.4-1 .8-1.4c.1-.1.1-.9.3-1.3 0-.1-.2-.6-.3-1s.2-.6.2-.6l1 1.8-.1 1.6-.2 1.8s-.4.4-1.1.1c-.4-.3-.6-.9-.6-1zm-21.2 3.7c-1-1.1-3.4-7-3.4-7l-5.5-.3s-3.5 3.4-4 6.1c-.5 2.7-.1 5.7-.1 5.7H119c.1 0 .6-4.5.6-4.5z"/><pattern id="SVGID_13_" xlink:href="#SVGID_23_" patternTransform="translate(-8157.505 6491.257) scale(.5901)"/><path d="M109.2 521s1.7 2 4.5 2.1 3.4-1 3.4-1l.6 1.2 4.8 7.2s1 2.3-2.5 3.3c-3.5.9 0 0 0 0l-.8 10.7-9.8-.1s-4.5-12.7-3.6-17.1 3.4-6.3 3.4-6.3" fill="url(#SVGID_13_)"/><path class="st59" d="M107.8 524s-3.1 2.5-1.4 7.2c1 2.8 4.8 13.9 5.2 14.3 3 2.7 4.4 0 4.4-1.8 0-1.5-.1-8.1-1.7-12.3-1.3-3.3-3-8.6-6.5-7.4z"/><path class="st59" d="M111 542.9c-.9 2.1 1.3 3.1 1.3 3.1 4.2 2 12.7 4.6 16 4.8.6.1 1 .1 1.4.1 0 0 1-.2.9-1.2-.1-.5-1.7-1.3-1.7-1.3-17-10.5-17.2-7-17.9-5.5zm24.1 7.3c-.1 0 1.1.2 1.5.5.1.1.9-.1 1.4 0 .1 0 .5-.3.9-.5.3-.2.6.1.6.1l-1.5 1.4-1.6.1-1.8.2s-.4-.3-.2-1.1c.1-.6.6-.7.7-.7z"/><path class="st59" d="M134.9 548.3c-.3-.1-1 0-1.3 0-1.1-.1-3.3.5-3.8.4-.6 0-1.3 0-1.5.9-.3 1.1.9 1.1.9 1.1.5 0 .7 0 1 .1.8.2 3 1 4.3 1.2 0 0 .7-.2.8-.8.2-.7-.4-1.1-.4-1.1-.2-.1-.4-.1-.4-.4.1-.4.5-.7.8-.7 1.1.1 1.2 0 1.3-.3-.1 0-1.2-.3-1.7-.4z"/><path class="st59" d="M134.5 550.2s1.1 0 1.6.1c.1 0 .8-.3 1.3-.2.1 0 .4-.4.8-.7.3-.2.6 0 .6 0l-1.1 1.6-1.5.4-1.7.6s-.5-.2-.5-.9c0-.5.5-.9.5-.9z"/><pattern id="SVGID_14_" xlink:href="#SVGID_24_" patternTransform="translate(-8157.505 6491.257) scale(.5901)"/><path d="M107.1 534.6s-3.8-10.3 1.2-10.8c4.4-.5 6.8 8.9 6.8 8.9l-8 1.9z" fill="url(#SVGID_14_)"/><path class="st3" d="M115.3 503.9s2.9.3 3.5 3.6c.7 3.7 1 11.6 1 11.6l-13.3-.1c0 .1-1.7-16.8 8.8-15.1z"/><path class="st59" d="M111.6 515.5l-1.2 5h5.9v-6.2l-4.7 1.2z"/><path class="st63" d="M111.9 515.7c.1 0 0 2.8 4.5 3.3l-.2-4.6-4.3 1.3z"/><path class="st59" d="M118.1 511c0 3-1.6 5.4-4.3 5.4s-4.3-2.5-4.3-5.5 1.6-5.4 4.3-5.4c2.6 0 4.3 2.5 4.3 5.5z"/><path class="st3" d="M110.7 510.4c.3-.3 1.8-.4 2.1 0m2.3.1c.5-.5 2-.3 2.3.1"/><circle class="st3" cx="111.6" cy="511.2" r=".3"/><circle class="st3" cx="116.1" cy="511.2" r=".3"/><path class="st2" d="M112.7 513.1h2.4s-.2 1-1.2 1c-1.1.1-1.2-1-1.2-1z"/><path class="st59" d="M109.8 512.6h-.6c-.2 0-.3-.1-.3-.3v-1.4c0-.2.1-.3.3-.3h.6c.2 0 .3.1.3.3v1.4c0 .2-.1.3-.3.3zm8.3 0h-.6c-.2 0-.3-.1-.3-.3v-1.4c0-.2.1-.3.3-.3h.6c.2 0 .3.1.3.3v1.4c0 .2-.1.3-.3.3z"/><path class="st3" d="M111.5 505.8s-.7 3.5-.4 3.6c.3.1 3.8.1 3.8.1s.7-3.7.6-3.3.3 3.3.3 3.3l1.4.3s.9-5.8-1.7-5.7c-2.6.1-3.8.3-4 1.7z"/><path class="st63" d="M114.2 510.4v1.6l-.9.2s.9.9 1.3.4c.5-.5 0-2.1-.4-2.2zm-4.5.7h-.2c-.1 0-.1 0-.2.1 0 .1 0 .1-.1.2v.3c0 .1.1.2.1.2h.2m8.3-.8c.1 0 .2.1.3.2v.3c0 .1 0 .2-.1.3 0 .1-.1.2-.2.1h-.1"/><path class="st57" d="M109.9 520.1l-1.7 2s11.3 6.8 10.7 20.8l.5.2s3.5-16.1-9.5-23"/><path class="st3" d="M192.2 534.3c-.3 0-.5-.1-.8-.2-.8-.4-1.1-1.4-.7-2.2l6.3-12c.4-.8 1.4-1.1 2.2-.7.8.4 1.1 1.4.7 2.2l-6.3 12c-.3.6-.8.9-1.4.9z"/><path class="st1" d="M155.9 524.9c0 .4-1.9 3.8 1.5 11.3 3.5 7.8 13.6 11.3 13.6 11.3l.3-3.4-15.4-19.2z"/><path class="st38" d="M172.2 537.5c.5 1.9 3.1 1.7 3.1 1.7 5.1-2 10.9-4.7 14.1-6.1.6-.2.7-.6 1.1-.7l-.5-2.5c-18.1 1.3-18.2 6-17.8 7.6zm21.9-9c-.1 0 1-.6 1.6-.7.1 0 .6-.7 1.1-.9.1 0 .2-.6.4-1s.6-.4.6-.4l-.3 2.1-1.2 1.2-1.3 1.4s-.6 0-.9-.7c-.3-.5 0-.9 0-1z"/><path class="st38" d="M192.7 527.2c-.3.2-.9.7-1.1.9-.9.7-1 1.1-2.6 2.6-1.7 1.6-.2 2.9.7 2.4.3-.2.6-.5.9-.6.8-.4 3.1-1.2 4.3-2 0 0 .4-.7.1-1.2-.4-.7-1.1-.6-1.1-.6-.2.1-.4.2-.6-.1-.2-.4-.1-.7.3-1 .8-.6.9-1 .7-1.2-.1.2-1.1.5-1.6.8z"/><path class="st38" d="M193.7 528.9s.9-.7 1.4-1c.1-.1.5-.8.9-1.1.1 0 .1-.6.2-1.1.1-.4.5-.5.5-.5l.1 2.2-.9 1.4-1 1.7s-.6.2-1-.4c-.3-.4-.2-1.2-.2-1.2zm-37-1.6s.4 3 2.7 4.3c2.7 1.6 13.3 8.5 15.8 7.2 3.8-1.9 2-2.2.8-3.6-1.1-1.4-3.7-5.5-7.6-8.1-3.4-2.4-9.8-6.5-11.7.2z"/><pattern id="SVGID_15_" xlink:href="#SVGID_25_" patternTransform="matrix(.1693 -.08657 .08834 .1728 -16394.979 -4547.643)"/><path d="M169.2 527.3l-5.1 7.4s-11.1-5.6-8.5-9.2 7.1-6 13.6 1.8z" fill="url(#SVGID_15_)"/><path class="st2" d="M164.6 535.2c1.8-2.4 3.5-4.8 5.3-7.2.4-.5-.5-1-.9-.5-1.8 2.4-3.5 4.8-5.3 7.2-.4.5.5 1 .9.5z"/><path d="M150.4 530.3s-7.2 13-4.8 21.1c3.3 11.1 10.5 26.2 10.5 26.2" fill="none" stroke="#000" stroke-width=".587" stroke-miterlimit="10"/><path class="st17" d="M285.5 552.4c0-17.7-72.7-22.3-72.7-22.3L54.3 530l-4-.1-2.1 39.4 9.7 8.9h221.7c3.5 0 6.1-2.8 5.5-5.9l-.7-3.4s.6-15.3.9-15.5c1.8-1.7.2-.8.2-1z"/><path class="st1" d="M113.3 541.7h-10.2c-.4 0-.7-.3-.7-.7v-1.4c0-.4.3-.7.7-.7h10.2c.4 0 .7.3.7.7v1.4c0 .4-.3.7-.7.7zm54.2 0h-10.2c-.4 0-.7-.3-.7-.7v-1.4c0-.4.3-.7.7-.7h10.2c.4 0 .7.3.7.7v1.4c0 .4-.3.7-.7.7z"/><path class="st2" d="M270.1 545.7s1 10.2 4.5 10.2c7.4 0 12.1.2 12.1.2s.5-7.4-6-9.5c-5.2-1.7-10.6-.9-10.6-.9z"/><path class="st66" d="M222.4 577.8H99l-3-11.7h130.7l-4.3 11.7z"/><path class="st1" d="M108 579.8h114.4v3.5H108v-3.5zm-40.6 3.5H53.9v-1.7c0-1 .8-1.7 1.7-1.7h11.8v3.4zm194.1-3.5h23.3v3.5h-23.3v-3.5z"/><path class="st2" d="M48.4 537.6h15.8s.2 11.1-8.9 12.7c-7.6 1.4-7.1.2-7.1.2l.2-12.9z"/><path class="st1" d="M64.2 536.7H48.3c-.6 0-1.2-.5-1.2-1.2v-2.3c0-.6.5-1.2 1.2-1.2h15.9c.6 0 1.2.5 1.2 1.2v2.3c0 .6-.5 1.2-1.2 1.2z"/><g><path class="st17" d="M110.4 527.5c-.7-.1-4.7-.5-9.8-1.2l-.8 4.4h49.6l-.1-.7c-13.4-.6-27.2-1.4-38.9-2.5zm44.3 2.7l.1.5h14.4c-4.6-.1-9.5-.3-14.5-.5z"/><path class="st17" d="M75.5 519.4c-.6-2.3 11.9-17.1 23.4-17.5h3.5l.1-.3h2.5l-.1.3c9.7-.1 28.6-.2 39.9-.2v-.1h5.4v.1h.5c31.3 0 56.4 25.7 56.4 25.7 0-.1-1.9 2.1-2.9 3.3h14.5s-2.2-1.4-11.6-10.2c-7.3-6.8-28.4-22.4-54.3-22.4-18.4 0-73-.5-73.7-.5-7.6 0-9.3 3.1-8 8 1.4 5.7-19.9 22.7-21 25.2h47l.9-4.8c-9.6-1.6-21.8-3.9-22.5-6.6z"/><path class="st17" d="M96.8 533.6h2.5l.5-2.9h-2.5l-.5 2.9zm8.2-32h-2.5l-.1.3h2.5l.1-.3zM98.2 525.9l-.9 4.8h2.5l.8-4.4c-.8-.1-1.6-.3-2.4-.4z"/><path class="st17" d="M102.5 501.9l-4.3 24c.8.1 1.6.2 2.4.4l4.4-24.4h-2.5zm47.3 31.4h5.4l-.4-2.6h-5.4l.4 2.6zm.5-31.7h-5.4v.1h5.4v-.1zm-1.1 28.4l.1.7h5.4l-.1-.5c-1.7-.1-3.5-.1-5.4-.2z"/><path class="st17" d="M144.9 501.7l4.4 28.3c1.8.1 3.7.2 5.5.2l-4.4-28.5h-5.5z"/></g><path class="st1" d="M278.5 559.7c-2.3 0-6.6 8-6.6 11.9 0 3.8 4.2 7 6.6 7h1.9c3 0 5.4-2.4 5.4-5.4v-6.8c0-1-.8-6.6-1.7-6.6h-5.6v-.1zm-231.2-6.5s13.6-2.7 20.1 4.8 9 19.9 9 19.9l-18.6.1c-5.1 0-10.6.1-10.6-10.3l.1-14.5z"/><path class="st66" d="M285.3 559h-13.1c-.6 0-1.2-.5-1.2-1.2 0-.6.5-1.2 1.2-1.2h13.1m-83.8-32.1v16.6c3.1 0 5.6-2.5 5.6-5.6v-5.3c.1-3.1-2.5-5.7-5.6-5.7z"/><path class="st49" d="M207.6 556.4h-49.8c-1.3 0-2.4-1.1-2.4-2.4v-4.9c0-1.3 1.1-2.4 2.4-2.4h49.8c1.3 0 2.4 1.1 2.4 2.4v4.9c0 1.3-1.1 2.4-2.4 2.4zm-64.9 0h-33.1c-1.3 0-2.4-1.1-2.4-2.4v-4.9c0-1.3 1.1-2.4 2.4-2.4h33.1c1.3 0 2.4 1.1 2.4 2.4v4.9c0 1.3-1.1 2.4-2.4 2.4z"/><path class="st66" d="M49.3 540.6c2 0 3.7 1.6 3.7 3.7 0 2-1.6 3.7-3.7 3.7"/><g><path class="st2" d="M222 578.3c0-11.3 9.2-20.5 20.5-20.5S263 567 263 578.3"/><path class="st1" d="M259.4 578.6c0 3.4-1 6.6-2.7 9.2-3 4.6-8.2 7.7-14.2 7.7-9.4 0-16.9-7.6-16.9-16.9 0-4.2 1.5-8 4-10.9 3.1-3.7 7.7-6 12.9-6 9.4 0 16.9 7.5 16.9 16.9z"/><g class="st51"><path class="st52" d="M256.7 587.8c-3 4.6-8.2 7.7-14.2 7.7-9.4 0-16.9-7.6-16.9-16.9 0-4.2 1.5-8 4-10.9l8.6 6.4 9.9 7.4 8.6 6.3z"/></g><path class="st2" d="M248.8 578.6c0 3.5-2.8 6.3-6.3 6.3s-6.3-2.8-6.3-6.3 2.8-6.3 6.3-6.3 6.3 2.8 6.3 6.3z"/></g><g><path class="st2" d="M67 578.3c0-11.3 9.2-20.5 20.5-20.5S108 567 108 578.3"/><path class="st1" d="M104.4 578.6c0 3.4-1 6.6-2.7 9.2-3 4.6-8.2 7.7-14.2 7.7-9.4 0-16.9-7.6-16.9-16.9 0-4.2 1.5-8 4-10.9 3.1-3.7 7.7-6 12.9-6 9.3 0 16.9 7.5 16.9 16.9z"/><g class="st51"><path class="st52" d="M101.7 587.8c-3 4.6-8.2 7.7-14.2 7.7-9.4 0-16.9-7.6-16.9-16.9 0-4.2 1.5-8 4-10.9l8.6 6.4 9.9 7.4 8.6 6.3z"/></g><path class="st2" d="M93.8 578.6c0 3.5-2.8 6.3-6.3 6.3s-6.3-2.8-6.3-6.3 2.8-6.3 6.3-6.3 6.3 2.8 6.3 6.3z"/></g></g><path d="M29.2 504.6h49.3m-58.9 10.5h49.3m584.4-52.9h49.3m-49 55.4h49.3m-34.1-28.3H718" fill="none" stroke="#fff" stroke-linecap="round" stroke-linejoin="round" stroke-miterlimit="10"/><path class="st8" d="M232.7 785.3l113-28.9-12.8-23.1s-64.8-10.9-89.9-8.3c-25.1 2.6-157.9 20.5-157.9 20.5s-27.6 3.2-79.6 1.9c0 0-2.1 0-5.5.1v47.4l232.7-9.6z"/><path d="M727.7 934.5V668.9c-141.3 22.1-275.4 42.2-360.1 52.9 0 0-143.2 21.8-168.2 36.6s116.2 3.9 116.2 3.9S163.3 779.2 0 787.8v146.7h727.7z" fill="#538c94"/><g><path class="st69" d="M617.7 677.5v18.3"/><path class="st70" d="M628.5 664h-.5c-.5-3.7-4-6.6-8.2-6.6-3.4 0-6.4 1.9-7.6 4.6-.8-.6-1.8-1-3-1-2.7 0-4.8 2.2-4.8 4.8 0 2.2 1.4 4 3.4 4.6-.5.9-.8 2-.8 3.1 0 3.6 2.9 6.5 6.5 6.5 1 0 1.9-.2 2.7-.6 1.3.9 3 1.4 4.8 1.4 3.6 0 6.6-2 7.4-4.7h.2c3.4 0 6.1-2.7 6.1-6.1s-2.9-6-6.2-6z"/></g><g><path class="st69" d="M660.1 669.8v18.3"/><path class="st70" d="M670.8 656.3h-.5c-.5-3.7-4-6.6-8.2-6.6-3.4 0-6.4 1.9-7.6 4.6-.8-.6-1.8-1-3-1-2.7 0-4.8 2.2-4.8 4.8 0 2.2 1.4 4 3.4 4.6-.5.9-.8 2-.8 3.1 0 3.6 2.9 6.5 6.5 6.5 1 0 1.9-.2 2.7-.6 1.3.9 3 1.4 4.8 1.4 3.6 0 6.6-2 7.4-4.7h.2c3.4 0 6.1-2.7 6.1-6.1 0-3.4-2.8-6-6.2-6z"/></g><g><path class="st69" d="M698.6 662.1v18.3"/><path class="st70" d="M709.2 648.6h-.5c-.5-3.7-4-6.6-8.2-6.6-3.4 0-6.4 1.9-7.6 4.6-.8-.6-1.8-1-3-1-2.7 0-4.8 2.2-4.8 4.8 0 2.2 1.4 4 3.4 4.6-.5.9-.8 2-.8 3.1 0 3.6 2.9 6.5 6.5 6.5 1 0 1.9-.2 2.7-.6 1.3.9 3 1.4 4.8 1.4 3.6 0 6.6-2 7.4-4.7h.2c3.4 0 6.1-2.7 6.1-6.1.1-3.4-2.7-6-6.2-6z"/></g><path class="st1" d="M0 583.2v35.1h24v119.5c-6.8-13.1-14.8-25.5-24-36.9v8.1c9.4 12.4 17.5 25.9 24 40.2v67.4L0 833.4v38.8h92.2v-40.4l-27.8-18.5v-67.2c10.4-21.9 24.7-42.2 42.4-59.9 40.7-40.7 94.7-63.1 152.2-63.1s111.6 22.4 152.2 63.1c21.4 21.4 37.8 46.6 48.5 74v56.3l-24.5 17.2v38.4h92.7v-40.4l-27.8-18.5v-56.8c10.7-26 26.5-49.8 47-70.3 40.7-40.7 94.7-63.1 152.2-63.1 9.6 0 19.1.6 28.4 1.9v-5c-7.3-.9-14.6-1.5-22-1.7h22v-35.1h-61.6v-23.5h61.6v-5H0v5h38.7v23.5l-38.7.1zm103.2 99.5C87.6 698.4 74.5 716 64.4 735V618.3h188.2c-56.5 1.6-109.3 24.3-149.4 64.4zm356.5 64.7c-10.8-23.8-25.9-45.7-44.9-64.7-40.1-40.1-92.9-62.8-149.4-64.4h194.3v129.1zm233.2-129.1c-56.5 1.6-109.3 24.3-149.4 64.4-18.2 18.2-32.7 38.9-43.4 61.4V618.3h192.8zm-104.6-58.6h72.8v23.5h-72.8v-23.5zm-77.8 0h72.8v23.5h-72.8v-23.5zm-77.8 0h72.8v23.5h-72.8v-23.5zm-77.8 0h72.8v23.5h-72.8v-23.5zm-77.8 0h72.8v23.5h-72.8v-23.5zm-77.8 0h72.8v23.5h-72.8v-23.5zm-77.8 0h72.8v23.5h-72.8v-23.5zm-77.8 0h72.8v23.5H43.7v-23.5z"/><path class="st8" d="M672.3 763.7c0-4.3-4.5-7.8-10.1-7.8-1.5 0-2.9.3-4.2.7-2.5-2.8-6.1-4.5-10.1-4.5-5.4 0-10 3.1-12.2 7.7-.4-.1-.9-.1-1.3-.1-4.5 0-8.2 3.4-8.2 7.7h45c.8-1.2 1.1-2.4 1.1-3.7z"/></svg>