<?xml version="1.0" encoding="utf-8"?>
<!-- Generator: Adobe Illustrator 24.1.3, SVG Export Plug-In . SVG Version: 6.00 Build 0)  -->
<svg version="1.1" id="Calque_1" xmlns="http://www.w3.org/2000/svg" xmlns:xlink="http://www.w3.org/1999/xlink" x="0px" y="0px"
	 viewBox="0 0 728 934.5" style="enable-background:new 0 0 728 934.5;" xml:space="preserve">
<style type="text/css">
	.st0{fill:none;}
	.st1{fill:#004753;}
	.st2{fill:#EAE8F5;}
	.st3{fill:#FFFFFF;}
	.st4{fill:#054752;}
	.st5{fill:url(#SVGID_1_);}
	.st6{fill:#669AA2;}
	.st7{fill:#A7C6CA;}
	.st8{fill:#91B7BC;}
	.st9{fill:#BDD4D7;}
	.st10{fill:#D3E2E4;}
	.st11{opacity:0.4;fill:#FFFFFF;enable-background:new    ;}
	.st12{fill:#FACCA3;}
	.st13{opacity:0.47;fill:#95ABBD;enable-background:new    ;}
	.st14{fill:#014753;}
	.st15{opacity:0.67;fill:#FACCA3;enable-background:new    ;}
	.st16{fill:#F5B240;}
	.st17{fill:#2ED1FF;}
	.st18{opacity:0.3;fill:#8F4160;enable-background:new    ;}
	.st19{fill:#19B4D8;}
	.st20{fill:#F1890E;}
	.st21{fill:#F9CFC4;}
	.st22{fill:url(#SVGID_2_);}
	.st23{fill:url(#SVGID_3_);}
	.st24{fill:#E9CA91;}
	.st25{fill:url(#SVGID_16_);}
	.st26{fill:url(#SVGID_17_);}
	.st27{opacity:0.69;fill:#F9CFC4;enable-background:new    ;}
	.st28{fill:#EDB6AB;}
	.st29{fill:#947347;}
	.st30{opacity:0.64;fill:#947347;enable-background:new    ;}
	.st31{fill:#573A22;}
	.st32{fill:url(#SVGID_18_);}
	.st33{fill:url(#SVGID_19_);}
	.st34{fill:#DDB68D;}
	.st35{opacity:0.67;fill:#DDB68D;enable-background:new    ;}
	.st36{fill:#1D6D75;}
	.st37{fill:#005156;}
	.st38{fill:#CD904D;}
	.st39{opacity:0.67;fill:#CD904D;enable-background:new    ;}
	.st40{opacity:0.67;fill:none;stroke:#CD904D;stroke-width:1.02;stroke-miterlimit:10;enable-background:new    ;}
	.st41{fill:#A9B7C0;}
	.st42{fill:#01353A;}
	.st43{fill:#CD8F4D;}
	.st44{fill:#FF595A;}
	.st45{fill:#ED6A5E;}
	.st46{opacity:0.67;}
	.st47{fill:#022327;}
	.st48{opacity:0.12;fill:#022327;enable-background:new    ;}
	.st49{opacity:0.45;fill:#FFFFFF;enable-background:new    ;}
	.st50{opacity:0.45;fill:#044752;enable-background:new    ;}
	.st51{opacity:0.49;}
	.st52{fill:#004553;}
	.st53{fill:#CE914D;}
	.st54{opacity:0.67;fill:#CE914D;enable-background:new    ;}
	.st55{fill:url(#SVGID_20_);}
	.st56{fill:none;stroke:#FFFFFF;stroke-width:0.836;stroke-linecap:round;stroke-linejoin:round;stroke-miterlimit:10;}
	.st57{fill:#003333;}
	.st58{fill:url(#SVGID_21_);}
	.st59{fill:#EACB92;}
	.st60{fill:url(#SVGID_22_);}
	.st61{fill:url(#SVGID_23_);}
	.st62{fill:url(#SVGID_24_);}
	.st63{opacity:0.59;fill:#EACB92;enable-background:new    ;}
	.st64{fill:url(#SVGID_25_);}
	.st65{fill:none;stroke:#000000;stroke-width:0.587;stroke-miterlimit:10;}
	.st66{opacity:0.45;fill:#054752;enable-background:new    ;}
	.st67{fill:none;stroke:#FFFFFF;stroke-linecap:round;stroke-linejoin:round;stroke-miterlimit:10;}
	.st68{fill:#538C94;}
	.st69{fill:none;stroke:#054752;stroke-width:4;stroke-miterlimit:10;}
	.st70{fill:#2E5862;}
</style>
<pattern  x="-36.3" y="927" width="50.9" height="47" patternUnits="userSpaceOnUse" id="SVGID_10_" viewBox="50.9 -94.4 50.9 47" style="overflow:visible;">
	<g>
		<rect x="50.9" y="-94.4" class="st0" width="50.9" height="47"/>
		<path class="st0" d="M50.9-47.4h50.9v-47H50.9V-47.4z"/>
		<path class="st1" d="M101.7-94.1h50.9v-47.5h-50.9L101.7-94.1z"/>
		<path class="st1" d="M50.9-94.1h50.9v-47.5H50.9V-94.1z M0-94.1h50.9v-47.5H0V-94.1z"/>
		<path class="st1" d="M101.7-47h50.9v-47.5h-50.9L101.7-47z"/>
		<path class="st1" d="M50.9-47h50.9v-47.5H50.9V-47z"/>
		<path class="st2" d="M63.8-52.1H62v4.6h1.8V-52.1z M71.3-54.2l-1.5-1.1l-2.7,3.8l1.5,1.1L71.3-54.2z"/>
		<path class="st2" d="M64.2-60.9l0.3,1.8l4.6-0.9l-0.3-1.8L64.2-60.9z"/>
		<path class="st2" d="M73.5-60.7l-1.3,1.2l2.9,3.6l1.4-1.2L73.5-60.7z M77.9-67.1L76.1-67l0.4,4.7l1.8-0.2L77.9-67.1z M67.8-68.6
			l0.9,1.6l4.1-2.3l-0.9-1.6L67.8-68.6z M55.1-54.3l-1.5-1l-2.7,3.8l1.5,1L55.1-54.3z M57.3-60.7l-1.4,1.2l3,3.5l1.4-1.1L57.3-60.7z
			"/>
		<path class="st2" d="M59.9-62.5l1.8,0.2l0.4-4.7l-1.8-0.2L59.9-62.5z"/>
		<path class="st2" d="M51.6-69.4l4.1,2.3l0.9-1.6l-4.1-2.3L51.6-69.4z"/>
		<g>
			<path class="st2" d="M78.8-52.1l0,4.7l1.8,0l0-4.7L78.8-52.1z"/>
			<path class="st2" d="M88.1-54.2l-1.5-1.1l-2.7,3.9l1.5,1L88.1-54.2z"/>
			<path class="st2" d="M81-60.9l0.3,1.8l4.6-0.9l-0.3-1.8L81-60.9z"/>
			<path class="st2" d="M90.4-60.6L89-59.5l3,3.6l1.4-1.2L90.4-60.6z"/>
			<path class="st2" d="M92.9-62.5l1.8,0.2l0.4-4.7l-1.8-0.2L92.9-62.5z"/>
			<path class="st2" d="M84.7-69.2l4.1,2.3l0.9-1.6l-4.1-2.3L84.7-69.2z"/>
		</g>
		<g>
			<path class="st2" d="M94.5-52l0,4.7l1.8,0l0-4.7L94.5-52z"/>
			<path class="st2" d="M96.8-60.9l0.3,1.8l4.6-0.9l-0.3-1.8L96.8-60.9z"/>
		</g>
		<g>
			<path class="st2" d="M62-75.7l0,4.7l1.8,0l0-4.7L62-75.7z"/>
			<path class="st2" d="M71.3-77.8l-1.5-1.1l-2.6,3.8l1.4,1.1L71.3-77.8z"/>
			<path class="st2" d="M64.3-84.5l0.4,1.8l4.6-0.9l-0.4-1.8L64.3-84.5z"/>
			<path class="st2" d="M72.2-80.7l1.4,1.2l3-3.6l-1.4-1.2L72.2-80.7z"/>
			<path class="st2" d="M76.1-86.1l1.8,0.2l0.4-4.7l-1.8-0.2L76.1-86.1z"/>
			<path class="st2" d="M67.9-92.2l0.8,1.6l4.1-2.3l-0.9-1.5L67.9-92.2z"/>
		</g>
		<g>
			<path class="st2" d="M55.1-77.9l-1.5-1l-2.7,3.8l1.5,1L55.1-77.9z"/>
			<path class="st2" d="M55.9-80.8l1.4,1.2l3-3.6L59-84.3L55.9-80.8z"/>
			<path class="st2" d="M59.9-86.1l1.8,0.2l0.4-4.7l-1.8-0.2L59.9-86.1z"/>
			<path class="st2" d="M51.6-92.8l4.1,2.3l0.9-1.6l-4.1-2.3L51.6-92.8z"/>
		</g>
		<g>
			<path class="st2" d="M80.7-75.7h-1.8L78.8-71h1.8L80.7-75.7z"/>
			<path class="st2" d="M83.9-77.8l2.7,3.8l1.5-1l-2.7-3.8L83.9-77.8z"/>
			<path class="st2" d="M81.4-85.4l-0.3,1.7l4.5,0.9l0.4-1.7L81.4-85.4z"/>
			<path class="st2" d="M89-80.6l1.4,1.2l3-3.6L92-84.2L89-80.6z"/>
			<path class="st2" d="M92.9-86.1l1.8,0.2l0.4-4.7l-1.8-0.2L92.9-86.1z"/>
			<path class="st2" d="M84.7-92.2l0.9,1.6l4-2.2l-0.8-1.6L84.7-92.2z"/>
		</g>
		<g>
			<path class="st2" d="M96.4-75.7h-1.8v4.7h1.8V-75.7z M97.2-85.4l-0.4,1.8l4.6,0.9l0.4-1.8L97.2-85.4z"/>
		</g>
		<g>
			<path class="st1" d="M0-47h50.9v-47.5H0V-47z"/>
		</g>
		<g>
			<path class="st1" d="M101.7,0h50.9v-47.5h-50.9L101.7,0z"/>
		</g>
		<g>
			<path class="st1" d="M50.9,0h50.9v-47.5H50.9V0z"/>
		</g>
		<g>
			<path class="st1" d="M0,0h50.9v-47.5H0V0z"/>
		</g>
	</g>
</pattern>
<pattern  x="-36.3" y="927" width="50" height="50" patternUnits="userSpaceOnUse" id="SVGID_11_" viewBox="0 -50 50 50" style="overflow:visible;">
	<g>
		<rect y="-50" class="st0" width="50" height="50"/>
		<path class="st0" d="M0,0h50v-50H0V0z"/>
		<path class="st1" d="M0,0h50v-6.3H0V0z"/>
		<path class="st3" d="M0-6.3h50v-6.3H0V-6.3z"/>
		<path class="st1" d="M0-12.5h50v-6.3H0V-12.5z"/>
		<path class="st3" d="M0-18.8h50v-6.3H0V-18.8z"/>
		<path class="st1" d="M0-25.1h50v-6.3H0V-25.1z"/>
		<path class="st3" d="M0-31.3h50v-6.3H0V-31.3z"/>
		<path class="st1" d="M0-37.6h50v-6.3H0V-37.6z"/>
		<path class="st3" d="M0-43.7h50V-50H0V-43.7z"/>
	</g>
</pattern>
<pattern  x="-36.3" y="927" width="50" height="50" patternUnits="userSpaceOnUse" id="SVGID_12_" viewBox="0 -50 50 50" style="overflow:visible;">
	<g>
		<rect y="-50" class="st0" width="50" height="50"/>
		<path class="st0" d="M0,0h50v-50H0V0z"/>
		<path class="st1" d="M0,0h50v-6.3H0V0z"/>
		<path class="st3" d="M0-6.3h50v-6.3H0V-6.3z"/>
		<path class="st1" d="M0-12.5h50v-6.3H0V-12.5z"/>
		<path class="st3" d="M0-18.8h50v-6.3H0V-18.8z"/>
		<path class="st1" d="M0-25.1h50v-6.3H0V-25.1z"/>
		<path class="st3" d="M0-31.3h50v-6.3H0V-31.3z"/>
		<path class="st1" d="M0-37.6h50v-6.3H0V-37.6z"/>
		<path class="st3" d="M0-43.7h50V-50H0V-43.7z"/>
	</g>
</pattern>
<pattern  x="-36.3" y="927" width="50" height="50" patternUnits="userSpaceOnUse" id="SVGID_13_" viewBox="0 -50 50 50" style="overflow:visible;">
	<g>
		<rect y="-50" class="st0" width="50" height="50"/>
		<path class="st0" d="M0,0h50v-50H0V0z"/>
		<path class="st1" d="M0,0h50v-6.3H0V0z"/>
		<path class="st3" d="M0-6.3h50v-6.3H0V-6.3z"/>
		<path class="st1" d="M0-12.5h50v-6.3H0V-12.5z"/>
		<path class="st3" d="M0-18.8h50v-6.3H0V-18.8z"/>
		<path class="st1" d="M0-25.1h50v-6.3H0V-25.1z"/>
		<path class="st3" d="M0-31.3h50v-6.3H0V-31.3z"/>
		<path class="st1" d="M0-37.6h50v-6.3H0V-37.6z"/>
		<path class="st3" d="M0-43.7h50V-50H0V-43.7z"/>
	</g>
</pattern>
<pattern  x="-36.3" y="927" width="50" height="50" patternUnits="userSpaceOnUse" id="SVGID_14_" viewBox="0 -50 50 50" style="overflow:visible;">
	<g>
		<rect y="-50" class="st0" width="50" height="50"/>
		<path class="st0" d="M0,0h50v-50H0V0z"/>
		<path class="st1" d="M0,0h50v-6.3H0V0z"/>
		<path class="st3" d="M0-6.3h50v-6.3H0V-6.3z"/>
		<path class="st1" d="M0-12.5h50v-6.3H0V-12.5z"/>
		<path class="st3" d="M0-18.8h50v-6.3H0V-18.8z"/>
		<path class="st1" d="M0-25.1h50v-6.3H0V-25.1z"/>
		<path class="st3" d="M0-31.3h50v-6.3H0V-31.3z"/>
		<path class="st1" d="M0-37.6h50v-6.3H0V-37.6z"/>
		<path class="st3" d="M0-43.7h50V-50H0V-43.7z"/>
	</g>
</pattern>
<pattern  x="-36.3" y="927" width="50.9" height="47" patternUnits="userSpaceOnUse" id="SVGID_15_" viewBox="50.9 -94.4 50.9 47" style="overflow:visible;">
	<g>
		<rect x="50.9" y="-94.4" class="st0" width="50.9" height="47"/>
		<path class="st0" d="M50.9-47.4h50.9v-47H50.9V-47.4z"/>
		<path class="st1" d="M101.7-94.1h50.9v-47.5h-50.9L101.7-94.1z"/>
		<path class="st1" d="M50.9-94.1h50.9v-47.5H50.9V-94.1z M0-94.1h50.9v-47.5H0V-94.1z"/>
		<path class="st1" d="M101.7-47h50.9v-47.5h-50.9L101.7-47z"/>
		<path class="st1" d="M50.9-47h50.9v-47.5H50.9V-47z"/>
		<path class="st2" d="M63.8-52.1H62v4.6h1.8V-52.1z M71.3-54.2l-1.5-1.1l-2.7,3.8l1.5,1.1L71.3-54.2z"/>
		<path class="st2" d="M64.2-60.9l0.3,1.8l4.6-0.9l-0.3-1.8L64.2-60.9z"/>
		<path class="st2" d="M73.5-60.7l-1.3,1.2l2.9,3.6l1.4-1.2L73.5-60.7z M77.9-67.1L76.1-67l0.4,4.7l1.8-0.2L77.9-67.1z M67.8-68.6
			l0.9,1.6l4.1-2.3l-0.9-1.6L67.8-68.6z M55.1-54.3l-1.5-1l-2.7,3.8l1.5,1L55.1-54.3z M57.3-60.7l-1.4,1.2l3,3.5l1.4-1.1L57.3-60.7z
			"/>
		<path class="st2" d="M59.9-62.5l1.8,0.2l0.4-4.7l-1.8-0.2L59.9-62.5z"/>
		<path class="st2" d="M51.6-69.4l4.1,2.3l0.9-1.6l-4.1-2.3L51.6-69.4z"/>
		<g>
			<path class="st2" d="M78.8-52.1l0,4.7l1.8,0l0-4.7L78.8-52.1z"/>
			<path class="st2" d="M88.1-54.2l-1.5-1.1l-2.7,3.9l1.5,1L88.1-54.2z"/>
			<path class="st2" d="M81-60.9l0.3,1.8l4.6-0.9l-0.3-1.8L81-60.9z"/>
			<path class="st2" d="M90.4-60.6L89-59.5l3,3.6l1.4-1.2L90.4-60.6z"/>
			<path class="st2" d="M92.9-62.5l1.8,0.2l0.4-4.7l-1.8-0.2L92.9-62.5z"/>
			<path class="st2" d="M84.7-69.2l4.1,2.3l0.9-1.6l-4.1-2.3L84.7-69.2z"/>
		</g>
		<g>
			<path class="st2" d="M94.5-52l0,4.7l1.8,0l0-4.7L94.5-52z"/>
			<path class="st2" d="M96.8-60.9l0.3,1.8l4.6-0.9l-0.3-1.8L96.8-60.9z"/>
		</g>
		<g>
			<path class="st2" d="M62-75.7l0,4.7l1.8,0l0-4.7L62-75.7z"/>
			<path class="st2" d="M71.3-77.8l-1.5-1.1l-2.6,3.8l1.4,1.1L71.3-77.8z"/>
			<path class="st2" d="M64.3-84.5l0.4,1.8l4.6-0.9l-0.4-1.8L64.3-84.5z"/>
			<path class="st2" d="M72.2-80.7l1.4,1.2l3-3.6l-1.4-1.2L72.2-80.7z"/>
			<path class="st2" d="M76.1-86.1l1.8,0.2l0.4-4.7l-1.8-0.2L76.1-86.1z"/>
			<path class="st2" d="M67.9-92.2l0.8,1.6l4.1-2.3l-0.9-1.5L67.9-92.2z"/>
		</g>
		<g>
			<path class="st2" d="M55.1-77.9l-1.5-1l-2.7,3.8l1.5,1L55.1-77.9z"/>
			<path class="st2" d="M55.9-80.8l1.4,1.2l3-3.6L59-84.3L55.9-80.8z"/>
			<path class="st2" d="M59.9-86.1l1.8,0.2l0.4-4.7l-1.8-0.2L59.9-86.1z"/>
			<path class="st2" d="M51.6-92.8l4.1,2.3l0.9-1.6l-4.1-2.3L51.6-92.8z"/>
		</g>
		<g>
			<path class="st2" d="M80.7-75.7h-1.8L78.8-71h1.8L80.7-75.7z"/>
			<path class="st2" d="M83.9-77.8l2.7,3.8l1.5-1l-2.7-3.8L83.9-77.8z"/>
			<path class="st2" d="M81.4-85.4l-0.3,1.7l4.5,0.9l0.4-1.7L81.4-85.4z"/>
			<path class="st2" d="M89-80.6l1.4,1.2l3-3.6L92-84.2L89-80.6z"/>
			<path class="st2" d="M92.9-86.1l1.8,0.2l0.4-4.7l-1.8-0.2L92.9-86.1z"/>
			<path class="st2" d="M84.7-92.2l0.9,1.6l4-2.2l-0.8-1.6L84.7-92.2z"/>
		</g>
		<g>
			<path class="st2" d="M96.4-75.7h-1.8v4.7h1.8V-75.7z M97.2-85.4l-0.4,1.8l4.6,0.9l0.4-1.8L97.2-85.4z"/>
		</g>
		<g>
			<path class="st1" d="M0-47h50.9v-47.5H0V-47z"/>
		</g>
		<g>
			<path class="st1" d="M101.7,0h50.9v-47.5h-50.9L101.7,0z"/>
		</g>
		<g>
			<path class="st1" d="M50.9,0h50.9v-47.5H50.9V0z"/>
		</g>
		<g>
			<path class="st1" d="M0,0h50.9v-47.5H0V0z"/>
		</g>
	</g>
</pattern>
<pattern  x="-36.3" y="927" width="50" height="50" patternUnits="userSpaceOnUse" id="SVGID_4_" viewBox="0 -50 50 50" style="overflow:visible;">
	<g>
		<rect y="-50" class="st0" width="50" height="50"/>
		<path class="st0" d="M0,0h50v-50H0V0z"/>
		<path class="st4" d="M0,0h50v-6.3H0V0z"/>
		<path class="st3" d="M0-6.3h50v-6.3H0V-6.3z"/>
		<path class="st4" d="M0-12.5h50v-6.3H0V-12.5z"/>
		<path class="st3" d="M0-18.8h50v-6.3H0V-18.8z"/>
		<path class="st4" d="M0-25.1h50v-6.3H0V-25.1z"/>
		<path class="st3" d="M0-31.3h50v-6.3H0V-31.3z"/>
		<path class="st4" d="M0-37.6h50v-6.3H0V-37.6z"/>
		<path class="st3" d="M0-43.7h50V-50H0V-43.7z"/>
	</g>
</pattern>
<pattern  x="-36.3" y="927" width="50" height="50" patternUnits="userSpaceOnUse" id="SVGID_5_" viewBox="0 -50 50 50" style="overflow:visible;">
	<g>
		<rect y="-50" class="st0" width="50" height="50"/>
		<path class="st0" d="M0,0h50v-50H0V0z"/>
		<path class="st4" d="M0,0h50v-6.3H0V0z"/>
		<path class="st3" d="M0-6.3h50v-6.3H0V-6.3z"/>
		<path class="st4" d="M0-12.5h50v-6.3H0V-12.5z"/>
		<path class="st3" d="M0-18.8h50v-6.3H0V-18.8z"/>
		<path class="st4" d="M0-25.1h50v-6.3H0V-25.1z"/>
		<path class="st3" d="M0-31.3h50v-6.3H0V-31.3z"/>
		<path class="st4" d="M0-37.6h50v-6.3H0V-37.6z"/>
		<path class="st3" d="M0-43.7h50V-50H0V-43.7z"/>
	</g>
</pattern>
<pattern  x="-36.3" y="927" width="50" height="50" patternUnits="userSpaceOnUse" id="SVGID_6_" viewBox="0 -50 50 50" style="overflow:visible;">
	<g>
		<rect y="-50" class="st0" width="50" height="50"/>
		<path class="st0" d="M0,0h50v-50H0V0z"/>
		<path class="st4" d="M0,0h50v-6.3H0V0z"/>
		<path class="st3" d="M0-6.3h50v-6.3H0V-6.3z"/>
		<path class="st4" d="M0-12.5h50v-6.3H0V-12.5z"/>
		<path class="st3" d="M0-18.8h50v-6.3H0V-18.8z"/>
		<path class="st4" d="M0-25.1h50v-6.3H0V-25.1z"/>
		<path class="st3" d="M0-31.3h50v-6.3H0V-31.3z"/>
		<path class="st4" d="M0-37.6h50v-6.3H0V-37.6z"/>
		<path class="st3" d="M0-43.7h50V-50H0V-43.7z"/>
	</g>
</pattern>
<pattern  x="-36.3" y="927" width="50" height="50" patternUnits="userSpaceOnUse" id="SVGID_7_" viewBox="0 -50 50 50" style="overflow:visible;">
	<g>
		<rect y="-50" class="st0" width="50" height="50"/>
		<path class="st0" d="M0,0h50v-50H0V0z"/>
		<path class="st4" d="M0,0h50v-6.3H0V0z"/>
		<path class="st3" d="M0-6.3h50v-6.3H0V-6.3z"/>
		<path class="st4" d="M0-12.5h50v-6.3H0V-12.5z"/>
		<path class="st3" d="M0-18.8h50v-6.3H0V-18.8z"/>
		<path class="st4" d="M0-25.1h50v-6.3H0V-25.1z"/>
		<path class="st3" d="M0-31.3h50v-6.3H0V-31.3z"/>
		<path class="st4" d="M0-37.6h50v-6.3H0V-37.6z"/>
		<path class="st3" d="M0-43.7h50V-50H0V-43.7z"/>
	</g>
</pattern>
<pattern  x="-36.3" y="927" width="50" height="50" patternUnits="userSpaceOnUse" id="SVGID_8_" viewBox="0 -50 50 50" style="overflow:visible;">
	<g>
		<rect y="-50" class="st0" width="50" height="50"/>
		<path class="st0" d="M0,0h50v-50H0V0z"/>
		<path class="st4" d="M0,0h50v-6.3H0V0z"/>
		<path class="st3" d="M0-6.3h50v-6.3H0V-6.3z"/>
		<path class="st4" d="M0-12.5h50v-6.3H0V-12.5z"/>
		<path class="st3" d="M0-18.8h50v-6.3H0V-18.8z"/>
		<path class="st4" d="M0-25.1h50v-6.3H0V-25.1z"/>
		<path class="st3" d="M0-31.3h50v-6.3H0V-31.3z"/>
		<path class="st4" d="M0-37.6h50v-6.3H0V-37.6z"/>
		<path class="st3" d="M0-43.7h50V-50H0V-43.7z"/>
	</g>
</pattern>
<pattern  x="-36.3" y="927" width="50" height="50" patternUnits="userSpaceOnUse" id="SVGID_9_" viewBox="0 -50 50 50" style="overflow:visible;">
	<g>
		<rect y="-50" class="st0" width="50" height="50"/>
		<path class="st0" d="M0,0h50v-50H0V0z"/>
		<path class="st4" d="M0,0h50v-6.3H0V0z"/>
		<path class="st3" d="M0-6.3h50v-6.3H0V-6.3z"/>
		<path class="st4" d="M0-12.5h50v-6.3H0V-12.5z"/>
		<path class="st3" d="M0-18.8h50v-6.3H0V-18.8z"/>
		<path class="st4" d="M0-25.1h50v-6.3H0V-25.1z"/>
		<path class="st3" d="M0-31.3h50v-6.3H0V-31.3z"/>
		<path class="st4" d="M0-37.6h50v-6.3H0V-37.6z"/>
		<path class="st3" d="M0-43.7h50V-50H0V-43.7z"/>
	</g>
</pattern>
<linearGradient id="SVGID_1_" gradientUnits="userSpaceOnUse" x1="365.7437" y1="593.8469" x2="362.9722" y2="1426.3617" gradientTransform="matrix(1 0 0 -1 0 1418)">
	<stop  offset="0" style="stop-color:#FFFFFF"/>
	<stop  offset="9.300000e-02" style="stop-color:#F7FDFF"/>
	<stop  offset="0.239" style="stop-color:#E0F8FF"/>
	<stop  offset="0.419" style="stop-color:#BCF0FF"/>
	<stop  offset="0.627" style="stop-color:#89E5FF"/>
	<stop  offset="0.856" style="stop-color:#48D7FF"/>
	<stop  offset="0.943" style="stop-color:#2ED1FF"/>
</linearGradient>
<path class="st5" d="M0,0h728v600.8H0V0z"/>
<g>
	<path class="st6" d="M395.8,705.1l319.6-212.6c0,0-64.2,2.6-84.7,2.6s-28.2,8.3-28.2,8.3s-38.5,30.2-102.1,13.5
		c-63.6-16.7-86-35.3-97.6-39.2c-11.5-3.8-21.8,2-46.2,19.3c-24.4,17.4-34,9-41.7,5.8s-10.9-9-27.6,0c-16.6,9-42.3,7.7-60.3,5.8
		c-18-1.9-50.1-21.8-50.1-21.8c-15.4-7.7-64.9-0.6-89.9-5.1s-69.3-18.6-69.3-18.6c-5.8,2-11.7,3.8-17.7,5.5v99.9L395.8,705.1z"/>
</g>
<path class="st7" d="M491.4,780.2l236.3-15.7v-288c-90.1,55-272,164.2-368.5,209.9L491.4,780.2z"/>
<path class="st8" d="M395.9,705.1l15.4-31.5C306.8,670.7,78.9,545.9,0,503.8v193.5L395.9,705.1z"/>
<path class="st9" d="M239.8,780.2l487.9-63.7v-30.7c-95.1,2.7-238,6.6-260,6.6c-33.4,0-96.9-21.8-177.8-14.1
	c-80.9,7.7-146.3-42.4-236.2-56.5c-15.9-2.5-34.3-7.9-53.7-15v173.5H239.8z"/>
<g>
	<path class="st6" d="M60.7,763.5l56.5-21.2c-40.7,0.6-79.8,0.9-117.2,1V765L60.7,763.5z"/>
</g>
<path class="st10" d="M232.5,738.5c0-2.3-2.4-4.1-5.3-4.1c-0.8,0-1.5,0.1-2.2,0.4c-1.3-1.4-3.2-2.4-5.3-2.4c-2.8,0-5.2,1.6-6.4,4
	c-0.2,0-0.5-0.1-0.7-0.1c-2.3,0-4.3,1.8-4.3,4h23.4C232.3,739.8,232.5,739.1,232.5,738.5z"/>
<g>
	<g>
		<path class="st11" d="M226.3,557.7h426.2c3.3,0,6-2.7,6-6v-80.8c0-3.3-2.7-6-6-6H226.3c-3.3,0-6,2.7-6,6v80.8
			C220.3,555.1,223,557.7,226.3,557.7z"/>
		<path class="st12" d="M479.8,492.2l9.4,0.1c0,0,1.4,4.2,1.2,12.2c0,0.3-8.1,2.6-8.1,2.6L479.8,492.2L479.8,492.2z"/>
		<path class="st12" d="M473.7,512.2c1.9-3.3,8.2-10.7,8.2-10.7l8.4-1.4c0,0,6,4.3,7.5,11.4c0.1,0.3-0.5,7.7-0.5,7.7H472
			C472,519.3,473.7,512.3,473.7,512.2L473.7,512.2z M476.6,493.8c0.3,1.1,1.7,1.1,4.2,1.6h1.2c0.6-0.1,1.3-0.2,2-0.5
			c1.7-0.5,3.4-1.2,3.8-1.4c3.4-1.5,4.7-7.7,4.7-10.2c0-5.4-4.6-6-8.1-5.4c-1.9,0.3-3.3,1.1-4.5,2c-2,1.6-2.9,4.8-2.8,5.2
			c0.2,0.5,0.4,1.1,0.4,1.5c0,0.8-0.5,1.7-0.5,2.2v0.4C477.2,492.8,476.3,492.4,476.6,493.8L476.6,493.8z"/>
		<path class="st13" d="M480.5,484.6c-0.2-0.3-1.6-1.1-3-0.2"/>
		<circle class="st14" cx="479" cy="486.1" r="0.5"/>
		<path class="st12" d="M477.7,485.2c-0.7,2-1.5,2.9-1.7,3.7c0,0.1,1.1,0.3,1.2,0.3c0,0,0.6-0.8,0.7-1.7
			C478.1,486.4,477.7,485.2,477.7,485.2z"/>
		<path class="st15" d="M485.1,495.7c-0.2,0.1,1.1,5.2-3.6,6.6l-1.1-6.9L485.1,495.7L485.1,495.7z"/>
		<path class="st12" d="M477.1,490c0,0,1.2,0.3,1.2,0.5c0,0.5-1.3,0.5-1.3,0.5L477.1,490z"/>
		<path class="st13" d="M476.6,493.8c0.3,1.1,1.7,1.1,4.2,1.6h1.2c0.5,0,0.9-0.1,1.3-0.1c0.3-0.1,0.5-0.2,0.8-0.3
			c1.7-1.1,1.7-4.5,1.7-4.5l-8.6-1.4v0.2C477.2,492.8,476.3,492.4,476.6,493.8z"/>
		<path class="st16" d="M485.8,482.9c0,0-7.9,0.4-9-0.6c-1.1-1-4.5-6.8,1.4-6.8s9.7,4,9.7,4L485.8,482.9L485.8,482.9z"/>
		<path class="st17" d="M490.3,498.7l-10.5,5.3l-6.3,8.3l-1.7,7.1h25.4l0.6-8.5c0,0-2.2-6.4-5.6-9L490.3,498.7L490.3,498.7z"/>
		<path class="st3" d="M490.5,498.2l-10.7,5.9l11.8-3.9L490.5,498.2z"/>
		<path class="st16" d="M479.4,479.8c0,0,5.1-6.6,12.6-2.1c4.6,2.7,2.6,9.6-2.5,15.4c-0.1,0.1-2.3-0.4-2.9-1.5c-0.8-1.3-0.7-5-0.7-5
			l-2.7,0.6c0,0-0.7-2.9-0.8-3.4C482,481.6,479.4,479.8,479.4,479.8L479.4,479.8z"/>
		<path class="st15" d="M486.3,485.8c0,0,0.2,1.9-0.7,2.3c-0.6,0.2-1.2,0-1.2,0s0.3,2.8,1.9,2.2
			C487.9,489.7,486.3,485.8,486.3,485.8z"/>
		<path class="st12" d="M484.4,486.4c0,0,0.9-1.7,1.6-1c0.8,0.7,0.5,2.5-1,2.5c-0.9,0-1-0.2-1-0.2L484.4,486.4z"/>
		<path class="st12" d="M485.1,486.5c0-0.3,0.4-0.5,0.6-0.2v0.3c0,0.2-0.1,0.3-0.2,0.5s-0.3,0.1-0.5,0L485.1,486.5L485.1,486.5z"/>
		<path class="st18" d="M489.6,512.5c0,0,0.3,3.6-2.1,5.7c-2.8,2.5-14.4,13-15.1,13.2c-4.9,1.5-4.5-3-3.5-5c1-1.9,3-7.3,6.9-11.4
			C479.3,511.5,485.8,505.2,489.6,512.5z"/>
		<path class="st12" d="M470.8,530.7c-1.9,0.5-2.4-0.6-2.4-0.6c-2.1-6.2-4.4-14.3-5.7-18.3c-0.2-0.7-0.1-1.1-0.2-1.6l2.6-1.5
			C478,526.2,472.8,530.2,470.8,530.7L470.8,530.7z M463.2,503.9c0,0.1-0.3-1.3-0.6-1.9c-0.1-0.2,0.1-1.1,0-1.7
			c0-0.1,0.3-0.6,0.6-1.2c0.2-0.4-0.1-0.8-0.1-0.8l-1.7,1.9l-0.1,2l-0.3,2.3c0,0,0.4,0.5,1.4,0.3
			C463.1,504.6,463.2,503.9,463.2,503.9L463.2,503.9z"/>
		<path class="st12" d="M465.6,504.1c0.1,0.4,0,1.3,0.1,1.7c0.1,1.4-0.2,1.8-0.4,4.4c-0.2,2.8-2.5,2.4-2.7,1.2
			c-0.1-0.4-0.1-0.9-0.1-1.3c-0.2-1-1.3-3.8-1.5-5.4c0,0,0.3-0.9,1-1c0.9-0.2,1.3,0.5,1.3,0.5c0.1,0.2,0.1,0.5,0.5,0.5
			c0.5-0.2,0.7-0.5,0.7-1c-0.1-1.2,0.3-1.6,0.6-1.6C465,502.3,465.5,503.4,465.6,504.1L465.6,504.1z"/>
		<path class="st12" d="M463.2,504.5c0,0,0-1.4-0.2-2c-0.1-0.2,0.3-1,0.3-1.7c0-0.1,0.5-0.6,0.8-1c0.3-0.4,0.1-0.8,0.1-0.8l-2.1,1.5
			l-0.5,1.9l-0.7,2.2c0,0,0.3,0.7,1.2,0.6C462.6,505.2,463.2,504.6,463.2,504.5L463.2,504.5z M489,512c0,0,0.3,3.6-2.1,5.7
			c-2.8,2.5-14.4,13-15.1,13.2c-4.9,1.5-4.5-3-3.5-5c1-1.9,3-7.3,6.9-11.4C478.7,510.9,485.2,504.6,489,512z"/>
		<path class="st19" d="M483.2,521.7l-8.5-8l8.5-6.5l5.9,1.7l1.4,5.4L483.2,521.7z"/>
		<path class="st3" d="M474.7,513.7l8.5,8l-0.6,0.5l-8.5-7.9L474.7,513.7z"/>
		<g>
			<path class="st20" d="M542.3,485.6c0,0,1.3,6.1-2.2,9c-6.9,5.8-0.6,12,5,10.6c5.5-1.4,3.8-13.1,3.8-13.1L542.3,485.6z"/>
			<path class="st16" d="M543.7,487.1c0,0,0.3,5.4-2.2,9.2c-3.1,4.6,0.2,9.3,2.8,9c0.5-0.1,5.3-6.2,5.3-6.2S544.9,487.1,543.7,487.1
				L543.7,487.1z"/>
			<path class="st21" d="M543.7,491.2l5.6-0.2c0,0,3.1,3.9,2.9,10.3c0,0.3-6.5,2.1-6.5,2.1L543.7,491.2L543.7,491.2z"/>
			<pattern  id="SVGID_2_" xlink:href="#SVGID_4_" patternTransform="matrix(-0.9292 0 0 -0.9292 -25559.9238 -15474.752)">
			</pattern>
			<path class="st22" d="M541,518c0,0,7.6-6.3,7.1-6.3s-4.6-8.4-4.6-8.4"/>
			<path class="st21" d="M551.4,504.5c0,0,0.5,3.7-2.7,10.1c-3.2,6.5-14.8,14.8-15.6,15.1c-5.5,1.6-5.6-2.8-4.5-5
				c1-1.9,3.5-6.1,10.4-14.5C542.3,506.2,547.7,500.9,551.4,504.5L551.4,504.5z"/>
			
				<pattern  id="SVGID_3_" xlink:href="#SVGID_5_" patternTransform="matrix(-0.8329 0.412 -0.412 -0.8329 -24125.8438 -13282.5371)">
			</pattern>
			<path class="st23" d="M543.5,505.2l-5.3,5.4l9.6,8.9"/>
			<path class="st24" d="M559,515.4l-4.7,18.5l-13.8,0.2l-1.4-18.9L559,515.4z"/>
			<path class="st21" d="M554.9,533.9l-14.1-0.2c0,0-3.8,5.7,0.8,15.4c0.5,1.1,2.8,10.8,2.8,10.8s11.5,3.3,16.8-0.6
				c0.5-0.4,2-5.7,2.4-7.5C565.5,544.9,559.7,541.8,554.9,533.9z"/>
			<path class="st24" d="M542.9,518.8c0,0-7.1,0.6-7.1-3.6c0-2.2,0.2-0.7,6.1-9.1"/>
			<path class="st21" d="M537.4,518.5c-2.1-2.4-4.8-0.2-4.8-0.2c-5.1,4.2-13.5,13.7-15.8,17.7c-0.4,0.8-0.7,1.2-0.9,1.8
				c0,0-0.4,1.4,0.9,1.9c0.7,0.2,2.7-1.4,2.7-1.4C543.3,522.6,538.8,520.2,537.4,518.5L537.4,518.5z M513.6,545.2
				c0.1-0.1-0.9,1.2-1.5,1.7c-0.2,0.1-0.4,1.2-0.9,1.7c-0.1,0.1,0.1,0.8,0.1,1.5c0,0.5-0.5,0.7-0.5,0.7l-0.9-2.8l0.8-2.1l0.8-2.5
				c0,0,0.7-0.3,1.5,0.3C513.7,544.4,513.6,545.1,513.6,545.2L513.6,545.2z"/>
			<path class="st21" d="M516.1,546c0.3-0.4,0.6-1.3,0.8-1.7c0.8-1.3,1.3-4.5,1.7-5.2c0.4-0.7,0.8-1.6-0.3-2.5c-1.2-1-2,0.5-2,0.5
				c-0.4,0.6-0.5,0.9-0.7,1.3c-0.7,0.9-3.1,3.2-4.1,4.8c0,0-0.1,1.1,0.5,1.5c0.8,0.6,1.6,0.1,1.6,0.1c0.2-0.2,0.4-0.4,0.7-0.2
				c0.4,0.4,0.6,1,0.5,1.4c-0.8,1.4-0.7,1.5-0.4,1.9C514.6,547.9,515.7,546.6,516.1,546L516.1,546z"/>
			<path class="st21" d="M513.9,544.5c0,0-0.6,1.4-1.1,2c-0.1,0.1-0.1,1.2-0.5,1.9c-0.1,0.1,0.2,0.8,0.4,1.5
				c0.1,0.5-0.3,0.8-0.3,0.8l-1.4-2.5l0.4-2.2l0.3-2.6c0,0,0.6-0.6,1.5-0.1C513.6,543.5,513.9,544.4,513.9,544.5L513.9,544.5z
				 M540,508.7c1.4-1.5,4.9-9.9,4.9-9.9l7.8-0.4c0,0,4.9,4.9,5.6,8.7c0.7,3.9,0.1,8.1,0.1,8.1h-17.6
				C540.8,515.2,540,508.8,540,508.7L540,508.7z"/>
			<pattern  id="SVGID_16_" xlink:href="#SVGID_6_" patternTransform="matrix(0.453 0 0 -0.453 -6678.4878 -7800.2227)">
			</pattern>
			<path class="st25" d="M554.8,500.7c0,0-2.4,2.9-6.4,3c-4,0.1-4.9-1.5-4.9-1.5l-0.8,1.7l-6.8,10.3c0,0-1.4,3.3,3.6,4.6l1.1,15.3
				l13.9-0.1c0,0,6.4-18,5.1-24.3C558.2,503.4,554.8,500.7,554.8,500.7"/>
			<g>
				<path class="st21" d="M556.8,505c0,0,4.4,3.5,2,10.2c-1.4,3.9-6.8,19.8-7.4,20.4c-4.2,3.8-6.3,0-6.2-2.6
					c0-2.1,0.1-11.6,2.4-17.4C549.5,510.9,551.9,503.3,556.8,505L556.8,505z"/>
			</g>
			<g>
				<path class="st21" d="M552.3,531.9c1.3,2.9-1.8,4.4-1.8,4.4c-6,2.9-18.1,6.5-22.7,6.9c-0.9,0.1-1.4,0.1-2,0.1
					c0,0-1.5-0.2-1.3-1.6c0.1-0.7,2.4-1.9,2.4-1.9C551,524.8,551.3,529.8,552.3,531.9L552.3,531.9z M518.1,542.3
					c0.1,0-1.5,0.3-2.2,0.7c-0.2,0.1-1.2-0.1-1.9,0c-0.1,0-0.7-0.4-1.3-0.7c-0.5-0.2-0.9,0.1-0.9,0.1l2.2,1.9l2.2,0.2l2.6,0.3
					c0,0,0.6-0.5,0.3-1.5C518.8,542.4,518.1,542.2,518.1,542.3L518.1,542.3z"/>
				<path class="st21" d="M518.3,539.6c0.5-0.1,1.5,0,1.9-0.1c1.5-0.1,4.7,0.7,5.4,0.6c0.8-0.1,1.8-0.1,2.1,1.3
					c0.4,1.5-1.3,1.6-1.3,1.6c-0.7,0.1-1,0.1-1.4,0.2c-1.2,0.3-4.2,1.5-6.1,1.7c0,0-1-0.3-1.2-1.1c-0.2-1,0.6-1.5,0.6-1.5
					c0.2-0.1,0.6-0.2,0.5-0.6c-0.2-0.6-0.7-1-1.1-1c-1.6,0.1-1.7,0-1.9-0.4C516,540.2,517.6,539.7,518.3,539.6z"/>
				<path class="st21" d="M518.8,542.2c0,0-1.5,0-2.3,0.2c-0.2,0.1-1.2-0.4-1.9-0.3c-0.1,0-0.6-0.5-1.2-0.9
					c-0.4-0.3-0.9-0.1-0.9-0.1l1.7,2.3l2.2,0.6l2.5,0.8c0,0,0.8-0.3,0.7-1.3C519.6,542.9,518.9,542.2,518.8,542.2z"/>
			</g>
			<pattern  id="SVGID_17_" xlink:href="#SVGID_7_" patternTransform="matrix(0.453 0 0 -0.453 -6678.4878 -7800.2227)">
			</pattern>
			<path class="st26" d="M557.8,520c0,0,5.4-14.6-1.7-15.4c-6.3-0.7-9.7,12.6-9.7,12.6L557.8,520L557.8,520z"/>
			<path class="st27" d="M547.6,492.8c0.3,1.3-0.6,5.6-2.6,6.3l-1.2-7.1L547.6,492.8z"/>
			<path class="st21" d="M541.6,485.7c0.1,1.4,0.1,2.5,0.1,3.5v0.7c0,3.1-0.2,3.6,2.4,4c1.5,0.2,5.3-1.9,5.6-2.4
				c1.1-1.9,2.7-4.6,2.7-6.6c0-4.2-3.3-6.2-6.1-6.2c-1.6,0-3.9,1.5-4.4,3.2C541.3,483.7,541.5,483.9,541.6,485.7z"/>
			<path class="st28" d="M544.5,484.9c-0.1-0.1-0.2-0.1-0.3-0.2c-0.2-0.1-0.3-0.1-0.5-0.1c-0.6-0.1-1.1,0-1.7,0.1
				c-0.2,0-0.3-0.3-0.1-0.3c0.6-0.1,1.3-0.2,1.9-0.1c0.3,0.1,0.7,0.2,1,0.4C544.9,484.8,544.7,485,544.5,484.9L544.5,484.9z"/>
			<g>
				<circle class="st14" cx="543.3" cy="485.9" r="0.4"/>
			</g>
			<path class="st21" d="M541.8,485.4c-0.1,0.1-0.6,1.2-1,1.7c-0.2,0.3,0,0.4,0.4,0.5l0.6,0.1C542.2,487.7,541.8,485.4,541.8,485.4z
				"/>
			<path class="st3" d="M542,489.9c0.7,0,0.9-0.6,0.9-0.6s-0.4,0-0.9-0.1V489.9L542,489.9z"/>
			<path class="st20" d="M547.6,480.3c-0.1,0-0.3,1.1-1.2,1.1c-2.9,0-5.8-0.9-5-3.7c0.4-1.7,2.5-1.9,5.8-0.9
				c4.5,1.4,7.1,4.1,7.6,5.5C555.6,484.7,547.6,480.3,547.6,480.3L547.6,480.3z"/>
			<path class="st20" d="M545,479.2c-0.1,0-0.2,2.6,1.1,4.8c0.6,1,3.8,1.7,3.9,3.2c0,0.7-1.1,1.9-1.2,2.8
				c-0.5,6.8-1.1,14.9,8.1,15.5c5.8,0.4,9-1.6,8.2-7.9c-0.3-2.1-3.1-4.4-7.6-5.1c-1-0.2-1.8-4.9-2.1-8.1c-0.2-2.6-2-4.1-2-4.1
				S547.5,477.6,545,479.2L545,479.2z"/>
			<path class="st27" d="M550.4,486.5c0,0.1,1.1,3.8-1.4,4.7c-0.3,0.1-0.2-2.5-0.2-2.5L550.4,486.5L550.4,486.5z"/>
			<g>
				<path class="st21" d="M548.6,486.8c0,0,1-1.2,1.6-0.6c0.6,0.6-0.5,2.7-1.2,2.5c-0.7-0.2-0.7-0.6-0.7-0.6L548.6,486.8
					L548.6,486.8z"/>
				<path class="st21" d="M549,486.9c0.2-0.1,0.4-0.1,0.5,0.1c0,0.1,0.1,0.1,0.1,0.2c0,0.1,0,0.3-0.1,0.4c-0.1,0.1-0.2,0.2-0.4,0.1"
					/>
			</g>
		</g>
		<g>
			<path d="M344.4,485.9c-0.6,0.8-1.3,1.4-1.9,2.1c-1,1.1-4.2,3.6-4.2,6.5c0.1,4.8,3.4,5.7,5.6,5.9c0.6,0,1.2,0.3,1.8,0.1
				c0.9-0.3,3-1.2,3.5-2c1.8-2.7-0.8-7.7,0-10.8c0.4-1.6,1.2-5.3-1-6c-0.8-0.3-1.5,0-1.9,0.7C345.5,483.5,345.2,484.8,344.4,485.9z"
				/>
			<path class="st29" d="M345.2,487.6l5.7,0.1c0,0,3,4.2,2.5,10.7c0,0.3-6.8,1.8-6.8,1.8L345.2,487.6L345.2,487.6z"/>
			<path class="st30" d="M350.1,488.5c-0.2,0.1-0.2,4.7-4.1,5.7l-0.8-6.4L350.1,488.5z"/>
			<path class="st29" d="M343.5,481.7c0.3,1.2-0.2,1.8-0.3,2.6c-0.2,3.9-0.7,5.4,2.2,6c1.5,0.3,5.5-1.7,5.8-2.2
				c1.2-1.9,3-4.6,3.1-6.6c0.2-4.3-3-6.5-5.9-6.6c-1.6-0.1-4,1.3-4.7,3C343.2,479.8,343.1,480,343.5,481.7z"/>
			<path class="st29" d="M346.2,481.4c-0.2-0.2-0.5-0.4-0.8-0.5c-0.4-0.1-0.8-0.1-1.2,0c-0.2,0-0.2-0.3,0-0.3c0.4,0,0.9,0,1.3,0.1
				c0.4,0.1,0.7,0.3,0.9,0.6C346.6,481.3,346.4,481.6,346.2,481.4L346.2,481.4z"/>
			<circle cx="345.1" cy="482.1" r="0.4"/>
			<path class="st29" d="M343.6,481.7c-0.1,0.1-0.2,0.9-0.8,1.8c-0.3,0.4,0.2,0.9,0.7,0.9h-0.1C344.8,483.5,343.6,481.7,343.6,481.7
				L343.6,481.7z"/>
			<path class="st31" d="M343.6,484.7c0,0,1.5,0.9,1.4,1c-0.2,0.8-1.5,0.8-1.5,0.8s-1.1-0.3-0.4-1
				C343.4,485.4,342.8,484.9,343.6,484.7z"/>
			<pattern  id="SVGID_18_" xlink:href="#SVGID_8_" patternTransform="matrix(-0.9292 0 0 -0.9292 -25592.7871 -15468.8516)">
			</pattern>
			<path class="st32" d="M343.4,512.7c0,0,7.6-6.3,7.1-6.3c-0.4,0-4.6-8.4-4.6-8.4"/>
			<path class="st29" d="M353.9,499.2c0,0,0.5,3.7-2.7,10.1c-3.2,6.5-14.8,14.8-15.6,15.1c-5.5,1.6-5.6-2.8-4.5-5
				c1-1.9,3.5-6.1,10.4-14.5C344.7,500.9,350.2,495.5,353.9,499.2L353.9,499.2z"/>
			
				<pattern  id="SVGID_19_" xlink:href="#SVGID_9_" patternTransform="matrix(-0.8329 0.412 -0.412 -0.8329 -24136.7715 -13277.5166)">
			</pattern>
			<path class="st33" d="M346,499.9l-5.3,5.4l9.5,8.8"/>
			<path class="st24" d="M361.5,510.1l-4.7,18.5l-13.9,0.2l-1.4-19L361.5,510.1z"/>
			<path class="st29" d="M357.3,528.6l-14.1-0.2c0,0-3.8,5.7,0.8,15.4c0.5,1.1,2.8,10.8,2.8,10.8s11.5,3.3,16.8-0.6
				c0.5-0.4,2-5.7,2.4-7.5C368,539.6,362.2,536.5,357.3,528.6L357.3,528.6z"/>
			<path class="st24" d="M345.4,513.4c0,0-7.1,0.6-7.1-3.6c0-2.2,0.2-0.7,6.1-9.1"/>
			<path class="st29" d="M339.8,513.1c-2.1-2.4-4.8-0.2-4.8-0.2c-5.1,4.2-13.5,13.7-15.8,17.7c-0.4,0.8-0.7,1.2-0.9,1.8
				c0,0-0.4,1.4,0.9,1.9c0.7,0.2,2.7-1.4,2.7-1.4C345.7,517.2,341.3,514.8,339.8,513.1L339.8,513.1z M316,539.8
				c0.1-0.1-0.9,1.2-1.5,1.7c-0.2,0.1-0.4,1.2-0.9,1.7c-0.1,0.1,0.1,0.8,0.1,1.5c0,0.5-0.5,0.7-0.5,0.7l-0.9-2.8l0.8-2.1l0.8-2.5
				c0,0,0.7-0.3,1.5,0.3C316.2,539,316.1,539.8,316,539.8L316,539.8z"/>
			<path class="st29" d="M318.6,540.7c0.3-0.4,0.6-1.3,0.8-1.7c0.8-1.3,1.3-4.5,1.7-5.2c0.4-0.7,0.8-1.6-0.3-2.5c-1.2-1-2,0.5-2,0.5
				c-0.4,0.6-0.5,0.9-0.7,1.3c-0.7,0.9-3.1,3.2-4.1,4.8c0,0-0.1,1.1,0.5,1.5c0.8,0.6,1.6,0.1,1.6,0.1c0.2-0.2,0.4-0.4,0.7-0.2
				c0.4,0.4,0.6,1,0.5,1.4c-0.8,1.4-0.7,1.5-0.4,1.9C317,542.6,318.2,541.3,318.6,540.7L318.6,540.7z"/>
			<path class="st29" d="M316.4,539.2c0,0-0.6,1.4-1.1,2c-0.1,0.1-0.1,1.2-0.5,1.9c-0.1,0.1,0.2,0.8,0.4,1.5
				c0.1,0.5-0.3,0.8-0.3,0.8l-1.4-2.5l0.4-2.2l0.3-2.6c0,0,0.6-0.6,1.5-0.1C316.1,538.1,316.4,539.1,316.4,539.2L316.4,539.2z"/>
			<g>
				<path class="st29" d="M342.5,503.4c1.4-1.5,4.9-9.9,4.9-9.9l7.8-0.4c0,0,4.9,4.9,5.6,8.7c0.7,3.9,0.1,8.1,0.1,8.1h-17.6
					C343.3,509.8,342.5,503.4,342.5,503.4L342.5,503.4z"/>
			</g>
			<path class="st3" d="M357.2,495.4c0,0-2.4,2.9-6.4,3s-4.9-1.5-4.9-1.5l-0.8,1.7l-6.8,10.3c0,0-1.4,3.3,3.6,4.6l1.1,15.3l13.9-0.1
				c0,0,6.4-18,5.1-24.3C360.6,498,357.2,495.4,357.2,495.4"/>
			<g>
				<path class="st29" d="M359.3,499.7c0,0,4.4,3.5,2,10.2c-1.4,3.9-6.8,19.8-7.4,20.4c-4.2,3.8-6.3,0-6.2-2.6
					c0-2.1,0.1-11.6,2.4-17.4C351.9,505.6,354.3,498,359.3,499.7L359.3,499.7z"/>
			</g>
			<g>
				<path class="st29" d="M354.7,526.5c1.3,2.9-1.8,4.4-1.8,4.4c-6,2.9-18.1,6.5-22.7,6.9c-0.9,0.1-1.4,0.1-2,0.1
					c0,0-1.5-0.2-1.3-1.6c0.1-0.7,2.4-1.9,2.4-1.9C353.5,519.5,353.8,524.5,354.7,526.5z M320.5,536.9c0.1,0-1.5,0.3-2.2,0.7
					c-0.2,0.1-1.2-0.1-1.9,0c-0.1,0-0.7-0.4-1.3-0.7c-0.5-0.2-0.9,0.1-0.9,0.1l2.2,1.9l2.2,0.2l2.6,0.3c0,0,0.6-0.5,0.3-1.5
					C321.3,537.1,320.6,536.9,320.5,536.9L320.5,536.9z"/>
				<path class="st29" d="M320.8,534.3c0.5-0.1,1.5,0,1.9-0.1c1.5-0.1,4.7,0.7,5.4,0.6c0.8-0.1,1.8-0.1,2.1,1.3
					c0.4,1.5-1.3,1.6-1.3,1.6c-0.7,0.1-1,0.1-1.4,0.2c-1.2,0.3-4.2,1.5-6.1,1.7c0,0-1-0.3-1.2-1.1c-0.2-1,0.6-1.5,0.6-1.5
					c0.2-0.1,0.6-0.2,0.5-0.6c-0.2-0.6-0.7-1-1.1-1c-1.6,0.1-1.7,0-1.9-0.4C318.5,534.9,320.1,534.4,320.8,534.3z"/>
				<path class="st29" d="M321.3,536.9c0,0-1.5,0-2.3,0.2c-0.2,0.1-1.2-0.4-1.9-0.3c-0.1,0-0.6-0.5-1.2-0.9
					c-0.4-0.3-0.9-0.1-0.9-0.1l1.7,2.3l2.2,0.6l2.5,0.8c0,0,0.8-0.3,0.7-1.3C322.1,537.6,321.3,536.9,321.3,536.9L321.3,536.9z"/>
			</g>
			<path class="st3" d="M360.3,514.7c0,0,5.4-14.6-1.7-15.4c-6.3-0.7-9.7,12.6-9.7,12.6L360.3,514.7L360.3,514.7z"/>
			<path d="M365.4,500.9c-1.5,0.5-3.1,0-4.5-0.5c-1.6-0.6-3.1-1.3-4.6-2.1c-0.6-0.3-1.1-0.6-1.5-1.2c-0.5-0.6-0.6-1.4-0.7-2.1
				c-0.2-1-0.3-2.1,0.2-3c0.4-0.7,1.3-1.2,2.1-1.2c2.9-0.3,6.3,2,8.4,3.8c0.9,0.8,2.4,1.9,2.7,3C367.9,499,366.7,500.5,365.4,500.9z
				"/>
			<path d="M367.1,489.3c0.8,0.3,1.7,0.7,2.1,1.4c0.3,0.5,0.3,1.2,0.3,1.8s0,1.3-0.4,1.8c-0.5,0.8-1.4,1.1-2.3,1.1
				c-2.4,0-4.4-1.8-6.6-2.7c-1-0.4-2-0.7-2.9-1.3c-0.9-0.6-1.6-1.5-1.6-2.6C356.1,483.2,365,488.4,367.1,489.3z"/>
			<path d="M353.1,482.7c1,0.8,2.3,1.1,3.5,0.7c0.4,2.4,2.1,4.5,4.1,5.8c0.6,0.4,1.2,0.7,1.9,0.7c0.6,0,1.2-0.1,1.7-0.3
				c1.4-0.5,2.8-1.2,3.4-2.6c0.4-0.9,0.3-2-0.2-2.9c-0.5-0.9-1.4-1.4-2.4-1.5c-0.9-0.1-1.7,0.2-2.6,0c-0.9-0.1-1.7-0.7-2.3-1.4
				c-0.9-0.9-1.9-3.2-2.6-4.3c-2.7-3.9-5.5-2.6-6.9-2.5C347.7,474.9,351.2,481.2,353.1,482.7z"/>
			<path d="M349.3,478.4c-0.2,0-5.8,1-7.4-1.4c-1.5-2.2,0.4-5.6,4.4-5.1c4.9,0.6,9.5,4.3,10,6.5C357.2,482,349.3,478.4,349.3,478.4z
				"/>
			<path d="M344.7,476.3c0,0,1.9,7.3,4.4,7c2.5-0.3,2.8-4.5,2.8-4.5L344.7,476.3L344.7,476.3z"/>
			<path d="M346.6,477.4c0,0,4.7,3.5,3.3,8c-2.6,8.2-0.2,12.9,4.2,14.5s10.4,1.5,10.5,1s-6.9-21.8-6.9-21.8L346.6,477.4z"/>
			<path class="st29" d="M349.3,483.3c0,0,1-1.2,1.5-0.6c0.5,0.6-0.2,2.7-0.8,2.4c-0.6-0.3-1-0.6-1-0.6L349.3,483.3L349.3,483.3z"/>
			<path class="st29" d="M350,483.4c0.2-0.1,0.4-0.1,0.5,0.1v0.2c0,0.1,0,0.3-0.1,0.4c-0.1,0.1-0.2,0.2-0.3,0.1"/>
		</g>
		<g>
			<path class="st34" d="M612.4,494l9.4,0.1c0,0,1.4,4.3,1.2,12.2c0,0.3-8.1,2.6-8.1,2.6L612.4,494L612.4,494z"/>
			<path class="st34" d="M609.7,486.3c0.2,0.5,0.4,1.2,0.4,1.6c0,0.9-0.5,1.8-0.5,2.3c0.2,4.2-0.8,3.8-0.4,5.3
				c0.3,1.1,1.7,1.2,4.2,1.7c1.8,0.4,6.3-1.6,7-2c3.4-1.5,4.7-8.1,4.7-10.8c0-5.7-4.7-6.3-8.1-5.7c-1.9,0.3-3.4,1.1-4.5,2.1
				C610.5,482.5,609.5,485.9,609.7,486.3L609.7,486.3z"/>
			<path d="M613.1,486.4c-0.2-0.3-1.6-1.1-3-0.2"/>
			<circle class="st14" cx="611.6" cy="487.9" r="0.5"/>
			<path class="st34" d="M610.3,486.9c-0.7,2-1.5,2.9-1.7,3.7c0,0.1,1.1,0.3,1.2,0.3L610.3,486.9z"/>
			<path class="st35" d="M617.7,497.5c-0.2,0.1,1.1,5.2-3.7,6.6l-1.1-7L617.7,497.5z"/>
			<path class="st34" d="M609.7,491.7c0,0,1.2,0.3,1.2,0.5c0,0.5-1.3,0.5-1.3,0.5L609.7,491.7z"/>
			<path d="M609.6,490.8c0,0,2.9,0.2,2.9,1.2c0,0.1-2.9-0.3-2.9-0.3V490.8z M609.5,483.5c0,0,3.9-10,14.2-4.4
				c4.7,2.6,2.9,9.8-1.1,15.9c-0.1,0.1-2.4,0.4-3-0.6c-0.8-1.3-1-5.9-1-5.9l-2.7,0.6c0,0-0.3-3.3-0.8-3.4
				C610.3,484.2,609.5,483.5,609.5,483.5L609.5,483.5z"/>
			<path class="st35" d="M618.9,487.5c0,0,0.2,1.9-0.7,2.3c-0.6,0.2-1.2,0-1.2,0s0.3,2.8,1.9,2.2
				C620.3,491.4,618.9,487.5,618.9,487.5z"/>
			<path class="st34" d="M617,488.2c0,0,0.9-1.7,1.6-1c0.8,0.7,0.5,2.5-1,2.5c-0.9,0-1-0.2-1-0.2L617,488.2z"/>
			<path class="st34" d="M617.7,488.2c0-0.3,0.4-0.5,0.6-0.2v0.3c0,0.2-0.1,0.3-0.2,0.5c-0.1,0.2-0.3,0.1-0.5,0L617.7,488.2
				L617.7,488.2z M606.1,514.7c1.9-3.3,8.2-10.7,8.2-10.7l8.4-1.4c0,0,6,4.3,7.5,11.4c0.1,0.3-0.5,7.7-0.5,7.7h-25.3
				C604.4,521.8,606,514.8,606.1,514.7L606.1,514.7z"/>
			<path class="st13" d="M608.3,497.7C608.3,497.6,608.3,497.7,608.3,497.7z"/>
			<path class="st36" d="M622.7,501.2l-10.5,5.3l-6.3,8.3l-1.7,7.1h25.5l0.6-8.5c0,0-2.2-6.4-5.6-9L622.7,501.2L622.7,501.2z"/>
			<path class="st4" d="M622.9,500.7l-10.8,5.9l11.9-3.9L622.9,500.7z"/>
			<g>
				<path class="st18" d="M622,515c0,0,0.3,3.6-2.1,5.7c-2.8,2.5-14.4,13-15.1,13.2c-4.9,1.5-4.5-3-3.5-5c1-1.9,3-7.3,6.9-11.4
					C611.6,514,618.2,507.7,622,515L622,515z"/>
				<path class="st34" d="M607.6,528.4c1,1.7,0,2.5,0,2.5c-5.4,3.7-12.5,8.2-16,10.5c-0.7,0.4-1,0.4-1.4,0.6l-2.2-2.1
					C601.2,522.7,606.5,526.6,607.6,528.4L607.6,528.4z"/>
				<path class="st12" d="M583.9,543.1c0.1-0.1-1.2,0.6-1.7,1.1c-0.1,0.1-1.1,0.2-1.6,0.5c-0.1,0-0.7-0.2-1.3-0.3
					c-0.5-0.1-0.7,0.3-0.7,0.3l2.3,1.1l2-0.4l2.3-0.4c0,0,0.4-0.6-0.1-1.4C584.6,543,583.9,543.1,583.9,543.1L583.9,543.1z"/>
				<path class="st34" d="M583.4,540.7c0.4-0.2,1.3-0.4,1.6-0.5c1.3-0.5,1.7-0.3,4.3-0.9c2.8-0.6,3,1.7,1.9,2.3
					c-0.3,0.2-0.9,0.3-1.2,0.5c-0.9,0.5-3.3,2.3-4.8,3c0,0-1,0-1.3-0.7c-0.5-0.8,0.1-1.4,0.1-1.4c0.2-0.1,0.4-0.3,0.3-0.6
					c-0.3-0.4-0.6-0.5-1.2-0.4c-1.1,0.4-1.6,0.2-1.7-0.1C581.9,541.8,582.8,541,583.4,540.7L583.4,540.7z"/>
				<path class="st34" d="M584.5,542.9c0,0-1.3,0.4-1.9,0.7c-0.1,0.1-1.1,0-1.7,0.2c-0.1,0-0.7-0.3-1.2-0.5s-0.8,0.2-0.8,0.2
					l2.1,1.6h2l2.3,0.1c0,0,0.6-0.5,0.3-1.3C585.3,543.2,584.5,542.9,584.5,542.9L584.5,542.9z M621.4,514.5c0,0,0.3,3.6-2.1,5.7
					c-2.8,2.5-14.4,13-15.1,13.2c-4.9,1.5-4.5-3-3.5-5c1-1.9,3-7.3,6.9-11.4C611.1,513.4,617.6,507.1,621.4,514.5L621.4,514.5z"/>
				<path class="st4" d="M615.5,524.2l-8.4-8l8.4-6.5l6,1.7l1.4,5.4L615.5,524.2z"/>
				<path class="st37" d="M607.1,516.2l8.4,8l-0.5,0.5l-8.5-7.9L607.1,516.2z"/>
			</g>
		</g>
		<g>
			<path class="st38" d="M426.1,521.9c-2.2-1.3-3.9,1.2-3.9,1.2c-3.1,4.7-7.6,14.3-8.5,18c-0.2,0.7-0.3,1.2-0.3,1.6
				c0,0,0,1.2,1.2,1.2c0.6,0,1.8-1.8,1.8-1.8C431.8,523.4,427.7,522.8,426.1,521.9L426.1,521.9z"/>
			<path class="st38" d="M423.5,499.6c0,0,5.7,0.1,5.5,7.5c-0.1,3.5-1.1,17.7-1.4,18.3c-2.4,4-4.8,1.3-5.3-0.8
				c-0.4-1.8-1.2-9.5-1.8-14.8C420.1,506.5,419.4,499.2,423.5,499.6L423.5,499.6z M438.2,528.4l-15.8,0.3c0,0,0.8,8.3,1.3,11.4
				c0.2,1,1.4,8.4,1.4,8.4s9.2,2.8,13.4-0.5c0.4-0.3,0.9-2.4,1.3-3.9C441.3,538.2,442.1,535.1,438.2,528.4L438.2,528.4z"/>
			<path class="st38" d="M416.2,500.3l4.4-5.2c0,0,11.4,1.8,13.9,7.9c4.1,9.9,4.1,25.6,4.1,25.6l-16.2,0.2L416.2,500.3L416.2,500.3z
				"/>
			<path class="st38" d="M411.9,494.7l5.6-4.2c0,0,4.7,5.7,5.2,7.1c0.1,0.3-6.4,3.2-6.4,3.2L411.9,494.7L411.9,494.7z"/>
			<path class="st38" d="M408.4,486.9c0,0.4,0.4,1,0.3,1.2c-0.2,0.7,0,1.6,0.1,2c0.9,3.3,0.4,3.1,1,4.3c0.4,0.9,1.4,1.4,3.3,1.3
				c1.4-0.1,4.2-3.2,4.7-3.6c2.3-1.9,2.1-7.4,1.6-9.6c-1-4.6-4.7-4.2-7.1-3.1C408.6,481.3,408.3,485.3,408.4,486.9L408.4,486.9z
				 M410.7,486.5c-0.2-0.2-1-0.4-2,0.3"/>
			<circle class="st14" cx="409.9" cy="488.6" r="0.4"/>
			<path class="st38" d="M408.8,487.2c-0.8,2-0.9,2.7-0.5,3c0,0,0.5,0.3,0.9,0C409.4,490,408.8,487.2,408.8,487.2z"/>
			<path class="st39" d="M415.3,494.8c-0.1,0.1,1,2.9,0,4.6l-2.7-3.7L415.3,494.8L415.3,494.8z"/>
			<path class="st40" d="M412,493.6c-1.3,0.4-1.9-1.9-1.8-2.2"/>
			<path class="st39" d="M409.2,488.8c0.2,0.5,0.6,0.9,1.1,1.1c0.5,0.2,1.6,0,1.7-0.9"/>
			<path class="st41" d="M410.4,491.1c-0.4-0.4-1.1-0.8-1.6-0.6v2.3l2.4-0.2C411.3,492.5,410.8,491.5,410.4,491.1z"/>
			<path class="st4" d="M421,495.1c0,0,12,2,14.2,7.8c0.3,0.7,2.7,7.1,3.4,17c0.7,9.9-0.2,8.6-0.2,8.6l-16.2,0.2l-6-27.5
				C416.3,501.2,421.6,498.5,421,495.1L421,495.1z"/>
			<path class="st38" d="M428.2,499.4c0,0,4.5,3.5-0.2,9.3c-2.2,2.8-11.6,13.4-12.2,13.7c-4.4,1.7-4.6-1.9-3.7-3.9
				c0.7-1.7,4.8-8.3,7.6-12.9C421.3,502.8,425.1,496.6,428.2,499.4L428.2,499.4z"/>
			<path class="st38" d="M416.7,518.7c-1-2.4-3.8-1.4-3.8-1.4c-5.3,1.8-14.7,6.7-17.7,9.2c-0.6,0.5-0.9,0.7-1.3,1.1
				c0,0-0.8,1,0.2,1.7c0.5,0.4,2.5-0.3,2.5-0.3C420.3,523.3,417.4,520.4,416.7,518.7L416.7,518.7z M390.1,532.4
				c0.1,0-1.1,0.7-1.7,0.9c-0.2,0-0.6,0.8-1.2,1.1c-0.1,0-0.2,0.6-0.4,1.1c-0.2,0.4-0.6,0.4-0.6,0.4l0.1-2.3l1.2-1.4l1.3-1.6
				c0,0,0.6-0.1,1.1,0.7C390.5,531.9,390.1,532.4,390.1,532.4z"/>
			<path class="st38" d="M391.9,533.8c0.3-0.2,0.9-0.8,1.1-1c1-0.8,2.4-3,2.9-3.4c0.5-0.4,1.1-1,0.5-1.9c-0.7-1.1-1.7-0.1-1.7-0.1
				c-0.5,0.4-0.6,0.6-1,0.7c-0.8,0.5-3.4,1.6-4.7,2.5c0,0-0.4,0.8,0,1.3c0.5,0.7,1.3,0.5,1.3,0.5c0.2-0.1,0.4-0.2,0.7,0
				c0.2,0.4,0.2,0.9,0,1.2c-1,0.9-1,0.9-0.9,1.3C390.1,534.8,391.4,534.1,391.9,533.8L391.9,533.8z"/>
			<path class="st38" d="M390.6,532c0,0-0.9,0.9-1.5,1.2c-0.1,0.1-0.5,0.9-0.9,1.3c-0.1,0.1-0.1,0.7-0.1,1.2
				c-0.1,0.4-0.5,0.5-0.5,0.5l-0.4-2.3l0.9-1.6l1-1.9c0,0,0.7-0.3,1.2,0.3C390.6,531.2,390.6,532,390.6,532z"/>
			<path class="st42" d="M428.2,499.4c0,0,4.5,3.5-0.2,9.3c-2.2,2.8-11.6,13.4-12.2,13.7c-4.4,1.7-4.6-1.9-3.7-3.9
				c0.7-1.7,4.8-8.3,7.6-12.9C421.3,502.8,425.1,496.6,428.2,499.4L428.2,499.4z"/>
			<path class="st42" d="M416.2,519c-1-2.4-3.8-1.4-3.8-1.4c-5.3,1.8-14.7,6.7-17.7,9.2c-0.6,0.5-0.9,0.7-1.3,1.1c0,0-0.8,1,0.2,1.7
				c0.5,0.4,2.5-0.3,2.5-0.3C419.8,523.6,416.9,520.6,416.2,519L416.2,519z"/>
			<path class="st38" d="M413.3,549c0-0.1-0.4,1.2-0.8,1.7c-0.1,0.1,0,1-0.3,1.6c0,0.1,0.2,0.6,0.4,1.1c0.1,0.4-0.2,0.7-0.2,0.7
				l-1.3-1.9l0.1-1.8l0.1-2.1c0,0,0.5-0.4,1.3-0.2C413.3,548.3,413.4,548.9,413.3,549L413.3,549z"/>
			<path class="st38" d="M415.6,548.9c0.1-0.4,0.2-1.2,0.3-1.5c0.3-1.2,0-3.8,0.2-4.5c0.1-0.6,0.3-1.5-0.8-1.8c-1.2-0.4-1.4,1-1.4,1
				c-0.1,0.6-0.2,0.8-0.3,1.2c-0.4,0.9-1.7,3.3-2.2,4.8c0,0,0.1,0.9,0.8,1c0.8,0.3,1.3-0.4,1.3-0.4c0.1-0.2,0.2-0.4,0.5-0.4
				c0.4,0.2,0.7,0.6,0.7,1c-0.3,1.3-0.2,1.4,0.1,1.5C414.8,550.8,415.4,549.5,415.6,548.9L415.6,548.9z"/>
			<path class="st38" d="M413.5,548.3c0,0-0.2,1.2-0.5,1.8c-0.1,0.2,0.2,1,0,1.6c0,0.1,0.4,0.6,0.6,1s-0.1,0.7-0.1,0.7l-1.7-1.6
				l-0.2-1.8l-0.4-2.1c0,0,0.4-0.6,1.2-0.5C413,547.6,413.5,548.3,413.5,548.3L413.5,548.3z"/>
			<path class="st39" d="M415.4,487.7c0,0,0.5,1.5-0.2,2c-0.4,0.3-0.9,0.3-0.9,0.3s0.7,2.2,1.8,1.4
				C417.2,490.5,415.4,487.7,415.4,487.7L415.4,487.7z"/>
			<path class="st41" d="M405.8,483.2c-1.2-0.6-1.9-2-1.8-3.3s1-2.6,2.2-3.1c0.4-0.2,0.9-0.3,1.4-0.2c1.1,0.2,1.9,1.1,2.9,1.5
				c0.4-0.7,1.2-1,2-0.9c0.8,0.1,1.5,0.6,2,1.2c0.1,0.2,0.3,0.4,0.5,0.4s0.4-0.1,0.5-0.2c0.9-0.4,2,0,2.7,0.6c1.5,1.3,3.4,2,2.4,6
				c-0.5,1.9-0.7,3.2-1.3,5.1c-1.7,0.6-4,0.4-3.6-2c-0.4,0.3-1.7-0.3-2-0.6c-0.3-0.3-0.2-4.4-3.4-4.7
				C408.7,482.8,407.5,484.1,405.8,483.2L405.8,483.2z"/>
			<path class="st38" d="M414.1,488.6c0,0,0.4-1.6,1.1-1.1c0.7,0.4,0.7,2.2,0,2.2c-0.7-0.1-1.1-0.4-1.1-0.4V488.6z"/>
			<path class="st38" d="M414.7,488.5c-0.1-0.3,0.2-0.5,0.4-0.3v0.1c0,0.1,0,0.1,0.1,0.2c0,0.1,0,0.3-0.1,0.4s-0.2,0.2-0.3,0.1
				L414.7,488.5z"/>
		</g>
		<g>
			<path class="st43" d="M267.5,533.8c-0.5,2.3-3.6,2.2-3.6,2.2c-6.2-2.2-13.3-5.2-17.3-6.7c-0.7-0.3-0.9-0.6-1.3-0.8l0.4-3
				C267.5,526.2,267.9,531.8,267.5,533.8z M240.7,524c0.1,0-1.2-0.6-1.9-0.7c-0.2,0-0.8-0.8-1.4-1c-0.1,0-0.3-0.7-0.6-1.2
				c-0.2-0.4-0.7-0.4-0.7-0.4l0.4,2.6l1.5,1.4l1.7,1.6c0,0,0.7,0,1.1-0.9C241.1,524.6,240.7,524,240.7,524L240.7,524z"/>
			<path class="st43" d="M242.3,522.3c0.4,0.2,1.1,0.8,1.4,1c1.1,0.7,1.3,1.3,3.2,3c2.1,1.9,0.3,3.5-0.7,2.9
				c-0.3-0.2-0.7-0.5-1.1-0.7c-1-0.5-3.8-1.3-5.3-2.2c0,0-0.5-0.8-0.2-1.4c0.4-0.9,1.3-0.7,1.3-0.7c0.2,0.1,0.5,0.2,0.7-0.1
				c0.2-0.5,0-0.8-0.4-1.2c-1-0.7-1.1-1.2-0.9-1.5C240.6,521.6,241.8,521.9,242.3,522.3z"/>
			<path class="st43" d="M241.2,524.4c0,0-1.1-0.9-1.7-1.1c-0.2-0.1-0.6-0.9-1.2-1.3c-0.1-0.1-0.2-0.7-0.3-1.3
				c-0.1-0.5-0.6-0.5-0.6-0.5l-0.1,2.6l1.2,1.6l1.3,1.9c0,0,0.7,0.2,1.2-0.5C241.4,525.3,241.3,524.4,241.2,524.4z M280.5,514.9
				c0,0,0.9,3.6-1.1,6c-2.3,2.9-11.3,15.2-14.7,14.9c-5.1-0.6-3.1-1.6-2.5-3.8c0.6-2.1,1.8-7.7,5-12.4
				C270.1,515.5,275.6,508.2,280.5,514.9L280.5,514.9z"/>
			<path class="st38" d="M287,517c0,0,1.6,3.8-0.2,6.9c-2.1,3.6-11,19.1-11.6,19.6c-4.7,3.3-5.9-1.6-5.5-4.2
				c0.4-2.4,0.7-8.9,3.4-14.7C275.5,519.5,280.3,510.5,287,517L287,517z"/>
			<path class="st38" d="M286.6,524.4l-6.1,18.7l-15.9,0.1l-1.3-18.5L286.6,524.4z"/>
			<path class="st38" d="M282.7,549.9c0.1,0.2,3.1,4.5,3.5,8.2c0.4,3.9-3.5,8.8-3.5,8.8l-15.3,0.2l-1.8-10.6l-0.9-13.6l15.8,0.2
				C280.5,543.1,281.7,547.7,282.7,549.9L282.7,549.9z M270.6,499.6l8.9,0.1c0,0,1.3,4,1.1,11.5c0,0.3-7.7,2.5-7.7,2.5L270.6,499.6z
				"/>
			<path class="st38" d="M264.8,518.6c1.8-3.1,7.7-10.1,7.7-10.1l7.9-1.3c0,0,5.7,4,7.1,10.7c0.1,0.3-0.5,7.3-0.5,7.3h-23.9
				C263.2,525.2,264.8,518.7,264.8,518.6L264.8,518.6z M268.1,492.4c0.2,0.5,0.4,1.1,0.4,1.5c0,0.8-0.5,1.7-0.5,2.2
				c0.2,4-0.7,3.6-0.4,5c0.3,1.1,1.6,1.1,3.9,1.6c1.7,0.3,5.9-1.5,6.6-1.9c3.2-1.5,4.4-7.7,4.4-10.2c0-5.3-4.4-6-7.6-5.4
				c-1.8,0.3-3.2,1.1-4.2,2C268.8,488.9,267.9,492.1,268.1,492.4L268.1,492.4z"/>
			<path d="M271.3,492.5c-0.2-0.3-1.5-1.1-2.9-0.2"/>
			<circle class="st14" cx="269.9" cy="493.9" r="0.4"/>
			<path class="st38" d="M268.6,493c-0.6,1.9-1.4,2.8-1.6,3.5c0,0.1,1,0.3,1.2,0.3L268.6,493z"/>
			<path class="st39" d="M275.6,502.9c-0.2,0.1,1,4.9-3.4,6.2l-1.1-6.6L275.6,502.9L275.6,502.9z"/>
			<path d="M270.3,487.9c0,0,4.8-6.2,12-2c4.3,2.6,2.4,9.1-2.4,14.6c-0.1,0.1-2.1-0.4-2.7-1.4c-0.7-1.2-0.7-4.7-0.7-4.7l-2.5,0.5
				c0,0-0.6-2.8-0.8-3.2C272.6,489.7,270.3,487.9,270.3,487.9L270.3,487.9z"/>
			<path class="st39" d="M276.7,493.6c0,0,0.2,1.8-0.7,2.1c-0.6,0.2-1.2,0-1.2,0s0.3,2.7,1.8,2.1S276.7,493.6,276.7,493.6
				L276.7,493.6z"/>
			<path class="st38" d="M275,494.2c0,0,0.8-1.6,1.5-1c0.7,0.7,0.4,2.4-1,2.4c-0.9,0-0.9-0.2-0.9-0.2L275,494.2z"/>
			<path class="st38" d="M275.6,494.2c0-0.3,0.4-0.4,0.6-0.2v0.3c0,0.2-0.1,0.3-0.2,0.4c-0.1,0.1-0.3,0.1-0.4,0V494.2z M268,497.5
				c0,0,1.2,0.3,1.1,0.5c0,0.4-1.2,0.5-1.2,0.5L268,497.5z"/>
			<path d="M264.7,488.1c0.1-1,1-1.8,2-1.7c0.4,0.1,0.8,0.3,1.2,0.3c0.4,0.1,0.9-0.1,1-0.5c0.1-0.3-0.1-0.7-0.2-1
				c-0.2-0.8,0.5-1.6,1.3-1.9c0.8-0.2,1.7,0.4,2.5,0.4c2.5-0.1,4.7-0.7,7.6,1.2l-3.1,2.5c0.2-0.1,0.3,0.2,0.3,0.4
				c-0.2,1.2-0.9,2.2-1.8,3c-0.5,0.4-1,0.8-1.7,0.9c-4.1,0.7-1-3.6-4.7-2.3c-1.1,0.6-1.7,1.1-2.7,0.9
				C265.4,490,264.6,489,264.7,488.1L264.7,488.1z"/>
			<path class="st44" d="M281.1,507.3l-10.9,3.7l-5.5,7.5l-1.4,5.8l2,28l16.9-3.9l-1.8-5.6l6.9-18.9c0,0,1.6-7-1.7-11.2
				C282.4,508.5,281.1,507.3,281.1,507.3"/>
			<path class="st45" d="M281.4,507.2l-11.6,4.3"/>
			<g class="st46">
				<path class="st38" d="M250.8,530.9c24.7,0,20.7,6.3,20.3,8.5"/>
			</g>
			<g>
				<path class="st47" d="M245.2,539.7c0.4,0,0.7-0.1,1-0.3c1.1-0.6,1.5-1.9,0.9-3l-8.6-16.3c-0.6-1.1-1.9-1.5-3-0.9
					c-1.1,0.6-1.5,1.9-0.9,3l8.6,16.3C243.7,539.3,244.4,539.7,245.2,539.7z"/>
				<path class="st48" d="M285.5,515.5c0,0.6,2.5,5.2-2,15.4c-4.7,10.6-18.5,15.4-18.5,15.4l-0.4-4.6L285.5,515.5L285.5,515.5z"/>
				<path class="st43" d="M271.8,540.6c-0.5,2.6-4,2.6-4,2.6c-7.1-2.3-15.3-5.4-19.8-6.9c-0.9-0.3-1-0.7-1.5-0.9l0.4-3.4
					C271.6,532,272.2,538.3,271.8,540.6L271.8,540.6z M241.1,530.5c0.1,0-1.4-0.7-2.2-0.8c-0.2,0-0.9-0.8-1.6-1.1
					c-0.1,0-0.4-0.8-0.7-1.4c-0.3-0.5-0.8-0.4-0.8-0.4l0.6,2.9l1.7,1.5l1.9,1.8c0,0,0.8,0,1.2-1
					C241.6,531.1,241.1,530.5,241.1,530.5z"/>
				<path class="st43" d="M242.9,528.4c0.4,0.2,1.2,0.9,1.6,1.1c1.3,0.8,1.5,1.4,3.8,3.3c2.5,2.1,0.5,3.9-0.7,3.3
					c-0.4-0.2-0.9-0.6-1.3-0.7c-1.1-0.5-4.4-1.3-6-2.3c0,0-0.6-0.9-0.3-1.6c0.4-1,1.4-0.9,1.4-0.9c0.2,0.1,0.6,0.2,0.8-0.2
					c0.2-0.6,0-0.9-0.5-1.3c-1.2-0.8-1.3-1.3-1.1-1.6C240.9,527.7,242.3,528.1,242.9,528.4L242.9,528.4z"/>
				<path class="st43" d="M241.7,530.9c0,0-1.3-0.9-2-1.2c-0.2-0.1-0.7-1-1.4-1.4c-0.1-0.1-0.2-0.8-0.4-1.5
					c-0.2-0.5-0.7-0.6-0.7-0.6v2.9l1.4,1.8l1.5,2.2c0,0,0.8,0.2,1.4-0.6C242,531.9,241.8,530.9,241.7,530.9L241.7,530.9z M284,517
					c0,0,1.4,3.9-0.5,6.9c-2.3,3.6-10.9,18.6-14.8,18.6c-5.8,0-3.7-1.4-3.2-3.9c0.5-2.4,1.1-8.9,4.2-14.6
					C272.3,519,277.6,510.1,284,517z"/>
				<path class="st44" d="M268.9,524.9l10.8,5.8c0,0,10-13.6,4.6-16.4C278.8,511.5,272,511.3,268.9,524.9L268.9,524.9z"/>
				<g>
					<path class="st3" d="M280.2,529.4c-3.6-1.8-7.3-3.6-10.9-5.4c-0.6-0.3-1.3-0.2-1.6,0.4c-0.3,0.5-0.2,1.3,0.4,1.6
						c3.6,1.8,7.3,3.6,10.9,5.4c0.6,0.3,1.3,0.2,1.6-0.4C280.9,530.5,280.8,529.7,280.2,529.4z"/>
				</g>
			</g>
			<path class="st47" d="M282.3,508.8c0,0-17,5.8-18.4,13.9c-0.8,4.4-0.4,5.1-0.4,5.1s4.7-13.6,21-16.5"/>
			<path class="st3" d="M280.3,505.1l-6.2,4.2l-1.2,4.1l9.9-4.6L280.3,505.1z M271,509l-0.9,2.1l1.1,3l1.5-2.6L271,509z"/>
		</g>
		<path class="st44" d="M219.5,550.7c0,2.3,0,4.4,0.1,6.4c0.1,3.8,0.2,7.1,0.3,9.5c0.1,2.6,0.3,4.4,0.5,5.1c2,6.6,11.8,6.6,11.8,6.6
			h385.4c0.4,0,0.8,0,1.2-0.1l38.1-5.5c4.4-0.6,7.7-4.5,7.7-9V466c0-4.8-3.6-8.7-8.2-9.1h-0.7c-11.7-0.1-32.1-0.1-58-0.3
			c-8.1,0-16.7-0.1-25.7-0.1c-14.9-0.1-30.9-0.1-47.6-0.2c-46.7-0.2-98.6-0.5-145.3-0.7c-16.7-0.1-32.7-0.2-47.6-0.2
			c-52-0.2-90.1-0.4-94.2-0.4c-9.2,0-13.7,4.8-15.7,7.9c-0.9,1.4-1.3,3-1.4,4.6v2.3c4.8-0.1,59.2-0.5,59.2,0.3h-1.1l-0.3,48.2
			C255.5,522.6,241.5,549.3,219.5,550.7L219.5,550.7z M299.3,519.7l0.3-48.8h116.1c0.4,0.1,0.9,0.2,1.4,0.2h105.1
			c0.5,0,0.9-0.1,1.4-0.2h69.8c0.4,0.1,0.9,0.2,1.4,0.2h44.8c0.5,0,0.9-0.1,1.4-0.2h10.6v48.8H299.3z M241.3,474.7
			c-5.2,0-9.5,4.3-9.5,9.6v9c0,5.3,4.3,9.6,9.5,9.6V474.7L241.3,474.7z"/>
		<path class="st49" d="M504.9,545.3h45.6c1.5,0,2.8-1.3,2.8-2.8v-5.6c0-1.5-1.3-2.8-2.8-2.8h-45.6c-1.5,0-2.8,1.3-2.8,2.8v5.6
			C502.1,544.1,503.3,545.3,504.9,545.3z M359.6,545.3h45.6c1.5,0,2.8-1.3,2.8-2.8v-5.6c0-1.5-1.3-2.8-2.8-2.8h-45.6
			c-1.5,0-2.8,1.3-2.8,2.8v5.6C356.8,544.1,358.1,545.3,359.6,545.3z M412.3,464v1.9c0,2.1,1.4,3.9,3.3,4.5c0.4,0.1,0.9,0.2,1.4,0.2
			h105.1c0.5,0,0.9-0.1,1.4-0.2c1.9-0.6,3.3-2.4,3.3-4.5V464c0-2.6-2.1-4.7-4.7-4.7H417C414.5,459.3,412.3,461.4,412.3,464
			L412.3,464z M590,464v1.9c0,2.1,1.4,3.9,3.3,4.5c0.4,0.1,0.9,0.2,1.4,0.2h44.8c0.5,0,0.9-0.1,1.4-0.2c1.9-0.6,3.3-2.4,3.3-4.5V464
			c0-2.6-2.1-4.7-4.7-4.7h-44.8C592.1,459.3,590,461.4,590,464z"/>
		<path class="st44" d="M572,457h-47.6v-5.8H572V457z"/>
		<path class="st44" d="M597.4,457h59.8v-5.9c0-3.9-3.1-7.1-7-7.1h-40.6L597.4,457z"/>
		<path class="st4" d="M604.9,453.6h44.3v-2.9c0-1.9-1.6-3.5-3.5-3.5H611L604.9,453.6z"/>
		<path class="st44" d="M379.2,457h-47.6v-5.8h47.6V457z"/>
		<path class="st3" d="M640.9,470.4h-47.6c0.4,0.1,0.9,0.2,1.4,0.2h44.8C640,470.6,640.4,470.5,640.9,470.4L640.9,470.4z
			 M523.5,470.4H415.7c0.4,0.1,0.9,0.2,1.4,0.2h105.1C522.6,470.6,523.1,470.5,523.5,470.4z"/>
		<path class="st50" d="M353.4,576.4v-17.2c0-8.8-7.2-16-16-16h-14.6c-8.8,0-16,7.2-16,16v17.2H353.4z"/>
		<g>
			<path class="st4" d="M308.8,567c-0.4,4.2,0.5,8.2,2.3,11.6c3.2,6,9.3,10.4,16.6,11.1c11.5,1,21.7-7.4,22.7-18.9
				c0.5-5.1-1-10-3.7-13.9c-3.4-4.9-8.9-8.2-15.2-8.8C320,547,309.9,555.5,308.8,567L308.8,567z"/>
			<path class="st4" d="M327,546.9c1.5-0.2,3-0.2,4.6-0.1c0.2,0,0.3,0,0.5,0.1l-2.5,21.9L327,546.9z M332.3,590.6
				c-1.5,0.2-3,0.2-4.6,0.1c-0.2,0-0.3,0-0.5-0.1l2.5-21.9L332.3,590.6z"/>
			<path class="st4" d="M307.8,571.4c-0.2-1.5-0.2-3-0.1-4.6c0-0.2,0-0.3,0.1-0.5l21.9,2.5L307.8,571.4z M351.5,566.1
				c0.2,1.5,0.2,3,0.1,4.6c0,0.2,0,0.3-0.1,0.5l-21.9-2.5L351.5,566.1z"/>
			<g>
				<path class="st4" d="M343.2,551.5c1.2,0.9,2.3,2,3.3,3.2c0.1,0.1,0.2,0.3,0.3,0.4l-17.3,13.7L343.2,551.5L343.2,551.5z
					 M316.1,586.1c-1.2-0.9-2.3-2-3.3-3.2c-0.1-0.1-0.2-0.3-0.3-0.4l17.3-13.7L316.1,586.1L316.1,586.1z"/>
				<g>
					<path class="st4" d="M312.3,555.2c0.9-1.2,2-2.3,3.2-3.3c0.1-0.1,0.3-0.2,0.4-0.3l13.7,17.3L312.3,555.2L312.3,555.2z
						 M347,582.4c-0.9,1.2-2,2.3-3.2,3.3c-0.1,0.1-0.3,0.2-0.4,0.3l-13.7-17.3L347,582.4L347,582.4z"/>
				</g>
			</g>
			<g>
				<path class="st4" d="M335.8,547.7c1.5,0.4,2.9,1,4.3,1.7c0.2,0.1,0.3,0.2,0.5,0.3l-10.9,19.2L335.8,547.7z M323.5,589.9
					c-1.5-0.4-2.9-1-4.3-1.7c-0.2-0.1-0.3-0.2-0.5-0.3l10.9-19.2L323.5,589.9z"/>
				<g>
					<path class="st4" d="M308.5,562.7c0.4-1.5,1-2.9,1.7-4.3c0.1-0.2,0.2-0.3,0.3-0.5l19.2,10.9L308.5,562.7z M350.8,574.9
						c-0.4,1.5-1,2.9-1.7,4.3c-0.1,0.2-0.2,0.3-0.3,0.5l-19.2-10.9L350.8,574.9z"/>
				</g>
			</g>
			<g>
				<path class="st4" d="M348.5,557.4c0.8,1.3,1.4,2.7,2,4.2c0.1,0.2,0.1,0.3,0.2,0.5l-21,6.7L348.5,557.4L348.5,557.4z
					 M310.8,580.2c-0.8-1.3-1.4-2.7-2-4.2c-0.1-0.2-0.1-0.3-0.2-0.5l21-6.7L310.8,580.2L310.8,580.2z"/>
				<g>
					<path class="st4" d="M318.3,550c1.3-0.8,2.7-1.4,4.2-2c0.2-0.1,0.3-0.1,0.5-0.2l6.7,21L318.3,550L318.3,550z M341,587.6
						c-1.3,0.8-2.7,1.4-4.2,2c-0.2,0.1-0.3,0.1-0.5,0.2l-6.7-21L341,587.6L341,587.6z"/>
				</g>
			</g>
			<g class="st51">
				<path class="st52" d="M311.2,578.6c3.2,6,9.3,10.4,16.5,11c11.5,1,21.6-7.4,22.6-18.9c0.5-5.1-1-10-3.7-13.9l-11.2,6.9l-13,8
					L311.2,578.6L311.2,578.6z"/>
			</g>
			<g>
				<path class="st3" d="M317.5,567.8c-0.6,6.7,4.3,12.6,11,13.2s12.6-4.3,13.2-11s-4.3-12.6-11-13.2
					C324.1,556.2,318.1,561.1,317.5,567.8z"/>
			</g>
			<g>
				<path class="st4" d="M329.3,572.7c-2.1-0.2-3.7-2.1-3.5-4.2s2.1-3.7,4.2-3.5s3.7,2.1,3.5,4.2c-0.2,2-1.9,3.5-3.9,3.5H329.3
					L329.3,572.7z M326.9,568.6c-0.1,1.5,1,2.8,2.5,3c1.5,0.1,2.8-1,3-2.5c0.1-1.5-1-2.8-2.5-3h-0.2
					C328.2,566.1,327.1,567.2,326.9,568.6z"/>
			</g>
		</g>
		<path class="st4" d="M493.3,565.2h-7.8v-3.3h7.8V565.2z"/>
		<path class="st4" d="M396.4,565.2h-7.8v-3.3h7.8V565.2z"/>
		<path class="st4" d="M248,565.2h-7.8v-3.3h7.8V565.2z"/>
		<path class="st4" d="M227.3,555.3c0,0-0.1,6.2-0.8,7.1c-1.2,1.8-4,2.4-7.2,2.3v-9.4H227.3L227.3,555.3z"/>
		<path class="st3" d="M231.8,483.7v8.8c0,5.2,4.3,9.5,9.5,9.5v-27.8C236.1,474.2,231.8,478.5,231.8,483.7z"/>
		<path class="st44" d="M231.8,484.3v9c0,5.3,4.3,9.6,9.5,9.6v-28.2C236.1,474.7,231.8,479,231.8,484.3L231.8,484.3z"/>
		<path class="st4" d="M660.2,554.4h4c0.8,0,1.4-0.6,1.4-1.4v-33.1c0-0.8-0.6-1.4-1.4-1.4h-4c-0.8,0-1.4,0.6-1.4,1.4V553
			C658.8,553.8,659.4,554.4,660.2,554.4z"/>
		<path class="st50" d="M604.3,576.4v-17.2c0-8.8-7.2-16-16-16h-14.6c-8.8,0-16,7.2-16,16v17.2H604.3z"/>
		<g>
			<path class="st4" d="M559.7,566.6c-0.4,4.2,0.5,8.2,2.3,11.6c3.2,6,9.3,10.4,16.6,11.1c11.5,1,21.7-7.4,22.7-18.9
				c0.5-5.1-1-10-3.7-13.9c-3.4-4.9-8.9-8.2-15.2-8.8C570.9,546.7,560.8,555.1,559.7,566.6L559.7,566.6z"/>
			<path class="st4" d="M577.9,546.6c1.5-0.2,3-0.2,4.6-0.1c0.2,0,0.3,0,0.5,0.1l-2.5,21.9L577.9,546.6z M583.2,590.3
				c-1.5,0.2-3,0.2-4.6,0.1c-0.2,0-0.3,0-0.5-0.1l2.5-21.9L583.2,590.3z"/>
			<path class="st4" d="M558.7,571.1c-0.2-1.5-0.2-3-0.1-4.6c0-0.2,0-0.3,0.1-0.5l21.9,2.5L558.7,571.1z M602.4,565.8
				c0.2,1.5,0.2,3,0.1,4.6c0,0.2,0,0.3-0.1,0.5l-21.9-2.5L602.4,565.8z"/>
			<g>
				<path class="st4" d="M594.1,551.1c1.2,0.9,2.3,2,3.3,3.2c0.1,0.1,0.2,0.3,0.3,0.4l-17.3,13.7L594.1,551.1L594.1,551.1z
					 M567,585.7c-1.2-0.9-2.3-2-3.3-3.2c-0.1-0.1-0.2-0.3-0.3-0.4l17.3-13.7L567,585.7L567,585.7z"/>
				<g>
					<path class="st4" d="M563.3,554.8c0.9-1.2,2-2.3,3.2-3.3c0.1-0.1,0.3-0.2,0.4-0.3l13.7,17.3L563.3,554.8L563.3,554.8z
						 M597.9,582c-0.9,1.2-2,2.3-3.2,3.3c-0.1,0.1-0.3,0.2-0.4,0.3l-13.7-17.3L597.9,582L597.9,582z"/>
				</g>
			</g>
			<g>
				<path class="st4" d="M586.7,547.3c1.5,0.4,2.9,1,4.3,1.7c0.2,0.1,0.3,0.2,0.5,0.3l-10.9,19.2L586.7,547.3L586.7,547.3z
					 M574.4,589.5c-1.5-0.4-2.9-1-4.3-1.7c-0.2-0.1-0.3-0.2-0.5-0.3l10.9-19.2L574.4,589.5L574.4,589.5z"/>
				<g>
					<path class="st4" d="M559.4,562.3c0.4-1.5,1-2.9,1.7-4.3c0.1-0.2,0.2-0.3,0.3-0.5l19.2,10.9L559.4,562.3z M601.7,574.5
						c-0.4,1.5-1,2.9-1.7,4.3c-0.1,0.2-0.2,0.3-0.3,0.5l-19.2-10.9L601.7,574.5z"/>
				</g>
			</g>
			<g>
				<path class="st4" d="M599.4,557c0.8,1.3,1.4,2.7,2,4.2c0.1,0.2,0.1,0.3,0.2,0.5l-21,6.7L599.4,557L599.4,557z M561.7,579.8
					c-0.8-1.3-1.4-2.7-2-4.2c-0.1-0.2-0.1-0.3-0.2-0.5l21-6.7L561.7,579.8L561.7,579.8z"/>
				<g>
					<path class="st4" d="M569.2,549.6c1.3-0.8,2.7-1.4,4.2-2c0.2-0.1,0.3-0.1,0.5-0.2l6.7,21L569.2,549.6L569.2,549.6z M592,587.2
						c-1.3,0.8-2.7,1.4-4.2,2c-0.2,0.1-0.3,0.1-0.5,0.2l-6.7-21L592,587.2z"/>
				</g>
			</g>
			<g class="st51">
				<path class="st52" d="M562.1,578.2c3.2,6,9.3,10.4,16.5,11c11.5,1,21.6-7.4,22.6-18.9c0.5-5.1-1-10-3.7-13.9l-11.2,6.9l-13,8
					L562.1,578.2L562.1,578.2z"/>
			</g>
			<g>
				<path class="st3" d="M568.5,567.4c-0.6,6.7,4.3,12.6,11,13.2c6.7,0.6,12.6-4.3,13.2-11c0.6-6.7-4.3-12.6-11-13.2
					C575,555.8,569.1,560.7,568.5,567.4L568.5,567.4z"/>
			</g>
			<g>
				<path class="st4" d="M580.2,572.4c-2.1-0.2-3.7-2.1-3.5-4.2c0.2-2.1,2.1-3.7,4.2-3.5c2.1,0.2,3.7,2.1,3.5,4.2
					c-0.2,2-1.9,3.5-3.9,3.5H580.2z M577.8,568.3c-0.1,1.5,1,2.8,2.5,3c1.5,0.1,2.8-1,3-2.5c0.1-1.5-1-2.8-2.5-3h-0.2
					C579.2,565.8,578,566.8,577.8,568.3z"/>
			</g>
		</g>
		<path class="st3" d="M639.7,470.9h-47.6c0.4,0.1,0.9,0.2,1.4,0.2h44.8C638.8,471.1,639.2,471,639.7,470.9L639.7,470.9z
			 M522.3,470.9H414.5c0.4,0.1,0.9,0.2,1.4,0.2H521C521.4,471.1,521.9,471,522.3,470.9z"/>
		<g>
			<path class="st11" d="M215.6,532.7L193,512.6L162.1,500H90.4L74,512.6v13.2l78.1,8.8h39.6L215.6,532.7z"/>
			<path class="st1" d="M149.6,550.9c0,0.6-0.5,1.1-1.1,1.1h-5.3c-0.6,0-1.1-0.5-1.1-1.1c0-0.6,0.5-1.1,1.1-1.1h5.3
				C149.1,549.8,149.6,550.3,149.6,550.9z"/>
			<path class="st53" d="M154.9,526c0,0-1.2,2.8,0.1,5.1c1.5,2.7,8,14,8.5,14.3c3.5,2.4,4.3-1.2,4.1-3c-0.3-1.8-0.5-6.6-2.5-10.8
				C163.3,527.9,159.8,521.2,154.9,526L154.9,526z"/>
			<path class="st53" d="M155.1,531.4l4.5,13.8h11.7l1-13.5L155.1,531.4z"/>
			<path class="st53" d="M158,550.2c-0.1,0.2-2.3,3.3-2.6,6c-0.3,2.9,2.6,6.4,2.6,6.4l11.2,0.1l1.3-7.8l0.6-10l-11.6,0.2
				C159.6,545.1,158.8,548.5,158,550.2L158,550.2z M166.9,513.3l-6.5,0.1c0,0-1,2.9-0.8,8.4c0,0.2,5.6,1.8,5.6,1.8L166.9,513.3z"/>
			<path class="st53" d="M171.1,527.2c-1.3-2.3-5.7-7.4-5.7-7.4l-5.8-1c0,0-4.2,3-5.2,7.9c0,0.2,0.4,5.4,0.4,5.4h17.5
				C172.3,532,171.1,527.2,171.1,527.2z M168.7,508c-0.1,0.3-0.3,0.8-0.3,1.1c0,0.6,0.4,1.2,0.3,1.6c-0.1,2.9,0.5,2.6,0.3,3.7
				c-0.2,0.8-1.2,0.8-2.9,1.2c-1.2,0.2-4.3-1.1-4.8-1.4c-2.3-1.1-3.2-5.6-3.2-7.5c0-3.9,3.2-4.4,5.6-3.9c1.3,0.2,2.3,0.8,3.1,1.4
				C168.2,505.3,168.9,507.7,168.7,508L168.7,508z"/>
			<path d="M166.4,508c0.2-0.2,1.1-0.8,2.1-0.1"/>
			<circle class="st1" cx="167.4" cy="509.1" r="0.3"/>
			<path class="st53" d="M168.3,508.4c0.5,1.4,1,2,1.2,2.6c0,0.1-0.8,0.2-0.8,0.2C168.7,511.1,168.3,508.4,168.3,508.4z"/>
			<path class="st54" d="M163.2,515.7c0.1,0.1-0.7,3.6,2.5,4.6l0.8-4.8L163.2,515.7z"/>
			<path class="st53" d="M168.8,511.7c0,0-0.9,0.2-0.8,0.4c0,0.3,0.9,0.4,0.9,0.4L168.8,511.7L168.8,511.7z"/>
			<path d="M171.2,504.8c0-0.7-0.8-1.3-1.5-1.2c-0.3,0-0.6,0.2-0.8,0.2c-0.3,0-0.6-0.1-0.7-0.3c-0.1-0.2,0.1-0.5,0.1-0.7
				c0.1-0.6-0.4-1.2-1-1.4c-0.6-0.2-1.2,0.3-1.8,0.3c-1.8-0.1-3.4-0.5-5.6,0.9l2.3,1.8c-0.1-0.1-0.2,0.2-0.2,0.3
				c0.1,0.9,0.6,1.6,1.3,2.2c0.4,0.3,0.8,0.6,1.2,0.6c3,0.5,0.8-2.6,3.5-1.7c0.8,0.4,1.3,0.8,2,0.6S171.3,505.5,171.2,504.8
				L171.2,504.8z"/>
			<path d="M167.1,504.7c0,0-3.5-4.6-8.8-1.4c-3.2,1.9-1.8,6.6,1.8,10.7c0,0.1,1.6-0.3,2-1c0.5-0.9,0.5-3.5,0.5-3.5l1.8,0.4l0.6-2.4
				C165.4,505.9,167.1,504.7,167.1,504.7L167.1,504.7z"/>
			<path class="st54" d="M162.4,508.8c0,0-0.1,1.3,0.5,1.6c0.4,0.2,0.9,0,0.9,0s-0.2,1.9-1.3,1.5
				C161.4,511.5,162.4,508.8,162.4,508.8L162.4,508.8z"/>
			<path class="st53" d="M163.7,509.3c0,0-0.6-1.2-1.1-0.7s-0.3,1.7,0.7,1.7c0.6,0,0.7-0.1,0.7-0.1L163.7,509.3L163.7,509.3z"/>
			<path class="st53" d="M163.2,509.3c0-0.2-0.3-0.3-0.4-0.1v0.2c0,0.1,0,0.2,0.1,0.3c0.1,0.1,0.2,0.1,0.3,0L163.2,509.3
				L163.2,509.3z"/>
			<pattern  id="SVGID_20_" xlink:href="#SVGID_10_" patternTransform="matrix(0.2276 0 0 -0.2323 -9909.1475 -4641.2642)">
			</pattern>
			<path class="st55" d="M159.1,518.9l8.5,3.1l3.6,5.1l1,4.2l-1.5,20.5l-12.4-2.9l1.3-4.1l-5.1-13.9c0,0-1.2-5.2,1.2-8.2
				S159.1,518.9,159.1,518.9"/>
			<path class="st56" d="M158.9,518.8l9.1,3.4"/>
			<path class="st57" d="M158.3,518.3c0,0,12.4,4.3,13.5,10.2c0.6,3.3,0.3,3.7,0.3,3.7s-3.5-9.9-15.4-12.1"/>
			<pattern  id="SVGID_21_" xlink:href="#SVGID_11_" patternTransform="matrix(0.5901 0 0 -0.5901 -4912.5083 -10488.251)">
			</pattern>
			<path class="st58" d="M118.9,533.2c0,0-5.3-4.4-5-4.4s3.2-5.9,3.2-5.9"/>
			<path class="st59" d="M111.6,523.6c0,0-0.4,2.6,1.9,7.1c2.3,4.6,10.4,10.4,10.9,10.6c3.8,1.1,3.9-2,3.1-3.6
				c-0.7-1.3-2.5-4.3-7.3-10.2C118,524.8,114.2,521.1,111.6,523.6L111.6,523.6z"/>
			
				<pattern  id="SVGID_22_" xlink:href="#SVGID_12_" patternTransform="matrix(0.5289 0.2617 0.2617 -0.5289 -5763.8442 -9115.8203)">
			</pattern>
			<path class="st60" d="M117.2,524.1l3.7,3.8l-6.7,6.3"/>
			<path class="st59" d="M106.3,531.3l3.3,13l9.7,0.1l1-13.3L106.3,531.3z"/>
			<path class="st59" d="M109.2,544.3l9.9-0.1c0,0,2.7,4-0.6,10.8c-0.3,0.7-2,7.6-2,7.6s-8.1,2.4-11.8-0.4c-0.4-0.3-1.4-4-1.7-5.3
				C101.7,552.1,105.8,549.8,109.2,544.3L109.2,544.3z M117.6,533.7c0,0,5,0.4,5-2.5c0-1.6-0.1-0.5-4.3-6.4 M124.5,541.4
				c1.5,1.7,3.4,0.1,3.4,0.1c3.6-3,9.4-9.7,11-12.6c0.3-0.5,0.5-0.9,0.6-1.3c0,0,0.3-1-0.7-1.3c-0.5-0.2-1.9,1-1.9,1
				C120.3,538.5,123.5,540.2,124.5,541.4L124.5,541.4z M141.1,522.5c-0.1,0.1,0.6-0.9,1.1-1.2c0.1-0.1,0.3-0.8,0.6-1.2V519
				c0-0.4,0.3-0.5,0.3-0.5l0.6,1.9l-0.5,1.5l-0.6,1.7c0,0-0.5,0.2-1.1-0.2C141,523,141.1,522.5,141.1,522.5L141.1,522.5z"/>
			<path class="st59" d="M139.3,521.9c-0.2,0.3-0.4,0.9-0.6,1.2c-0.5,0.9-0.9,3.2-1.2,3.7s-0.6,1.1,0.2,1.7c0.9,0.7,1.4-0.4,1.4-0.4
				c0.3-0.4,0.3-0.6,0.5-0.9c0.5-0.7,2.2-2.3,2.9-3.4c0,0,0.1-0.8-0.4-1.1c-0.6-0.4-1.1-0.1-1.1-0.1c-0.1,0.1-0.3,0.3-0.5,0.2
				c-0.3-0.3-0.4-0.7-0.3-1c0.5-1,0.5-1.1,0.3-1.3C140.4,520.5,139.6,521.4,139.3,521.9L139.3,521.9z"/>
			<path class="st59" d="M140.8,522.9c0,0,0.4-1,0.8-1.4c0.1-0.1,0.1-0.9,0.3-1.3c0-0.1-0.2-0.6-0.3-1c-0.1-0.4,0.2-0.6,0.2-0.6
				l1,1.8l-0.1,1.6l-0.2,1.8c0,0-0.4,0.4-1.1,0.1C141,523.6,140.8,523,140.8,522.9L140.8,522.9z M119.6,526.6c-1-1.1-3.4-7-3.4-7
				l-5.5-0.3c0,0-3.5,3.4-4,6.1c-0.5,2.7-0.1,5.7-0.1,5.7H119C119.1,531.1,119.6,526.6,119.6,526.6z"/>
			<pattern  id="SVGID_23_" xlink:href="#SVGID_13_" patternTransform="matrix(0.5901 0 0 -0.5901 -4912.5083 -10488.251)">
			</pattern>
			<path class="st61" d="M109.2,521c0,0,1.7,2,4.5,2.1c2.8,0.1,3.4-1,3.4-1l0.6,1.2l4.8,7.2c0,0,1,2.3-2.5,3.3c-3.5,0.9,0,0,0,0
				l-0.8,10.7l-9.8-0.1c0,0-4.5-12.7-3.6-17.1S109.2,521,109.2,521"/>
			<g>
				<path class="st59" d="M107.8,524c0,0-3.1,2.5-1.4,7.2c1,2.8,4.8,13.9,5.2,14.3c3,2.7,4.4,0,4.4-1.8c0-1.5-0.1-8.1-1.7-12.3
					C113,528.1,111.3,522.8,107.8,524z"/>
			</g>
			<g>
				<path class="st59" d="M111,542.9c-0.9,2.1,1.3,3.1,1.3,3.1c4.2,2,12.7,4.6,16,4.8c0.6,0.1,1,0.1,1.4,0.1c0,0,1-0.2,0.9-1.2
					c-0.1-0.5-1.7-1.3-1.7-1.3C111.9,537.9,111.7,541.4,111,542.9L111,542.9z M135.1,550.2c-0.1,0,1.1,0.2,1.5,0.5
					c0.1,0.1,0.9-0.1,1.4,0c0.1,0,0.5-0.3,0.9-0.5c0.3-0.2,0.6,0.1,0.6,0.1l-1.5,1.4l-1.6,0.1l-1.8,0.2c0,0-0.4-0.3-0.2-1.1
					C134.5,550.3,135,550.2,135.1,550.2L135.1,550.2z"/>
				<path class="st59" d="M134.9,548.3c-0.3-0.1-1,0-1.3,0c-1.1-0.1-3.3,0.5-3.8,0.4c-0.6,0-1.3,0-1.5,0.9c-0.3,1.1,0.9,1.1,0.9,1.1
					c0.5,0,0.7,0,1,0.1c0.8,0.2,3,1,4.3,1.2c0,0,0.7-0.2,0.8-0.8c0.2-0.7-0.4-1.1-0.4-1.1c-0.2-0.1-0.4-0.1-0.4-0.4
					c0.1-0.4,0.5-0.7,0.8-0.7c1.1,0.1,1.2,0,1.3-0.3C136.5,548.7,135.4,548.4,134.9,548.3L134.9,548.3z"/>
				<path class="st59" d="M134.5,550.2c0,0,1.1,0,1.6,0.1c0.1,0,0.8-0.3,1.3-0.2c0.1,0,0.4-0.4,0.8-0.7c0.3-0.2,0.6,0,0.6,0
					l-1.1,1.6l-1.5,0.4l-1.7,0.6c0,0-0.5-0.2-0.5-0.9C134,550.6,134.5,550.2,134.5,550.2L134.5,550.2z"/>
			</g>
			<pattern  id="SVGID_24_" xlink:href="#SVGID_14_" patternTransform="matrix(0.5901 0 0 -0.5901 -4912.5083 -10488.251)">
			</pattern>
			<path class="st62" d="M107.1,534.6c0,0-3.8-10.3,1.2-10.8c4.4-0.5,6.8,8.9,6.8,8.9L107.1,534.6L107.1,534.6z"/>
			<g>
				<path class="st1" d="M115.3,503.9c0,0,2.9,0.3,3.5,3.6c0.7,3.7,1,11.6,1,11.6l-13.3-0.1C106.5,519.1,104.8,502.2,115.3,503.9z"
					/>
				<path class="st59" d="M111.6,515.5l-1.2,5h5.9v-6.2L111.6,515.5z"/>
				<path class="st63" d="M111.9,515.7c0.1,0,0,2.8,4.5,3.3l-0.2-4.6L111.9,515.7z"/>
				<path class="st59" d="M118.1,511c0,3-1.6,5.4-4.3,5.4s-4.3-2.5-4.3-5.5c0-3,1.6-5.4,4.3-5.4C116.4,505.5,118.1,508,118.1,511z"
					/>
				<path class="st1" d="M110.7,510.4c0.3-0.3,1.8-0.4,2.1,0 M115.1,510.5c0.5-0.5,2-0.3,2.3,0.1"/>
				<circle class="st1" cx="111.6" cy="511.2" r="0.3"/>
				<circle class="st1" cx="116.1" cy="511.2" r="0.3"/>
				<path class="st3" d="M112.7,513.1h2.4c0,0-0.2,1-1.2,1C112.8,514.2,112.7,513.1,112.7,513.1z"/>
				<path class="st59" d="M109.8,512.6h-0.6c-0.2,0-0.3-0.1-0.3-0.3v-1.4c0-0.2,0.1-0.3,0.3-0.3h0.6c0.2,0,0.3,0.1,0.3,0.3v1.4
					C110.1,512.5,110,512.6,109.8,512.6z M118.1,512.6h-0.6c-0.2,0-0.3-0.1-0.3-0.3v-1.4c0-0.2,0.1-0.3,0.3-0.3h0.6
					c0.2,0,0.3,0.1,0.3,0.3v1.4C118.4,512.5,118.3,512.6,118.1,512.6z"/>
				<path class="st1" d="M111.5,505.8c0,0-0.7,3.5-0.4,3.6c0.3,0.1,3.8,0.1,3.8,0.1s0.7-3.7,0.6-3.3s0.3,3.3,0.3,3.3l1.4,0.3
					c0,0,0.9-5.8-1.7-5.7C112.9,504.2,111.7,504.4,111.5,505.8L111.5,505.8z"/>
				<path class="st63" d="M114.2,510.4v1.6l-0.9,0.2c0,0,0.9,0.9,1.3,0.4C115.1,512.1,114.6,510.5,114.2,510.4L114.2,510.4z
					 M109.7,511.1h-0.2c-0.1,0-0.1,0-0.2,0.1c0,0.1,0,0.1-0.1,0.2v0.3c0,0.1,0.1,0.2,0.1,0.2h0.2 M117.8,511.1
					c0.1,0,0.2,0.1,0.3,0.2v0.3c0,0.1,0,0.2-0.1,0.3c0,0.1-0.1,0.2-0.2,0.1h-0.1"/>
			</g>
			<path class="st57" d="M109.9,520.1l-1.7,2c0,0,11.3,6.8,10.7,20.8l0.5,0.2C119.4,543.1,122.9,527,109.9,520.1"/>
			<g>
				<path class="st1" d="M192.2,534.3c-0.3,0-0.5-0.1-0.8-0.2c-0.8-0.4-1.1-1.4-0.7-2.2l6.3-12c0.4-0.8,1.4-1.1,2.2-0.7
					c0.8,0.4,1.1,1.4,0.7,2.2l-6.3,12C193.3,534,192.8,534.3,192.2,534.3z"/>
				<path class="st4" d="M155.9,524.9c0,0.4-1.9,3.8,1.5,11.3c3.5,7.8,13.6,11.3,13.6,11.3l0.3-3.4L155.9,524.9L155.9,524.9z"/>
				<path class="st38" d="M172.2,537.5c0.5,1.9,3.1,1.7,3.1,1.7c5.1-2,10.9-4.7,14.1-6.1c0.6-0.2,0.7-0.6,1.1-0.7l-0.5-2.5
					C171.9,531.2,171.8,535.9,172.2,537.5L172.2,537.5z M194.1,528.5c-0.1,0,1-0.6,1.6-0.7c0.1,0,0.6-0.7,1.1-0.9
					c0.1,0,0.2-0.6,0.4-1c0.2-0.4,0.6-0.4,0.6-0.4l-0.3,2.1l-1.2,1.2l-1.3,1.4c0,0-0.6,0-0.9-0.7C193.8,529,194.1,528.6,194.1,528.5
					L194.1,528.5z"/>
				<path class="st38" d="M192.7,527.2c-0.3,0.2-0.9,0.7-1.1,0.9c-0.9,0.7-1,1.1-2.6,2.6c-1.7,1.6-0.2,2.9,0.7,2.4
					c0.3-0.2,0.6-0.5,0.9-0.6c0.8-0.4,3.1-1.2,4.3-2c0,0,0.4-0.7,0.1-1.2c-0.4-0.7-1.1-0.6-1.1-0.6c-0.2,0.1-0.4,0.2-0.6-0.1
					c-0.2-0.4-0.1-0.7,0.3-1c0.8-0.6,0.9-1,0.7-1.2C194.2,526.6,193.2,526.9,192.7,527.2L192.7,527.2z"/>
				<path class="st38" d="M193.7,528.9c0,0,0.9-0.7,1.4-1c0.1-0.1,0.5-0.8,0.9-1.1c0.1,0,0.1-0.6,0.2-1.1c0.1-0.4,0.5-0.5,0.5-0.5
					l0.1,2.2l-0.9,1.4l-1,1.7c0,0-0.6,0.2-1-0.4C193.6,529.7,193.7,528.9,193.7,528.9L193.7,528.9z M156.7,527.3c0,0,0.4,3,2.7,4.3
					c2.7,1.6,13.3,8.5,15.8,7.2c3.8-1.9,2-2.2,0.8-3.6c-1.1-1.4-3.7-5.5-7.6-8.1C165,524.7,158.6,520.6,156.7,527.3L156.7,527.3z"/>
				
					<pattern  id="SVGID_25_" xlink:href="#SVGID_15_" patternTransform="matrix(0.1693 -8.657000e-02 -8.834000e-02 -0.1728 -10626.4395 -3833.6414)">
				</pattern>
				<path class="st64" d="M169.2,527.3l-5.1,7.4c0,0-11.1-5.6-8.5-9.2S162.7,519.5,169.2,527.3z"/>
				<g>
					<path class="st3" d="M164.6,535.2c1.8-2.4,3.5-4.8,5.3-7.2c0.4-0.5-0.5-1-0.9-0.5c-1.8,2.4-3.5,4.8-5.3,7.2
						C163.3,535.2,164.2,535.7,164.6,535.2z"/>
				</g>
			</g>
			<path class="st65" d="M150.4,530.3c0,0-7.2,13-4.8,21.1c3.3,11.1,10.5,26.2,10.5,26.2"/>
			<path class="st17" d="M285.5,552.4c0-17.7-72.7-22.3-72.7-22.3L54.3,530l-4-0.1l-2.1,39.4l9.7,8.9h221.7c3.5,0,6.1-2.8,5.5-5.9
				l-0.7-3.4c0,0,0.6-15.3,0.9-15.5C287.1,551.7,285.5,552.6,285.5,552.4z"/>
			<path class="st4" d="M113.3,541.7h-10.2c-0.4,0-0.7-0.3-0.7-0.7v-1.4c0-0.4,0.3-0.7,0.7-0.7h10.2c0.4,0,0.7,0.3,0.7,0.7v1.4
				C114,541.4,113.7,541.7,113.3,541.7z M167.5,541.7h-10.2c-0.4,0-0.7-0.3-0.7-0.7v-1.4c0-0.4,0.3-0.7,0.7-0.7h10.2
				c0.4,0,0.7,0.3,0.7,0.7v1.4C168.2,541.4,167.9,541.7,167.5,541.7z"/>
			<path class="st3" d="M270.1,545.7c0,0,1,10.2,4.5,10.2c7.4,0,12.1,0.2,12.1,0.2s0.5-7.4-6-9.5
				C275.5,544.9,270.1,545.7,270.1,545.7z"/>
			<path class="st66" d="M222.4,577.8H99l-3-11.7h130.7L222.4,577.8z"/>
			<path class="st4" d="M108,579.8h114.4v3.5H108V579.8z M67.4,583.3H53.9v-1.7c0-1,0.8-1.7,1.7-1.7h11.8V583.3L67.4,583.3z
				 M261.5,579.8h23.3v3.5h-23.3V579.8z"/>
			<path class="st3" d="M48.4,537.6h15.8c0,0,0.2,11.1-8.9,12.7c-7.6,1.4-7.1,0.2-7.1,0.2L48.4,537.6z"/>
			<path class="st4" d="M64.2,536.7H48.3c-0.6,0-1.2-0.5-1.2-1.2v-2.3c0-0.6,0.5-1.2,1.2-1.2h15.9c0.6,0,1.2,0.5,1.2,1.2v2.3
				C65.4,536.1,64.9,536.7,64.2,536.7z"/>
			<g>
				<path class="st17" d="M110.4,527.5c-0.7-0.1-4.7-0.5-9.8-1.2l-0.8,4.4h49.6l-0.1-0.7C135.9,529.4,122.1,528.6,110.4,527.5
					L110.4,527.5z M154.7,530.2l0.1,0.5h14.4C164.6,530.6,159.7,530.4,154.7,530.2z"/>
				<path class="st17" d="M75.5,519.4c-0.6-2.3,11.9-17.1,23.4-17.5h3.5l0.1-0.3h2.5l-0.1,0.3c9.7-0.1,28.6-0.2,39.9-0.2v-0.1h5.4
					v0.1h0.5c31.3,0,56.4,25.7,56.4,25.7c0-0.1-1.9,2.1-2.9,3.3h14.5c0,0-2.2-1.4-11.6-10.2c-7.3-6.8-28.4-22.4-54.3-22.4
					c-18.4,0-73-0.5-73.7-0.5c-7.6,0-9.3,3.1-8,8c1.4,5.7-19.9,22.7-21,25.2h47L98,526C88.4,524.4,76.2,522.1,75.5,519.4L75.5,519.4
					z"/>
				<path class="st17" d="M96.8,533.6h2.5l0.5-2.9h-2.5L96.8,533.6z M105,501.6h-2.5l-0.1,0.3h2.5L105,501.6z"/>
				<path class="st17" d="M98.2,525.9l-0.9,4.8h2.5l0.8-4.4C99.8,526.2,99,526,98.2,525.9L98.2,525.9z"/>
				<path class="st17" d="M102.5,501.9l-4.3,24c0.8,0.1,1.6,0.2,2.4,0.4l4.4-24.4H102.5L102.5,501.9z M149.8,533.3h5.4l-0.4-2.6
					h-5.4L149.8,533.3z M150.3,501.6h-5.4v0.1h5.4V501.6z M149.2,530l0.1,0.7h5.4l-0.1-0.5C152.9,530.1,151.1,530.1,149.2,530z"/>
				<path class="st17" d="M144.9,501.7l4.4,28.3c1.8,0.1,3.7,0.2,5.5,0.2l-4.4-28.5H144.9z"/>
			</g>
			<path class="st4" d="M278.5,559.7c-2.3,0-6.6,8-6.6,11.9c0,3.8,4.2,7,6.6,7h1.9c3,0,5.4-2.4,5.4-5.4v-6.8c0-1-0.8-6.6-1.7-6.6
				h-5.6L278.5,559.7z M47.3,553.2c0,0,13.6-2.7,20.1,4.8s9,19.9,9,19.9L57.8,578c-5.1,0-10.6,0.1-10.6-10.3L47.3,553.2L47.3,553.2z
				"/>
			<path class="st66" d="M285.3,559h-13.1c-0.6,0-1.2-0.5-1.2-1.2c0-0.6,0.5-1.2,1.2-1.2h13.1 M201.5,524.5v16.6
				c3.1,0,5.6-2.5,5.6-5.6v-5.3C207.2,527.1,204.6,524.5,201.5,524.5z"/>
			<path class="st49" d="M207.6,556.4h-49.8c-1.3,0-2.4-1.1-2.4-2.4v-4.9c0-1.3,1.1-2.4,2.4-2.4h49.8c1.3,0,2.4,1.1,2.4,2.4v4.9
				C210,555.3,208.9,556.4,207.6,556.4z M142.7,556.4h-33.1c-1.3,0-2.4-1.1-2.4-2.4v-4.9c0-1.3,1.1-2.4,2.4-2.4h33.1
				c1.3,0,2.4,1.1,2.4,2.4v4.9C145.1,555.3,144,556.4,142.7,556.4z"/>
			<path class="st66" d="M49.3,540.6c2,0,3.7,1.6,3.7,3.7c0,2-1.6,3.7-3.7,3.7"/>
			<g>
				<path class="st3" d="M222,578.3c0-11.3,9.2-20.5,20.5-20.5S263,567,263,578.3"/>
				<path class="st4" d="M259.4,578.6c0,3.4-1,6.6-2.7,9.2c-3,4.6-8.2,7.7-14.2,7.7c-9.4,0-16.9-7.6-16.9-16.9c0-4.2,1.5-8,4-10.9
					c3.1-3.7,7.7-6,12.9-6C251.9,561.7,259.4,569.2,259.4,578.6L259.4,578.6z"/>
				<g class="st51">
					<path class="st52" d="M256.7,587.8c-3,4.6-8.2,7.7-14.2,7.7c-9.4,0-16.9-7.6-16.9-16.9c0-4.2,1.5-8,4-10.9l8.6,6.4l9.9,7.4
						L256.7,587.8z"/>
				</g>
				<path class="st3" d="M248.8,578.6c0,3.5-2.8,6.3-6.3,6.3s-6.3-2.8-6.3-6.3s2.8-6.3,6.3-6.3S248.8,575.1,248.8,578.6z"/>
			</g>
			<g>
				<path class="st3" d="M67,578.3c0-11.3,9.2-20.5,20.5-20.5S108,567,108,578.3"/>
				<path class="st4" d="M104.4,578.6c0,3.4-1,6.6-2.7,9.2c-3,4.6-8.2,7.7-14.2,7.7c-9.4,0-16.9-7.6-16.9-16.9c0-4.2,1.5-8,4-10.9
					c3.1-3.7,7.7-6,12.9-6C96.8,561.7,104.4,569.2,104.4,578.6L104.4,578.6z"/>
				<g class="st51">
					<path class="st52" d="M101.7,587.8c-3,4.6-8.2,7.7-14.2,7.7c-9.4,0-16.9-7.6-16.9-16.9c0-4.2,1.5-8,4-10.9l8.6,6.4l9.9,7.4
						L101.7,587.8z"/>
				</g>
				<path class="st3" d="M93.8,578.6c0,3.5-2.8,6.3-6.3,6.3s-6.3-2.8-6.3-6.3s2.8-6.3,6.3-6.3S93.8,575.1,93.8,578.6z"/>
			</g>
		</g>
		<path class="st67" d="M29.2,504.6h49.3 M19.6,515.1h49.3 M653.3,462.2h49.3 M653.6,517.6h49.3 M668.8,489.3H718"/>
	</g>
</g>
<path class="st8" d="M232.7,785.3l113-28.9l-12.8-23.1c0,0-64.8-10.9-89.9-8.3c-25.1,2.6-157.9,20.5-157.9,20.5s-27.6,3.2-79.6,1.9
	c0,0-2.1,0-5.5,0.1v47.4L232.7,785.3z"/>
<path class="st68" d="M727.7,934.5V668.9c-141.3,22.1-275.4,42.2-360.1,52.9c0,0-143.2,21.8-168.2,36.6
	c-25,14.8,116.2,3.9,116.2,3.9S163.3,779.2,0,787.8v146.7H727.7z"/>
<g>
	<g>
		<path class="st69" d="M617.7,677.5v18.3"/>
		<path class="st70" d="M628.5,664H628c-0.5-3.7-4-6.6-8.2-6.6c-3.4,0-6.4,1.9-7.6,4.6c-0.8-0.6-1.8-1-3-1c-2.7,0-4.8,2.2-4.8,4.8
			c0,2.2,1.4,4,3.4,4.6c-0.5,0.9-0.8,2-0.8,3.1c0,3.6,2.9,6.5,6.5,6.5c1,0,1.9-0.2,2.7-0.6c1.3,0.9,3,1.4,4.8,1.4
			c3.6,0,6.6-2,7.4-4.7h0.2c3.4,0,6.1-2.7,6.1-6.1S631.8,664,628.5,664L628.5,664z"/>
	</g>
</g>
<g>
	<g>
		<path class="st69" d="M660.1,669.8v18.3"/>
		<path class="st70" d="M670.8,656.3h-0.5c-0.5-3.7-4-6.6-8.2-6.6c-3.4,0-6.4,1.9-7.6,4.6c-0.8-0.6-1.8-1-3-1
			c-2.7,0-4.8,2.2-4.8,4.8c0,2.2,1.4,4,3.4,4.6c-0.5,0.9-0.8,2-0.8,3.1c0,3.6,2.9,6.5,6.5,6.5c1,0,1.9-0.2,2.7-0.6
			c1.3,0.9,3,1.4,4.8,1.4c3.6,0,6.6-2,7.4-4.7h0.2c3.4,0,6.1-2.7,6.1-6.1C677,658.9,674.2,656.3,670.8,656.3L670.8,656.3z"/>
	</g>
</g>
<g>
	<g>
		<path class="st69" d="M698.6,662.1v18.3"/>
		<path class="st70" d="M709.2,648.6h-0.5c-0.5-3.7-4-6.6-8.2-6.6c-3.4,0-6.4,1.9-7.6,4.6c-0.8-0.6-1.8-1-3-1
			c-2.7,0-4.8,2.2-4.8,4.8c0,2.2,1.4,4,3.4,4.6c-0.5,0.9-0.8,2-0.8,3.1c0,3.6,2.9,6.5,6.5,6.5c1,0,1.9-0.2,2.7-0.6
			c1.3,0.9,3,1.4,4.8,1.4c3.6,0,6.6-2,7.4-4.7h0.2c3.4,0,6.1-2.7,6.1-6.1C715.5,651.2,712.7,648.6,709.2,648.6L709.2,648.6z"/>
	</g>
</g>
<path class="st4" d="M0,583.2v35.1h24v119.5c-6.8-13.1-14.8-25.5-24-36.9v8.1c9.4,12.4,17.5,25.9,24,40.2v67.4L0,833.4v38.8h92.2
	v-40.4l-27.8-18.5v-67.2c10.4-21.9,24.7-42.2,42.4-59.9c40.7-40.7,94.7-63.1,152.2-63.1s111.6,22.4,152.2,63.1
	c21.4,21.4,37.8,46.6,48.5,74v56.3l-24.5,17.2v38.4h92.7v-40.4l-27.8-18.5v-56.8c10.7-26,26.5-49.8,47-70.3
	c40.7-40.7,94.7-63.1,152.2-63.1c9.6,0,19.1,0.6,28.4,1.9v-5c-7.3-0.9-14.6-1.5-22-1.7h22v-35.1h-61.6v-23.5h61.6v-5H0v5h38.7v23.5
	H0z M103.2,682.7C87.6,698.4,74.5,716,64.4,735V618.3h188.2C196.1,619.9,143.3,642.6,103.2,682.7z M459.7,747.4
	c-10.8-23.8-25.9-45.7-44.9-64.7c-40.1-40.1-92.9-62.8-149.4-64.4h194.3V747.4z M692.9,618.3c-56.5,1.6-109.3,24.3-149.4,64.4
	c-18.2,18.2-32.7,38.9-43.4,61.4V618.3H692.9z M588.3,559.7h72.8v23.5h-72.8V559.7z M510.5,559.7h72.8v23.5h-72.8V559.7z
	 M432.7,559.7h72.8v23.5h-72.8V559.7z M354.9,559.7h72.8v23.5h-72.8V559.7z M277.1,559.7h72.8v23.5h-72.8V559.7z M199.3,559.7h72.8
	v23.5h-72.8V559.7z M121.5,559.7h72.8v23.5h-72.8V559.7z M43.7,559.7h72.8v23.5H43.7V559.7z"/>
<path class="st8" d="M672.3,763.7c0-4.3-4.5-7.8-10.1-7.8c-1.5,0-2.9,0.3-4.2,0.7c-2.5-2.8-6.1-4.5-10.1-4.5c-5.4,0-10,3.1-12.2,7.7
	c-0.4-0.1-0.9-0.1-1.3-0.1c-4.5,0-8.2,3.4-8.2,7.7h45C672,766.2,672.3,765,672.3,763.7L672.3,763.7z"/>
</svg>
