<svg version="1.1" id="Calque_1" xmlns="http://www.w3.org/2000/svg" xmlns:xlink="http://www.w3.org/1999/xlink" x="0" y="0" viewBox="0 0 800 438" xml:space="preserve"><style>.st0{fill:none}.st1{fill:#054752}.st2{fill:#fff}.st3{fill:#004753}.st4{fill:#eae8f5}.st6{clip-path:url(#SVGID_3_);fill:#669aa2}.st8{fill:#91b7bc}.st12,.st8{clip-path:url(#SVGID_3_)}.st15{fill:#2e5862}.st17{fill:none;stroke:#054752;stroke-width:4;stroke-miterlimit:10}.st18{opacity:.4;fill:#fff}.st19{fill:#facca3}.st22{fill:#014753}.st23{opacity:.67;fill:#facca3}.st24{opacity:.47;fill:#95abbd}.st25{fill:#f5b240}.st26{fill:#2ed1ff}.st27{opacity:.3;fill:#8f4160}.st29{fill:#f1890e}.st30{fill:#f9cfc4}.st33{fill:#e9ca91}.st36{opacity:.69;fill:#f9cfc4}.st38{fill:#947347}.st43,.st44{fill:#ddb68d}.st44{opacity:.67}.st47,.st48{fill:#cd904d}.st48{opacity:.67}.st50{fill:#a9b7c0}.st51{fill:#01353a}.st52{fill:#cd8f4d}.st53{fill:#ff595a}.st56{fill:#022327}.st59,.st60{opacity:.45;fill:#fff}.st60{fill:#044752}.st61{opacity:.49}.st62{fill:#004553}.st63,.st64{fill:#ce914d}.st64{opacity:.67}.st67{fill:#033}.st69,.st73{fill:#eacb92}.st73{opacity:.59}.st76{opacity:.45;fill:#2ed1ff}.st304,.st79{fill:none;stroke-miterlimit:10}.st79{stroke-linecap:round;stroke-linejoin:round;stroke:#fff}.st304{stroke:#054752;stroke-width:5}</style><pattern x="-909.5" y="1558" width="50" height="50" patternUnits="userSpaceOnUse" id="Horizontal_line_3" viewBox="0 -50 50 50" overflow="visible"><path class="st0" d="M0-50h50V0H0z"/><path class="st1" d="M0-50h50v6.3H0z"/><path class="st2" d="M0-43.7h50v6.3H0z"/><path class="st1" d="M0-37.5h50v6.3H0z"/><path class="st2" d="M0-31.2h50v6.3H0z"/><path class="st1" d="M0-24.9h50v6.3H0z"/><path class="st2" d="M0-18.7h50v6.3H0z"/><path class="st1" d="M0-12.4h50v6.3H0z"/><path class="st2" d="M0-6.3h50V0H0z"/></pattern><pattern x="-909.5" y="1558" width="50" height="50" patternUnits="userSpaceOnUse" id="Horizontal_line_5" viewBox="0 -50 50 50" overflow="visible"><path class="st0" d="M0-50h50V0H0z"/><path class="st3" d="M0-50h50v6.3H0z"/><path class="st2" d="M0-43.7h50v6.3H0z"/><path class="st3" d="M0-37.5h50v6.3H0z"/><path class="st2" d="M0-31.2h50v6.3H0z"/><path class="st3" d="M0-24.9h50v6.3H0z"/><path class="st2" d="M0-18.7h50v6.3H0z"/><path class="st3" d="M0-12.4h50v6.3H0z"/><path class="st2" d="M0-6.3h50V0H0z"/></pattern><pattern x="-909.5" y="1558" width="50.9" height="47" patternUnits="userSpaceOnUse" id="Unnamed_Pattern_23" viewBox="50.9 -94.2 50.9 47" overflow="visible"><path class="st0" d="M50.9-94.2h50.9v47H50.9z"/><path class="st3" d="M101.7-47.5h50.9V0h-50.9z"/><path class="st3" d="M50.9-47.5h50.9V0H50.9zM0-47.5h50.9V0H0z"/><path class="st3" d="M101.7-94.6h50.9v47.5h-50.9z"/><path class="st3" d="M50.9-94.6h50.9v47.5H50.9z"/><path class="st4" d="M63.8-89.5H62v-4.6h1.8zM71.3-87.4l-1.5 1.1-2.7-3.8 1.5-1.1z"/><path transform="rotate(-78.854 66.658 -81.075)" class="st4" d="M65.8-83.4h1.8v4.7h-1.8z"/><path class="st4" d="M73.5-80.9l-1.3-1.2 2.9-3.6 1.4 1.2zM77.9-74.5l-1.8-.1.4-4.7 1.8.2zM67.8-73l.9-1.6 4.1 2.3-.9 1.6zM55.1-87.3l-1.5 1-2.7-3.8 1.5-1zM57.3-80.9l-1.4-1.2 3-3.5 1.4 1.1z"/><path transform="rotate(-5.228 60.95 -76.857) scale(.99996)" class="st4" d="M60.1-79.2h1.8v4.7h-1.8z"/><path transform="rotate(-29.07 54.054 -72.64)" class="st4" d="M51.7-73.5h4.7v1.8h-4.7z"/><g><path transform="rotate(-89.881 79.713 -91.834)" class="st4" d="M77.4-92.7h4.7v1.8h-4.7z"/><path class="st4" d="M88.1-87.4l-1.5 1.1-2.7-3.9 1.5-1z"/><path transform="rotate(-78.954 83.481 -81.089)" class="st4" d="M82.6-83.4h1.8v4.7h-1.8z"/><path class="st4" d="M90.4-81L89-82.1l3-3.6 1.4 1.2z"/><path transform="matrix(.9962 -.08667 .08667 .9962 7.02 7.859)" class="st4" d="M93.1-79.2h1.8v4.7h-1.8z"/><path transform="rotate(-28.955 87.124 -72.7)" class="st4" d="M84.8-73.6h4.7v1.8h-4.7z"/></g><g><path transform="rotate(-89.884 95.486 -91.856)" class="st4" d="M93.2-92.8h4.7v1.8h-4.7z"/><path transform="rotate(-78.89 99.255 -81.115)" class="st4" d="M98.4-83.4h1.8v4.7h-1.8z"/></g><g><path transform="rotate(-89.886 62.921 -68.221)" class="st4" d="M60.6-69.1h4.7v1.8h-4.7z"/><path class="st4" d="M71.3-63.8l-1.5 1.1-2.6-3.8 1.4-1.1z"/><path transform="rotate(-78.708 66.694 -57.488)" class="st4" d="M65.8-59.8h1.8v4.7h-1.8z"/><path transform="rotate(-40.111 74.37 -59.714)" class="st4" d="M73.5-62h1.8v4.7h-1.8z"/><path transform="rotate(-5.125 77.217 -53.29)" class="st4" d="M76.3-55.6h1.8v4.7h-1.8z"/><path class="st4" d="M67.9-49.4l.8-1.6 4.1 2.3-.9 1.5z"/></g><g><path class="st4" d="M55.1-63.7l-1.5 1-2.7-3.8 1.5-1z"/><path transform="rotate(-40.157 58.148 -59.694)" class="st4" d="M57.2-62H59v4.7h-1.8z"/><path transform="rotate(-4.963 60.992 -53.27) scale(1.00005)" class="st4" d="M60.1-55.6h1.8v4.7h-1.8z"/><path transform="rotate(-29.144 54.1 -49.056)" class="st4" d="M51.8-50h4.7v1.8h-4.7z"/></g><g><path class="st4" d="M80.7-65.9h-1.8l-.1-4.7h1.8z"/><path transform="rotate(-54.69 86.066 -65.173)" class="st4" d="M83.7-66.1h4.7v1.8h-4.7z"/><path class="st4" d="M81.4-56.2l-.3-1.7 4.5-.9.4 1.7z"/><path transform="rotate(-40.173 91.202 -59.74)" class="st4" d="M90.3-62.1h1.8v4.7h-1.8z"/><path transform="rotate(-5.065 94.044 -53.318)" class="st4" d="M93.1-55.6h1.8v4.7h-1.8z"/><path class="st4" d="M84.7-49.4l.9-1.6 4 2.2-.8 1.6z"/></g><g><path class="st4" d="M96.4-65.9h-1.8v-4.7h1.8zM97.2-56.2l-.4-1.8 4.6-.9.4 1.8z"/></g><g><path class="st3" d="M0-94.6h50.9v47.5H0z"/></g><g><path class="st3" d="M101.7-141.6h50.9v47.5h-50.9z"/></g><g><path class="st3" d="M50.9-141.6h50.9v47.5H50.9z"/></g><g><path class="st3" d="M0-141.6h50.9v47.5H0z"/></g></pattern><linearGradient id="SVGID_1_" gradientUnits="userSpaceOnUse" x1="400.335" y1="393.733" x2="399.008" y2="-4.753"><stop offset="0" stop-color="#fff"/><stop offset=".093" stop-color="#f7fdff"/><stop offset=".239" stop-color="#e0f8ff"/><stop offset=".419" stop-color="#bcf0ff"/><stop offset=".627" stop-color="#89e5ff"/><stop offset=".856" stop-color="#48d7ff"/><stop offset=".943" stop-color="#2ed1ff"/></linearGradient><path fill="url(#SVGID_1_)" d="M-.5 0h800v286H-.5z"/><g><defs><path id="SVGID_170_" d="M-.5 66.5h800V438H-.5z"/></defs><clipPath id="SVGID_3_"><use xlink:href="#SVGID_170_" overflow="visible"/></clipPath><path class="st6" d="M-67.7 177.1s55.1-2.6 100.6-18.6c0 0 44.2 14.1 69.2 18.6s74.3-2.6 89.7 5.1c0 0 32 19.9 50 21.8 17.9 1.9 43.6 3.2 60.2-5.8s19.9-3.2 27.6 0c7.7 3.2 17.3 11.5 41.7-5.8 24.4-17.3 34.6-23.1 46.1-19.2 11.5 3.8 34 22.4 97.4 39.1s101.9-13.5 101.9-13.5 7.7-8.3 28.2-8.3 84.6-2.6 84.6-2.6L410.4 400.2 2.2 259.1l-69.9-82z"/><path d="M1317.3-110.7S1249.4-8.8 1191-2.4c0 0-26.9 6.4-30.1 16-3.2 9.6-10.3 22.4-22.4 23.1-12.2.6-35.9 10.9-59.6 0s-50.6-10.3-70.5 5.1-109 73.1-151.9 91.7-61.5 5.8-61.5 5.8-289.7 180.1-421.1 242.3l132 93.6 706.9-46.8 142.9-41-38.4-498.1z" clip-path="url(#SVGID_3_)" fill="#a7c6ca"/><path class="st8" d="M-471.5-26.1s51.3-5.8 87.2 11.5 141 98.1 182 110.2 76.3 11.5 98.7 24.4 53.2 46.1 97.4 67.9 315.3 177.5 432 180.7L410.4 400l-418.5-8.3-318.5-205.1-144.9-212.7z"/><path d="M-611.5-200.7s33.3-15.4 54.5 0S-436.5 46.7-187.2 198c0 0 166.3 104.8 256.1 118.9C158.6 331 224 381 304.8 373.3c80.8-7.7 144.2 14.1 177.5 14.1s345.5-9 345.5-9l221.8-7.1-794.9 103.8h-865.9l-.3-675.8z" clip-path="url(#SVGID_3_)" fill="#bdd4d7"/><path class="st6" d="M-627.2 408.5s251.9 36.5 759.5 28.8l-56.4 21.2-338.4 8.3-369.2-5.1 4.5-53.2z"/><path class="st8" d="M347.6 428.4s-64.7-10.9-89.7-8.3c-25 2.6-157.7 20.5-157.7 20.5s-27.6 3.2-79.5 1.9c0 0-29.5 0-51.3 3.8-21.8 3.8-139.1 13.5-165.4 12.8-26.3-.6-424.9-5.8-424.9-5.8v21.8l387.1 25 481.3-19.9 112.8-28.8-12.7-23z"/><path d="M1339.8 266.8s-702.5 117.9-957.5 150c0 0-142.9 21.8-167.9 36.5s116 3.8 116 3.8-161.6 18-330.2 26.4-612.1 0-612.1 0v10.9l582.6 23.1 1360-4.5 9.1-246.2z" clip-path="url(#SVGID_3_)" fill="#538c94"/><path d="M795.3 443.7c0-4.3-4.5-7.8-10.1-7.8-1.5 0-2.9.2-4.2.7-2.5-2.8-6.1-4.5-10.1-4.5-5.4 0-10 3.1-12.2 7.7-.4-.1-.9-.1-1.3-.1-4.5 0-8.1 3.4-8.2 7.7h44.9c.8-1.2 1.2-2.4 1.2-3.7z" fill="#91b7bc"/><path d="M247.4 433.5c0-2.2-2.4-4.1-5.3-4.1-.8 0-1.5.1-2.2.4-1.3-1.4-3.2-2.4-5.3-2.4-2.8 0-5.2 1.6-6.4 4-.2 0-.5-.1-.7-.1-2.3 0-4.2 1.8-4.3 4h23.4c.6-.5.8-1.2.8-1.8z" fill="#d3e2e4"/><g class="st12"><path class="st17" d="M713.1 362.4v18.3"/><path class="st15" d="M723.8 348.9h-.5c-.5-3.7-4-6.6-8.2-6.6-3.4 0-6.4 1.9-7.6 4.6-.8-.6-1.8-1-3-1-2.7 0-4.8 2.2-4.8 4.8 0 2.2 1.4 4 3.4 4.6-.5.9-.8 2-.8 3.1 0 3.6 2.9 6.5 6.5 6.5 1 0 1.9-.2 2.7-.6 1.3.9 3 1.4 4.8 1.4 3.6 0 6.6-2 7.4-4.7h.2c3.4 0 6.1-2.7 6.1-6.1-.1-3.3-2.8-6-6.2-6z"/></g><g class="st12"><path class="st17" d="M755.4 354.7V373"/><path class="st15" d="M766.1 341.2h-.5c-.5-3.7-4-6.6-8.2-6.6-3.4 0-6.4 1.9-7.6 4.6-.8-.6-1.8-1-3-1-2.7 0-4.8 2.2-4.8 4.8 0 2.2 1.4 4 3.4 4.6-.5.9-.8 2-.8 3.1 0 3.6 2.9 6.5 6.5 6.5 1 0 1.9-.2 2.7-.6 1.3.9 3 1.4 4.8 1.4 3.6 0 6.6-2 7.4-4.7h.2c3.4 0 6.1-2.7 6.1-6.1-.1-3.2-2.8-6-6.2-6z"/></g><g class="st12"><path class="st17" d="M793.8 347v18.3"/><path class="st15" d="M804.6 333.5h-.5c-.5-3.7-4-6.6-8.2-6.6-3.4 0-6.4 1.9-7.6 4.6-.8-.6-1.8-1-3-1-2.7 0-4.8 2.2-4.8 4.8 0 2.2 1.4 4 3.4 4.6-.5.9-.8 2-.8 3.1 0 3.6 2.9 6.5 6.5 6.5 1 0 1.9-.2 2.7-.6 1.3.9 3 1.4 4.8 1.4 3.6 0 6.6-2 7.4-4.7h.2c3.4 0 6.1-2.7 6.1-6.1s-2.8-6-6.2-6z"/></g><g class="st12"><path class="st18" d="M259.1 252.6h431c3.3 0 6-2.7 6-6v-81.8c0-3.3-2.7-6-6-6h-431c-3.3 0-6 2.7-6 6v81.8c0 3.3 2.7 6 6 6z"/><path class="st19" d="M515.5 186.3l9.5.1s1.4 4.3 1.2 12.3c0 .3-8.2 2.7-8.2 2.7l-2.5-15.1z"/><path class="st19" d="M509.3 206.6c1.9-3.3 8.3-10.8 8.3-10.8l8.5-1.4s6.1 4.3 7.6 11.5c.1.3-.5 7.8-.5 7.8h-25.5c-.2 0 1.5-7 1.6-7.1zM512.3 188c.3 1.1 1.8 1.2 4.2 1.6H517.7c.6-.1 1.3-.3 2.1-.5 1.7-.5 3.4-1.2 3.9-1.4 3.4-1.5 4.7-7.8 4.7-10.4 0-5.4-4.7-6.1-8.2-5.5-1.9.3-3.4 1.1-4.5 2-2 1.6-2.9 4.9-2.8 5.3.2.5.4 1.1.4 1.5 0 .8-.5 1.7-.5 2.2v.4c0 3.7-.9 3.4-.5 4.8z"/><path d="M516.2 178.7c-.2-.3-1.6-1.1-3.1-.2" fill="#95abbd" opacity=".47"/><circle class="st22" cx="514.7" cy="180.2" r=".5"/><path class="st19" d="M513.3 179.2c-.7 2-1.5 2.9-1.8 3.7 0 .1 1.1.3 1.2.3 0 0 .6-.8.7-1.7.3-1-.1-2.3-.1-2.3z"/><path class="st23" d="M520.8 189.9c-.2.1 1.1 5.3-3.7 6.7l-1.1-7 4.8.3z"/><path class="st19" d="M512.7 184.1s1.2.3 1.2.5c0 .5-1.3.5-1.3.5l.1-1z"/><path class="st24" d="M512.3 188c.3 1.1 1.8 1.2 4.2 1.6H517.7c.5 0 .9-.1 1.3-.1.3-.1.6-.2.8-.3 1.7-1.1 1.7-4.5 1.7-4.5l-8.7-1.5v.2c0 3.5-.9 3.2-.5 4.6zM511.5 189.4c0-.1 0-.1 0 0z"/><path class="st25" d="M521.5 176.9s-8 .4-9.1-.7c-1.1-1-4.6-6.9 1.4-6.9s9.8 4 9.8 4l-2.1 3.6z"/><path class="st26" d="M526 192.9l-10.6 5.4-6.3 8.4-1.7 7.1h25.7l.6-8.6s-2.2-6.5-5.7-9.1l-2-3.2z"/><path class="st2" d="M526.3 192.4l-10.9 6 12-4z"/><path class="st25" d="M515.1 173.8s5.2-6.7 12.8-2.1c4.6 2.8 2.6 9.7-2.6 15.6-.1.1-2.3-.4-2.9-1.5-.8-1.3-.7-5-.7-5l-2.7.6s-.7-2.9-.8-3.5c-.6-2.2-3.1-4.1-3.1-4.1z"/><path class="st23" d="M522 179.9s.2 1.9-.8 2.3c-.6.2-1.2 0-1.2 0s.3 2.8 1.9 2.2c1.5-.7.1-4.5.1-4.5z"/><path class="st19" d="M520.1 180.5s.9-1.7 1.6-1c.8.7.5 2.5-1.1 2.5-.9 0-1-.2-1-.2l.5-1.3z"/><path class="st19" d="M520.8 180.5c0-.3.4-.5.6-.2V180.6c0 .2-.1.3-.2.5-.1.1-.3.1-.5 0l.1-.6z"/><path class="st27" d="M525.4 206.9s.3 3.7-2.1 5.8c-2.8 2.5-14.6 13.2-15.3 13.4-4.9 1.5-4.6-3-3.5-5.1 1-2 3-7.4 7-11.5 3.4-3.7 10-10 13.9-2.6z"/><path class="st19" d="M506.4 225.3c-2 .5-2.5-.7-2.5-.7-2.1-6.3-4.4-14.5-5.8-18.5-.2-.8-.1-1.1-.2-1.6l2.7-1.5c13.1 17.7 7.7 21.7 5.8 22.3zM498.7 198.1c0 .1-.3-1.4-.6-2-.1-.2.1-1.1 0-1.7 0-.1.4-.7.6-1.2.2-.4-.1-.8-.1-.8l-1.7 1.9-.1 2-.3 2.3s.4.5 1.4.3c.6-.1.8-.7.8-.8z"/><path class="st19" d="M501.1 198.4c.1.4 0 1.3.1 1.7.1 1.4-.2 1.8-.4 4.4-.2 2.9-2.5 2.4-2.7 1.2-.1-.4-.1-.9-.1-1.3-.2-1-1.3-3.8-1.6-5.5 0 0 .3-.9 1-1.1.9-.2 1.4.5 1.4.5.1.2.1.5.5.5.5-.2.7-.5.7-1.1-.1-1.2.3-1.6.6-1.6-.1.4.4 1.6.5 2.3z"/><path class="st19" d="M498.7 198.8s0-1.4-.2-2c-.1-.2.3-1.1.3-1.7 0-.1.5-.6.8-1.1.3-.4.1-.8.1-.8l-2.1 1.6-.5 1.9-.7 2.2s.3.7 1.2.6c.5 0 1.1-.6 1.1-.7zM524.8 206.3s.3 3.7-2.1 5.8c-2.8 2.5-14.6 13.2-15.3 13.4-4.9 1.5-4.6-3-3.5-5.1 1-2 3-7.4 7-11.5 3.4-3.6 10-10 13.9-2.6z"/><path fill="#19b4d8" d="M518.8 216.1l-8.5-8 8.5-6.6 6.1 1.8 1.4 5.4z"/><path class="st2" d="M510.3 208.1l8.5 8-.5.6-8.6-8z"/><g><path class="st29" d="M578.7 179.6s1.3 6.1-2.2 9.1c-6.9 5.9-.6 12.2 5 10.7 5.5-1.4 3.9-13.2 3.9-13.2l-6.7-6.6z"/><path class="st25" d="M580 181.2s.3 5.5-2.2 9.3c-3.1 4.7.2 9.4 2.9 9.1.5-.1 5.3-6.3 5.3-6.3s-4.7-12.1-6-12.1z"/><path class="st30" d="M580.1 185.3l5.6-.2s3.1 4 3 10.5c0 .3-6.6 2.1-6.6 2.1l-2-12.4z"/><pattern id="SVGID_4_" xlink:href="#Horizontal_line_3" patternTransform="matrix(-.9394 0 0 .9394 -10406.828 -1792.56)"/><path d="M577.3 212.5s7.6-6.4 7.2-6.4-4.7-8.5-4.7-8.5" fill="url(#SVGID_4_)"/><path class="st30" d="M587.9 198.8s.5 3.7-2.7 10.2c-3.3 6.6-14.9 15-15.7 15.2-5.5 1.6-5.7-2.8-4.5-5.1 1-1.9 3.5-6.2 10.5-14.7 3.1-3.9 8.6-9.3 12.4-5.6z"/><pattern id="SVGID_5_" xlink:href="#Horizontal_line_3" patternTransform="matrix(-.842 .4165 .4165 .842 -6024.74 425.557)"/><path fill="url(#SVGID_5_)" d="M579.9 199.5l-5.4 5.4 9.7 9"/><path class="st33" d="M595.5 209.8l-4.7 18.7-14 .2-1.4-19.1z"/><path class="st30" d="M591.3 228.5l-14.3-.2s-3.8 5.7.8 15.6c.5 1.1 2.9 10.9 2.9 10.9s11.7 3.4 17-.6c.5-.4 2-5.8 2.5-7.6 1.9-7-4-10.1-8.9-18.1z"/><path class="st33" d="M579.2 213.2s-7.2.6-7.2-3.6c0-2.3.2-.7 6.1-9.2"/><path class="st30" d="M573.6 212.9c-2.1-2.5-4.8-.2-4.8-.2-5.2 4.3-13.6 13.9-16 17.9-.4.8-.7 1.3-.9 1.8 0 0-.4 1.5.9 1.9.7.2 2.7-1.4 2.7-1.4 24.1-15.9 19.6-18.3 18.1-20zM549.6 239.9c.1-.1-.9 1.2-1.5 1.7-.2.1-.4 1.2-.9 1.8-.1.1.1.8.1 1.5 0 .6-.5.8-.5.8l-.9-2.8.8-2.1.8-2.5s.7-.3 1.5.3c.8.5.6 1.2.6 1.3z"/><path class="st30" d="M552.1 240.8c.3-.4.6-1.4.8-1.7.8-1.3 1.4-4.6 1.7-5.3.4-.7.8-1.6-.3-2.5-1.2-1-2 .5-2 .5-.4.6-.5.9-.8 1.3-.7.9-3.1 3.3-4.2 4.9 0 0-.1 1.1.5 1.5.8.7 1.6.1 1.6.1.2-.2.4-.4.7-.2.4.4.6 1 .5 1.5-.8 1.4-.7 1.5-.4 1.9.4-.2 1.5-1.4 1.9-2z"/><path class="st30" d="M549.9 239.2s-.6 1.4-1.2 2c-.1.2-.1 1.2-.5 1.9-.1.1.2.8.4 1.5.1.5-.3.8-.3.8l-1.4-2.6.4-2.2.3-2.6s.6-.6 1.5-.1c.6.3.9 1.2.8 1.3zM576.4 203c1.4-1.5 4.9-10 4.9-10l7.9-.4s5 4.9 5.7 8.8.1 8.1.1 8.1h-17.8c-.1.1-.9-6.4-.8-6.5z"/><pattern id="SVGID_6_" xlink:href="#Horizontal_line_3" patternTransform="matrix(.458 0 0 .458 -1906.046 -5217.66)"/><path d="M591.2 194.9s-2.5 2.9-6.5 3c-4 .1-5-1.5-5-1.5l-.8 1.7-6.9 10.4s-1.4 3.3 3.6 4.7c5.1 1.4 0 0 0 0l1.1 15.5 14-.1s6.4-18.2 5.2-24.6c-1.2-6.4-4.7-9.1-4.7-9.1" fill="url(#SVGID_6_)"/><g><path class="st30" d="M593.3 199.3s4.5 3.5 2 10.3c-1.4 4-6.9 20-7.5 20.6-4.3 3.9-6.3 0-6.3-2.6 0-2.2.1-11.7 2.5-17.6 1.9-4.8 4.3-12.4 9.3-10.7z"/></g><g><path class="st30" d="M588.7 226.4c1.3 2.9-1.8 4.5-1.8 4.5-6 2.9-18.3 6.6-23 7-.9.1-1.5.1-2.1.1 0 0-1.5-.2-1.4-1.7.1-.7 2.4-1.9 2.4-1.9 24.7-15.1 25-10 25.9-8zM554.1 236.9c.1 0-1.5.3-2.2.7-.2.1-1.2-.1-2 0-.1 0-.7-.4-1.3-.7-.5-.2-.9.1-.9.1l2.2 2 2.3.2 2.6.3s.6-.5.3-1.5c-.2-.9-.9-1.1-1-1.1z"/><path class="st30" d="M554.4 234.3c.5-.1 1.5 0 1.9-.1 1.5-.1 4.7.7 5.5.6.8-.1 1.8-.1 2.2 1.3.4 1.5-1.3 1.6-1.3 1.6-.7.1-1 .1-1.5.2-1.2.3-4.3 1.5-6.2 1.7 0 0-1-.3-1.2-1.1-.2-1 .6-1.5.6-1.5.2-.1.6-.2.5-.6-.2-.6-.7-1-1.1-1-1.6.1-1.7 0-1.9-.4.1-.1 1.7-.6 2.5-.7z"/><path class="st30" d="M554.9 236.9s-1.6 0-2.3.2c-.2.1-1.2-.4-1.9-.3-.1 0-.6-.5-1.2-.9-.4-.3-.9-.1-.9-.1l1.7 2.4 2.2.6 2.5.8s.8-.3.7-1.3c0-.7-.8-1.4-.8-1.4z"/></g><pattern id="SVGID_7_" xlink:href="#Horizontal_line_3" patternTransform="matrix(.458 0 0 .458 -1906.046 -5217.66)"/><path d="M594.3 214.5s5.4-14.7-1.8-15.6c-6.4-.8-9.8 12.7-9.8 12.7l11.6 2.9z" fill="url(#SVGID_7_)"/><path class="st36" d="M583.9 186.9c.3 1.3-.6 5.7-2.6 6.4l-1.2-7.2 3.8.8z"/><path class="st30" d="M577.9 179.8c.1 1.4.1 2.6.1 3.5v.7c0 3.2-.2 3.6 2.5 4 1.5.2 5.3-1.9 5.7-2.4 1.1-1.9 2.8-4.7 2.8-6.7 0-4.3-3.3-6.3-6.2-6.3-1.6 0-3.9 1.5-4.5 3.2-.6 1.9-.5 2.2-.4 4z"/><path d="M580.9 179c-.1-.1-.2-.1-.3-.2-.2-.1-.3-.1-.5-.1-.6-.1-1.2 0-1.7.1-.2 0-.3-.3-.1-.3.6-.1 1.3-.2 1.9-.1.4.1.7.2 1 .4.1.1-.2.3-.3.2z" fill="#edb6ab"/><g><circle class="st22" cx="579.7" cy="179.9" r=".4"/></g><path class="st30" d="M578.2 179.4c-.1.1-.6 1.3-1 1.7-.2.3 0 .4.4.5l.6.1c.3.1 0-2.3 0-2.3z"/><path class="st2" d="M578.3 184c.7 0 .9-.6.9-.6s-.4 0-.9-.1v.7z"/><path class="st29" d="M584 174.3c-.1 0-.3 1.1-1.2 1.1-3 0-5.8-.9-5-3.8.4-1.7 2.5-1.9 5.8-.9 4.5 1.4 7.1 4.1 7.7 5.6.8 2.4-7.3-2-7.3-2z"/><path class="st29" d="M581.3 173.2c-.1 0-.2 2.6 1.1 4.8.6 1 3.9 1.8 4 3.3 0 .7-1.1 1.9-1.2 2.9-.5 6.9-1.1 15 8.2 15.6 5.9.4 9.1-1.6 8.3-8-.3-2.2-3.1-4.5-7.7-5.2-1-.2-1.9-4.9-2.2-8.2-.2-2.6-2-4.2-2-4.2s-5.9-2.6-8.5-1z"/><path class="st36" d="M586.8 180.6c0 .1 1.1 3.8-1.4 4.7-.3.1-.2-2.5-.2-2.5l1.6-2.2z"/><g><path class="st30" d="M585 180.9s1-1.2 1.6-.6c.6.6-.5 2.8-1.2 2.5-.7-.2-.7-.6-.7-.6l.3-1.3z"/><path class="st30" d="M585.4 181c.2-.1.4-.1.5.1 0 .1.1.1.1.2s0 .3-.1.4c-.1.1-.2.2-.4.1"/></g></g><g><path d="M378.6 180c-.6.8-1.3 1.4-1.9 2.1-1 1.1-4.3 3.6-4.2 6.6.1 4.9 3.4 5.8 5.6 5.9.6 0 1.3.3 1.9.1.9-.3 3-1.2 3.6-2 1.8-2.7-.8-7.7 0-10.9.4-1.7 1.2-5.3-1-6.1-.8-.3-1.5 0-2 .7-.9 1.2-1.2 2.5-2 3.6z"/><path class="st38" d="M379.4 181.6l5.7.1s3 4.2 2.5 10.8c0 .3-6.8 1.9-6.8 1.9l-1.4-12.8z"/><path d="M384.3 182.6c-.2.1-.2 4.8-4.1 5.8l-.8-6.5 4.9.7z" opacity=".64" fill="#947347"/><path class="st38" d="M377.7 175.7c.3 1.2-.2 1.8-.3 2.6-.2 4-.7 5.4 2.3 6.1 1.5.3 5.5-1.7 5.9-2.2 1.3-1.9 3-4.6 3.1-6.7.2-4.4-3.1-6.6-6-6.7-1.7-.1-4.1 1.3-4.7 3.1-.6 1.9-.7 2.1-.3 3.8z"/><path class="st38" d="M380.4 175.5c-.2-.2-.5-.4-.8-.5-.4-.1-.8-.1-1.2 0-.2 0-.2-.3 0-.3.4 0 .9 0 1.3.1s.7.3.9.6c.2 0 0 .2-.2.1z"/><circle cx="379.3" cy="176.1" r=".4"/><path class="st38" d="M377.7 175.7c-.1.1-.2.9-.9 1.8-.3.4.2.9.7.9h-.1c1.5-.9.3-2.7.3-2.7z"/><path d="M377.7 178.8s1.5.9 1.4 1c-.2.9-1.5.8-1.5.8s-1.2-.3-.4-1c.4-.1-.3-.7.5-.8z" fill="#573a22"/><pattern id="SVGID_8_" xlink:href="#Horizontal_line_3" patternTransform="matrix(-.9394 0 0 .9394 -10440.049 -1798.525)"/><path d="M377.6 207.1s7.6-6.4 7.2-6.4c-.4 0-4.7-8.5-4.7-8.5" fill="url(#SVGID_8_)"/><path class="st38" d="M388.2 193.4s.5 3.7-2.7 10.2c-3.3 6.6-14.9 15-15.7 15.2-5.5 1.6-5.7-2.8-4.5-5.1 1-1.9 3.5-6.2 10.5-14.7 3.1-3.9 8.6-9.3 12.4-5.6z"/><pattern id="SVGID_9_" xlink:href="#Horizontal_line_3" patternTransform="matrix(-.842 .4165 .4165 .842 -6035.788 420.482)"/><path fill="url(#SVGID_9_)" d="M380.2 194.1l-5.4 5.5 9.7 8.9"/><path class="st33" d="M395.8 204.4l-4.7 18.8-14 .1-1.4-19.1z"/><path class="st38" d="M391.6 223.2l-14.3-.2s-3.8 5.7.8 15.6c.5 1.1 2.9 10.9 2.9 10.9s11.7 3.4 17-.6c.5-.4 2-5.8 2.5-7.6 1.9-7-3.9-10.2-8.9-18.1z"/><path class="st33" d="M379.6 207.8s-7.2.6-7.2-3.6c0-2.3.2-.7 6.1-9.2"/><path class="st38" d="M374 207.5c-2.1-2.5-4.8-.2-4.8-.2-5.2 4.3-13.6 13.9-16 17.9-.4.8-.7 1.3-.9 1.8 0 0-.4 1.5.9 1.9.7.2 2.7-1.4 2.7-1.4 24-15.9 19.5-18.3 18.1-20zM349.9 234.5c.1-.1-.9 1.2-1.5 1.7-.2.1-.4 1.2-.9 1.8-.1.1.1.8.1 1.5 0 .6-.5.8-.5.8l-.9-2.8.8-2.1.8-2.5s.7-.3 1.5.3c.8.5.6 1.2.6 1.3z"/><path class="st38" d="M352.5 235.4c.3-.4.6-1.4.8-1.7.8-1.3 1.4-4.6 1.7-5.3.4-.7.8-1.6-.3-2.5-1.2-1-2 .5-2 .5-.4.6-.5.9-.8 1.3-.7.9-3.1 3.3-4.2 4.9 0 0-.1 1.1.5 1.5.8.7 1.6.1 1.6.1.2-.2.4-.4.7-.2.4.4.6 1 .5 1.5-.8 1.4-.7 1.5-.4 1.9.3-.2 1.4-1.4 1.9-2z"/><path class="st38" d="M350.2 233.8s-.6 1.4-1.2 2c-.1.2-.1 1.2-.5 1.9-.1.1.2.8.4 1.5.1.5-.3.8-.3.8l-1.4-2.6.4-2.2.3-2.6s.6-.6 1.5-.1c.6.3.9 1.3.8 1.3z"/><g><path class="st38" d="M376.7 197.6c1.4-1.5 4.9-10 4.9-10l7.9-.4s5 4.9 5.7 8.8.1 8.1.1 8.1h-17.8c-.1.1-.9-6.4-.8-6.5z"/></g><path class="st2" d="M391.6 189.6s-2.5 2.9-6.5 3c-4 .1-5-1.5-5-1.5l-.8 1.7-6.9 10.4s-1.4 3.3 3.6 4.7c5.1 1.4 0 0 0 0l1.1 15.5 14-.1s6.4-18.2 5.2-24.6c-1.3-6.5-4.7-9.1-4.7-9.1"/><g><path class="st38" d="M393.6 193.9s4.5 3.5 2 10.3c-1.4 4-6.9 20-7.5 20.6-4.3 3.9-6.3 0-6.3-2.6 0-2.2.1-11.7 2.5-17.6 1.9-4.8 4.3-12.4 9.3-10.7z"/></g><g><path class="st38" d="M389 221c1.3 2.9-1.8 4.5-1.8 4.5-6 2.9-18.3 6.6-23 7-.9.1-1.5.1-2.1.1 0 0-1.5-.2-1.4-1.7.1-.7 2.4-1.9 2.4-1.9 24.7-15.1 25-10 25.9-8zM354.4 231.6c.1 0-1.5.3-2.2.7-.2.1-1.2-.1-2 0-.1 0-.7-.4-1.3-.7-.5-.2-.9.1-.9.1l2.2 2 2.3.2 2.6.3s.6-.5.3-1.5c-.2-1-.9-1.2-1-1.1z"/><path class="st38" d="M354.7 228.9c.5-.1 1.5 0 1.9-.1 1.5-.1 4.7.7 5.5.6.8-.1 1.8-.1 2.2 1.3.4 1.5-1.3 1.6-1.3 1.6-.7.1-1 .1-1.5.2-1.2.3-4.3 1.5-6.2 1.7 0 0-1-.3-1.2-1.1-.2-1 .6-1.5.6-1.5.2-.1.6-.2.5-.6-.2-.6-.7-1-1.1-1-1.6.1-1.7 0-1.9-.4.1-.1 1.8-.6 2.5-.7z"/><path class="st38" d="M355.2 231.5s-1.6 0-2.3.2c-.2.1-1.2-.4-1.9-.3-.1 0-.6-.5-1.2-.9-.4-.3-.9-.1-.9-.1l1.7 2.4 2.2.6 2.5.8s.8-.3.7-1.3c0-.7-.8-1.4-.8-1.4z"/></g><path class="st2" d="M394.6 209.1s5.4-14.7-1.8-15.6c-6.4-.8-9.8 12.7-9.8 12.7l11.6 2.9z"/><path d="M399.8 195.2c-1.5.5-3.1 0-4.6-.5-1.6-.6-3.2-1.3-4.6-2.1-.6-.3-1.2-.7-1.5-1.2-.5-.6-.6-1.4-.7-2.2-.2-1-.3-2.1.2-3 .4-.7 1.3-1.2 2.2-1.3 2.9-.3 6.4 2.1 8.5 3.9.9.8 2.4 1.9 2.7 3 .3 1.5-.8 3-2.2 3.4z"/><path d="M401.6 183.4c.8.3 1.7.7 2.1 1.5.3.5.3 1.2.3 1.8 0 .6 0 1.3-.4 1.8-.5.8-1.4 1.1-2.4 1.1-2.4 0-4.4-1.8-6.6-2.8-1-.4-2-.7-2.9-1.3-.9-.6-1.7-1.5-1.6-2.6.3-5.6 9.3-.4 11.5.5z"/><path d="M387.4 176.8c1 .8 2.4 1.1 3.6.7.4 2.4 2.1 4.5 4.2 5.8.6.4 1.2.7 1.9.8.6 0 1.2-.1 1.8-.3 1.4-.5 2.8-1.3 3.4-2.6.4-.9.3-2-.2-2.9-.5-.9-1.4-1.5-2.4-1.6-.9-.1-1.8.2-2.6 0-.9-.1-1.7-.7-2.3-1.4-1-.9-1.9-3.2-2.7-4.3-2.8-3.9-5.6-2.6-6.9-2.5-3.3.3.3 6.7 2.2 8.3z"/><path d="M383.6 172.4c-.2 0-5.9 1-7.5-1.4-1.5-2.3.4-5.7 4.5-5.2 4.9.6 9.6 4.3 10.1 6.6.8 3.7-7.1 0-7.1 0z"/><path d="M378.9 170.3s1.9 7.4 4.4 7.1c2.5-.3 2.8-4.5 2.8-4.5l-7.2-2.6z"/><path d="M380.8 171.4s4.8 3.5 3.4 8.1c-2.6 8.2-.2 13.1 4.2 14.7s10.5 1.6 10.6 1c.1-.6-7-22.1-7-22.1l-11.2-1.7z"/><path class="st38" d="M383.5 177.4s1-1.2 1.5-.6-.2 2.7-.8 2.5c-.6-.3-1-.6-1-.6l.3-1.3z"/><path class="st38" d="M384.2 177.4c.2-.1.4-.1.5.1v.2c0 .1 0 .3-.1.4-.1.1-.2.2-.3.1"/></g><g><path class="st43" d="M649.5 188.1l9.5.1s1.4 4.3 1.2 12.4c0 .3-8.2 2.7-8.2 2.7l-2.5-15.2z"/><path class="st43" d="M646.8 180.4c.2.5.4 1.2.4 1.6 0 .9-.5 1.8-.5 2.3.2 4.2-.8 3.8-.4 5.4.3 1.2 1.8 1.2 4.2 1.7 1.8.4 6.3-1.7 7.1-2 3.4-1.6 4.7-8.2 4.7-10.9 0-5.7-4.7-6.4-8.2-5.8-1.9.3-3.4 1.1-4.5 2.1-2.1 1.8-3 5.2-2.8 5.6z"/><path d="M650.2 180.5c-.2-.3-1.7-1.1-3.1-.2"/><circle class="st22" cx="648.7" cy="182" r=".5"/><path class="st43" d="M647.4 181c-.7 2-1.5 3-1.8 3.7 0 .1 1.1.3 1.2.3.1 0 .6-4 .6-4z"/><path class="st44" d="M654.9 191.7c-.2.1 1.1 5.3-3.7 6.7l-1.1-7 4.8.3z"/><path class="st43" d="M646.7 185.9s1.2.3 1.2.5c-.1.5-1.3.5-1.3.5l.1-1z"/><path d="M646.7 184.9s3 .2 3 1.2c0 .1-2.9-.3-2.9-.3l-.1-.9zM646.6 177.6s3.9-10.2 14.4-4.5c4.8 2.6 2.9 9.9-1.1 16-.1.1-2.5.4-3.1-.6-.8-1.3-1-6-1-6l-2.7.6s-.3-3.3-.8-3.5c-5-1.3-5.7-2-5.7-2z"/><path class="st44" d="M656 181.6s.2 1.9-.8 2.3c-.6.2-1.2 0-1.2 0s.3 2.8 1.9 2.2c1.6-.6.1-4.5.1-4.5z"/><path class="st43" d="M654.1 182.3s.9-1.7 1.6-1c.8.7.5 2.6-1.1 2.6-.9 0-1-.2-1-.2l.5-1.4z"/><path class="st43" d="M654.9 182.3c0-.3.4-.5.6-.2V182.4c0 .2-.1.3-.2.5-.1.1-.3.1-.5 0l.1-.6zM643.1 209.1c1.9-3.3 8.3-10.8 8.3-10.8l8.5-1.4s6.1 4.3 7.6 11.5c.1.3-.5 7.8-.5 7.8h-25.5c-.1 0 1.6-7 1.6-7.1z"/><path class="st24" d="M645.3 191.9s.1 0 0 0c0-.1 0 0 0 0z"/><path d="M659.9 195.4l-10.6 5.4-6.3 8.4-1.7 7.1H667l.6-8.6s-2.2-6.5-5.7-9.1l-2-3.2z" fill="#1d6d75"/><path class="st1" d="M660.1 194.9l-10.9 6 12.1-4z"/><g><path class="st27" d="M659.2 209.4s.3 3.7-2.1 5.8c-2.8 2.5-14.6 13.2-15.3 13.4-4.9 1.5-4.6-3-3.5-5.1 1-2 3-7.4 7-11.5 3.4-3.6 10-10 13.9-2.6z"/><path class="st43" d="M644.6 222.9c1.1 1.7.1 2.6.1 2.6-5.5 3.8-12.7 8.2-16.2 10.6-.7.4-1 .4-1.5.6l-2.2-2.1c13.4-17.5 18.8-13.4 19.8-11.7z"/><path class="st19" d="M620.6 237.8c.1-.1-1.2.6-1.7 1.1-.1.1-1.1.2-1.7.5-.1 0-.7-.2-1.3-.3-.5-.1-.7.3-.7.3l2.4 1.1 2-.4 2.3-.4s.4-.6-.1-1.4c-.4-.6-1.1-.5-1.2-.5z"/><path class="st43" d="M620.2 235.4c.4-.2 1.3-.4 1.6-.5 1.3-.5 1.8-.3 4.4-.9 2.8-.6 3 1.8 1.9 2.3-.4.2-.9.3-1.2.5-.9.5-3.3 2.3-4.9 3 0 0-1 0-1.3-.7-.5-.8.1-1.5.1-1.5.2-.1.4-.3.3-.6-.3-.5-.6-.5-1.2-.4-1.2.4-1.7.2-1.7-.1.4 0 1.4-.8 2-1.1z"/><path class="st43" d="M621.3 237.6s-1.3.4-1.9.8c-.2.1-1.1 0-1.7.2-.1 0-.7-.3-1.3-.5-.5-.2-.8.2-.8.2l2.1 1.6h2l2.3.1s.6-.5.3-1.3c-.1-.8-1-1.1-1-1.1zM658.6 208.9s.3 3.7-2.1 5.8c-2.8 2.5-14.6 13.2-15.3 13.4-4.9 1.5-4.6-3-3.5-5.1 1-2 3-7.4 7-11.5 3.5-3.7 10-10.1 13.9-2.6z"/><path class="st1" d="M652.7 218.6l-8.6-8 8.6-6.5 6 1.7 1.4 5.4z"/><path fill="#005156" d="M644.1 210.6l8.6 8-.6.6-8.6-8z"/></g></g><g><path class="st47" d="M461.2 216.3c-2.3-1.3-3.9 1.2-3.9 1.2-3.1 4.7-7.6 14.4-8.6 18.2-.2.7-.3 1.2-.3 1.7 0 0 0 1.2 1.2 1.2.6 0 1.8-1.8 1.8-1.8 15.5-18.9 11.4-19.6 9.8-20.5z"/><path class="st47" d="M458.6 193.8s5.7.1 5.6 7.6c-.1 3.6-1.1 17.9-1.4 18.5-2.5 4.1-4.9 1.3-5.4-.8-.4-1.8-1.2-9.6-1.8-15-.5-3.3-1.3-10.6 3-10.3zM473.4 222.9l-16 .3s.8 8.4 1.3 11.5c.2 1 1.4 8.5 1.4 8.5s9.3 2.9 13.5-.5c.4-.3.9-2.5 1.3-4 1.6-5.8 2.4-9-1.5-15.8z"/><path class="st47" d="M451.2 194.5l4.4-5.3s11.5 1.8 14.1 7.9c4.2 10 4.1 25.9 4.1 25.9l-16.3.2-6.3-28.7z"/><path class="st47" d="M446.8 188.8l5.7-4.3s4.8 5.7 5.2 7.1c.1.3-6.4 3.2-6.4 3.2l-4.5-6z"/><path class="st47" d="M443.2 181c0 .4.4 1 .4 1.3-.2.7 0 1.6.1 2 .9 3.4.4 3.1 1 4.3.4.9 1.4 1.4 3.4 1.3 1.4-.1 4.3-3.2 4.8-3.6 2.3-1.9 2.1-7.5 1.6-9.7-1-4.6-4.7-4.3-7.2-3.1-3.8 1.8-4.2 5.9-4.1 7.5zM445.6 180.5c-.2-.2-1-.4-2 .3"/><circle class="st22" cx="444.8" cy="182.7" r=".4"/><path class="st47" d="M443.7 181.3c-.8 2-.9 2.8-.5 3 0 0 .6.3.9 0 .2-.2-.4-3-.4-3z"/><path class="st48" d="M450.3 189c-.1.1 1 2.9 0 4.7l-2.7-3.7 2.7-1z"/><path d="M446.9 187.7c-1.3.4-2-1.9-1.8-2.2" opacity=".67" fill="none" stroke="#cd904d" stroke-width="1.02" stroke-miterlimit="10"/><path class="st48" d="M444.1 182.9c.2.5.6.9 1.2 1.1s1.6 0 1.7-.9"/><path class="st50" d="M445.3 185.2c-.4-.4-1.1-.9-1.6-.6v2.3l2.5-.2s-.5-1.1-.9-1.5z"/><path class="st1" d="M456 189.3s12.1 2 14.4 7.9c.3.7 2.7 7.1 3.4 17.1.7 10-.2 8.7-.2 8.7l-16.3.2-6-27.8s5.3-2.7 4.7-6.1z"/><path class="st47" d="M463.3 193.6s4.5 3.5-.2 9.4c-2.2 2.8-11.7 13.6-12.4 13.8-4.4 1.7-4.7-2-3.8-4 .7-1.7 4.9-8.4 7.7-13 1.7-2.7 5.5-9 8.7-6.2z"/><path class="st47" d="M451.7 213.1c-1-2.4-3.8-1.4-3.8-1.4-5.3 1.8-14.8 6.8-17.9 9.3-.6.5-1 .8-1.3 1.1 0 0-.8 1 .2 1.7.5.4 2.6-.3 2.6-.3 23.8-5.7 20.9-8.7 20.2-10.4zM424.8 227c.1 0-1.1.7-1.7.9-.2 0-.6.8-1.2 1.1-.1 0-.2.6-.4 1.2-.2.4-.6.4-.6.4l.1-2.3 1.2-1.4 1.4-1.7s.6-.1 1.1.7c.4.6.1 1.1.1 1.1z"/><path class="st47" d="M426.6 228.4c.3-.2.9-.9 1.2-1.1 1-.8 2.4-3.1 2.9-3.5.5-.4 1.1-1 .5-2-.7-1.1-1.7-.1-1.7-.1-.5.4-.6.6-1 .8-.9.5-3.4 1.6-4.7 2.6 0 0-.4.8 0 1.3.5.7 1.3.5 1.3.5.2-.1.4-.2.7 0 .2.4.2 1 0 1.2-1 .9-1 .9-.9 1.3-.1 0 1.2-.7 1.7-1z"/><path class="st47" d="M425.2 226.6s-.9.9-1.5 1.2c-.1.1-.5.9-.9 1.3-.1.1-.1.7-.1 1.2-.1.4-.5.5-.5.5l-.4-2.3.9-1.6 1-1.9s.7-.3 1.2.3c.4.5.4 1.3.3 1.3z"/><path class="st51" d="M463.3 193.6s4.5 3.5-.2 9.4c-2.2 2.8-11.7 13.6-12.4 13.8-4.4 1.7-4.7-2-3.8-4 .7-1.7 4.9-8.4 7.7-13 1.8-2.7 5.6-9 8.7-6.2z"/><path class="st51" d="M451.2 213.4c-1-2.4-3.8-1.4-3.8-1.4-5.3 1.8-14.8 6.8-17.9 9.3-.6.5-1 .8-1.3 1.1 0 0-.8 1 .2 1.7.5.4 2.6-.3 2.6-.3 23.8-5.7 20.9-8.7 20.2-10.4z"/><path class="st47" d="M448.3 243.7c0-.1-.4 1.2-.8 1.7-.1.1 0 1-.3 1.6 0 .1.2.6.4 1.1.1.4-.2.7-.2.7L446 247l.1-1.8.1-2.1s.5-.4 1.3-.2c.7.2.8.8.8.8z"/><path class="st47" d="M450.5 243.7c.1-.4.2-1.2.3-1.5.3-1.2 0-3.9.2-4.5.1-.6.3-1.5-.8-1.9-1.2-.4-1.5 1-1.5 1-.1.6-.2.8-.3 1.2-.4.9-1.7 3.4-2.2 4.9 0 0 .1.9.8 1 .8.3 1.3-.4 1.3-.4.1-.2.2-.5.5-.4.5.2.7.6.7 1-.3 1.3-.2 1.4.1 1.6.1-.1.7-1.4.9-2z"/><path class="st47" d="M448.4 243.1s-.2 1.3-.5 1.9c-.1.2.2 1 0 1.6 0 .1.4.6.6 1 .2.4-.1.7-.1.7l-1.7-1.6-.2-1.8-.4-2.1s.4-.6 1.2-.5c.6.1 1.1.7 1.1.8z"/><path class="st48" d="M450.4 181.8s.5 1.5-.2 2c-.4.3-.9.3-.9.3s.8 2.2 1.8 1.4c1.1-.8-.7-3.7-.7-3.7z"/><path class="st50" d="M440.6 177.2c-1.2-.6-1.9-2-1.8-3.4s1-2.6 2.2-3.1c.4-.2.9-.3 1.4-.2 1.1.2 1.9 1.1 2.9 1.6.4-.7 1.3-1.1 2-1s1.5.6 2 1.2c.1.2.3.4.5.5.2 0 .4-.1.5-.2.9-.4 2 0 2.8.6 1.5 1.3 3.4 2.1 2.4 6-.5 1.9-.7 3.2-1.3 5.1-1.7.6-4 .4-3.7-2-.4.3-1.7-.3-2-.6-.3-.3-.3-4.4-3.4-4.7-1.5-.2-2.7 1.2-4.5.2z"/><path class="st47" d="M449.1 182.7s.4-1.6 1.1-1.1c.7.4.7 2.3 0 2.2-.7-.1-1.1-.4-1.1-.4v-.7z"/><path class="st47" d="M449.6 182.6c-.1-.3.2-.5.4-.3v.1c0 .1 0 .1.1.2 0 .1 0 .3-.1.4-.1.1-.2.2-.4.1v-.5z"/></g><g><path class="st52" d="M300.8 228.4c-.5 2.3-3.7 2.2-3.7 2.2-6.3-2.2-13.5-5.3-17.5-6.7-.8-.3-.9-.6-1.3-.8l.5-3.1c22 .7 22.5 6.4 22 8.4zM273.7 218.5c.1 0-1.2-.6-1.9-.7-.2 0-.8-.8-1.4-1-.1 0-.3-.7-.6-1.2-.2-.4-.7-.4-.7-.4l.4 2.6 1.5 1.4 1.7 1.7s.7 0 1.1-.9c.4-1 0-1.5-.1-1.5z"/><path class="st52" d="M275.4 216.7c.4.2 1.1.8 1.4 1 1.2.7 1.3 1.3 3.3 3 2.2 1.9.3 3.5-.7 2.9-.3-.2-.8-.5-1.1-.7-1-.5-3.8-1.3-5.3-2.2 0 0-.6-.8-.2-1.5.4-.9 1.3-.7 1.3-.7.2.1.5.2.7-.1.2-.5 0-.8-.4-1.2-1-.7-1.1-1.2-.9-1.5.1.4 1.3.7 1.9 1z"/><path class="st52" d="M274.3 218.9s-1.1-.9-1.7-1.1c-.2-.1-.6-.9-1.2-1.3-.1-.1-.2-.7-.3-1.3-.1-.5-.6-.5-.6-.5l-.1 2.6 1.2 1.6 1.3 2s.7.2 1.3-.5c.3-.6.1-1.5.1-1.5zM314 209.3s.9 3.6-1.1 6.1c-2.4 2.9-11.5 15.4-14.9 15-5.1-.6-3.2-1.6-2.5-3.8.7-2.1 1.9-7.8 5.1-12.5 2.9-4.2 8.4-11.5 13.4-4.8z"/><path class="st47" d="M320.5 211.4s1.6 3.9-.2 7c-2.1 3.7-11.1 19.3-11.8 19.8-4.8 3.3-6-1.6-5.6-4.2.4-2.5.7-9 3.5-14.8 2.5-5.2 7.3-14.4 14.1-7.8z"/><path class="st47" d="M320.1 218.9l-6.1 18.9-16.1.1-1.3-18.7z"/><path class="st47" d="M316.2 244.7c.1.2 3.2 4.5 3.5 8.3.4 3.9-3.6 8.8-3.6 8.8l-15.5.2-1.8-10.7-.9-13.7 16 .2s1.3 4.6 2.3 6.9zM304 193.9l9 .1s1.4 4.1 1.2 11.6c0 .3-7.7 2.5-7.7 2.5l-2.5-14.2z"/><path class="st47" d="M298.1 213c1.8-3.1 7.8-10.2 7.8-10.2l8-1.3s5.7 4.1 7.2 10.9c.1.3-.5 7.4-.5 7.4h-24.1c0-.1 1.6-6.7 1.6-6.8zM301.4 186.6c.2.5.4 1.1.4 1.5 0 .8-.5 1.7-.5 2.2.2 4-.7 3.6-.4 5.1.3 1.1 1.7 1.1 4 1.6 1.7.3 6-1.6 6.7-1.9 3.2-1.5 4.4-7.7 4.4-10.3 0-5.4-4.4-6-7.7-5.4-1.8.3-3.2 1.1-4.3 2-1.8 1.6-2.7 4.8-2.6 5.2z"/><path d="M304.6 186.6c-.2-.3-1.6-1.1-2.9-.2"/><circle class="st22" cx="303.2" cy="188.1" r=".4"/><path class="st47" d="M302 187.1c-.6 1.9-1.4 2.8-1.7 3.5 0 .1 1 .3 1.2.3 0 .1.5-3.8.5-3.8z"/><path class="st48" d="M309.1 197.2c-.2.1 1 5-3.5 6.3l-1.1-6.6 4.6.3z"/><path d="M303.6 182s4.9-6.3 12.1-2c4.4 2.6 2.4 9.2-2.4 14.7-.1.1-2.2-.4-2.7-1.4-.7-1.2-.7-4.8-.7-4.8l-2.5.5s-.7-2.8-.8-3.3c-.6-1.9-3-3.7-3-3.7z"/><path class="st48" d="M310.2 187.7s.2 1.8-.7 2.2c-.6.2-1.2 0-1.2 0s.3 2.7 1.8 2.1c1.4-.6.1-4.3.1-4.3z"/><path class="st47" d="M308.4 188.4s.8-1.6 1.6-1 .4 2.4-1 2.4c-.9 0-1-.2-1-.2l.4-1.2z"/><path class="st47" d="M309.1 188.4c0-.3.4-.5.6-.2V188.5c0 .2-.1.3-.2.4-.1.1-.3.1-.4 0v-.5zM301.4 191.7s1.2.3 1.2.5c0 .4-1.2.5-1.2.5v-1z"/><path d="M298 182.2c.1-1 1-1.9 2-1.7.4.1.8.3 1.2.3.4.1.9-.1 1-.5.1-.3-.1-.7-.2-1-.2-.8.5-1.6 1.3-1.9.8-.2 1.7.4 2.5.4 2.5-.1 4.7-.7 7.7 1.2l-3.1 2.5c.2-.1.3.2.3.4-.2 1.2-.9 2.2-1.8 3-.5.4-1.1.8-1.7.9-4.2.7-1.1-3.6-4.8-2.3-1.1.6-1.7 1.1-2.7.9-1-.3-1.8-1.2-1.7-2.2z"/><path class="st53" d="M314.6 201.6l-11.1 3.8-5.5 7.6-1.4 5.8 2.1 28.3 17.1-4-1.8-5.6 7-19.1s1.7-7.1-1.7-11.3c-3.4-4.2-4.7-5.5-4.7-5.5"/><path fill="#ed6a5e" d="M314.9 201.5l-11.7 4.4"/><g opacity=".67"><path class="st47" d="M283.9 225.5c25 0 20.9 6.3 20.5 8.6"/></g><g><path class="st56" d="M278.3 234.4c.4 0 .7-.1 1.1-.3 1.1-.6 1.5-1.9.9-3l-8.7-16.5c-.6-1.1-1.9-1.5-3-.9s-1.5 1.9-.9 3l8.7 16.5c.3.7 1.1 1.2 1.9 1.2z"/><path d="M319.1 209.9c0 .6 2.6 5.3-2 15.6-4.8 10.8-18.7 15.6-18.7 15.6l-.4-4.7 21.1-26.5z" opacity=".12" fill="#022327"/><path class="st52" d="M305.2 235.2c-.5 2.7-4.1 2.7-4.1 2.7-7.2-2.3-15.4-5.5-20-7-.9-.3-1.1-.7-1.6-.9l.4-3.5c25 0 25.7 6.5 25.3 8.7zM274.1 225c.1 0-1.4-.7-2.2-.8-.2 0-.9-.9-1.6-1.1-.1 0-.4-.8-.7-1.4-.3-.5-.8-.4-.8-.4l.6 2.9 1.7 1.5 1.9 1.8s.8 0 1.2-1.1c.5-.8 0-1.4-.1-1.4z"/><path class="st52" d="M276 223c.4.2 1.2.9 1.6 1.1 1.3.8 1.5 1.4 3.8 3.3 2.5 2.1.5 3.9-.7 3.3-.4-.2-.9-.6-1.3-.8-1.1-.5-4.4-1.4-6.1-2.3 0 0-.7-.9-.3-1.6.4-1 1.4-.9 1.4-.9.2.1.6.2.8-.2.2-.6 0-.9-.5-1.3-1.2-.8-1.3-1.4-1.1-1.6.3.3 1.7.6 2.4 1z"/><path class="st52" d="M274.8 225.4s-1.3-.9-2-1.2c-.2-.1-.7-1-1.4-1.4-.1-.1-.2-.8-.4-1.5-.2-.5-.7-.6-.7-.6v3l1.4 1.8 1.6 2.2s.8.2 1.4-.6c.3-.6.1-1.6.1-1.7zM317.5 211.4s1.4 4-.5 7c-2.3 3.6-11 18.8-14.9 18.8-5.9 0-3.8-1.4-3.3-4 .5-2.4 1.1-9 4.2-14.7 2.7-5.1 8-14.1 14.5-7.1z"/><path class="st53" d="M302.3 219.4l10.9 5.9s10.1-13.8 4.6-16.6c-5.5-2.8-12.5-3.1-15.5 10.7z"/><g><path class="st2" d="M313.7 223.9c-3.7-1.8-7.4-3.6-11.1-5.5-.6-.3-1.3-.2-1.6.4-.3.5-.2 1.3.4 1.6 3.7 1.8 7.4 3.6 11.1 5.5.6.3 1.3.2 1.6-.4.3-.5.1-1.3-.4-1.6z"/></g></g><path class="st56" d="M315.8 203.1s-17.1 5.9-18.6 14c-.8 4.5-.4 5.2-.4 5.2s4.8-13.7 21.2-16.7"/><path class="st2" d="M313.8 199.4l-6.3 4.2-1.2 4.2 10-4.7zM304.3 203.3l-.8 2.2 1 3 1.6-2.7z"/></g><path class="st26" d="M252.3 245.5c0 2.3 0 4.5.1 6.5.1 3.8.2 7.1.3 9.7.1 2.6.3 4.4.5 5.1 2 6.7 11.9 6.7 11.9 6.7h389.6c.4 0 .8 0 1.3-.1l38.5-5.5c4.5-.6 7.8-4.5 7.8-9.1v-98.9c0-4.8-3.7-8.8-8.3-9.2h-.7c-11.8-.1-32.5-.1-58.6-.3-8.2 0-16.8-.1-25.9-.1-15-.1-31.2-.1-48.1-.2-47.2-.2-99.7-.5-146.9-.7-16.9-.1-33.1-.2-48.1-.2-52.6-.2-91.1-.4-95.2-.4-9.3 0-13.9 4.8-15.8 8-.9 1.4-1.3 3-1.4 4.7v2.3c4.8-.1 59.8-.5 59.8.3H312l-.3 48.7c-23 4.3-37.2 31.3-59.4 32.7zm80.7-31.4l.3-49.4h117.4c.4.1.9.2 1.4.2h106.3c.5 0 .9-.1 1.4-.2h70.5c.4.1.9.2 1.4.2H677c.5 0 .9-.1 1.4-.2H689v49.4H333zm-58.7-45.4c-5.3 0-9.6 4.4-9.6 9.7v9.1c0 5.4 4.3 9.7 9.6 9.7v-28.5z"/><path class="st59" d="M540.8 240h46.1c1.6 0 2.8-1.3 2.8-2.8v-5.7c0-1.6-1.3-2.8-2.8-2.8h-46.1c-1.6 0-2.8 1.3-2.8 2.8v5.7c0 1.6 1.3 2.8 2.8 2.8zM394 240h46.1c1.6 0 2.8-1.3 2.8-2.8v-5.7c0-1.6-1.3-2.8-2.8-2.8H394c-1.6 0-2.8 1.3-2.8 2.8v5.7c-.1 1.6 1.2 2.8 2.8 2.8zM447.3 157.9v1.9c0 2.1 1.4 3.9 3.3 4.5.4.1.9.2 1.4.2h106.3c.5 0 .9-.1 1.4-.2 1.9-.6 3.3-2.4 3.3-4.5v-1.9c0-2.6-2.1-4.7-4.7-4.7H452c-2.6-.1-4.7 2.1-4.7 4.7zM626.8 157.9v1.9c0 2.1 1.4 3.9 3.3 4.5.4.1.9.2 1.4.2h45.3c.5 0 .9-.1 1.4-.2 1.9-.6 3.4-2.4 3.4-4.5v-1.9c0-2.6-2.1-4.7-4.7-4.7h-45.3c-2.6-.1-4.8 2.1-4.8 4.7z"/><path transform="rotate(-180 584.6 147.812)" class="st26" d="M560.5 144.9h48.1v5.8h-48.1z"/><path class="st26" d="M634.3 150.7h60.5v-5.9c0-4-3.2-7.2-7.1-7.2h-41l-12.4 13.1z"/><path class="st1" d="M642 147.3h44.8v-2.9c0-2-1.6-3.5-3.5-3.5h-35l-6.3 6.4z"/><path transform="rotate(-180 389.623 147.812)" class="st26" d="M365.6 144.9h48.1v5.8h-48.1z"/><path class="st2" d="M678.3 164.3h-48.1c.4.1.9.2 1.4.2h45.3c.5 0 .9-.1 1.4-.2zM559.7 164.3H450.6c.4.1.9.2 1.4.2h106.3c.5 0 .9-.1 1.4-.2z"/><path class="st60" d="M387.7 271.5v-17.4c0-8.9-7.2-16.1-16.1-16.1h-14.7c-8.9 0-16.1 7.2-16.1 16.1v17.4h46.9z"/><g><path class="st1" d="M342.6 261.9c-.4 4.2.5 8.3 2.4 11.8 3.2 6.1 9.4 10.5 16.8 11.2 11.6 1 21.9-7.5 22.9-19.1.5-5.2-1-10.1-3.8-14.1-3.4-4.9-9-8.3-15.4-8.9-11.6-1.1-21.8 7.5-22.9 19.1z"/><path class="st1" d="M361 241.7c1.5-.2 3.1-.2 4.7-.1.2 0 .4 0 .5.1l-2.5 22.2-2.7-22.2zM366.3 285.8c-1.5.2-3.1.2-4.7.1-.2 0-.4 0-.5-.1l2.5-22.2 2.7 22.2z"/><path class="st1" d="M341.6 266.4c-.2-1.5-.2-3.1-.1-4.7 0-.2 0-.4.1-.5l22.2 2.5-22.2 2.7zM385.7 261.1c.2 1.5.2 3.1.1 4.7 0 .2 0 .4-.1.5l-22.2-2.5 22.2-2.7z"/><g><path class="st1" d="M377.4 246.3c1.2.9 2.3 2 3.3 3.3.1.1.2.3.3.4l-17.5 13.9 13.9-17.6zM349.9 281.3c-1.2-.9-2.3-2-3.3-3.3-.1-.1-.2-.3-.3-.4l17.5-13.9-13.9 17.6z"/><g><path class="st1" d="M346.2 250c.9-1.2 2-2.3 3.3-3.3.1-.1.3-.2.4-.3l13.9 17.5-17.6-13.9zM381.2 277.5c-.9 1.2-2 2.3-3.3 3.3-.1.1-.3.2-.4.3l-13.9-17.5 17.6 13.9z"/></g></g><g><path class="st1" d="M369.9 242.4c1.5.4 2.9 1 4.3 1.8.2.1.3.2.5.3l-11 19.4 6.2-21.5zM357.5 285.1c-1.5-.4-2.9-1-4.3-1.8-.2-.1-.3-.2-.5-.3l11-19.4-6.2 21.5z"/><g><path class="st1" d="M342.3 257.6c.4-1.5 1-2.9 1.8-4.3.1-.2.2-.3.3-.5l19.4 11-21.5-6.2z"/><path class="st1" d="M385 269.9c-.4 1.5-1 2.9-1.8 4.3-.1.2-.2.3-.3.5l-19.4-11 21.5 6.2z"/></g></g><g><path class="st1" d="M382.7 252.2c.8 1.3 1.5 2.7 2 4.2.1.2.1.3.2.5l-21.2 6.8 19-11.5zM344.6 275.3c-.8-1.3-1.5-2.7-2-4.2-.1-.2-.1-.3-.2-.5l21.2-6.8-19 11.5z"/><g><path class="st1" d="M352.1 244.7c1.3-.8 2.7-1.5 4.2-2 .2-.1.3-.1.5-.2l6.8 21.2-11.5-19zM375.2 282.8c-1.3.8-2.7 1.5-4.2 2-.2.1-.3.1-.5.2l-6.8-21.2 11.5 19z"/></g></g><g class="st61"><path class="st62" d="M345 273.7c3.2 6.1 9.4 10.5 16.7 11.1 11.6 1 21.8-7.5 22.9-19.1.5-5.2-1-10.1-3.8-14l-11.4 7-13.1 8.1-11.3 6.9z"/></g><g><path class="st2" d="M351.4 262.7c-.6 6.8 4.4 12.7 11.1 13.3 6.8.6 12.7-4.4 13.3-11.1.6-6.8-4.4-12.7-11.1-13.3-6.7-.6-12.7 4.4-13.3 11.1z"/></g><g><path class="st1" d="M363.3 267.7c-2.2-.2-3.7-2.1-3.5-4.3.2-2.2 2.1-3.7 4.3-3.5 2.2.2 3.7 2.1 3.6 4.3-.2 2-1.9 3.6-3.9 3.6-.3 0-.4 0-.5-.1zm-2.4-4.1c-.1 1.5 1 2.9 2.5 3 1.5.1 2.9-1 3-2.5.1-1.5-1-2.9-2.5-3h-.3c-1.4 0-2.6 1.1-2.7 2.5z"/></g></g><path transform="rotate(-180 525.15 258.397)" class="st1" d="M521.2 256.7h7.9v3.3h-7.9z"/><path transform="rotate(-180 427.126 258.397)" class="st1" d="M423.2 256.7h7.9v3.3h-7.9z"/><path transform="rotate(-180 277.127 258.397)" class="st1" d="M273.2 256.7h7.9v3.3h-7.9z"/><path class="st1" d="M260.2 250.1s-.1 6.3-.8 7.2c-1.2 1.8-4 2.4-7.2 2.3v-9.5h8z"/><path class="st2" d="M264.7 177.7v8.9c0 5.3 4.3 9.6 9.6 9.6v-28.1c-5.2 0-9.6 4.4-9.6 9.6z"/><path class="st26" d="M264.7 178.4v9.1c0 5.4 4.3 9.7 9.6 9.7v-28.5c-5.2 0-9.6 4.3-9.6 9.7z"/><path class="st1" d="M697.8 249.2h4c.8 0 1.4-.6 1.4-1.4v-33.5c0-.8-.6-1.4-1.4-1.4h-4c-.8 0-1.4.6-1.4 1.4v33.5c0 .8.6 1.4 1.4 1.4z"/><path class="st60" d="M641.3 271.5v-17.4c0-8.9-7.2-16.1-16.1-16.1h-14.7c-8.9 0-16.1 7.2-16.1 16.1v17.4h46.9z"/><g><path class="st1" d="M596.3 261.6c-.4 4.2.5 8.3 2.4 11.8 3.2 6.1 9.4 10.5 16.8 11.2 11.6 1 21.9-7.5 22.9-19.1.5-5.2-1-10.1-3.8-14.1-3.4-4.9-9-8.3-15.4-8.9-11.6-1.1-21.9 7.5-22.9 19.1z"/><path class="st1" d="M614.6 241.3c1.5-.2 3.1-.2 4.7-.1.2 0 .4 0 .5.1l-2.5 22.2-2.7-22.2z"/><path class="st1" d="M620 285.5c-1.5.2-3.1.2-4.7.1-.2 0-.4 0-.5-.1l2.5-22.2 2.7 22.2z"/><path class="st1" d="M595.2 266.1c-.2-1.5-.2-3.1-.1-4.7 0-.2 0-.4.1-.5l22.2 2.5-22.2 2.7z"/><path class="st1" d="M639.4 260.7c.2 1.5.2 3.1.1 4.7 0 .2 0 .4-.1.5l-22.2-2.5 22.2-2.7z"/><g><path class="st1" d="M631 245.9c1.2.9 2.3 2 3.3 3.3.1.1.2.3.3.4l-17.5 13.9 13.9-17.6zM603.6 280.9c-1.2-.9-2.3-2-3.3-3.3-.1-.1-.2-.3-.3-.4l17.5-13.9-13.9 17.6z"/><g><path class="st1" d="M599.8 249.7c.9-1.2 2-2.3 3.3-3.3.1-.1.3-.2.4-.3l13.9 17.5-17.6-13.9zM634.8 277.1c-.9 1.2-2 2.3-3.3 3.3-.1.1-.3.2-.4.3l-13.9-17.5 17.6 13.9z"/></g></g><g><path class="st1" d="M623.5 242c1.5.4 2.9 1 4.3 1.8.2.1.3.2.5.3l-11 19.4 6.2-21.5zM611.1 284.8c-1.5-.4-2.9-1-4.3-1.8-.2-.1-.3-.2-.5-.3l11-19.4-6.2 21.5z"/><g><path class="st1" d="M596 257.2c.4-1.5 1-2.9 1.8-4.3.1-.2.2-.3.3-.5l19.4 11-21.5-6.2zM638.7 269.6c-.4 1.5-1 2.9-1.8 4.3-.1.2-.2.3-.3.5l-19.4-11 21.5 6.2z"/></g></g><g><path class="st1" d="M636.3 251.9c.8 1.3 1.5 2.7 2 4.2.1.2.1.3.2.5l-21.2 6.8 19-11.5zM598.3 274.9c-.8-1.3-1.5-2.7-2-4.2-.1-.2-.1-.3-.2-.5l21.2-6.8-19 11.5z"/><g><path class="st1" d="M605.8 244.4c1.3-.8 2.7-1.5 4.2-2 .2-.1.3-.1.5-.2l6.8 21.2-11.5-19zM628.8 282.4c-1.3.8-2.7 1.5-4.2 2-.2.1-.3.1-.5.2l-6.8-21.2 11.5 19z"/></g></g><g class="st61"><path class="st62" d="M598.7 273.3c3.2 6.1 9.4 10.5 16.7 11.1 11.6 1 21.8-7.5 22.9-19.1.5-5.2-1-10.1-3.8-14l-11.4 7-13.1 8.1-11.3 6.9z"/></g><g><path class="st2" d="M605.1 262.4c-.6 6.8 4.4 12.7 11.1 13.3 6.8.6 12.7-4.4 13.3-11.1.6-6.8-4.4-12.7-11.1-13.3-6.7-.7-12.7 4.3-13.3 11.1z"/></g><g><path class="st1" d="M617 267.4c-2.2-.2-3.7-2.1-3.5-4.3.2-2.2 2.1-3.7 4.3-3.5 2.2.2 3.7 2.1 3.6 4.3-.2 2-1.9 3.6-3.9 3.6-.3-.1-.4-.1-.5-.1zm-2.4-4.2c-.1 1.5 1 2.9 2.5 3 1.5.1 2.9-1 3-2.5.1-1.5-1-2.9-2.5-3h-.3c-1.4 0-2.6 1.1-2.7 2.5z"/></g></g><g><path class="st18" d="M249.6 226.8l-22.9-20.4-31.2-12.7H123l-16.5 12.7v13.4l78.9 8.9h40z"/><path class="st3" d="M182.9 245.2c0 .6-.5 1.1-1.1 1.1h-5.3c-.6 0-1.1-.5-1.1-1.1 0-.6.5-1.1 1.1-1.1h5.3c.6 0 1.1.5 1.1 1.1z"/><path class="st63" d="M188.2 220s-1.2 2.8.1 5.1c1.6 2.7 8.1 14.2 8.6 14.5 3.5 2.4 4.4-1.2 4.1-3.1-.3-1.8-.5-6.6-2.5-10.9-1.8-3.7-5.3-10.4-10.3-5.6z"/><path class="st63" d="M188.5 225.5l4.5 13.9 11.8.1 1-13.7z"/><path class="st63" d="M191.3 244.4c-.1.2-2.3 3.3-2.6 6.1-.3 2.9 2.6 6.5 2.6 6.5l11.4.1 1.3-7.9.6-10.1-11.7.2c.1.1-.8 3.5-1.6 5.1zM200.3 207.1l-6.6.1s-1 3-.8 8.5c0 .2 5.7 1.8 5.7 1.8l1.7-10.4z"/><path class="st63" d="M204.6 221.2c-1.3-2.3-5.7-7.5-5.7-7.5l-5.9-1s-4.2 3-5.3 8c0 .2.4 5.4.4 5.4h17.7l-1.2-4.9zM202.2 201.8c-.1.3-.3.8-.3 1.1 0 .6.4 1.3.3 1.6-.1 2.9.5 2.6.3 3.7-.2.8-1.2.8-2.9 1.2-1.3.2-4.4-1.1-4.9-1.4-2.4-1.1-3.3-5.7-3.3-7.6 0-4 3.3-4.4 5.7-4 1.3.2 2.3.8 3.1 1.5 1.5 1.2 2.1 3.6 2 3.9z"/><path d="M199.8 201.8c.2-.2 1.1-.8 2.1-.1"/><circle class="st3" cx="200.9" cy="202.9" r=".3"/><path class="st63" d="M201.8 202.2c.5 1.4 1 2 1.2 2.6 0 .1-.8.2-.9.2l-.3-2.8z"/><path class="st64" d="M196.6 209.6c.1.1-.7 3.6 2.6 4.6l.8-4.9-3.4.3z"/><path class="st63" d="M202.2 205.6s-.9.2-.8.4c0 .3.9.4.9.4l-.1-.8z"/><path d="M204.7 198.6c-.1-.7-.8-1.4-1.5-1.3-.3 0-.6.2-.9.2-.3 0-.7-.1-.7-.3-.1-.2.1-.5.1-.7.1-.6-.4-1.2-1-1.4-.6-.2-1.2.3-1.8.3-1.8-.1-3.5-.5-5.6.9l2.3 1.9c-.1-.1-.2.2-.2.3.1.9.7 1.6 1.3 2.2.4.3.8.6 1.2.7 3.1.5.8-2.6 3.5-1.7.8.5 1.3.8 2 .6.8-.3 1.4-1 1.3-1.7z"/><path d="M200.6 198.5s-3.6-4.6-8.9-1.5c-3.2 1.9-1.8 6.7 1.8 10.8 0 .1 1.6-.3 2-1 .5-.9.5-3.5.5-3.5l1.9.4.6-2.4c.3-1.6 2.1-2.8 2.1-2.8z"/><path class="st64" d="M195.8 202.6s-.1 1.3.5 1.6c.4.2.9 0 .9 0s-.2 2-1.3 1.5-.1-3.1-.1-3.1z"/><path class="st63" d="M197.1 203.1s-.6-1.2-1.1-.7c-.5.5-.3 1.8.7 1.8.6 0 .7-.1.7-.1l-.3-1z"/><path class="st63" d="M196.6 203.1c0-.2-.3-.3-.4-.1v.2c0 .1 0 .2.1.3.1.1.2.1.3 0v-.4z"/><pattern id="SVGID_10_" xlink:href="#Unnamed_Pattern_23" patternTransform="matrix(.2301 0 0 .2348 -3328.135 -6234.518)"/><path d="M192.5 212.8l8.6 3.2 3.6 5.2 1 4.3-1.5 20.8-12.6-2.9 1.3-4.1-5.1-14s-1.2-5.2 1.3-8.3 3.4-4.2 3.4-4.2" fill="url(#SVGID_10_)"/><path fill="none" stroke="#fff" stroke-width=".836" stroke-linecap="round" stroke-linejoin="round" stroke-miterlimit="10" d="M192.3 212.7l9.1 3.5"/><path class="st67" d="M191.7 212.2s12.6 4.3 13.7 10.3c.6 3.3.3 3.8.3 3.8s-3.5-10.1-15.6-12.2"/><pattern id="SVGID_11_" xlink:href="#Horizontal_line_5" patternTransform="translate(-1075.467 -3292.959) scale(.5965)"/><path d="M151.9 227.3s-5.4-4.5-5.1-4.5c.3 0 3.3-6 3.3-6" fill="url(#SVGID_11_)"/><path class="st69" d="M144.4 217.6s-.4 2.6 1.9 7.2 10.5 10.5 11.1 10.7c3.9 1.2 4-2 3.2-3.6-.7-1.4-2.5-4.4-7.4-10.3-2.3-2.8-6.1-6.5-8.8-4z"/><pattern id="SVGID_12_" xlink:href="#Horizontal_line_5" patternTransform="scale(.5965) rotate(26.32 4319.277 -15140.209)"/><path fill="url(#SVGID_12_)" d="M150.1 218.1l3.7 3.9-6.8 6.3"/><path class="st69" d="M139.1 225.4l3.3 13.2 9.8.1 1-13.5z"/><path class="st69" d="M142 238.6l10.1-.1s2.7 4-.6 10.9c-.4.7-2 7.7-2 7.7s-8.2 2.4-11.9-.4c-.4-.3-1.4-4.1-1.7-5.3-1.5-5 2.6-7.3 6.1-12.8zM150.5 227.8s5.1.4 5.1-2.5c0-1.6-.1-.5-4.3-6.5M157.5 235.5c1.5 1.7 3.4.1 3.4.1 3.6-3 9.5-9.8 11.1-12.7.3-.5.5-.9.7-1.3 0 0 .3-1-.7-1.4-.5-.2-1.9 1-1.9 1-16.8 11.5-13.7 13.1-12.6 14.3zM174.2 216.5c-.1.1.6-.9 1.1-1.2.1-.1.3-.8.6-1.2 0-.1 0-.6-.1-1.1 0-.4.3-.5.3-.5l.6 2-.5 1.5-.6 1.8s-.5.2-1.1-.2c-.4-.6-.3-1.1-.3-1.1z"/><path class="st69" d="M172.4 215.8c-.2.3-.4 1-.6 1.2-.5.9-.9 3.2-1.2 3.7-.3.5-.6 1.1.2 1.8.9.7 1.4-.4 1.4-.4.3-.5.3-.6.5-.9.5-.7 2.2-2.3 2.9-3.5 0 0 .1-.8-.4-1.1-.6-.5-1.2-.1-1.2-.1-.1.1-.3.3-.5.2-.3-.3-.4-.7-.3-1 .6-1 .5-1.1.3-1.3 0 .1-.8 1-1.1 1.4z"/><path class="st69" d="M174 216.9s.4-1 .8-1.4c.1-.1.1-.9.3-1.3 0-.1-.2-.6-.3-1-.1-.4.2-.6.2-.6l1 1.8-.2 1.6-.2 1.8s-.4.4-1.1.1c-.3-.3-.5-.9-.5-1zM152.5 220.6c-1-1.1-3.5-7-3.5-7l-5.5-.3s-3.5 3.5-4 6.2c-.5 2.8-.1 5.7-.1 5.7h12.5c.1 0 .7-4.5.6-4.6z"/><pattern id="SVGID_13_" xlink:href="#Horizontal_line_5" patternTransform="translate(-1075.467 -3292.959) scale(.5965)"/><path d="M142.1 214.9s1.7 2.1 4.6 2.1c2.8.1 3.5-1.1 3.5-1.1l.6 1.2 4.9 7.3s1 2.3-2.5 3.3c-3.6 1 0 0 0 0l-.8 10.9-9.9-.1s-4.5-12.8-3.6-17.3 3.2-6.3 3.2-6.3" fill="url(#SVGID_13_)"/><g><path class="st69" d="M140.6 218s-3.2 2.5-1.4 7.3c1 2.8 4.8 14.1 5.3 14.5 3 2.7 4.5 0 4.4-1.8 0-1.5-.1-8.2-1.7-12.4-1.4-3.4-3.1-8.8-6.6-7.6z"/></g><g><path class="st69" d="M143.8 237.1c-.9 2.1 1.3 3.1 1.3 3.1 4.2 2 12.9 4.6 16.2 4.9.6.1 1 .1 1.4.1 0 0 1.1-.2 1-1.2-.1-.5-1.7-1.3-1.7-1.3-17.3-10.6-17.5-7.1-18.2-5.6zM168.2 244.5c-.1 0 1.1.2 1.5.5.1.1.9-.1 1.4 0 .1 0 .5-.3.9-.5s.6.1.6.1l-1.5 1.4-1.6.1-1.8.2s-.4-.3-.2-1.1c.1-.6.6-.7.7-.7z"/><path class="st69" d="M168 242.6c-.3-.1-1.1 0-1.3 0-1.1-.1-3.3.5-3.9.4-.6 0-1.3 0-1.5.9-.3 1.1.9 1.1.9 1.1.5 0 .7 0 1 .1.8.2 3 1 4.3 1.2 0 0 .7-.2.8-.8.2-.7-.4-1.1-.4-1.1-.2-.1-.4-.1-.4-.4.1-.4.5-.7.8-.7 1.1.1 1.2 0 1.3-.3 0 0-1.1-.4-1.6-.4z"/><path class="st69" d="M167.6 244.4s1.1 0 1.6.1c.1 0 .8-.3 1.4-.2.1 0 .4-.4.8-.7.3-.2.6 0 .6 0l-1.2 1.7-1.5.4-1.8.6s-.5-.2-.5-.9c0-.5.6-.9.6-1z"/></g><pattern id="SVGID_14_" xlink:href="#Horizontal_line_5" patternTransform="translate(-1075.467 -3292.959) scale(.5965)"/><path d="M139.9 228.7s-3.8-10.4 1.2-11c4.5-.5 6.9 8.9 6.9 8.9l-8.1 2.1z" fill="url(#SVGID_14_)"/><g><path class="st3" d="M148.2 197.7s2.9.3 3.6 3.7c.7 3.8 1 11.7 1 11.7l-13.5-.1s-1.8-17 8.9-15.3z"/><path class="st69" d="M144.4 209.4l-1.2 5h6v-6.2z"/><path class="st73" d="M144.8 209.6c.1 0 0 2.8 4.5 3.3l-.2-4.6-4.3 1.3z"/><path class="st69" d="M151 204.8c0 3-1.6 5.5-4.4 5.5s-4.3-2.5-4.3-5.5 1.6-5.5 4.3-5.5 4.4 2.5 4.4 5.5z"/><path class="st3" d="M143.5 204.2c.3-.3 1.8-.4 2.1 0M148 204.3c.5-.5 2.1-.3 2.3.1"/><circle class="st3" cx="144.4" cy="205.1" r=".3"/><circle class="st3" cx="148.9" cy="205.1" r=".3"/><path class="st2" d="M145.5 207h2.4s-.2 1-1.2 1c-1 .1-1.2-1-1.2-1z"/><path class="st69" d="M142.7 206.5h-.7c-.2 0-.3-.1-.3-.3v-1.5c0-.2.1-.3.3-.3h.6c.2 0 .3.1.3.3v1.5c.1.2-.1.3-.2.3zM151 206.5h-.6c-.2 0-.3-.1-.3-.3v-1.5c0-.2.1-.3.3-.3h.6c.2 0 .3.1.3.3v1.5c0 .2-.1.3-.3.3z"/><path class="st3" d="M144.4 199.6s-.7 3.5-.4 3.6c.3.1 3.8.1 3.8.1s.7-3.7.6-3.3c-.1.4.3 3.3.3 3.3l1.4.3s.9-5.9-1.7-5.8c-2.6.2-3.8.4-4 1.8z"/><path class="st73" d="M147 204.2v1.6l-1 .2s.9.9 1.3.4c.7-.4.2-2-.3-2.2zM142.5 205h-.2c-.1 0-.1 0-.2.1 0 .1-.1.1-.1.2v.3c0 .1.1.2.2.3h.2M150.8 205c.1 0 .2.1.3.2v.3c0 .1 0 .2-.1.3s-.1.2-.2.1c0 0-.1 0-.1-.1"/></g><path class="st67" d="M142.7 214.1l-1.7 2s11.5 6.9 10.8 21c-.6 14.1 0 0 0 0l.5.2s3.6-16.3-9.6-23.2"/><g><path class="st3" d="M225.9 228.4c-.3 0-.5-.1-.8-.2-.8-.4-1.1-1.4-.7-2.2l6.4-12.1c.4-.8 1.4-1.1 2.2-.7.8.4 1.1 1.4.7 2.2l-6.4 12.1c-.2.6-.8.9-1.4.9z"/><path class="st1" d="M189.2 218.9c0 .4-1.9 3.9 1.5 11.4 3.5 7.9 13.7 11.4 13.7 11.4l.3-3.4-15.5-19.4z"/><path class="st47" d="M205.7 231.6c.5 1.9 3.1 1.8 3.1 1.8 5.2-2.1 11-4.8 14.3-6.1.6-.3.7-.6 1.1-.7l-.5-2.5c-18.3 1.2-18.5 5.9-18 7.5zM227.9 222.6c-.1 0 1-.6 1.6-.7.1 0 .6-.7 1.1-.9.1 0 .2-.6.4-1s.6-.4.6-.4l-.3 2.2-1.2 1.2-1.3 1.4s-.6 0-.9-.7c-.4-.6-.1-1.1 0-1.1z"/><path class="st47" d="M226.4 221.2c-.3.2-.9.7-1.1.9-.9.7-1 1.1-2.6 2.6-1.7 1.7-.2 2.9.7 2.4.3-.2.6-.5.9-.6.8-.4 3.2-1.2 4.3-2 0 0 .4-.7.1-1.2-.4-.7-1.1-.6-1.1-.6-.2.1-.4.2-.6-.1-.2-.4-.1-.7.3-1 .8-.6.9-1.1.7-1.3-.1.3-1.1.6-1.6.9z"/><path class="st47" d="M227.4 222.9s.9-.8 1.4-1c.1-.1.5-.8.9-1.1.1 0 .1-.6.2-1.1.1-.4.5-.5.5-.5l.1 2.2-.9 1.4-1 1.7s-.6.2-1.1-.4c-.2-.4-.1-1.1-.1-1.2zM190 221.3s.4 3.1 2.7 4.4c2.7 1.6 13.5 8.6 16 7.3 3.8-2 2-2.2.8-3.7-1.1-1.4-3.8-5.5-7.7-8.2-3.4-2.4-9.9-6.5-11.8.2z"/><pattern id="SVGID_15_" xlink:href="#Unnamed_Pattern_23" patternTransform="matrix(.1712 -.08751 .0893 .1747 -2821.296 -7188.909)"/><path d="M202.6 221.4l-5.2 7.5s-11.2-5.6-8.5-9.3c2.7-3.7 7.2-6.2 13.7 1.8z" fill="url(#SVGID_15_)"/><g><path class="st2" d="M198 229.3c1.8-2.4 3.6-4.9 5.4-7.3.4-.5-.5-1-.9-.5-1.8 2.4-3.6 4.9-5.4 7.3-.3.5.5 1 .9.5z"/></g></g><path d="M183.6 224.3s-7.3 13.2-4.9 21.3c3.4 11.2 10.6 26.5 10.6 26.5" fill="none" stroke="#000" stroke-width=".587" stroke-miterlimit="10"/><path class="st1" d="M320.2 246.7c0-17.9-73.5-22.5-73.5-22.5l-160.2-.1-4-.1-2.1 39.8 9.8 9h224.2c3.5 0 6.2-2.8 5.6-6l-.7-3.5s.6-15.4.9-15.7c1.6-1.6 0-.7 0-.9z"/><path class="st26" d="M146.2 235.9h-10.3c-.4 0-.7-.3-.7-.7v-1.4c0-.4.3-.7.7-.7h10.3c.4 0 .7.3.7.7v1.4c0 .4-.3.7-.7.7zM201 235.9h-10.3c-.4 0-.7-.3-.7-.7v-1.4c0-.4.3-.7.7-.7H201c.4 0 .7.3.7.7v1.4c0 .4-.3.7-.7.7z"/><path class="st2" d="M304.6 239.9s1 10.3 4.5 10.3c7.5 0 12.2.2 12.2.2s.5-7.5-6.1-9.6c-5.1-1.7-10.6-.9-10.6-.9z"/><path class="st76" d="M256.5 272.4H131.7l-3.1-11.8h132.2z"/><path class="st1" d="M140.8 274.4h115.6v3.5H140.8zM99.7 277.9H86.1v-1.8c0-1 .8-1.8 1.8-1.8h11.9v3.6zM295.9 274.4h23.6v3.5h-23.6z"/><path class="st2" d="M80.5 231.8h16s.2 11.2-9 12.9c-7.7 1.4-7.2.2-7.2.2l.2-13.1z"/><path class="st26" d="M96.5 230.8h-16c-.6 0-1.2-.5-1.2-1.2v-2.4c0-.6.5-1.2 1.2-1.2h16c.6 0 1.2.5 1.2 1.2v2.4c0 .7-.5 1.2-1.2 1.2z"/><g><path class="st1" d="M143.2 221.5c-.7-.1-4.8-.5-9.9-1.2l-.8 4.5h50.1l-.1-.8c-13.5-.6-27.4-1.4-39.3-2.5zM188 224.3l.1.5h14.5c-4.6-.1-9.5-.3-14.6-.5z"/><path class="st1" d="M108 213.4c-.6-2.3 12-17.3 23.7-17.7h3.6l.1-.3h2.5l-.1.3c9.8-.1 28.9-.2 40.3-.2v-.1h5.5v.1h.5c31.6 0 57 26 57 26 0-.1-1.9 2.1-2.9 3.4h14.7s-2.2-1.4-11.7-10.3c-7.4-6.9-28.7-22.7-54.9-22.7-18.6 0-73.8-.5-74.5-.5-7.7 0-9.4 3.1-8.1 8.1 1.5 5.8-20.2 23-21.2 25.4H130l.9-4.8c-9.9-1.7-22.2-4-22.9-6.7z"/><path class="st1" d="M129.5 227.7h2.5l.5-2.9H130zM137.8 195.3h-2.5l-.1.3h2.5l.1-.3zM130.9 219.9l-.9 4.8h2.5l.8-4.5c-.8 0-1.6-.1-2.4-.3z"/><path class="st1" d="M135.2 195.7l-4.4 24.3c.8.1 1.7.2 2.5.4l4.4-24.7c-.9-.1-1.7 0-2.5 0zM183 227.4h5.5l-.4-2.6h-5.5zM183.6 195.3h-5.5v.1h5.5v-.1zM182.5 224l.1.8h5.5l-.1-.5c-1.8-.1-3.7-.2-5.5-.3z"/><path class="st1" d="M178.1 195.5l4.4 28.6c1.9.1 3.7.2 5.5.2l-4.4-28.8h-5.5z"/></g><path class="st26" d="M313.2 254c-2.3 0-6.6 8.1-6.6 12 0 3.9 4.3 7 6.6 7h1.9c3 0 5.4-2.4 5.4-5.4v-6.9c0-1-.8-6.7-1.7-6.7h-5.6zM79.4 247.6s13.8-2.7 20.3 4.9c6.5 7.6 9.1 20.2 9.1 20.2H90c-5.1 0-10.7.1-10.7-10.4l.1-14.7z"/><path class="st76" d="M320.1 253.4h-13.3c-.6 0-1.2-.5-1.2-1.2 0-.6.5-1.2 1.2-1.2h13.3M235.3 218.6v16.7c3.1 0 5.7-2.6 5.7-5.7v-5.3c0-3.2-2.5-5.7-5.7-5.7z"/><path class="st59" d="M241.4 250.8h-50.3c-1.4 0-2.5-1.1-2.5-2.5v-4.9c0-1.4 1.1-2.5 2.5-2.5h50.3c1.4 0 2.5 1.1 2.5 2.5v4.9c0 1.4-1.1 2.5-2.5 2.5zM175.9 250.8h-33.5c-1.4 0-2.5-1.1-2.5-2.5v-4.9c0-1.4 1.1-2.5 2.5-2.5h33.5c1.4 0 2.5 1.1 2.5 2.5v4.9c-.1 1.4-1.2 2.5-2.5 2.5z"/><path d="M81.5 234.8c2 0 3.7 1.7 3.7 3.7s-1.7 3.7-3.7 3.7" opacity=".45" fill="#054752"/><g><path class="st2" d="M256 272.9c0-11.5 9.3-20.7 20.7-20.7 11.5 0 20.7 9.3 20.7 20.7"/><path class="st1" d="M293.9 273.2c0 3.4-1 6.6-2.8 9.3-3 4.7-8.3 7.8-14.4 7.8-9.5 0-17.1-7.7-17.1-17.1 0-4.2 1.5-8.1 4.1-11.1 3.1-3.7 7.8-6.1 13.1-6.1 9.4.1 17.1 7.7 17.1 17.2z"/><g class="st61"><path class="st62" d="M291.1 282.5c-3 4.7-8.3 7.8-14.4 7.8-9.5 0-17.1-7.7-17.1-17.1 0-4.2 1.5-8.1 4.1-11.1l8.7 6.5 10 7.5 8.7 6.4z"/></g><path class="st2" d="M283.1 273.2c0 3.5-2.8 6.4-6.4 6.4-3.5 0-6.4-2.8-6.4-6.4 0-3.5 2.8-6.4 6.4-6.4 3.6 0 6.4 2.9 6.4 6.4z"/></g><g><path class="st2" d="M99.3 272.9c0-11.5 9.3-20.7 20.7-20.7s20.7 9.3 20.7 20.7"/><path class="st1" d="M137.2 273.2c0 3.4-1 6.6-2.8 9.3-3 4.7-8.3 7.8-14.4 7.8-9.5 0-17.1-7.7-17.1-17.1 0-4.2 1.5-8.1 4.1-11.1 3.1-3.7 7.8-6.1 13.1-6.1 9.4.1 17.1 7.7 17.1 17.2z"/><g class="st61"><path class="st62" d="M134.4 282.5c-3 4.7-8.3 7.8-14.4 7.8-9.5 0-17.1-7.7-17.1-17.1 0-4.2 1.5-8.1 4.1-11.1l8.7 6.5 10 7.5 8.7 6.4z"/></g><path class="st2" d="M126.4 273.2c0 3.5-2.8 6.4-6.4 6.4-3.5 0-6.4-2.8-6.4-6.4 0-3.5 2.8-6.4 6.4-6.4 3.6 0 6.4 2.9 6.4 6.4z"/></g></g><path class="st79" d="M61.1 198.4H111M51.4 209h49.9M692.1 155.5h49.8M692.4 211.5h49.8M707.7 182.9h49.8"/></g><g class="st12"><path class="st304" d="M-373.9 533.3c0-120.1 97.4-217.5 217.5-217.5S61.1 413.2 61.1 533.3"/><path class="st304" d="M56.4 533.3c0-120.1 97.4-217.5 217.5-217.5s217.5 97.4 217.5 217.5M496 533.3c0-120.1 97.4-217.5 217.5-217.5S931 413.2 931 533.3M-578.2 252.5h1934.3M56.4 292.7v-40.3M134.1 292.7v-40.3M211.8 292.7v-40.3M289.5 292.7v-40.3M367.2 292.7v-40.3M444.8 292.7v-40.3M522.5 292.7v-40.3M600.2 292.7v-40.3M677.9 292.7v-40.3M755.5 292.7v-40.3"/><path class="st1" d="M-578.5 278.5h1934.6v35H-578.5z"/><path class="st1" d="M39.3 305.2v206.3l-24.5 17.2V567h92.6v-40.3l-27.8-18.5v-203zM474.2 305.2v206.3l-24.4 17.2V567h92.5v-40.3l-27.7-18.5v-203z"/></g></g></svg>