<svg version="1.1" id="Calque_1" xmlns="http://www.w3.org/2000/svg" xmlns:xlink="http://www.w3.org/1999/xlink" x="0" y="0" viewBox="0 0 2256 892" xml:space="preserve"><style>.st0{fill:none}.st1{fill:#2ed1ff}.st2{fill:#fff}.st3{fill:#054752}.st4{fill:#708b90}.st5,.st6{opacity:.1}.st6{fill:#fff;enable-background:new}.st8{fill:#5f003c}.st9{fill:#9aed66}.st10,.st12{fill:#886141}.st12{opacity:.49;enable-background:new}.st13{fill:#669198}.st15{fill:#063e44}.st18{fill:#51003a}.st19{opacity:.26;fill:#5f003c;enable-background:new}.st20{fill:#facfc4}.st22{opacity:.2;fill:#7d3561;enable-background:new}.st23{fill:#004753}.st24{opacity:.2}.st25{fill:#7d3561}.st26{opacity:.2;enable-background:new}.st28{fill:#c69c6d}.st32{fill:#facca3}.st33{opacity:.47;fill:#95abbd;enable-background:new}.st34{fill:#014753}.st35{opacity:.67;fill:#facca3;enable-background:new}.st36{fill:#f5b240}.st39{fill:#1db9dd}.st40{fill:#cd9f6f}.st41{opacity:.55;enable-background:new}.st41,.st42{fill:#7a5334}.st45{fill:#cb9d6e}.st48{fill:#e9ca91}.st54{opacity:.2;fill:#914260;enable-background:new}.st55{fill:#032327}.st56{fill:#6be0fc}.st58{opacity:.45;fill:#044752;enable-background:new}</style><pattern y="892" width="50" height="50" patternUnits="userSpaceOnUse" id="SVGID_1_" viewBox="0 -50 50 50" overflow="visible"><g><path class="st0" d="M0-50h50V0H0z"/><path class="st0" d="M0 0h50v-50H0V0z"/><path class="st1" d="M0 0h50v-50H0V0z"/><path class="st2" d="M5.7-5.7c0-.7-.6-1.3-1.3-1.3s-1.3.6-1.3 1.3V-4c0 .7.6 1.3 1.3 1.3S5.7-3.3 5.7-4v-1.7zm13.2-6.8c0-.6-.6-1-1.3-1.1-.7 0-1.3.4-1.3 1v1.4c0 .6.6 1 1.3 1.1.7 0 1.3-.4 1.3-1v-1.4zm4.7 10.1c0-.6-.6-1-1.3-1.1-.7 0-1.3.4-1.3 1v1.4c0 .6.6 1 1.3 1.1.7 0 1.3-.4 1.3-1v-1.4zM9.9-11.1c0-.6-.6-1-1.3-1.1-.7 0-1.3.4-1.3 1v1.4c0 .6.6 1 1.3 1.1.7 0 1.3-.4 1.3-1v-1.4zm3.6 5.2c0-.9-.5-1.6-1.3-1.6-.7 0-1.3.7-1.3 1.6v2.2c0 .9.5 1.6 1.2 1.6s1.3-.7 1.3-1.6l.1-2.2zM4-15.2c0-.7-.6-1.3-1.3-1.3s-1.3.6-1.3 1.3v1.7c0 .7.6 1.3 1.3 1.3S4-12.7 4-13.5v-1.7zm15.4-7.7c0-.6-.6-1-1.3-1.1-.7 0-1.3.4-1.3 1v1.4c0 .6.6 1 1.3 1.1.7 0 1.3-.4 1.3-1v-1.4zm6 1.9c0-.6-.6-1-1.3-1.1-.7 0-1.3.4-1.3 1v1.4c0 .6.6 1 1.3 1.1.7 0 1.3-.4 1.3-1V-21zm-15.3-2c0-.6-.6-1-1.3-1.1-.7 0-1.3.4-1.3 1v1.4c0 .6.6 1 1.3 1.1.7 0 1.3-.4 1.3-1V-23zm3.6 4.2c0-.9-.5-1.6-1.3-1.6-.7 0-1.3.7-1.3 1.6v2.2c0 .9.5 1.6 1.2 1.6s1.3-.7 1.3-1.6l.1-2.2zm13 6.8c0-.9-.5-1.6-1.2-1.6s-1.3.7-1.3 1.6v2.2c0 .9.5 1.6 1.3 1.6.7 0 1.3-.7 1.3-1.6l-.1-2.2zM32-5.3c0-.7-.6-1.3-1.3-1.3-.7 0-1.3.6-1.3 1.3v1.7c0 .7.5 1.3 1.3 1.3.7 0 1.3-.6 1.3-1.3v-1.7zM47.1-12c0-.6-.6-1-1.3-1.1-.7 0-1.3.4-1.3 1v1.4c0 .6.6 1 1.3 1.1.7 0 1.3-.4 1.3-1V-12zm1 6.5c0-.6-.6-1-1.3-1.1-.7 0-1.3.4-1.3 1v1.4c0 .6.6 1 1.3 1.1.7 0 1.3-.4 1.3-1v-1.4zm-10-5c0-.6-.6-1-1.3-1.1-.7 0-1.3.4-1.3 1v1.4c0 .6.6 1 1.3 1.1.7 0 1.3-.4 1.3-1v-1.4zm3.6 6.1c0-.9-.5-1.6-1.2-1.6s-1.3.7-1.3 1.6v2.2c0 .9.5 1.6 1.2 1.6s1.3-.7 1.3-1.6v-2.2zm-9.5-14c0-.7-.6-1.3-1.3-1.3-.7 0-1.3.5-1.3 1.3v1.7c0 .7.5 1.3 1.3 1.3.7 0 1.3-.6 1.3-1.3v-1.7zm15.4-4c0-.6-.6-1-1.3-1.1-.7 0-1.3.4-1.3 1v1.4c0 .6.6 1 1.3 1.1.7 0 1.3-.4 1.3-1v-1.4zm-9.3-.1c0-.6-.6-1-1.3-1.1-.7 0-1.3.4-1.3 1v1.4c0 .6.6 1 1.3 1.1.7 0 1.3-.4 1.3-1v-1.4zm3.6 4.2c0-.9-.5-1.6-1.2-1.6s-1.3.7-1.3 1.6v2.2c0 .9.5 1.6 1.2 1.6s1.3-.7 1.3-1.6v-2.2zM4.2-26.5c0-.7-.6-1.3-1.3-1.3s-1.3.6-1.3 1.3v1.7c0 .7.6 1.3 1.3 1.3s1.3-.5 1.3-1.3v-1.7zm9.5-3.1c0-.6-.6-1-1.3-1.1-.7 0-1.3.4-1.3 1v1.4c0 .6.6 1 1.3 1.1.7 0 1.3-.4 1.3-1v-1.4zm10.3.4c0-.6-.6-1-1.3-1.1-.7 0-1.3.4-1.3 1v1.4c0 .6.6 1 1.3 1.1.7 0 1.3-.4 1.3-1v-1.4zm-5.2-5.7c0-.9-.5-1.6-1.3-1.6-.7 0-1.3.7-1.3 1.6v2.2c0 .9.5 1.6 1.2 1.6s1.3-.7 1.3-1.6l.1-2.2zM4.4-38.4c0-.7-.6-1.3-1.3-1.3s-1.3.5-1.3 1.3v1.7c0 .7.6 1.3 1.3 1.3s1.3-.6 1.3-1.3v-1.7zm15.5-6.8c0-.6-.6-1-1.3-1.1-.7 0-1.3.4-1.3 1v1.4c0 .6.6 1 1.3 1.1.7 0 1.3-.4 1.3-1v-1.4zm6.6 8.5c0-.6-.6-1-1.3-1.1-.7 0-1.3.4-1.3 1v1.4c0 .6.6 1 1.3 1.1.7 0 1.3-.4 1.3-1v-1.4zm-13-9.7c0-.6-.6-1-1.3-1.1-.7 0-1.3.4-1.3 1v1.4c0 .6.6 1 1.3 1.1.7 0 1.3-.4 1.3-1v-1.4zm-2.7 7.2c0-.9-.5-1.6-1.3-1.6-.7 0-1.3.7-1.3 1.6v2.2c0 .9.5 1.6 1.2 1.6s1.3-.7 1.3-1.6l.1-2.2zm16.4-7c0-.9-.5-1.6-1.2-1.6s-1.3.7-1.3 1.6v2.2c0 .9.5 1.6 1.3 1.6.7 0 1.3-.7 1.3-1.6l-.1-2.2zm5.2 15.7c0-.7-.6-1.3-1.3-1.3-.7 0-1.3.6-1.3 1.3v1.7c0 .7.5 1.3 1.3 1.3.7 0 1.3-.5 1.3-1.3v-1.7zm16.8-2.7c0-.6-.6-1-1.3-1.1-.7 0-1.3.4-1.3 1v1.4c0 .6.6 1 1.3 1.1.7 0 1.3-.4 1.3-1v-1.4zm-8-8.2c0-.6-.6-1-1.3-1.1-.7 0-1.3.4-1.3 1v1.4c0 .6.6 1 1.3 1.1.7 0 1.3-.4 1.3-1v-1.4zm-2.7 7.6c0-.6-.6-1-1.3-1.1-.7 0-1.3.4-1.3 1v1.4c0 .6.6 1 1.3 1.1.7 0 1.3-.4 1.3-1v-1.4zm3.6 4.2c0-.9-.5-1.6-1.2-1.6s-1.3.7-1.3 1.6v2.2c0 .9.5 1.6 1.2 1.6s1.3-.7 1.3-1.6v-2.2zm-9.4-13.1c0-.7-.6-1.3-1.3-1.3s-1.3.6-1.3 1.3v1.7c0 .7.5 1.3 1.3 1.3.7 0 1.3-.5 1.3-1.3v-1.7zM4.4-46.6c0-.6-.6-1-1.3-1.1-.7 0-1.3.4-1.3 1v1.4c0 .6.6 1 1.3 1.1.7 0 1.3-.4 1.3-1v-1.4zm34.3-1.1c0-.6-.6-1-1.3-1.1-.7 0-1.3.4-1.3 1v1.4c0 .6.6 1 1.3 1.1.7 0 1.3-.4 1.3-1v-1.4zm7.7 5.3c0-.9-.5-1.6-1.2-1.6s-1.3.7-1.3 1.6v2.2c0 .9.5 1.6 1.2 1.6s1.3-.7 1.3-1.6v-2.2z"/></g></pattern><pattern y="892" width="50" height="50" patternUnits="userSpaceOnUse" id="SVGID_4_" viewBox="0 -50 50 50" overflow="visible"><g><path class="st0" d="M0-50h50V0H0z"/><path class="st0" d="M0 0h50v-50H0V0z"/><path class="st3" d="M0 0h50v-6.3H0V0z"/><path class="st2" d="M0-6.3h50v-6.3H0v6.3z"/><path class="st3" d="M0-12.5h50v-6.3H0v6.3z"/><path class="st2" d="M0-18.8h50v-6.3H0v6.3z"/><path class="st3" d="M0-25.1h50v-6.3H0v6.3z"/><path class="st2" d="M0-31.3h50v-6.3H0v6.3z"/><path class="st3" d="M0-37.6h50v-6.3H0v6.3z"/><path class="st2" d="M0-43.7h50V-50H0v6.3z"/></g></pattern><pattern y="892" width="50.9" height="47" patternUnits="userSpaceOnUse" id="SVGID_5_" viewBox="2.9 -54.6 50.9 47" overflow="visible"><g><path class="st0" d="M2.9-54.6h50.9v47H2.9z"/><path class="st0" d="M2.9-7.6h50.9v-47H2.9v47z"/><path class="st4" d="M54.3-40l-3.4.6 1.7 9 3.5-.6-1.8-9zm-2-14.4v3.5h9.1v-3.5h-9.1zM3.5-40l-3.5.6 1.7 9 3.5-.6-1.7-9zM10.3-42.3l3.8 8.4 3.3-1.5-3.8-8.4-3.3 1.5zM1.4-54.4v3.5h9.2v-3.5H1.4zm17.8-1.1L17-52.7l7.1 5.7 2.3-2.8-7.2-5.7zm6-14.2l-3.4 1 2.5 8.8 3.4-.9-2.5-8.9zm-20 1L7.5-66l7-5.9-2.3-2.7-7 5.9z"/><g><path class="st4" d="M25.6-37.2l-3.5.7 1.8 9 3.5-.7-1.8-9zM44.2-24.2l3.8 8.4 3.3-1.5-3.8-8.4-3.3 1.5zM30.3-39.8v3.5l9.2.1v-3.6h-9.2zM34-28.7l-2.3 2.8 7.2 5.7 2.2-2.7-7.1-5.8zm11.2-21.9l-3.4 1 2.5 8.8 3.4-1-2.5-8.8zM34.1-54l2.3 2.7 7-5.9-2.3-2.8-7 6z"/></g><g><path class="st4" d="M19.2-8.5L17-5.7 24.1 0l2.3-2.7-7.2-5.8zm6-14.1l-3.4 1 2.5 8.8 3.4-1-2.5-8.8zm-20 1l2.3 2.7 7-5.9-2.3-2.8-7 6z"/><g><path class="st4" d="M34.1-7l2.3 2.7 7-5.9-2.3-2.7-7 5.9z"/></g></g></g></pattern><pattern y="892" width="50" height="50" patternUnits="userSpaceOnUse" id="SVGID_6_" viewBox="0 -50 50 50" overflow="visible"><g><path class="st0" d="M0-50h50V0H0z"/><path class="st0" d="M0 0h50v-50H0V0z"/><path class="st3" d="M0 0h50v-6.3H0V0z"/><path class="st2" d="M0-6.3h50v-6.3H0v6.3z"/><path class="st3" d="M0-12.5h50v-6.3H0v6.3z"/><path class="st2" d="M0-18.8h50v-6.3H0v6.3z"/><path class="st3" d="M0-25.1h50v-6.3H0v6.3z"/><path class="st2" d="M0-31.3h50v-6.3H0v6.3z"/><path class="st3" d="M0-37.6h50v-6.3H0v6.3z"/><path class="st2" d="M0-43.7h50V-50H0v6.3z"/></g></pattern><pattern y="892" width="50" height="50" patternUnits="userSpaceOnUse" id="SVGID_7_" viewBox="0 -50 50 50" overflow="visible"><g><path class="st0" d="M0-50h50V0H0z"/><path class="st0" d="M0 0h50v-50H0V0z"/><path class="st3" d="M0 0h50v-6.3H0V0z"/><path class="st2" d="M0-6.3h50v-6.3H0v6.3z"/><path class="st3" d="M0-12.5h50v-6.3H0v6.3z"/><path class="st2" d="M0-18.8h50v-6.3H0v6.3z"/><path class="st3" d="M0-25.1h50v-6.3H0v6.3z"/><path class="st2" d="M0-31.3h50v-6.3H0v6.3z"/><path class="st3" d="M0-37.6h50v-6.3H0v6.3z"/><path class="st2" d="M0-43.7h50V-50H0v6.3z"/></g></pattern><pattern y="892" width="50" height="50" patternUnits="userSpaceOnUse" id="SVGID_8_" viewBox="0 -50 50 50" overflow="visible"><g><path class="st0" d="M0-50h50V0H0z"/><path class="st0" d="M0 0h50v-50H0V0z"/><path class="st3" d="M0 0h50v-6.3H0V0z"/><path class="st2" d="M0-6.3h50v-6.3H0v6.3z"/><path class="st3" d="M0-12.5h50v-6.3H0v6.3z"/><path class="st2" d="M0-18.8h50v-6.3H0v6.3z"/><path class="st3" d="M0-25.1h50v-6.3H0v6.3z"/><path class="st2" d="M0-31.3h50v-6.3H0v6.3z"/><path class="st3" d="M0-37.6h50v-6.3H0v6.3z"/><path class="st2" d="M0-43.7h50V-50H0v6.3z"/></g></pattern><g id="Calque_1_1_"><g class="st5"><path class="st2" d="M1181.9 319v292.5h38.7v-40.4h58.5v40.4h38.7V319h-135.9zm48.1 203.5h-25.1v-20.9h25.1v20.9zm0-28.5h-25.1v-21h25.1v21zm0-30.2h-25.1v-20.9h25.1v20.9zm0-30.1h-25.1v-20.9h25.1v20.9zm0-30.2h-25.1v-20.9h25.1v20.9zm0-30.1h-25.1v-20.9h25.1v20.9zm33.1 149.1H1238v-20.9h25.1v20.9zm0-28.5H1238v-21h25.1v21zm0-30.2H1238v-20.9h25.1v20.9zm0-30.1H1238v-20.9h25.1v20.9zm0-30.2H1238v-20.9h25.1v20.9zm0-30.1H1238v-20.9h25.1v20.9zm32.3 120.6h-25.1v-21h25.1v21zm0-30.2h-25.1v-20.9h25.1v20.9zm0-30.1h-25.1v-20.9h25.1v20.9zm0-30.2h-25.1v-20.9h25.1v20.9zm0-30.1h-25.1v-20.9h25.1v20.9z"/><path class="st2" d="M1270.3 352.4h25.1v20.9h-25.1v-20.9zm-32.3 30.2h25.1v20.9H1238v-20.9zm-33.1 30.1h25.1v20.9h-25.1v-20.9zm33.1 0h25.1v20.9H1238v-20.9zm32.3 30.2h25.1v20.9h-25.1v-20.9zm-65.4 30.1h25.1v20.9h-25.1V473z"/></g><path class="st6" d="M2233.4 500v-11.5h-22.6l-99.7-78.1v-19.2c0-1.8-1.5-3.3-3.3-3.3s-3.3 1.5-3.3 3.3v19.2l-81 62.3-79.4-62.3v-19.2c0-1.8-1.5-3.3-3.3-3.3s-3.3 1.5-3.3 3.3v19.2l-71 54.5-69.6-54.6v-19.2c0-1.8-1.5-3.3-3.3-3.3s-3.3 1.5-3.3 3.3v19.2l-71 54.5-69.6-54.6V391c0-1.8-1.5-3.3-3.3-3.3s-3.3 1.5-3.3 3.3v19.2l-101.6 78.1h-33V500h38.8v14.9c-2.5 1.4-4.3 4-4.5 7.1h-3.7v13.3h35.4V522h-3.7c-.2-3.1-1.9-5.7-4.5-7.1V500h128v14.9c-2.5 1.4-4.3 4-4.5 7.1h-3.7v13.3h35.4V522h-3.7c-.2-3.1-1.9-5.7-4.5-7.1V500h128v14.9c-2.5 1.4-4.3 4-4.5 7.1h-3.7v13.3h35.4V522h-3.7c-.2-3.1-1.9-5.7-4.5-7.1V500h154.4v14.9c-2.5 1.4-4.3 4-4.5 7.1h-3.7v13.3h35.4V522h-3.7c-.2-3.1-1.9-5.7-4.5-7.1V500h154.4v14.9c-2.5 1.4-4.3 4-4.5 7.1h-3.7v13.3h35.4V522h-3.7c-.2-3.1-1.9-5.7-4.5-7.1V500h26.3zm-48.1-11.5l-74.2-58.1v-7.5l83.8 65.6h-9.6zm-80.7-58.2l-68.1 52.4-4.8-3.8 73-56.1-.1 7.5zm-69.5 53.4l-5.3 4.1-4.8-3.8 5.3-4.1 4.8 3.8zm-16 4.8l4.4-3.4 4.3 3.4h-8.7zm4.5-5.5l-5.3-4.2 5.3-4.1 5.3 4.2-5.3 4.1zm-1.4 1l-4.8 3.7-5.3-4.2 4.8-3.7 5.3 4.2zm-11.5-1.5l-66.6-52.2v-7.5l71.4 56-4.8 3.7zm-73.1-52.2l-58.1 44.7-4.8-3.8 62.9-48.4v7.5zm-59.5 45.7l-5.3 4.1-4.8-3.8 5.3-4.1 4.8 3.8zm-26 12.5l8.3-6.4 4.8 3.8-3.4 2.6h-9.7zm9.7-7.4l4.8-3.7 4.8 3.8-4.8 3.7-4.8-3.8zm4.8-5.8l-5.3-4.2 5.3-4.1 5.3 4.2-5.3 4.1zm-1.3 1l-4.8 3.7-5.3-4.2 4.8-3.7 5.3 4.2zm-11.6-1.5l-56.7-44.5v-7.5l61.6 48.3-4.9 3.7zm-63.3-44.5l-58.1 44.7-4.8-3.8 62.9-48.4v7.5zM1731 476l-5.3 4.1-4.8-3.8 5.3-4.1 4.8 3.8zm-26 12.5l8.3-6.4 4.8 3.8-3.4 2.6h-9.7zm9.6-7.4l4.8-3.7 4.8 3.8-4.8 3.7-4.8-3.8zm4.9-5.8l-5.3-4.2 5.3-4.1 5.3 4.2-5.3 4.1zm-1.4 1l-4.8 3.7-5.3-4.2 4.8-3.7 5.3 4.2zm-11.5-1.5l-56.7-44.5v-7.5l61.6 48.3-4.9 3.7zm-63.3-44.5l-75.7 58.2h-9.8l85.4-65.7.1 7.5zm0 2.1v56.1h-73l73-56.1zm6.6 0l55.4 43.4-16.5 12.6h-38.9v-56zm56.7 44.5l5.3 4.2-9.6 7.4h-10.8l15.1-11.6zm12.8 10.1l2 1.5h-3.9l1.9-1.5zm1.4-1.1l4.8-3.7 8 6.3h-9.6l-3.2-2.6zm6.2-4.7l5.3-4.1 14.6 11.4h-10.6l-9.3-7.3zm6.7-5.2l56.8-43.6v56.1h-40.9l-15.9-12.5zm63.3-43.6l55.4 43.4-16.5 12.6H1797v-56zm56.7 44.5l5.3 4.2-9.6 7.4h-10.8l15.1-11.6zm12.9 10.1l1.9 1.5h-3.9l2-1.5zm1.3-1.1l4.8-3.7 8 6.3h-9.6l-3.2-2.6zm6.2-4.7l5.3-4.1 14.6 11.4h-10.6l-9.3-7.3zm6.7-5.2l56.8-43.6v56.1h-40.9l-15.9-12.5zm63.4-43.6l65.2 51.1-6.4 4.9h-58.8v-56zm66.5 52.2l5 3.9h-10l5-3.9zm25.7.2l4.7 3.7h-9.6l4.9-3.7zm1.4-1.1l66.8-51.4v56.1h-60.7l-6.1-4.7zm73.4-51.3l71.5 56h-71.5v-56zm97 56.1h-10.6l-86.4-67.7v-8.3l97 76zm-103.6-76.1v8.3l-74.3 57.1-5.3-4.2 79.6-61.2zm-82.3 61.2l-5.3 4.1-72.7-57v-8.3l78 61.2zm-84.7-61.2v8.3l-64.3 49.4-5.3-4.2 69.6-53.5zm-72.3 53.5l-5.3 4.1-62.9-49.3v-8.3l68.2 53.5zm-74.9-53.5v8.3l-64.3 49.4-5.3-4.2 69.6-53.5zm-72.3 53.5l-5.3 4.1-62.9-49.3v-8.3l68.2 53.5zm-74.8-53.5v8.3l-88.1 67.8h-10.8l98.9-76.1z"/><g class="st5"><path class="st2" d="M974.8 139.4v473.2h36.7v-40.3h55.4v40.3h36.7V139.4H974.8zm34.1 383.7h-21.4v-17.8h21.4v17.8zm0-25.8h-21.4v-17.8h21.4v17.8zm0-25.7h-21.4v-17.8h21.4v17.8zm0-25.7h-21.4v-17.8h21.4v17.8zm0-25.7h-21.4v-17.8h21.4v17.8zm0-25.7h-21.4v-17.8h21.4v17.8zm0-25.8h-21.4v-17.8h21.4v17.8zm0-25.7h-21.4v-17.8h21.4V343zm0-25.7h-21.4v-17.8h21.4v17.8zm0-25.7h-21.4v-17.8h21.4v17.8zm0-25.7h-21.4V248h21.4v17.9zm0-25.7h-21.4v-17.8h21.4v17.8zm0-25.8h-21.4v-17.8h21.4v17.8zm27.8 308.7h-21.4v-17.8h21.4v17.8zm0-25.8h-21.4v-17.8h21.4v17.8zm0-25.7h-21.4v-17.8h21.4v17.8zm0-25.7h-21.4v-17.8h21.4v17.8zm0-25.7h-21.4v-17.8h21.4v17.8zm0-25.7h-21.4v-17.8h21.4v17.8zm0-25.8h-21.4v-17.8h21.4v17.8zm0-25.7h-21.4v-17.8h21.4V343zm0-25.7h-21.4v-17.8h21.4v17.8zm0-25.7h-21.4v-17.8h21.4v17.8zm0-25.7h-21.4V248h21.4v17.9zm0-25.7h-21.4v-17.8h21.4v17.8zm0-25.8h-21.4v-17.8h21.4v17.8zm28.2 308.7h-21.4v-17.8h21.4v17.8zm0-25.8h-21.4v-17.8h21.4v17.8zm0-25.7h-21.4v-17.8h21.4v17.8zm0-25.7h-21.4v-17.8h21.4v17.8zm0-25.7h-21.4v-17.8h21.4v17.8zm0-25.7h-21.4v-17.8h21.4v17.8zm0-25.8h-21.4v-17.8h21.4v17.8zm0-25.7h-21.4v-17.8h21.4V343zm0-25.7h-21.4v-17.8h21.4v17.8zm0-25.7h-21.4v-17.8h21.4v17.8zm0-25.7h-21.4V248h21.4v17.9zm0-25.7h-21.4v-17.8h21.4v17.8zm0-25.8h-21.4v-17.8h21.4v17.8zm27.5 308.7H1071v-17.8h21.4v17.8zm0-25.8H1071v-17.8h21.4v17.8zm0-25.7H1071v-17.8h21.4v17.8zm0-25.7H1071v-17.8h21.4v17.8zm0-25.7H1071v-17.8h21.4v17.8zm0-25.7H1071v-17.8h21.4v17.8zm0-25.8H1071v-17.8h21.4v17.8zm0-25.7H1071v-17.8h21.4V343zm0-25.7H1071v-17.8h21.4v17.8zm0-25.7H1071v-17.8h21.4v17.8zm0-25.7H1071V248h21.4v17.9zm0-25.7H1071v-17.8h21.4v17.8zm0-25.8H1071v-17.8h21.4v17.8z"/><path class="st2" d="M987.4 196.6h21.4v17.8h-21.4v-17.8zm27.9 25.7h21.4v17.8h-21.4v-17.8zm28.2 0h21.4v17.8h-21.4v-17.8zM987.4 248h21.4v17.8h-21.4V248zm56.1 25.8h21.4v17.8h-21.4v-17.8zm0 25.7h21.4v17.8h-21.4v-17.8zm-56.1 25.7h21.4V343h-21.4v-17.8zm27.9 25.7h21.4v17.8h-21.4v-17.8zm55.7 25.7h21.4v17.8H1071v-17.8zm-83.6 25.7h21.4v17.8h-21.4v-17.8zm83.6 0h21.4v17.8H1071v-17.8zm-83.6 25.8h21.4v17.8h-21.4v-17.8zm27.9 0h21.4v17.8h-21.4v-17.8zm0 25.7h21.4v17.8h-21.4v-17.8zm28.2 25.7h21.4v17.8h-21.4v-17.8zm-56.1 25.7h21.4V523h-21.4v-17.8zm-18 40.9h139.8v8.3H969.4v-8.3zm0-378h139.8v8.3H969.4v-8.3z"/><path class="st2" d="M969.4 168.1h139.8v8.3H969.4v-8.3zm139.8-23.3H969.4v-8.3l12.7-18.5h109.7l17.4 18.5v8.3z"/><g><path class="st2" d="M1144.3 330.4v63.5h-9.6V322l-26.2-22.9v313.5h13.3v-40.3h22.7v40.3h14.3V343l-14.5-12.6zm-16.1 63h-8v-43.9h8v43.9zm15.6 130.7h-8v-43.9h8v43.9zm0-50.9h-8v-43.9h8v43.9z"/></g></g><g class="st5"><path class="st2" d="M1183 293.7h134.1v13.9H1183v-13.9zm32.2-10.5h69.6v7.4h-69.6v-7.4z"/><path class="st2" d="M1235.6 263.4h28.9v20.9h-28.9v-20.9z"/></g><g class="st5"><path class="st2" d="M1424.3 199.1v412.5h55.6V155.9l-55.6 43.2zm42.8 320.4h-16.4v-20h16.4v20zm0-34.8h-16.4v-20h16.4v20zm0-34.8h-16.4v-20h16.4v20zm0-34.7h-16.4v-20h16.4v20zm0-34.8h-16.4v-20h16.4v20zm0-34.8h-16.4v-20h16.4v20zm0-34.8h-16.4v-20h16.4v20zm0-34.7h-16.4v-20h16.4v20zm0-34.8h-16.4v-20h16.4v20z"/><path class="st2" d="M1375.9 96.6V611l61.2.6V95.4l-61.2 1.2zm28.6 422.9H1388v-20h16.4l.1 20zm0-34.8H1388v-20h16.4l.1 20zm0-34.8H1388v-20h16.4l.1 20zm0-34.7H1388v-20h16.4l.1 20zm0-34.8H1388v-20h16.4l.1 20zm0-34.8H1388v-20h16.4l.1 20zm0-34.8H1388v-20h16.4l.1 20zm0-34.7H1388v-20h16.4l.1 20zm0-34.8H1388v-20h16.4l.1 20zm0-34.8H1388v-20h16.4l.1 20zm0-34.8H1388v-20h16.4l.1 20zm0-34.8H1388v-20h16.4l.1 20zm70 82.6h32.9v392.1h-32.9V219.5z"/><path class="st2" d="M1436.6 134.9l-23.9 32.4v444.3h23.9V134.9zm-107.9 212.3h32.9v264.4h-32.9V347.2z"/><path class="st2" d="M1423.4 149.3h3.3v462.3h-3.3V149.3z"/></g><g class="st5"><path class="st2" d="M148 319v292.5h38.7v-40.4h58.5v40.4H284V319H148zm48.1 203.5H171v-20.9h25.1v20.9zm0-28.5H171v-21h25.1v21zm0-30.2H171v-20.9h25.1v20.9zm0-30.1H171v-20.9h25.1v20.9zm0-30.2H171v-20.9h25.1v20.9zm0-30.1H171v-20.9h25.1v20.9zm33.1 149.1h-25.1v-20.9h25.1v20.9zm0-28.5h-25.1v-21h25.1v21zm0-30.2h-25.1v-20.9h25.1v20.9zm0-30.1h-25.1v-20.9h25.1v20.9zm0-30.2h-25.1v-20.9h25.1v20.9zm0-30.1h-25.1v-20.9h25.1v20.9zM261.5 494h-25.1v-21h25.1v21zm0-30.2h-25.1v-20.9h25.1v20.9zm0-30.1h-25.1v-20.9h25.1v20.9zm0-30.2h-25.1v-20.9h25.1v20.9zm0-30.1h-25.1v-20.9h25.1v20.9z"/><path class="st2" d="M236.4 352.4h25.1v20.9h-25.1v-20.9zm-32.3 30.2h25.1v20.9h-25.1v-20.9zM171 412.7h25.1v20.9H171v-20.9zm33.1 0h25.1v20.9h-25.1v-20.9zm32.3 30.2h25.1v20.9h-25.1v-20.9zM171 473h25.1v20.9H171V473z"/></g><g class="st5"><path class="st2" d="M149.1 293.7h134.1v13.9H149.1v-13.9zm32.3-10.5H251v7.4h-69.6v-7.4z"/><path class="st2" d="M201.7 263.4h28.9v20.9h-28.9v-20.9z"/></g><g class="st5"><path class="st2" d="M390.4 199.1v412.5H446V155.9l-55.6 43.2zm42.9 320.4h-16.4v-20h16.4v20zm0-34.8h-16.4v-20h16.4v20zm0-34.8h-16.4v-20h16.4v20zm0-34.7h-16.4v-20h16.4v20zm0-34.8h-16.4v-20h16.4v20zm0-34.8h-16.4v-20h16.4v20zm0-34.8h-16.4v-20h16.4v20zm0-34.7h-16.4v-20h16.4v20zm0-34.8h-16.4v-20h16.4v20z"/><path class="st2" d="M342 96.6V611l61.2.6V95.4L342 96.6zm28.6 422.9h-16.4v-20h16.4v20zm0-34.8h-16.4v-20h16.4v20zm0-34.8h-16.4v-20h16.4v20zm0-34.7h-16.4v-20h16.4v20zm0-34.8h-16.4v-20h16.4v20zm0-34.8h-16.4v-20h16.4v20zm0-34.8h-16.4v-20h16.4v20zm0-34.7h-16.4v-20h16.4v20zm0-34.8h-16.4v-20h16.4v20zm0-34.8h-16.4v-20h16.4v20zm0-34.8h-16.4v-20h16.4v20zm0-34.8h-16.4v-20h16.4v20zm70 82.6h32.9v392.1h-32.9V219.5z"/><path class="st2" d="M402.7 134.9l-23.9 32.4v444.3h23.9V134.9zM294.9 347.2h32.9v264.4h-32.9V347.2z"/><path class="st2" d="M389.6 149.3h3.3v462.3h-3.3V149.3z"/></g><g class="st5"><path class="st2" d="M961 318.3H813.3v-8.8H961v8.8z"/><path class="st2" d="M961 318.3H813.3v-8.8H961v8.8zM954.2 305.9H820.1V292h134.1v13.9zM921.9 288.9h-69.6v-7.4h69.6v7.4z"/><path class="st2" d="M901.6 282.7h-28.9v-20.9h28.9v20.9z"/></g><g class="st5"><path class="st2" d="M819.4 319v292.5h38.7v-40.4h58.5v40.4h38.7V319H819.4zm47.5 175h-25.1v-21h25.1v21zm0-30.2h-25.1v-20.9h25.1v20.9zm0-30.1h-25.1v-20.9h25.1v20.9zm0-30.2h-25.1v-20.9h25.1v20.9zm0-30.1h-25.1v-20.9h25.1v20.9zm32.3 149.1h-25.1v-20.9h25.1v20.9zm0-28.5h-25.1v-21h25.1v21zm0-30.2h-25.1v-20.9h25.1v20.9zm0-30.1h-25.1v-20.9h25.1v20.9zm0-30.2h-25.1v-20.9h25.1v20.9zm0-30.1h-25.1v-20.9h25.1v20.9zm33.1 149.1h-25.1v-20.9h25.1v20.9zm0-28.5h-25.1v-21h25.1v21zm0-30.2h-25.1v-20.9h25.1v20.9zm0-30.1h-25.1v-20.9h25.1v20.9zm0-30.2h-25.1v-20.9h25.1v20.9zm0-30.1h-25.1v-20.9h25.1v20.9z"/><path class="st2" d="M841.8 352.4h25.1v20.9h-25.1v-20.9zm32.3 30.2h25.1v20.9h-25.1v-20.9zm33.1 30.1h25.1v20.9h-25.1v-20.9zm-33.1 0h25.1v20.9h-25.1v-20.9zm-32.3 30.2h25.1v20.9h-25.1v-20.9zm65.4 30.1h25.1v20.9h-25.1V473z"/></g><g class="st5"><path class="st2" d="M731.9 339.4l55.6-47.4v319.6h-55.6V339.4z"/><path class="st2" d="M700.2 95.4v516.3l61.2-.6V96.6l-61.2-1.2zm49 424.1h-16.4v-20h16.4v20zm0-34.8h-16.4v-20h16.4v20zm0-34.8h-16.4v-20h16.4v20zm0-34.7h-16.4v-20h16.4v20zm0-34.8h-16.4v-20h16.4v20zm0-34.8h-16.4v-20h16.4v20zm0-34.8h-16.4v-20h16.4v20zm0-34.7h-16.4v-20h16.4v20zm0-34.8h-16.4v-20h16.4v20zm0-34.8h-16.4v-20h16.4v20zm0-34.8h-16.4v-20h16.4v20zm0-34.8h-16.4v-20h16.4v20z"/><path class="st2" d="M657.4 155.9v455.7H713V199.1l-55.6-43.2zm29.1 363.6h-16.4v-20h16.4v20zm0-34.8h-16.4v-20h16.4v20zm0-34.8h-16.4v-20h16.4v20zm0-34.7h-16.4v-20h16.4v20zm0-34.8h-16.4v-20h16.4v20zm0-34.8h-16.4v-20h16.4v20zm0-34.8h-16.4v-20h16.4v20zm0-34.7h-16.4v-20h16.4v20zm0-34.8h-16.4v-20h16.4v20z"/><path class="st2" d="M662.7 611.6h-32.9V219.5h32.9v392.1zM808.5 611.6h-32.9V347.2h32.9v264.4z"/></g><g class="st5"><path class="st2" d="M491.9 563.2h130.5v50.3H491.9v-50.3zm0-19.5h130.5v16.5H491.9v-16.5zm0-19.5h130.5v16.5H491.9v-16.5zm0-19.5h130.5v16.5H491.9v-16.5zm0-19.5h130.5v16.5H491.9v-16.5zm0-19.5h130.5v16.5H491.9v-16.5zm0-19.5h130.5v16.5H491.9v-16.5zm0-19.5h130.5v16.5H491.9v-16.5zm0-19.5h130.5v16.5H491.9v-16.5zm0-19.5h130.5v16.5H491.9v-16.5zm0-19.5h130.5v16.5H491.9v-16.5zm0-19.4h130.5v16.5H491.9v-16.5zm0-45.5h130.5v42.5H491.9v-42.5z"/><path class="st2" d="M511.6 285h34.9v33.1h-34.9V285zm48.8 0h18.5v33.1h-18.5V285z"/></g><path class="st2" d="M421.8 536.7h10.4v18.5h-10.4v-18.5z"/><path class="st2" d="M424.5 532.2h4.9v5.4h-4.9v-5.4zm14.7-6.4h5.6v6.9h-5.6v-6.9z"/><g class="st5"><path class="st2" d="M1934.6 191.5c0-7-5.7-12.7-12.7-12.7h-.2v-.5c0-8.6-7-15.6-15.6-15.6-.9 0-1.8.1-2.7.2-.1-15.6-12.7-28.3-28.4-28.3s-28.4 12.7-28.4 28.4v.5a21.76 21.76 0 00-10.8 18.9c0 12.1 9.8 21.9 21.9 21.9h66.8l-.1-.3c5.8-1.2 10.2-6.3 10.2-12.5z"/></g><g class="st5"><path class="st2" d="M1841.3 235.9c0-7.6-6.2-13.8-13.8-13.8h-.2v-.6c0-9.3-7.6-16.9-16.9-16.9-1 0-2 .1-2.9.3a30.75 30.75 0 00-30.7-30.6c-17 0-30.7 13.7-30.7 30.7v.6c-5.9 3.5-10.1 9.4-11.3 16.4-3.2-5.7-9.3-9.6-16.3-9.6-7.1 0-13.2 3.9-16.4 9.7h-.5c-7.6 0-13.8 6.2-13.8 13.8 0 7.1 5.3 12.9 12.2 13.7l-.1.1h130.6l-.1-.3c6.2-1.4 10.9-6.9 10.9-13.5z"/></g><g class="st5"><path class="st2" d="M259.4 203c0-7.6-6.2-13.8-13.8-13.8h-.2v-.6c0-9.3-7.6-16.9-16.9-16.9-1 0-2 .1-2.9.3a30.75 30.75 0 00-30.7-30.6c-17 0-30.7 13.7-30.7 30.7v.6c-5.9 3.5-10.1 9.4-11.3 16.4-3.2-5.7-9.3-9.6-16.3-9.6-7.1 0-13.2 3.9-16.4 9.7h-.5c-7.6 0-13.8 6.2-13.8 13.8 0 7.1 5.3 12.9 12.2 13.7l-.1.1h130.6l-.1-.3c6.2-1.3 10.9-6.9 10.9-13.5z"/></g><path class="st6" d="M2124.3 279l-2 2 2.6-.3s2.9 1.8 7.8 1.8 9.9-2.4 9.9-2.4l3.7 1.5 1.9-1.9-1.8-1.8h-7.5l1.8-3.8c.5-1.1 1.3-2.1 2.2-2.9l9.8-8.6-13.1 6c-1.2.5-2.2 1.3-3 2.3l-3.3 4.2c-1.9-1.6-4.1-3-6-4.2-.7-.4-1.3-.9-1.8-1.4l-3.2-3.2.9 3.6c.2.9.7 1.8 1.2 2.5l4.4 5.5h-1.8c-1.1 0-2 .4-2.7 1.1z"/><g><path d="M55.7 414.3v344.3" fill="none" stroke="#fff" stroke-width="5" stroke-linecap="round" stroke-miterlimit="10"/><path class="st1" d="M32.1 428.6c0-42.2 34.6-76.8 76.8-76.8l355.2-.8c42.2 0 76.8 34.6 76.8 76.8H32.1v.8z"/><path class="st2" d="M561.3 767.3H23.7c-3.3 0-6-2.7-6-6v-7.7c0-3.3 2.7-6 6-6h537.6c3.3 0 6 2.7 6 6v7.7c0 3.3-2.7 6-6 6z"/><path class="st8" d="M309.7 405h59.1v37.1h-59.1V405z"/><path class="st3" d="M373.8 405h59.1v37.1h-59.1V405z"/><path class="st9" d="M438 405h59.1v37.1H438V405z"/><path class="st2" d="M547.6 670.3a2 2 0 01-2-2v-20.4l-18.5-4.6H122.5l-16.7 3v21.4c0 1.1-.9 2-2 2s-2-.9-2-2V643l20.6-3.7h405.3l22 5.5v23.5c-.1 1.1-.9 2-2.1 2z"/><path class="st2" d="M142.6 746.2a2 2 0 01-2-2v-72.6c0-1.1.9-2 2-2s2 .9 2 2v72.6a2 2 0 01-2 2z"/><path class="st1" d="M189.9 673.6c0-7.3-6-13.3-13.3-13.3h-64.1c-7.3 0-13.3 6-13.3 13.3h90.7z"/><path class="st1" d="M167 666.6h-45.4c-3.3 0-6-2.7-6-6v-36.9c0-3.3 2.7-6 6-6H167c3.3 0 6 2.7 6 6v36.9c0 3.3-2.7 6-6 6z"/><path class="st2" d="M122.4 747.6c0-4.6 3.8-8.4 8.4-8.4h23.6c4.6 0 8.4 3.8 8.4 8.4"/><path class="st1" d="M281 673.6c0-7.3-6-13.3-13.3-13.3h-64.1c-7.3 0-13.3 6-13.3 13.3H281z"/><path class="st1" d="M258.1 666.6h-45.4c-3.3 0-6-2.7-6-6v-36.9c0-3.3 2.7-6 6-6h45.4c3.3 0 6 2.7 6 6v36.9c0 3.3-2.7 6-6 6z"/><g><path class="st1" d="M372.1 673.6c0-7.3-6-13.3-13.3-13.3h-64.1c-7.3 0-13.3 6-13.3 13.3h90.7z"/><path class="st1" d="M349.3 666.6h-45.4c-3.3 0-6-2.7-6-6v-36.9c0-3.3 2.7-6 6-6h45.4c3.3 0 6 2.7 6 6v36.9c0 3.3-2.7 6-6 6z"/></g><g><path class="st1" d="M463.3 673.6c0-7.3-6-13.3-13.3-13.3h-64.1c-7.3 0-13.3 6-13.3 13.3h90.7z"/><path class="st1" d="M440.4 666.6H395c-3.3 0-6-2.7-6-6v-36.9c0-3.3 2.7-6 6-6h45.4c3.3 0 6 2.7 6 6v36.9c0 3.3-2.7 6-6 6z"/></g><g><path class="st2" d="M507.1 746.2a2 2 0 01-2-2v-72.6c0-1.1.9-2 2-2s2 .9 2 2v72.6a2 2 0 01-2 2z"/><path class="st1" d="M554.4 673.6c0-7.3-6-13.3-13.3-13.3H477c-7.3 0-13.3 6-13.3 13.3h90.7z"/><path class="st1" d="M531.5 666.6h-45.4c-3.3 0-6-2.7-6-6v-36.9c0-3.3 2.7-6 6-6h45.4c3.3 0 6 2.7 6 6v36.9c0 3.3-2.7 6-6 6z"/><path class="st2" d="M486.9 747.6c0-4.6 3.8-8.4 8.4-8.4H519c4.6 0 8.4 3.8 8.4 8.4"/></g><path class="st2" d="M100 676.5c-1.1 0-2-.9-2-2s.9-2 2-2l454.4-.7c1.1 0 2 .9 2 2s-.9 2-2 2l-454.4.7z"/><g><path d="M420.4 553c0 .9-.1 1.8.2 2.6.3.8.8 1.4 1.3 2.1 2.1 2.6 4.7 4.9 7.9 5.9 3.2.9 7.1.1 9-2.7 1.5-2.2 1.4-5.1.5-7.6s-2.5-4.6-4.2-6.7c-.8-1.1-1.7-2.1-2.6-3.1-.8-.8-1.7-1.5-2.5-2.2-3-2.4-6.8-7.3-8.8-2.4-1.5 3.7-.6 10.2-.8 14.1zm-37.7 8.2c3.6 1.3 7.5.4 11.2-.8 3.9-1.3 7.8-2.8 11.5-4.6 1.4-.7 2.9-1.4 3.9-2.7 1.2-1.4 1.7-3.3 2.1-5.2.6-2.4 1.1-5.1-.1-7.4-1-1.9-3-3-5.1-3.3-7.1-1.1-15.7 4.2-21.2 8.4-2.3 1.7-6 4.3-7 7.1-1.2 3.5 1.4 7.3 4.7 8.5z"/><path d="M425.3 526.9c-1.9.2-3.9.9-5.2 2.4-2.1 2.4-1.6 6.2-.1 9s4.1 4.9 6.2 7.3c1.6 1.8 3 3.7 4.7 5.4s3.8 3 6.2 3.2c4.2.4 8.2-3.3 8.8-7.5.6-4.2-1.7-8.5-5.1-11-1.3-.9-2.7-1.7-3.8-2.8-3.9-4.1-5.4-6.5-11.7-6z"/><path class="st10" d="M420.8 534.5l-11.7.9-6.2 27.9 19.2 4.6-1.3-33.4z"/><path class="st10" d="M437.8 554.7c-9.8-4.7-18.9-6.3-18.9-6.3l-12.8-.1s-9.8 3.6-16.5 6.4c-.4.2-3.4 19.1-3.4 19.1l53.8-2.2c0-.1-2.1-16.8-2.2-16.9z"/><path class="st10" d="M442 557.2s3.4-.2 9.2 4.8c6.1 5.2 20.7 33.1 22.4 37.5 3.5 9.5-5.8 11.2-10.5 5.4-2.9-3.6-18.1-21-21.5-26.7-4.6-7.7-10-17.9.4-21zm-42.2 3.4s0 10.6-3.6 15.4c-4.2 5.8-21.3 37-24 38.9-8 5.6-9.4-6.2-8-10.3 1.9-5.4 6.7-26.5 12.9-35.3 5.1-7 12.4-21.3 22.7-8.7z"/><path d="M412.5 630.9c11.3-19.6 47.9 19 49.9 37-51 4.5-65 3.4-71.7-.6-6.7-3.9 4.5-6.1 21.8-36.4z" fill="#008cb2"/><path d="M379.8 532.3c-2 .7-4.2 1.5-5.3 3.3-.8 1.2-.9 2.8-1 4.3s-.1 3.1.6 4.4c1 1.9 3.4 2.8 5.6 2.9 5.9.3 10.9-3.8 16.4-5.9 2.4-.9 5-1.5 7.2-2.8s4.2-3.5 4.2-6.1c0-13.6-22.4-1.9-27.7-.1z"/><path class="st12" d="M408.2 539.5c.4.1 0 8.2 13.1 9.8l-.5-13.5-12.6 3.7z"/><path class="st10" d="M418.5 541.5h-9.2c-4.1 0-7.4-3.3-7.4-7.4v-15c0-3.8 3.1-6.9 6.9-6.9h9.8c3.8 0 6.9 3.1 6.9 6.9v15.5c-.1 3.8-3.2 6.9-7 6.9zm-12.7-17.8c.7-1 4.4-1.4 5.4 0m5.5.3c1.4-1.4 4.8-1.3 5.6 0"/><circle cx="408.9" cy="527" r=".9"/><circle cx="419.5" cy="527" r=".9"/><path class="st10" d="M401.8 530.5h-1.4c-.6 0-1.1-.5-1.1-1.1v-3.9c0-.6.5-1.1 1.1-1.1h1.4c.6 0 1.1.5 1.1 1.1v3.9c0 .7-.5 1.1-1.1 1.1zm24.5 0h-1.4c-.6 0-1.1-.5-1.1-1.1v-3.9c0-.6.5-1.1 1.1-1.1h1.4c.6 0 1.1.5 1.1 1.1v3.9c0 .7-.5 1.1-1.1 1.1z"/><path d="M415 518a9.65 9.65 0 01-8.7 1.3c-1.2 5.9-5.6 10.7-10.8 13.7-1.5.8-3.1 1.6-4.8 1.6-1.5 0-2.9-.4-4.2-1-3.3-1.3-6.7-3.4-7.9-6.7-.9-2.3-.6-5 .8-7 1.3-2 3.7-3.4 6.1-3.5 2.1-.1 4.2.7 6.4.4 2.2-.2 4.1-1.5 5.8-3 2.4-2.2 4.4-4.8 6.9-7 2.5-2.1 5.6-3.8 8.9-3.3 7.3.9 6.4 10.9 1.5 14.5z"/><path d="M414.6 518.6c2.5 1.8 5.8 2.3 8.7 1.3 1.2 5.9 5.6 10.7 10.8 13.7 1.5.8 3.1 1.6 4.8 1.6 1.5 0 2.9-.4 4.2-1 3.3-1.3 6.7-3.4 7.9-6.7.9-2.3.6-5-.8-7-1.3-2-3.7-3.4-6.1-3.5-2.1-.1-4.2.7-6.4.4-2.2-.2-4.1-1.5-5.8-3-2.4-2.2-4.4-4.8-6.9-7-2.5-2.1-5.6-3.8-8.9-3.3-7.2.9-6.3 10.9-1.5 14.5z"/><path class="st2" d="M410.6 533.6h7.5s-.1 2.3-3.6 2.1c-3.4-.1-3.9-2.1-3.9-2.1z"/><path class="st12" d="M413.1 529.8l2-.4-.1-4.6s3.7 3.9 2.2 5.7c-1.4 1.7-4.1-.7-4.1-.7z"/><g><path class="st10" d="M428.7 733.7s-3.4 14.3-5 17.4c-1.6 3-2.1 5.2-5.5 2.8s-3.1-7.9-3.1-7.9l6.2-14.9 7.4 2.6z"/><path class="st13" d="M424.4 749.6s-2 10.7-6.6 8.8c-5.4-2.2-5.3-4-4.7-7.1.7-3.1 2.3-5.6 2.3-5.6s-.6 2.7 1.1 3.6c3 1.5 5.6 3.1 6.3 2.6.7-.6 1.6-2.3 1.6-2.3z"/><path class="st10" d="M451.3 692.5c5.1-11.3 8.6-27.7 8.6-27.7l-10.5-10.7s-7.6-.1-18.5 31c-5.1 14.6-8.8 39.3-10 46.4l7.6 3.3a352.6 352.6 0 0022.8-42.3z"/><path class="st10" d="M459.3 666.1c-2.3 3.5-7 4.2-10.6 1.6-3.6-2.6-4.7-7.6-2.4-11.1 2.3-3.5 7-4.2 10.6-1.6 3.6 2.6 4.7 7.6 2.4 11.1z"/></g><g><path class="st10" d="M411.9 731.5s1.3 14.7.8 18c-.5 3.4-.3 5.6-4.3 4.4-3.9-1.2-5.4-6.5-5.4-6.5l1.1-16.1 7.8.2z"/><path class="st13" d="M412.9 748s1.5 10.8-3.5 10.5c-5.8-.3-6.3-2.1-6.7-5.3-.4-3.1.4-6.1.4-6.1s.3 2.8 2.2 3.1c3.3.5 6.3 1.2 6.8.5.4-.8.8-2.7.8-2.7z"/><path class="st10" d="M422.2 685c1.2-12.3-.7-29-.7-29l-13.4-6.8s-7.2 2.3-7.7 35.2c-.2 15.5 2.2 40.4 3.3 47.5l8.3.7c3.2-12.3 8.7-32.4 10.2-47.6z"/><path class="st10" d="M421.4 657.5c-1 4-5.3 6.2-9.5 4.9-4.2-1.4-6.9-5.7-5.8-9.8 1-4 5.3-6.2 9.5-4.9s6.8 5.7 5.8 9.8z"/></g><pattern id="SVGID_2_" xlink:href="#SVGID_1_" patternTransform="matrix(-.4232 -.1208 .08644 -.4058 -19730.65 -6721.7)"/><path d="M451.2 641c-11.7-10.6-12.9-21.9-12.9-21.9l-47.6-2.8s-7.8 7.3-10.1 35.3c-1 12.4 1.7 17.4 1.7 17.4s.8.6 5.6.6c14.2 0 8.4-10.6 35.9-3.4 15.7 4.2 28.7-10.8 38.7 2.8-.1 0 .4-17.4-11.3-28z" fill="url(#SVGID_2_)"/><g><path class="st15" d="M455.1 565.9c-2.4-3.9-5.6-6.7-6.7-7.3-5.5-2.8-15.6-7-16.2-6.2-2.2 2.8-10.7 6.9-19.3 7.3-8.6.5-15.3-3.6-18-5.6-.9-.7-1.4-1.6-2.4-1.2-5.1 1.8-7.8 3.9-10.6 6.7-2.6 2.6-5 5.6-6.7 10.6 0 0 0 13.4 15.8 23.1 1 .6.7 18.5-.1 22.8-.3 1.9 3.9 2.9 12.9 3.4 10.1.6 19.1 13.4 35.9 3.4-1.7-5-3.7-30.2-2.5-30.8 13.4-6 18.8-24.8 17.9-26.2z"/><g><defs><path id="SVGID_3_" d="M455.1 565.9c-2.4-3.9-5.6-6.7-6.7-7.3-5.5-2.8-15.6-7-16.2-6.2-2.2 2.8-10.7 6.9-19.3 7.3-8.6.5-15.3-3.6-18-5.6-.9-.7-1.4-1.6-2.4-1.2-5.1 1.8-7.8 3.9-10.6 6.7-2.6 2.6-5 5.6-6.7 10.6 0 0 0 13.4 15.8 23.1 1 .6.7 18.5-.1 22.8-.3 1.9 3.9 2.9 12.9 3.4 10.1.6 19.1 13.4 35.9 3.4-1.7-5-3.7-30.2-2.5-30.8 13.4-6 18.8-24.8 17.9-26.2z"/></defs><clipPath id="SVGID_9_"><use xlink:href="#SVGID_3_" overflow="visible"/></clipPath><path d="M415.2 593.4c-10.4 0-21.9-1.6-27.3-5.5-10.2-7.3-11.4-22.2-11.4-22.8 0-.3.2-.5.5-.5s.5.2.5.5c0 .1 1.2 15 11 22 4 2.9 12.2 4.8 22.6 5.2 9.2.4 18.2-.5 22.5-2.2 10.2-4 17.6-14.3 19.6-27.3 0-.3.3-.5.6-.4.3 0 .5.3.4.6-2.1 13.4-9.6 24-20.2 28.1-3.6 1.4-10.9 2.3-18.8 2.3z" clip-path="url(#SVGID_9_)" fill="#2ed1ff"/></g><path class="st1" d="M411.6 560.4c-13.9 0-19-7.1-19.3-7.4l1.5-.4c0 .1 5.2 7 20 6.3 14.7-.7 17.7-6.8 17.7-6.9l1.3.6c-.1.3-3.3 6.9-19 7.7-.6.1-1.4.1-2.2.1z"/></g><g><path d="M407.8 604.7c.6 0 29.9.8 29.9.8s1.3 19.7-.1 25-3.7 16.1-3.7 16.1L405 646s-3.5-1.8-1-13.3 3.7-13.2 3.7-16.6.1-11.4.1-11.4z" fill="#7e3362"/><path class="st18" d="M436.9 605.4l1.5-1.9s1.6 16.2 1.5 18.7 2.2 14.5 2.2 14.5l-8.7 9.9 2.4-25.4 1.1-15.8z"/><path class="st18" d="M407.1 602.4c.2-.5 31.3 1.1 31.3 1.1l-.3 4.3s-30.5-.5-30.7-1c-.1-.4-.9-2.6-.3-4.4z"/></g><path class="st10" d="M366.2 605.9c-4.2 1.9-2.4 6.2-2.4 6.2 3.4 8.2 10.2 23 17.5 31.9.8.9 1.4 1.4 2 1.9 0 0 1.6 2.5 3.1 1.1 1.9-1.9.5-7.3.5-7.3-10.7-36.9-17.8-35.1-20.7-33.8z"/><path class="st10" d="M377.8 655.1l.1-4.2-.1-.3c.9-3 3.5-7.6 4.2-9.4.3-.7 1.8-3.1 3.1-2.4 1.8.8 2 1.9 2 3.2s0 5.5-.6 7.9c-.2.6-.3 2.3-.5 3-.3 1.2-1.5 3.6-1.6 3.8-.7-.4-.8-.5-.2-3.1.1-.7-.5-1.6-1.4-2.1-.7-.2-.9.3-1 .7-.1.8-.4 2.1-.7 2.8-.1.3.3 2 .1 3.1 0 .2.7 1.1 1.2 2.1.4.8-.1 1.4-.1 1.4l-2.7-2.7c0 .2.5 1.3.8 2.3.3.9-.4 1.4-.4 1.4l-2.6-3.9.4-3.6z"/><g><path class="st10" d="M465.2 595.6s-12.2 2.8-15.8 4.6c-2.4 1.2-10.6 5-22.2 6.8-.6.1-2.6.2-2.9.1-.7 0-1.8-.3-2.7-.2-1.3.1-2.7 0-3.4-.1 0 1 .6 1.7 2.1 1.8 1.1.1 2.2 0 2.2.5 0 .3-.9.4-2.8.7-1.6.2-4 .5-6 .9-1.3.2-1 1.4-.1 1.5 1.6.1 5.2-.5 5.9-.4.3 0 .2.3 0 .3-1.7.5-6.4-.1-6.2 1.4.1.2.2.3.3.4.3.2.7.2 1.3.2h.5c1.7-.1 3.4-.2 4.3-.2.2 0 .4.2.2.3-.1.1-1.1.2-2.3.3-1.7.2-3.7.4-3.7.9 0 .6.9.6 2.1.6 2-.1 4.7-.5 4.9-.4.1.1.2.3 0 .3-.7.1-2.5.5-3.8.7-.6.1-.7.8-.3 1 1.3.1 3.8-.2 5.6-.4 3.4-.3 6.5-1.6 9.7-1.9.8-.1 1.3 0 2.6-.1 3.7-.1 22.4-4.7 31.5-6.4 3.2-.6 4.6-.7 6.3-1.4"/></g><path class="st18" d="M424.1 628.5c-1.6 0-2.9-.4-4.1-1.2-3.7-2.7-4.4-9.4-5.7-20.6l-.2-1.9c-.1-.5.3-1 .9-1.1.5-.1 1 .3 1.1.9l.2 1.9c1.2 10.2 2 17 4.9 19.2 1.1.8 2.5 1 4.5.7 1.1-.2 1.9-.8 2.5-1.7 3.4-5.2.2-18.9.1-19-.1-.5.2-1.1.7-1.2.5-.1 1.1.2 1.2.7.1.6 3.5 14.6-.4 20.6-.9 1.5-2.2 2.3-3.9 2.6-.5.1-1.1.1-1.8.1z"/><g id="MASK_1_"><path class="st2" d="M403.7 529.9l1.4 7.5-2.8-5.7 2.8 7 .3 1.2s4.4 2 9.5 1.7c5-.3 8-1.5 8-1.5l.1-.8 3.1-7.4s.1-.1 0-.4c-.1-.2-.2 0-.2 0l-2.7 6.2.6-7.5 2.7-3.5s.1-.2.1-.3c-.1-.3-.2-.1-.2-.1l-2.9 3.1s-5.9 0-10.1.1-8.8.1-8.8.1l-2.9-4.6 2 4.9z"/><path class="st19" d="M407.2 532.9s2.8.5 6.7.7c3.9.2 8.1-.8 8.1-.8s-3.5 1.3-7.9 1.3c-4.1-.1-6.9-1.2-6.9-1.2zm.3 4.7s2.8.5 6.7.7c3.9.2 8.1-.8 8.1-.8s-3.5 1.3-7.9 1.3c-4 0-6.9-1.2-6.9-1.2z"/></g></g><g><path class="st20" d="M174.8 576l19.5 39.2s13-1 13.8-1.2c.1-.1.6-5-3.5-13.9-2.7-10-7.7-21.4-14.1-29.8-.7-.8-13.1 4.3-15.7 5.7zm-39.6 2.6s-10.3 37.7-12.6 48.3c-2.2 10.6-12.3 7.8-12.3-1.7 0-.1.1-10.5.5-17.1v-.1c.7-10.4 2.7-24.2 7.4-33.7.4-.9 14.1 3.5 17 4.3"/><path class="st20" d="M116.4 623.3c-5.1-1-6.3 4.6-6.3 4.6-2.2 10.5-3.2 31.1-2.1 38.6.2 1.4.3 2.3.6 3.3 0 0-.1 3.6 2.2 3.2 3-.6 3.4-5.6 3.4-5.6 14.2-44.3 5.8-43.4 2.2-44.1z"/><path class="st20" d="M95.8 669.3l3.9-1.6.3-.2c3-.4 8.4.1 10.3 0 .7 0 3.5.4 3.5 1.9 0 1.9-.9 2.6-2 3.1-1.1.6-5 2.3-7.5 2.7-.6.1-2.2.7-3 .7-1.2.2-3.9.1-4.1.1.1-.8.2-.9 2.7-1.4.7-.2 1.3-1.1 1.3-2.1-.1-.7-.6-.7-1-.7h-.1c-.8.2-2.1.5-2.9.5-.3 0-1.7 1.1-2.8 1.4-.2 0-.8 1.1-1.4 2-.5.7-1.4.5-1.4.5l1.3-3.5c-.2 0-1 .9-1.8 1.6-.7.6-1.4.2-1.4.2l2.5-4 3.6-1.2z"/><path class="st9" d="M154.3 554.6c-11.2 0-24.7.6-32.5 8.4-7.8 7.8-10.1 25.2-11.2 35.9-1.1 10.6-.6 16.2-.6 16.2l16.2 2.2c.1.1 38.2-62.7 28.1-62.7z"/><path class="st9" d="M157.6 554.1c14.6.9 26.9 1.1 37.5 17.9s11.2 29.1 11.2 29.1l-17.9 6.2c.1 0-40.3-53.8-30.8-53.2z"/><path class="st9" d="M140.3 560.2c-3.4 9-11.2 19.1-12.3 32.5-.6 6.7 2.8 12.9 6.2 28-7.3 11.8-14.6 33.6-14.6 33.6l74.1-14.1s-10.8-6.7-20.9-12.3c2.8-13.4 17.4-33.6 8.4-51.5-4-8-12.3-17.4-12.3-17.4l-28.6 1.2z"/><circle class="st15" cx="164.9" cy="508.7" r="13.4"/><path d="M212.2 651.6s-16.4-11.9-24.7-13.4c-20.4-3.9-57.1-6.1-64.4 5.6-5.6 9-4.3 15.9.6 28.6.4-.2 68.3.6 68.4.6 16.2-.7 20.1-21.4 20.1-21.4z" fill="#4c0033"/><path class="st20" d="M179.7 724s11.8 13.2 13.6 16.2 3.4 4.6-.4 6.2c-3.9 1.6-8.5-1.5-8.5-1.5l-10.8-14.7 6.1-6.2z"/><path class="st9" d="M180.1 740.6c-.6-.8.1-5 1.4-6.1l1.3-.9c2.2-.7 5.8-.1 6.5.6 1.6 1.8 3.9 5.8 4.2 6.1 1.8 1.4 5.8 4.6 2.6 7.2-.4.3-1.6 1.3-1.9 1.5-.2.2-1.6 1-2 1.2-3.6 2.1-5.9-2.3-6.9-4.2-.1-.4-3.7-3.5-5.2-5.4z"/><path class="st2" d="M182.5 738.7c-.1.1-.3 0-.4-.1-.1-.1-.1-.4.1-.5l4.4-3.1c.2-.1.4-.1.5.1.1.1.1.4-.1.5l-4.5 3.1zm1.5 1.8c-.1.1-.3 0-.4-.1-.1-.1-.1-.4.1-.5l4.4-3.1c.2-.1.4-.1.5.1.1.1.1.4-.1.5l-4.5 3.1c.1 0 .1 0 0 0zm1.6 1.9c-.1.1-.3 0-.4-.1-.1-.1-.1-.4.1-.5l4.4-3.1c.2-.1.4-.1.5.1.1.1.1.4-.1.5l-4.5 3.1zm1.5 1.9c-.1.1-.3 0-.4-.1-.1-.1-.1-.4.1-.5l4.4-3.1c.2-.1.4-.1.5.1.1.1.1.4-.1.5l-4.5 3.1c.1-.1 0 0 0 0z"/><path class="st8" d="M164.2 687.2c-6.7-8.8-18.1-26-18.1-26l-21.3 13.3s11 14.7 20.2 25.9c10 12.2 23.3 26.3 28.6 31.3l11-7.9c-5.3-11.7-13.3-27.2-20.4-36.6z"/><g><path class="st8" d="M147.6 663.7c2.7 5.9-.4 12.8-6.9 15.2-6.5 2.5-14-.4-16.7-6.3-2.7-6 .4-12.8 6.9-15.2 6.5-2.5 14 .4 16.7 6.3z"/></g><g><path class="st20" d="M161.4 726.8s-7.9 12.3-8.9 15.6c-1 3.2-2.3 5.1 1.9 6 4.1.9 7.9-3 7.9-3l6.3-14.8-7.2-3.8z"/><path class="st9" d="M165.4 740.4c.4-.9-1.3-4.8-2.8-5.8l-1.5-.6c-2.3-.2-5.7 1-6.2 1.8-1.1 2-2.4 6.4-2.7 6.7-1.4 1.7-4.6 5.6-.8 7.5.5.3 1.9 1 2.2 1.1.2.1 1.7.7 2.3.9 4 1.4 5.2-3.3 5.7-5.4.1-.4 2.9-4.1 3.8-6.2z"/><path class="st2" d="M162.7 738.9s-.1 0 0 0l-5.1-2.2c-.2-.1-.3-.3-.2-.4.1-.2.3-.2.5-.2l5 2.2c.2.1.3.3.2.4-.1.2-.3.3-.4.2zm-1.1 2.1l-5.1-2.2c-.2-.1-.3-.3-.2-.4.1-.2.3-.2.5-.2l5 2.2c.2.1.3.3.2.4 0 .2-.2.3-.4.2zm-1 2.2c-.1 0-.1-.1 0 0l-5.1-2.2c-.2-.1-.3-.3-.2-.4.1-.2.3-.2.5-.2l5 2.2c.2.1.3.3.2.4-.1.1-.3.2-.4.2zm-1.1 2.1s-.1 0 0 0l-5.1-2.2c-.2-.1-.3-.3-.2-.4.1-.2.3-.2.5-.2l5 2.2c.2.1.3.3.2.4-.1.1-.2.2-.4.2z"/><path class="st8" d="M175.1 683.7c6.4-12 16.1-31 16.1-31l22.4 12.3s-5.9 9.5-14 21.9c-8.5 12.9-25.7 41.8-29.9 47.5l-13.3-7.4c4.8-10.3 14.4-35.2 18.7-43.3z"/><circle class="st8" cx="201.9" cy="659.4" r="12.9"/><g><path class="st20" d="M145 557.3s.1.9.5 2.2c.7 2.1 2.4 5.1 6.3 5.5h.7c7.2.3 9.4-3.8 9.9-7.1 1.2-8.1-.7-25.9-.7-25.9l-16.6 11.2-.1 10.2v3.9z"/></g></g><g><path class="st22" d="M161.9 542.2c-.4.1-1.3 16.3-16.9 11.3v-12.3l16.9 1z"/><path class="st1" d="M143.7 527.2h-2.2c-1.4 0-2.6 1.2-2.6 2.6v5c0 1.4 1.2 2.6 2.6 2.6h2.2c.5 0 .9-.4.9-.9V528c0-.4-.4-.8-.9-.8z"/><path class="st20" d="M166.6 535.6c0-7.8-2.6-15.2-2.6-15.2 0-4.7-3.8-8.5-8.5-8.5h-3c-4.7 0-11.7 3.3-11.7 8l.6 12.9c.2 12.9 5.6 16.2 11.8 16.8 6.1.6 13.4-6.2 13.4-14z"/><path class="st20" d="M163.2 530s1.5-1.9 2.3-.6c.2.3.1 1.8-.1 3.9-.1 1.3-.8 2.3-1.6 1.6l-.6-4.9zm-18.3.1s-1.4-2-2.2-.7c-.2.3-.2 1.8-.1 3.9 0 1.4.6 2.4 1.6 1.7-.1-.1.7-4.9.7-4.9z"/><circle class="st23" cx="158" cy="529.4" r=".9"/><circle class="st23" cx="148.8" cy="529.5" r=".9"/><g class="st24"><path class="st25" d="M149.2 537.3c-.1 2.9 5.3.1 5.3.1l-3.7-.1c0-.2 1.1-4.5 1.1-4.5.1 0-2.5.6-2.7 4.5z"/></g><path class="st2" d="M155.9 540.5l-6.5.2s.4 2.5 3.4 2c2.9-.4 3.1-2.2 3.1-2.2z"/><path class="st1" d="M166.9 537.8h2.2c1.4 0 2.6-1.2 2.6-2.6v-5c0-1.4-1.2-2.6-2.6-2.6h-2.2c-.5 0-.9.4-.9.9v8.4c0 .6.4.9.9.9z"/><path class="st1" d="M140 534.6c-.2 0-.4-.1-.6-.2-2.2-1.7-2.4-6.5-2.6-9.7 0-.4 0-.8-.1-1.1-.3-5.6 1.4-10.9 4.8-14.5 3.1-3.3 7.5-5.1 12.7-5.1 13.1 0 17.1 10.7 18.4 17.1.6 3-.6 10.5-3.4 12.5-.4.3-1.1.2-1.4-.2-.3-.4-.2-1.1.2-1.4 1.9-1.4 3.1-8 2.6-10.6-1.3-7-5.3-15.4-16.4-15.4-4.6 0-8.5 1.5-11.2 4.4-3 3.2-4.6 7.9-4.3 13 0 .3 0 .7.1 1.1.1 2.5.3 7 1.8 8.2.4.3.5 1 .2 1.4-.2.4-.5.5-.8.5z"/><path class="st26" d="M150.1 513.4s5 20.5 19.1 20.5c0 0 .6-10.4-2.2-16.1s-13-9.4-16.9-4.4z"/><path class="st15" d="M148.9 509.8s7.6 24.1 21.6 20.2c0 0-2-11.2-4.8-16.2-2.8-5.1-12.8-8.5-16.8-4z"/><path class="st15" d="M152.9 510.4s-2.2 19.6-13.4 21.9c0 0-1.9-12.1 3-18.4 4.7-6.3 10.4-3.5 10.4-3.5z"/></g><g id="MASK_3_"><path class="st2" d="M143 535l1.4 7.5-2.8-5.7 2.8 7 .3 1.2s4.4 2 9.5 1.7 8-1.5 8-1.5l.1-.8 3.1-7.4s.1-.1 0-.4c-.1-.2-.2 0-.2 0l-2.7 6.2.6-7.5 2.7-3.5s.1-.2.1-.3c-.1-.3-.2-.1-.2-.1l-2.9 3.1s-5.9 0-10.1.1c-4.2.1-8.8.1-8.8.1l-2.9-4.6 2 4.9z"/><path class="st19" d="M146.5 538s2.8.5 6.7.7 8.1-.8 8.1-.8-3.5 1.3-7.9 1.3c-4.1 0-6.9-1.2-6.9-1.2zm.3 4.8s2.8.5 6.7.7 8.1-.8 8.1-.8-3.5 1.3-7.9 1.3c-4-.1-6.9-1.2-6.9-1.2z"/></g><path class="st9" d="M192.7 639.9c-11.6 0-14.4-6.2-24.5.5s-16.8 9.5-25.8 6.7-12.6-6.7-18.4-5c7.7-11.8 22.3-11.8 33.5-11.8 11.3 0 35.2 9.6 35.2 9.6"/><g><path class="st2" d="M123.2 584.3s28.3 4 25 0c0 0 6.3-.7 7.2 2s1.9 40.4 1.9 40.4-28.5 1.8-28 .4-6.1-42.8-6.1-42.8z"/><path d="M148.2 584.3c3.6 0 4.6 3.3-.5 3.3s-27.1-.5-27.1-.5l6.1 40.9s29.6 3.3 31.2-2.3-1.5-38.6-1.5-38.6-1-1.9-3.1-2.3-5.1-.5-5.1-.5z" fill="#cfdfe5"/><path class="st2" d="M148.2 584.3s7.7 0 5.6 4.2c-2 4.2-30.6 2.8-30.6 2.8l5.6 40s10.7 1.2 19.4.5c11.2-.9 12.8-6 12.8-6s-2.6-27.4-3.6-38.6c-.2-3.1-5.9-3.8-9.2-2.9z"/></g><g><path class="st20" d="M201 608.1s-3.7-.1-7.4 1c-2.5.7-18.1 4.4-29.4 4.3-.6 0-1.9-.4-2.2-.5-.7-.1-.3-1.8-1.1-2.8s-1-1-1.7-1.1c0 0 .6 2.2.6 3.9s-1.2 2.1-3.1 2c-1.5-.1-3.8-.2-5.9-.1-1.3 0-1.2 1.2-.3 1.4 1.5.3 5 .3 5.6.5.2.1.2.3 0 .3-1.7.2-6-1-6.1.3 0 .2.1.3.2.5.2.2.6.3 1.2.4.1 0 .3 0 .5.1 1.6.2 3.2.3 4.1.5.2 0 .4.2.2.3-.1.1-1.1 0-2.3-.1-1.6-.1-3.6-.2-3.6.3-.1.6.8.7 1.9.9 1.9.3 4.6.3 4.7.4.1.1.1.3-.1.3-.7 0-2.5 0-3.7.1-.6 0-.8.6-.5.9 1.2.3 3.6.4 5.4.5 3.2.3 6.4-.5 9.4-.3.8 0 1.2.2 2.5.3 3.5.5 12.3 1.2 26.5-.2 3.2-.3 4.5-.6 6.2-1"/><path class="st20" d="M208.4 614.2a6.72 6.72 0 11-13.4 1 6.72 6.72 0 0113.4-1z"/></g></g><g><path class="st28" d="M294.8 550.7s-22.7 1.3-22.4-12.2c.3-13.5 5.6-28.9 16.1-31.9 8.6-2.5 17.6.7 18.5 13.4.8 12.2-.2 30.2-12.2 30.7z"/><path class="st13" d="M235.4 651s16.4-11.9 24.7-13.4c20.4-3.9 57.1-6.1 64.4 5.6 5.6 9 4.3 15.9-.6 28.6-.4-.2-68.3.6-68.4.6-16.2-.7-20.1-21.4-20.1-21.4z"/><path class="st20" d="M267.9 723.4s-11.8 13.2-13.6 16.2c-1.8 3-3.4 4.6.4 6.2 3.9 1.6 8.5-1.5 8.5-1.5l10.8-14.7-6.1-6.2z"/><path class="st9" d="M267.5 740c.6-.8-.1-5-1.4-6.1l-1.3-.9c-2.2-.7-5.8-.1-6.5.6-1.6 1.8-3.9 5.8-4.2 6.1-1.8 1.4-5.8 4.6-2.6 7.2.4.3 1.6 1.3 1.9 1.5.2.2 1.6 1 2 1.2 3.6 2.1 5.9-2.3 6.9-4.2.1-.3 3.8-3.5 5.2-5.4z"/><path class="st2" d="M265.2 738.1c.1.1.3 0 .4-.1s.1-.4-.1-.5l-4.4-3.1c-.2-.1-.4-.1-.5.1-.1.1-.1.4.1.5l4.5 3.1c-.1 0-.1 0 0 0zm-1.6 1.9c.1.1.3 0 .4-.1s.1-.4-.1-.5l-4.4-3.1c-.2-.1-.4-.1-.5.1-.1.1-.1.4.1.5l4.5 3.1zm-1.5 1.8c.1.1.3 0 .4-.1s.1-.4-.1-.5l-4.4-3.1c-.2-.1-.4-.1-.5.1-.1.1-.1.4.1.5l4.5 3.1c-.1 0-.1 0 0 0zm-1.6 1.9c.1.1.3 0 .4-.1s.1-.4-.1-.5l-4.4-3.1c-.2-.1-.4-.1-.5.1-.1.1-.1.4.1.5l4.5 3.1z"/><path class="st13" d="M283.4 686.7c6.7-8.8 18.1-26 18.1-26l21.3 13.3s-11 14.7-20.2 25.9c-10 12.2-23.3 26.3-28.6 31.3l-11-7.9c5.3-11.8 13.3-27.2 20.4-36.6z"/><g><path class="st13" d="M300.1 663.2c-2.7 5.9.4 12.8 6.9 15.2 6.5 2.5 14-.4 16.7-6.3 2.7-6-.4-12.8-6.9-15.2-6.6-2.5-14 .3-16.7 6.3z"/></g><g><path class="st20" d="M312.5 578s10.3 37.7 12.6 48.3c2.2 10.6 12.3 7.8 12.3-1.7 0-.1-.1-10.5-.5-17.1v-.1c-.7-10.4-2.7-24.2-7.4-33.7-.4-.8-14.2 3.5-17 4.3m-39.7-2.6l-19.5 39.2s-12-3.8-12.7-4c-.1-.1.8-4.7 2.5-11.1 2.7-10 7.7-21.4 14.1-29.8.6-.7 13 4.4 15.6 5.7z"/><pattern id="SVGID_10_" xlink:href="#SVGID_4_" patternTransform="matrix(.3673 0 0 -.3673 -9030.71 -6679.51)"/><path d="M336.5 594.1s-4.2-18.8-8.7-25.4c-2.8-4.2-10.6-8.6-12.9-9.5-7.8-2.8-14.1-3.8-14.1-3.8s-5.3.5-8.4.6l-5.9-.7s-14.8.1-23.2 6.2c-5.8 2.1-17.4 25.9-17.4 25.9l15.7 9.9c-.6 15.7 1.1 28.6-1.7 40.3 8.4 0 14.6 2.8 23 8.4 9.2.8 16-.6 22.4-4.5s17.9 0 20.7 6.7c1.7-3.4-5-34.2-7.3-48.6l17.8-5.5z" fill="url(#SVGID_10_)"/><path class="st20" d="M286.2 726.2s7.9 12.3 8.9 15.6c1 3.2 2.3 5.1-1.9 6-4.1.9-7.9-3-7.9-3L279 730l7.2-3.8z"/><path class="st9" d="M282.2 739.8c-.4-.9 1.3-4.8 2.8-5.8l1.5-.6c2.3-.2 5.7 1 6.2 1.8 1.1 2 2.4 6.4 2.7 6.7 1.4 1.7 4.6 5.6.8 7.5-.5.3-1.9 1-2.2 1.1-.2.1-1.7.7-2.3.9-4 1.4-5.2-3.3-5.7-5.4 0-.3-2.8-4.1-3.8-6.2z"/><path class="st2" d="M285 738.4l5.1-2.2c.2-.1.3-.3.2-.4-.1-.2-.3-.2-.5-.2l-5 2.2c-.2.1-.3.3-.2.4 0 .1.2.2.4.2zm1 2.1s.1 0 0 0l5.1-2.2c.2-.1.3-.3.2-.4-.1-.2-.3-.2-.5-.2l-5 2.2c-.2.1-.3.3-.2.4.1.1.3.2.4.2zm1.1 2.1l5.1-2.2c.2-.1.3-.3.2-.4-.1-.2-.3-.2-.5-.2l-5 2.2c-.2.1-.3.3-.2.4.1.2.2.2.4.2zm1 2.1c.1 0 .1 0 0 0l5.1-2.2c.2-.1.3-.3.2-.4-.1-.2-.3-.2-.5-.2l-5 2.2c-.2.1-.3.3-.2.4.1.2.3.2.4.2z"/><path class="st13" d="M272.5 683.1c-6.4-12-17.4-30.7-17.4-30.7l-21.4 10.4s6.2 11.2 14.3 23.6c8.5 12.9 25.7 41.8 29.9 47.5l13.3-7.4c-4.8-10.3-14.3-35.2-18.7-43.4z"/><path class="st9" d="M306.8 613.5h-18.4a2 2 0 01-2-2v-26.3c0-1.1.9-2 2-2h18.4a2 2 0 012 2v26.3a2 2 0 01-2 2z"/><path class="st20" d="M331.3 622.7c5.1-1 6.3 4.6 6.3 4.6 2.2 10.5 3.2 31.1 2.1 38.6-.2 1.4-.3 2.3-.6 3.3 0 0 .1 3.6-2.2 3.2-3-.6-3.4-5.6-3.4-5.6-14.2-44.3-5.8-43.4-2.2-44.1z"/><path class="st20" d="M351.9 668.8l-3.9-1.6-.3-.2c-3-.4-8.4.1-10.3 0-.7 0-3.5.4-3.5 1.9 0 1.9.9 2.6 2 3.1 1.1.6 5 2.3 7.5 2.7.6.1 2.2.7 3 .7 1.2.2 3.9.1 4.1.1-.1-.8-.2-.9-2.7-1.4-.7-.2-1.3-1.1-1.3-2.1.1-.7.6-.7 1-.7h.1c.8.2 2.1.5 2.9.5.3 0 1.7 1.1 2.8 1.4.2 0 .8 1.1 1.4 2 .5.7 1.4.5 1.4.5l-1.3-3.5c.2 0 1 .9 1.8 1.6.7.6 1.4.2 1.4.2l-2.5-4-3.6-1.2z"/><g><path class="st20" d="M245.7 606s3.5-1.1 7.3-1.2c2.6 0 18.6-1 29.4-4.3.6-.2 2.3-1 2.6-1.1.6-.3 1.4-1 2.2-1.3 1.2-.5 2.3-1.1 2.9-1.5.4.8.2 1.8-1.1 2.4-.9.6-1.9.9-1.7 1.4.1.3.9 0 2.7-.6 1.4-.5 3.6-1.3 5.6-1.8 1.2-.4 1.5.8.7 1.3-1.3.7-4.7 1.8-5.2 2.2-.2.1-.1.3.1.3 1.7-.3 5.4-2.7 6-1.4 0 .2 0 .4-.1.5-.2.2-.5.4-1 .7-.1.1-.3.1-.4.2-1.5.6-3 1.2-3.8 1.7-.2.1-.3.3-.1.4.1.1 1.1-.3 2.1-.7 1.5-.6 3.4-1.3 3.6-.7.2.5-.5.9-1.6 1.4-1.8.8-4.3 1.6-4.4 1.7-.1.1 0 .3.2.3.7-.2 2.4-.7 3.5-1 .6-.1 1 .4.7.7-1.1.6-3.4 1.4-5 2.1-3 1.2-6.3 1.3-9.1 2.4-.7.2-1.1.5-2.3 1-3.3 1.5-11.4 4.7-25.4 7.5-3.1.6-4.5.7-6.2.8"/><path class="st20" d="M240.4 614c.8 3.6 4.4 5.9 8 5.1 3.6-.8 5.9-4.4 5.1-8-.8-3.6-4.4-5.9-8-5.1-3.6.9-5.9 4.4-5.1 8z"/></g><g><path class="st20" d="M302.6 556.8s-.1.9-.5 2.2c-.7 2.1-2.4 5.1-6.3 5.5h-.7c-7.2.3-9.4-3.8-9.9-7.1-1.2-8.1.7-25.9.7-25.9l16.6 11.2.1 10.2v3.9z"/></g></g><g><path class="st22" d="M285.7 541.7c.4.1 1.3 16.3 16.9 11.3v-12.3l-16.9 1z"/><path class="st20" d="M296.8 549.5H289c-3 0-5.4-2.4-5.4-5.4v-27.6c0-2.9 2.3-5.2 5.2-5.2h9.7c2.9 0 5.2 2.3 5.2 5.2v26.2c0 3.8-3.1 6.8-6.9 6.8z"/><path class="st28" d="M286.2 526.4c1.5-.2 3.1 0 4.7.1.4 0 .8-.4.8-.8s-.3-.7-.8-.8c-1.5-.1-3.1-.3-4.7-.1-.4 0-.8.3-.8.8 0 .4.4.9.8.8zm11.9.2c.1 0 .2 0 .3-.1h1.9c.7 0 1.5.1 2.2.1.4 0 .8-.4.8-.8s-.3-.7-.8-.8c-1.6-.1-3.1-.2-4.7.1-.4.1-.6.6-.5.9 0 .5.3.7.8.6z"/><path class="st20" d="M284.4 529.4s-1.5-1.9-2.3-.6c-.2.3-.1 1.8.1 3.9.1 1.3.8 2.3 1.6 1.6.1 0 .6-4.9.6-4.9zm18.4.1s1.4-2 2.2-.7c.2.3.2 1.8.1 3.9 0 1.4-.6 2.4-1.6 1.7.1 0-.7-4.9-.7-4.9z"/><circle class="st23" cx="289.6" cy="528.8" r=".9"/><circle class="st23" cx="298.9" cy="528.9" r=".9"/><g class="st24"><path class="st25" d="M298 533.9c0 7.4-5.5 3-5.5 3l2.7.1-.1-12.1c-.1-.1 2.9 1.1 2.9 9z"/></g><path class="st22" d="M283.8 530.2c-.3-.1-.5.1-.7.3s-.2.5-.2.8c0 .4 0 .8.2 1.1s.6.6 1 .6m19.7-3.2c.4 0 .7.4.8.8.3.7.2 1.6-.4 2.1"/><path class="st2" d="M292.4 540l3.8-.2s-.1 1.5-1.9 1.4c-1.7-.1-1.9-1.2-1.9-1.2z"/><path d="M279.7 555.8l-1.1-3.9c-6.1 1.9-6.7 17.4-3.9 25.2 2.8 7.8 1.7 15.7 1.7 15.7s8.1-6.8 9-14.6c1-10.7-5.7-22.4-5.7-22.4z" opacity=".4"/><path class="st28" d="M275.7 543.4c-6.1 1.9-6.7 17.4-3.9 25.2 2.8 7.8 1.7 17.9 1.7 17.9s9-9 9-16.8-6.8-26.3-6.8-26.3z"/><path class="st9" d="M283.3 536.7h-2.2c-1.4 0-2.6-1.2-2.6-2.6v-5c0-1.4 1.2-2.6 2.6-2.6h2.2c.5 0 .9.4.9.9v8.4c-.1.5-.4.9-.9.9z"/><path class="st9" d="M306.8 534.6a.9.9 0 01-.8-.4c-.3-.4-.3-1.1.2-1.4 1.8-1.4 2.9-5.7 3-8.2.3-5.4-1.6-11-5-14.6-2.8-3-6.6-4.6-10.8-4.6-11.1 0-15 8.4-16.4 15.4-.5 2.6.7 9.2 2.6 10.6.4.3.5 1 .2 1.4s-1 .5-1.4.2c-2.8-2-3.9-9.6-3.4-12.5 1.2-6.4 5.2-17.1 18.4-17.1 4.8 0 9.1 1.8 12.3 5.2 3.8 4 5.9 10.2 5.6 16.1-.2 2.8-1.3 7.8-3.8 9.7-.2.2-.5.2-.7.2z"/><path class="st26" d="M297.6 512.9s-5 20.5-19.1 20.5c0 0-.6-10.4 2.2-16.1 2.9-5.7 13-9.5 16.9-4.4z"/><path class="st28" d="M298.7 509.3s-6.2 20.2-20.2 20.2c0 0 .6-11.2 3.4-16.2 2.8-5.2 12.9-8.5 16.8-4z"/><path class="st9" d="M303.9 526.6h2.2c1.4 0 2.6 1.2 2.6 2.6v5c0 1.4-1.2 2.6-2.6 2.6h-2.2a.9.9 0 01-.9-.9v-8.4c.1-.5.5-.9.9-.9z"/><path class="st28" d="M294.8 509.8s2.2 19.6 13.4 21.9c0 0 2.4-12.2-2.4-18.4-4.8-6.3-11-3.5-11-3.5z"/><g id="MASK_2_"><path class="st2" d="M283.1 533.9l1.4 7.5-2.8-5.7 2.8 7 .3 1.2s4.4 2 9.5 1.7c5-.3 8-1.5 8-1.5l.1-.8 3.1-7.4s.1-.1 0-.4c-.1-.2-.2 0-.2 0l-2.7 6.2.6-7.5 2.7-3.5s.1-.2.1-.3c-.1-.3-.2-.1-.2-.1l-2.9 3.1s-5.9 0-10.1.1-8.8.1-8.8.1l-2.9-4.6 2 4.9z"/><path class="st19" d="M286.5 537s2.8.5 6.7.7c3.9.2 8.1-.8 8.1-.8s-3.5 1.3-7.9 1.3c-4-.1-6.9-1.2-6.9-1.2zm.3 4.7s2.8.5 6.7.7c3.9.2 8.1-.8 8.1-.8s-3.5 1.3-7.9 1.3c-4-.1-6.9-1.2-6.9-1.2z"/></g></g><path class="st9" d="M303.8 588.7c-.6 0-1-.4-1-1 0-11.3 0-14.3 5.8-21.9 3-3.9 1.4-9.3-.4-15.6-1.3-4.6-2.8-9.8-2.7-15.3a1 1 0 012 0c-.1 5.1 1.3 10 2.6 14.7 1.9 6.5 3.6 12.7 0 17.4-5.4 7-5.4 9.6-5.4 20.7.1.6-.4 1-.9 1z"/><path class="st9" d="M304.4 585.5h-1.3a1 1 0 01-1-1v-1.9c0-.6.5-1 1-1h1.3c.6 0 1 .5 1 1v1.9c0 .5-.4 1-1 1z"/><circle class="st13" cx="242.7" cy="658.3" r="10.1"/></g></g><g><path d="M2255.6 801l-630.3-2 46.6-9.7 583.7-1.5V801z" opacity=".18" fill="#8e415f"/><path class="st32" d="M2202.7 577.2l20.3.3s3.1 9.2 2.6 26.3c0 .7-17.5 5.7-17.5 5.7l-5.4-32.3z"/><path class="st32" d="M2189.6 620.4c4-7.1 17.6-23 17.6-23l18-3s13 9.2 16.2 24.5c.1.6-1.1 16.7-1.1 16.7h-54.5s3.7-15 3.8-15.2zm6.3-39.6c.6 2.3 3.7 2.5 9 3.4h.1c.6.1 1.4.1 2.3 0 1.3-.2 2.9-.5 4.4-1 3.7-1.1 7.3-2.6 8.2-3 7.3-3.2 10-16.6 10-22.1 0-11.6-10-12.9-17.4-11.7-4 .7-7.2 2.3-9.7 4.3-4.3 3.5-6.3 10.4-5.9 11.3.4 1 .9 2.4.9 3.2 0 1.8-1.1 3.7-1.1 4.7v.9c.3 7.7-1.5 7-.8 10z"/><path class="st33" d="M2204.2 560.9c-.5-.6-3.5-2.4-6.5-.4"/><circle class="st34" cx="2201" cy="564.2" r="1"/><path class="st32" d="M2198.2 562.1c-1.4 4.2-3.2 6.3-3.8 7.9-.1.3 2.3.7 2.6.7 0 0 1.3-1.7 1.6-3.6.4-2.3-.4-5-.4-5z"/><path class="st35" d="M2214.2 584.8c-.4.2 2.3 11.2-7.9 14.2l-2.4-14.9 10.3.7z"/><path class="st36" d="M2201.9 550.5s11-14.2 27.3-4.5c9.9 5.9 5.5 20.7-5.5 33.2-.1.2-4.9-.9-6.2-3.1-1.6-2.7-1.5-10.7-1.5-10.7l-5.7 1.2s-1.5-6.3-1.8-7.4c-1.1-4.7-6.6-8.7-6.6-8.7z"/><path class="st35" d="M2216.7 563.4s.4 4.1-1.6 4.9c-1.4.5-2.6.1-2.6.1s.7 6.1 4 4.7c3.2-1.4.2-9.7.2-9.7z"/><path class="st32" d="M2212.6 564.8s1.9-3.7 3.5-2.2 1 5.4-2.2 5.4c-2 0-2.2-.5-2.2-.5l.9-2.7z"/><path class="st32" d="M2214.2 564.9c0-.7.9-1 1.3-.5 0 0 .1.1.1.2.1.2.1.3 0 .5 0 .4-.1.7-.4 1-.3.2-.7.3-1 0v-1.2zm-17.3 7.6s2.7.7 2.6 1.1c-.1 1-2.8 1.1-2.8 1.1l.2-2.2z"/><path class="st33" d="M2194.3 583.7s.1 0 .1-.1c-.1 0-.1 0-.1.1z"/><path class="st36" d="M2215.7 557.2s-17.1.8-19.5-1.4-9.7-14.7 3-14.7 20.8 8.5 20.8 8.5l-4.3 7.6z"/><path class="st1" d="M2225.3 591.3l-22.6 11.5-13.5 17.9-3.7 15.2h54.9l1.2-18.3s-4.7-13.8-12.1-19.4l-4.2-6.9z"/><path class="st2" d="M2225.8 590.2l-23.2 12.8 25.6-8.6-2.4-4.2z"/><g><path d="M2223.9 621.1s.6 7.8-4.4 12.4c-6 5.3-31.1 28.1-32.6 28.5-10.5 3.2-9.7-6.4-7.6-10.8 2.1-4.2 6.5-15.8 14.9-24.5 7.4-7.9 21.4-21.5 29.7-5.6z" opacity=".3" fill="#8f4160"/><path class="st32" d="M2183.4 660.3c-4.2 1.1-5.3-1.4-5.3-1.4-4.6-13.4-9.5-30.8-12.3-39.4-.5-1.6-.1-2.4-.4-3.4l5.7-3.3c27.8 37.7 16.4 46.3 12.3 47.5zm-16.5-57.9c.1.2-.6-2.9-1.3-4.2-.2-.3.3-2.4-.1-3.7-.1-.2.7-1.4 1.3-2.6.4-1-.2-1.7-.2-1.7l-3.7 4.1-.3 4.3-.6 5s.9 1.1 2.9.6c1.7-.3 2-1.7 2-1.8z"/><path class="st32" d="M2172 602.9c.2.9 0 2.9.1 3.6.3 2.9-.4 3.8-.8 9.4-.3 6.1-5.4 5.1-5.8 2.6-.1-.8-.1-2-.3-2.8-.5-2.2-2.8-8.1-3.3-11.7 0 0 .6-2 2.2-2.2 2-.5 2.9 1.1 2.9 1.1.2.5.3 1.1 1.1 1 1.1-.4 1.5-1 1.5-2.2-.2-2.6.6-3.5 1.3-3.5-.1.8.9 3.3 1.1 4.7z"/><path class="st32" d="M2167 603.8c0 .1 0-2.9-.4-4.4-.1-.4.7-2.3.6-3.7 0-.2 1-1.2 1.8-2.3.6-.8.1-1.7.1-1.7l-4.5 3.3-1.2 4.2-1.6 4.8s.7 1.5 2.5 1.4c1.4 0 2.7-1.5 2.7-1.6zm55.6 16.1s.6 7.8-4.4 12.4c-6 5.3-31.1 28.1-32.6 28.5-10.5 3.2-9.7-6.4-7.6-10.8 2.1-4.2 6.5-15.8 14.9-24.5 7.4-7.9 21.5-21.5 29.7-5.6z"/><path d="M2210 640.8l-18.3-17.1 18.3-14 12.8 3.6 3 11.6-15.8 15.9z" fill="#2bbee0"/><path class="st2" d="M2191.7 623.7l18.3 17.1-1.3 1.2-18.2-17.1 1.2-1.2z"/></g><g><path class="st2" d="M2211.4 564.9l-10.8 4.5-1.4-1 11.6-5"/><path class="st1" d="M2191.9 574.9c-.3 1.5-.2 2.7.2 3.7l9.2-4.4c-.7-1.7-1-3.5-.8-5.4l-5.4-2.7c-1.1 3-2.6 5.8-3.2 8.8z"/><path class="st2" d="M2215.7 568.5c-3.7 1.8-11.5 9.8-11.5 9.8l1 1.1h.2c1.9-.4 7.1-7.4 11.3-9.5"/><path class="st39" d="M2192.1 578.6c.5 1.5 1.5 2.3 2.1 3 1.5 1.2 3.1 2.1 4.9 2.7 2.2.8 4.4-1.2 5.8-1.2l.8-1.2c.3-.5.3-1 .1-1.5l-.7-1.5c-1.7-1.1-3-2.7-3.8-4.6l-9.2 4.3z"/></g><g><path d="M2090.6 573.1c3-2.3 4.5-6.2 4.7-10-.9-.5-1.8-1.1-2.7-1.6 3.9-4.5 6.7-9.9 8.1-15.7-1.6-.4-3.2-.9-4.7-1.3 2.1-2.6 4.3-5.6 4.2-8.9-.1-3.4-4.1-6.5-6.9-4.5 1.4-2.4-.5-5.8-3.2-6.6s-5.6.3-7.8 2c1-3.8-3.2-7.6-7.1-7.1s-6.8 4.3-7.4 8.2c-.3-1.5-.7-2.9-1-4.4-5.1 0-10 4.1-10.8 9.1-1.7-1.9-5.2-1-6.5 1.2s-1.1 5-.3 7.4c-2.4.2-4.6 2.1-5 4.5s1 5 3.2 6c-2.7.6-4.8 3.3-4.6 6s2.5 5.2 5.3 5.5c-3.2 2.8-3.3 8.5-.1 11.4s8.9 2.1 11.3-1.4c-3.1 3.6-1.8 9.9 2.4 12 .9.4 1.9.7 2.8.3.9-.4 1.5-1.6.9-2.4.3 3.8 5.2 6 8.7 4.6s5.6-5.3 6.1-9.1c-1.2.5-2 1.8-2 3.1 0 1.1 4.4-1.1 4.8-1.4 1.4-1.4 1.8-3.3 1.7-5.1 2.1-.1 4.2-.5 5.9-1.8z"/><path class="st40" d="M2061.5 570.1l18.4-1.6v37.8l-18.7 1.8.3-38z"/><path class="st41" d="M2077.3 575.9c-.4.1-.1 12-15.9 13.6l.1-17.2 15.8 3.6z"/><path class="st42" d="M2029.1 605.2c12.7-6.1 33.7-13 33.7-13l16.6-.1s24.5 8.4 32.5 14.5c.5.4-1.2 26.2-1.2 26.2h-78c-.2.1-3.8-27.5-3.6-27.6z"/><path class="st40" d="M2058.3 561.1c1.1 10.6 4.8 20.6 12.4 20.6s11.1-10.3 11.9-20.9c1.1-15.3-4.2-17.3-11.8-17.3s-14 2.2-12.5 17.6z"/><path class="st40" d="M2081.5 560.9s1.8-1.7 2.5-.3c.2.3-.1 1.8-.5 3.7-.3 1.3-1.1 2.2-2 1.4v-4.8zm-22-.6s-1.6-1.8-2.5-.6c-.2.3-.1 1.7 0 3.6.1 1.2.8 2.2 1.8 1.6.1-.2.7-4.6.7-4.6z"/><path d="M2080 556.6c-.6-.8-1.8-.9-2.7-.9-1.3 0-2.6.3-3.7.8-.3.1-.5.4-.4.8.1.3.4.6.8.4 1-.4 2.1-.7 3.2-.7.5 0 .8 0 1.3.1.3.1.5.2.7.4.2.3.7.2.9 0a1 1 0 00-.1-.9zm-11.7-.3c-1-.9-2.5-1.3-3.8-1.2-1.2 0-2.6.4-3.2 1.4-.4.7.6 1.3 1.1.6 0 0 .1-.1 0 0l.1-.1.1-.1c.1-.1 0 0 0 0 .2-.1.4-.2.5-.3.5-.2.9-.2 1.5-.3.6 0 1 0 1.6.2.5.1.9.4 1.3.7.5.5 1.3-.4.8-.9z"/><circle cx="2076.7" cy="559.5" r="1"/><circle cx="2064.4" cy="559.5" r="1"/><path class="st41" d="M2065.3 561.7c-.1 7.5 6.5 2.8 6.5 2.8h-3.7l.2-6.6s-2.9-.6-3 3.8z"/><path class="st42" d="M2073.2 569s-1.2-.9-2.5-1c-3.6-.3-4.4 1-4.4 1h6.9zm.5.3h-8.3s.6 1.3 4.3 1.4c3.4.1 4-1.4 4-1.4z"/><path d="M2078.1 574.8l-16.6-.1s3.1 7.8 8.2 7.8c7-.1 8.4-7.7 8.4-7.7zm-11.5-45.5c-11.7 1.2-12.3 13.9-9.9 23.8.1.6 22.8-.4 26-.4 2.3 0 5-1.1 4.6-11.3-.5-12.2-10.3-13.2-20.7-12.1zm3.8 38.3h1s.1 0 0 0h.2c.2 0 .4.1.6.1.1 0 .2.1.3.1 0 0 .1 0 .1.1h.1s-.1 0 0 0c.2.1.4.2.5.3l.1.1.1.1c-.1 0 .1 0 .1.1l.1.1.2.2c.1.1 0-.1 0 0l.1.1c0 .1.1.2.1.2.1.1 0-.1 0 .1v.2c.1.3.4.5.8.4.3-.1.5-.4.4-.8-.6-2.1-3.1-2.8-5-2.7-.3 0-.6.3-.6.6.2.4.4.7.8.7zm-1.5-1.2c-1.9-.1-4.4.6-5 2.7-.1.3.1.7.4.8.3.1.7-.1.8-.4v-.2c0-.1 0 0 0 0 0-.1.1-.2.1-.3l.1-.1c.1-.1 0 0 0 0l.2-.2.2-.2c-.1.1 0 0 .1 0l.1-.1.6-.3c.1 0-.1 0 0 0s.1 0 .2-.1c.1 0 .2-.1.3-.1.2-.1.4-.1.6-.1h.2c.1 0-.1 0 0 0h1.1c.3 0 .6-.3.6-.6 0-.6-.2-.8-.6-.8z"/><g id="MASK_5_"><path class="st2" d="M2060 563.5l1.4 7.5-2.8-5.7 2.8 7 .3 1.2s4.4 2 9.5 1.7c5-.3 8-1.5 8-1.5l.1-.8 3.1-7.4s.1-.1 0-.4c-.1-.2-.2 0-.2 0l-2.7 6.2.6-7.5 2.7-3.5s.1-.2.1-.3c-.1-.3-.2-.1-.2-.1l-2.9 3.1s-5.9 0-10.1.1c-4.2.1-8.8.1-8.8.1l-2.9-4.6 2 4.9z"/><path class="st19" d="M2063.4 566.5s2.8.5 6.7.7 8.1-.8 8.1-.8-3.5 1.3-7.9 1.3c-4 0-6.9-1.2-6.9-1.2zm.3 4.8s2.8.5 6.7.7 8.1-.8 8.1-.8-3.5 1.3-7.9 1.3c-4-.1-6.9-1.2-6.9-1.2z"/></g><path class="st40" d="M2028 605.4c12.9-6.2 34.3-13.2 34.3-13.2l16.9-.1s25 8.6 33.1 14.8c.5.4-6.9 26.2-6.9 26.2l-73.8.5s-3.8-28.1-3.6-28.2z"/><path class="st42" d="M2105 633l-9.3 39.3-53.1-1.1-11-37.6 73.4-.6z"/><path class="st40" d="M2028 605.4s-6.6 3.9-6.9 13.3c-.2 7.9-1.7 47.9-1.7 49.7.3 12.4 13.6 10.1 15.2 1 1-5.6 8.3-28.1 10.3-35.2 3.1-10.7 3.4-33.3-16.9-28.8zm83.3.6s7.4 5.3 7.7 13.2c.3 9.3 1.8 48.6 1.1 50.2-5 11.7-13.8 4.1-15.2-1.4s-7.9-18.2-8.6-32.2c-.7-11.1-5.2-34.4 15-29.8z"/><g><path class="st40" d="M2104.7 666.1s-2.2 5.6 4.9 9.3c4.4 2.3 6.9-.3 6.9-.3 12.6-11.8 21.3-33.6 25.5-43.2.8-1.8 1-2.5 1.6-3.6l-7.6-4.7c-22.5 24-31.3 42.5-31.3 42.5z"/><path class="st40" d="M2139.5 610.4c-.5 1-1.1 2.7-1.4 3.5-1.4 3.1-1.5 9.7-2.1 10.3 0 0-2.2 6.4 1.1 8.1 3.9 2 6.1-2.8 6.1-2.8.7-1.5.8-2.1 1.4-3 1.4-2.3 4.8-6.5 6.7-10.3 1-2 2.4-4.5 2.9-6 .2-.8-.3-1.2-.8-.5-.9 1.3-2.4 3.4-2.9 4.2-.1.2-.3.1-.4-.1 0-.2 1.7-2.9 2.5-5.3.4-1.3 1.2-2.8.5-3.2-.3-.2-1.2 1.4-2.2 3.3-.7 1.3-1.9 3.3-2 3.4-.2.1-.4-.2-.3-.4.4-1.1 1.8-4.4 2.6-6.4.6-1.4-.2-2-.8-.9-1.1 1.6-2.4 4.6-3.8 6.3-.1.2-.5.1-.4-.2.2-.9 2-5 2.8-6.8.5-1.4-.3-1.9-1.2-.3-1.5 2.2-3 4.7-4 6.4-1.2 2.1-1.8 3-2.1 2.9-.5-.3-.2-1.8.2-3.2.3-1.5 0-2.7-.8-2.9-.4.8-.8 2.4-1.6 3.9z"/><path class="st42" d="M2144.9 621.1c-.3 1.1-1.8 1.6-2.9 1.1a4.9 4.9 0 01-2.3-2.6c-.1-.2-.2-.4-.2-.6"/></g><path class="st42" d="M2092.1 627.1c.2-.1.4.3.4.5-.1.9-.8 1.7-1.7 1.8s-1.8-.4-2.2-1.2m-38.4-.5c-.4.8-1.4 1.2-2.3 1s-1.5-1-1.6-1.9"/><path class="st2" d="M2088.4 595.5s-8 4-19 4-15.2-4.3-15.2-4.3-12.2 3.1-27.5 9.8c0 0-5.4 3.9-5.8 16.9l20.4 6.3-2.9 28.9s2.9 12.5 4.2 13.7c1.2 1.2 53 1.2 53 1.2l4.3-17.8 2.4-24.8 16.8-4.7s3.3-11.2-7.1-18.5-23.6-10.7-23.6-10.7z"/><path d="M2089.6 594.6s-9.8 5.5-20.1 4.9c-10.4-.6-16.5-4.9-16.5-4.9m66.4 29.9l-17 4.9m-61-1.2l-20.1-6.7" fill="none" stroke="#005156" stroke-width=".82" stroke-linecap="round" stroke-linejoin="round" stroke-miterlimit="10"/><pattern id="SVGID_11_" xlink:href="#SVGID_5_" patternTransform="matrix(.3404 0 0 -.3404 -9427.76 -5646.53)"/><path d="M2112.1 606.2c-10.4-7.3-23.7-10.7-23.7-10.7s-8 4-19 4-15.2-4.3-15.2-4.3-12.2 3.1-27.5 9.8c0 0-5.4 3.9-5.8 16.9l20.4 6.3-2.9 28.9s2.9 12.5 4.2 13.7c1.2 1.2 53 1.2 53 1.2l4.3-17.8 2.4-24.8 16.8-4.7c.1 0 3.4-11.2-7-18.5z" fill="url(#SVGID_11_)"/></g><g><path class="st32" d="M1917.3 568.3l15.8-8.1s1.2 22.5 1.8 30.1c0 .6-17.6 3.6-17.6 3.6v-25.6z"/><path class="st32" d="M1909.4 555.8c-.5 9.9-.5 13.3 3.3 14.4.9.3 8 1.5 9.5 1.5 3.5-.1 6.5-3.8 7.1-5 2.2-4.5 4-11.9 3.5-16.4-.9-9.3-7.7-11.8-14.2-11.2-3.8.4-7.6 3.1-8.5 7.1-1 4.3-.5 6-.7 9.6z"/><path class="st45" d="M1916.6 553.5c-.3-.6-.7-1-1.3-1.3-1.2-.5-2.7-.5-4-.5-.5 0-.5.8 0 .8 1.2 0 2.6-.1 3.7.4h.1s.1 0 .1.1c.1 0 .1.1.2.1 0 0 .1.1 0 0l.1.1c.1 0 .1.1.1.1l.1.1c.1.1 0 0 0 0l.1.1c.1.1.1.2.2.3.1.2.4.2.5.1.1 0 .2-.2.1-.4z"/><circle class="st34" cx="1913.5" cy="555.5" r=".9"/><path class="st32" d="M1909.9 551.7c-.2.2-1.2 4.1-1.8 6.4-.3.9-.1 1.1 1.1 1.3.1.1.7-7.7.7-7.7z"/><path class="st2" d="M1909.1 561.4l3.2.4s-1.7 1.6-3.2 1c-.2 0 0-1.4 0-1.4z"/><path class="st36" d="M1930.5 551.5s7.7-12.7-9.1-15.3c-12.8-1.9-12.1 9-12.1 9l21.2 6.3z"/><path class="st36" d="M1933.6 567.2s-12-2-12.5-19.3c-.2-5.8 1-11.4 1-11.4s12.7 0 15.1 6.7.4 22.1-3.6 24z"/><path class="st32" d="M1921.4 556s1.3-1.9 2.8-.6c1.4 1.3-.1 5.5-1.8 4.9-1.6-.6-1.7-1.4-1.7-1.4l.7-2.9z"/><path class="st45" d="M1922.5 556.2c.4-.2 1-.2 1.3.2.1.1.1.3.1.4.1.3 0 .7-.2.9-.2.3-.6.4-.8.2"/><pattern id="SVGID_12_" xlink:href="#SVGID_6_" patternTransform="rotate(180 -21556.86 -15067.18) scale(2.0424)"/><path d="M1908.8 621.5s16.3-13.6 15.4-13.6-10-18.1-10-18.1" fill="url(#SVGID_12_)"/><path class="st32" d="M1931.3 592.3s1.2 7.9-5.7 21.7c-7 14-31.9 32-33.5 32.5-11.8 3.5-12.1-6-9.6-10.9 2.1-4.1 7.6-13.2 22.3-31.3 6.7-8.4 18.5-19.8 26.5-12z"/><pattern id="SVGID_13_" xlink:href="#SVGID_7_" patternTransform="rotate(153.68 -18068.93 -18457.4) scale(2.0425)"/><path d="M1914.3 593.8l-11.4 11.6 20.5 19.1" fill="url(#SVGID_13_)"/><path class="st48" d="M1947.6 615.8l-10 40-29.9.2-3-40.7 42.9.5z"/><path class="st32" d="M1938.7 655.8l-30.5-.4s-8.1 12.2 1.7 33.2c1.1 2.3 6.1 23.3 6.1 23.3s24.9 7.2 36.2-1.2c1.1-.8 4.2-12.4 5.3-16.1 4.2-15.2-8.3-22-18.8-38.8z"/><path class="st48" d="M1912.9 623s-15.4 1.4-15.4-7.7c0-4.8.4-1.5 13.1-19.6"/><path class="st32" d="M1901 622.4c-4.5-5.2-10.3-.4-10.3-.4-11 9.1-29.1 29.5-34.1 38.3-1 1.7-1.6 2.7-2 3.9 0 0-.9 3.1 2 4.1 1.5.5 5.8-3 5.8-3 51.3-34.1 41.8-39.2 38.6-42.9zm-51.3 57.5c.2-.2-1.9 2.7-3.3 3.7-.3.3-.8 2.5-1.8 3.7-.1.2.1 1.8.1 3.2 0 1.2-1 1.6-1 1.6l-1.9-6 1.7-4.5 1.7-5.3s1.5-.7 3.3.7c1.6 1.2 1.3 2.8 1.2 2.9z"/><path class="st32" d="M1855.2 681.8c.6-.9 1.4-2.9 1.8-3.6 1.6-2.8 2.9-9.7 3.7-11.2s1.7-3.4-.6-5.4c-2.6-2.2-4.2 1.2-4.2 1.2-.8 1.4-1 1.9-1.6 2.7-1.6 2-6.7 7-8.9 10.4 0 0-.3 2.3 1.2 3.3 1.8 1.4 3.5.2 3.5.2.4-.4.8-1 1.6-.5 1 .9 1.3 2.2 1 3.1-1.7 3-1.6 3.2-.9 4 .1-.2 2.5-2.9 3.4-4.2z"/><path class="st32" d="M1850.4 678.5c0-.1-1.4 3-2.5 4.3-.3.3-.3 2.6-1.1 4-.1.2.5 1.7.8 3.1.2 1.2-.7 1.8-.7 1.8l-3-5.5.8-4.8.6-5.6s1.4-1.2 3.2-.2c1.4.7 2 2.7 1.9 2.9z"/><g><path class="st32" d="M1906.8 601.3c3-3.3 10.5-21.4 10.5-21.4l16.8-.8s10.6 10.5 12.2 18.8c1.5 8.4.2 17.4.2 17.4l-38-.1c0 .1-1.9-13.8-1.7-13.9z"/></g><path class="st1" d="M1938.5 584.1s-5.2 6.2-13.9 6.4c-8.6.2-10.6-3.2-10.6-3.2l-1.8 3.6-14.7 22.2s-3.1 7.1 7.7 10c10.8 2.9 0 0 0 0l2.4 32.9 29.9-.3s13.7-38.8 11-52.4-10-19.2-10-19.2"/><g><path class="st32" d="M1943 593.3s9.6 7.5 4.3 22.1c-3 8.5-14.7 42.7-16 43.9-9.1 8.3-13.5-.1-13.4-5.6.1-4.6.3-24.9 5.2-37.6 4-10.1 9.2-26.3 19.9-22.8z"/></g><g><path class="st32" d="M1933.1 651.2c2.9 6.3-3.9 9.5-3.9 9.5-12.9 6.1-39 14-49 14.9-1.9.2-3.1.3-4.4.2 0 0-3.2-.5-2.9-3.6.2-1.6 5.1-4 5.1-4 52.4-32.2 53.1-21.4 55.1-17zm-73.7 22.5c.2-.1-3.2.6-4.7 1.4-.4.2-2.6-.3-4.2.1-.2.1-1.6-.8-2.9-1.5-1.1-.5-1.9.2-1.9.2l4.6 4.2 4.8.4 5.6.7s1.3-1 .7-3.3a2.5 2.5 0 00-2-2.2z"/><path class="st32" d="M1859.9 667.9c1-.2 3.2 0 4.1-.1 3.3-.3 10 1.5 11.7 1.3 1.7-.1 3.9-.1 4.6 2.8.9 3.3-2.8 3.4-2.8 3.4-1.6.1-2.2.1-3.1.3-2.5.6-9.1 3.2-13.2 3.7 0 0-2.2-.7-2.5-2.4-.5-2.2 1.3-3.3 1.3-3.3.5-.2 1.2-.3 1.1-1.2-.4-1.2-1.5-2.2-2.4-2.2-3.5.3-3.6.1-4-.9.2-.1 3.7-1.2 5.2-1.4z"/><path class="st32" d="M1861 673.6c.1 0-3.3 0-4.9.5-.4.1-2.5-.8-4.1-.7-.2 0-1.4-1.1-2.5-2-.9-.7-1.9-.1-1.9-.1l3.7 5 4.6 1.3 5.3 1.8s1.7-.7 1.6-2.8c-.1-1.6-1.7-3-1.8-3z"/></g><path class="st1" d="M1945.1 625.8s11.6-31.4-3.8-33.2c-13.6-1.6-20.8 27.1-20.8 27.1l24.6 6.1z"/><path class="st36" d="M1931.4 563.6c-.3 1.5-4.8 24.4 10.9 24.6 15.7.2 16.2-14.4 7.9-22.5-7.7-7.5-18.8-2.1-18.8-2.1z"/><path class="st35" d="M1924.7 571.4c-.4.2-2.3 6.5-7.5 8.5v-9.1l7.5.6z"/><g><path class="st2" d="M1922.3 555l-8.8 4-1.2-.8 9.8-4.3"/><path class="st9" d="M1906.1 563.6c-.3 1.3-.1 2.3.1 3.1l7.9-3.8c-.6-1.4-.9-3-.7-4.6l-4.7-2.3c-.8 2.6-2.1 5-2.6 7.6z"/><path class="st2" d="M1924.1 559.6c-1.9 2-5.1 6.5-6.6 6.8l-.8.1.8 1h.2c1.6-.3 4.7-4.1 6.9-7"/><path d="M1906.2 566.8c.4 1.3 1.3 2 1.8 2.6 1.3 1 2.7 1.8 4.2 2.4 1.9.7 3.8-1 4.9-1l.7-1.1c.2-.4.3-.9.1-1.3l-.6-1.3a9.9 9.9 0 01-3.3-4l-7.8 3.7z" fill="#87cc5a"/></g></g><g><path class="st32" d="M1723 600l12.7-.9s7.1 8.9 6.7 23.4c0 .6-14.8 4.8-14.8 4.8L1723 600z"/><path class="st32" d="M1718.5 586c-.2.9.4 2.4.2 2.8-.7 1.5-.8 3.5-.8 4.4.3 7.6-.6 6.3 0 9.1.5 2.1 2.4 2.1 6.9 3 3.3.6 11.4-2.4 12.7-3 6.2-2.8 8.5-14.8 8.5-19.7 0-10.3-8.5-11.5-14.8-10.4-9.2 1.7-12.1 10.3-12.7 13.8z"/><path class="st45" d="M1724.1 586.2c-.4-.5-2.1-1.3-4.7-.5"/><circle class="st34" cx="1721.5" cy="588.2" r=".8"/><path class="st32" d="M1719.3 586.8c-1.4 4.4-2.7 5.7-2.7 6 0 .1 1.1.9 2.1.5.7-.2.7-6.5.6-6.5z"/><path d="M1722.3 577.4s9.3-12 23.1-3.8c8.4 5 8.8 19.2-7.6 28.5-.2.1-1.1-1.1-2.2-3-1.4-2.3-1.3-6.4-1.3-6.4l-3.9-1.1s1.9-7.1-.3-10c-2.6-3.3-7.8-4.2-7.8-4.2z"/><path class="st35" d="M1734.2 591.4s.3 3.5-1.4 4.1c-1.1.4-2.2.1-2.2.1s.6 5.1 3.4 4c2.8-1.2.2-8.2.2-8.2z"/><path d="M1718 595.3l2.8 1.2c-.7 1.9-2.9 1.4-2.9 1.4s-.9-.8.1-1.4c.2-.2-.8-.7 0-1.2z" fill="#ecd6ae"/><path class="st32" d="M1730.8 592.6s1.6-3.1 3-1.9c1.4 1.3.5 5.2-1.1 4.6-1.6-.6-2.4-1.4-2.4-1.4l.5-1.3z"/><path class="st45" d="M1732.1 592.6c0-.6.8-.9 1.1-.4 0 0 0 .1.1.1 0 .1.1.3 0 .4 0 .3-.1.6-.4.8-.2.2-.6.2-.8 0v-.9z"/><path d="M1755.2 601.6l.1-14.2c0-2.1-1.7-3.8-3.8-3.8l-6.2-.1a3.8 3.8 0 00-3.8 3.8l-.1 14.2c0 2.1 1.7 3.8 3.8 3.8l6.2.1c2 0 3.7-1.7 3.8-3.8zm-32.9-24.2s-.8 2.8 4.2 11.7c3.5 6.4 9.3.3 9.3.3l-4.9-12.6-8.6.6z"/><path class="st32" d="M1738.5 684.4c3.5-5.6-2.5-9.5-2.5-9.5-11.5-7.5-35.3-18.2-44.7-20.3-1.8-.4-2.9-.7-4.1-.7 0 0-3.1 0-3.2 3-.1 1.5 4.4 4.5 4.4 4.5 45.7 37.2 47.6 27 50.1 23zm-67.2-30.3c.2.1-3-1-4.3-1.9-.3-.2-2.5 0-3.9-.6-.2-.1-1.6.6-2.9 1-1.1.3-1.8-.5-1.8-.5l4.9-3.4 4.6.3 5.4.1s1.1 1.1.3 3.2c-.6 1.7-2.2 1.8-2.3 1.8z"/><path class="st32" d="M1672.8 654.4c.1 0-3.1-.4-4.6-1-.4-.2-2.5.5-4 .2-.2 0-1.4.9-2.7 1.6-1 .6-1.8-.1-1.8-.1l4.2-4.3 4.6-.7 5.3-1s1.5.9 1.1 2.9c-.2 1.2-1.9 2.4-2.1 2.4z"/><path class="st32" d="M1671.2 659.6c1 .3 3 .4 3.8.6 3.1.7 9.7-.1 11.3.2 1.6.3 3.6.6 4.7-2 1.3-3-2.3-3.5-2.3-3.5-1.5-.3-2.1-.4-2.9-.7-2.3-.9-8.3-4.1-12-5.2 0 0-2.2.4-2.7 2-.8 2 .8 3.3.8 3.3.5.2 1.1.5.9 1.3-.5 1.1-1.7 1.9-2.6 1.8-3.3-.7-3.4-.5-3.9.3.2.1 3.4 1.5 4.9 1.9z"/><pattern id="SVGID_14_" xlink:href="#SVGID_8_" patternTransform="rotate(180 -18287.17 -11374.1) scale(1.5663)"/><path d="M1717.1 652.7s15.6-13 14.7-13-9.5-17.3-9.5-17.3" fill="url(#SVGID_14_)"/><path class="st32" d="M1731.6 619.2s4.3 6.4 4.1 21.1c-.2 15-14.1 40.8-15.4 42-8.7 7.9-12.9-.1-12.8-5.4.1-4.4 1-14.5 6.2-36.3 2.4-10 7.7-24.8 17.9-21.4z"/><path d="M1709.4 661.3c.9-5.3 2.3-12.1 4.3-20.6 2.4-10.1 7.7-24.8 17.9-21.4 0 0 4.3 6.4 4.1 21.1-.1 7.8-4.6 20.3-8.4 29" fill="#8f4160"/><path class="st48" d="M1754.3 647.2l-9.6 38.3-28.6.3-2.9-39.1 41.1.5z"/><path class="st32" d="M1745.8 685.5l-29.2-.4s-7.8 11.7 1.7 31.8c1 2.2 5.9 22.3 5.9 22.3s23.8 6.9 34.6-1.2c1.1-.8 4.1-11.9 5.1-15.4 3.8-14.4-8.1-20.9-18.1-37.1z"/><path class="st48" d="M1721.1 654.1s-14.7 1.3-14.7-7.4c0-4.6.4-1.5 12.5-18.8"/><path d="M1738.5 684.4c3.5-5.6-2.5-9.5-2.5-9.5-11.5-7.5-35.3-18.2-44.7-20.3-1.8-.4-2.9-.7-4.1-.7 0 0-3.1 0-3.2 3-.1 1.5 4.4 4.5 4.4 4.5 45.7 37.2 47.6 27 50.1 23z" opacity=".2" fill="#8f4160"/><path class="st54" d="M1671.3 654.1c.2.1-3-1-4.3-1.9-.3-.2-2.5 0-3.9-.6-.2-.1-1.6.6-2.9 1-1.1.3-1.8-.5-1.8-.5l4.9-3.4 4.6.3 5.4.1s1.1 1.1.3 3.2c-.6 1.7-2.2 1.8-2.3 1.8z"/><path class="st54" d="M1672.8 654.4c.1 0-3.1-.4-4.6-1-.4-.2-2.5.5-4 .2-.2 0-1.4.9-2.7 1.6-1 .6-1.8-.1-1.8-.1l4.2-4.3 4.6-.7 5.3-1s1.5.9 1.1 2.9c-.2 1.2-1.9 2.4-2.1 2.4z"/><path class="st32" d="M1671.2 659.6c1 .3 3 .4 3.8.6 3.1.7 9.7-.1 11.3.2s3.6.6 4.7-2c1.3-3-2.3-3.5-2.3-3.5-1.5-.3-2.1-.4-2.9-.7-2.3-.9-8.3-4.1-12-5.2 0 0-2.2.4-2.7 2-.8 2 .8 3.3.8 3.3.5.2 1.1.5.9 1.3-.5 1.1-1.7 1.9-2.6 1.8-3.3-.7-3.4-.5-3.9.3.2.1 3.4 1.5 4.9 1.9z"/><path class="st54" d="M1671.2 659.6c1 .3 3 .4 3.8.6 3.1.7 9.7-.1 11.3.2 1.6.3 3.6.6 4.7-2 1.2-3-2.3-3.5-2.3-3.5-1.5-.3-2.1-.4-2.9-.7-2.3-.9-8.3-4.1-12-5.2 0 0-2.2.4-2.7 2-.8 2 .8 3.3.8 3.3.5.2 1.1.5.9 1.3-.5 1.1-1.7 1.9-2.6 1.8-3.3-.7-3.4-.5-3.9.3.2.1 3.4 1.5 4.9 1.9z"/><g><path class="st32" d="M1715.2 633.3c2.9-3.1 10-20.5 10-20.5l16.1-.7s10.2 10 11.6 18 .2 16.6.2 16.6l-36.4-.1c.1.1-1.6-13.1-1.5-13.3z"/></g><path class="st1" d="M1745.6 616.9s-5 6-13.3 6.1c-8.3.2-10.1-3.1-10.1-3.1l-1.7 3.5-14.1 21.2s-3 6.8 7.4 9.6c10.3 2.8 0 0 0 0l2.3 31.5 28.6-.3s13.1-37.2 10.5-50.2c-2.6-12.9-9.6-18.3-9.6-18.3"/><g><path class="st55" d="M1682.6 682.4c.7 0 1.4-.2 2.1-.5 2.2-1.2 3-3.9 1.9-6l-17.3-32.8a4.5 4.5 0 00-6-1.9 4.5 4.5 0 00-1.9 6l17.3 32.8c.7 1.5 2.3 2.4 3.9 2.4z"/></g><g><path class="st32" d="M1737.4 698.2c-2.4 6.2-9.2 3.6-9.2 3.6-12.8-4.8-35.6-17.6-42.8-23.9-1.4-1.2-2.3-1.9-3.1-2.9 0 0-1.8-2.5.5-4.4 1.2-.9 6.2.9 6.2.9 57.1 14.7 50.1 22.4 48.4 26.7zm-64.5-35.9c.2.1-2.6-1.8-4.1-2.3-.4-.1-1.5-2-2.8-2.8-.2-.1-.5-1.6-.9-3-.4-1.1-1.4-1.1-1.4-1.1l.2 6 2.9 3.6 3.2 4.3s1.5.2 2.8-1.7c1-1.6.2-3 .1-3z"/><path class="st32" d="M1677.3 658.9c.8.6 2.2 2.2 2.8 2.7 2.4 2.1 5.7 7.9 6.9 9 1.2 1.1 2.7 2.6 1.2 5-1.7 2.8-4.2.3-4.2.3-1.1-1-1.5-1.4-2.3-1.9-2.1-1.3-8.3-4.2-11.3-6.6 0 0-1-2 0-3.3 1.2-1.8 3.1-1.3 3.1-1.3.5.2 1 .6 1.6-.1.6-1.1.5-2.4-.1-3.1-2.5-2.2-2.4-2.4-2.1-3.3.1-.1 3.2 1.6 4.4 2.6z"/><path class="st32" d="M1674 663.3c0 .1-2.2-2.3-3.6-3.1-.4-.2-1.1-2.3-2.2-3.3-.2-.1-.1-1.7-.3-3.1-.1-1.1-1.2-1.4-1.2-1.4l-1 5.9 2.2 4.1 2.3 4.8s1.6.7 3-.8c1-.9.9-3 .8-3.1z"/></g><path class="st35" d="M1731.9 603.8c-.3.2 1.8 6.9-6.7 9.4l-1.1-7.5 7.8-1.9z"/><path class="st2" d="M1742.6 612.2l-13.7 9.1-2.7 9 22-10.1-5.6-8zm-19 3.4l-1.9 4.8 2.3 6.4 3.4-5.7-3.8-5.5z"/><g><path class="st56" d="M1728.9 589.4l-6.7 3.4-1.2-.8 7.7-3.7"/><path class="st1" d="M1714.8 597.4c-.3 1.3-.1 2.3.1 3.1l7.9-3.8c-.6-1.4-.9-3-.7-4.6l-4.7-2.3c-.8 2.6-2.1 5-2.6 7.6z"/><path class="st56" d="M1733.4 597.8c-3.1 1.6-5.6 2.1-7.2 2.4l-.8.1.8 1h.2c1.6-.3 4.3-.8 7.9-2.7"/><path class="st39" d="M1714.9 600.6c.4 1.3 1.3 2 1.8 2.6 1.3 1 2.7 1.8 4.2 2.4 1.9.7 3.8-1 4.9-1l.7-1.1c.2-.4.3-.9.1-1.3l-.6-1.3a9.9 9.9 0 01-3.3-4l-7.8 3.7z"/></g><g><path class="st32" d="M1750 625.9s9.2 7.2 4.2 21.1c-2.9 8.1-14.1 40.9-15.3 42-8.7 7.9-12.9-.1-12.8-5.3.1-4.4.3-23.8 5-36 3.7-9.6 8.7-25.2 18.9-21.8z"/></g><path class="st1" d="M1752.1 657s11.1-30.1-3.6-31.8c-13-1.5-19.9 26-19.9 26l23.5 5.8z"/><path class="st55" d="M1745.6 616.9l6.5 6.7s-18.7 17.7-21.7 26.2c-4.2 9.3-11.8 30.7-11.8 30.7l-7.7-2.7s11.7-36.9 18.8-42.8c4.7-5.2 15.9-18.1 15.9-18.1z"/></g><path class="st1" d="M1626.2 705.7c0 5.1.1 9.9.2 14.4.1 8.5.3 15.8.6 21.4.3 5.8.6 9.8 1.1 11.4 4.4 14.9 26.3 14.9 26.3 14.9h601.8l-.1-273.6c-90.5-.4-184.9-.8-272.8-1.3-37.3-.2-73.1-.3-106.4-.5-116.3-.5-201.6-.9-210.7-.9-20.6 0-30.7 10.7-35.1 17.8-1.9 3.1-3 6.7-3 10.3 0 1.3-.1 3-.1 5 10.7-.1 132.4-1.1 132.4.8h-2.5l-.6 107.8c-50.5 9.5-81.9 69.3-131.1 72.5zm178.4-69.4l.6-109.2h259.7c1 .3 2 .5 3.1.5h188.2c1.1 0-.6 108.7-.6 108.7h-451zm-129.7-100.6c-11.7 0-21.2 9.7-21.2 21.5v20.1c0 11.9 9.5 21.5 21.2 21.5v-63.1z"/><path d="M1940.3 720.4H2041c3.8 0 7-3.1 7-7v-11.3c0-3.8-3.1-7-7-7h-100.6c-3.8 0-7 3.1-7 7v11.3c0 3.9 3.1 7 6.9 7zm117.2-208.6v4.3c0 4.7 3.1 8.7 7.4 10 1 .3 2 .5 3.1.5h188.2l-.1-25.3h-188c-5.9 0-10.6 4.7-10.6 10.5z" opacity=".45" fill="#fff"/><path class="st1" d="M1983.2 496h-106.4v-12.9h106.4V496z"/><path class="st58" d="M1925.6 763.2v-38.5c0-19.7-16-35.7-35.7-35.7h-32.5c-19.7 0-35.7 16-35.7 35.7v38.5h103.9z"/><g><circle class="st3" cx="1873.6" cy="748" r="44.9"/><circle class="st58" cx="1873.6" cy="748" r="32.9"/><circle class="st58" cx="1873.6" cy="748" r="33"/><circle cx="1873.6" cy="748" r="26.5" opacity=".86" fill="#fff"/><circle cx="1873.6" cy="748" r="12.7" fill="#044752"/></g><path class="st3" d="M2238.6 737.8h-17.5v-7.3h17.5v7.3zM2021.8 737.8h-17.5v-7.3h17.5v7.3zM1689.9 737.8h-17.5v-7.3h17.5v7.3zM1643.6 715.9s-.3 13.9-1.7 15.9c-2.8 3.9-8.9 5.4-16 5.1v-21h17.7z"/><path class="st1" d="M1653.7 557.2v20.1c0 11.9 9.5 21.5 21.2 21.5v-63.2c-11.7.1-21.2 9.8-21.2 21.6z"/></g></g></svg>