<svg xmlns="http://www.w3.org/2000/svg" height="405.31" width="1000" id="svg2904" version="1.1">
  <defs id="defs1768">
    <clipPath id="clip-path">
      <circle id="circle1588" r="54" cy="222" cx="296" class="cls-1"/>
    </clipPath>
    <clipPath id="clip-path-2">
      <path id="path1591" d="M300.58 200.89a3.3 3.3 0 00-2.67 1.83c-.74 1.46-.55 5.13-.55 5.13l-.06 2.8.08.8 4.08.53.57.08.13-1.27v-.1l.48-4.74.23-2.31v-.21h-.3c-1.13.15-1.99-2.54-1.99-2.54z" class="cls-1"/>
    </clipPath>
    <clipPath id="clip-path-3">
      <path id="path1594" d="M303.43 200.12a7.79 7.79 0 018 4c2.32 3.84 1 6.87 1 6.87-1 3.66-2.11 16.34-2.53 20.78h-16.19s2.2-22.35 2.38-25.46c.23-4 4.82-6.06 4.82-6.06.63.03 2.52-.13 2.52-.13z" class="cls-1"/>
    </clipPath>
    <clipPath id="clip-path-4">
      <path id="path1680" d="M302.77 212c.38.11 7.23 2.79 7.23 2.79a12.2 12.2 0 001.73-5.46c.18-2.87-2.09-7.84-6.05-3.84-1.32 1.34-2.91 6.51-2.91 6.51z" fill="url(#Drop_4)"/>
    </clipPath>
    <clipPath id="clip-path-5">
      <circle id="circle1683" r="54" cy="516" cx="873" class="cls-1"/>
    </clipPath>
    <clipPath id="clip-path-6">
      <path id="rect1686" class="cls-1" d="M882 515h7.7v6.51H882z"/>
    </clipPath>
    <clipPath id="clip-path-8">
      <circle id="circle1689" r="54" cy="222" cx="678" class="cls-1"/>
    </clipPath>
    <clipPath id="clip-path-9">
      <circle id="circle1692" r="54" cy="348" cx="118" class="cls-1"/>
    </clipPath>
    <clipPath id="clip-path-10">
      <circle id="circle1765" r="54" cy="452" cx="481" class="cls-1"/>
    </clipPath>
    <pattern patternUnits="userSpaceOnUse" patternTransform="matrix(.32 0 0 .32 -81.56 125.2)" height="50" width="50" data-name="Drop 4" id="Drop_4">
      <path id="rect1505" class="cls-1" d="M0 0h50v50H0z"/>
      <path id="rect1507" class="cls-3" d="M0 0h50v50H0z"/>
      <path id="path1509" d="M5.69 5.7A1.28 1.28 0 014.43 7a1.27 1.27 0 01-1.3-1.25L3.1 4a1.27 1.27 0 011.25-1.3A1.28 1.28 0 015.66 4z" class="cls-4"/>
      <path id="path1511" d="M18.87 12.54a1.18 1.18 0 01-1.26 1.06 1.18 1.18 0 01-1.3-1v-1.37a1.18 1.18 0 011.25-1.06 1.18 1.18 0 011.3 1z" class="cls-4"/>
      <path id="path1513" d="M23.58 2.45a1.17 1.17 0 01-1.26 1 1.18 1.18 0 01-1.3-1V1.08a1.16 1.16 0 011.25-1 1.17 1.17 0 011.3 1z" class="cls-4"/>
      <path id="path1515" d="M9.86 11.06a1.17 1.17 0 01-1.26 1 1.18 1.18 0 01-1.3-1V9.69a1.17 1.17 0 011.23-1.01 1.16 1.16 0 011.3 1z" class="cls-4"/>
      <path id="path1517" d="M13.46 5.88a1.49 1.49 0 01-1.26 1.64 1.47 1.47 0 01-1.3-1.59V3.76a1.47 1.47 0 011.25-1.64 1.49 1.49 0 011.31 1.6z" class="cls-4"/>
      <path id="path1519" d="M4 15.18a1.28 1.28 0 01-1.26 1.3 1.29 1.29 0 01-1.3-1.25v-1.71a1.28 1.28 0 011.26-1.3A1.28 1.28 0 014 13.47z" class="cls-4"/>
      <path id="path1521" d="M19.44 22.92a1.17 1.17 0 01-1.26 1 1.17 1.17 0 01-1.29-1v-1.38a1.17 1.17 0 011.26-1.05 1.18 1.18 0 011.3 1z" class="cls-4"/>
      <path id="path1523" d="M25.42 21a1.17 1.17 0 01-1.26 1 1.18 1.18 0 01-1.3-1v-1.38a1.17 1.17 0 011.26-1.05 1.18 1.18 0 011.3 1z" class="cls-4"/>
      <path id="path1525" d="M10.08 23a1.17 1.17 0 01-1.26 1 1.17 1.17 0 01-1.3-1v-1.38a1.17 1.17 0 011.26-1 1.17 1.17 0 011.3 1z" class="cls-4"/>
      <path id="path1527" d="M13.67 18.8a1.47 1.47 0 01-1.25 1.64 1.47 1.47 0 01-1.3-1.59v-2.16a1.48 1.48 0 011.2-1.69 1.5 1.5 0 011.32 1.6z" class="cls-4"/>
      <path id="path1529" d="M26.73 12a1.48 1.48 0 01-1.25 1.65A1.48 1.48 0 0124.17 12V9.84a1.49 1.49 0 011.21-1.64 1.48 1.48 0 011.31 1.59z" class="cls-4"/>
      <path id="path1531" d="M32 5.34a1.27 1.27 0 01-1.25 1.3 1.28 1.28 0 01-1.31-1.25V3.68a1.28 1.28 0 011.26-1.3A1.28 1.28 0 0132 3.63z" class="cls-4"/>
      <path id="path1533" d="M47.07 12a1.17 1.17 0 01-1.26 1.05 1.18 1.18 0 01-1.3-1v-1.37a1.18 1.18 0 011.26-1.06 1.18 1.18 0 011.3 1z" class="cls-4"/>
      <path id="path1535" d="M48.06 5.54a1.18 1.18 0 01-1.26 1 1.18 1.18 0 01-1.3-1V4.17a1.19 1.19 0 011.27-1.06 1.17 1.17 0 011.29 1z" class="cls-4"/>
      <path id="path1537" d="M38.06 10.54a1.17 1.17 0 01-1.26 1.05 1.18 1.18 0 01-1.3-1V9.21a1.17 1.17 0 011.26-1.05 1.17 1.17 0 011.29 1z" class="cls-4"/>
      <path id="path1539" d="M41.66 4.36A1.48 1.48 0 0140.41 6a1.47 1.47 0 01-1.31-1.59V2.25A1.48 1.48 0 0140.31.6a1.5 1.5 0 011.31 1.6z" class="cls-4"/>
      <path id="path1541" d="M32.22 18.44A1.28 1.28 0 0131 19.75a1.28 1.28 0 01-1.3-1.26v-1.7a1.28 1.28 0 011.25-1.31 1.28 1.28 0 011.3 1.26z" class="cls-4"/>
      <path id="path1543" d="M47.65 22.4a1.17 1.17 0 01-1.26 1.05 1.16 1.16 0 01-1.3-1v-1.37A1.17 1.17 0 0146.32 20a1.18 1.18 0 011.3 1z" class="cls-4"/>
      <path id="path1545" d="M38.28 22.46A1.18 1.18 0 0137 23.52a1.18 1.18 0 01-1.3-1v-1.38a1.16 1.16 0 011.3-1.06 1.18 1.18 0 011.3 1z" class="cls-4"/>
      <path id="path1547" d="M41.88 18.28a1.48 1.48 0 01-1.25 1.64 1.47 1.47 0 01-1.31-1.59v-2.16a1.47 1.47 0 011.25-1.64 1.48 1.48 0 011.31 1.59z" class="cls-4"/>
      <path id="path1549" d="M4.16 26.53a1.28 1.28 0 01-1.26 1.3 1.28 1.28 0 01-1.3-1.26v-1.7a1.27 1.27 0 011.25-1.3 1.27 1.27 0 011.31 1.25z" class="cls-4"/>
      <path id="path1551" d="M13.69 29.64a1.17 1.17 0 01-1.26 1.05 1.16 1.16 0 01-1.29-1v-1.38a1.17 1.17 0 011.26-1 1.18 1.18 0 011.3 1z" class="cls-4"/>
      <path id="path1553" d="M24 29.23a1.17 1.17 0 01-1.26 1.05 1.17 1.17 0 01-1.29-1V27.9a1.17 1.17 0 011.26-1 1.17 1.17 0 011.3 1z" class="cls-4"/>
      <path id="path1555" d="M18.75 34.92a1.47 1.47 0 01-1.25 1.64A1.48 1.48 0 0116.19 35v-2.16a1.48 1.48 0 011.25-1.65 1.49 1.49 0 011.31 1.6z" class="cls-4"/>
      <path id="path1557" d="M4.38 38.45a1.28 1.28 0 01-1.26 1.3 1.28 1.28 0 01-1.3-1.25v-1.71A1.27 1.27 0 013 35.49a1.28 1.28 0 011.31 1.25z" class="cls-4"/>
      <path id="path1559" d="M19.87 45.19a1.17 1.17 0 01-1.26 1.05 1.18 1.18 0 01-1.3-1v-1.38a1.17 1.17 0 011.26-1 1.17 1.17 0 011.29 1z" class="cls-4"/>
      <path id="path1561" d="M26.52 36.68a1.18 1.18 0 01-1.26 1 1.18 1.18 0 01-1.3-1v-1.37a1.19 1.19 0 011.27-1.06 1.17 1.17 0 011.29 1z" class="cls-4"/>
      <path id="path1563" d="M13.53 46.42a1.18 1.18 0 01-1.26 1 1.18 1.18 0 01-1.3-1v-1.37A1.18 1.18 0 0112.21 44a1.18 1.18 0 011.3 1z" class="cls-4"/>
      <path id="path1565" d="M10.77 39.15a1.48 1.48 0 01-1.25 1.65 1.48 1.48 0 01-1.31-1.6v-2.16a1.47 1.47 0 011.21-1.64 1.47 1.47 0 011.31 1.6z" class="cls-4"/>
      <path id="path1567" d="M27.22 46.16A1.47 1.47 0 0126 47.8a1.48 1.48 0 01-1.31-1.59v-2.17a1.47 1.47 0 011.25-1.64 1.48 1.48 0 011.24 1.6z" class="cls-4"/>
      <path id="path1569" d="M32.45 30.55a1.28 1.28 0 01-1.26 1.3 1.27 1.27 0 01-1.3-1.25v-1.71a1.26 1.26 0 011.25-1.3 1.27 1.27 0 011.3 1.25z" class="cls-4"/>
      <path id="path1571" d="M49.21 33.2a1.17 1.17 0 01-1.26 1 1.16 1.16 0 01-1.3-1v-1.38a1.18 1.18 0 011.27-1.05 1.17 1.17 0 011.29 1z" class="cls-4"/>
      <path id="path1573" d="M41.22 41.37A1.17 1.17 0 0140 42.42a1.18 1.18 0 01-1.3-1v-1.37a1.18 1.18 0 011.27-1 1.16 1.16 0 011.29 1z" class="cls-4"/>
      <path id="path1575" d="M38.49 33.81a1.17 1.17 0 01-1.26 1 1.17 1.17 0 01-1.3-1v-1.38a1.17 1.17 0 011.26-1 1.17 1.17 0 011.3 1z" class="cls-4"/>
      <path id="path1577" d="M42.08 29.63a1.47 1.47 0 01-1.24 1.64 1.47 1.47 0 01-1.31-1.59v-2.16a1.49 1.49 0 011.25-1.65 1.48 1.48 0 011.3 1.6z" class="cls-4"/>
      <path id="path1579" d="M32.67 42.65A1.29 1.29 0 0131.41 44a1.28 1.28 0 01-1.3-1.26v-1.71a1.29 1.29 0 011.25-1.3A1.29 1.29 0 0132.64 41z" class="cls-4"/>
      <path id="path1581" d="M4.41 46.58a1.17 1.17 0 01-1.26 1.05 1.17 1.17 0 01-1.3-1v-1.37a1.17 1.17 0 011.26-1 1.18 1.18 0 011.3 1z" class="cls-4"/>
      <path id="path1583" d="M38.7 47.73a1.17 1.17 0 01-1.26 1.05 1.16 1.16 0 01-1.29-1v-1.37a1.18 1.18 0 011.26-1.06 1.18 1.18 0 011.3 1z" class="cls-4"/>
      <path id="path1585" d="M46.44 42.41a1.48 1.48 0 01-1.25 1.64 1.47 1.47 0 01-1.31-1.59V40.3a1.48 1.48 0 011.25-1.65 1.5 1.5 0 011.31 1.6z" class="cls-4"/>
    </pattern>
    <pattern patternUnits="userSpaceOnUse" patternTransform="matrix(.32 0 0 .32 -81.56 125.2)" height="50" width="50" data-name="Drop 4" id="Drop_4-3">
      <path id="rect1597" class="cls-1" d="M0 0h50v50H0z"/>
      <path id="rect1599" class="cls-3" d="M0 0h50v50H0z"/>
      <path id="path1601" d="M5.69 5.7A1.28 1.28 0 014.43 7a1.27 1.27 0 01-1.3-1.25L3.1 4a1.27 1.27 0 011.25-1.3A1.28 1.28 0 015.66 4z" class="cls-4"/>
      <path id="path1603" d="M18.87 12.54a1.18 1.18 0 01-1.26 1.06 1.18 1.18 0 01-1.3-1v-1.37a1.18 1.18 0 011.25-1.06 1.18 1.18 0 011.3 1z" class="cls-4"/>
      <path id="path1605" d="M23.58 2.45a1.17 1.17 0 01-1.26 1 1.18 1.18 0 01-1.3-1V1.08a1.16 1.16 0 011.25-1 1.17 1.17 0 011.3 1z" class="cls-4"/>
      <path id="path1607" d="M9.86 11.06a1.17 1.17 0 01-1.26 1 1.18 1.18 0 01-1.3-1V9.69a1.17 1.17 0 011.23-1.01 1.16 1.16 0 011.3 1z" class="cls-4"/>
      <path id="path1609" d="M13.46 5.88a1.49 1.49 0 01-1.26 1.64 1.47 1.47 0 01-1.3-1.59V3.76a1.47 1.47 0 011.25-1.64 1.49 1.49 0 011.31 1.6z" class="cls-4"/>
      <path id="path1611" d="M4 15.18a1.28 1.28 0 01-1.26 1.3 1.29 1.29 0 01-1.3-1.25v-1.71a1.28 1.28 0 011.26-1.3A1.28 1.28 0 014 13.47z" class="cls-4"/>
      <path id="path1613" d="M19.44 22.92a1.17 1.17 0 01-1.26 1 1.17 1.17 0 01-1.29-1v-1.38a1.17 1.17 0 011.26-1.05 1.18 1.18 0 011.3 1z" class="cls-4"/>
      <path id="path1615" d="M25.42 21a1.17 1.17 0 01-1.26 1 1.18 1.18 0 01-1.3-1v-1.38a1.17 1.17 0 011.26-1.05 1.18 1.18 0 011.3 1z" class="cls-4"/>
      <path id="path1617" d="M10.08 23a1.17 1.17 0 01-1.26 1 1.17 1.17 0 01-1.3-1v-1.38a1.17 1.17 0 011.26-1 1.17 1.17 0 011.3 1z" class="cls-4"/>
      <path id="path1619" d="M13.67 18.8a1.47 1.47 0 01-1.25 1.64 1.47 1.47 0 01-1.3-1.59v-2.16a1.48 1.48 0 011.2-1.69 1.5 1.5 0 011.32 1.6z" class="cls-4"/>
      <path id="path1621" d="M26.73 12a1.48 1.48 0 01-1.25 1.65A1.48 1.48 0 0124.17 12V9.84a1.49 1.49 0 011.21-1.64 1.48 1.48 0 011.31 1.59z" class="cls-4"/>
      <path id="path1623" d="M32 5.34a1.27 1.27 0 01-1.25 1.3 1.28 1.28 0 01-1.31-1.25V3.68a1.28 1.28 0 011.26-1.3A1.28 1.28 0 0132 3.63z" class="cls-4"/>
      <path id="path1625" d="M47.07 12a1.17 1.17 0 01-1.26 1.05 1.18 1.18 0 01-1.3-1v-1.37a1.18 1.18 0 011.26-1.06 1.18 1.18 0 011.3 1z" class="cls-4"/>
      <path id="path1627" d="M48.06 5.54a1.18 1.18 0 01-1.26 1 1.18 1.18 0 01-1.3-1V4.17a1.19 1.19 0 011.27-1.06 1.17 1.17 0 011.29 1z" class="cls-4"/>
      <path id="path1629" d="M38.06 10.54a1.17 1.17 0 01-1.26 1.05 1.18 1.18 0 01-1.3-1V9.21a1.17 1.17 0 011.26-1.05 1.17 1.17 0 011.29 1z" class="cls-4"/>
      <path id="path1631" d="M41.66 4.36A1.48 1.48 0 0140.41 6a1.47 1.47 0 01-1.31-1.59V2.25A1.48 1.48 0 0140.31.6a1.5 1.5 0 011.31 1.6z" class="cls-4"/>
      <path id="path1633" d="M32.22 18.44A1.28 1.28 0 0131 19.75a1.28 1.28 0 01-1.3-1.26v-1.7a1.28 1.28 0 011.25-1.31 1.28 1.28 0 011.3 1.26z" class="cls-4"/>
      <path id="path1635" d="M47.65 22.4a1.17 1.17 0 01-1.26 1.05 1.16 1.16 0 01-1.3-1v-1.37A1.17 1.17 0 0146.32 20a1.18 1.18 0 011.3 1z" class="cls-4"/>
      <path id="path1637" d="M38.28 22.46A1.18 1.18 0 0137 23.52a1.18 1.18 0 01-1.3-1v-1.38a1.16 1.16 0 011.3-1.06 1.18 1.18 0 011.3 1z" class="cls-4"/>
      <path id="path1639" d="M41.88 18.28a1.48 1.48 0 01-1.25 1.64 1.47 1.47 0 01-1.31-1.59v-2.16a1.47 1.47 0 011.25-1.64 1.48 1.48 0 011.31 1.59z" class="cls-4"/>
      <path id="path1641" d="M4.16 26.53a1.28 1.28 0 01-1.26 1.3 1.28 1.28 0 01-1.3-1.26v-1.7a1.27 1.27 0 011.25-1.3 1.27 1.27 0 011.31 1.25z" class="cls-4"/>
      <path id="path1643" d="M13.69 29.64a1.17 1.17 0 01-1.26 1.05 1.16 1.16 0 01-1.29-1v-1.38a1.17 1.17 0 011.26-1 1.18 1.18 0 011.3 1z" class="cls-4"/>
      <path id="path1645" d="M24 29.23a1.17 1.17 0 01-1.26 1.05 1.17 1.17 0 01-1.29-1V27.9a1.17 1.17 0 011.26-1 1.17 1.17 0 011.3 1z" class="cls-4"/>
      <path id="path1647" d="M18.75 34.92a1.47 1.47 0 01-1.25 1.64A1.48 1.48 0 0116.19 35v-2.16a1.48 1.48 0 011.25-1.65 1.49 1.49 0 011.31 1.6z" class="cls-4"/>
      <path id="path1649" d="M4.38 38.45a1.28 1.28 0 01-1.26 1.3 1.28 1.28 0 01-1.3-1.25v-1.71A1.27 1.27 0 013 35.49a1.28 1.28 0 011.31 1.25z" class="cls-4"/>
      <path id="path1651" d="M19.87 45.19a1.17 1.17 0 01-1.26 1.05 1.18 1.18 0 01-1.3-1v-1.38a1.17 1.17 0 011.26-1 1.17 1.17 0 011.29 1z" class="cls-4"/>
      <path id="path1653" d="M26.52 36.68a1.18 1.18 0 01-1.26 1 1.18 1.18 0 01-1.3-1v-1.37a1.19 1.19 0 011.27-1.06 1.17 1.17 0 011.29 1z" class="cls-4"/>
      <path id="path1655" d="M13.53 46.42a1.18 1.18 0 01-1.26 1 1.18 1.18 0 01-1.3-1v-1.37A1.18 1.18 0 0112.21 44a1.18 1.18 0 011.3 1z" class="cls-4"/>
      <path id="path1657" d="M10.77 39.15a1.48 1.48 0 01-1.25 1.65 1.48 1.48 0 01-1.31-1.6v-2.16a1.47 1.47 0 011.21-1.64 1.47 1.47 0 011.31 1.6z" class="cls-4"/>
      <path id="path1659" d="M27.22 46.16A1.47 1.47 0 0126 47.8a1.48 1.48 0 01-1.31-1.59v-2.17a1.47 1.47 0 011.25-1.64 1.48 1.48 0 011.24 1.6z" class="cls-4"/>
      <path id="path1661" d="M32.45 30.55a1.28 1.28 0 01-1.26 1.3 1.27 1.27 0 01-1.3-1.25v-1.71a1.26 1.26 0 011.25-1.3 1.27 1.27 0 011.3 1.25z" class="cls-4"/>
      <path id="path1663" d="M49.21 33.2a1.17 1.17 0 01-1.26 1 1.16 1.16 0 01-1.3-1v-1.38a1.18 1.18 0 011.27-1.05 1.17 1.17 0 011.29 1z" class="cls-4"/>
      <path id="path1665" d="M41.22 41.37A1.17 1.17 0 0140 42.42a1.18 1.18 0 01-1.3-1v-1.37a1.18 1.18 0 011.27-1 1.16 1.16 0 011.29 1z" class="cls-4"/>
      <path id="path1667" d="M38.49 33.81a1.17 1.17 0 01-1.26 1 1.17 1.17 0 01-1.3-1v-1.38a1.17 1.17 0 011.26-1 1.17 1.17 0 011.3 1z" class="cls-4"/>
      <path id="path1669" d="M42.08 29.63a1.47 1.47 0 01-1.24 1.64 1.47 1.47 0 01-1.31-1.59v-2.16a1.49 1.49 0 011.25-1.65 1.48 1.48 0 011.3 1.6z" class="cls-4"/>
      <path id="path1671" d="M32.67 42.65A1.29 1.29 0 0131.41 44a1.28 1.28 0 01-1.3-1.26v-1.71a1.29 1.29 0 011.25-1.3A1.29 1.29 0 0132.64 41z" class="cls-4"/>
      <path id="path1673" d="M4.41 46.58a1.17 1.17 0 01-1.26 1.05 1.17 1.17 0 01-1.3-1v-1.37a1.17 1.17 0 011.26-1 1.18 1.18 0 011.3 1z" class="cls-4"/>
      <path id="path1675" d="M38.7 47.73a1.17 1.17 0 01-1.26 1.05 1.16 1.16 0 01-1.29-1v-1.37a1.18 1.18 0 011.26-1.06 1.18 1.18 0 011.3 1z" class="cls-4"/>
      <path id="path1677" d="M46.44 42.41a1.48 1.48 0 01-1.25 1.64 1.47 1.47 0 01-1.31-1.59V40.3a1.48 1.48 0 011.25-1.65 1.5 1.5 0 011.31 1.6z" class="cls-4"/>
    </pattern>
    <pattern patternUnits="userSpaceOnUse" patternTransform="rotate(-32.33 522.71 193.12) scale(.41)" height="26.21" width="26.21" data-name="Horizontal line 2" id="Horizontal_line_2">
      <path id="rect1695" class="cls-1" d="M0 0h26.21v26.21H0z"/>
      <path id="rect1697" class="cls-5" d="M0 21.62h26.21v4.59H0z"/>
      <path id="rect1699" class="cls-5" d="M0 12.83h26.21v4.79H0z"/>
      <path id="rect1701" class="cls-5" d="M0 4.04h26.21v4.79H0z"/>
      <path id="rect1703" class="cls-6" d="M0 0h26.21v.04H0z"/>
      <path id="rect1705" class="cls-4" d="M0 .04h26.21v4H0z"/>
      <path id="rect1707" class="cls-4" d="M0 8.83h26.21v4H0z"/>
      <path id="rect1709" class="cls-4" d="M0 17.62h26.21v4H0z"/>
    </pattern>
    <pattern patternUnits="userSpaceOnUse" patternTransform="matrix(.41 0 0 .41 -37.54 228.67)" height="26.21" width="26.21" data-name="Horizontal line 2" id="Horizontal_line_2-3">
      <path id="rect1712" class="cls-1" d="M0 0h26.21v26.21H0z"/>
      <path id="rect1714" class="cls-5" d="M0 21.62h26.21v4.59H0z"/>
      <path id="rect1716" class="cls-5" d="M0 12.83h26.21v4.79H0z"/>
      <path id="rect1718" class="cls-5" d="M0 4.04h26.21v4.79H0z"/>
      <path id="rect1720" class="cls-6" d="M0 0h26.21v.04H0z"/>
      <path id="rect1722" class="cls-4" d="M0 .04h26.21v4H0z"/>
      <path id="rect1724" class="cls-4" d="M0 8.83h26.21v4H0z"/>
      <path id="rect1726" class="cls-4" d="M0 17.62h26.21v4H0z"/>
    </pattern>
    <pattern patternUnits="userSpaceOnUse" patternTransform="matrix(.19 0 0 .19 64 224.17)" height="50" width="50" data-name="Horizontal line 5" id="Horizontal_line_5">
      <path id="rect1729" class="cls-1" d="M0 0h50v50H0z"/>
      <path id="rect1731" class="cls-7" d="M0 0h50v6.27H0z"/>
      <path id="rect1733" class="cls-4" d="M0 6.27h50v6.27H0z"/>
      <path id="rect1735" class="cls-7" d="M0 12.53h50v6.27H0z"/>
      <path id="rect1737" class="cls-4" d="M0 18.8h50v6.27H0z"/>
      <path id="rect1739" class="cls-7" d="M0 25.06h50v6.27H0z"/>
      <path id="rect1741" class="cls-4" d="M0 31.33h50v6.27H0z"/>
      <path id="rect1743" class="cls-7" d="M0 37.59h50v6.27H0z"/>
      <path id="rect1745" class="cls-4" d="M0 43.73h50V50H0z"/>
    </pattern>
    <pattern patternUnits="userSpaceOnUse" patternTransform="matrix(-.41 0 0 .41 326.37 228.67)" height="26.21" width="26.21" data-name="Horizontal line 2" id="Horizontal_line_2-11">
      <path id="rect1748" class="cls-1" d="M0 0h26.21v26.21H0z"/>
      <path id="rect1750" class="cls-5" d="M0 21.62h26.21v4.59H0z"/>
      <path id="rect1752" class="cls-5" d="M0 12.83h26.21v4.79H0z"/>
      <path id="rect1754" class="cls-5" d="M0 4.04h26.21v4.79H0z"/>
      <path id="rect1756" class="cls-6" d="M0 0h26.21v.04H0z"/>
      <path id="rect1758" class="cls-4" d="M0 .04h26.21v4H0z"/>
      <path id="rect1760" class="cls-4" d="M0 8.83h26.21v4H0z"/>
      <path id="rect1762" class="cls-4" d="M0 17.62h26.21v4H0z"/>
    </pattern>
    <style id="style1503">
      .cls-1,.cls-20,.cls-21,.cls-34,.cls-39,.cls-43,.cls-44,.cls-45,.cls-52{fill:none}.cls-3,.cls-51,.cls-56{fill:#2ed1ff}.cls-4,.cls-47,.cls-50{fill:#fff}.cls-5{fill:#9aed66}.cls-6{fill:#0bf}.cls-7{fill:#004753}.cls-13{fill:#f2cfc5}.cls-14{fill:#af8186}.cls-15{fill:#84455e}.cls-15,.cls-59,.cls-65{opacity:.28}.cls-16{fill:#1a4652}.cls-46,.cls-62{opacity:.18}.cls-46,.cls-48,.cls-51,.cls-55,.cls-62,.cls-72{mix-blend-mode:multiply}.cls-20,.cls-21,.cls-43{stroke:#fff}.cls-20,.cls-21,.cls-34,.cls-43,.cls-44,.cls-45,.cls-52{stroke-miterlimit:10}.cls-20{stroke-width:4.55px}.cls-21,.cls-39{stroke-linecap:round}.cls-21{stroke-width:.5px}.cls-54{fill:#194451}.cls-24{fill:url(#Drop_4-3)}.cls-32{fill:#e2b9a3}.cls-33{clip-path:url(#clip-path-6)}.cls-34{stroke:#9aed66}.cls-34,.cls-44{stroke-width:2px}.cls-35{fill:#054752}.cls-36,.cls-48,.cls-49{fill:#1c4651}.cls-39,.cls-44,.cls-45{stroke:#2ed1ff}.cls-39{stroke-linejoin:round}.cls-43{stroke-width:.25px}.cls-46{fill:#83455e}.cls-47,.cls-48,.cls-49,.cls-51,.cls-56{opacity:.45}.cls-50{opacity:.86}.cls-52{stroke:#000;stroke-width:.59px}.cls-55{opacity:.49}.cls-58{fill:#e7cdc3}.cls-59,.cls-62,.cls-66{fill:#76465d}.cls-61{fill:#304852}.cls-63{fill:url(#Horizontal_line_2-3)}.cls-64{fill:#d5d5d5}.cls-67{fill:#d18b3b}.cls-69,.cls-72{fill:#d8b893}.cls-72{opacity:.67}.cls-73{fill:url(#Horizontal_line_5)}
    </style>
  </defs>
  <g transform="translate(.5 -166)" id="g2902" style="isolation:isolate">
    <g data-name="Calque 1" id="Calque_1">
      <path id="path1774" d="M261 262.74l34.88 33.92a3.2 3.2 0 004.58-.11l32.24-34.73a3.2 3.2 0 00-2.39-5.38l-67.12.8a3.2 3.2 0 00-2.19 5.5z" class="cls-4"/>
      <path id="path1776" d="M296.24 168a54 54 0 11-54 54 54 54 0 0154-54m0-2a56 56 0 1056 56 56.06 56.06 0 00-56-56z" class="cls-4"/>
      <g id="g1924" clip-path="url(#clip-path)">
        <circle id="circle1778" r="54" cy="222" cx="296" class="cls-4"/>
        <rect id="rect1780" transform="rotate(8.44 297.33 219.73)" rx="7.91" height="89.24" width="48.99" y="175.26" x="273" fill="#f3f4f7"/>
        <path id="path1782" d="M315.88 177.35a4.18 4.18 0 01-4.75 3.53l-14.77-2.19a4.19 4.19 0 01-3.53-4.75" fill="#e9ebf0"/>
        <path id="path1784" d="M301.29 216.62h.17a1.84 1.84 0 00.53-.08 1.57 1.57 0 00.3-.12h.06a2 2 0 00.86-.88 2.11 2.11 0 00.22-.79 2 2 0 00-1.91-2.14h-.12a2 2 0 00-2 1.91 1.91 1.91 0 000 .48 2 2 0 001.89 1.62z" class="cls-13"/>
        <path id="path1786" d="M287.93 212.9c.55.08.8.11.83 0 .03-.11-.27-.2-.58-.32-.31-.12-.53-.4-.44-.68a6.23 6.23 0 00.95.31 7.4 7.4 0 01.73.29c.08 0 .64.18.82.21a41.41 41.41 0 009-.14 8.3 8.3 0 012.25 0v4a12.27 12.27 0 01-1.89.06 35.81 35.81 0 01-8-1c-.37-.08-.51-.14-.73-.18-.9-.19-1.89-.07-2.85-.28a15.87 15.87 0 01-1.59-.37c-.09-.08 0-.25.18-.24l1.1.12c.06 0 .06 0 0-.08s-.82-.15-1.4-.3c-.34-.09-.59-.18-.54-.35.05-.17.62-.05 1.1.05a4 4 0 00.68.12v-.11c-.25-.09-.73-.2-1.2-.31h-.14a.82.82 0 01-.34-.16.25.25 0 01-.05-.15c.09-.41 1.34.14 1.85.14a.05.05 0 000-.1c-.19-.09-1.24-.23-1.68-.39-.24-.09-.22-.46.15-.41.64.07 1.34.19 1.79.27z" class="cls-14"/>
        <path id="polygon1788" class="cls-15" d="M290.17 215.44l7.11-2.16-4.86.45-3.41.58.23 1.03z"/>
        <path id="polygon1790" class="cls-16" d="M294.32 214.46l-7.1-.58-6.3 5.73 9.51 1.37z"/>
        <path id="polygon1792" class="cls-16" d="M280.92 219.61l-3.55-9.28 7.9-2.52 1.95 6.07z"/>
        <path id="polygon1794" class="cls-4" d="M281.22 218.12l-2.93-7.66 6.58-1.74 1.62 5.48z"/>
        <path id="path1796" d="M328 270.83a71 71 0 01-25.42 5.17c-9.81.24-26.37-2.4-16.72-7.92 5.86-3.35 31.28.58 31.28.58s9.93 1.97 10.86 2.17z" style="mix-blend-mode:multiply" opacity=".18" fill="#84455e"/>
        <path id="path1798" d="M301.23 218c.08-.12.3-.49.61-1.09a28.22 28.22 0 002.6-7.66 24.71 24.71 0 00.37-3.08v-.74-.58-.55s-2.7-.1-4.83-.14H297.56v.54l-.16 4.52-.22 6.05-.07 2.13.81.15 2.31.42c.24 0 .45.07.61.11l.33.06z" class="cls-13"/>
        <path id="path1800" d="M301.64 200.86a3.57 3.57 0 013.24 3.9 3.64 3.64 0 01-4 3.15 3.55 3.55 0 01-3.24-3.89 3.63 3.63 0 014-3.16z" class="cls-13"/>
        <g id="g1830" clip-path="url(#clip-path-2)">
          <path id="rect1802" transform="rotate(-6.16 284.07 216.11)" fill="#61d2a4" d="M261.36 202.65h45.74v27.21h-45.74z"/>
          <path id="line1804" class="cls-20" d="M305.39 200.7l-45.27 6"/>
          <path id="line1806" class="cls-20" d="M305.68 202.87l-45.27 6"/>
          <path id="line1808" class="cls-20" d="M305.97 205.03l-45.28 6.01"/>
          <path id="line1810" class="cls-20" d="M306.26 207.2l-45.28 6"/>
          <path id="line1812" class="cls-20" d="M306.54 209.37l-45.27 6"/>
          <path id="line1814" class="cls-20" d="M306.83 211.53l-45.27 6.01"/>
          <path id="line1816" class="cls-20" d="M307.12 213.7l-45.28 6"/>
          <path id="line1818" class="cls-20" d="M307.4 215.87l-45.27 6"/>
          <path id="line1820" class="cls-20" d="M307.69 218.03l-45.27 6.01"/>
          <path id="line1822" class="cls-20" d="M307.98 220.2l-45.28 6"/>
          <path id="line1824" class="cls-20" d="M308.27 222.37l-45.28 6"/>
          <path id="line1826" class="cls-20" d="M308.55 224.53l-45.27 6.01"/>
          <path id="path1828" d="M303.23 203a2.42 2.42 0 01-2.14 2.66c-1.32.14-3.36-.51-3.5-1.83-.14-1.32 1.66-2.82 3-3a2.41 2.41 0 012.64 2.17z" class="cls-1"/>
        </g>
        <path id="path1832" d="M292.76 266.11l2.59.65c2.58-6.13 4-10.28 4.49-11.93a5.48 5.48 0 00.2-.79 13.17 13.17 0 00-.76-3.84v-.13s-1.76-.82-2.72-1.15l-.21-.07h-.13c-.05 0-1.35-.13-1.62-.11h-.11s0 .49-.1 1.31c-.26 2.52-1.69 15.77-1.63 16.06z" class="cls-16"/>
        <path id="path1834" d="M294.49 248.7v.11a8.12 8.12 0 002.1 1.25c1.22.62 2.52 1.23 2.56 1.23a8 8 0 000-.83l.11-.26c.62-1.38 2.53-5.23 3-7.67a2.17 2.17 0 010-.25 82.82 82.82 0 00.85-8.83v-.14c-.29.15-4.43-2.59-6.32-2.75-.26 0-2.1-.74-2.18-.74-.08 0-.13 17.18-.12 18.88z" class="cls-16"/>
        <path id="path1836" d="M292.2 266.86c.42-.31.76-.13.74.55a.6.6 0 00.59.71c1.31.21 1.49-.4 1.49-.4s.54 2.25-.52 2.41c-.47.07-1.89.18-3.24.21-1.52 0-2.94.22-3-.6 0-.37 1.33-.81 2.42-1.62.47-.35 1.21-1.03 1.52-1.26z" class="cls-16"/>
        <path id="line1838" class="cls-21" d="M291.85 267.11l.7.65"/>
        <path id="line1840" class="cls-21" d="M291.33 267.53l.65.62"/>
        <path id="line1842" class="cls-21" d="M290.81 267.95l.6.6"/>
        <path id="line1844" class="cls-21" d="M290.29 268.37l.55.57"/>
        <path id="path1846" d="M294.66 230.29l1.46 16.44.13 1.84a2.67 2.67 0 00.05.28c.06.28.15.72.29 1.21a10 10 0 00.57 1.65 9.89 9.89 0 002.68 3.12 5.48 5.48 0 00.2-.79 13.17 13.17 0 00-.76-3.84c.62-1.38 2.53-5.23 3-7.67a2.17 2.17 0 010-.25 82.82 82.82 0 00.85-8.83z" style="mix-blend-mode:multiply" opacity=".42" fill="#194451"/>
        <path id="path1848" d="M297.21 231.15l3 17a7.25 7.25 0 00.89 2.77l4.34-1.38s1.9-4.48 1.76-7.7c-.23-5.29-.27-8.4-.27-8.4-.32.19-9.02-2.38-9.72-2.29z" class="cls-16"/>
        <path id="path1850" d="M306 222.22s2.14 3.9 2.17 5.57a17.34 17.34 0 01-1.18 7c-.14.34-7.84-.93-9.45-2a101.3 101.3 0 01-2.92-2.43l.92-7.61z" class="cls-16"/>
        <g id="g1854" clip-path="url(#clip-path-3)">
          <path id="polygon1852" class="cls-24" d="M278.53 231.81h45.74l.35-33.48h-45.74z"/>
        </g>
        <path id="path1856" d="M300.86 213.88c.39.1 7 3.55 7 3.55s4.56-4.08 4.37-7.24c-.13-2.11-1.61-8.59-6.6-4.71-1.95 1.52-4.77 8.4-4.77 8.4z" class="cls-1"/>
        <path id="path1858" d="M294.28 192s.71-.25 1.08 1.37c.23 1-.06 1.65-.64 1.6-.58-.05-1.78-2.77-.44-2.97z" class="cls-15"/>
        <path id="path1860" d="M294.31 192s.71-.25 1.08 1.36c.23 1-.06 1.65-.63 1.61-.57-.04-1.76-2.77-.45-2.97z" stroke="#1a4652" stroke-width=".5" stroke-miterlimit="10" fill="none"/>
        <path id="path1862" d="M305.74 200.45c.08.24-1.74 1.57-3 1.73a2.7 2.7 0 01-2.77-.79 1.62 1.62 0 01-.25-.47l-1.13-2.82-.07-.16-.4-4.48 4.26.57a33 33 0 013.36 6.42z" class="cls-14"/>
        <path id="path1864" d="M300.05 201.53a1.46 1.46 0 01-.25-.48l-1.14-2.81 2-1.12s1.19 3.65-.61 4.41z" opacity=".35" fill="#84455e"/>
        <path id="path1866" d="M295.51 195.33a4.36 4.36 0 00.21.79c.35 1.17.38 2 .81 2.15l.74.27a7.64 7.64 0 003.73-1.14l2.38-.43a57.19 57.19 0 00-3.47-6.34c-1-1.68-2.51-2.06-3.57-1.61a3.08 3.08 0 00-1.94 2.92l.09 3.17z" class="cls-14"/>
        <path id="path1868" d="M295.66 195.89c0 .15.22.79.23.81.24 0 1.2-.56 1-1.07z" class="cls-4"/>
        <path id="path1870" d="M295.63 193.39a.85.85 0 001.09-.25 1 1 0 00-.55-.11.56.56 0 00-.54.36z" class="cls-16"/>
        <path id="path1872" d="M293.25 189.85l5.8-.64 1.42 2.29-.48.28s-5.82-.36-6.66-1.09z" class="cls-15"/>
        <path id="path1874" d="M295.79 191.67s.8-.28 1.21 1.53c.25 1.1-.06 1.85-.71 1.8-.65-.05-2-3.1-.5-3.33z" stroke-width=".75" stroke="#1a4652" stroke-miterlimit="10" fill="none"/>
        <path id="path1876" d="M298.34 190.31s2.54 4.85 3.65 4.8c1.11-.05.81-1.19.81-1.19s-1.35-3.27-1.8-4.25c-.63-1.39-1.81-1.89-4.2-1.55-2.39.34-4 .69-3.72 2 .21.94 1.5 1.75 5.26.19z" class="cls-16"/>
        <path id="path1878" d="M296.89 193s2.36.12 3 .1c.64-.02 1.32 1.28.1 1.59" stroke-width=".75" stroke="#1a4652" stroke-linecap="round" stroke-miterlimit="10" fill="none"/>
        <path id="line1880" stroke="#1a4652" stroke-width=".5" stroke-linecap="round" stroke-miterlimit="10" fill="none" d="M295.1 193.15l-.61.02"/>
        <path id="path1882" d="M310.23 210.61l1.69 1s-4 11.79-7.87 11.85a43.69 43.69 0 01-9.17-1.26l.2-2.33 8.24-1.19z" class="cls-15"/>
        <path id="path1884" d="M304.62 207.24l-3.87 12.67s3.44 1.65 3.63 1.76a27.27 27.27 0 007-12.38c0-.06-5.9-1.8-6.76-2.05z" class="cls-14"/>
        <path id="path1886" d="M309.19 205.28a3.54 3.54 0 11-4.58 2 3.51 3.51 0 014.58-2z" class="cls-13"/>
        <path id="path1888" d="M305.47 220a2 2 0 11-1.93-2.11 2 2 0 011.93 2.11z" class="cls-14"/>
        <path id="path1890" d="M290 218.35c.55.07.81.1.83 0 .02-.1-.27-.2-.58-.32-.31-.12-.54-.39-.45-.66a8.74 8.74 0 00.95.29 5.73 5.73 0 01.74.28 7.26 7.26 0 00.82.19 41 41 0 009-.26 8.55 8.55 0 012.25 0l.06 4a13 13 0 01-1.89.08 36.46 36.46 0 01-8-.88c-.37-.08-.51-.14-.73-.17-.91-.18-1.89 0-2.85-.24-.52-.11-1.24-.22-1.6-.35-.1-.08 0-.25.17-.24l1.11.1c.06 0 .05-.05 0-.08s-.82-.13-1.39-.28c-.34-.08-.6-.17-.55-.34.05-.17.62-.06 1.1 0a3.16 3.16 0 00.68.1c.05 0 0-.09 0-.11-.25-.08-.73-.18-1.21-.29h-.14a.82.82 0 01-.34-.16.25.25 0 01-.05-.15c.08-.41 1.34.12 1.85.12a.06.06 0 000-.11c-.18-.08-1.24-.21-1.67-.36-.25-.09-.24-.46.14-.41.55.06 1.25.18 1.75.25z" class="cls-14"/>
        <path id="path1892" d="M302.77 212c.38.11 7.23 2.79 7.23 2.79a12.2 12.2 0 001.73-5.46c.18-2.87-2.09-7.84-6.05-3.84-1.32 1.34-2.91 6.51-2.91 6.51z" class="cls-24"/>
        <g id="g1920" clip-path="url(#clip-path-4)">
          <path id="polygon1894" class="cls-24" d="M272.93 210.34l44.37 11.15 6.63-26.39-44.36-11.15z"/>
          <path id="line1896" class="cls-24" d="M323.46 196.65l-44.3-11.13"/>
          <path id="line1898" class="cls-24" d="M322.92 198.77l-44.29-11.13"/>
          <path id="line1900" class="cls-24" d="M322.39 200.89l-44.29-11.13"/>
          <path id="line1902" class="cls-24" d="M321.86 203.01l-44.3-11.13"/>
          <path id="line1904" class="cls-24" d="M321.32 205.13L277.03 194"/>
          <path id="line1906" class="cls-24" d="M320.79 207.25l-44.29-11.13"/>
          <path id="line1908" class="cls-24" d="M320.26 209.37l-44.3-11.13"/>
          <path id="line1910" class="cls-24" d="M319.73 211.49l-44.3-11.13"/>
          <path id="line1912" class="cls-24" d="M319.19 213.61l-44.29-11.13"/>
          <path id="line1914" class="cls-24" d="M318.66 215.73l-44.29-11.13"/>
          <path id="line1916" class="cls-24" d="M318.13 217.85l-44.3-11.13"/>
          <path id="line1918" class="cls-24" d="M317.59 219.97l-44.29-11.13"/>
        </g>
        <path id="path1922" d="M318.31 251.47a6.4 6.4 0 01-1.89 3.28l-15.08-3.56 1.81-4.71 3.38-.26s7.17 1.54 11.78 5.25z" class="cls-16"/>
      </g>
      <path id="path1926" d="M908.27 474.51l-34.88-33.92a3.2 3.2 0 00-4.58.12l-32.24 34.72a3.21 3.21 0 002.38 5.39l67.12-.81a3.21 3.21 0 002.2-5.5z" class="cls-4"/>
      <path id="path1928" d="M873 461.31a54 54 0 11-54 54 54 54 0 0154-54m0-2a56 56 0 1056 56 56.06 56.06 0 00-56-56z" class="cls-4"/>
      <g id="g2009" clip-path="url(#clip-path-5)">
        <circle id="circle1930" r="54" cy="516" cx="873" class="cls-4"/>
        <path id="path1932" d="M843.25 540.6c-.12 1.08 1.43 4.58 3.83 4.86a4.38 4.38 0 10-3.83-4.86z" class="cls-32"/>
        <path id="path1934" d="M876.93 542.51c-1.21 0-1.75 0-1.78-.24-.03-.24.66-.34 1.35-.48.93-.14 1.28-.65 1.19-1.27a13.85 13.85 0 01-2.14.3 13.61 13.61 0 00-1.65.35 17.62 17.62 0 01-1.82.13c-7.39-.27-17.48-3.1-19.07-3.64a18.4 18.4 0 00-4.79-.86l-1.5 8.6a27.4 27.4 0 004 .82c9.25 1.29 15 1.07 17.33.85.82 0 1.13-.11 1.63-.12 2-.05 4 .57 6.16.47a34.45 34.45 0 003.52-.2c.24-.13.12-.53-.28-.57-.79-.07-2-.13-2.39-.16-.13 0-.1-.12 0-.19s1.79 0 3.07-.11c.76-.07 1.32-.16 1.29-.54-.03-.38-1.31-.34-2.37-.31a8 8 0 01-1.48 0c-.11-.08 0-.22.13-.22.55-.1 1.61-.14 2.68-.22h.3a1.65 1.65 0 00.78-.22.54.54 0 00.17-.29c0-.92-2.91-.22-4-.4a.1.1 0 010-.21c.43-.13 2.72 0 3.7-.21.55-.1.66-.9-.17-.93-1.34-.13-2.87-.13-3.86-.13z" class="cls-32"/>
        <path id="path1936" d="M905.93 541.3c.31 1-.59 4.76-2.89 5.47a4.37 4.37 0 112.89-5.47z" class="cls-32"/>
        <path id="path1938" d="M873.15 549.29c1.18-.25 1.72-.37 1.71-.56-.01-.19-.71-.21-1.42-.22-.94 0-1.38-.41-1.4-1a16.11 16.11 0 002.16-.09 11.64 11.64 0 011.69 0c.19 0 1.44-.12 1.81-.21 7.22-1.6 16.63-6.22 18.09-7a18.45 18.45 0 014.55-1.72l3 8.19a26.8 26.8 0 01-3.79 1.53 79.33 79.33 0 01-16.88 4c-.82.1-1.14.09-1.63.18-2 .3-3.87 1.28-6 1.58-1.14.14-2.69.45-3.51.44-.25-.08-.21-.5.18-.62.76-.21 1.89-.48 2.32-.59.13 0 .08-.14 0-.19-.08-.05-1.77.33-3 .45-.75.07-1.32.09-1.36-.29-.04-.38 1.22-.58 2.28-.74a7.63 7.63 0 001.44-.27c.1-.1 0-.22-.16-.2-.56 0-1.61.16-2.67.28h-.3a1.68 1.68 0 01-.81-.07.56.56 0 01-.22-.26c-.13-.91 2.82-.74 3.86-1.11.1 0 .12-.21 0-.22-.45 0-2.69.46-3.68.48-.57 0-.81-.77 0-.95 1.26-.36 2.77-.64 3.74-.82z" class="cls-32"/>
        <g id="BlaBlaCar_Symbol_Blue_RGB">
          <g id="g1948" clip-path="url(#clip-path-6)" class="cls-33">
            <g id="g1946" clip-path="url(#clip-path-6)" class="cls-33">
              <path id="path1940" d="M889.67 519a2.17 2.17 0 00-2.5-1.78l.35-2-1.26-.22a11.75 11.75 0 00-.82 2.55 2.16 2.16 0 01.45 3.17 2 2 0 00.33.32 2.11 2.11 0 001.68.44 2.17 2.17 0 001.77-2.5" class="cls-3"/>
              <path id="path1942" d="M885.42 517.68a.59.59 0 010-.13 2.13 2.13 0 00-1.58-.35l.34-2-1.26-.22a12 12 0 00-.84 2.68 4 4 0 00.38 2.91 1.83 1.83 0 00.43.45 2.09 2.09 0 001.67.44 2.14 2.14 0 001.31-.76 1.47 1.47 0 01-.1-.13 4 4 0 01-.37-2.91" class="cls-4"/>
              <path id="path1944" d="M886.36 519a2.15 2.15 0 00-.92-1.43.59.59 0 000 .13 4 4 0 00.37 2.91 1.47 1.47 0 00.1.13 2.14 2.14 0 00.47-1.74" class="cls-5"/>
            </g>
          </g>
        </g>
        <path id="polyline1951" class="cls-34" d="M910.5 486.5l-40 39-34-13-15 33"/>
        <path id="polyline1953" class="cls-34" d="M910.5 495v-8.5h-8"/>
        <path id="path1955" d="M859.94 553.59s-2 6.31-1.92 22.49h15.64l1.27-4.09 2-18.37z" class="cls-35"/>
        <path id="path1957" d="M888.42 553.59s2 6.53 1.93 22.71l-15.65.08-1.27-4.25-2-18.54z" class="cls-35"/>
        <path id="path1959" d="M879.4 505.2s10.59 1.24 15.77 5.51c.13.1-2.77 16.87-2.77 16.87-2.08 7.84-3.25 24.37-3.42 27.12l-15 .06-.38-49.71c1.4-.05 5.8.15 5.8.15z" class="cls-36"/>
        <path id="path1961" d="M868.5 505.2s-10.56 1.24-15.74 5.51c-.12.1 2.77 14 2.77 14 2.08 7.84 3.15 27.27 3.71 30.25l27.76-.86-13.15-48.54c-1.01-.01-5.35-.36-5.35-.36z" class="cls-36"/>
        <path id="path1963" d="M883.08 481c-.25-2-2.19-5.15-4.26-3.61-.59-2.88-4.65-3.4-5.77-1.42-.21-2.95-3.49-3.62-5.73-2.45s-2.92 8.09-2.93 8.94a32 32 0 00.61 7.53c.43 1.43.58 3.28 2 4.12l7.1-.4a4.56 4.56 0 011 .18 5.75 5.75 0 002.51 0 4.57 4.57 0 003.85-2.9 18.88 18.88 0 001.62-9.99z" class="cls-36"/>
        <path id="path1965" d="M867.92 505.26a5.94 5.94 0 00.31 1.3 4.6 4.6 0 004.18 3.27 2 2 0 00.42 0h.08c4.79.18 6.2-2.27 6.54-4.24.81-4.84-.48-15.48-.48-15.48l-11 6.68v6.11z" class="cls-32"/>
        <path id="path1967" d="M869.3 499.39c.17.06 3.78 6.09 10.25 5.27v-6.83l-.35-4.79z" opacity=".25" fill="#84455e"/>
        <path id="path1969" d="M879.23 493.33s1.6-6.65-1.45-10.68c-3.63-4.79-10-2.63-11.35.15-1.79 3.8.08 12 .08 12z" class="cls-32"/>
        <path id="path1971" d="M865.87 487.66l.22 2.95c.14 5.12.65 9.86 4.79 10.11a15.06 15.06 0 001.66 0l-.12-15.5h-3.77a2.75 2.75 0 00-2.51 1.48 2.24 2.24 0 00-.28.85z" class="cls-32"/>
        <path id="path1973" d="M879.38 487.74l-.18 2.95c-.1 2.85-1.07 9.34-5.17 9.94a6.84 6.84 0 01-1.49.09l-.21-15.32h4.2a2.75 2.75 0 012.54 1.43 2.38 2.38 0 01.29.85z" class="cls-32"/>
        <path id="path1975" d="M879 488.58s.84-1.61 1.3-1c.46.61.12 2.71 0 3-.12.29-.15.92-.88 1-.73.08-1.18-1.14-1.1-1.62a4.74 4.74 0 01.68-1.38z" class="cls-32"/>
        <path id="path1977" d="M870.9 488.77a6.84 6.84 0 01-.14 4.48c-.12.41 2.18.36 2.18.36s-2.38 1.68-4.15.45c-1.77-1.23-2.59-6.06 2.11-5.29z" style="mix-blend-mode:multiply" opacity=".47" fill="#84455e"/>
        <path id="rect1979" class="cls-36" d="M871.06 489.7h1.78v.46h-1.78z"/>
        <path id="path1981" d="M876.93 492.11h-2.42a2.07 2.07 0 01-2.06-2.06v-.23a2.07 2.07 0 012.06-2.07h2.42a2.07 2.07 0 012.06 2.07v.23a2.06 2.06 0 01-2.06 2.06zm-2.42-3.89a1.6 1.6 0 00-1.6 1.6v.23a1.6 1.6 0 001.6 1.59h2.42a1.6 1.6 0 001.6-1.59v-.23a1.6 1.6 0 00-1.6-1.6z" class="cls-36"/>
        <path id="path1983" d="M869.43 492.16H867a2.07 2.07 0 01-2.07-2.07v-.22a2.07 2.07 0 012.07-2.07h2.41a2.07 2.07 0 012.07 2.07v.22a2.07 2.07 0 01-2.05 2.07zm-2.43-3.89a1.59 1.59 0 00-1.6 1.6v.22a1.59 1.59 0 001.6 1.6h2.41a1.6 1.6 0 001.6-1.6v-.22a1.6 1.6 0 00-1.6-1.6z" class="cls-36"/>
        <path id="path1985" d="M879.51 481.73a8.14 8.14 0 00-5-3c-1.42-.27-4.93-.07-5.69 1.25l-3 1.74c-.17 1.54 3 4.47 4.87 5a6.07 6.07 0 005-.53 2.57 2.57 0 003.63 1.49c1.59-1.08 1.08-4.54.19-5.95z" class="cls-36"/>
        <path id="path1987" d="M884.65 519.18c.92-.47 4.77-2.43 8.05-4.08l1.43-.72c2-1 3.53-1.74 3.57-1.71l.57 1a52.1 52.1 0 013.7 8.67 59.15 59.15 0 012.86 15.85v3.04c-.45.1-8 2.53-8 2.51L889 527.82l-3.79-7.62-.41-.82z" class="cls-36"/>
        <path id="path1989" d="M888.73 509.72a7.38 7.38 0 019.59 4 7.29 7.29 0 01-4 9.54 7.39 7.39 0 01-9.59-4 7.3 7.3 0 014-9.54z" class="cls-36"/>
        <path id="path1991" d="M863 516.65c-1-.44-4.87-2.26-8.21-3.79-.5-.23-6 .75-6.18 1.1-1.48 3-2 3.65-2.81 6.49a59.3 59.3 0 00-2.29 15.94v1.37c0 1.06.09 1.66.1 1.67.45.08 8 2.24 8.06 2.21l7.33-16.2 3.51-7.75.38-.84z" class="cls-36"/>
        <path id="path1993" d="M862.37 506.38c-.57-.52-12.41 3.85-13.81 7.66-1.4 3.81 1.13 5.69 5 7.08a7.38 7.38 0 009.43-4.39c1.35-3.8 2.38-7.62-.62-10.35z" class="cls-36"/>
        <path id="path1995" d="M864.37 486.38s-2-8 8-8 9.5 7.5 9.5 7.5" class="cls-39"/>
        <rect id="rect1997" rx="1.35" height="7" width="3" y="484.88" x="879.87" class="cls-3"/>
        <path id="path1999" d="M881.37 491.38s1 6-9 6" class="cls-39"/>
        <rect id="rect2001" rx="5.36" height="24" width="44" y="533" x="851" class="cls-3"/>
        <circle id="circle2003" r="10" cy="492" cx="848" class="cls-5"/>
        <path id="path2005" d="M858 492a10 10 0 01-10 10v-10z" class="cls-35"/>
        <path id="path2007" d="M839.93 497.91A10 10 0 00848 502v-10" class="cls-4"/>
      </g>
      <path id="polyline2011" stroke-width="60" stroke-linejoin="round" stroke="#fff" fill="none" d="M-.5 461.5h234l63-127h388l59 64h256"/>
      <path id="polyline2013" stroke="#e6e6e6" stroke-width="4" stroke-dasharray="12" stroke-linejoin="round" fill="none" d="M-.5 461.5h234l63-127h388l59 64h256"/>
      <path id="path2015" d="M642.12 263.16L677 297.08a3.2 3.2 0 004.58-.12l32.24-34.72a3.21 3.21 0 00-2.39-5.39l-67.12.81a3.2 3.2 0 00-2.19 5.5z" class="cls-4"/>
      <path id="path2017" d="M677.35 168.36a54 54 0 11-54 54 54 54 0 0154-54m0-2a56 56 0 1056 56 56.06 56.06 0 00-56-56z" class="cls-4"/>
      <g id="g2089" clip-path="url(#clip-path-8)">
        <circle id="circle2019" r="54" cy="222" cx="678" class="cls-4"/>
        <circle id="circle2021" r="3.43" cy="238.43" cx="685.55" class="cls-35"/>
        <circle id="circle2023" r="3.03" cy="238.43" cx="685.55" class="cls-43"/>
        <path id="path2025" d="M684.83 239.67l-.66-1v1h-.7v-2.57h1.1c.68 0 1 .4 1 .84a.76.76 0 01-.55.77l.71 1zm-.66-2v.55h.31c.21 0 .34-.08.34-.27s-.13-.28-.34-.28z" class="cls-4"/>
        <path id="path2027" d="M687.73 238.92a.79.79 0 01-.76.8v.28h-.32v-.23a.84.84 0 01-.8-.89h.62a.3.3 0 00.18.27v-.45c-.34-.11-.76-.25-.76-.77s.33-.69.76-.74v-.27h.35v.27a.77.77 0 01.76.83h-.62a.24.24 0 00-.14-.23v.41c.32.05.73.2.73.72zm-1.08-.88v-.3c-.08 0-.13.08-.13.15 0 .07.05.11.13.11zm.45.91a.19.19 0 00-.13-.17v.33c.1-.03.13-.11.13-.11z" class="cls-4"/>
        <path id="path2029" d="M704.66 216.5h-54.29a4.34 4.34 0 00-4.34 4.34v43.43a4.35 4.35 0 004.34 4.34H652v4.61a2.17 2.17 0 002.17 2.17h6.52a2.17 2.17 0 002.17-2.17v-4.61h29.31v4.61a2.17 2.17 0 002.17 2.17h6.52a2.17 2.17 0 002.17-2.17v-4.61h1.63a4.34 4.34 0 004.34-4.34v-43.43a4.34 4.34 0 00-4.34-4.34z" class="cls-35"/>
        <path id="path2031" d="M659.06 230.61a4.34 4.34 0 014.34-4.34h31.49a4.34 4.34 0 014.34 4.34v23.88a4.35 4.35 0 01-4.34 4.35H663.4a4.34 4.34 0 01-4.34-4.35z" class="cls-4"/>
        <circle id="circle2033" r="3.55" cy="242.55" cx="684.3" class="cls-3"/>
        <path id="path2035" d="M662.86 268.61v4.61a2.17 2.17 0 01-2.17 2.17h-6.52a2.17 2.17 0 01-2.17-2.17v-4.61z" class="cls-5"/>
        <path id="path2037" d="M703 268.61v4.61a2.17 2.17 0 01-2.17 2.17h-6.52a2.17 2.17 0 01-2.17-2.17v-4.61z" class="cls-5"/>
        <path id="path2039" d="M655.8 236h6.52a2.17 2.17 0 000-4.34h-6.52a2.17 2.17 0 100 4.34z" class="cls-3"/>
        <path id="path2041" d="M662.32 249.07h-6.52a2.17 2.17 0 100 4.34h6.52a2.17 2.17 0 000-4.34z" class="cls-3"/>
        <circle id="circle2043" r="8" cy="242.5" cx="684.5" class="cls-44"/>
        <path id="polyline2047" class="cls-45" d="M691.52 246.33l-7.02-3.83-6.5 4.36"/>
        <rect id="rect2049" rx=".4" height="1" width="5" y="216" x="653" class="cls-5"/>
        <rect id="rect2051" rx=".4" height="1" width="5" y="215" x="654" class="cls-5"/>
        <rect id="rect2053" rx=".4" height="1" width="5" y="214" x="654" class="cls-5"/>
        <rect id="rect2055" rx=".4" height="1" width="5" y="213" x="653" class="cls-5"/>
        <rect id="rect2057" rx=".4" height="1" width="5" y="212" x="653" class="cls-5"/>
        <rect id="rect2059" rx=".4" height="1" width="5" y="211" x="653" class="cls-5"/>
        <rect id="rect2061" rx=".4" height="1" width="5" y="216" x="666" class="cls-5"/>
        <rect id="rect2063" rx=".4" height="1" width="5" y="215" x="666" class="cls-5"/>
        <rect id="rect2065" rx=".4" height="1" width="5" y="214" x="666" class="cls-5"/>
        <rect id="rect2067" rx=".4" height="1" width="5" y="213" x="666" class="cls-5"/>
        <rect id="rect2069" rx=".4" height="1" width="5" y="212" x="665" class="cls-5"/>
        <rect id="rect2071" rx=".4" height="1" width="5" y="216" x="672" class="cls-5"/>
        <rect id="rect2073" rx=".4" height="1" width="5" y="215" x="673" class="cls-5"/>
        <rect id="rect2075" rx=".4" height="1" width="5" y="216" x="686" class="cls-5"/>
        <rect id="rect2077" rx=".4" height="1" width="5" y="215" x="686" class="cls-5"/>
        <rect id="rect2079" rx=".4" height="1" width="5" y="214" x="686" class="cls-5"/>
        <rect id="rect2081" rx=".4" height="1" width="5" y="213" x="686" class="cls-5"/>
        <rect id="rect2083" rx=".4" height="1" width="5" y="212" x="686" class="cls-5"/>
        <rect id="rect2085" rx=".4" height="1" width="5" y="216" x="692" class="cls-5"/>
        <rect id="rect2087" rx=".4" height="1" width="5" y="215" x="693" class="cls-5"/>
      </g>
      <circle id="circle2091" r="12.2" cy="193.43" cx="703.8" class="cls-35"/>
      <circle id="circle2093" r="10.76" cy="193.43" cx="703.8" class="cls-43"/>
      <path id="path2095" d="M701.26 197.82l-2.35-3.39v3.39h-2.48v-9.13h3.9c2.41 0 3.45 1.42 3.45 3a2.75 2.75 0 01-2 2.74l2.53 3.39zm-2.35-6.94v2H700c.76 0 1.22-.32 1.22-1 0-.68-.46-1-1.22-1z" class="cls-4"/>
      <path id="path2097" d="M711.56 195.16a2.77 2.77 0 01-2.7 2.83v.83h-1.13V198a3 3 0 01-2.87-3.16h2.22a1.07 1.07 0 00.65 1v-1.59c-1.22-.41-2.71-.91-2.71-2.74 0-1.63 1.19-2.47 2.71-2.64v-1h1.13v1a2.72 2.72 0 012.7 2.94h-2.22a.78.78 0 00-.48-.8v1.44c1.22.33 2.7.86 2.7 2.71zm-3.83-3.11V191c-.3.09-.47.26-.47.54s.19.38.47.51zm1.58 3.22a.72.72 0 00-.45-.62v1.17a.52.52 0 00.45-.55z" class="cls-4"/>
      <path id="path2099" d="M643.53 199.88H640V190h-.41v-3.45h4z" class="cls-3"/>
      <path id="path2101" d="M656.47 193.22c0 4.39-2.17 7-5.74 7-3.57 0-5.73-2.57-5.73-7s2.17-6.94 5.73-6.94c3.56 0 5.74 2.54 5.74 6.94zm-7.76 0c0 2.54.74 3.47 2 3.47s2-.93 2-3.47-.75-3.46-2-3.46-2 .91-2 3.46z" class="cls-3"/>
      <path id="path2103" d="M668.92 193.22c0 4.39-2.17 7-5.74 7-3.57 0-5.73-2.57-5.73-7s2.17-6.94 5.73-6.94c3.56 0 5.74 2.54 5.74 6.94zm-7.76 0c0 2.54.74 3.47 2 3.47s2-.93 2-3.47-.75-3.46-2-3.46-2 .91-2 3.46z" class="cls-3"/>
      <path id="path2105" d="M677.06 189.53a3.34 3.34 0 11-3.34-3.25 3.14 3.14 0 013.34 3.25zm-4.87 0a1.54 1.54 0 101.53-1.54 1.47 1.47 0 00-1.53 1.54zm8.18-3h1.77l-7.84 13.31h-1.78zm4.1 10.15a3.34 3.34 0 11-3.33-3.25 3.14 3.14 0 013.33 3.29zm-4.87 0a1.54 1.54 0 101.54-1.53 1.47 1.47 0 00-1.54 1.57z" class="cls-3"/>
      <path id="polygon2107" class="cls-46" d="M208.46 487.41l-157.97-.49 7.39-2.46 139.57-.39z"/>
      <path id="path2109" d="M50.27 443.54V477a3.11 3.11 0 002.67 3.08L66.19 482a3.11 3.11 0 00.43 0h134.06s3.41 0 4.09-2.27c.63-2.07.11-31.25 0-35.67a3.07 3.07 0 00-.47-1.58 6.1 6.1 0 00-5.46-2.71c-4.38 0-122.85.57-145.5.67a3.1 3.1 0 00-3.07 3.1z" class="cls-3"/>
      <rect id="rect2111" rx="1.96" height="3.92" width="17.82" y="471.49" x="88.96" class="cls-47"/>
      <rect id="rect2113" rx="1.96" height="3.92" width="17.82" y="471.49" x="139.48" class="cls-47"/>
      <rect id="rect2115" rx="1.96" height="3.92" width="39.83" y="441.34" x="98.17" class="cls-47"/>
      <rect id="rect2117" rx="1.96" height="3.92" width="18.85" y="441.34" x="57.35" class="cls-47"/>
      <rect id="rect2119" rx="1.16" height="12.46" width="2.33" y="461.94" x="49.93" class="cls-36"/>
      <path id="rect2121" class="cls-3" d="M82.46 438.47h16.55v1.97H82.46z"/>
      <path id="path2123" d="M73.63 440.44H52.82v-2a2.43 2.43 0 012.44-2.44h14.12z" class="cls-3"/>
      <path id="path2125" d="M71 439.33H55.6v-1a1.21 1.21 0 011.21-1.22h12.06z" class="cls-36"/>
      <path id="rect2127" class="cls-3" d="M149.55 438.47h16.55v1.97h-16.55z"/>
      <path id="rect2129" class="cls-4" d="M54.81 445.19h123.76v16.71H54.81z"/>
      <path id="polygon2131" class="cls-36" d="M191.92 481.82h-14.48l-.22-36.88h14.49z"/>
      <path id="path2133" d="M71.24 482.07v-6a5.54 5.54 0 015.55-5.55h5.06a5.55 5.55 0 015.56 5.55v6" class="cls-48"/>
      <circle id="circle2135" r="6.99" cy="479.7" cx="79.32" class="cls-36"/>
      <circle id="circle2137" r="5.12" cy="479.7" cx="79.32" class="cls-49"/>
      <circle id="circle2139" r="5.13" cy="479.7" cx="79.32" class="cls-48"/>
      <circle id="circle2141" r="4.12" cy="479.7" cx="79.32" class="cls-50"/>
      <circle id="circle2143" r="1.97" cy="479.7" cx="79.32" class="cls-36"/>
      <path id="path2145" d="M158.5 482.07v-6a5.55 5.55 0 015.56-5.55h5.06a5.55 5.55 0 015.55 5.55v6" class="cls-48"/>
      <circle id="circle2147" r="6.99" cy="479.7" cx="166.59" class="cls-36"/>
      <circle id="circle2149" r="5.12" cy="479.7" cx="166.59" class="cls-49"/>
      <circle id="circle2151" r="5.13" cy="479.7" cx="166.59" class="cls-48"/>
      <circle id="circle2153" r="4.12" cy="479.7" cx="166.59" class="cls-50"/>
      <circle id="circle2155" r="1.97" cy="479.7" cx="166.59" class="cls-36"/>
      <path id="rect2157" class="cls-36" d="M58.22 476.99h2.73v1.14h-2.73z"/>
      <path id="rect2159" class="cls-36" d="M67.14 476.99h2.73v1.14h-2.73z"/>
      <path id="rect2161" class="cls-36" d="M109.83 476.99h2.73v1.14h-2.73z"/>
      <path id="rect2163" class="cls-36" d="M143.55 476.99h2.73v1.14h-2.73z"/>
      <path id="rect2165" class="cls-36" d="M195.17 476.99h2.73v1.14h-2.73z"/>
      <path id="path2167" d="M202.37 474.72a11 11 0 00.26 2.47 2.83 2.83 0 002.5.79v-3.26z" class="cls-36"/>
      <path id="path2169" d="M191.32 444.94l.39 16.3s5.2 11.07 13.73 11.29c.11 0-.44-27.7-.44-27.7s-13.68-.2-13.68.11z" class="cls-4"/>
      <path id="path2171" d="M197.49 446.51v9.66a3.3 3.3 0 003.3-3.3v-3.07a3.3 3.3 0 00-3.3-3.29z" class="cls-3"/>
      <path id="path2173" d="M356.91 255.28v34.12a3.17 3.17 0 002.73 3.13l13.5 1.91h137.05s3.48 0 4.17-2.32c.64-2.11.11-31.85 0-36.34a3.29 3.29 0 00-.48-1.62 6.22 6.22 0 00-5.56-2.76c-4.47 0-125.19.58-148.27.68a3.17 3.17 0 00-3.14 3.2z" class="cls-35"/>
      <rect id="rect2175" rx="1.96" height="4" width="40.58" y="253.04" x="405.73" class="cls-47"/>
      <rect id="rect2177" rx="1.96" height="4" width="19.21" y="253.04" x="364.13" class="cls-47"/>
      <path id="rect2179" class="cls-35" d="M389.72 250.11h16.87v2.01h-16.87z"/>
      <path id="path2181" d="M380.72 252.12h-21.2v-2a2.48 2.48 0 012.48-2.52h14.39z" class="cls-35"/>
      <path id="path2183" d="M378 251h-15.65v-1a1.23 1.23 0 011.24-1.24h12.28z" class="cls-3"/>
      <path id="rect2185" class="cls-35" d="M458.08 250.11h16.87v2.01h-16.87z"/>
      <path id="rect2187" class="cls-4" d="M361.55 256.96h126.12v17.02H361.55z"/>
      <path id="polygon2189" class="cls-46" d="M356.02 324.41L517 323.9l-7.54-2.5-142.21-.39z"/>
      <path id="path2191" d="M356.91 277.66v34.12a3.18 3.18 0 002.73 3.14l13.5 1.9h137.05s3.48 0 4.17-2.31c.64-2.12.11-31.85 0-36.35a3.25 3.25 0 00-.48-1.61 6.2 6.2 0 00-5.56-2.77c-4.47 0-125.19.59-148.27.68a3.18 3.18 0 00-3.14 3.2z" class="cls-35"/>
      <rect id="rect2193" rx="1.96" height="4" width="18.16" y="306.15" x="396.35" class="cls-47"/>
      <rect id="rect2195" rx="1.96" height="4" width="18.16" y="287.37" x="361.41" class="cls-47"/>
      <rect id="rect2197" rx="1.96" height="4" width="18.16" y="306.15" x="447.83" class="cls-47"/>
      <rect id="rect2199" rx="1.16" height="12.7" width="2.37" y="296.42" x="356.57" class="cls-3"/>
      <path id="rect2201" class="cls-4" d="M394.76 279.35h92.91v17.02h-92.91z"/>
      <path id="polygon2203" class="cls-3" d="M501.27 316.67H486.5l-.21-37.57h14.76z"/>
      <path id="path2205" d="M378.28 316.93v-6.09a5.66 5.66 0 015.66-5.66h5.16a5.65 5.65 0 015.66 5.66v6.09" class="cls-51"/>
      <circle id="circle2207" r="7.12" cy="314.51" cx="386.52" class="cls-36"/>
      <circle id="circle2209" r="5.22" cy="314.51" cx="386.52" class="cls-49"/>
      <circle id="circle2211" r="5.22" cy="314.51" cx="386.52" class="cls-48"/>
      <circle id="circle2213" r="4.2" cy="314.51" cx="386.52" class="cls-50"/>
      <circle id="circle2215" r="2.01" cy="314.51" cx="386.52" class="cls-36"/>
      <path id="path2217" d="M467.21 316.93v-6.09a5.65 5.65 0 015.66-5.66H478a5.66 5.66 0 015.66 5.66v6.09" class="cls-51"/>
      <circle id="circle2219" r="7.12" cy="314.51" cx="475.45" class="cls-36"/>
      <circle id="circle2221" r="5.22" cy="314.51" cx="475.45" class="cls-49"/>
      <circle id="circle2223" r="5.22" cy="314.51" cx="475.45" class="cls-48"/>
      <circle id="circle2225" r="4.2" cy="314.51" cx="475.45" class="cls-50"/>
      <circle id="circle2227" r="2.01" cy="314.51" cx="475.45" class="cls-36"/>
      <path id="rect2229" class="cls-3" d="M365.02 311.76h2.78v1.16h-2.78z"/>
      <path id="rect2231" class="cls-3" d="M374.11 311.76h2.78v1.16h-2.78z"/>
      <path id="rect2233" class="cls-3" d="M417.61 311.76h2.78v1.16h-2.78z"/>
      <path id="rect2235" class="cls-3" d="M451.98 311.76h2.78v1.16h-2.78z"/>
      <path id="rect2237" class="cls-3" d="M504.57 311.76h2.78v1.16h-2.78z"/>
      <path id="path2239" d="M511.91 309.44a11 11 0 00.27 2.52 2.92 2.92 0 002.54.8v-3.32z" class="cls-3"/>
      <path id="path2241" d="M515.06 307.25s-13.51 1.38-13.91-10.7c-.4-12.08-.79-39.52-.79-39.52h14.7z" class="cls-4"/>
      <path id="path2243" d="M506.94 280.69v9.85a3.37 3.37 0 003.36-3.36v-3.13a3.37 3.37 0 00-3.36-3.36z" class="cls-35"/>
      <path id="rect2245" class="cls-3" d="M382.65 292.67h2.78v1.16h-2.78z"/>
      <path id="rect2247" class="cls-3" d="M366.13 292.71h2.78v1.16h-2.78z"/>
      <path id="polygon2249" class="cls-46" d="M537.84 358.61l109.16-.45-4.78-2.22-97.25-.35z"/>
      <rect id="rect2251" rx=".71" height="1.41" width="49.06" y="350.56" x="567.04" class="cls-36"/>
      <rect id="rect2253" rx=".71" height="1.41" width="9.17" y="350.56" x="541.34" class="cls-36"/>
      <path id="path2255" d="M590.54 320.78c-6.86.07-15.27-.82-23.92 2.34a94.46 94.46 0 00-17 10.1h65.48s-12.97-12.58-24.56-12.44z" class="cls-3"/>
      <path id="path2257" d="M583.16 332.78s-2.73 4-1.95 6c1.72 4.35 4.24 11 4.24 11" class="cls-52"/>
      <path id="path2259" d="M635.73 336.18c-6.25-2.83-21.82-3.14-21.82-3.14h-61.09l-3.17-.05s-7.67.8-8.4 7.58c-.19 1.79-.88 5.41-.88 5.41l1.13 4h100.67a2.26 2.26 0 002.23-2.66l-.27-1.55s2.93-4.46-8.4-9.59z" class="cls-3"/>
      <rect id="rect2261" rx=".57" height="1.15" width="4.7" y="336.28" x="584.82" class="cls-36"/>
      <rect id="rect2263" rx=".57" height="1.15" width="4.7" y="336.28" x="562.9" class="cls-36"/>
      <path id="path2265" d="M644.6 348.59h-2.14a1.25 1.25 0 01-1.25-1.25 1.25 1.25 0 011.25-1.24h2.14" class="cls-36"/>
      <path id="path2267" d="M644.43 345.24h-5.32a.48.48 0 01-.48-.47.49.49 0 01.48-.48h5.32" class="cls-49"/>
      <path id="polygon2269" class="cls-49" d="M616.58 349.82H565.2l-1.21-4.73h53.8z"/>
      <path id="path2271" d="M541.1 340.46h7.07a5.18 5.18 0 01-4.07 3.23 9.31 9.31 0 01-3.41.1z" class="cls-4"/>
      <path id="line2273" stroke-width=".49" stroke="#000" stroke-miterlimit="10" fill="none" d="M563.73 326.19l-.09 6.44"/>
      <path id="polygon2275" class="cls-36" d="M540.37 345.95h10.48l.1 3.98-9.45.03z"/>
      <path id="path2277" d="M609.06 332.83l-47.46-.18c-.91 0-3.21-.2-3.21-1.64v-.4c0-1.61 6.24-5.67 13.81-7.69 4.33-1.15 14.17-.79 18.61-.67 11.44.3 19.62 9.38 19.62 9.38s-1.37 1.15-1.37 1.2z" class="cls-4"/>
      <path id="polygon2279" class="cls-3" d="M581.71 321.38l2.37 12.85-1.25-.04-2.25-12.59z"/>
      <path id="path2281" d="M608.66 330.47v5.32a1.83 1.83 0 001.82-1.82v-1.69a1.82 1.82 0 00-1.82-1.81z" class="cls-49"/>
      <rect id="rect2283" rx="1.98" height="3.95" width="22.16" y="338.19" x="588.07" class="cls-47"/>
      <rect id="rect2285" rx="1.98" height="3.95" width="19.66" y="338.19" x="562.1" class="cls-47"/>
      <path id="path2287" d="M616.1 350.84a8.32 8.32 0 1116.63 0" class="cls-4"/>
      <path id="path2289" d="M631.28 350.58a6.88 6.88 0 01-6.87 6.86 6.86 6.86 0 01-6.86-6.86 6.87 6.87 0 016.86-6.87 6.86 6.86 0 016.87 6.87z" class="cls-54"/>
      <g id="g2293" class="cls-55">
        <path id="path2291" d="M630.17 354.31a6.86 6.86 0 11-11-8.17l3.49 2.59 4 3z" class="cls-54"/>
      </g>
      <path id="path2295" d="M627 350.57a2.55 2.55 0 11-2.55-2.55 2.55 2.55 0 012.55 2.55z" class="cls-4"/>
      <path id="path2297" d="M550.5 350.84a8.32 8.32 0 1116.64 0" class="cls-4"/>
      <path id="path2299" d="M565.69 350.55a6.86 6.86 0 11-6.87-6.86 6.82 6.82 0 016.87 6.86z" class="cls-54"/>
      <g id="g2303" class="cls-55">
        <path id="path2301" d="M564.58 354.29a6.86 6.86 0 01-12.58-3.74 6.78 6.78 0 011.63-4.43l3.48 2.59 4 3z" class="cls-54"/>
      </g>
      <path id="path2305" d="M561.37 350.55a2.55 2.55 0 11-2.55-2.55 2.55 2.55 0 012.55 2.55z" class="cls-4"/>
      <path id="path2307" d="M642.88 339.79h-6.8a5.89 5.89 0 004.63 3.23c4.41.63 4.24.1 4.24.1z" class="cls-4"/>
      <rect id="rect2309" rx=".71" height="1.41" width="11.94" y="350.56" x="632.03" class="cls-36"/>
      <path id="polygon2311" class="cls-46" d="M822.1 384.06l112.9-.5-5.28-2.45-99.75-.39z"/>
      <path id="path2313" d="M870.44 338.32c-8.22 0-32.69-.23-33-.23-3.42 0-4.15 1.38-3.6 3.58.65 2.57-8.93 10.18-9.39 11.27h75.48a61.47 61.47 0 01-5.17-4.58c-3.25-3.04-12.7-10.04-24.32-10.04z" class="cls-35"/>
      <path id="path2315" d="M869.28 352.75s-3.23 5.85-2.15 9.44a105 105 0 004.68 11.73" class="cls-52"/>
      <path id="path2317" d="M929.79 362.65c0-7.94-32.58-10-32.58-10h-71l-1.78-.06-.92 17.64 4.36 4h99.34a2.34 2.34 0 002.47-2.64l-.3-1.53s.28-6.84.38-6.94c.75-.75.03-.37.03-.47z" class="cls-35"/>
      <rect id="rect2319" rx=".63" height="1.27" width="5.19" y="356.62" x="847.8" class="cls-3"/>
      <rect id="rect2321" rx=".63" height="1.27" width="5.19" y="356.62" x="872.08" class="cls-3"/>
      <path id="path2323" d="M922.89 359.65s.44 4.55 2 4.55c3.33 0 5.41.1 5.41.1s.23-3.3-2.71-4.25a11.94 11.94 0 00-4.7-.4z" class="cls-4"/>
      <path id="polygon2325" class="cls-56" d="M901.55 374.05h-55.31l-1.33-5.24h58.56z"/>
      <path id="rect2327" class="cls-3" d="M850.3 374.94h51.25v1.56H850.3z"/>
      <path id="path2329" d="M827.59 374.94h4.5v1.56H826a1.56 1.56 0 011.59-1.56z" class="cls-3"/>
      <path id="rect2331" class="cls-3" d="M919.04 374.94h10.44v1.56h-10.44z"/>
      <path id="path2333" d="M823.58 356h7.09s.1 5-4 5.71c-3.43.61-3.2.08-3.2.08z" class="cls-4"/>
      <rect id="rect2335" rx="1.04" height="2.09" width="8.15" y="353.53" x="823.04" class="cls-3"/>
      <path id="path2337" d="M893.16 353.31s-25.36-.28-41.8-1.8c-.92-.08-15.13-1.68-15.61-3.61-.26-1 5.34-7.68 10.48-7.84 1.26 0 18.11-.11 23.25-.11 14 0 25.26 11.53 25.26 11.53s-1.58 1.79-1.58 1.83z" class="cls-4"/>
      <path id="polygon2339" class="cls-35" d="M848.96 339.9h-1.12l-2.57 14.33h1.11z"/>
      <path id="polygon2341" class="cls-35" d="M866.81 339.9h2.43l2.19 14.23H869z"/>
      <path id="path2343" d="M926.68 365.92c-1 0-2.93 3.61-2.93 5.32a3.51 3.51 0 002.93 3.12h.84a2.41 2.41 0 002.41-2.41v-3.05c0-.43-.35-3-.78-3z" class="cls-3"/>
      <path id="path2345" d="M823.08 363.05s6.12-1.21 9 2.17 4 8.93 4 8.93h-8.33c-2.28 0-4.73 0-4.73-4.62z" class="cls-3"/>
      <path id="path2347" d="M929.74 365.62h-5.89a.52.52 0 01-.52-.52.52.52 0 01.52-.52h5.89" class="cls-49"/>
      <path id="path2349" d="M892.19 350.19v7.42a2.54 2.54 0 002.53-2.53v-2.36a2.54 2.54 0 00-2.53-2.53z" class="cls-56"/>
      <rect id="rect2351" rx="2.18" height="4.37" width="24.49" y="360.1" x="871.49" class="cls-47"/>
      <rect id="rect2353" rx="2.18" height="4.37" width="17.02" y="360.1" x="849.91" class="cls-47"/>
      <path id="path2355" d="M824 357.4a1.65 1.65 0 010 3.29" class="cls-49"/>
      <path id="path2357" d="M901.36 374.29a9.2 9.2 0 1118.39 0" class="cls-4"/>
      <path id="path2359" d="M918.14 374.4a7.58 7.58 0 11-7.59-7.58 7.52 7.52 0 017.59 7.58z" class="cls-54"/>
      <g id="g2363" class="cls-55">
        <path id="path2361" d="M916.91 378.54a7.58 7.58 0 11-12.14-9l3.85 2.86 4.45 3.32z" class="cls-54"/>
      </g>
      <path id="path2365" d="M913.37 374.4a2.82 2.82 0 11-2.82-2.82 2.82 2.82 0 012.82 2.82z" class="cls-4"/>
      <path id="path2367" d="M831.91 374.29a9.2 9.2 0 1118.39 0" class="cls-4"/>
      <path id="path2369" d="M848.69 374.4a7.58 7.58 0 11-7.59-7.58 7.52 7.52 0 017.59 7.58z" class="cls-54"/>
      <g id="g2373" class="cls-55">
        <path id="path2371" d="M847.46 378.54a7.58 7.58 0 11-12.14-9l3.85 2.86 4.44 3.32z" class="cls-54"/>
      </g>
      <path id="path2375" d="M843.92 374.4a2.82 2.82 0 11-2.82-2.82 2.82 2.82 0 012.82 2.82z" class="cls-4"/>
      <path id="path2377" d="M82.77 388.79l34.88 33.92a3.2 3.2 0 004.58-.11l32.24-34.73a3.2 3.2 0 00-2.38-5.38l-67.12.8a3.2 3.2 0 00-2.2 5.5z" class="cls-4"/>
      <g id="g2589" clip-path="url(#clip-path-9)">
        <circle id="circle2379" r="54" cy="348" cx="118" class="cls-4"/>
        <path id="path2381" d="M110.41 414.42l-1.52.23-.61-.93-.22-.34c-1.48-2.27-4.41-7-5.34-10.54a17.12 17.12 0 01-.18-5.61v-.17a.36.36 0 010-.1l1.13-.14.4-.05 2.62-.33h.16l3.22 16.43z" class="cls-58"/>
        <path id="path2383" d="M106.9 396.51a2.18 2.18 0 11-2.44-1.88 2.18 2.18 0 012.44 1.88z" class="cls-58"/>
        <path id="path2385" d="M106.65 395.63h-.05l-2.5 1.11-.36.16-1 .45-.09-.07a.32.32 0 01-.09-.08 24 24 0 01-7.35-10.83l-.08-.24v-.15c-.1-.3-.18-.62-.27-.94l-.21-.91c-.07-.34.23-.68.73-1a6.78 6.78 0 011.15-.6l.24-.1h.06a40.66 40.66 0 016.17-1.73l1.16 4.72 2.45 10.11z" class="cls-58"/>
        <path id="path2387" d="M106.54 395.32a2.17 2.17 0 11-2.88-1.11 2.18 2.18 0 012.88 1.11z" class="cls-58"/>
        <path id="path2389" d="M104.55 386.06c-.35 0-3.39.85-5.82 1.12a5.81 5.81 0 01-3.54-.78h-.54l-.19-.62a16.26 16.26 0 01-.55-3.79 42.19 42.19 0 01.92-9.78c0-.18.07-.35.09-.49l.16-.68h7.35l.09.54 1.71 7.71s.35 6.76.32 6.77z" class="cls-4"/>
        <path id="path2391" d="M108.06 413.38c-1.48-2.27-4.41-7-5.34-10.54a17.12 17.12 0 01-.18-5.61 24 24 0 01-7.35-10.83H95l.11-.27 1.6-3.7v-.06c.13.25.87 1.57 1.9 3.58a160.95 160.95 0 014.42 9.35l.61 1.45v.11l.59 1.44.23.58c2.11 5.23 3.69 10.59 3.6 14.5z" class="cls-59"/>
        <path id="path2393" d="M110 344.07a5.23 5.23 0 01-.32.49c-.32.5-.9 1.32-1.63 2.29l-1.09 1.37a37.55 37.55 0 01-3.39 3.71c-.18.17-.36.35-.55.51a15.88 15.88 0 01-2.57 1.92c-.43-.16-2.79-3.57-3.34-4.21l1.47-1.3 4.57-4 1.6-1.39 2.24-2a.44.44 0 01.1.08l1.45 1.22.58.48z" class="cls-58"/>
        <path id="path2395" d="M96.94 354.07a2.7 2.7 0 100-3.82 2.7 2.7 0 000 3.82z" class="cls-58"/>
        <path id="path2397" d="M106.93 343.91a8.44 8.44 0 01-1.34-1.78 41.37 41.37 0 00-5.29-7.13 7.75 7.75 0 00-.65-.52 5.16 5.16 0 01-.66-.39 7.46 7.46 0 00-.82-.57c.16-.23.44-.29.8-.06.36.23.5.37.6.27.1-.1-.13-.25-.53-.64s-.84-.78-1.25-1.23c-.27-.26 0-.5.24-.36.37.25 1.12 1 1.3 1.08.18.08.1 0 .07-.07-.31-.4-1.49-1.05-1.22-1.38a.26.26 0 01.15 0 .69.69 0 01.33.17l.11.08c.38.31.75.62 1 .76.05.05.12 0 .11 0a3.12 3.12 0 00-.5-.46c-.37-.32-.81-.71-.7-.84.11-.13.32 0 .6.22.47.36 1 .91 1.07.92.07.01.09 0 0-.08a19 19 0 01-.75-.8c-.24-.27 0-.31.08-.28a13.42 13.42 0 011.25 1c.74.62 1.24 1.47 1.93 2.07.16.15.29.22.58.47A35.61 35.61 0 01109 340a12.14 12.14 0 011.1 1.52z" class="cls-58"/>
        <path id="path2399" d="M110.44 343.05a1.92 1.92 0 01-.66 1.12 1.82 1.82 0 01-.51.32A2 2 0 01107 344a.27.27 0 00-.07-.08l-.11-.16a2 2 0 01.4-2.58 1.93 1.93 0 01.91-.44 2 2 0 011.91.66l.1.13a2 2 0 01.3 1.52z" class="cls-58"/>
        <path id="path2401" d="M105.91 349.7s-2.34 2.51-3.42 3.47a4.38 4.38 0 01-.34.28c-.18.13-.53-.06-1-.42a15.22 15.22 0 01-1.34-1.39 49.1 49.1 0 01-1.82-2.25l-.56-.74-.19-.27 5.36-2.88.07.09 1.93 2.41 1.26 1.62z" fill="url(#Horizontal_line_2)"/>
        <path id="path2403" d="M113.89 416.36a9 9 0 01-1.65.4c-1.47.1-1.58-.85-2.2-1.29a.6.6 0 00-.62-.1v1.4l-.56.06s-.69-2.31-.84-2.89a.45.45 0 000-.08l.24-.12c.48-.23 1.47-.72 1.83-.88.08 0 .13-.06.14 0 .47.6 1.29 1.94 2.18 2.27a6.2 6.2 0 001.36.36c.57-.04 1.01.44.12.87z" class="cls-61"/>
        <path id="path2405" d="M84 397.52l3.28-2.86a18.29 18.29 0 00-3.39-4.83c-3.52-3.15-10.84-6.06-11.69-6.44l-1.14 1z" class="cls-58"/>
        <path id="path2407" d="M83.89 397.44a2.18 2.18 0 113.06.22 2.16 2.16 0 01-3.06-.22z" class="cls-58"/>
        <path id="path2409" d="M95.47 383.53s-.55 1.31-1.4 3.15c-1.91 4.1-5.35 10.79-7.7 11.28-2.35.49-2.62-2.61-2.62-2.61a40.91 40.91 0 01.54-5.14v-.11a70.67 70.67 0 011.5-7.1c.24-.91.51-1.85.8-2.83.08-.25.34-.38.73-.41 2.15-.15 8.2 2.64 8.15 3.77z" class="cls-58"/>
        <path id="path2411" d="M87.94 396.49a2.18 2.18 0 11-1.32-2.78 2.17 2.17 0 011.32 2.78z" class="cls-58"/>
        <path id="path2413" d="M73.31 383.56c-.3-.29-2.37-2-2.37-2l-.43.37.8 1.15a.63.63 0 01-.58.26c-.76 0-1.37-.76-2.54.15a9.12 9.12 0 00-1.19 1.24c-.49.86.14 1 .61.72A6.36 6.36 0 0169 385c.92-.22 2.35.45 3.07.69.03.01 1.24-2.13 1.24-2.13z" class="cls-61"/>
        <path id="path2415" d="M100.39 372.92L95.07 387a4.31 4.31 0 01-1.1-.22c-1.19-.53-8.11-2.34-8.49-2.51a26.67 26.67 0 01.69-6.35 14 14 0 015.83-6.74z" class="cls-4"/>
        <path id="path2417" d="M73.29 432.2c0 .56 4.8 2 13.4 2.18 8.6.18 23.68-.43 23.68-1.91 0-.54-10.82-1.09-19.41-1.3-8.59-.21-17.66.47-17.67 1.03z" class="cls-62"/>
        <path id="path2419" d="M102.56 371.64l-4.54.48-.78-23.42c.15 0 3.3 1.2 4.08 1.5a8.07 8.07 0 01.73 1.62c.36 1.69.69 7.08.51 19.82z" class="cls-63"/>
        <path id="path2421" d="M94.9 348.81s2.69.12 3.32.13l1.47 23.15-7.43.28a35.43 35.43 0 01-3.07-11.61c-.34-4.33-.89-6.34-.09-8.07 1.31-2.84 5.8-3.88 5.8-3.88z" class="cls-63"/>
        <path id="path2423" d="M101.48 353.69s3.32 4.84 3.36 4.95c.04.11-.47 2.84-2.37 2.82-1.08 0-1-2.49-1-2.49z" class="cls-63"/>
        <path id="path2425" d="M99.8 338.42l-5 1.1v-.78a10.49 10.49 0 01.24-2 2.59 2.59 0 01.23-.6c.48-.81 1.14.3 1.21.41 0-.09-.32-1.06.56-1.07.48 0 1.94 1.34 2.41 2.27.09.47.16.37.21.46a1 1 0 01.14.21z" class="cls-64"/>
        <g id="g2429" class="cls-65">
          <path id="path2427" d="M100.06 338.2l-.32.05-4.87.48a11.11 11.11 0 01.24-2 19.25 19.25 0 014.41 1.07c.21-.03.39.26.54.4z" class="cls-66"/>
        </g>
        <path id="path2431" d="M97.05 340.92s-5.83-1.89-6.46-1.39c-11.06-8.46-32-8.95-26.88 7.35 4.47 14.21 28 3.67 28.69 3.48 4.89-1.44 4.89-8.15 4.65-9.44z" class="cls-67"/>
        <path id="path2433" d="M92.94 351.52l-5.47-11.93s-3.64 1-3.85 1.08a30.79 30.79 0 00.64 3.33c.7 3 2 7.38 3.84 10 .18.23 4.04-2.11 4.84-2.48z" class="cls-58"/>
        <path id="path2435" d="M91.41 355.14a2.7 2.7 0 111.59-3.48 2.7 2.7 0 01-1.59 3.48z" class="cls-58"/>
        <path id="path2437" d="M85.05 348.69l5.66-2.78s5.68 6.14 3.82 9.78c-1.13 2.23-1.3 2.36-4.61 1.1-1.64-.63-4.87-8.1-4.87-8.1z" class="cls-63"/>
        <path id="path2439" d="M108 413.86v.1a.45.45 0 000-.1z" class="cls-59"/>
        <path id="path2441" d="M88.18 384.09a22.4 22.4 0 01-2.6 7.41l-1.29-1.29v-.11c.3-1.93 1.35-10.72 1.87-12.15a7.57 7.57 0 011.15 1.85 24.87 24.87 0 01.87 4.29z" class="cls-59"/>
        <path id="path2443" d="M103 361.33l-9.62.12s-.87 4.31 2.9 3.71c5.14-.81 6.72-3.83 6.72-3.83z" class="cls-59"/>
        <path id="path2445" d="M96.52 339.64c2.77-.4 5-.43 5.47 2.33.6 3.29-1.34 7.19-4.42 7.19-2.79 0-4.94-1-5.34-3.77a5.07 5.07 0 014.29-5.75z" class="cls-67"/>
        <path id="path2447" d="M100.1 343.82a3.43 3.43 0 010 .77c0 1.21-.25 1.74-.81 2.17-2.12.92-4.23-.77-4.23-.77l.08-2.35s-.25-2.47.57-3.64a3.33 3.33 0 012.84-1.4c1.29 0 1.62 1.7 1.62 1.7l.79 3z" class="cls-58"/>
        <g id="g2451" class="cls-65">
          <path id="path2449" d="M99.84 343.48c-.11.15.27.34.27.34l.87-.48s-.88-.18-1.14.14z" class="cls-66"/>
        </g>
        <path id="path2453" d="M100.12 344.46v.53a.13.13 0 010 .06c-.24 0-.92.05-1.12-.42l1.12-.17z" class="cls-4"/>
        <path id="path2455" d="M99.45 342.22a.41.41 0 01-.24.15.76.76 0 01-.73-.13.47.47 0 01.37-.18c.26-.06.5 0 .6.16z" class="cls-61"/>
        <path id="path2457" d="M98.24 345.06L98 347l-.25 2.29a1.19 1.19 0 01-.62 1 2.31 2.31 0 01-1.38.35 2.26 2.26 0 01-2.22-1.54l.55-4.73z" class="cls-58"/>
        <path id="path2459" d="M98 347l-.25 2.29a1.19 1.19 0 01-.62 1c-.93-1.11-.72-3.32-.72-3.32z" class="cls-59"/>
        <path id="path2461" d="M100.82 342.66a.18.18 0 000-.05c-.07-.3-.39-1.71-.43-1.71h-.25c-1.36.15-6.64 1-6.64 1s-3.63-.17-4.82-1.65c-.1-.14 2.13-1.51 4.68-1.9 1.72-.26 3.57-.33 6.26-.58 4.8-.44 7.39.34 7.55.78.75 2.05-6.35 4.11-6.35 4.11z" class="cls-64"/>
        <g id="g2465" opacity=".57">
          <path id="path2463" d="M100.38 340.9l.38 1.47.06.29s2.08-1.12 2.34-1.83c.26-.71-2.58-.06-2.78.07z" class="cls-66"/>
        </g>
        <path id="path2467" d="M96.59 345.63s-1.63 5.18-3.32 4.79c-1.69-.39-4.1-5.95-4.25-7.49-.12-1.14 5.14-2.63 7.33-1.49.78.4.24 4.19.24 4.19z" class="cls-67"/>
        <g id="g2471" class="cls-65">
          <path id="path2469" d="M101.83 340.46l-6.67.83-4.18.18a5.36 5.36 0 004.17 1.87c2.64-.27 4.8-.76 5.45-1.58z" class="cls-66"/>
        </g>
        <path id="path2473" d="M102.76 340.33c-2 .56-8.19 1.94-10.51 1.6a5.46 5.46 0 01-3.54-1.8 5.45 5.45 0 012.73-1.25c1.93-.24 4.41.41 5.61.41a19.14 19.14 0 015.71 1.04z" class="cls-64"/>
        <path id="path2475" d="M129.81 347.79a3.94 3.94 0 011.38-1.54 6.65 6.65 0 001.74-1.35 7.6 7.6 0 00.76-2.78c.27-1.12 1.22-3.51 2.13-4.22l1.59-.28c.61.19-.7 3.25-.37 3.8a18.18 18.18 0 012 3.95 14.75 14.75 0 01.49 4.68 10.77 10.77 0 01-.92 4.67 6.33 6.33 0 01-1.54 1.94 3.73 3.73 0 01-1.44.8 4.28 4.28 0 01-1.71 0A4.16 4.16 0 01131 356a3.53 3.53 0 01-.48-2.43 2.78 2.78 0 01.42-1.29 2.05 2.05 0 01.91-.72.13.13 0 000-.25h-.1a2.94 2.94 0 01-2-1.48 2.35 2.35 0 01.06-2.04z"/>
        <path id="path2477" d="M134.9 344.82c.14.6.69.62 2 .87.94.18 3.24-.68 3.62-.85 1.77-.8 2.43-4.22 2.43-5.62 0-2.94-2.42-3.29-4.21-3a4.53 4.53 0 00-3.63 4.36 15.88 15.88 0 01-.18 1.62V343.57a2.93 2.93 0 00-.03 1.25z" class="cls-69"/>
        <path id="path2479" d="M137 340.2a1.82 1.82 0 00-.56-.22 1.79 1.79 0 00-.89 0 .37.37 0 00.2.72l.27-.06h.15a1.61 1.61 0 01.36.1h-.09l.19.1a.37.37 0 10.37-.65z" class="cls-16"/>
        <g id="g2483" style="mix-blend-mode:multiply">
          <circle id="circle2481" r=".24" cy="341.18" cx="135.91" class="cls-16"/>
        </g>
        <path id="path2485" d="M135.24 340.39a7.11 7.11 0 01-.77 1.92c-.15.19.22.34.53.4l.24-2.32z" class="cls-69"/>
        <path id="path2487" d="M135.75 338s3.42-3.62 7-1.33c2.34 1.52 2.75 5.73-1.69 7.86a17.66 17.66 0 01-1.54-2l-.69-.66a13 13 0 00-1.22-3 2.66 2.66 0 00-1.86-.87z"/>
        <path id="path2489" d="M138.61 341.65s.64-.78 1-.41c.36.37 0 1.73-.49 1.57a3.24 3.24 0 01-.74-.36z" class="cls-69"/>
        <path id="path2491" d="M138.85 341.8a.26.26 0 01.33.12.25.25 0 010 .12.28.28 0 01-.1.23.17.17 0 01-.24 0z" style="mix-blend-mode:multiply" fill="#d8b893"/>
        <path id="path2493" d="M139.85 341.76s-.21 1.06-.69 1.24a.75.75 0 01-.65-.1s.17 1.47 1 1.14c.83-.33.34-2.28.34-2.28z" class="cls-72"/>
        <path id="path2495" d="M134.9 343.6c.75 0 .78-.41.78-.41h-.77l-.01.41z" class="cls-4"/>
        <path id="path2497" d="M124.45 414.42l1.53.23.6-.93.23-.34c1.48-2.27 4.41-7 5.34-10.54a17.4 17.4 0 00.18-5.61v-.17a.82.82 0 010-.1l-1.12-.14-.4-.05-2.62-.33h-.16l-3.22 16.43z" class="cls-69"/>
        <path id="path2499" d="M128 396.51a2.17 2.17 0 102.43-1.88 2.17 2.17 0 00-2.43 1.88z" class="cls-69"/>
        <path id="path2501" d="M128.22 395.63h.05l2.5 1.11.36.16 1 .45.09-.07.09-.08a24 24 0 007.35-10.83 2.17 2.17 0 00.07-.24.88.88 0 00.05-.15c.1-.3.18-.62.26-.94.08-.32.15-.6.21-.91.06-.31-.22-.68-.72-1a6.91 6.91 0 00-1.16-.6l-.24-.1h-.05a40.35 40.35 0 00-6.25-1.74l-1.15 4.72-2.46 10.11z" class="cls-69"/>
        <path id="path2503" d="M128.33 395.32a2.17 2.17 0 102.88-1.11 2.18 2.18 0 00-2.88 1.11z" class="cls-69"/>
        <path id="path2505" d="M130.32 386.06c.35 0 3.39.85 5.82 1.12a5.81 5.81 0 003.54-.78h.54l.19-.62a16.81 16.81 0 00.55-3.79 42.19 42.19 0 00-.92-9.78c0-.18-.07-.35-.1-.49l-.15-.68h-7.36l-.08.54-1.72 7.71s-.34 6.76-.31 6.77z" class="cls-4"/>
        <path id="path2507" d="M126.81 413.38c1.48-2.27 4.41-7 5.34-10.54a17.4 17.4 0 00.18-5.61 24 24 0 007.35-10.83h.19l-.12-.27-1.6-3.7v-.06a160.95 160.95 0 00-6.09 12.39l-.23.54-.61 1.45a.36.36 0 000 .11l-.59 1.44-.23.58c-2.1 5.23-3.68 10.59-3.59 14.5z" class="cls-59"/>
        <path id="path2509" d="M124.89 344.07a5.23 5.23 0 00.32.49c.32.5.89 1.32 1.63 2.29l1.09 1.37a37.55 37.55 0 003.39 3.71c.18.17.36.35.55.51a15.88 15.88 0 002.57 1.92c.44-.16 2.8-3.57 3.35-4.21l-1.48-1.3-4.56-4-1.6-1.39-2.24-2-.11.08-1.45 1.22-.58.48z" class="cls-69"/>
        <path id="path2511" d="M137.93 354.07a2.7 2.7 0 110-3.82 2.7 2.7 0 010 3.82z" class="cls-69"/>
        <path id="path2513" d="M127.94 343.91a8.44 8.44 0 001.34-1.78 41.15 41.15 0 015.28-7.15c.13-.12.58-.47.66-.52a6 6 0 00.66-.39 6.61 6.61 0 01.82-.57c-.17-.23-.44-.29-.8-.06-.36.23-.5.37-.6.27-.1-.1.13-.25.52-.64s.85-.78 1.26-1.23c.27-.26 0-.5-.24-.36-.37.25-1.12 1-1.31 1.08-.19.08-.09 0-.07-.07.32-.4 1.5-1.05 1.23-1.38a.28.28 0 00-.15 0 .69.69 0 00-.33.17l-.11.08c-.38.31-.75.62-1 .76 0 .05-.12 0-.11 0a3.12 3.12 0 01.5-.46c.36-.32.8-.71.7-.84-.1-.13-.33 0-.6.22-.47.36-1 .91-1.07.92-.07.01-.09 0-.05-.08.04-.08.52-.53.76-.8s0-.31-.08-.28a13.42 13.42 0 00-1.25 1c-.74.62-1.24 1.47-1.93 2.07-.17.15-.29.22-.58.47a35.94 35.94 0 00-5.57 5.66 12.92 12.92 0 00-1.09 1.52z" class="cls-69"/>
        <path id="path2515" d="M124.43 343.05a2 2 0 00.65 1.12 1.87 1.87 0 00.52.32 2 2 0 002.31-.53l.06-.08.11-.16a2 2 0 00-.4-2.58 1.93 1.93 0 00-.91-.44 2 2 0 00-1.91.66l-.11.13a2 2 0 00-.32 1.56z" class="cls-69"/>
        <path id="path2517" d="M129 349.7s2.34 2.51 3.42 3.47a3.06 3.06 0 00.34.28c.18.13.52-.06 1-.42a16.69 16.69 0 001.34-1.39 49.1 49.1 0 001.82-2.25l.56-.74.19-.27-5.36-2.88-.07.09-1.97 2.41-1.27 1.64z" class="cls-73"/>
        <path id="path2519" d="M121 416.36a9 9 0 001.65.4c1.47.1 1.58-.85 2.2-1.29a.6.6 0 01.62-.1v1.4l.57.06s.69-2.31.84-2.89a.45.45 0 010-.08l-.25-.12c-.47-.23-1.46-.72-1.82-.88-.08 0-.13-.06-.14 0-.47.6-1.29 1.94-2.18 2.27a6.2 6.2 0 01-1.36.36c-.6-.04-1.05.44-.13.87z" class="cls-61"/>
        <path id="path2521" d="M150.64 398.64l-2.06-3.84a18.35 18.35 0 014.89-3.31c4.42-1.69 12.29-1.8 13.22-1.85 0 0 .72 1.31.7 1.37z" class="cls-69"/>
        <path id="path2523" d="M150.72 398.59a2.19 2.19 0 00.9-2.95 2.18 2.18 0 10-.9 2.95z" class="cls-69"/>
        <path id="path2525" d="M139.4 383.53s.54 1.31 1.4 3.15c1.91 4.1 5.35 10.79 7.69 11.28 2.34.49 2.62-2.61 2.62-2.61a39.42 39.42 0 00-.53-5.14v-.11a73.62 73.62 0 00-2.29-9.89c-.08-.25-.34-.38-.73-.41-2.16-.19-8.21 2.6-8.16 3.73z" class="cls-69"/>
        <path id="path2527" d="M146.93 396.49a2.18 2.18 0 101.32-2.78 2.17 2.17 0 00-1.32 2.78z" class="cls-69"/>
        <path id="path2529" d="M165.54 389.38c.39-.16 2.93-1 2.93-1l.28.5-1.16.79a.59.59 0 00.45.44c.71.25 1.55-.21 2.32 1.05a8.5 8.5 0 01.64 1.58c.15 1-.49.89-.83.46a6.12 6.12 0 00-1.09-.9c-.78-.53-2.35-.41-3.12-.45-.04-.03-.42-2.47-.42-2.47z" class="cls-61"/>
        <path id="path2531" d="M134.47 372.92L139.8 387a4.31 4.31 0 001.1-.22c1.19-.53 8.11-2.34 8.49-2.51a26.27 26.27 0 00-.7-6.35 14 14 0 00-5.85-6.77z" class="cls-4"/>
        <path id="path2533" d="M161.58 432.2c0 .56-4.81 2-13.4 2.18-8.59.18-23.68-.43-23.68-1.91 0-.54 10.82-1.09 19.41-1.3 8.59-.21 17.66.47 17.67 1.03z" class="cls-62"/>
        <path id="path2535" d="M132.31 371.64l4.54.48.78-23.42c-.15 0-3.3 1.2-4.09 1.5a8.62 8.62 0 00-.72 1.62c-.36 1.69-.69 7.08-.51 19.82z" class="cls-73"/>
        <path id="path2537" d="M140 348.81s-2.69.12-3.32.13l-1.47 23.15 7.43.28a35.43 35.43 0 003.07-11.61c.34-4.33.89-6.34.09-8.07-1.34-2.84-5.8-3.88-5.8-3.88z" class="cls-73"/>
        <path id="path2539" d="M133.38 353.69s-3.31 4.84-3.35 4.95c-.04.11.47 2.84 2.36 2.82 1.09 0 1-2.49 1-2.49z" class="cls-73"/>
        <path id="path2541" d="M141.93 351.52l5.47-11.93s3.64 1 3.85 1.08a30.79 30.79 0 01-.64 3.33c-.7 3-2 7.38-3.84 10-.19.23-4.04-2.11-4.84-2.48z" class="cls-69"/>
        <path id="path2543" d="M143.46 355.14a2.7 2.7 0 10-1.59-3.48 2.7 2.7 0 001.59 3.48z" class="cls-69"/>
        <path id="path2545" d="M149.82 348.69l-5.66-2.78s-5.68 6.14-3.83 9.78c1.14 2.23 1.31 2.36 4.62 1.1 1.64-.63 4.87-8.1 4.87-8.1z" fill="url(#Horizontal_line_2-11)"/>
        <path id="path2547" d="M126.85 413.86v.1a.45.45 0 010-.1z" class="cls-59"/>
        <path id="path2549" d="M146.69 384.09a22.4 22.4 0 002.6 7.41l1.29-1.29v-.11c-.31-1.93-1.35-10.72-1.88-12.15a7.84 7.84 0 00-1.14 1.85 24.87 24.87 0 00-.87 4.29z" class="cls-59"/>
        <path id="path2551" d="M131.83 361.33l9.62.12s.86 4.31-2.9 3.71c-5.1-.81-6.72-3.83-6.72-3.83z" class="cls-59"/>
        <path id="path2553" d="M136.32 344.17l3.63-.26a10.92 10.92 0 011.91 6.68 41.56 41.56 0 01-4.23 1.37z" class="cls-69"/>
        <path id="path2555" d="M139.1 346c-.1.05.54 2.71-1.9 3.44l-.56-3.64z" class="cls-72"/>
        <path id="path2557" d="M138.23 345c.07-.43-1.57-1.65-1.14-6.7l6.55-.8s4.68 4 3.39 9l-7.09 6.86a2.06 2.06 0 01-1.13-2.27c.13-.9.45-1.32 1.31-1.49-.79.09-2.72.39-3.08-1.76-.29-1.72.96-1.54 1.19-2.84z"/>
        <path id="path2559" d="M146.54 346.2c1.39.82 3.25.53 3.48 2.11.12.84.17 1.31-1.52 2.59-1.52 1.16 4.32 1.91.41 6.65-1.73 2.1-5.49 1.78-8.08.15-1.37-.87-4.28-6.17-.31-8.64 3.72-2.33 5.89-2.94 6.02-2.86z"/>
        <path id="path2561" d="M76.29 328.38s-25.57 10.62-13 40.53" class="cls-44"/>
        <path id="path2563" d="M72.19 322.84s15.44-15.44 21.23-16.41c5.79-.97 9.16 24.57 9.16 24.57s-3.86 4.82-25.57 5.31c-.01.04-4.82-6.72-4.82-13.47z" class="cls-3"/>
        <path id="path2565" d="M115.37 312.94c-.48-3.37-3.86-2.41-3.86-2.41l-12.06 3.86c0 5.31 2.41 5.31 2.41 5.31l10.61-2.9a3.34 3.34 0 002.9-3.86zm-2.37 1.45a1 1 0 111-1 1 1 0 01-1 1z" class="cls-35"/>
        <ellipse id="ellipse2567" transform="rotate(-19.5 97.99 318.72)" ry="13.27" rx="6.51" cy="318.73" cx="98" class="cls-35"/>
        <path id="path2569" d="M112.47 315.84c-.48-3.38-3.86-2.41-3.86-2.41l-12.06 3.86c0 5.3 2.41 5.3 2.41 5.3l10.62-2.89a3.33 3.33 0 002.89-3.86zm-2.41 1.45a1 1 0 111-1 1 1 0 01-1 1z" class="cls-3"/>
        <path id="path2571" d="M157.26 328.38s16.88 7 16.48 25.68" class="cls-44"/>
        <path id="path2573" d="M161.36 322.84s-15.44-15.44-21.23-16.41C134.34 305.46 131 331 131 331s3.86 4.82 25.58 5.31c-.04.04 4.78-6.72 4.78-13.47z" class="cls-3"/>
        <ellipse id="ellipse2575" transform="rotate(-70.5 135.55 318.74)" ry="6.51" rx="13.27" cy="318.73" cx="135.55" class="cls-35"/>
        <ellipse id="ellipse2577" transform="rotate(-70.5 132.64 318.26)" ry="1.45" rx="4.58" cy="318.25" cx="132.63" class="cls-3"/>
        <ellipse id="ellipse2579" transform="rotate(-70.5 137.46 320.18)" ry="1.45" rx="4.58" cy="320.18" cx="137.45" class="cls-3"/>
        <path id="path2581" d="M87.48 339.82a8.58 8.58 0 00-.47-2.17A39.93 39.93 0 0185 329a5.43 5.43 0 010-.84 7 7 0 00.13-.76 6.93 6.93 0 01.1-1c-.28 0-.51.14-.56.57-.05.43 0 .62-.2.62s-.1-.25-.14-.81c-.04-.56 0-1.15-.11-1.75 0-.37-.39-.31-.43-.06-.06.45 0 1.5 0 1.7a.05.05 0 01-.1 0c-.1-.5.17-1.82-.25-1.82a.18.18 0 00-.13.08.8.8 0 00-.09.36v.14c0 .48 0 1-.06 1.22 0 .07-.06.12-.09.07a2.56 2.56 0 010-.68c0-.49 0-1.07-.18-1.08-.18-.01-.21.25-.22.6v1.41c0 .04-.1 0-.09 0 .01 0-.07-.73-.12-1.09 0-.18-.21-.23-.26-.12a16.15 16.15 0 000 1.62c0 1 .31 1.89.32 2.81v.74a37.08 37.08 0 00.68 7.92 12.91 12.91 0 00.44 1.81" class="cls-58"/>
        <path id="path2583" d="M85.83 342.16a2 2 0 111.67-2.28 2 2 0 01-1.67 2.28z" class="cls-58"/>
        <path id="path2585" d="M147.47 339.82a8.35 8.35 0 01.48-2.17 41.2 41.2 0 002-8.66v-.84a4.14 4.14 0 01-.13-.76 5.58 5.58 0 00-.11-1c.29 0 .51.14.57.57.06.43.05.62.19.62s.11-.25.14-.81c.03-.56 0-1.15.12-1.75 0-.37.39-.31.42-.06.06.45 0 1.5 0 1.7a.05.05 0 00.1 0c.1-.5-.17-1.82.25-1.82a.17.17 0 01.13.08.69.69 0 01.09.36.71.71 0 000 .14v1.22c0 .07.06.12.1.07a3.5 3.5 0 000-.68c0-.49 0-1.07.19-1.08.19-.01.2.25.22.6v1.41c0 .04.09 0 .09 0s.06-.73.11-1.09c0-.18.21-.23.27-.12.06.37 0 1.09 0 1.62 0 1-.31 1.89-.32 2.81v.74a35.71 35.71 0 01-.68 7.92 12.91 12.91 0 01-.44 1.81" class="cls-69"/>
        <path id="path2587" d="M149.13 342.16a2 2 0 10-1.68-2.28 2 2 0 001.68 2.28z" class="cls-69"/>
      </g>
      <path id="path2591" d="M118 294a54 54 0 11-54 54 54 54 0 0154-54m0-2a56 56 0 1056 56 56.06 56.06 0 00-56-56z" class="cls-4"/>
      <g id="g2713" clip-path="url(#clip-path-10)">
        <circle id="circle2593" r="54" cy="452" cx="481" class="cls-4"/>
        <circle id="circle2595" transform="rotate(-6.67 480.61 606.74)" r="20.81" cy="607.19" cx="480.99" class="cls-69"/>
        <path id="path2597" d="M466.74 457.46c.79 3.59 1.89 6.51 1.58 7.18-.31.67-1 .37-1.15-.12-.92-2.43-2.26-7.49-4.09-12.36l-.55-1.46c-.73-1.95-1.1-2.92-1.77-3.22-.67-.3-.85-.8-1.83-.43-4.08 1 2.33 13.58 2.7 19 .18.49-.8.85-1 .37-1.22-1.77-3.11-12.73-5.25-16.93-.91-2.44-4.69-2.13-4.38 1.65.73 6.39 2.81 13.39 3.48 18.14 1 5.73 2 8.16 1 8.53-1.46.55-2.07-2.56-3.84-5.79-1.64-4.38-4.14-5.11-7.06-4 .73 1.95 2.68 5.66 3.66 9.74.42 2.62 2.5 5.18 3.41 7.61.37 1 2.38 6.33 2.62 8.46 6.91 34.65 4.87 85.44 4 93.54a101.61 101.61 0 001 23.51l41.9-2.4c.3-5.12.3-9.57-.74-19.74-4-44.63-11.74-71.18-15.28-82.08-1-4.08-2-5.35-2.26-7.49-2.32-9.13-1.72-19.36-4.89-29.28-1.53-5.55-3.11-12.73-5.06-16.44-.86-.79-2.81-.06-2.56 2.07.31 3.77 1.83 9.31 2.08 11.45.18.48-.31.67-1 .36-.18-.49-2.13-8.64-3.66-14.19-1.28-3.4-2.2-5.84-3.66-5.29-.46-1.47 1.25 4.56 2.6 9.61z" class="cls-69"/>
        <path id="polygon2599" class="cls-69" d="M451.99 484.3l1.65 8.83 9.56-8.59-.19-4.93z"/>
        <rect id="rect2601" rx="3.44" height="66.03" width="34.95" y="419.54" x="442.36" fill="#1b4652"/>
        <path id="rect2603" class="cls-4" d="M447.67 428.2h25.25v46.61h-25.25z"/>
        <path id="path2605" d="M456.28 445.17h-6.69v6.68h6.69zm-1.28 5.35h-4v-4h4z" class="cls-35"/>
        <path id="rect2607" class="cls-35" d="M452.27 447.84h1.34v1.34h-1.34z"/>
        <path id="path2609" d="M464.31 445.17v6.68H471v-6.68zm5.35 5.35h-4v-4h4z" class="cls-35"/>
        <path id="rect2611" class="cls-35" d="M466.99 447.84h1.34v1.34h-1.34z"/>
        <path id="path2613" d="M449.59 466.57h6.69v-6.69h-6.69zm1.34-5.35h4v4h-4z" class="cls-35"/>
        <path id="rect2615" class="cls-35" d="M452.27 462.56h1.34v1.34h-1.34z"/>
        <path id="rect2617" class="cls-35" d="M460.3 445.17h2.68v1.34h-2.68z"/>
        <path id="polygon2619" class="cls-35" d="M462.97 447.84h-4.01v-1.34h-1.34v2.68h2.68v1.34h1.33v-1.34h1.34z"/>
        <path id="rect2621" class="cls-35" d="M457.62 450.52h1.34v1.34h-1.34z"/>
        <path id="polygon2623" class="cls-35" d="M457.62 454.53h5.35v-2.67h-1.34v1.33h-4.01z"/>
        <path id="polygon2625" class="cls-35" d="M450.93 453.19h-1.33v5.35h1.33v-1.33h1.34v-1.34h-1.34z"/>
        <path id="rect2627" class="cls-35" d="M452.27 453.19h1.34v1.34h-1.34z"/>
        <path id="polygon2629" class="cls-35" d="M458.96 455.87h-2.68v-2.68h-1.33v2.68h-1.34v2.67h1.34v-1.33h2.67v1.33h2.68v-1.33h-1.34z"/>
        <path id="rect2631" class="cls-35" d="M461.64 455.87h1.34v2.68h-1.34z"/>
        <path id="polygon2633" class="cls-35" d="M460.3 465.23h-2.68v1.34h4.01v-1.34h2.68v-1.34h-2.68v-4.01h-4.01v1.34h2.68z"/>
        <path id="rect2635" class="cls-35" d="M457.62 462.56h1.34v1.34h-1.34z"/>
        <path id="rect2637" class="cls-35" d="M462.97 459.88h1.34v2.68h-1.34z"/>
        <path id="polygon2639" class="cls-35" d="M466.99 463.89h2.67v-1.33h-4.01v4.01h1.34z"/>
        <path id="rect2641" class="cls-35" d="M468.32 465.23H471v1.34h-2.68z"/>
        <path id="rect2643" class="cls-35" d="M469.66 459.88H471v1.34h-1.34z"/>
        <path id="polygon2645" class="cls-35" d="M464.31 458.54h1.34v2.68h1.34v-4.01h-2.68z"/>
        <path id="polygon2647" class="cls-35" d="M465.65 454.53h-1.34v1.34h5.35v-1.34H471v-1.34h-2.68v1.34h-1.33v-1.34h-1.34z"/>
        <path id="rect2649" class="cls-35" d="M468.32 457.21H471v1.34h-2.68z"/>
        <rect id="rect2651" rx="1.62" height="9.86" width="9.39" y="430.14" x="449.61" class="cls-3"/>
        <path id="path2653" d="M482.53 487.68c-.84-2.52-2.48-28.53-2.48-28.53l-9.47-13s-6.26.25-2 9.17l4.25 8.91S464.74 471 465.3 484c.56 13 9.79 15.57 9.79 15.57s11.04-3.95 7.44-11.89z" class="cls-69"/>
        <path id="path2655" d="M438 453.86l3.93 2.14c1.68.84 4.26.52 5-1.67.84-1.68.52-4.26-1.67-5l-3.93-2.14c-1.68-.84-4.26-.52-5 1.67a4 4 0 001.67 5z" class="cls-69"/>
        <path id="path2657" d="M440.35 464.58l.52-.07a4.39 4.39 0 003.68-4.12 4.4 4.4 0 00-4.12-3.69l-.52.07a4.4 4.4 0 00-3.68 4.12c.32 2.58 2.06 3.94 4.12 3.69z" class="cls-69"/>
        <path id="path2659" d="M440.73 471.87l.52-.06a4.42 4.42 0 003.68-4.13 4.4 4.4 0 00-4.12-3.68l-.52.06a4.43 4.43 0 00-3.69 4.13c.32 2.58 2.06 3.94 4.13 3.68z" class="cls-69"/>
        <circle id="circle2661" transform="rotate(-3.79 440.88 474.65)" r="3.64" cy="474.97" cx="441.1" class="cls-69"/>
        <path id="path2663" d="M457.24 435.78a1.87 1.87 0 00-2.23-1.43l.22-1.72-1.09-.14a10.57 10.57 0 00-.6 2.23 1.82 1.82 0 01.85 1.19 1.88 1.88 0 01-.33 1.52 1.85 1.85 0 001.75.57 1.87 1.87 0 001.43-2.22z" class="cls-35"/>
        <path id="path2665" d="M453.53 434.83v-.11a1.81 1.81 0 00-1.37-.24l.22-1.71-1.1-.14a10.7 10.7 0 00-.61 2.34 3.41 3.41 0 00.44 2.48 1.91 1.91 0 00.38.37 1.84 1.84 0 001.46.31 1.89 1.89 0 001.1-.7l-.09-.11a3.43 3.43 0 01-.43-2.49z" class="cls-4"/>
        <path id="path2667" d="M454.39 435.91a1.82 1.82 0 00-.85-1.19v.11a3.43 3.43 0 00.44 2.49.87.87 0 00.09.11 1.88 1.88 0 00.32-1.52z" class="cls-5"/>
        <path id="path2669" d="M514.29 476H491a1 1 0 01-1-1v-53a1 1 0 011-1h30a1 1 0 011 1v47.49" stroke="#2ed1ff" stroke-linecap="round" stroke-miterlimit="10" fill="none"/>
        <path id="polygon2671" stroke-linejoin="round" stroke="#2ed1ff" fill="none" d="M521.96 469.42h-7.46l-.14 6.57z"/>
        <path id="path2673" d="M495.22 437h-2.87a.58.58 0 00-.57.57v2.87a.58.58 0 001.15 0v-2.29h2.29a.58.58 0 000-1.15z" class="cls-35"/>
        <path id="path2675" d="M519.29 437h-2.86a.58.58 0 100 1.15h2.29v2.29a.57.57 0 101.14 0v-2.87a.57.57 0 00-.57-.57z" class="cls-35"/>
        <path id="path2677" d="M519.29 451.33a.56.56 0 00-.57.57v2.29h-2.29a.58.58 0 100 1.15h2.86a.57.57 0 00.57-.57v-2.87a.56.56 0 00-.57-.57z" class="cls-35"/>
        <path id="path2679" d="M495.22 454.19h-2.29v-2.29a.58.58 0 00-1.15 0v2.87a.58.58 0 00.57.57h2.87a.58.58 0 000-1.15z" class="cls-35"/>
        <path id="path2681" d="M517.57 452.47v-12.6a.58.58 0 00-.57-.58.57.57 0 00-.57.58v12.6a.57.57 0 00.57.58.58.58 0 00.57-.58z" class="cls-35"/>
        <path id="path2683" d="M514.2 439.29a.58.58 0 00-.57.58v9.89a.58.58 0 001.15 0v-9.89a.58.58 0 00-.58-.58z" class="cls-35"/>
        <path id="path2685" d="M514.2 451.77a.57.57 0 00-.57.57v.13a.58.58 0 101.15 0v-.13a.57.57 0 00-.58-.57z" class="cls-35"/>
        <path id="path2687" d="M511.41 439.29a.57.57 0 00-.57.58v9.89a.57.57 0 001.14 0v-9.89a.57.57 0 00-.57-.58z" class="cls-35"/>
        <path id="path2689" d="M511.41 451.77a.56.56 0 00-.57.57v.13a.57.57 0 101.14 0v-.13a.56.56 0 00-.57-.57z" class="cls-35"/>
        <path id="path2691" d="M508.62 439.29a.58.58 0 00-.58.58v9.89a.58.58 0 001.15 0v-9.89a.58.58 0 00-.57-.58z" class="cls-35"/>
        <path id="path2693" d="M508.62 451.77a.57.57 0 00-.58.57v.13a.58.58 0 101.15 0v-.13a.57.57 0 00-.57-.57z" class="cls-35"/>
        <path id="path2695" d="M505.82 439.29a.58.58 0 00-.57.58v9.89a.58.58 0 001.15 0v-9.89a.58.58 0 00-.58-.58z" class="cls-35"/>
        <path id="path2697" d="M505.82 451.77a.57.57 0 00-.57.57v.13a.58.58 0 101.15 0v-.13a.57.57 0 00-.58-.57z" class="cls-35"/>
        <path id="path2699" d="M503 439.29a.57.57 0 00-.57.58v9.89a.57.57 0 001.14 0v-9.89a.57.57 0 00-.57-.58z" class="cls-35"/>
        <path id="path2701" d="M503 451.77a.56.56 0 00-.57.57v.13a.57.57 0 101.14 0v-.13a.56.56 0 00-.57-.57z" class="cls-35"/>
        <path id="path2703" d="M500.24 439.29a.58.58 0 00-.58.58v9.89a.58.58 0 001.15 0v-9.89a.58.58 0 00-.57-.58z" class="cls-35"/>
        <path id="path2705" d="M500.24 451.77a.57.57 0 00-.58.57v.13a.58.58 0 101.15 0v-.13a.57.57 0 00-.57-.57z" class="cls-35"/>
        <path id="path2707" d="M497.44 439.29a.57.57 0 00-.57.58v9.89a.57.57 0 001.14 0v-9.89a.57.57 0 00-.57-.58z" class="cls-35"/>
        <path id="path2709" d="M497.44 451.77a.56.56 0 00-.57.57v.13a.57.57 0 101.14 0v-.13a.56.56 0 00-.57-.57z" class="cls-35"/>
        <path id="path2711" d="M495.22 452.47v-12.6a.58.58 0 10-1.15 0v12.6a.58.58 0 101.15 0z" class="cls-35"/>
      </g>
      <path id="path2715" d="M516 411.25l-34.88-33.92a3.2 3.2 0 00-4.58.12l-32.24 34.72a3.21 3.21 0 002.39 5.39l67.12-.81a3.2 3.2 0 002.19-5.5z" class="cls-4"/>
      <path id="path2717" d="M480.72 398.05a54 54 0 11-54 54 54 54 0 0154-54m0-2a56 56 0 1056 56 56.06 56.06 0 00-56-56z" class="cls-4"/>
    </g>
  </g>
</svg>
