<svg width="24" height="25" viewBox="0 0 24 25" fill="none" xmlns="http://www.w3.org/2000/svg">
<path fill-rule="evenodd" clip-rule="evenodd" d="M5.43457 10.1413C5.43457 6.5755 8.32525 3.68481 11.8911 3.68481C15.4569 3.68481 18.3476 6.5755 18.3476 10.1413C18.3476 13.7072 15.4569 16.5979 11.8911 16.5979C8.32525 16.5979 5.43457 13.7072 5.43457 10.1413ZM11.8911 2.68481C7.77297 2.68481 4.43457 6.02321 4.43457 10.1413C4.43457 14.0914 7.50602 17.324 11.3909 17.5813V20.0762H9.28223C9.00608 20.0762 8.78223 20.3 8.78223 20.5762C8.78223 20.8523 9.00608 21.0762 9.28223 21.0762H11.3909V22.3153C11.3909 22.5914 11.6148 22.8153 11.8909 22.8153C12.1671 22.8153 12.3909 22.5914 12.3909 22.3153V21.0762H14.4996C14.7758 21.0762 14.9996 20.8523 14.9996 20.5762C14.9996 20.3 14.7758 20.0762 14.4996 20.0762H12.3909V17.5814C16.276 17.3242 19.3476 14.0915 19.3476 10.1413C19.3476 6.02321 16.0092 2.68481 11.8911 2.68481Z" fill="#708C91"/>
</svg>
