<svg width="272" height="230" viewBox="0 0 272 230" fill="none" xmlns="http://www.w3.org/2000/svg">
<path fill-rule="evenodd" clip-rule="evenodd" d="M270.739 140.545C263.665 98.7951 224.118 70.6905 182.409 77.771L194.723 7.86715L150.152 0C146.322 8.39385 129.545 46.7328 121.398 90.0134C138.01 101.342 150.183 119.142 153.809 140.545C157.681 163.397 151.004 185.587 137.342 202.166C140.695 206.246 144.522 210.028 148.885 213.445C166.334 227.111 187.45 232.453 208.026 228.96C249.735 221.879 277.813 182.295 270.739 140.545Z" fill="#054752"/>
<path fill-rule="evenodd" clip-rule="evenodd" d="M120.54 94.7718C120.814 93.1793 121.102 91.594 121.4 90.0134C105.609 79.2439 85.8072 74.3202 65.4801 77.771L77.7939 7.86715L33.2235 0C29.253 8.70061 11.3699 49.5713 3.61001 94.7718C-2.61008 131.008 -2.322 170.025 16.8553 197.484C20.9764 203.384 25.9674 208.754 31.9563 213.445C49.406 227.111 70.5217 232.453 91.0969 228.96C109.976 225.755 126.045 215.877 137.344 202.166C136.094 200.645 134.904 199.086 133.785 197.484C114.608 170.025 114.32 131.008 120.54 94.7718Z" fill="#2ED1FF"/>
<path fill-rule="evenodd" clip-rule="evenodd" d="M153.811 140.545C150.184 119.142 138.011 101.342 121.4 90.0137C121.101 91.5941 120.814 93.1796 120.54 94.7718C114.318 131.008 114.609 170.025 133.784 197.484C134.903 199.087 136.095 200.646 137.346 202.167C151.005 185.587 157.684 163.397 153.811 140.545Z" fill="#9AED66"/>
</svg>
