<svg width="24" height="25" viewBox="0 0 24 25" fill="none" xmlns="http://www.w3.org/2000/svg">
<path fill-rule="evenodd" clip-rule="evenodd" d="M6.63884 4.08337C5.72616 4.08337 5.02734 4.78311 5.02734 5.59606V5.99859C5.02734 6.81154 5.72616 7.51128 6.63884 7.51128C7.55152 7.51128 8.25034 6.81154 8.25034 5.99859V5.59606C8.25034 4.78311 7.55152 4.08337 6.63884 4.08337ZM4.02734 5.59606C4.02734 4.1862 5.21958 3.08337 6.63884 3.08337C8.0581 3.08337 9.25034 4.1862 9.25034 5.59606V5.99859C9.25034 7.40845 8.0581 8.51128 6.63884 8.51128C5.21958 8.51128 4.02734 7.40845 4.02734 5.99859V5.59606ZM10.2 11.7354V21.1874C9.51792 21.098 8.60537 20.881 7.5449 20.3542C4.5734 18.878 3 15.8526 3 13.7498V11.7113C3 11.2453 3.31259 10.8718 3.72377 10.7877C4.69855 10.5882 5.8203 10.3997 6.4999 10.3998C7.19964 10.3999 8.41566 10.5983 9.45794 10.802C9.88032 10.8846 10.2 11.2645 10.2 11.7354ZM2 11.7113C2 10.7936 2.62426 9.99196 3.52331 9.80799C4.49067 9.61005 5.70566 9.3997 6.5 9.39978C7.3111 9.39987 8.61926 9.61918 9.64977 9.82061C10.5613 9.99878 11.2 10.8066 11.2 11.7354V21.7498C11.2 22.0259 10.9764 22.252 10.7006 22.2371C9.89813 22.1939 8.6285 22.0091 7.1 21.2498C3.8045 19.6127 2 16.2499 2 13.7498V11.7113ZM13.8 11.7354V21.1874C14.4821 21.098 15.3946 20.881 16.4551 20.3542C19.4266 18.878 21 15.8526 21 13.7498V11.7113C21 11.2453 20.6874 10.8718 20.2762 10.7877C19.3014 10.5882 18.1797 10.3997 17.5001 10.3998C16.8004 10.3999 15.5843 10.5983 14.5421 10.802C14.1197 10.8846 13.8 11.2645 13.8 11.7354ZM22 11.7113C22 10.7936 21.3757 9.99196 20.4767 9.80799C19.5093 9.61005 18.2943 9.3997 17.5 9.39978C16.6889 9.39987 15.3807 9.61918 14.3502 9.82061C13.4387 9.99878 12.8 10.8066 12.8 11.7354V21.7498C12.8 22.0259 13.0236 22.252 13.2994 22.2371C14.1019 22.1939 15.3715 22.0091 16.9 21.2498C20.1955 19.6127 22 16.2499 22 13.7498V11.7113ZM15.832 5.59606C15.832 4.78311 16.5308 4.08337 17.4435 4.08337C18.3562 4.08337 19.055 4.78311 19.055 5.59606V5.99859C19.055 6.81154 18.3562 7.51128 17.4435 7.51128C16.5308 7.51128 15.832 6.81154 15.832 5.99859V5.59606ZM17.4435 3.08337C16.0243 3.08337 14.832 4.1862 14.832 5.59606V5.99859C14.832 7.40845 16.0243 8.51128 17.4435 8.51128C18.8628 8.51128 20.055 7.40845 20.055 5.99859V5.59606C20.055 4.1862 18.8628 3.08337 17.4435 3.08337Z" fill="#708C91"/>
</svg>
