<svg width="225" height="270" fill="none" xmlns="http://www.w3.org/2000/svg">
  <path fill-rule="evenodd" clip-rule="evenodd" d="M223 268V32.6A30.611 30.611 0 00192.4 2H32.6A30.61 30.61 0 002 32.6V268h11.12V56.58h197.54V268H223z" fill="#054752"/>
  <path d="M223 268v2h2v-2h-2zm0-235.4h2-2zm-8.965-21.635l1.414-1.414-1.414 1.415zM192.4 2l.001-2h-.001v2zM32.6 2V0v2zm-21.635 8.966L9.551 9.55l1.415 1.415zM2 32.6H0h2zM2 268H0v2h2v-2zm11.12 0v2h2v-2h-2zm0-211.42v-2h-2v2h2zm197.54 0h2v-2h-2v2zm0 211.42h-2v2h2v-2zm14.34 0V32.6h-4V268h4zm0-235.4a32.61 32.61 0 00-9.551-23.049l-2.829 2.829A28.609 28.609 0 01221 32.6h4zm-9.551-23.05A32.61 32.61 0 00192.401 0l-.002 4a28.61 28.61 0 0120.221 8.38l2.829-2.829zM192.4 0H32.6v4h159.8V0zM32.6 0A32.61 32.61 0 009.55 9.551l2.829 2.829A28.61 28.61 0 0132.6 4V0zM9.55 9.551A32.61 32.61 0 000 32.6l4 .002a28.61 28.61 0 018.38-20.221L9.55 9.55zM0 32.6V268h4V32.6H0zM2 270h11.12v-4H2v4zm13.12-2V56.58h-4V268h4zm-2-209.42h197.54v-4H13.12v4zm195.54-2V268h4V56.58h-4zm2 213.42H223v-4h-12.34v4z" fill="#115860"/>
  <path opacity=".3" d="M117.66 18.07H92.52c-.85 0-1.54.69-1.54 1.54v.01c0 .85.69 1.54 1.54 1.54h25.14c.85 0 1.54-.69 1.54-1.54v-.01c0-.85-.69-1.54-1.54-1.54z" fill="#206B74"/>
  <path d="M211 37.9v21.68H13v-21.7a22.644 22.644 0 016.655-16.02 22.75 22.75 0 0116.058-6.64h19.405a1.425 1.425 0 011.413 1.41 14.41 14.41 0 004.24 10.22 14.503 14.503 0 0010.244 4.23h82.572a14.49 14.49 0 0010.221-4.236 14.423 14.423 0 004.232-10.204 1.419 1.419 0 011.424-1.4h18.893a22.729 22.729 0 0116.018 6.659A22.622 22.622 0 01211 37.9z" fill="#fff"/>
  <path d="M26.6 45.64H37m-6.62 3.78l-3.78-3.77 3.83-3.81" stroke="#2ED1FF" stroke-width="1.5" stroke-linecap="round" stroke-linejoin="round"/>
  <path opacity=".3" d="M129.9 22.81a3.09 3.09 0 100-6.18 3.09 3.09 0 000 6.18z" fill="#206B74"/>
  <path fill="#E5E5E5" d="M13 57h198v213H13z"/>
</svg>
