<svg width="24" height="25" viewBox="0 0 24 25" fill="none" xmlns="http://www.w3.org/2000/svg">
<path d="M19.7792 20.9415L20.9608 18.8949L9.2828 12.1526L8.10118 14.1992L19.7792 20.9415ZM19.2792 21.8076L7.60118 15.0652C7.12288 14.7891 6.95901 14.1775 7.23515 13.6992L8.41678 11.6526C8.69292 11.1743 9.30451 11.0104 9.7828 11.2866L21.4608 18.0289C21.9391 18.305 22.103 18.9166 21.8269 19.3949L20.6452 21.4415C20.3691 21.9198 19.7575 22.0837 19.2792 21.8076ZM21.6343 5.78655C20.468 7.80664 17.8849 8.49877 15.8648 7.33247L12.2051 5.21954C10.5668 4.27366 8.47342 4.80077 7.4784 6.4097L6.86879 7.39543C6.72355 7.63029 6.41541 7.70293 6.18055 7.55769C5.9457 7.41244 5.87305 7.10431 6.01829 6.86945L6.6279 5.88373C7.90722 3.8151 10.5987 3.13739 12.7051 4.35351L16.3648 6.46645C17.9066 7.3566 19.8781 6.82834 20.7683 5.28655C20.9063 5.04741 21.2121 4.96547 21.4513 5.10354C21.6904 5.24161 21.7724 5.54741 21.6343 5.78655ZM15.2949 9.54114L11.2906 7.22925C10.5731 6.81503 9.65575 7.06085 9.24153 7.77828L8.99701 8.20181C8.85894 8.44096 8.55314 8.5229 8.314 8.38483C8.07485 8.24676 7.99291 7.94096 8.13098 7.70181L8.37551 7.27828C9.06587 6.08255 10.5948 5.67286 11.7906 6.36322L15.7949 8.67512C16.034 8.81319 16.116 9.11899 15.9779 9.35813C15.8398 9.59728 15.534 9.67922 15.2949 9.54114ZM4.21239 12.1903C4.07432 12.4295 3.76853 12.5114 3.52938 12.3733C3.29023 12.2353 3.2083 11.9295 3.34637 11.6903L5.01303 8.80357C5.15111 8.56442 5.4569 8.48248 5.69605 8.62055C5.93519 8.75863 6.01713 9.06442 5.87906 9.30357L4.21239 12.1903ZM6.15406 13.307C6.01599 13.5461 5.71019 13.6281 5.47105 13.49C5.2319 13.3519 5.14996 13.0461 5.28804 12.807L6.9547 9.92023C7.09277 9.68108 7.39857 9.59915 7.63772 9.73722C7.87686 9.87529 7.9588 10.1811 7.82073 10.4202L6.15406 13.307Z" fill="#708C91"/>
</svg>
