<svg xmlns="http://www.w3.org/2000/svg" viewBox="0 0 1200 1200" xml:space="preserve">
  <path opacity=".1" fill="#2ED1FF" d="M26.9 875.2h1147s-392.1 236.8-774 204.1c-307-26.3-373-204.1-373-204.1z"/>
  <path fill="#ADECFE" d="m1048.6 788.6-2.3-13s22.5-49.3-79.7-73.2c-69.9-16.4-195.6-34-195.6-34l-494-.2-38.3-.5 532.3.7S671 564.9 574 564.9s-222.6 39.5-335.4 102.7c0 0-61.1 36.2-81.4 67.1-20.3 30.9-22.2 42.5-22.2 42.5l1 33.8h893.7c12 0 21-10.7 18.9-22.4zM576.2 577.3c81.4 0 157.5 73.9 157.5 73.9 0-.3-3.6 15-3.6 15.4L351 665c-7.6 0-27.1-1.7-27.1-13.8l-.1-3.4c.1-25.1 171-70.5 252.4-70.5z"/>
  <path fill="#008CB2" d="M1032.2 778.5c-5.8 0-10.5 4.7-10.5 10.5s4.7 10.5 10.5 10.5h18.1v-21h-18.1zM1048.8 763.2h-44.9c-2.2 0-4 1.8-4 4s1.8 4 4 4h44.9v-8z"/>
  <path opacity=".5" fill="#008CB2" d="M793.6 809.9H381.4l-10.2-40h432.6z"/>
  <path fill="#008CB2" d="M787.7 828.6H393.4c-3.3 0-5.9-2.7-5.9-5.9 0-3.3 2.7-5.9 5.9-5.9h394.3c3.3 0 5.9 2.7 5.9 5.9s-2.7 5.9-5.9 5.9M242 828.6H134.1c-3.3 0-5.9-2.7-5.9-5.9 0-3.3 2.7-5.9 5.9-5.9H242c3.3 0 5.9 2.7 5.9 5.9.1 3.2-2.6 5.9-5.9 5.9M1043 828.6H935.1c-3.3 0-5.9-2.7-5.9-5.9 0-3.3 2.7-5.9 5.9-5.9H1043c3.3 0 5.9 2.7 5.9 5.9s-2.6 5.9-5.9 5.9"/>
  <path fill="#FFF" d="M1035.7 722.1h-57.4s9.3 22.9 39.1 27.2c37.2 5.3 35.7.9 35.7.9l-17.4-28.1z"/>
  <path opacity=".5" fill="#FFF" d="M776.5 750.2H617.3c-7.6 0-13.8-6.2-13.8-13.8v-5.6c0-7.6 6.2-13.8 13.8-13.8h159.2c7.6 0 13.8 6.2 13.8 13.8v5.6c.1 7.6-6.2 13.8-13.8 13.8M547.5 750.2H388.3c-7.6 0-13.8-6.2-13.8-13.8v-5.6c0-7.6 6.2-13.8 13.8-13.8h159.2c7.6 0 13.8 6.2 13.8 13.8v5.6c0 7.6-6.2 13.8-13.8 13.8"/>
  <path fill="#008CB2" d="M723.7 646.6v54.1c10.1 0 18.4-8.3 18.4-18.4v-17.2c0-10.2-8.3-18.5-18.4-18.5M793.3 812.6c0-38.7 31.4-70.1 70.1-70.1 38.7 0 70.1 31.4 70.1 70.1"/>
  <path fill="#ADECFE" d="M921.3 812.6c0 11.6-3.4 22.5-9.4 31.5-10.3 15.9-28.2 26.3-48.5 26.3-32 0-57.9-25.9-57.9-57.9 0-14.3 5.2-27.3 13.7-37.4 10.6-12.5 26.5-20.5 44.1-20.5 32.1.1 58 26 58 58"/>
  <path fill="#008CB2" d="M912 844.1c-10.3 15.9-28.2 26.3-48.5 26.3-32 0-57.9-25.9-57.9-57.9 0-14.3 5.2-27.3 13.7-37.4l29.4 21.8 33.9 25.3 29.4 21.9z"/>
  <path fill="#FFF" d="M884.9 812.6c0 11.9-9.6 21.5-21.5 21.5s-21.5-9.6-21.5-21.5 9.6-21.5 21.5-21.5 21.5 9.6 21.5 21.5"/>
  <path fill="#008CB2" d="M246.2 812.6c0-38.7 31.4-70.1 70.1-70.1 38.7 0 70.1 31.4 70.1 70.1"/>
  <path fill="#ADECFE" d="M375.6 811c0 11.6-3.4 22.5-9.4 31.5-10.3 15.9-28.2 26.3-48.5 26.3-32 0-57.9-25.9-57.9-57.9 0-14.3 5.1-27.3 13.7-37.4C284.1 761 300 753 317.6 753c32.1.2 58 26.1 58 58"/>
  <path fill="#008CB2" d="M366.2 842.6c-10.3 15.9-28.2 26.3-48.5 26.3-32 0-57.9-25.9-57.9-57.9 0-14.3 5.1-27.3 13.7-37.4l29.4 21.8 33.9 25.3 29.4 21.9z"/>
  <path fill="#FFF" d="M339.2 811c0 11.9-9.6 21.5-21.5 21.5s-21.5-9.6-21.5-21.5 9.6-21.5 21.5-21.5 21.5 9.7 21.5 21.5"/>
  <path fill="#E3F5FF" d="M156.6 162.5c-.5 7.9-65.6 4.5-65.6 4.5s4.5-26.8 21.2-21.2c0 0 22.8-24.6 31.7 3.6 0-.2 13.7-3.1 12.7 13.1zM299.5 216.4l-33.8 2.9-56.1-5.5s1.9-12.6 12.2-10.6c0 0 .7-18.2 14.8-13.3 0 0 9.8-33.2 30.4-10.9 0 0 22.6-2.1 20.7 17.1 0 .1 25.9 4.5 11.8 20.3zM1061.5 187.9l-51 4.4-84.6-8.4s2.8-18.9 18.4-16c0 0 1.1-27.4 22.3-20.1 0 0 14.8-50.1 45.8-16.4 0 0 34.1-3.2 31.2 25.8.1.2 39.1 6.9 17.9 30.7z"/>
  <path fill="#FACFC4" d="m932.5 543.5 49.6 68.9c0 .1-17.5 17.2-18.4 18.2-.2 0-7.3-5.6-16.7-14.3 0 0-.1 0-.1-.1-14.8-13.6-42-41.4-50.5-60.1-.8-1.7 31.4-9.3 36.1-12.6z"/>
  <path fill="#FACFC4" d="M982.5 612.8c-4.4-5.6-12.6-6.6-18.2-2.2-5.6 4.4-6.6 12.5-2.2 18.2 4.4 5.6 12.6 6.6 18.2 2.2 5.6-4.4 6.6-12.6 2.2-18.2z"/>
  <path fill="#F6B241" d="M895.1 487.3c-7.6 10.3-15.7 14.1-15.7 14.1s-55.5 2.4-80.6-14.4c-5.7-3.8-9.7-8.6-11.3-14.6-5-20.1 2-34.4 15.3-39.1 13.6-4.8 32 .9 33.9 19.9.5 5.2 9.5-27.6 38.7-16.2 19.8 7.7 27.8 11.5 28 13.9 1.7 16.8-1.1 28.8-8.3 36.4z"/>
  <path fill="#9AED66" d="M923.5 518.7c13.2 8.5 28.2 42.3 28.2 42.3l-39 26.8s-23.3-40.4-9.8-56.9c8.3-10.3 14-14.1 20.6-12.2"/>
  <path opacity=".15" fill="#8F4160" d="M808.4 958.8c0 5.5 44.5 9.9 99.4 9.9 54.9 0 99.4-4.4 99.4-9.9s-44.5-9.9-99.4-9.9c-54.9 0-99.4 4.4-99.4 9.9z"/>
  <path fill="#054752" d="M851.3 818.2c.5 7.8-5.5 14.4-13.2 14.9-7.8.5-14.4-5.5-14.9-13.2-.5-7.8 5.5-14.4 13.2-14.9 7.8-.4 14.4 5.5 14.9 13.2z"/>
  <path fill="#054752" d="M856.5 858.7c.2-16.4-4.4-39.1-4.4-39.1s-10.5 4.7-14.7 5.4c-4.2-.8-13.6-2.6-13.6-2.6s-3.3 20.4-3.8 36.8c-.7 20.8 5.1 54.6 8.3 68.9H842c4.4-28.3 14.2-53.8 14.5-69.4z"/>
  <path opacity=".15" d="M849.2 824.4s-4.5 10.3-12.7 8.5c-3.2-.7-9.4-8.4-9.4-8.4s-1.4 16.2 12.3 16.1c9.3 0 9.8-16.2 9.8-16.2z"/>
  <path fill="#054752" d="M845.4 939.9s7.2 21.8-2.9 22.9c-11.9 1.3-13.2-2.3-14.4-8.8-1.2-6.5-.1-12.8-.1-12.8s.7-5 .6-9.8l14.1-.6c.3 1.7 2.7 9.1 2.7 9.1zM944.7 825.3c-.1.1-28 3.1-28 3.1s-3.5 22.2.4 38c7.3 29.6 27.6 58.5 30.8 63.7 0 0 15.6-1.8 15.9-2.1l-19.1-102.7z"/>
  <path fill="#054752" d="M944.7 826c.9 7.7-4.7 14.7-12.4 15.6-7.7.9-14.7-4.7-15.6-12.4-.9-7.7 4.7-14.7 12.4-15.5 7.8-1 14.7 4.6 15.6 12.3z"/>
  <path fill="#054752" d="M942.8 816.7c2.6 7.3-1.2 15.4-8.5 18-7.3 2.6-15.4-1.2-18-8.5-2.6-7.3 1.2-15.4 8.5-18 7.4-2.6 15.4 1.2 18 8.5z"/>
  <path fill="#054752" d="m928.8 732.2-16.9-86.8-48.2 15.4c-.3-.1 2.6 37 7.8 77.9v.7c7.1 55.4 45.7 88.9 45.7 88.9l26.1-9.4-14.5-86.7z"/>
  <path fill="#054752" d="M831.6 652.2s-20.2 29.1-17.2 72.6l8.8 95.6s19.3 5.1 26.9 2.3c9.4-3.5 15.5-81.9 16.6-98.6h3.3l4.1-13.3 5-57.9-47.5-.7z"/>
  <path opacity=".15" d="M916.6 827.8c-.8 10.3-2.9 23.9.5 38.5 2.3 9.9 3.4 12.2 10.8 28.6 0 0-.5-6-.6-6.3-4-39.5-2.3-56-9.4-76.4-.8-2.2-23-59-24.1-62-8.5-23.3-24.1-26.3-24.4-26.5 4.3 59.3 33.4 90.9 47.2 104.1z"/>
  <path fill="#9AED66" d="M816.3 518.7c7.5-3.8 16-7.7 20.9-8.6l2.9-.7s24.5-3.1 30.5-3c3 0 12.1.4 12.1.4s15 3.3 16 3.5c2.2.5 15.3 1.8 24.7 8.4l-8.4 64.5c-3.6 28-1.7 56.2-3 62.9 0 0-14.7 14.2-40.8 14.2-26.1 0-40.8-8.9-40.8-8.9-1.7-8.9-5.4-40.9-6.5-66.3l-7.6-66.4z"/>
  <path fill="#FACFC4" d="m855.3 473.9 27.4 7.7v24.7c0 1.5-4.6 12.3-13.1 12.7h-.8c-.4.1-.8 0-1.2 0-11.5-.9-12.3-12.3-12.3-12.3v-32.8z"/>
  <path opacity=".15" fill="#8D405F" d="M858.1 484.7c.6.2 3.5 21 24 19.9l.9-20-24.9.1z"/>
  <path fill="#FACFC4" d="M899.3 517.1c0 4-.8 7.7-2.2 11.2-.7 1.6-1.5 3.2-2.5 4.7-5.3 8.4-14.8 14-25.6 14-16.8 0-30.3-13.4-30.3-29.8 0-2.6.3-5.1 1-7.5 2.2-.7 4.4-1.2 6.7-1.7 2.2-.4 4.4-.9 6.6-1.2.2-.1.5-.1.7-.1 1.3-.2 2.5-.3 3.7-.4 1.3-.1 2.6-.2 4-.3.6-.1 1.3-.1 1.9-.1 1.4-.1 2.8-.1 4.3-.1h.2c.7 0 1.4 0 2.2.1h.3c3.4 0 6.9.3 10.2.7.1 0 .2.1.3.1 1 .1 2.1.2 3.1.4.7.2 1.3.3 2 .4.6.2 1.2.2 1.7.4 1.3.2 2.6.5 3.8.8 1.2.3 2.5.6 3.7 1 1.2.3 2.6.5 3.8.9.4 1.8.4 4.2.4 6.5z"/>
  <path fill="#054752" d="M950.3 938.3c.5 2.6 5.3 19.3 5.3 19.3l3.7-.4v-9s1.8-.9 4 .8c3.9 2.9 4.6 9 14.1 8.5 3.1-.2 10-2 10.8-2.4 5.8-2.7 3-5.8-.6-6.1 0 0-3.3-.4-8.8-2.5-5.7-2.2-10.9-11-13.9-14.9-.3-.2-14.6 6.7-14.6 6.7z"/>
  <path fill="#FACFC4" d="m833 555.4-36.5 76.7c-.1.1-23.4-7-24.8-7.3-.1-.2 1.4-9.1 4.5-21.5v-.1c4.8-19.5 16.1-56.8 28.3-73.3 1.2-1.6 23.4 23 28.5 25.5z"/>
  <path fill="#9AED66" d="M823.8 514.5c-22 6.8-37.7 41.6-41.5 49.2l36.4 24.6s17.3-19.8 20.1-34.8-6.4-41.6-15-39z"/>
  <path fill="#FACFC4" d="M796.4 632.6c2.8-6.6-.2-14.2-6.8-17-6.6-2.8-14.2.2-17 6.8-2.8 6.6.2 14.2 6.8 17 6.6 2.8 14.2-.2 17-6.8z"/>
  <path fill="#FACFC4" d="M777.4 614.1s6.8-2.3 14.2-2.5c5-.1 35.9-2.7 56.7-9.6 1.1-.4 4.4-2 4.9-2.2 1.2-.6 2.7-2.1 4.2-2.7 2.3-1 4.4-2.3 5.6-3 .9 1.6.4 3.4-2 4.7-1.8 1.1-3.6 1.8-3.3 2.7.3.5 1.8 0 5.2-1.2 2.7-1 7-2.6 10.8-3.6 2.3-.8 2.9 1.6 1.4 2.4-2.5 1.5-9 3.6-10.1 4.4-.4.3-.1.7.2.6 3.2-.6 10.4-5.5 11.5-3 0 .4 0 .7-.2 1-.3.5-.9.9-1.9 1.4-.3.1-.5.2-.8.4-2.9 1.3-5.8 2.5-7.2 3.4-.4.2-.5.6-.1.7.2.1 2-.7 4.1-1.5 2.9-1.2 6.4-2.6 6.9-1.6s-1 1.8-3 2.8c-3.4 1.6-8.3 3.2-8.4 3.5-.1.2 0 .6.3.5 1.3-.4 4.5-1.4 6.8-2 1.2-.3 1.9.7 1.4 1.3-2 1.3-6.5 2.9-9.6 4.2-5.8 2.5-12.1 2.8-17.6 5.1-1.4.5-2.2 1-4.4 2-6.3 3-22 9.5-49 15.5-6 1.3-8.7 1.6-12 1.9"/>
  <path fill="#F6B241" d="M907.9 426.6c-23.2-24.1-55.1.1-66.4 22.7l6.8 1c16.1-3.7 30 6.9 45.5 7.1 16.8.3 26-18.4 14.1-30.8z"/>
  <path fill="#FACFC4" d="m891.6 464.3-1.8 8c-1.6 7.8-5.7 25.3-17.2 25.1-1.7 0-3.4-.3-4.5-.5l6.5-41.9 2.6.4 3.4.6 4.2.7c3 .5 5.6 2.4 6.3 5.1.3.8.5 1.6.4 2.4l.1.1z"/>
  <path fill="#FACFC4" d="m856.2 458.8-.7 8.2c-.9 7.9-.9 26 10.1 29.4 1.6.5 1.9.6 3 .6l6.5-41.9-2.7-.4-3.4-.5-4.2-.6c-3-.4-6.1.6-7.5 2.9-.5.7-1 1.4-1.2 2.2l.1.1z"/>
  <path opacity=".15" fill="#8D405F" d="M878.5 464.8s-1.5 12.6-1.7 12.8c-.8.9-5.4.4-5.4.4s5.3 5.4 10.6 2.8c5.4-2.6 9.6-16.2-3.5-16z"/>
  <path fill="#F6B241" d="M850.1 441c-1.8 10.7 5.3 20.8 15.7 22.4l17.7 2.8c6.6 1 17.5.6 22.1-16.4l-55.5-8.8z"/>
  <path fill="#FFF" d="M880.6 483.2c-2.4-.4-16.3-2.4-16.3-2.4-.1 3 3.7 6.1 7.5 6.8 3.7.6 8.3-1.8 8.8-4.4z"/>
  <path fill="#FACFC4" d="M984.5 624.6c2.3-13.8 7.7-58.2 7.6-63.6.6-15.1 2.6-18.5 3.9-25.9 1.1-6.2-16.6 1.8-17.1 8.7-1.3 18.2-10.1 45.9-12.1 49.9"/>
  <path fill="#FACFC4" d="M978.9 540.1c-2.6-3.6-10.9-20.2-10.8-22.9.1-2.7 1.7-4 3.5-1.1.7 1.1 6.9 12.2 8.6 11.7s.5-17.1 2.2-18c1.7-1 3-.5 3.3 1.2.3 1.7.7 14 1.1 19.2.3 4.3 2 10-2.1 11.2.1 0-4.3.8-5.8-1.3z"/>
  <path fill="#FACFC4" d="M974.5 531c0 3.1 0 8.7 1.5 10 3 2.6 4.8 5.6 11.9 3.8s9.4-13.1 9.1-15.6c-.6-6.1-22.5 1.8-22.5 1.8z"/>
  <path opacity=".15" fill="#8D405F" d="M992.1 536.1c-1.9 3.7-3.4 4.8-6.6 2-2.7-2.3-8.9.6-9.7-1.3-1.1-2.8 2.1-7.1 5-6.4 3.7.9 5.5-1.1 4.9-4.1-.8-4.2 11.1.5 6.4 9.8z"/>
  <path fill="#FACFC4" d="M984.2 526.1c2.6-2.6 6.9-3 7.4-.1s1.2 12-1.3 12.3-3.8-3.7-3.7-5.9-2.4-6.3-2.4-6.3z"/>
  <path fill="#FACFC4" d="M991.1 525.2c3-1.9 6.9-1.7 6.6 1s-2.5 11-4.7 10.9-2.3-3.9-1.5-5.9c.8-2-.4-6-.4-6zM984.7 531.7c-3.7-1.3-7.5-2.7-9.8-.6-2.3 2.1-1 10 3.9 12.8 2.9 1.7 9-1.5 7.8-4.3s-8.8-5-8.8-5 5.2 1.1 7.5.3c2.4-.6 2.1-2.3-.6-3.2z"/>
  <path d="M884.6 468.3c-2-.5-3 .9-3.3 1.6-.2.5.1 1 .5 1.2.5.2 1-.1 1.2-.5 0-.1.3-.7 1.2-.5 1 .2.9 1.7.9 1.7 0 .5.3.9.8.9h.1c.5 0 .9-.4.9-.9.1-1-.4-3-2.3-3.5zM866.8 465.7c-1.9-.5-3.2 1.2-3.7 2.1-.2.5 0 1 .4 1.2h.1c.4.1.9-.1 1.1-.5 0 0 .6-1.3 1.6-1.1.9.2.8.8.8.9-.1.5.3.9.8 1 .5.1 1-.3 1-.8.2-.7-.2-2.3-2.1-2.8z"/>
  <path fill="#CA9C6F" d="m77.6 863.4-27.4 24.1-.6 16.3 26.5-12.3z"/>
  <ellipse opacity=".15" fill="#8F4160" cx="194.2" cy="973" rx="137.5" ry="9.7"/>
  <path fill="#162D38" d="M137.7 808.8c-22.1 11.1-56.7 47.4-75.4 64.3L76 894.9c1.2-.1 82.4-44.4 110.8-59.9 5.8-3.1 8.5-10 6.5-16.2 0-.1-.1-.2-.1-.2-2.9-5.7-9.7-14-10.8-15.3l-.2-.2s-38.8 2.8-44.5 5.7"/>
  <path fill="#162D38" d="M160.1 676.7s-.9 84.5-1 104.7c-.1 20.5 7.4 54.9 21.6 54.4 14.2-.5 37-38.4 38.8-65 1.8-26.6 8.3-94.7-2-100.8-10.3-5.9-57.4 6.7-57.4 6.7"/>
  <path fill="#CA9C6F" d="M266 930s6.6 24 9.8 28.2c3.3 4.3 12.7 4.5 12.7 4.5l-.1-14.5-3.5-15L266 930z"/>
  <path fill="#054752" d="M231 808.1s-6.3 25.9-3.9 42c3.6 24.5 27 66.3 38.5 88.8l21.7-2.4c.3-1.4-24.9-137.7-24.9-137.7s-11.3.2-11.5.3l-19.9 9z"/>
  <path fill="#054752" d="M169.4 701.1c11.5 32.7 52.9 101.5 65.3 110 12.4 8.4 26.5 6.6 27.5-12.3 1.1-18.9-14.8-113.3-26.7-124.8-11.8-11.6-77.5-5.5-66.1 27.1"/>
  <path fill="#9AED66" d="M273.2 952.7c-.4.6-2.3 5-1.9 8.4.4 3.4 3.1 6.7 3.1 6.7l13 .6 13.4 4.6h21.6s2.2-7.7-8.6-9.7c-8.5-1.6-23.8-12.5-23.8-12.5s-.3 3.2-3.7 4.2c-3.4 1-13.1-2.3-13.1-2.3"/>
  <path fill="#054752" d="M306.1 960.4s-4.7 4.7-5 7.4c-.3 2.6-.4 5.3-.4 5.3l23 .4s1.6-6.6-4.1-8.4c-5.7-2-13.5-4.7-13.5-4.7M274.4 967.8v3.8l11.4.8 1.6-3.9z"/>
  <path fill="#FFF" d="m289.9 950.8-3.6 4.2 3.8 6.7 8.1 3.3 6-5.6z"/>
  <path fill="#054752" d="M289.5 956.4c1.6-1.1 3.2-2.1 4.9-2.9.3-.1.6-.1.8.2.2.3.1.7-.2.8-1.7.9-3.4 1.8-4.9 2.9-.3.2-.7.1-.8-.2-.2-.3-.1-.6.2-.8M291.4 958.3c1.5-1.3 3-2.5 4.6-3.6.3-.2.7-.1.8.2.2.3.1.6-.2.8-1.5 1.1-3 2.2-4.4 3.4-.2.2-.6.2-.8 0-.2-.2-.2-.6 0-.8M293.8 960.2c.9-1.7 2.3-3.2 4.1-4.1.3-.2.6-.1.8.2.2.3.1.7-.2.8-1.5.8-2.8 2.1-3.6 3.7-.4.6-1.5 0-1.1-.6M295.9 961.7c.8-1.2 1.7-2.2 2.7-3.1.5-.4 1-.9 1.6-1.2.4-.2.9-.1 1 .4.1.5-.4.9-.8.8-.3-.1-.4-.3-.4-.6s.3-.6.6-.6c.4 0 .6.3.6.6-.1-.2-.3-.4-.4-.6h-.3c-.1.1-.2.1-.3.2l-.1.1c0 .2 0 .3-.1.5.1.1.2.2.3.4.1 0 .2.1.3.1.2-.1.2 0 .1 0s-.1.1-.1.1c-.1.1-.2.1-.3.2-.2.1-.3.3-.5.4-.4.3-.7.6-1.1 1-.7.7-1.3 1.4-1.8 2.2-.2.3-.5.4-.8.2-.3-.4-.4-.8-.2-1.1M299 961.8c.7-1.4 1.8-2.6 3.1-3.5.3-.2.7-.1.8.2.2.3.1.6-.2.8-.6.4-1 .8-1.5 1.3-.1.1-.2.3-.3.4l-.1.1v.1l-.2.2c-.2.3-.4.6-.6 1-.1.3-.5.4-.8.2-.2-.2-.3-.5-.2-.8"/>
  <path fill="#9AED66" d="M57.5 882.4c-.6-.2-5.5-.6-8.6.8-3.1 1.4-5.4 5-5.4 5l3.4 12.5-.3 14.1 6.6 20.6s8-.3 6.6-11.2c-1.1-8.6 4.6-26.5 4.6-26.5s-3.1.7-5.1-2.2c-2-2.8-1.8-13.1-1.8-13.1"/>
  <path fill="#054752" d="M60.2 916.1s-6-3-8.6-2.5c-2.6.6-5.1 1.3-5.1 1.3l6.7 22s6.7-.5 6.8-6.5c0-6 .2-14.3.2-14.3M43.4 888.2l-3.6 1.2 2.8 11.1 4.2.3z"/>
  <path fill="#FFF" d="m64.4 897.8-5.1-2.2-5.3 5.7-.6 8.7 7.2 4z"/>
  <path fill="#054752" d="M58.8 899c1.6 1.2 3 2.5 4.4 3.9.2.2.1.6-.1.8-.3.2-.6.1-.8-.1-1.3-1.3-2.7-2.6-4.2-3.7-.5-.3.1-1.3.7-.9M57.8 901.6c1.6 1 3.2 2.1 4.7 3.2.6.5-.1 1.4-.7 1-1.5-1.1-3.1-2.2-4.7-3.2-.3-.2-.3-.6-.1-.8.2-.4.5-.4.8-.2M56.6 904.3c2 .4 3.8 1.3 5.3 2.7.2.2.1.7-.1.8-.3.2-.6.1-.8-.1-1.2-1.2-2.8-1.9-4.5-2.2-.3-.1-.6-.3-.5-.6-.1-.3.3-.6.6-.6M55.9 906.8c1.4.4 2.7 1 3.9 1.7l.9.6c.3.2.6.4.8.7.2.4.1.8-.3 1-.4.2-.8-.1-.9-.5-.1-.3.1-.5.3-.6.3-.2.7 0 .8.3.1.3 0 .6-.3.8l.3-.6c-.1-.1-.2-.3-.2-.4h-.1c-.2 0-.4.1-.6.1l-.2.3v-.1.4c.1.1.1.1 0 0l-.1-.1c-.1-.1-.2-.2-.3-.2-.2-.1-.4-.3-.5-.4-.4-.3-.8-.5-1.2-.7-.9-.5-1.8-.8-2.7-1.1-.3-.1-.5-.5-.4-.8.1-.3.5-.5.8-.4M56.6 909.8c1.6.2 3.1.9 4.3 1.9.3.2.3.6.1.8-.2.2-.6.3-.8.1-1.1-.9-2.3-1.4-3.7-1.6-.3-.1-.6-.3-.5-.6 0-.4.3-.7.6-.6"/>
  <path fill="#CA9C6F" d="M249.7 584.6c.6.3 1.2.6 1.9.9.4.2.8.4 1.3.6 5.2 2.5 10.5 4.6 15.6 6.3 22.7 7.7 41.5 8.9 53.3 9.9 4.7.4 7.8 1 7.9 1 .1-.5 1.5-7 2.6-11.1.2-.6 2.5-9.5 3.1-11.9.4-1.5.6-2.4.6-2.4l-5.6-2.4-46.6-20.3-15.5-6.8-1.1-.5-1.2-.5v.1c-2.2 4.8-16.6 37-16.3 37.1"/>
  <path fill="#CA9C6F" d="M318.9 590.7c-.2 5 2.7 9.4 6.9 11.4 1.4.7 3.1 1.1 4.8 1.2 2.9.1 5.7-.8 7.8-2.5 2.2-1.7 3.9-4.1 4.5-7 .2-.7.3-1.4.3-2.2.1-4.1-1.7-7.7-4.7-10.1-1.5-1.2-3.4-2.1-5.4-2.4-.5-.1-1.1-.1-1.6-.2-5.4-.2-10.1 3.1-11.8 7.9-.4 1.3-.7 2.6-.8 3.9"/>
  <path opacity=".3" fill="#7E425E" d="M305.5 600.2c6.9 1-16.3-22.5-27.2-25.5-.7-.2-21.6-6-21.6-6l-5.1 16.9-.3 2.5c-.1-.1 23.4 7.8 54.2 12.1"/>
  <path fill="#9AED66" d="M135.4 565.3c3.2-10.7 13.1-18.8 23.8-23.1 27.9-9.8 52.8-8.4 63.6-8.4 5 .7 10.4.7 10.4.7s47.9 11.4 61 19.7c.5.3-6 52-6 52 .6.4-17.9-.3-18.9 0-5.3 33.9-6.5 67.9-11.8 109.3-17.5 26.9-114 5.2-114 5.2.3-1.3 24.1-65.5 21.8-95.4l-9.1 3.9s-26-46.8-20.8-63.9"/>
  <path fill="#CA9C6F" d="M354.6 525.5c-2.6-7.5.2-10.6-1-17.6-1.4-8.3-1-9.6 1.6-9.6 3.9.1 5.5 12.2 5.5 12.2s6.3-10 10.6-17.6c4.3-7.6 7.5-1 4.9 3.7-1.7 3-4.6 8.9-6.4 12.7-.2.4-.3 1.2 0 .9 2.2-2.3 3.3-3.7 4.8-4.7 3-2.1 5.9 2.2 3.4 4.4-1.9 1.7-2.1 2.3-2.1 2.3s3.8-4.1 5.6-2.5c1.8 1.5 1.4 3.9-.2 5.4-1.9 1.7-2.5 2.6-2.5 2.6s8.9-7.8 11.7-7.9c3.3-.1 1.8 2.4-.4 5-3.2 3.9-9.5 11.4-12.3 13.6-2.9 2.2-8.6 6.3-10 6-1.4-.4-12.2-6-13.2-8.9z"/>
  <path fill="#CA9C6F" d="M353.4 520.6c-.4 7.4-18.4 31.7-23.9 41.5-3.3 5.8-8.8 16.6-8.8 16.6l20.7 18.4s19.6-45.4 22.7-51.8c3.1-6.4 4.2-9.4 7-11.5 2.8-2.1 4-6.2 2.6-8.4-1.3-2.2-19.8-13.5-20.3-4.8z"/>
  <path opacity=".3" fill="#7E425E" d="M368.4 512.8c1 1.7 2.8 4.3 5.7 1.7 0 0-1.9 1.9-.3 4 1.6 2 4.1 0 4.1 0s-4.1 3.8-6 1.9c-2-1.9-.6-3.4-1-3.6-.5-.2-2.1-.7-2.5-4z"/>
  <path opacity=".3" fill="#5F003C" d="m183.1 670.9-19.9-22.3 2.6-15 40.1 18.4c2.2.9 4.6 2.1 7 3.6 4.5 2.8 25.2 16.3 47.8 22.6 1.2.3-1.2 18.8-1.2 18.8-1.5-.4-4.3-.8-6.9-1.2-7.3-1.1-25.2-4.6-52.8-15.5-6.1-2.4-8.7-3.8-11.8-5.5-2-1-3.6-2.3-4.9-3.9"/>
  <path fill="#CA9C6F" d="M196.7 535.2c-.2 1.6 12.7 7.8 20.6 7.3 6.6 0 13.2-2.1 16.3-8.3.5-.9.8-2 1-3.2l3.7-18.9.2-1.1-2.9-28.4-25.8 8.7c0-.1-10.9 25.6-13.1 43.9"/>
  <path opacity=".3" fill="#7E425E" d="M233.7 535.3c.5-1 .8-2 1-3.2l3.7-18.9-13.5-4.6c-.1 0-3.3 24.2 8.8 26.7"/>
  <path fill="#CA9C6F" d="M183.5 660.5c.6.2 1.2.3 1.8.4.4-.2 3.1-2.6 6.4-5.6 4.7-4.2 10.7-9.6 13.2-12 .8-.7 1.3-1.2 1.3-1.2l-.3-.9-10.2-29.4-39.4 16.8"/>
  <path fill="#CA9C6F" d="M180.7 646.6c-2.6 7.2 1.2 15.1 8.4 17.8 7.2 2.6 15.1-1 17.7-8.2 2.6-7.2-1.2-15.1-8.4-17.8-7.2-2.7-15.1 1-17.7 8.2"/>
  <path fill="#CA9C6F" d="M283.2 677.4c-3.7-1-5.4-1.5-5.3-2.1.2-1 2.2-.5 4.5-.5 3 .3 4.4-1.1 4.6-3-1.5-.1-4.2-.2-6.8-.7-1.7-.4-3.9 0-5.3-.2-.6 0-4.5-.6-5.7-.9-22.6-6.3-51.7-22.5-56.2-25.3-6.7-4.2-14.1-6.2-14.1-6.2L188 663.9c3.1 1.7 5.6 3.1 11.8 5.5 27.6 10.8 45.4 14.4 52.8 15.5 2.6.5 3.6.5 5.1.8 6.2 1.3 12 4.7 18.6 6 3.6.7 8.4 1.9 11 2 .8-.2.7-1.5-.5-2-2.4-.8-5.9-1.9-7.2-2.3-.4-.1-.2-.5 0-.6.3-.1 5.5 1.4 9.5 1.9 2.4.4 4.2.5 4.3-.7.2-1.2-3.8-2-7.1-2.7-2.3-.5-4.4-.9-4.5-1.1-.3-.3.1-.7.5-.6 1.8.1 5.1.8 8.4 1.3.3.1.6.1.9.2 1.2.1 2 .1 2.6-.1.3-.2.6-.4.7-.8.5-2.8-8.8-2.8-12-4.2-.3-.2-.4-.7.2-.7 1.4-.1 8.4 1.9 11.6 2.1 1.8.1 2.7-2.3.1-3-3.9-1.1-8.6-2.3-11.6-3M250.4 508.9c-1.4 3.7-6.5 3.3-15.2 4h-.2c-1.1.1-2.3-.1-3.7-.5-2.1-.5-4.5-1.4-6.9-2.4-5.7-2.4-11.4-5.6-12.8-6.4-11.3-6.4-13.3-28.8-12.3-37.7 2.1-18.8 18.6-19.2 30.4-15.8 6.4 1.8 11.3 5 14.9 8.7 6.3 6.4 8.3 18 7.6 19.4-.8 1.5-1.9 3.7-2.1 5.1-.3 2.9 1.1 6.2.9 7.8-.1.5-.2 1-.2 1.5-1.8 12.3 1.4 11.6-.4 16.3"/>
  <path d="m240.5 475.2 10.7.5c-4.5-3.8-9.8-1.4-10.7-.5z"/>
  <path fill="#CA9C6F" d="M250.1 478.1c1.6 7.1 4.1 10.8 4.7 13.6.1.5-3.9.7-4.4.6-.1 0-1.9-3-1.9-6.1-.1-3.9 1.6-8.1 1.6-8.1"/>
  <path opacity=".3" d="M250.7 492.6v-.6l-30.7 1.7s-1.1 11.7 4.3 16.3c.7.6 1.6 1.1 2.6 1.4 1.3.4 2.7.7 4.4 1 1.2.2 2.4.3 3.7.5h.2c8.7-.7 13.8-.3 15.2-4 1.8-4.7-1.4-4 .3-16.3z"/>
  <path d="M252.3 443.8c-7.8-.9-14.7.4-20.4 2.2-7.2-3.6-17-5.2-29.2.4-17.1 7.8-12.7 32.6 2.9 55 .2.3 8.1-.6 10.6-4 3.2-4.1 4.4-17.2 4.4-17.2l9.1 3s3.5-9.9 4.2-11.7c.4-1 .9-2 1.5-3 7.9.8 16.8 1.3 19.1-.4 4.2-3 18.4-22-2.2-24.3z"/>
  <path fill="#FFF" d="M250.4 495.2s-4.4.6-4.4 1.4c0 1.7 4.3 2.3 4.3 2.3l.1-3.7z"/>
  <path d="M245.2 478.2c-2-.2-2.9 1.3-3 2.1-.1.5.2 1 .7 1.1.5.1 1-.2 1.1-.7 0-.1.2-.7 1.1-.6 1 .1 1.2 1.5 1.2 1.5.1.5.4.8.9.8h.1c.5-.1.9-.5.8-1-.2-1.1-.9-3.1-2.9-3.2z"/>
  <ellipse opacity=".15" fill="#8F4160" cx="610.8" cy="1044.1" rx="136.4" ry="11.8"/>
  <path fill="#054752" d="M498.3 1016.7c3.2-2.5 5.9-1.2 5.9 4.1 0 4.3 2.5 5.1 4.8 5.4 10.2 1.2 11.5-3.6 11.5-3.6s4.9 17.4-3.4 19c-3.6.7-14.7 1.9-25.2 2.5-11.8.7-22.9 2.5-23.5-3.9-.3-2.9 10.1-6.7 18.4-13.4 3.5-2.8 9.1-8.2 11.5-10.1"/>
  <path fill="#FFF" d="M501.1 1024.6c.3.1.7-.1.9-.3.4-.4.3-1-.1-1.4l-5.7-4.9c-.4-.4-1-.3-1.4.1-.4.4-.3 1 .1 1.4l5.7 4.9c.2.1.3.1.5.2M496.8 1027.8c.3.1.7-.1.9-.3.4-.4.3-1-.1-1.4l-5.3-4.7c-.4-.4-1-.3-1.4.1-.4.4-.3 1 .1 1.4l5.3 4.7c.1.1.3.2.5.2M492.4 1031c.3.1.7-.1.9-.3.4-.4.4-1-.1-1.4l-4.9-4.5c-.4-.4-1-.4-1.4.1-.4.4-.4 1 .1 1.4l4.9 4.5c.2.1.3.2.5.2M488.1 1034.2c.3.1.6 0 .9-.3.4-.4.4-1 0-1.4l-4.4-4.3c-.4-.4-1-.4-1.4 0-.4.4-.4 1 0 1.4l4.4 4.3c.1.2.3.3.5.3"/>
  <path fill="#054752" d="m585.3 698.8-86.1-11.9c-3.3 20.2-5.9 119.7-4.6 168.3l41.8 3.6s40.2-89 48.9-160"/>
  <path fill="#054752" d="M521.7 1013c.2-.7.5-2 .9-3.8 3.7-15 19.4-82.9 18.5-114.7-.3-10.7.4-32.1-5.9-45.7-1-2.1-37.8 2.1-40.9 3.8l3.2 159.4c9.5 1.2 24.2 1 24.2 1M696.6 1012.7c-3.1-2.6-5.9-1.4-6 3.9-.1 4.3-2.6 5-5 5.3-10.3.9-11.4-3.9-11.4-3.9s-5.4 17.2 2.8 19.1c3.6.8 14.6 2.4 25.1 3.3 11.8 1.1 22.8 3.2 23.7-3.1.4-2.9-9.9-7.1-18-13.9-3.4-3.1-8.8-8.7-11.2-10.7"/>
  <path fill="#FFF" d="M693.6 1020.5c-.3 0-.7-.1-.9-.4-.3-.4-.3-1.1.2-1.4l5.8-4.7c.4-.3 1.1-.3 1.4.2.3.4.3 1.1-.2 1.4l-5.8 4.7c-.2.1-.3.2-.5.2M697.8 1023.9c-.3 0-.7-.1-.9-.3-.4-.4-.3-1 .1-1.4l5.4-4.5c.4-.4 1-.3 1.4.1.4.4.3 1-.1 1.4l-5.4 4.5c-.1.1-.3.2-.5.2M702.1 1027.3c-.3 0-.7-.1-.9-.3-.4-.4-.3-1 .1-1.4l5-4.3c.4-.4 1-.3 1.4.1.4.4.3 1-.1 1.4l-5 4.3c-.2.1-.3.1-.5.2M706.3 1030.6c-.3 0-.6-.1-.9-.3-.4-.4-.3-1 .1-1.4l4.6-4.1c.4-.4 1-.3 1.4.1.4.4.3 1-.1 1.4l-4.6 4.1c-.1.1-.3.2-.5.2"/>
  <path fill="#054752" d="m527.4 697.7 93.6 6.5c7.4 19.1 21.3 99.3 30 147.2l-37 16.7c-.1-.1-48.3-61.9-86.6-170.4"/>
  <path fill="#054752" d="M672.1 1013.3c-.4-.7-1.1-1.8-2-3.4-8-13.2-43.3-73.3-51.9-103.9-2.9-10.3-9.9-30.6-8-45.4.3-2.3 36.7-9.3 40.1-8.6l44.6 153.1c-8.7 4-22.8 8.2-22.8 8.2"/>
  <path fill="#D09C60" d="M624.5 565s14.2-5 18.1-17.1c4.6-14.3 24.2-75 23.8-77.9-2.9-20.5-20.3-12.6-24.9-4.7-4.7 7.9-20.6 24.9-27.9 46.4-5.9 17.1-23.5 51.3 10.9 53.3"/>
  <path fill="#573A22" d="M616.7 476.6c1 8.1-2.5 14.9-7.4 19.4-2-1.1-4-2.2-6-3.4-.8 12-4.5 23-10.8 31.6-2.8-2.5-5.6-5-8.5-7.6-.7 6.7-1.8 14-6.7 17.2-4.9 3.3-15-1-16-8.2-1.5 5.2-8.8 5.1-13.8.9s-7.5-10.9-8.2-16.8c-4 5.8-15.3 1.9-20-6.1-4.7-7.9-3.5-17.4 1.3-22.5-2.5.9-5.1 1.8-7.6 2.7-7.2-9.6-8.3-23.1-2.3-29.9-5.1-1.3-8.6-8.7-7.4-13.5s5.5-7.2 10-8.3c-3.2-4.7-3.5-10.9-.7-14.2s8.4-3.4 12.9-.2c-3-5.7-2-12.4 2.1-15 4.1-2.6 10.9-.7 15.1 4.2-.6-9 7.4-15.1 15.9-12 8.5 3.1 15.4 14.5 13.8 22.7.7-9.5 11.5-13.8 20.3-8 1.8 1.2 3.7 2.9 4.4 5s-.2 4.4-2.2 4.1c5.8-3.5 15.7 3.4 18.7 11.6s.4 16.1-4.1 21c-1-2.8-.3-5.7 1.6-6.9 1.6-1 4.7 9.4 4.7 10.4.1 4.2-2.1 6.8-4.8 8.7 2.7 4 5.1 8.5 5.7 13.1z"/>
  <path fill="#D09C60" d="m578.7 524.6 1.2 7.3 18.7 8s-9 20-44.2 19.5c-35.2-.4-36.8-18.7-36.8-18.7l16.2-6.2 1.3-7.7 43.6-2.2z"/>
  <path fill="#D09C60" d="m537.5 492 40.4-.3 2 62.7-46.9-2.5z"/>
  <path fill="#2ED1FF" d="m490 571.3 17.4-32.7 21.3-3.2s1.8 7 25.9 8.7c24.1 1.6 29.7-10.2 29.7-10.2 34.2 6.4 43 43.6 43 43.6L637.7 744l-164.4 2.5L490 571.3z"/>
  <path fill="#D09C60" d="M639 481.2s-3.3-21.4-2.6-29.8c.5-5.6 1.7-24.7-3.4-49.1-.3-1.3-1.7-5.2-1.9-5.9-.6-1.4-2-3.4-2.5-5.1-.8-2.7-2.1-5.3-2.7-6.8 1.9-.8 3.9-.1 5.1 2.8 1 2.2 1.6 4.3 2.7 4 .6-.2.2-2-.7-6-.8-3.2-2.1-8.3-2.8-12.6-.6-2.7 2.1-3 2.9-1.3 1.3 3.1 2.9 10.6 3.7 12 .2.5.7.2.7-.2-.3-3.7-5-12.5-2-13.4.4 0 .8.1 1.1.3.5.4.9 1.1 1.4 2.4.1.3.2.6.3 1 1.1 3.4 2.1 6.9 2.9 8.6.1.5.7.7.8.2.2-.2-.5-2.4-1.2-4.8-1-3.5-2.1-7.6-.9-8 1.2-.4 2 1.4 2.8 3.8 1.4 4.1 2.6 9.7 2.9 10 .3.1.7.1.6-.3-.3-1.5-1-5.3-1.4-8-.2-1.3 1-2.1 1.6-1.4 1.2 2.5 2.4 7.7 3.6 11.4 2.1 6.9 1.7 14.1 3.5 20.5.4 1.6.9 2.6 1.7 5.2 2.6 7.5 5.6 25.8 9.3 45 1.3 6.9 2.2 9.7 2.1 13.4"/>
  <path fill="#2ED1FF" d="M628.3 580.3c6.5-16.5 25.9-51.4 25.9-51.4l-45.8-20.8-24 25.7s-1.6 27.2 19.5 38.1c21.1 11 24.4 8.4 24.4 8.4"/>
  <path fill="#D09C60" d="M499.5 561s-14.1-5.4-17.6-17.7c-4.1-14.5-21.9-75.7-21.4-78.6 3.5-20.4 20.6-12 25.1-4 4.4 8 19.8 25.5 26.5 47.2 5.4 17.4 21.8 52.1-12.6 53.1"/>
  <path fill="#D09C60" d="M489.4 475.9s.9-21.6-.7-29.9c-1.1-5.6-4.5-24.3-2.1-49.1.1-1.3 1.1-5.4 1.3-6 .4-1.5 1.6-3.6 1.9-5.4.5-2.8 1.5-5.5 2-7-2-.6-3.9.4-4.8 3.4-.8 2.3-1.1 4.4-2.2 4.3-.6-.2-.5-2 0-6.1.4-3.3 1.1-8.4 1.3-12.9.3-2.8-2.4-2.8-3-1-1 3.2-1.7 10.9-2.3 12.3-.2.5-.7.3-.7-.1-.1-3.7 3.5-13 .5-13.5-.4 0-.8.2-1.1.5-.4.4-.8 1.2-1.1 2.5-.1.3-.1.7-.2 1-.7 3.5-1.3 7.1-1.9 8.9-.1.5-.6.7-.8.3-.2-.2.2-2.4.6-4.9.6-3.5 1.3-7.8 0-8.1-1.3-.3-1.8 1.6-2.3 4.1-1 4.2-1.5 10-1.8 10.2-.3.2-.7.2-.6-.2.1-1.5.4-5.4.5-8.1 0-1.4-1.2-1.9-1.8-1.2-.9 2.6-1.5 7.9-2.3 11.7-1.3 7-.1 14.2-1.2 20.8-.2 1.7-.6 2.7-1.1 5.4-1.8 7.7-2.7 26.3-4.2 45.8-.5 7-1.1 9.9-.6 13.6"/>
  <path fill="#2ED1FF" d="M488.3 569.3c-6-16.7-17.4-45.3-17.4-45.3l46.4-19.4 11.4 30.6s12.7 23-8.8 33.3c-21.4 10.4-31.6.8-31.6.8"/>
  <path fill="#A06E3C" d="M564.5 501.9c-.6.2-5.7 22.6-28.4 19.9l.3-21.5 28.1 1.6z"/>
  <path fill="#D09C60" d="m529.7 460.6.7 11.7c.2 20.3 2.2 37 18.5 39.5 2.3.3 4.9.4 6.4.3l.5-65.4-14.6.4c-4.3.1-8.4-.6-9.9 3-.5 1-1.5 9.1-1.5 10.2l-.1.3z"/>
  <path fill="#D09C60" d="m582.5 461-.9 11.7c-.6 11.3-4.8 37-21.1 39.1-2.4.3-4.1.3-5.7.2l-.2-60.7 5.7.1 4.9.1 6.1.1c4.4.1 8.5 2.2 10 5.8.5 1.1 1.1 2.2 1.1 3.4l.1.2z"/>
  <path fill="#FFF" d="M542.3 490.6c3.5-.1 23.5.4 23.5.4-.5 4.3-6.7 9.6-12.3 9.7-5.2.1-11.1-6.2-11.2-10.1z"/>
  <path fill="#A06E3C" d="M549.6 464.4s-.8 18.2-.6 18.5c.9 1.5 7.5 1.8 7.5 1.8s-8.7 6.4-15.6 1.5c-7-5-9.8-25.2 8.7-21.8z"/>
  <path fill="#573A22" d="m579.1 487.2-2.3-31.9s-37.2-.8-43.9-5.1c-.4-.2-1.1 6.4-1.1 6.4l-4.7-.8s-7-24.5 29.2-25.2c19.8-.4 35.6 12.2 35.5 18.9-.2 16-1.7 18.6-2.9 26.4-1.3 7.9-9.8 11.3-9.8 11.3z"/>
  <path fill="#573A22" d="m526.9 451.5 6.6-2.4-1.9 36s-4.7-4.9-5.4-16.3"/>
  <ellipse transform="rotate(-89.12 580.904 481.659) scale(1.00002)" fill="#D09C60" cx="580.9" cy="481.7" rx="7.3" ry="5.2"/>
  <path d="M570.9 472.2c-.2-1.6-1.4-4.7-4.5-5-3.2-.3-4.5 2-4.8 3.3-.2.8.3 1.5 1.1 1.7.8.2 1.5-.3 1.7-1.1 0-.2.3-1.1 1.7-1 1.5.1 1.8 2.4 1.8 2.4.1.7.7 1.3 1.4 1.3h.2c.9-.1 1.4-.8 1.4-1.6zM542.6 466.6c-3.1-.6-5 2.1-5.7 3.5-.3.7 0 1.6.8 1.9.1 0 .1 0 .2.1.7.2 1.4-.1 1.7-.8 0 0 .9-2.1 2.4-1.8 1.4.3 1.4 1.2 1.4 1.4-.1.8.5 1.5 1.3 1.5.8.1 1.5-.5 1.5-1.3.2-1.3-.4-3.8-3.6-4.5z"/>
  <path fill="#573A22" d="m537.9 462.3 9.2.6s-4.5-5-9.2-.6zM562.3 462.3l9.2.6c-.1 0-4.6-5-9.2-.6z"/>
  <path fill="#00AFF5" d="M668 312.8c0 58.4-47.4 105.8-105.8 105.8s-105.8-47.4-105.8-105.8S503.8 207 562.2 207c58.5 0 105.8 47.4 105.8 105.8z"/>
  <path fill="#008CB2" d="M403.6 48.4h105.8l105.8 123.4H509.4L403.6 48.4z"/>
  <path fill="#2ED1FF" d="M720.9 48.4H615.1L509.4 171.7h105.8L720.9 48.4z"/>
  <path fill="#D09C60" d="M633.7 402.8c-.3-1.3-1.9-5.1-2.2-5.7-.7-1.4-2.2-3.2-2.8-5-.9-2.7-2.3-5.2-3.1-6.6 1.9-.9 3.9-.3 5.3 2.6 1.2 2.1 1.8 4.2 2.9 3.9M486.6 396.9c.1-1.3 1.1-5.4 1.3-6 .4-1.5 1.6-3.6 1.9-5.4.5-2.8 1.5-5.5 2-7-2-.6-3.9.4-4.8 3.4-.8 2.3-2.1 7.2-3.2 7"/>
  <path fill="#CA9C6F" d="M226.1 480s-2.4-6.4-5.3-4.2-2.6 8.7 2.7 9.2c3.2.4 3.6-.4 3.6-.4l-1-4.6z"/>
</svg>
