<svg xmlns="http://www.w3.org/2000/svg" xmlns:xlink="http://www.w3.org/1999/xlink" height="474.25" width="788.12" xml:space="preserve" y="0" x="0" id="Calque_1" version="1.1"><style id="style604">.st0{clip-path:url(#SVGID_2_);fill:#fff}.st1{fill:#998675}.st1,.st3{clip-path:url(#SVGID_2_)}.st4{fill:#facfc4}.st5{fill:#5f003c}.st7,.st8{fill:#facfc4;clip-path:url(#SVGID_2_)}.st8{opacity:.28;fill:#8f405f}.st10{clip-path:url(#SVGID_4_);fill:#fff}.st11{fill:#fce0cd}.st11,.st12{clip-path:url(#SVGID_4_)}.st13{fill:#008cb2}.st14{fill:#fce0cd}.st15{clip-path:url(#SVGID_4_);opacity:.25;fill:#8f405f}.st18{clip-path:url(#SVGID_6_);fill:#fff}.st19{fill:#004753}.st19,.st20{clip-path:url(#SVGID_6_)}.st21{fill:#00b2b2}.st22,.st23{fill:#e2b4aa}.st23,.st24{clip-path:url(#SVGID_6_)}.st24{opacity:.28;fill:#8f405f}.st26{fill:#fff}.st26,.st27{clip-path:url(#SVGID_8_)}.st28{fill:#9aed66}.st31{opacity:.28;clip-path:url(#SVGID_8_);fill:#422e1f}.st32{fill:#886141}</style><defs id="defs607"><circle r="69.4" cy="238.5" cx="1417.3" transform="rotate(-29.98 1417.25 238.5)" id="SVGID_1_"/></defs><clipPath id="SVGID_2_"><use height="100%" width="100%" y="0" x="0" id="use609" overflow="visible" xlink:href="#SVGID_1_"/></clipPath><path transform="translate(-1333.16 -158.86)" id="path612" clip-path="url(#SVGID_2_)" d="M1486.8 240.9a69.24 69.24 0 01-67 71.6 69.24 69.24 0 01-71.6-67 69.24 69.24 0 0167-71.6c38.2-1.3 70.3 28.7 71.6 67z" class="st0"/><path transform="translate(-1333.16 -158.86)" id="path614" clip-path="url(#SVGID_2_)" d="M1476.2 273.5c-2.2-9.4-12.1-9.3-15.1-9.4 7-3.3 11.4-8.4 8.8-17-3.8-12.7-19.6-9-20.6-9 .1-.1 16.7-5.9 12.2-19.1-5-14.4-20-8.1-22-7.6 1.2-2.3-5-26.6-36.8-19.9-5.7 1.2-17.9 5-14.5 21-11.3.6-13.8 19.6-5.1 26.3-6.3 2.7-4.3 14.5 2.8 14.4-5.1 2-6.7 12.6.2 14l10.9 1.7c.2-.1.1-.7.3-.4-.6 8.3 7.8 18.1 13.9 22.4 6.2 4.3 12.1 8.7 20 9.4 8.2.6 17.1-1 24.8-3.5 10.1-3.3 23.1-10.6 20.2-23.3z" class="st1"/><path transform="translate(-1333.16 -158.86)" id="path616" fill="#8f405f" clip-path="url(#SVGID_2_)" opacity=".37" d="M1419.8 207.4s15.9 4.4 21.8 16.4c4.9 10.1-3.8 15.7-3.8 15.7s21.1-.3 16.1 20.5c-5.9 24.7-36.7.2-36.7.2s-5.7-48.6 2.6-52.8z"/><g transform="translate(-1333.16 -158.86)" id="g622" clip-path="url(#SVGID_2_)" class="st3"><path id="path618" d="M1492.3 394.1c-1.5-1.4-4.1-5.4-4.8-5.9-.3-.2-.5 0-.4.2 1 2.1 5.7 6 4.2 7.2-.2.1-.5.1-.7.1-.4-.1-.8-.5-1.3-1-.1-.2-.3-.3-.4-.5-1.4-1.7-2.8-3.4-3.6-4.2-.2-.2-.5-.2-.5 0-.1.2.8 1.3 1.8 2.5 1.3 1.7 2.9 3.8 2.3 4.3-.6.5-1.4-.3-2.4-1.5-1.8-2-3.7-4.9-3.9-5-.2 0-.4.1-.3.3.5.8 1.8 2.8 2.6 4.2.4.7-.1 1.4-.6 1.2-1.2-1.1-3.1-3.8-4.6-5.6-2.7-3.4-4.2-7.6-6.7-10.9-.6-.8-1.1-1.3-2.2-2.6-2.4-2.8-7.3-8.9-13.6-19.4-1.9-3.1-3.9-6.6-6-10.6-2-3.8-2.7-5.5-3.5-7.7l12.7-6.3 1.7-.8 1.7-.8s-.2 0-.2.1l-.2.1c2.1.9 3.1 4.6 4.4 8.7 1 3.3 8.7 23.6 17.2 36.2.4.7 2.2 2.6 2.5 2.9.7.7 1.9 1.4 2.6 2.3 1.1 1.4 2.4 2.5 3.1 3.2-.9.9-2.2.9-3.5-.4-1.1-1-1.9-2.1-2.4-1.7-.3.3.3 1.2 1.8 3.3 1.2 1.7 3 4.2 4.5 6.5 1 1.6-.5 2.4-1.3 1.6z" class="st4"/><path id="path620" d="M1462.3 341.9c-.6.6-1.2 1.1-1.9 1.5-4.4 2.5-9.9.9-12.3-3.4-.1-.2-.2-.5-.3-.7a9 9 0 01-.6-5.8c.6-2.4 2.1-4.6 4.4-5.9 2.3-1.3 4.9-1.5 7.2-.7 2.1.7 3.9 2.1 5.1 4.1.1.1.1.2.2.4 0 .1.1.1.1.2 1.5 3.5.7 7.7-1.9 10.3z" class="st4"/></g><g transform="translate(-1333.16 -158.86)" id="g628" clip-path="url(#SVGID_2_)" class="st3"><path id="path624" d="M1463 316.7c.3 7.6.5 13.3.6 14.9 0 .2.2.4.2.4-.2 0-.7 0-1.7.1-.6 0-1.1.1-1.9.2-4.2.4-10.6 1-13.1 1.2-.7.1-1 .1-1 .1l-4.2-16.8-10-40.1c0-.1-.1-.3-.1-.5 3.7-1 21.4-7.5 23.3-7 .1 0-.3.1-.3.1 6 13 7.6 33.4 8.2 47.4z" class="st5"/><path id="path626" d="M1442.6 260.5c6.6-1.1 12.9 3.3 14.1 10 1.1 6.6-3.3 12.9-10 14.1-6.6 1.1-12.9-3.3-14.1-10-1.1-6.7 3.4-13 10-14.1z" class="st5"/></g><path transform="translate(-1333.16 -158.86)" id="path630" fill="#8f405f" clip-path="url(#SVGID_2_)" opacity=".17" d="M1460.7 355.1c-1.1 1.4-2.3 2.2-3.6 2.4-1.9-3.1-3.9-6.6-6-10.6-2-3.8-2.7-5.5-3.5-7.7a9 9 0 01-.6-5.8c-.7.1-1.1.1-1.1.1l-4.2-16.8 4.9-19.6s7.2 14.8 11.9 29.8c.6 1.8 1.1 3.6 1.6 5.4.1.2.1.5.2.7.8 3.1 1.4 6.1 1.8 8.9 1 5.7.7 10.5-1.4 13.2z"/><g transform="translate(-1333.16 -158.86)" id="g636" clip-path="url(#SVGID_2_)" class="st3"><path id="path632" d="M1396.8 277.4l2.9 59.1c0 .1-16.7 3.4-17.6 3.7-.1-.1-2.1-6-4.4-14.7v-.1c-3.5-13.6-7.4-33.6-5.3-47.8.2-1.4 20.4 0 24.4-.2z" class="st5"/><path id="path634" d="M1383.2 266.1c-6.7.8-11.4 6.9-10.6 13.6.8 6.7 6.9 11.4 13.6 10.6 6.7-.8 11.4-6.9 10.6-13.6-.9-6.7-7-11.4-13.6-10.6z" class="st5"/></g><g transform="translate(-1333.16 -158.86)" id="g640" clip-path="url(#SVGID_2_)" class="st3"><path id="path638" d="M1405.6 254.5s-19.2 7.6-24.6 11c-1 .6 16.1 61.8 16.1 61.8 5 16.2-5.1 24.7-3.7 31l26.5-1-1-102c-2.1.1-13.3-.8-13.3-.8z" class="st5"/></g><g transform="translate(-1333.16 -158.86)" id="g644" clip-path="url(#SVGID_2_)" class="st3"><path id="path642" d="M1424.2 253.5s23.4 7.4 29 10.4c1 .5-.1 30.1-.1 30.1-2.4 10.5-4.2 28.8-3.1 43.6.6 8.4 4.6 17 4.3 19.3l-33.8.3-3.9-102.9c2.2-.2 7.6-.8 7.6-.8z" class="st5"/></g><path transform="translate(-1333.16 -158.86)" id="path646" clip-path="url(#SVGID_2_)" d="M1424.6 242.1l-19.1-.8.6 17.7c0 1 3.5 8.4 9.5 8.5h1.3c8-.9 8.3-9.1 8.3-9.1z" class="st7"/><path transform="translate(-1333.16 -158.86)" id="path648" clip-path="url(#SVGID_2_)" d="M1406.9 243.9c.4.1 3.6 14.2 18.2 12.2l-.5-13.6z" class="st8"/><g transform="translate(-1333.16 -158.86)" id="g654" clip-path="url(#SVGID_2_)" class="st3"><path id="path650" d="M1427.3 224.2l-.2 5.7c-.1 5.5-.7 18-8.6 19.4-1.1.2-2.4.2-3.1.2l-.9-29.5 1.9-.1h2.4l3-.1c2.1 0 4.1.9 4.9 2.7.3.5.5 1 .6 1.6z" class="st4"/><path id="path652" d="M1402.3 225l.6 5.7c.4 5.5 2.7 17.9 10.7 18.8 1.2.1 1.4.1 2.2 0l-.9-29.5-1.9.1-2.4.1-3 .1c-2.1.1-4.1 1.2-4.8 2.9-.2.5-.5 1.1-.5 1.7z" class="st4"/></g><path transform="translate(-1333.16 -158.86)" id="path656" clip-path="url(#SVGID_2_)" d="M1421.7 238.2c-1.4.2-9.7 1.8-9.7 1.8.5 1.7 3.3 2.7 5.6 2.4 2.2-.4 4.4-2.6 4.1-4.2z" class="st0"/><path transform="translate(-1333.16 -158.86)" id="path658" clip-path="url(#SVGID_2_)" d="M1418.4 226.2s.6 8.9.5 9c-.4.7-3.6 1-3.6 1s4.3 3 7.6.5 4.4-12.3-4.5-10.5z" class="st8"/><path transform="translate(-1333.16 -158.86)" id="path660" clip-path="url(#SVGID_2_)" d="M1408.1 229.4s.3.4 1.1.7c.6.2 2.4.3 3.3-.8 0 0-.5-.6-1.7-.7-1.2-.2-2.3 0-2.7.8zm12.4-.1s.4.4 1.1.7c.9.3 2.3.1 3.2-.8 0 0-.9-.8-2.1-.7-.4-.1-1.5-.1-2.2.8z" fill="#004753"/><path transform="translate(-1333.16 -158.86)" id="path662" clip-path="url(#SVGID_2_)" d="M1402.4 224.8s2.2-11.2 11.2-11.7c14.4-.9 13.7 11.6 13.7 11.6z" class="st7"/><path transform="translate(-1333.16 -158.86)" id="path664" clip-path="url(#SVGID_2_)" d="M1396.9 223s6.8 4 12.6.1c4.8-3.3 3.8-9.2 3.8-9.2s5 11 13.4 8.5c9.3-2.8 9.3-8.6 9.3-8.6l-15-15c-.1.1-31.6 5.1-24.1 24.2z" class="st1"/><g transform="translate(-1333.16 -158.86)" id="g670" clip-path="url(#SVGID_2_)" class="st3"><path id="path666" d="M1388.1 326.5s4.8-1.2 10-1c3.5.2 25.1.2 39.9-3.4.8-.2 3.2-1.1 3.5-1.3.8-.4 2-1.3 3.1-1.6 1.6-.5 3.2-1.3 4.1-1.8.5 1.2.1 2.4-1.7 3.2-1.3.7-2.6 1.1-2.4 1.7.2.4 1.3.1 3.7-.5 2-.5 5-1.4 7.7-1.9 1.7-.4 1.9 1.2.8 1.8-1.8.9-6.5 2-7.2 2.5-.3.2-.1.4.1.4 2.3-.3 7.6-3.2 8.2-1.4 0 .3 0 .5-.2.7-.2.3-.7.6-1.4.9-.2.1-.4.1-.6.2-2.1.7-4.2 1.4-5.2 1.9-.3.1-.4.4-.1.5.1.1 1.5-.3 2.9-.8 2.1-.7 4.6-1.4 4.9-.7.3.7-.8 1.2-2.3 1.8-2.5.9-5.9 1.8-6 1.9-.1.2-.1.4.2.4.9-.2 3.2-.7 4.8-1 .8-.1 1.3.6.9 1-1.5.8-4.7 1.6-6.9 2.4-4.2 1.4-8.6 1.3-12.5 2.5-1 .3-1.6.6-3.2 1.1-4.5 1.7-15.8 5.4-34.9 7.9-4.2.6-6.1.6-8.4.6" class="st4"/><path id="path668" d="M1380.3 336.8c.8 4.9 5.4 8.3 10.3 7.5 4.9-.8 8.3-5.4 7.5-10.3-.8-4.9-5.4-8.3-10.3-7.5-4.9.8-8.3 5.4-7.5 10.3z" class="st4"/></g><g transform="translate(-1333.16 -158.86)" id="g738"><defs id="defs673"><path d="M1767.2 550.1a69.43 69.43 0 01-70.7 68 69.43 69.43 0 01-68-70.7c.8-38.3 32.4-68.7 70.7-68 38.3.8 68.7 32.4 68 70.7z" id="SVGID_3_"/></defs><clipPath id="SVGID_4_"><use height="100%" width="100%" y="0" x="0" id="use675" overflow="visible" xlink:href="#SVGID_3_"/></clipPath><path id="path678" clip-path="url(#SVGID_4_)" d="M1767.2 551.5a69.43 69.43 0 01-70.7 68 69.43 69.43 0 01-68-70.7c.8-38.3 32.4-68.7 70.7-68 38.3.8 68.7 32.4 68 70.7z" class="st10"/><path id="path680" clip-path="url(#SVGID_4_)" d="M1686.6 532.1s-2.9-19.5 4.1-28.5c8.4-10.7 22.7-5.6 25.6.7 3.9 8.6-.6 27-.6 27z" class="st11"/><g id="g686" clip-path="url(#SVGID_4_)" class="st12"><path id="path682" d="M1724 580.2l8.5 58.5c0 .1 17.1.1 18 .2.1-.1 1-6.3 1.5-15.2v-.1c.8-14 .8-34.4-3.9-48-.5-1.2-20.1 4-24.1 4.6z" class="st13"/><path id="path684" d="M1735.3 566.5a12.19 12.19 0 011.7 24.3 12.19 12.19 0 01-1.7-24.3z" class="st13"/></g><g id="g690" clip-path="url(#SVGID_4_)" class="st12"><path id="path688" d="M1708.8 556.1s22 2.9 32.7 12c.3.2-6.3 35.1-6.3 35.1-4.6 16.3-7.6 50.7-8 56.4l-31.2-.3.8-103.7c2.7 0 12 .5 12 .5z" class="st13"/></g><g id="g696" clip-path="url(#SVGID_4_)" class="st12"><path id="path692" d="M1733.1 639.1s-.3 5 1 10c.9 3.4 5 24.6 4.4 39.8 0 .8-.5 3.3-.6 3.7-.2.9-.9 2.2-1 3.4-.2 1.7-.7 3.4-1 4.4 1.3.3 2.3-.4 2.8-2.2.4-1.4.5-2.8 1.2-2.7.4.1.3 1.2.2 3.7-.1 2-.4 5.2-.4 7.9-.1 1.7 1.6 1.6 1.9.5.5-2 .7-6.7 1-7.6.1-.3.4-.2.4 0 .2 2.3-1.7 8.1.2 8.3.3 0 .5-.1.6-.3.3-.3.4-.8.6-1.6 0-.2.1-.4.1-.6.3-2.2.6-4.4.9-5.5 0-.3.3-.5.5-.2.1.1-.1 1.5-.2 3-.2 2.2-.5 4.8.3 4.9.8.1 1-1 1.3-2.6.5-2.6.6-6.1.7-6.3.1-.1.4-.2.4.1 0 .9-.1 3.3-.1 4.9 0 .8.8 1.1 1.1.7.5-1.6.7-4.9 1-7.2.5-4.3-.4-8.7 0-12.7.1-1 .3-1.7.5-3.3.8-4.8 2.2-16.5 1-35.8-.3-4.3-.6-6.1-1-8.4" class="st14"/><path id="path694" d="M1741.8 629.5a9.05 9.05 0 11-8.7 9.4c-.2-5.1 3.7-9.3 8.7-9.4z" class="st14"/></g><g id="g702" clip-path="url(#SVGID_4_)" class="st12"><path id="path698" d="M1669.2 580.3l-10.2 58.3c0 .1-17-.4-18-.3-.1-.1-.8-6.3-1-15.3v-.1c-.4-14 .2-34.5 5.4-47.8.4-1.3 19.9 4.5 23.8 5.2z" class="st13"/><path id="path700" d="M1658.4 566.3c-6.7-.7-12.7 4.2-13.3 10.9-.7 6.7 4.2 12.7 10.9 13.3 6.7.7 12.7-4.2 13.3-10.9.7-6.7-4.2-12.6-10.9-13.3z" class="st13"/></g><g id="g706" clip-path="url(#SVGID_4_)" class="st12"><path id="path704" d="M1686 555.8s-22.1 2.3-33 11c-.3.2 5.3 29.4 5.3 29.4 4.1 16.4 5.7 56.9 6.8 63.2h30.5l1.6-102.6c-2.1-.2-11.2-1-11.2-1z" class="st13"/></g><path id="path708" clip-path="url(#SVGID_4_)" d="M1664.1 657s-4.7 14.2-5.1 50.9l35.4.5 3-9.2 5.2-41.5z" class="st10"/><path id="path710" clip-path="url(#SVGID_4_)" d="M1728.6 658s4.3 14.9 3.6 51.5l-35.4-.4-2.7-9.7-4-42z" class="st10"/><g id="g716" clip-path="url(#SVGID_4_)" class="st12"><path id="path712" d="M1658.3 638.9s.1 5-1.3 9.9c-1 3.3-5.8 24.4-5.6 39.7 0 .8.4 3.3.5 3.7.2.9.8 2.3.9 3.4.2 1.7.6 3.4.8 4.4-1.3.2-2.3-.4-2.7-2.3-.4-1.4-.5-2.8-1.1-2.7-.4.1-.4 1.2-.3 3.7.1 2 .2 5.2.1 7.9 0 1.7-1.6 1.6-1.9.4-.4-2-.5-6.7-.8-7.6-.1-.3-.4-.2-.4 0-.3 2.3 1.5 8.1-.4 8.3-.3 0-.5-.1-.6-.3-.2-.3-.4-.8-.5-1.6 0-.2-.1-.4-.1-.6-.3-2.2-.4-4.4-.7-5.5 0-.3-.3-.5-.5-.2-.1.1 0 1.5.1 3 .2 2.2.4 4.8-.4 4.9-.8.1-1-1-1.2-2.6-.4-2.6-.4-6.2-.5-6.3-.1-.1-.4-.2-.4.1 0 .9 0 3.3-.1 4.9 0 .8-.9 1.1-1.1.6-.4-1.6-.5-4.9-.8-7.2-.4-4.4.7-8.6.3-12.7 0-1-.2-1.7-.4-3.4-.7-4.8-1.7-16.6 0-35.8.4-4.3.8-6.1 1.3-8.3" class="st14"/><path id="path714" d="M1650 629c-5-.3-9.3 3.4-9.6 8.4-.3 5 3.4 9.3 8.4 9.6 5 .3 9.3-3.4 9.6-8.4a9.1 9.1 0 00-8.4-9.6z" class="st14"/></g><path id="path718" clip-path="url(#SVGID_4_)" d="M1712.2 555s-.1 1.3-.7 2.9c-1.1 2.9-3.6 6.9-9.5 7.2H1700.8c-10.8.3-13.9-5.3-14.6-9.8-1.7-10.9 1.6-34.9 1.6-34.9l24.5 15.4-.1 13.8z" class="st11"/><path id="path720" clip-path="url(#SVGID_4_)" d="M1712.2 555s-.1 1.3-.7 2.9c-14.3 3-18-21-21.2-21.7l22.3 1-.4 12.5z" class="st15"/><g id="g726" clip-path="url(#SVGID_4_)" class="st12"><path id="path722" d="M1717.4 515.3l-.6 6.6c-.5 11.5-1.9 21-11.2 22.1-1.3.2-2.8.1-3.7 0l.8-34.5 2.2.1 2.8.1 3.5.1c2.4.1 4.8 1.3 5.6 3.4.3.6.6 1.3.6 1.9z" class="st14"/><path id="path724" d="M1687.4 514.7l.3 6.7c.1 6.4 2.1 21.1 11.3 22.6 1.3.2 2.3.3 3.2.2l1.1-34.5-3.2-.1h-2.8l-3.5-.1c-2.5 0-4.8 1.1-5.8 3.1-.3.6-.6 1.2-.7 1.9z" class="st14"/></g><path id="path728" clip-path="url(#SVGID_4_)" d="M1709.8 531.7c-2-.1-13.4-.2-13.4-.2.2 2.4 3.6 4.5 6.8 4.7 3 .1 6.4-2.3 6.6-4.5z" class="st10"/><path id="path730" clip-path="url(#SVGID_4_)" d="M1706 517.1s.1 10.4 0 10.5c-.5.8-4.3.9-4.3.9s4.8 3.8 8.9 1.1c4.1-2.6 6-14.1-4.6-12.5z" class="st15"/><path id="path732" clip-path="url(#SVGID_4_)" d="M1693.9 520.2s.3.5 1.2.8c.7.2 2.8.5 3.9-.7 0 0-.5-.8-1.9-1-1.4-.1-2.7.1-3.2.9zm14.5.6s.5.5 1.3.8c1 .4 2.7.2 3.8-.7 0 0-1-1-2.5-1-.5.1-1.8 0-2.6.9z" fill="#004753"/><path id="path734" fill="#c69c6d" clip-path="url(#SVGID_4_)" d="M1693 512.8c19.1 2.5 18.8-7.9 19-7.8.8.2 3.7 15 4.2 18.2.3 1.7 1.4.7 1.4.7s6-27.6-13.8-27.8c-24.4-.3-18.3 29.5-17.9 29.5 1.7.2.6-13.7 7.1-12.8z"/><path id="path736" clip-path="url(#SVGID_4_)" d="M1690.6 522.8s-7.6-2.4-7.5.3c.1 2.7 1.3 4.6 2.6 4.6 1.1 0 1.6-.4 1.6-.4zm25.3.1s4.5-2.3 4.4.5c-.1 2.7-1.2 4.6-2.5 4.7-1.1 0-1.6-.3-1.6-.3z" class="st11"/></g><g transform="translate(-1333.16 -158.86)" id="g806"><defs id="defs741"><path d="M1779.1 274.8c1 38.3-29.2 70.2-67.5 71.2s-70.2-29.2-71.2-67.5 29.2-70.2 67.5-71.2c38.4-1.1 70.2 29.2 71.2 67.5z" id="SVGID_5_"/></defs><clipPath id="SVGID_6_"><use height="100%" width="100%" y="0" x="0" id="use743" overflow="visible" xlink:href="#SVGID_5_"/></clipPath><path id="path746" clip-path="url(#SVGID_6_)" d="M1779.2 276.2c1 38.3-29.2 70.2-67.5 71.2s-70.2-29.2-71.2-67.5 29.2-70.2 67.5-71.2a69.25 69.25 0 0171.2 67.5z" class="st18"/><path id="path748" clip-path="url(#SVGID_6_)" d="M1732.1 240.6c-.7-4.3-5-11.1-9.3-7.6-1.4-6.3-10.1-7.1-12.3-2.7-.6-6.4-7.6-7.7-12.3-5-4.7 2.7-5.6 17.9-5.6 19.7.1 4.3-1.3 11.6 0 15.6 1 3.1 3.2 7.9 6.3 9.6l15-1.3c.5-.1 1.5.2 2.2.3 1.8.3 3.5.2 5.3-.3 4.5-1.1 6-2.4 8-6.6 2.8-6 3.7-15.3 2.7-21.7z" class="st19"/><g id="g754" clip-path="url(#SVGID_6_)" class="st20"><path id="path750" d="M1736.2 316.4l11.1 58.1c0 .1 17-.6 18-.6.1-.1.7-6.4.8-15.3v-.1c.2-14-.7-34.5-6.1-47.7-.5-1.2-19.9 4.9-23.8 5.6z" class="st21"/><path id="path752" d="M1746.8 302.2c6.7-.8 12.7 4 13.5 10.7.8 6.7-4 12.7-10.7 13.5-6.7.8-12.7-4-13.5-10.7-.8-6.6 4-12.7 10.7-13.5z" class="st21"/></g><g id="g758" clip-path="url(#SVGID_6_)" class="st20"><path id="path756" d="M1719.8 293.1s22.2 1.9 33.2 10.5c.3.2-4.7 35.4-4.7 35.4-3.8 16.5-5.2 51-5.4 56.7l-31.2 1.1-4-103.6c2.9-.2 12.1-.1 12.1-.1z" class="st21"/></g><g id="g764" clip-path="url(#SVGID_6_)" class="st20"><path id="path760" d="M1748 374.8s0 5 1.5 9.9c1 3.3 6.2 24.3 6.2 39.6 0 .8-.3 3.3-.4 3.7-.2.9-.8 2.3-.8 3.4-.1 1.7-.5 3.4-.8 4.4 1.3.2 2.3-.5 2.7-2.4.3-1.4.4-2.8 1.1-2.8.4.1.4 1.2.4 3.7-.1 2-.2 5.2 0 7.9 0 1.7 1.7 1.5 1.9.4.4-2 .4-6.7.7-7.6.1-.3.4-.2.4 0 .3 2.3-1.3 8.1.5 8.3.3 0 .5-.1.6-.3.2-.3.4-.8.5-1.6 0-.2 0-.4.1-.6.2-2.2.4-4.4.6-5.5 0-.3.3-.5.5-.2.1.1 0 1.5-.1 3-.1 2.2-.3 4.8.5 4.9.8.1 1-1.1 1.2-2.6.3-2.6.3-6.2.4-6.3.1-.1.4-.2.4.1 0 .9.1 3.3.2 4.9.1.8.9 1.1 1.2.6.4-1.6.5-4.9.7-7.3.3-4.4-.8-8.6-.5-12.7 0-1 .2-1.7.4-3.4.6-4.8 1.4-16.6-.6-35.8-.5-4.3-.9-6.1-1.4-8.3" class="st22"/><path id="path762" d="M1756.1 364.8a8.98 8.98 0 111.5 17.9c-5 .4-9.3-3.3-9.8-8.2-.3-4.9 3.4-9.2 8.3-9.7z" class="st22"/></g><g id="g770" clip-path="url(#SVGID_6_)" class="st20"><path id="path766" d="M1679.9 319.1l-7.6 58.7c0 .1-17 .4-18 .5-.1-.1-1.1-6.3-1.7-15.2v-.1c-1-14-1.4-34.4 3.2-48 .5-1.3 20.2 3.6 24.1 4.1z" class="st21"/><path id="path768" d="M1668.5 305.6c-6.7-.4-12.5 4.8-12.8 11.5-.4 6.7 4.8 12.5 11.5 12.8a12.18 12.18 0 001.3-24.3z" class="st21"/></g><g id="g774" clip-path="url(#SVGID_6_)" class="st20"><path id="path772" d="M1697.1 293.8s-21.9 3.3-32.5 12.5c-.3.2 6.7 29.1 6.7 29.1 4.8 16.2 8.3 56.6 9.7 62.8l30.4-1.4-3.2-102.5-11.1-.5z" class="st21"/></g><path id="path776" clip-path="url(#SVGID_6_)" d="M1679.8 395.9s-4.1 14.4-2.8 51l35.4-1.1 2.6-9.3 3.3-41.7z" class="st18"/><path id="path778" clip-path="url(#SVGID_6_)" d="M1744.3 393.9s5 14.6 5.9 51.3l-35.4 1.3-3.2-9.5-5.9-41.8z" class="st18"/><g id="g784" clip-path="url(#SVGID_6_)" class="st20"><path id="path780" d="M1671.7 378.1s.3 5-.8 10c-.8 3.4-4.7 24.6-3.8 39.9 0 .8.5 3.3.6 3.7.2.9.9 2.2 1 3.3.2 1.7.8 3.4 1 4.3-1.2.3-2.4-.3-2.8-2.2-.4-1.4-.6-2.7-1.2-2.7-.4.1-.3 1.2-.1 3.7.2 2 .5 5.2.5 7.9.1 1.7-1.6 1.6-1.9.5-.5-2-.8-6.7-1.1-7.6-.1-.3-.4-.2-.4 0-.2 2.3 1.8 8 0 8.3-.3 0-.5-.1-.6-.3-.3-.3-.4-.8-.6-1.6 0-.2-.1-.4-.1-.6-.4-2.2-.6-4.3-1-5.5 0-.3-.3-.5-.5-.2-.1.1.1 1.5.3 3 .3 2.2.6 4.8-.2 4.9-.8.1-1.1-1-1.3-2.5-.5-2.6-.7-6.1-.8-6.3-.2-.1-.4-.1-.4.1 0 .9.1 3.3.1 4.9 0 .8-.8 1.2-1.1.7-.5-1.6-.7-4.9-1.1-7.2-.6-4.3.3-8.7-.2-12.7-.1-1-.3-1.7-.6-3.3-.9-4.7-2.5-16.5-1.6-35.7.2-4.3.5-6.1.9-8.4" class="st22"/><path id="path782" d="M1663 368.7c-5-.1-9.1 3.8-9.2 8.8-.1 5 3.8 9.1 8.8 9.2 5 .1 9.1-3.8 9.2-8.8.1-5-3.8-9.1-8.8-9.2z" class="st22"/></g><path id="path786" clip-path="url(#SVGID_6_)" d="M1723.8 272.6l-25.2-14.3s-2.2 24.1 0 34.9c.9 4.4 4.3 9.8 15 9.1h.2c.3.1.6 0 .9 0 9.3-1 9.8-10.6 9.8-10.6z" class="st23"/><path id="path788" clip-path="url(#SVGID_6_)" d="M1703.3 274.8c.5.1 4.5 16.6 21.1 14.4l-.5-15.9z" class="st24"/><g id="g794" clip-path="url(#SVGID_6_)" class="st20"><path id="path790" d="M1726.8 252l-.3 6.7c0 11.6-.9 21.1-10.2 22.6-1.3.2-2.8.2-3.7.2l-.8-34.5h5l3.5-.1c2.5 0 4.8 1.1 5.8 3.2.3.6.6 1.2.7 1.9z" class="st22"/><path id="path792" d="M1697.4 259.3c.4 6.4 3.1 21 12.3 22.1 1.4.2 2.3.1 3.2.1l-.4-34.5-3.2.1-2.8.1-4.8-5.4c-2.5 0-4.3 17.5-4.3 17.5z" class="st22"/></g><path id="path796" clip-path="url(#SVGID_6_)" d="M1715.5 254.3s.6 10.3.5 10.5c-.5.8-4.3 1.1-4.3 1.1s5 3.6 8.9.7c4-2.9 5.4-14.4-5.1-12.3z" class="st24"/><path id="path798" clip-path="url(#SVGID_6_)" d="M1703.5 257.9s.3.5 1.3.8c.7.2 2.8.3 3.8-.9 0 0-.5-.7-2-.9-1.3-.1-2.6.1-3.1 1zm14.5-.1s.5.5 1.3.8c1 .3 2.7.1 3.8-.9 0 0-1-1-2.5-.9-.5.1-1.8.1-2.6 1z" class="st19"/><path id="path800" fill="#fff" d="M1717.8 270.8c0 .7-.4 2-2.9 2.4 0 .1 0-.1 0 0-1.1 0-4.2.2-5-1.9l7.9-.5z"/><path id="path802" clip-path="url(#SVGID_6_)" d="M1727.6 241.7c-2.3-3.3-7.3-5.5-11.2-6.2-3.1-.5-10.8.2-12.4 3.1l-6.5 4c-.3 3.4 7 9.6 11 10.6 4.2 1.1 7.3.5 10.8-1.5.7 3 5.3 4.9 8 3 3.7-2.4 2.4-10 .3-13z" class="st19"/><path id="path804" clip-path="url(#SVGID_6_)" d="M1699.2 260s-2-4.6-4.6-2.8c-2 1.5.4 7 3.7 7.3 3.3.3 1.4-1.6 1.4-1.6z" class="st23"/></g><g transform="translate(-1333.16 -158.86)" id="g870"><defs id="defs809"><path d="M2106.2 369.7c1.8 38.3-27.8 70.7-66.1 72.5-38.3 1.8-70.7-27.8-72.5-66.1-1.8-38.3 27.8-70.7 66.1-72.5 38.3-1.7 70.8 27.9 72.5 66.1z" id="SVGID_7_"/></defs><clipPath id="SVGID_8_"><use height="100%" width="100%" y="0" x="0" id="use811" overflow="visible" xlink:href="#SVGID_7_"/></clipPath><path id="path814" clip-path="url(#SVGID_8_)" d="M2106.2 369.7c1.8 38.3-27.8 70.7-66.1 72.5-38.3 1.8-70.7-27.8-72.5-66.1-1.8-38.3 27.8-70.7 66.1-72.5 38.3-1.7 70.8 27.9 72.5 66.1z" class="st26"/><path id="path816" clip-path="url(#SVGID_8_)" d="M2070.2 372.1c.4 8.1-5.8 15-14 15.5-8.1.4-15-5.8-15.5-14-.4-8.1 5.8-15 14-15.5 8.2-.3 15.1 5.9 15.5 14z" class="st27"/><path id="path818" clip-path="url(#SVGID_8_)" d="M2061.5 361.1c5.8 18.2-2.7 26.4-21.8 27.4-19 1-29.8-12.8-31.3-31.8-2-26 9.6-34.5 28.7-35.2 17.5-.6 19.4 23.6 24.4 39.6z" class="st27"/><g id="g824" clip-path="url(#SVGID_8_)" class="st27"><path id="path820" d="M2052.6 405l12.3 57.9c0 .1 17-1 18-1 .1-.1.5-6.4.5-15.3v-.1c-.1-14-1.4-34.4-7.1-47.6-.5-1.2-19.8 5.2-23.7 6.1z" class="st28"/><path id="path822" d="M2062.9 390.6c6.7-.9 12.8 3.8 13.7 10.4.9 6.7-3.8 12.8-10.4 13.7-6.7.9-12.8-3.8-13.7-10.4-.9-6.7 3.8-12.8 10.4-13.7z" class="st28"/></g><g id="g830" clip-path="url(#SVGID_8_)" class="st27"><path id="path826" d="M2015.9 406.4l-6.4 58.8c0 .1-17 .8-18 .9-.1-.1-1.2-6.3-2-15.2v-.1c-1.3-13.9-2.1-34.4 2.2-48.1.4-1.2 20.2 3.2 24.2 3.7z" class="st28"/><path id="path828" d="M2004.2 393.1c-6.7-.2-12.4 5-12.6 11.8-.2 6.7 5 12.4 11.8 12.6 6.7.2 12.4-5 12.6-11.8.2-6.7-5.1-12.4-11.8-12.6z" class="st28"/></g><g id="g834" clip-path="url(#SVGID_8_)" class="st27"><path id="path832" d="M2023 382.4s-21.2 9-26.6 12.6c-1 .6 4.3 25.1 4.3 25.1 5.2 16.1 9.8 59.9 11.3 66.1l26.5-1.3-5.2-102.8c-2 .1-10.3.3-10.3.3z" class="st28"/></g><g id="g838" clip-path="url(#SVGID_8_)" class="st27"><path id="path836" d="M2041.2 381.2s24.7 7 30.4 10c1 .5-.7 30.1-.7 30.1-3.5 16.5-4.8 55.9-5.6 62.2l-26.8 1.4-5.2-102.8c2.1-.1 7.9-.9 7.9-.9z" class="st28"/></g><g id="g844" clip-path="url(#SVGID_8_)" class="st27"><path id="path840" d="M2072.2 450.7s-5 .5-9.7 2.6c-3.2 1.4-23.5 8.9-38.6 10.7-.8.1-3.4.1-3.8 0-.9-.1-2.3-.5-3.5-.4-1.7.1-3.5-.2-4.5-.3-.1 1.3.7 2.3 2.7 2.4 1.5.2 2.8.1 2.9.7 0 .4-1.1.5-3.6.8-2 .2-5.2.4-7.9.9-1.7.2-1.3 1.8-.2 1.9 2 .2 6.7-.4 7.7-.2.3 0 .3.4 0 .4-2.2.5-8.2-.4-8.2 1.5.1.2.2.4.4.6.3.2.8.3 1.6.3h.6c2.2 0 4.4-.1 5.5 0 .3 0 .5.3.3.4-.1.1-1.5.2-3 .3-2.2.1-4.8.3-4.8 1 0 .8 1.2.9 2.7.9 2.6 0 6.2-.4 6.3-.3.1.1.2.4-.1.4-.9.1-3.3.5-4.9.7-.8.1-1 1-.5 1.2 1.7.2 4.9-.1 7.3-.2 4.4-.2 8.5-1.8 12.6-2 1-.1 1.7 0 3.4 0 4.8 0 16.7-.5 35.5-4.7 4.2-.9 5.9-1.6 8.1-2.4" class="st14"/><path id="path842" d="M2083.1 457.7a9 9 0 01-7.1 10.6 9 9 0 01-10.6-7.1 9 9 0 017.1-10.6c4.9-.9 9.6 2.2 10.6 7.1z" class="st14"/></g><path id="path846" fill="#60003c" clip-path="url(#SVGID_8_)" opacity=".31" d="M2051.7 361.4c-.1.6-.2 1.1-.3 1.6-.5 1.5-1.1 2.8-1.9 4.1v.1c-3.8 8-8.8 11.7-8.8 11.7h-.1l2.7-31.7s9.9 1.9 8.4 14.2z"/><path id="path848" fill="#886141" clip-path="url(#SVGID_8_)" d="M2041.5 369.8l-19.1-.6.9 17.7c.1 1 3.7 8.4 9.6 8.4h1.3c8-1 8.2-9.2 8.2-9.2z"/><path id="path850" clip-path="url(#SVGID_8_)" d="M2024 371.8c.4.1 3.8 14.1 18.3 11.9l-.7-13.6z" class="st31"/><g id="g856" clip-path="url(#SVGID_8_)" class="st27"><path id="path852" d="M2044 351.9l-.1 5.7c0 5.5-.4 18.1-8.3 19.5-1.1.2-2.4.3-3.1.2l-1.3-29.5 1.9-.1 2.4-.1 3-.1c2.1 0 4.2.9 5 2.6.3.5.6 1 .6 1.6z" class="st32"/><path id="path854" d="M2019 353l.6 5.7c.5 5.5 3 17.9 10.9 18.7 1.2.1 1.4.1 2.2 0l-1.3-29.5-1.9.1-2.4.1-3 .1c-2.1.1-4.1 1.2-4.8 3-.2.5-.5 1.1-.5 1.7z" class="st32"/></g><path id="path858" clip-path="url(#SVGID_8_)" d="M2039.1 366.3c-1.7 0-11.4.6-11.4.6.3 2.1 3.3 3.7 6.1 3.6 2.5-.1 5.3-2.4 5.3-4.2z" class="st26"/><path id="path860" clip-path="url(#SVGID_8_)" d="M2035.1 354s.7 8.8.6 9c-.4.7-3.6 1-3.6 1s4.3 3 7.6.4c3.3-2.5 4.3-12.3-4.6-10.4z" class="st31"/><path id="path862" clip-path="url(#SVGID_8_)" d="M2012.4 341.6c.3 7.6 6.4 13.5 13.8 13.2l12.5-.5c4.7-.2 12.1-2 12.8-14.2zm12.5 15.7s.3.4 1.1.6c.6.2 2.4.2 3.3-.8 0 0-.5-.6-1.7-.7-1.2 0-2.3.2-2.7.9zm12.4-.3s.4.4 1.2.6c.9.3 2.3.1 3.2-.8 0 0-.9-.8-2.2-.7-.5.1-1.5.1-2.2.9z" class="st27"/><g id="g868" clip-path="url(#SVGID_8_)" class="st27"><path id="path864" d="M1993.6 457.8s2.7-4.2 6.7-7.5c2.7-2.2 18.5-16.9 27-29.6.4-.7 1.6-3 1.7-3.3.4-.9.6-2.3 1.2-3.3.8-1.5 1.4-3.2 1.8-4.1 1.2.5 1.7 1.7.9 3.5-.5 1.4-1.2 2.5-.6 2.9.4.2 1-.8 2.3-2.9 1.1-1.7 2.7-4.4 4.3-6.6.9-1.4 2.2-.4 1.8.7-.8 1.9-3.4 5.8-3.6 6.7-.1.3.2.4.4.2 1.5-1.7 3.4-7.5 5-6.6.2.2.3.4.3.6 0 .4-.1.9-.5 1.6-.1.2-.2.4-.3.5-1 2-2.1 3.9-2.5 4.9-.1.3 0 .6.3.4.2 0 .8-1.2 1.6-2.6 1.1-1.9 2.4-4.2 3.1-3.8.7.4.2 1.4-.4 2.8-1.2 2.4-3.1 5.3-3.1 5.5.1.2.2.4.4.1.5-.8 1.9-2.7 2.9-4 .5-.7 1.3-.4 1.3.1-.6 1.6-2.3 4.3-3.4 6.4-2.1 3.8-5.4 6.8-7.5 10.3-.5.9-.7 1.5-1.6 3-2.1 4.3-7.9 14.7-20.2 29.5-2.7 3.3-4.1 4.6-5.8 6.2" class="st32"/><path id="path866" d="M1994.9 470.6c3.9 3.1 9.6 2.4 12.7-1.5 3.1-3.9 2.4-9.6-1.5-12.7a9.05 9.05 0 00-11.2 14.2z" class="st14"/></g></g><g transform="translate(-1333.16 -158.86)" id="g874"><path id="path872" d="M1766.8 511.9c5.8-1.8 209-100 209-100M1797 286.1l154 64.3m-449.3-90.5l113.3 7.6m88 200.8l-4.2-100.3m-63.5 133.5L1458.9 305" fill="none" stroke="#fff" stroke-width="4" stroke-linecap="round" stroke-miterlimit="10" stroke-dasharray="1,7"/></g></svg>