<svg width="24" height="25" viewBox="0 0 24 25" fill="none" xmlns="http://www.w3.org/2000/svg">
<path fill-rule="evenodd" clip-rule="evenodd" d="M11.7109 3.25C5.98819 3.25 1.21094 7.0208 1.21094 11.9318C1.21094 16.8428 5.98819 20.6136 11.7109 20.6136C12.681 20.6136 13.589 20.5307 14.5011 20.2784L19.7044 22.395C19.868 22.4615 20.0546 22.4368 20.1952 22.33C20.3359 22.2231 20.4097 22.05 20.3895 21.8745L19.8713 17.3836C21.3007 15.8844 22.2109 14.0102 22.2109 11.9318C22.2109 7.0208 17.4337 3.25 11.7109 3.25ZM2.21094 11.9318C2.21094 7.75193 6.34278 4.25 11.7109 4.25C17.0791 4.25 21.2109 7.75193 21.2109 11.9318C21.2109 13.7719 20.3758 15.469 18.9937 16.851C18.8858 16.9589 18.8331 17.1102 18.8506 17.2619L19.2993 21.1506L14.7175 19.2869C14.6119 19.2439 14.4947 19.2383 14.3854 19.2711C13.5374 19.5255 12.6801 19.6136 11.7109 19.6136C6.34278 19.6136 2.21094 16.1117 2.21094 11.9318ZM11.1263 12.8591C11.1263 12.3821 10.8608 12.1391 10.4873 12.0806V12.0716C10.8023 11.9726 10.9688 11.7296 10.9688 11.3921C10.9688 10.8701 10.5773 10.6001 10.0238 10.6001H8.77734V13.7501H10.1093C10.6538 13.7501 11.1263 13.4756 11.1263 12.8591ZM9.35334 11.1311H9.93384C10.1903 11.1311 10.3658 11.2571 10.3658 11.5046C10.3658 11.7476 10.2038 11.8871 9.91134 11.8871H9.35334V11.1311ZM10.5143 12.8006C10.5143 13.0616 10.3253 13.2191 10.0103 13.2191H9.35334V12.3821H9.98784C10.3343 12.3821 10.5143 12.5396 10.5143 12.8006ZM11.5268 10.6001H12.0803V13.7501H11.5268V10.6001ZM12.4538 12.7106C12.4538 13.4216 12.9083 13.8176 13.4528 13.8176C13.7903 13.8176 14.0153 13.6736 14.1458 13.4576H14.1548V13.7501H14.7038V11.6711H14.1548V11.9636H14.1458C14.0153 11.7476 13.7903 11.6036 13.4528 11.6036C12.9083 11.6036 12.4538 11.9996 12.4538 12.7106ZM14.1548 12.7106C14.1548 13.0616 13.9253 13.2956 13.5923 13.2956C13.2593 13.2956 13.0298 13.0616 13.0298 12.7106C13.0298 12.3596 13.2593 12.1256 13.5923 12.1256C13.9253 12.1256 14.1548 12.3596 14.1548 12.7106Z" fill="#708C91"/>
</svg>
