<svg version="1.1" id="Calque_1" xmlns="http://www.w3.org/2000/svg" xmlns:xlink="http://www.w3.org/1999/xlink" x="0" y="0" viewBox="0 0 800 438" xml:space="preserve"><style>.st0{fill:none}.st1{fill:#054752}.st2{fill:#fff}.st3{fill:#004753}.st4{fill:#eae8f5}.st6{clip-path:url(#SVGID_3_);fill:#669aa2}.st8{fill:#91b7bc}.st12,.st8{clip-path:url(#SVGID_3_)}.st15{fill:#2e5862}.st17{fill:none;stroke:#054752;stroke-width:4;stroke-miterlimit:10}.st18{opacity:.4;fill:#fff}.st19{fill:#facca3}.st22{fill:#014753}.st23{opacity:.67;fill:#facca3}.st24{opacity:.47;fill:#95abbd}.st25{fill:#f5b240}.st26{fill:#2ed1ff}.st27{opacity:.3;fill:#8f4160}.st29{fill:#f1890e}.st30{fill:#f9cfc4}.st33{fill:#e9ca91}.st36{opacity:.69;fill:#f9cfc4}.st38{fill:#947347}.st43,.st44{fill:#ddb68d}.st44{opacity:.67}.st47,.st48{fill:#cd904d}.st48{opacity:.67}.st50{fill:#a9b7c0}.st51{fill:#01353a}.st52{fill:#cd8f4d}.st53{fill:#ff595a}.st56{fill:#022327}.st59,.st60{opacity:.45;fill:#fff}.st60{fill:#044752}.st61{opacity:.49}.st62{fill:#004553}.st63,.st64{fill:#ce914d}.st64{opacity:.67}.st67{fill:#033}.st69,.st73{fill:#eacb92}.st73{opacity:.59}.st76{opacity:.45;fill:#054752}.st303,.st78{fill:none;stroke-miterlimit:10}.st78{stroke-linecap:round;stroke-linejoin:round;stroke:#fff}.st303{stroke:#054752;stroke-width:5}</style><pattern x="-946.5" y="1519" width="50" height="50" patternUnits="userSpaceOnUse" id="Horizontal_line_3" viewBox="0 -50 50 50" overflow="visible"><path class="st0" d="M0-50h50V0H0z"/><path class="st1" d="M0-50h50v6.3H0z"/><path class="st2" d="M0-43.7h50v6.3H0z"/><path class="st1" d="M0-37.5h50v6.3H0z"/><path class="st2" d="M0-31.2h50v6.3H0z"/><path class="st1" d="M0-24.9h50v6.3H0z"/><path class="st2" d="M0-18.7h50v6.3H0z"/><path class="st1" d="M0-12.4h50v6.3H0z"/><path class="st2" d="M0-6.3h50V0H0z"/></pattern><pattern x="-946.5" y="1519" width="50" height="50" patternUnits="userSpaceOnUse" id="Horizontal_line_5" viewBox="0 -50 50 50" overflow="visible"><path class="st0" d="M0-50h50V0H0z"/><path class="st3" d="M0-50h50v6.3H0z"/><path class="st2" d="M0-43.7h50v6.3H0z"/><path class="st3" d="M0-37.5h50v6.3H0z"/><path class="st2" d="M0-31.2h50v6.3H0z"/><path class="st3" d="M0-24.9h50v6.3H0z"/><path class="st2" d="M0-18.7h50v6.3H0z"/><path class="st3" d="M0-12.4h50v6.3H0z"/><path class="st2" d="M0-6.3h50V0H0z"/></pattern><pattern x="-946.5" y="1519" width="50.9" height="47" patternUnits="userSpaceOnUse" id="Unnamed_Pattern_23" viewBox="50.9 -94.2 50.9 47" overflow="visible"><path class="st0" d="M50.9-94.2h50.9v47H50.9z"/><path class="st3" d="M101.7-47.5h50.9V0h-50.9z"/><path class="st3" d="M50.9-47.5h50.9V0H50.9zM0-47.5h50.9V0H0z"/><path class="st3" d="M101.7-94.6h50.9v47.5h-50.9z"/><path class="st3" d="M50.9-94.6h50.9v47.5H50.9z"/><path class="st4" d="M63.8-89.5H62v-4.6h1.8zM71.3-87.4l-1.5 1.1-2.7-3.8 1.5-1.1z"/><path transform="rotate(-78.854 66.658 -81.075)" class="st4" d="M65.8-83.4h1.8v4.7h-1.8z"/><path class="st4" d="M73.5-80.9l-1.3-1.2 2.9-3.6 1.4 1.2zM77.9-74.5l-1.8-.1.4-4.7 1.8.2zM67.8-73l.9-1.6 4.1 2.3-.9 1.6zM55.1-87.3l-1.5 1-2.7-3.8 1.5-1zM57.3-80.9l-1.4-1.2 3-3.5 1.4 1.1z"/><path transform="rotate(-5.228 60.95 -76.857) scale(.99996)" class="st4" d="M60.1-79.2h1.8v4.7h-1.8z"/><path transform="rotate(-29.07 54.054 -72.64)" class="st4" d="M51.7-73.5h4.7v1.8h-4.7z"/><g><path transform="rotate(-89.881 79.713 -91.834)" class="st4" d="M77.4-92.7h4.7v1.8h-4.7z"/><path class="st4" d="M88.1-87.4l-1.5 1.1-2.7-3.9 1.5-1z"/><path transform="rotate(-78.954 83.481 -81.089)" class="st4" d="M82.6-83.4h1.8v4.7h-1.8z"/><path class="st4" d="M90.4-81L89-82.1l3-3.6 1.4 1.2z"/><path transform="matrix(.9962 -.08667 .08667 .9962 7.02 7.859)" class="st4" d="M93.1-79.2h1.8v4.7h-1.8z"/><path transform="rotate(-28.955 87.124 -72.7)" class="st4" d="M84.8-73.6h4.7v1.8h-4.7z"/></g><g><path transform="rotate(-89.884 95.486 -91.856)" class="st4" d="M93.2-92.8h4.7v1.8h-4.7z"/><path transform="rotate(-78.89 99.255 -81.115)" class="st4" d="M98.4-83.4h1.8v4.7h-1.8z"/></g><g><path transform="rotate(-89.886 62.921 -68.221)" class="st4" d="M60.6-69.1h4.7v1.8h-4.7z"/><path class="st4" d="M71.3-63.8l-1.5 1.1-2.6-3.8 1.4-1.1z"/><path transform="rotate(-78.708 66.694 -57.488)" class="st4" d="M65.8-59.8h1.8v4.7h-1.8z"/><path transform="rotate(-40.111 74.37 -59.714)" class="st4" d="M73.5-62h1.8v4.7h-1.8z"/><path transform="rotate(-5.125 77.217 -53.29)" class="st4" d="M76.3-55.6h1.8v4.7h-1.8z"/><path class="st4" d="M67.9-49.4l.8-1.6 4.1 2.3-.9 1.5z"/></g><g><path class="st4" d="M55.1-63.7l-1.5 1-2.7-3.8 1.5-1z"/><path transform="rotate(-40.157 58.148 -59.694)" class="st4" d="M57.2-62H59v4.7h-1.8z"/><path transform="rotate(-4.963 60.992 -53.27) scale(1.00005)" class="st4" d="M60.1-55.6h1.8v4.7h-1.8z"/><path transform="rotate(-29.144 54.1 -49.056)" class="st4" d="M51.8-50h4.7v1.8h-4.7z"/></g><g><path class="st4" d="M80.7-65.9h-1.8l-.1-4.7h1.8z"/><path transform="rotate(-54.69 86.066 -65.173)" class="st4" d="M83.7-66.1h4.7v1.8h-4.7z"/><path class="st4" d="M81.4-56.2l-.3-1.7 4.5-.9.4 1.7z"/><path transform="rotate(-40.173 91.202 -59.74)" class="st4" d="M90.3-62.1h1.8v4.7h-1.8z"/><path transform="rotate(-5.065 94.044 -53.318)" class="st4" d="M93.1-55.6h1.8v4.7h-1.8z"/><path class="st4" d="M84.7-49.4l.9-1.6 4 2.2-.8 1.6z"/></g><g><path class="st4" d="M96.4-65.9h-1.8v-4.7h1.8zM97.2-56.2l-.4-1.8 4.6-.9.4 1.8z"/></g><g><path class="st3" d="M0-94.6h50.9v47.5H0z"/></g><g><path class="st3" d="M101.7-141.6h50.9v47.5h-50.9z"/></g><g><path class="st3" d="M50.9-141.6h50.9v47.5H50.9z"/></g><g><path class="st3" d="M0-141.6h50.9v47.5H0z"/></g></pattern><linearGradient id="SVGID_1_" gradientUnits="userSpaceOnUse" x1="401.961" y1="393.26" x2="400.636" y2="-4.752"><stop offset="0" stop-color="#fff"/><stop offset=".093" stop-color="#f7fdff"/><stop offset=".239" stop-color="#e0f8ff"/><stop offset=".419" stop-color="#bcf0ff"/><stop offset=".627" stop-color="#89e5ff"/><stop offset=".856" stop-color="#48d7ff"/><stop offset=".943" stop-color="#2ed1ff"/></linearGradient><path fill="url(#SVGID_1_)" d="M.5 0h801.3v285.7H.5z"/><g><defs><path id="SVGID_170_" d="M.5 66h801.3v372H.5z"/></defs><clipPath id="SVGID_3_"><use xlink:href="#SVGID_170_" overflow="visible"/></clipPath><path class="st6" d="M-66.8 176.7s55.2-2.6 100.8-18.6c0 0 44.3 14.1 69.3 18.6s74.5-2.6 89.9 5.1c0 0 32.1 19.9 50.1 21.8s43.7 3.2 60.3-5.8c16.7-9 19.9-3.2 27.6 0 7.7 3.2 17.3 11.6 41.7-5.8 24.4-17.3 34.7-23.1 46.2-19.3 11.6 3.9 34 22.5 97.6 39.2s102.1-13.5 102.1-13.5 7.7-8.3 28.2-8.3 84.7-2.6 84.7-2.6L412.1 400.1 3.2 258.9l-70-82.2z"/><path d="M1320.4-111.5S1252.4-9.4 1193.9-3c0 0-27 6.4-30.2 16-3.2 9.6-10.3 22.5-22.5 23.1-12.2.6-35.9 10.9-59.7 0-23.8-10.9-50.7-10.3-70.6 5.1s-109 73.2-152 91.8c-43 18.6-61.6 5.8-61.6 5.8S507.1 319.2 375.5 381.5l132.2 93.7 708.1-46.9 143.2-41.1-38.6-498.7z" clip-path="url(#SVGID_3_)" fill="#a7c6ca"/><path class="st8" d="M-471.2-26.8s51.4-5.8 87.3 11.6S-242.7 83-201.6 95.2s76.4 11.6 98.9 24.4 53.3 46.2 97.6 68 315.8 177.8 432.7 181l-15.4 31.5L-7 391.8l-319-205.4-145.2-213.2z"/><path d="M-611.5-201.7s33.4-15.4 54.6 0 120.7 247.8 370.4 399.3c0 0 166.6 105 256.5 119.1s155.3 64.2 236.2 56.5 144.4 14.1 177.8 14.1 346-9 346-9l222.1-7.1-796 104h-867.3l-.3-676.9z" clip-path="url(#SVGID_3_)" fill="#bdd4d7"/><path class="st6" d="M-627.2 408.4s252.3 36.6 760.7 28.9L77 458.5l-338.9 8.3-369.8-5.1 4.5-53.3z"/><path class="st8" d="M349.2 428.3s-64.8-10.9-89.9-8.3-157.9 20.5-157.9 20.5-27.6 3.2-79.6 1.9c0 0-29.5 0-51.4 3.9s-139.3 13.5-165.6 12.8-425.6-5.8-425.6-5.8v21.8l387.7 25L249 480.3l113-28.9-12.8-23.1z"/><path d="M1342.9 266.6s-703.6 118.1-959 150.2c0 0-143.2 21.8-168.2 36.6s116.2 3.9 116.2 3.9-161.8 18-330.6 26.3-613 0-613 0v10.9l583.5 23.1 1362.2-4.5 8.9-246.5z" clip-path="url(#SVGID_3_)" fill="#538c94"/><path d="M797.5 443.7c0-4.3-4.5-7.8-10.1-7.8-1.5 0-2.9.3-4.2.7-2.5-2.8-6.1-4.5-10.1-4.5-5.4 0-10 3.1-12.2 7.7-.4-.1-.9-.1-1.3-.1-4.5 0-8.2 3.4-8.2 7.7h45c.7-1.2 1.1-2.4 1.1-3.7z" fill="#91b7bc"/><path d="M248.8 433.5c0-2.3-2.4-4.1-5.3-4.1-.8 0-1.5.1-2.2.4-1.3-1.4-3.2-2.4-5.3-2.4-2.8 0-5.2 1.6-6.4 4-.2 0-.5-.1-.7-.1-2.3 0-4.3 1.8-4.3 4H248c.6-.5.8-1.2.8-1.8z" fill="#d3e2e4"/><g class="st12"><path class="st17" d="M715.2 362.3v18.3"/><path class="st15" d="M726 348.8h-.5c-.5-3.7-4-6.6-8.2-6.6-3.4 0-6.4 1.9-7.6 4.6-.8-.6-1.8-1-3-1-2.7 0-4.8 2.2-4.8 4.8 0 2.2 1.4 4 3.4 4.6-.5.9-.8 2-.8 3.1 0 3.6 2.9 6.5 6.5 6.5 1 0 1.9-.2 2.7-.6 1.3.9 3 1.4 4.8 1.4 3.6 0 6.6-2 7.4-4.7h.2c3.4 0 6.1-2.7 6.1-6.1s-2.9-6-6.2-6z"/></g><g class="st12"><path class="st17" d="M757.6 354.6v18.3"/><path class="st15" d="M768.3 341.1h-.5c-.5-3.7-4-6.6-8.2-6.6-3.4 0-6.4 1.9-7.6 4.6-.8-.6-1.8-1-3-1-2.7 0-4.8 2.2-4.8 4.8 0 2.2 1.4 4 3.4 4.6-.5.9-.8 2-.8 3.1 0 3.6 2.9 6.5 6.5 6.5 1 0 1.9-.2 2.7-.6 1.3.9 3 1.4 4.8 1.4 3.6 0 6.6-2 7.4-4.7h.2c3.4 0 6.1-2.7 6.1-6.1s-2.8-6-6.2-6z"/></g><g class="st12"><path class="st17" d="M796.1 346.9v18.3"/><path class="st15" d="M806.8 333.4h-.5c-.5-3.7-4-6.6-8.2-6.6-3.4 0-6.4 1.9-7.6 4.6-.8-.6-1.8-1-3-1-2.7 0-4.8 2.2-4.8 4.8 0 2.2 1.4 4 3.4 4.6-.5.9-.8 2-.8 3.1 0 3.6 2.9 6.5 6.5 6.5 1 0 1.9-.2 2.7-.6 1.3.9 3 1.4 4.8 1.4 3.6 0 6.6-2 7.4-4.7h.2c3.4 0 6.1-2.7 6.1-6.1s-2.8-6-6.2-6z"/></g><g class="st12"><path class="st18" d="M261.6 252.7h426.2c3.3 0 6-2.7 6-6v-80.8c0-3.3-2.7-6-6-6H261.6c-3.3 0-6 2.7-6 6v80.8c0 3.4 2.7 6 6 6z"/><path class="st19" d="M515.1 187.2l9.4.1s1.4 4.2 1.2 12.2c0 .3-8.1 2.6-8.1 2.6l-2.5-14.9z"/><path class="st19" d="M509 207.2c1.9-3.3 8.2-10.7 8.2-10.7l8.4-1.4s6 4.3 7.5 11.4c.1.3-.5 7.7-.5 7.7h-25.3c0 .1 1.7-6.9 1.7-7zM511.9 188.8c.3 1.1 1.7 1.1 4.2 1.6H517.3c.6-.1 1.3-.2 2-.5 1.7-.5 3.4-1.2 3.8-1.4 3.4-1.5 4.7-7.7 4.7-10.2 0-5.4-4.6-6-8.1-5.4-1.9.3-3.3 1.1-4.5 2-2 1.6-2.9 4.8-2.8 5.2.2.5.4 1.1.4 1.5 0 .8-.5 1.7-.5 2.2v.4c.2 3.6-.7 3.2-.4 4.6z"/><path d="M515.8 179.6c-.2-.3-1.6-1.1-3-.2" fill="#95abbd" opacity=".47"/><circle class="st22" cx="514.3" cy="181.1" r=".5"/><path class="st19" d="M513 180.2c-.7 2-1.5 2.9-1.7 3.7 0 .1 1.1.3 1.2.3 0 0 .6-.8.7-1.7.2-1.1-.2-2.3-.2-2.3z"/><path class="st23" d="M520.4 190.7c-.2.1 1.1 5.2-3.6 6.6l-1.1-6.9 4.7.3z"/><path class="st19" d="M512.4 185s1.2.3 1.2.5c0 .5-1.3.5-1.3.5l.1-1z"/><path class="st24" d="M511.9 188.8c.3 1.1 1.7 1.1 4.2 1.6H517.3c.5 0 .9-.1 1.3-.1.3-.1.5-.2.8-.3 1.7-1.1 1.7-4.5 1.7-4.5l-8.6-1.4v.2c0 3.5-.9 3.1-.6 4.5zM511.2 190.2z"/><path class="st25" d="M521.1 177.9s-7.9.4-9-.6c-1.1-1-4.5-6.8 1.4-6.8s9.7 4 9.7 4l-2.1 3.4z"/><path class="st26" d="M525.6 193.7l-10.5 5.3-6.3 8.3-1.7 7.1h25.4l.6-8.5s-2.2-6.4-5.6-9l-1.9-3.2z"/><path class="st2" d="M525.8 193.2l-10.7 5.9 11.8-3.9z"/><path class="st25" d="M514.7 174.8s5.1-6.6 12.6-2.1c4.6 2.7 2.6 9.6-2.5 15.4-.1.1-2.3-.4-2.9-1.5-.8-1.3-.7-5-.7-5l-2.7.6s-.7-2.9-.8-3.4c-.4-2.2-3-4-3-4z"/><path class="st23" d="M521.6 180.8s.2 1.9-.7 2.3c-.6.2-1.2 0-1.2 0s.3 2.8 1.9 2.2 0-4.5 0-4.5z"/><path class="st19" d="M519.7 181.4s.9-1.7 1.6-1c.8.7.5 2.5-1 2.5-.9 0-1-.2-1-.2l.4-1.3z"/><path class="st19" d="M520.4 181.5c0-.3.4-.5.6-.2V181.6c0 .2-.1.3-.2.5s-.3.1-.5 0l.1-.6z"/><path class="st27" d="M524.9 207.5s.3 3.6-2.1 5.7c-2.8 2.5-14.4 13-15.1 13.2-4.9 1.5-4.5-3-3.5-5 1-1.9 3-7.3 6.9-11.4 3.5-3.5 10-9.8 13.8-2.5z"/><path class="st19" d="M506.1 225.7c-1.9.5-2.4-.6-2.4-.6-2.1-6.2-4.4-14.3-5.7-18.3-.2-.7-.1-1.1-.2-1.6l2.6-1.5c12.9 17.5 7.7 21.5 5.7 22zM498.5 198.9c0 .1-.3-1.3-.6-1.9-.1-.2.1-1.1 0-1.7 0-.1.3-.6.6-1.2.2-.4-.1-.8-.1-.8l-1.7 1.9-.1 2-.3 2.3s.4.5 1.4.3c.7-.2.8-.9.8-.9z"/><path class="st19" d="M500.9 199.1c.1.4 0 1.3.1 1.7.1 1.4-.2 1.8-.4 4.4-.2 2.8-2.5 2.4-2.7 1.2-.1-.4-.1-.9-.1-1.3-.2-1-1.3-3.8-1.5-5.4 0 0 .3-.9 1-1 .9-.2 1.3.5 1.3.5.1.2.1.5.5.5.5-.2.7-.5.7-1-.1-1.2.3-1.6.6-1.6-.1.2.4 1.3.5 2z"/><path class="st19" d="M498.5 199.5s0-1.4-.2-2c-.1-.2.3-1 .3-1.7 0-.1.5-.6.8-1 .3-.4.1-.8.1-.8l-2.1 1.5-.5 1.9-.7 2.2s.3.7 1.2.6c.5 0 1.1-.6 1.1-.7zM524.3 207s.3 3.6-2.1 5.7c-2.8 2.5-14.4 13-15.1 13.2-4.9 1.5-4.5-3-3.5-5 1-1.9 3-7.3 6.9-11.4 3.5-3.6 10-9.9 13.8-2.5z"/><path fill="#19b4d8" d="M518.5 216.7l-8.5-8 8.5-6.5 5.9 1.7 1.4 5.4z"/><path class="st2" d="M510 208.7l8.5 8-.6.5-8.5-7.9z"/><g><path class="st29" d="M577.6 180.6s1.3 6.1-2.2 9c-6.9 5.8-.6 12 5 10.6 5.5-1.4 3.8-13.1 3.8-13.1l-6.6-6.5z"/><path class="st25" d="M579 182.1s.3 5.4-2.2 9.2c-3.1 4.6.2 9.3 2.8 9 .5-.1 5.3-6.2 5.3-6.2s-4.7-12-5.9-12z"/><path class="st30" d="M579 186.2l5.6-.2s3.1 3.9 2.9 10.3c0 .3-6.5 2.1-6.5 2.1l-2-12.2z"/><pattern id="SVGID_4_" xlink:href="#Horizontal_line_3" patternTransform="matrix(-.9292 0 0 .9292 -9650.048 -1572.191)"/><path d="M576.3 213s7.6-6.3 7.1-6.3-4.6-8.4-4.6-8.4" fill="url(#SVGID_4_)"/><path class="st30" d="M586.7 199.5s.5 3.7-2.7 10.1c-3.2 6.5-14.8 14.8-15.6 15.1-5.5 1.6-5.6-2.8-4.5-5 1-1.9 3.5-6.1 10.4-14.5 3.3-4 8.7-9.3 12.4-5.7z"/><pattern id="SVGID_5_" xlink:href="#Horizontal_line_3" patternTransform="matrix(-.8329 .412 .412 .8329 -5471.226 239.208)"/><path fill="url(#SVGID_5_)" d="M578.8 200.2l-5.3 5.4 9.6 8.9"/><path class="st33" d="M594.3 210.4l-4.7 18.5-13.8.2-1.4-18.9z"/><path class="st30" d="M590.2 228.9l-14.1-.2s-3.8 5.7.8 15.4c.5 1.1 2.8 10.8 2.8 10.8s11.5 3.3 16.8-.6c.5-.4 2-5.7 2.4-7.5 1.9-6.9-3.9-10-8.7-17.9z"/><path class="st33" d="M578.2 213.8s-7.1.6-7.1-3.6c0-2.2.2-.7 6.1-9.1"/><path class="st30" d="M572.7 213.5c-2.1-2.4-4.8-.2-4.8-.2-5.1 4.2-13.5 13.7-15.8 17.7-.4.8-.7 1.2-.9 1.8 0 0-.4 1.4.9 1.9.7.2 2.7-1.4 2.7-1.4 23.8-15.7 19.3-18.1 17.9-19.8zM548.9 240.2c.1-.1-.9 1.2-1.5 1.7-.2.1-.4 1.2-.9 1.7-.1.1.1.8.1 1.5 0 .5-.5.7-.5.7l-.9-2.8.8-2.1.8-2.5s.7-.3 1.5.3c.7.7.6 1.4.6 1.5z"/><path class="st30" d="M551.4 241c.3-.4.6-1.3.8-1.7.8-1.3 1.3-4.5 1.7-5.2.4-.7.8-1.6-.3-2.5-1.2-1-2 .5-2 .5-.4.6-.5.9-.7 1.3-.7.9-3.1 3.2-4.1 4.8 0 0-.1 1.1.5 1.5.8.6 1.6.1 1.6.1.2-.2.4-.4.7-.2.4.4.6 1 .5 1.4-.8 1.4-.7 1.5-.4 1.9.2 0 1.3-1.3 1.7-1.9z"/><path class="st30" d="M549.2 239.5s-.6 1.4-1.1 2c-.1.1-.1 1.2-.5 1.9-.1.1.2.8.4 1.5.1.5-.3.8-.3.8l-1.4-2.5.4-2.2.3-2.6s.6-.6 1.5-.1c.4.2.7 1.1.7 1.2zM575.3 203.7c1.4-1.5 4.9-9.9 4.9-9.9l7.8-.4s4.9 4.9 5.6 8.7c.7 3.9.1 8.1.1 8.1h-17.6s-.8-6.4-.8-6.5z"/><pattern id="SVGID_6_" xlink:href="#Horizontal_line_3" patternTransform="matrix(.453 0 0 .453 -1486.22 -5240.81)"/><path d="M590.1 195.7s-2.4 2.9-6.4 3-4.9-1.5-4.9-1.5l-.8 1.7-6.8 10.3s-1.4 3.3 3.6 4.6l1.1 15.3 13.9-.1s6.4-18 5.1-24.3c-1.4-6.3-4.8-9-4.8-9" fill="url(#SVGID_6_)"/><g><path class="st30" d="M592.1 200s4.4 3.5 2 10.2c-1.4 3.9-6.8 19.8-7.4 20.4-4.2 3.8-6.3 0-6.2-2.6 0-2.1.1-11.6 2.4-17.4 1.9-4.7 4.3-12.3 9.2-10.6z"/></g><g><path class="st30" d="M587.6 226.9c1.3 2.9-1.8 4.4-1.8 4.4-6 2.9-18.1 6.5-22.7 6.9-.9.1-1.4.1-2 .1 0 0-1.5-.2-1.3-1.6.1-.7 2.4-1.9 2.4-1.9 24.1-15 24.4-10 25.4-7.9zM553.4 237.3c.1 0-1.5.3-2.2.7-.2.1-1.2-.1-1.9 0-.1 0-.7-.4-1.3-.7-.5-.2-.9.1-.9.1l2.2 1.9 2.2.2 2.6.3s.6-.5.3-1.5c-.3-.9-1-1.1-1-1z"/><path class="st30" d="M553.6 234.6c.5-.1 1.5 0 1.9-.1 1.5-.1 4.7.7 5.4.6.8-.1 1.8-.1 2.1 1.3.4 1.5-1.3 1.6-1.3 1.6-.7.1-1 .1-1.4.2-1.2.3-4.2 1.5-6.1 1.7 0 0-1-.3-1.2-1.1-.2-1 .6-1.5.6-1.5.2-.1.6-.2.5-.6-.2-.6-.7-1-1.1-1-1.6.1-1.7 0-1.9-.4.2-.1 1.8-.6 2.5-.7z"/><path class="st30" d="M554.1 237.2s-1.5 0-2.3.2c-.2.1-1.2-.4-1.9-.3-.1 0-.6-.5-1.2-.9-.4-.3-.9-.1-.9-.1l1.7 2.3 2.2.6 2.5.8s.8-.3.7-1.3c0-.6-.7-1.3-.8-1.3z"/></g><pattern id="SVGID_7_" xlink:href="#Horizontal_line_3" patternTransform="matrix(.453 0 0 .453 -1486.22 -5240.81)"/><path d="M593.1 215s5.4-14.6-1.7-15.4c-6.3-.7-9.7 12.6-9.7 12.6l11.4 2.8z" fill="url(#SVGID_7_)"/><path class="st36" d="M582.9 187.8c.3 1.3-.6 5.6-2.6 6.3l-1.2-7.1 3.8.8z"/><path class="st30" d="M576.9 180.7c.1 1.4.1 2.5.1 3.5v.7c0 3.1-.2 3.6 2.4 4 1.5.2 5.3-1.9 5.6-2.4 1.1-1.9 2.7-4.6 2.7-6.6 0-4.2-3.3-6.2-6.1-6.2-1.6 0-3.9 1.5-4.4 3.2-.6 1.8-.4 2-.3 3.8z"/><path d="M579.8 179.9c-.1-.1-.2-.1-.3-.2-.2-.1-.3-.1-.5-.1-.6-.1-1.1 0-1.7.1-.2 0-.3-.3-.1-.3.6-.1 1.3-.2 1.9-.1.3.1.7.2 1 .4.1.1-.1.3-.3.2z" fill="#edb6ab"/><g><circle class="st22" cx="578.6" cy="180.9" r=".4"/></g><path class="st30" d="M577.1 180.4c-.1.1-.6 1.2-1 1.7-.2.3 0 .4.4.5l.6.1c.4 0 0-2.3 0-2.3z"/><path class="st2" d="M577.3 184.9c.7 0 .9-.6.9-.6s-.4 0-.9-.1v.7z"/><path class="st29" d="M582.9 175.3c-.1 0-.3 1.1-1.2 1.1-2.9 0-5.8-.9-5-3.7.4-1.7 2.5-1.9 5.8-.9 4.5 1.4 7.1 4.1 7.6 5.5.8 2.4-7.2-2-7.2-2z"/><path class="st29" d="M580.3 174.2c-.1 0-.2 2.6 1.1 4.8.6 1 3.8 1.7 3.9 3.2 0 .7-1.1 1.9-1.2 2.8-.5 6.8-1.1 14.9 8.1 15.5 5.8.4 9-1.6 8.2-7.9-.3-2.1-3.1-4.4-7.6-5.1-1-.2-1.8-4.9-2.1-8.1-.2-2.6-2-4.1-2-4.1s-5.9-2.7-8.4-1.1z"/><path class="st36" d="M585.7 181.5c0 .1 1.1 3.8-1.4 4.7-.3.1-.2-2.5-.2-2.5l1.6-2.2z"/><g><path class="st30" d="M583.9 181.8s1-1.2 1.6-.6c.6.6-.5 2.7-1.2 2.5-.7-.2-.7-.6-.7-.6l.3-1.3z"/><path class="st30" d="M584.3 181.9c.2-.1.4-.1.5.1 0 .1.1.1.1.2s0 .3-.1.4c-.1.1-.2.2-.4.1"/></g></g><g><path d="M379.7 180.9c-.6.8-1.3 1.4-1.9 2.1-1 1.1-4.2 3.6-4.2 6.5.1 4.8 3.4 5.7 5.6 5.9.6 0 1.2.3 1.8.1.9-.3 3-1.2 3.5-2 1.8-2.7-.8-7.7 0-10.8.4-1.6 1.2-5.3-1-6-.8-.3-1.5 0-1.9.7-.8 1.1-1.1 2.4-1.9 3.5z"/><path class="st38" d="M380.5 182.6l5.7.1s3 4.2 2.5 10.7c0 .3-6.8 1.8-6.8 1.8l-1.4-12.6z"/><path d="M385.4 183.5c-.2.1-.2 4.7-4.1 5.7l-.8-6.4 4.9.7z" opacity=".64" fill="#947347"/><path class="st38" d="M378.8 176.7c.3 1.2-.2 1.8-.3 2.6-.2 3.9-.7 5.4 2.2 6 1.5.3 5.5-1.7 5.8-2.2 1.2-1.9 3-4.6 3.1-6.6.2-4.3-3-6.5-5.9-6.6-1.6-.1-4 1.3-4.7 3-.5 1.9-.6 2.1-.2 3.8z"/><path class="st38" d="M381.5 176.4c-.2-.2-.5-.4-.8-.5-.4-.1-.8-.1-1.2 0-.2 0-.2-.3 0-.3.4 0 .9 0 1.3.1s.7.3.9.6c.2 0 0 .3-.2.1z"/><circle cx="380.4" cy="177.1" r=".4"/><path class="st38" d="M378.9 176.7c-.1.1-.2.9-.8 1.8-.3.4.2.9.7.9h-.1c1.4-.9.2-2.7.2-2.7z"/><path d="M378.9 179.7s1.5.9 1.4 1c-.2.8-1.5.8-1.5.8s-1.1-.3-.4-1c.3-.1-.3-.6.5-.8z" fill="#573a22"/><pattern id="SVGID_8_" xlink:href="#Horizontal_line_3" patternTransform="matrix(-.9292 0 0 .9292 -9682.91 -1578.091)"/><path d="M378.7 207.7s7.6-6.3 7.1-6.3c-.4 0-4.6-8.4-4.6-8.4" fill="url(#SVGID_8_)"/><path class="st38" d="M389.2 194.2s.5 3.7-2.7 10.1c-3.2 6.5-14.8 14.8-15.6 15.1-5.5 1.6-5.6-2.8-4.5-5 1-1.9 3.5-6.1 10.4-14.5 3.2-4 8.7-9.4 12.4-5.7z"/><pattern id="SVGID_9_" xlink:href="#Horizontal_line_3" patternTransform="matrix(-.8329 .412 .412 .8329 -5482.154 234.188)"/><path fill="url(#SVGID_9_)" d="M381.3 194.9l-5.3 5.4 9.5 8.8"/><path class="st33" d="M396.8 205.1l-4.7 18.5-13.9.2-1.4-19z"/><path class="st38" d="M392.6 223.6l-14.1-.2s-3.8 5.7.8 15.4c.5 1.1 2.8 10.8 2.8 10.8s11.5 3.3 16.8-.6c.5-.4 2-5.7 2.4-7.5 2-6.9-3.8-10-8.7-17.9z"/><path class="st33" d="M380.7 208.4s-7.1.6-7.1-3.6c0-2.2.2-.7 6.1-9.1"/><path class="st38" d="M375.1 208.1c-2.1-2.4-4.8-.2-4.8-.2-5.1 4.2-13.5 13.7-15.8 17.7-.4.8-.7 1.2-.9 1.8 0 0-.4 1.4.9 1.9.7.2 2.7-1.4 2.7-1.4 23.8-15.7 19.4-18.1 17.9-19.8zM351.3 234.8c.1-.1-.9 1.2-1.5 1.7-.2.1-.4 1.2-.9 1.7-.1.1.1.8.1 1.5 0 .5-.5.7-.5.7l-.9-2.8.8-2.1.8-2.5s.7-.3 1.5.3c.8.7.7 1.5.6 1.5z"/><path class="st38" d="M353.9 235.7c.3-.4.6-1.3.8-1.7.8-1.3 1.3-4.5 1.7-5.2.4-.7.8-1.6-.3-2.5-1.2-1-2 .5-2 .5-.4.6-.5.9-.7 1.3-.7.9-3.1 3.2-4.1 4.8 0 0-.1 1.1.5 1.5.8.6 1.6.1 1.6.1.2-.2.4-.4.7-.2.4.4.6 1 .5 1.4-.8 1.4-.7 1.5-.4 1.9.1 0 1.3-1.3 1.7-1.9z"/><path class="st38" d="M351.7 234.2s-.6 1.4-1.1 2c-.1.1-.1 1.2-.5 1.9-.1.1.2.8.4 1.5.1.5-.3.8-.3.8l-1.4-2.5.4-2.2.3-2.6s.6-.6 1.5-.1c.4.1.7 1.1.7 1.2z"/><g><path class="st38" d="M377.8 198.4c1.4-1.5 4.9-9.9 4.9-9.9l7.8-.4s4.9 4.9 5.6 8.7c.7 3.9.1 8.1.1 8.1h-17.6c0-.1-.8-6.5-.8-6.5z"/></g><path class="st2" d="M392.5 190.4s-2.4 2.9-6.4 3-4.9-1.5-4.9-1.5l-.8 1.7-6.8 10.3s-1.4 3.3 3.6 4.6l1.1 15.3 13.9-.1s6.4-18 5.1-24.3c-1.4-6.4-4.8-9-4.8-9"/><g><path class="st38" d="M394.6 194.7s4.4 3.5 2 10.2c-1.4 3.9-6.8 19.8-7.4 20.4-4.2 3.8-6.3 0-6.2-2.6 0-2.1.1-11.6 2.4-17.4 1.8-4.7 4.2-12.3 9.2-10.6z"/></g><g><path class="st38" d="M390 221.5c1.3 2.9-1.8 4.4-1.8 4.4-6 2.9-18.1 6.5-22.7 6.9-.9.1-1.4.1-2 .1 0 0-1.5-.2-1.3-1.6.1-.7 2.4-1.9 2.4-1.9 24.2-14.9 24.5-9.9 25.4-7.9zM355.8 231.9c.1 0-1.5.3-2.2.7-.2.1-1.2-.1-1.9 0-.1 0-.7-.4-1.3-.7-.5-.2-.9.1-.9.1l2.2 1.9 2.2.2 2.6.3s.6-.5.3-1.5c-.2-.8-.9-1-1-1z"/><path class="st38" d="M356.1 229.3c.5-.1 1.5 0 1.9-.1 1.5-.1 4.7.7 5.4.6.8-.1 1.8-.1 2.1 1.3.4 1.5-1.3 1.6-1.3 1.6-.7.1-1 .1-1.4.2-1.2.3-4.2 1.5-6.1 1.7 0 0-1-.3-1.2-1.1-.2-1 .6-1.5.6-1.5.2-.1.6-.2.5-.6-.2-.6-.7-1-1.1-1-1.6.1-1.7 0-1.9-.4.2-.1 1.8-.6 2.5-.7z"/><path class="st38" d="M356.6 231.9s-1.5 0-2.3.2c-.2.1-1.2-.4-1.9-.3-.1 0-.6-.5-1.2-.9-.4-.3-.9-.1-.9-.1l1.7 2.3 2.2.6 2.5.8s.8-.3.7-1.3c0-.6-.8-1.3-.8-1.3z"/></g><path class="st2" d="M395.6 209.7s5.4-14.6-1.7-15.4c-6.3-.7-9.7 12.6-9.7 12.6l11.4 2.8z"/><path d="M400.7 195.9c-1.5.5-3.1 0-4.5-.5-1.6-.6-3.1-1.3-4.6-2.1-.6-.3-1.1-.6-1.5-1.2-.5-.6-.6-1.4-.7-2.1-.2-1-.3-2.1.2-3 .4-.7 1.3-1.2 2.1-1.2 2.9-.3 6.3 2 8.4 3.8.9.8 2.4 1.9 2.7 3 .4 1.4-.8 2.9-2.1 3.3z"/><path d="M402.4 184.3c.8.3 1.7.7 2.1 1.4.3.5.3 1.2.3 1.8 0 .6 0 1.3-.4 1.8-.5.8-1.4 1.1-2.3 1.1-2.4 0-4.4-1.8-6.6-2.7-1-.4-2-.7-2.9-1.3s-1.6-1.5-1.6-2.6c.4-5.6 9.3-.4 11.4.5z"/><path d="M388.4 177.7c1 .8 2.3 1.1 3.5.7.4 2.4 2.1 4.5 4.1 5.8.6.4 1.2.7 1.9.7.6 0 1.2-.1 1.7-.3 1.4-.5 2.8-1.2 3.4-2.6.4-.9.3-2-.2-2.9-.5-.9-1.4-1.4-2.4-1.5-.9-.1-1.7.2-2.6 0-.9-.1-1.7-.7-2.3-1.4-.9-.9-1.9-3.2-2.6-4.3-2.7-3.9-5.5-2.6-6.9-2.5-3 .5.5 6.8 2.4 8.3z"/><path d="M384.6 173.4c-.2 0-5.8 1-7.4-1.4-1.5-2.2.4-5.6 4.4-5.1 4.9.6 9.5 4.3 10 6.5.9 3.6-7 0-7 0z"/><path d="M380 171.3s1.9 7.3 4.4 7c2.5-.3 2.8-4.5 2.8-4.5l-7.2-2.5z"/><path d="M381.9 172.4s4.7 3.5 3.3 8c-2.6 8.2-.2 12.9 4.2 14.5s10.4 1.5 10.5 1-6.9-21.8-6.9-21.8l-11.1-1.7z"/><path class="st38" d="M384.6 178.3s1-1.2 1.5-.6-.2 2.7-.8 2.4c-.6-.3-1-.6-1-.6l.3-1.2z"/><path class="st38" d="M385.3 178.4c.2-.1.4-.1.5.1v.2c0 .1 0 .3-.1.4-.1.1-.2.2-.3.1"/></g><g><path class="st43" d="M647.7 189l9.4.1s1.4 4.3 1.2 12.2c0 .3-8.1 2.6-8.1 2.6l-2.5-14.9z"/><path class="st43" d="M645 181.3c.2.5.4 1.2.4 1.6 0 .9-.5 1.8-.5 2.3.2 4.2-.8 3.8-.4 5.3.3 1.1 1.7 1.2 4.2 1.7 1.8.4 6.3-1.6 7-2 3.4-1.5 4.7-8.1 4.7-10.8 0-5.7-4.7-6.3-8.1-5.7-1.9.3-3.4 1.1-4.5 2.1-2 1.7-3 5.1-2.8 5.5z"/><path d="M648.4 181.4c-.2-.3-1.6-1.1-3-.2"/><circle class="st22" cx="646.9" cy="182.9" r=".5"/><path class="st43" d="M645.6 181.9c-.7 2-1.5 2.9-1.7 3.7 0 .1 1.1.3 1.2.3l.5-4z"/><path class="st44" d="M653 192.5c-.2.1 1.1 5.2-3.7 6.6l-1.1-7 4.8.4z"/><path class="st43" d="M645 186.7s1.2.3 1.2.5c0 .5-1.3.5-1.3.5l.1-1z"/><path d="M644.9 185.8s2.9.2 2.9 1.2c0 .1-2.9-.3-2.9-.3v-.9zM644.8 178.5s3.9-10 14.2-4.4c4.7 2.6 2.9 9.8-1.1 15.9-.1.1-2.4.4-3-.6-.8-1.3-1-5.9-1-5.9l-2.7.6s-.3-3.3-.8-3.4c-4.8-1.5-5.6-2.2-5.6-2.2z"/><path class="st44" d="M654.2 182.5s.2 1.9-.7 2.3c-.6.2-1.2 0-1.2 0s.3 2.8 1.9 2.2c1.4-.6 0-4.5 0-4.5z"/><path class="st43" d="M652.3 183.2s.9-1.7 1.6-1c.8.7.5 2.5-1 2.5-.9 0-1-.2-1-.2l.4-1.3z"/><path class="st43" d="M653 183.2c0-.3.4-.5.6-.2V183.3c0 .2-.1.3-.2.5s-.3.1-.5 0l.1-.6zM641.4 209.7c1.9-3.3 8.2-10.7 8.2-10.7l8.4-1.4s6 4.3 7.5 11.4c.1.3-.5 7.7-.5 7.7h-25.3c0 .1 1.6-6.9 1.7-7z"/><path class="st24" d="M643.6 192.7c0-.1 0 0 0 0z"/><path d="M658 196.2l-10.5 5.3-6.3 8.3-1.7 7.1H665l.6-8.5s-2.2-6.4-5.6-9l-2-3.2z" fill="#1d6d75"/><path class="st1" d="M658.2 195.7l-10.8 5.9 11.9-3.9z"/><g><path class="st27" d="M657.3 210s.3 3.6-2.1 5.7c-2.8 2.5-14.4 13-15.1 13.2-4.9 1.5-4.5-3-3.5-5 1-1.9 3-7.3 6.9-11.4 3.4-3.5 10-9.8 13.8-2.5z"/><path class="st43" d="M642.9 223.4c1 1.7 0 2.5 0 2.5-5.4 3.7-12.5 8.2-16 10.5-.7.4-1 .4-1.4.6l-2.2-2.1c13.2-17.2 18.5-13.3 19.6-11.5z"/><path class="st19" d="M619.2 238.1c.1-.1-1.2.6-1.7 1.1-.1.1-1.1.2-1.6.5-.1 0-.7-.2-1.3-.3-.5-.1-.7.3-.7.3l2.3 1.1 2-.4 2.3-.4s.4-.6-.1-1.4c-.5-.6-1.2-.5-1.2-.5z"/><path class="st43" d="M618.7 235.7c.4-.2 1.3-.4 1.6-.5 1.3-.5 1.7-.3 4.3-.9 2.8-.6 3 1.7 1.9 2.3-.3.2-.9.3-1.2.5-.9.5-3.3 2.3-4.8 3 0 0-1 0-1.3-.7-.5-.8.1-1.4.1-1.4.2-.1.4-.3.3-.6-.3-.4-.6-.5-1.2-.4-1.1.4-1.6.2-1.7-.1.5-.1 1.4-.9 2-1.2z"/><path class="st43" d="M619.8 237.9s-1.3.4-1.9.7c-.1.1-1.1 0-1.7.2-.1 0-.7-.3-1.2-.5s-.8.2-.8.2l2.1 1.6h2l2.3.1s.6-.5.3-1.3c-.3-.7-1.1-1-1.1-1zM656.7 209.5s.3 3.6-2.1 5.7c-2.8 2.5-14.4 13-15.1 13.2-4.9 1.5-4.5-3-3.5-5 1-1.9 3-7.3 6.9-11.4 3.5-3.6 10-9.9 13.8-2.5z"/><path class="st1" d="M650.8 219.2l-8.4-8 8.4-6.5 6 1.7 1.4 5.4z"/><path fill="#005156" d="M642.4 211.2l8.4 8-.5.5-8.5-7.9z"/></g></g><g><path class="st47" d="M461.4 216.9c-2.2-1.3-3.9 1.2-3.9 1.2-3.1 4.7-7.6 14.3-8.5 18-.2.7-.3 1.2-.3 1.6 0 0 0 1.2 1.2 1.2.6 0 1.8-1.8 1.8-1.8 15.4-18.7 11.3-19.3 9.7-20.2z"/><path class="st47" d="M458.8 194.6s5.7.1 5.5 7.5c-.1 3.5-1.1 17.7-1.4 18.3-2.4 4-4.8 1.3-5.3-.8-.4-1.8-1.2-9.5-1.8-14.8-.4-3.3-1.1-10.6 3-10.2zM473.5 223.4l-15.8.3s.8 8.3 1.3 11.4c.2 1 1.4 8.4 1.4 8.4s9.2 2.8 13.4-.5c.4-.3.9-2.4 1.3-3.9 1.5-5.9 2.3-9-1.6-15.7z"/><path class="st47" d="M451.5 195.3l4.4-5.2s11.4 1.8 13.9 7.9c4.1 9.9 4.1 25.6 4.1 25.6l-16.2.2-6.2-28.5z"/><path class="st47" d="M447.2 189.7l5.6-4.2s4.7 5.7 5.2 7.1c.1.3-6.4 3.2-6.4 3.2l-4.4-6.1z"/><path class="st47" d="M443.7 181.9c0 .4.4 1 .3 1.2-.2.7 0 1.6.1 2 .9 3.3.4 3.1 1 4.3.4.9 1.4 1.4 3.3 1.3 1.4-.1 4.2-3.2 4.7-3.6 2.3-1.9 2.1-7.4 1.6-9.6-1-4.6-4.7-4.2-7.1-3.1-3.7 1.9-4 5.9-3.9 7.5zM446 181.5c-.2-.2-1-.4-2 .3"/><circle class="st22" cx="445.2" cy="183.6" r=".4"/><path class="st47" d="M444.1 182.2c-.8 2-.9 2.7-.5 3 0 0 .5.3.9 0 .2-.2-.4-3-.4-3z"/><path class="st48" d="M450.6 189.8c-.1.1 1 2.9 0 4.6l-2.7-3.7 2.7-.9z"/><path d="M447.3 188.6c-1.3.4-1.9-1.9-1.8-2.2" opacity=".67" fill="none" stroke="#cd904d" stroke-width="1.02" stroke-miterlimit="10"/><path class="st48" d="M444.5 183.8c.2.5.6.9 1.1 1.1.5.2 1.6 0 1.7-.9"/><path class="st50" d="M445.7 186.1c-.4-.4-1.1-.8-1.6-.6v2.3l2.4-.2c.1-.1-.4-1.1-.8-1.5z"/><path class="st1" d="M456.3 190.1s12 2 14.2 7.8c.3.7 2.7 7.1 3.4 17 .7 9.9-.2 8.6-.2 8.6l-16.2.2-6-27.5c.1 0 5.4-2.7 4.8-6.1z"/><path class="st47" d="M463.5 194.4s4.5 3.5-.2 9.3c-2.2 2.8-11.6 13.4-12.2 13.7-4.4 1.7-4.6-1.9-3.7-3.9.7-1.7 4.8-8.3 7.6-12.9 1.6-2.8 5.4-9 8.5-6.2z"/><path class="st47" d="M452 213.7c-1-2.4-3.8-1.4-3.8-1.4-5.3 1.8-14.7 6.7-17.7 9.2-.6.5-.9.7-1.3 1.1 0 0-.8 1 .2 1.7.5.4 2.5-.3 2.5-.3 23.7-5.7 20.8-8.6 20.1-10.3zM425.4 227.4c.1 0-1.1.7-1.7.9-.2 0-.6.8-1.2 1.1-.1 0-.2.6-.4 1.1-.2.4-.6.4-.6.4l.1-2.3 1.2-1.4 1.3-1.6s.6-.1 1.1.7c.6.6.2 1.1.2 1.1z"/><path class="st47" d="M427.2 228.8c.3-.2.9-.8 1.1-1 1-.8 2.4-3 2.9-3.4.5-.4 1.1-1 .5-1.9-.7-1.1-1.7-.1-1.7-.1-.5.4-.6.6-1 .7-.8.5-3.4 1.6-4.7 2.5 0 0-.4.8 0 1.3.5.7 1.3.5 1.3.5.2-.1.4-.2.7 0 .2.4.2.9 0 1.2-1 .9-1 .9-.9 1.3 0-.1 1.3-.8 1.8-1.1z"/><path class="st47" d="M425.9 227s-.9.9-1.5 1.2c-.1.1-.5.9-.9 1.3-.1.1-.1.7-.1 1.2-.1.4-.5.5-.5.5l-.4-2.3.9-1.6 1-1.9s.7-.3 1.2.3c.3.5.3 1.3.3 1.3z"/><path class="st51" d="M463.5 194.4s4.5 3.5-.2 9.3c-2.2 2.8-11.6 13.4-12.2 13.7-4.4 1.7-4.6-1.9-3.7-3.9.7-1.7 4.8-8.3 7.6-12.9 1.6-2.8 5.4-9 8.5-6.2z"/><path class="st51" d="M451.5 214c-1-2.4-3.8-1.4-3.8-1.4-5.3 1.8-14.7 6.7-17.7 9.2-.6.5-.9.7-1.3 1.1 0 0-.8 1 .2 1.7.5.4 2.5-.3 2.5-.3 23.7-5.7 20.8-8.7 20.1-10.3z"/><path class="st47" d="M448.6 244c0-.1-.4 1.2-.8 1.7-.1.1 0 1-.3 1.6 0 .1.2.6.4 1.1.1.4-.2.7-.2.7l-1.3-1.9.1-1.8.1-2.1s.5-.4 1.3-.2c.7.2.8.8.7.9z"/><path class="st47" d="M450.9 243.9c.1-.4.2-1.2.3-1.5.3-1.2 0-3.8.2-4.5.1-.6.3-1.5-.8-1.8-1.2-.4-1.4 1-1.4 1-.1.6-.2.8-.3 1.2-.4.9-1.7 3.3-2.2 4.8 0 0 .1.9.8 1 .8.3 1.3-.4 1.3-.4.1-.2.2-.4.5-.4.4.2.7.6.7 1-.3 1.3-.2 1.4.1 1.5 0 0 .6-1.3.8-1.9z"/><path class="st47" d="M448.8 243.3s-.2 1.2-.5 1.8c-.1.2.2 1 0 1.6 0 .1.4.6.6 1 .2.4-.1.7-.1.7l-1.7-1.6-.2-1.8-.4-2.1s.4-.6 1.2-.5c.6.2 1.1.9 1.1.9z"/><path class="st48" d="M450.7 182.7s.5 1.5-.2 2c-.4.3-.9.3-.9.3s.7 2.2 1.8 1.4c1.1-.9-.7-3.7-.7-3.7z"/><path class="st50" d="M441.1 178.2c-1.2-.6-1.9-2-1.8-3.3.1-1.3 1-2.6 2.2-3.1.4-.2.9-.3 1.4-.2 1.1.2 1.9 1.1 2.9 1.5.4-.7 1.2-1 2-.9.8.1 1.5.6 2 1.2.1.2.3.4.5.4s.4-.1.5-.2c.9-.4 2 0 2.7.6 1.5 1.3 3.4 2 2.4 6-.5 1.9-.7 3.2-1.3 5.1-1.7.6-4 .4-3.6-2-.4.3-1.7-.3-2-.6-.3-.3-.2-4.4-3.4-4.7-1.6-.2-2.8 1.1-4.5.2z"/><path class="st47" d="M449.4 183.6s.4-1.6 1.1-1.1c.7.4.7 2.2 0 2.2-.7-.1-1.1-.4-1.1-.4v-.7z"/><path class="st47" d="M450 183.5c-.1-.3.2-.5.4-.3v.1c0 .1 0 .1.1.2 0 .1 0 .3-.1.4-.1.1-.2.2-.3.1l-.1-.5z"/></g><g><path class="st52" d="M302.8 228.8c-.5 2.3-3.6 2.2-3.6 2.2-6.2-2.2-13.3-5.2-17.3-6.7-.7-.3-.9-.6-1.3-.8l.4-3c21.8.7 22.2 6.3 21.8 8.3zM276 219c.1 0-1.2-.6-1.9-.7-.2 0-.8-.8-1.4-1-.1 0-.3-.7-.6-1.2-.2-.4-.7-.4-.7-.4l.4 2.6 1.5 1.4 1.7 1.6s.7 0 1.1-.9c.3-.8-.1-1.4-.1-1.4z"/><path class="st52" d="M277.6 217.3c.4.2 1.1.8 1.4 1 1.1.7 1.3 1.3 3.2 3 2.1 1.9.3 3.5-.7 2.9-.3-.2-.7-.5-1.1-.7-1-.5-3.8-1.3-5.3-2.2 0 0-.5-.8-.2-1.4.4-.9 1.3-.7 1.3-.7.2.1.5.2.7-.1.2-.5 0-.8-.4-1.2-1-.7-1.1-1.2-.9-1.5.3.2 1.5.5 2 .9z"/><path class="st52" d="M276.5 219.4s-1.1-.9-1.7-1.1c-.2-.1-.6-.9-1.2-1.3-.1-.1-.2-.7-.3-1.3-.1-.5-.6-.5-.6-.5l-.1 2.6 1.2 1.6 1.3 1.9s.7.2 1.2-.5c.4-.5.3-1.4.2-1.4zM315.8 209.9s.9 3.6-1.1 6c-2.3 2.9-11.3 15.2-14.7 14.9-5.1-.6-3.1-1.6-2.5-3.8.6-2.1 1.8-7.7 5-12.4 2.9-4.1 8.4-11.4 13.3-4.7z"/><path class="st47" d="M322.3 212s1.6 3.8-.2 6.9c-2.1 3.6-11 19.1-11.6 19.6-4.7 3.3-5.9-1.6-5.5-4.2.4-2.4.7-8.9 3.4-14.7 2.4-5.1 7.2-14.1 13.9-7.6z"/><path class="st47" d="M321.9 219.4l-6.1 18.7-15.9.1-1.3-18.5z"/><path class="st47" d="M318 244.9c.1.2 3.1 4.5 3.5 8.2.4 3.9-3.5 8.8-3.5 8.8l-15.3.2-1.8-10.6-.9-13.6 15.8.2s1.2 4.6 2.2 6.8zM305.9 194.6l8.9.1s1.3 4 1.1 11.5c0 .3-7.7 2.5-7.7 2.5l-2.3-14.1z"/><path class="st47" d="M300.1 213.6c1.8-3.1 7.7-10.1 7.7-10.1l7.9-1.3s5.7 4 7.1 10.7c.1.3-.5 7.3-.5 7.3h-23.9c.1 0 1.7-6.5 1.7-6.6zM303.4 187.4c.2.5.4 1.1.4 1.5 0 .8-.5 1.7-.5 2.2.2 4-.7 3.6-.4 5 .3 1.1 1.6 1.1 3.9 1.6 1.7.3 5.9-1.5 6.6-1.9 3.2-1.5 4.4-7.7 4.4-10.2 0-5.3-4.4-6-7.6-5.4-1.8.3-3.2 1.1-4.2 2-1.9 1.7-2.8 4.9-2.6 5.2z"/><path d="M306.6 187.5c-.2-.3-1.5-1.1-2.9-.2"/><circle class="st22" cx="305.2" cy="188.9" r=".4"/><path class="st47" d="M303.9 188c-.6 1.9-1.4 2.8-1.6 3.5 0 .1 1 .3 1.2.3l.4-3.8z"/><path class="st48" d="M310.9 197.9c-.2.1 1 4.9-3.4 6.2l-1.1-6.6 4.5.4z"/><path d="M305.6 182.9s4.8-6.2 12-2c4.3 2.6 2.4 9.1-2.4 14.6-.1.1-2.1-.4-2.7-1.4-.7-1.2-.7-4.7-.7-4.7l-2.5.5s-.6-2.8-.8-3.2c-.6-2-2.9-3.8-2.9-3.8z"/><path class="st48" d="M312 188.6s.2 1.8-.7 2.1c-.6.2-1.2 0-1.2 0s.3 2.7 1.8 2.1.1-4.2.1-4.2z"/><path class="st47" d="M310.3 189.2s.8-1.6 1.5-1c.7.7.4 2.4-1 2.4-.9 0-.9-.2-.9-.2l.4-1.2z"/><path class="st47" d="M310.9 189.2c0-.3.4-.4.6-.2V189.3c0 .2-.1.3-.2.4-.1.1-.3.1-.4 0v-.5zM303.3 192.5s1.2.3 1.1.5c0 .4-1.2.5-1.2.5l.1-1z"/><path d="M300 183.1c.1-1 1-1.8 2-1.7.4.1.8.3 1.2.3.4.1.9-.1 1-.5.1-.3-.1-.7-.2-1-.2-.8.5-1.6 1.3-1.9.8-.2 1.7.4 2.5.4 2.5-.1 4.7-.7 7.6 1.2l-3.1 2.5c.2-.1.3.2.3.4-.2 1.2-.9 2.2-1.8 3-.5.4-1 .8-1.7.9-4.1.7-1-3.6-4.7-2.3-1.1.6-1.7 1.1-2.7.9-1-.3-1.8-1.3-1.7-2.2z"/><path class="st53" d="M316.4 202.3l-10.9 3.7-5.5 7.5-1.4 5.8 2 28 16.9-3.9-1.8-5.6 6.9-18.9s1.6-7-1.7-11.2c-3.2-4.2-4.5-5.4-4.5-5.4"/><path fill="#ed6a5e" d="M316.7 202.2l-11.6 4.3"/><g opacity=".67"><path class="st47" d="M286.1 225.9c24.7 0 20.7 6.3 20.3 8.5"/></g><g><path class="st56" d="M280.5 234.7c.4 0 .7-.1 1-.3 1.1-.6 1.5-1.9.9-3l-8.6-16.3c-.6-1.1-1.9-1.5-3-.9s-1.5 1.9-.9 3l8.6 16.3c.5.8 1.2 1.2 2 1.2z"/><path d="M320.8 210.5c0 .6 2.5 5.2-2 15.4-4.7 10.6-18.5 15.4-18.5 15.4l-.4-4.6 20.9-26.2z" opacity=".12" fill="#022327"/><path class="st52" d="M307.1 235.6c-.5 2.6-4 2.6-4 2.6-7.1-2.3-15.3-5.4-19.8-6.9-.9-.3-1-.7-1.5-.9l.4-3.4c24.7 0 25.3 6.3 24.9 8.6zM276.4 225.5c.1 0-1.4-.7-2.2-.8-.2 0-.9-.8-1.6-1.1-.1 0-.4-.8-.7-1.4-.3-.5-.8-.4-.8-.4l.6 2.9 1.7 1.5 1.9 1.8s.8 0 1.2-1c.4-.9-.1-1.5-.1-1.5z"/><path class="st52" d="M278.2 223.4c.4.2 1.2.9 1.6 1.1 1.3.8 1.5 1.4 3.8 3.3 2.5 2.1.5 3.9-.7 3.3-.4-.2-.9-.6-1.3-.7-1.1-.5-4.4-1.3-6-2.3 0 0-.6-.9-.3-1.6.4-1 1.4-.9 1.4-.9.2.1.6.2.8-.2.2-.6 0-.9-.5-1.3-1.2-.8-1.3-1.3-1.1-1.6.3.2 1.7.6 2.3.9z"/><path class="st52" d="M277 225.9s-1.3-.9-2-1.2c-.2-.1-.7-1-1.4-1.4-.1-.1-.2-.8-.4-1.5-.2-.5-.7-.6-.7-.6v2.9l1.4 1.8 1.5 2.2s.8.2 1.4-.6c.5-.6.3-1.6.2-1.6zM319.3 212s1.4 3.9-.5 6.9c-2.3 3.6-10.9 18.6-14.8 18.6-5.8 0-3.7-1.4-3.2-3.9.5-2.4 1.1-8.9 4.2-14.6 2.6-5 7.9-13.9 14.3-7z"/><path class="st53" d="M304.2 219.9l10.8 5.8s10-13.6 4.6-16.4c-5.5-2.8-12.3-3-15.4 10.6z"/><g><path class="st2" d="M315.5 224.4c-3.6-1.8-7.3-3.6-10.9-5.4-.6-.3-1.3-.2-1.6.4-.3.5-.2 1.3.4 1.6 3.6 1.8 7.3 3.6 10.9 5.4.6.3 1.3.2 1.6-.4.3-.5.2-1.3-.4-1.6z"/></g></g><path class="st56" d="M317.6 203.8s-17 5.8-18.4 13.9c-.8 4.4-.4 5.1-.4 5.1s4.7-13.6 21-16.5"/><path class="st2" d="M315.6 200.1l-6.2 4.2-1.2 4.1 9.9-4.6zM306.3 204l-.9 2.1 1.1 3 1.5-2.6z"/></g><path class="st53" d="M254.8 245.7c0 2.3 0 4.4.1 6.4.1 3.8.2 7.1.3 9.5.1 2.6.3 4.4.5 5.1 2 6.6 11.8 6.6 11.8 6.6h385.4c.4 0 .8 0 1.2-.1l38.1-5.5c4.4-.6 7.7-4.5 7.7-9V161c0-4.8-3.6-8.7-8.2-9.1h-.7c-11.7-.1-32.1-.1-58-.3-8.1 0-16.7-.1-25.7-.1-14.9-.1-30.9-.1-47.6-.2-46.7-.2-98.6-.5-145.3-.7-16.7-.1-32.7-.2-47.6-.2-52-.2-90.1-.4-94.2-.4-9.2 0-13.7 4.8-15.7 7.9-.9 1.4-1.3 3-1.4 4.6v2.3c4.8-.1 59.2-.5 59.2.3h-1.1l-.3 48.2c-22.5 4.3-36.5 31-58.5 32.4zm79.8-31l.3-48.8H451c.4.1.9.2 1.4.2h105.1c.5 0 .9-.1 1.4-.2h69.8c.4.1.9.2 1.4.2h44.8c.5 0 .9-.1 1.4-.2h10.6v48.8H334.6zm-58-45c-5.2 0-9.5 4.3-9.5 9.6v9c0 5.3 4.3 9.6 9.5 9.6v-28.2z"/><path class="st59" d="M540.2 240.3h45.6c1.5 0 2.8-1.3 2.8-2.8v-5.6c0-1.5-1.3-2.8-2.8-2.8h-45.6c-1.5 0-2.8 1.3-2.8 2.8v5.6c0 1.6 1.2 2.8 2.8 2.8zM394.9 240.3h45.6c1.5 0 2.8-1.3 2.8-2.8v-5.6c0-1.5-1.3-2.8-2.8-2.8h-45.6c-1.5 0-2.8 1.3-2.8 2.8v5.6c0 1.6 1.3 2.8 2.8 2.8zM447.6 159v1.9c0 2.1 1.4 3.9 3.3 4.5.4.1.9.2 1.4.2h105.1c.5 0 .9-.1 1.4-.2 1.9-.6 3.3-2.4 3.3-4.5V159c0-2.6-2.1-4.7-4.7-4.7H452.3c-2.5 0-4.7 2.1-4.7 4.7zM625.3 159v1.9c0 2.1 1.4 3.9 3.3 4.5.4.1.9.2 1.4.2h44.8c.5 0 .9-.1 1.4-.2 1.9-.6 3.3-2.4 3.3-4.5V159c0-2.6-2.1-4.7-4.7-4.7H630c-2.6 0-4.7 2.1-4.7 4.7z"/><path transform="rotate(-180 583.501 149.087)" class="st53" d="M559.7 146.2h47.6v5.8h-47.6z"/><path class="st53" d="M632.7 152h59.8v-5.9c0-3.9-3.1-7.1-7-7.1h-40.6l-12.2 13z"/><path class="st1" d="M640.2 148.6h44.3v-2.9c0-1.9-1.6-3.5-3.5-3.5h-34.7l-6.1 6.4z"/><path transform="rotate(-180 390.63 149.087)" class="st53" d="M366.8 146.2h47.6v5.8h-47.6z"/><path class="st2" d="M676.2 165.4h-47.6c.4.1.9.2 1.4.2h44.8c.5 0 .9-.1 1.4-.2zM558.8 165.4H451c.4.1.9.2 1.4.2h105.1c.4 0 .9-.1 1.3-.2z"/><path class="st60" d="M388.7 271.4v-17.2c0-8.8-7.2-16-16-16h-14.6c-8.8 0-16 7.2-16 16v17.2h46.6z"/><g><path class="st1" d="M344.1 262c-.4 4.2.5 8.2 2.3 11.6 3.2 6 9.3 10.4 16.6 11.1 11.5 1 21.7-7.4 22.7-18.9.5-5.1-1-10-3.7-13.9-3.4-4.9-8.9-8.2-15.2-8.8-11.5-1.1-21.6 7.4-22.7 18.9z"/><path class="st1" d="M362.3 241.9c1.5-.2 3-.2 4.6-.1.2 0 .3 0 .5.1l-2.5 21.9-2.6-21.9zM367.6 285.6c-1.5.2-3 .2-4.6.1-.2 0-.3 0-.5-.1l2.5-21.9 2.6 21.9z"/><path class="st1" d="M343.1 266.4c-.2-1.5-.2-3-.1-4.6 0-.2 0-.3.1-.5l21.9 2.5-21.9 2.6zM386.8 261.1c.2 1.5.2 3 .1 4.6 0 .2 0 .3-.1.5l-21.9-2.5 21.9-2.6z"/><g><path class="st1" d="M378.5 246.5c1.2.9 2.3 2 3.3 3.2.1.1.2.3.3.4l-17.3 13.7 13.7-17.3zM351.4 281.1c-1.2-.9-2.3-2-3.3-3.2-.1-.1-.2-.3-.3-.4l17.3-13.7-13.7 17.3z"/><g><path class="st1" d="M347.6 250.2c.9-1.2 2-2.3 3.2-3.3.1-.1.3-.2.4-.3l13.7 17.3-17.3-13.7zM382.3 277.4c-.9 1.2-2 2.3-3.2 3.3-.1.1-.3.2-.4.3L365 263.7l17.3 13.7z"/></g></g><g><path class="st1" d="M371.1 242.7c1.5.4 2.9 1 4.3 1.7.2.1.3.2.5.3L365 263.9l6.1-21.2zM358.8 284.9c-1.5-.4-2.9-1-4.3-1.7-.2-.1-.3-.2-.5-.3l10.9-19.2-6.1 21.2z"/><g><path class="st1" d="M343.8 257.7c.4-1.5 1-2.9 1.7-4.3.1-.2.2-.3.3-.5l19.2 10.9-21.2-6.1zM386.1 269.9c-.4 1.5-1 2.9-1.7 4.3-.1.2-.2.3-.3.5l-19.2-10.9 21.2 6.1z"/></g></g><g><path class="st1" d="M383.8 252.4c.8 1.3 1.4 2.7 2 4.2.1.2.1.3.2.5l-21 6.7 18.8-11.4zM346.1 275.2c-.8-1.3-1.4-2.7-2-4.2-.1-.2-.1-.3-.2-.5l21-6.7-18.8 11.4z"/><g><path class="st1" d="M353.6 245c1.3-.8 2.7-1.4 4.2-2 .2-.1.3-.1.5-.2l6.7 21-11.4-18.8zM376.3 282.6c-1.3.8-2.7 1.4-4.2 2-.2.1-.3.1-.5.2l-6.7-21 11.4 18.8z"/></g></g><g class="st61"><path class="st62" d="M346.5 273.6c3.2 6 9.3 10.4 16.5 11 11.5 1 21.6-7.4 22.6-18.9.5-5.1-1-10-3.7-13.9l-11.2 6.9-13 8-11.2 6.9z"/></g><g><path class="st2" d="M352.8 262.8c-.6 6.7 4.3 12.6 11 13.2 6.7.6 12.6-4.3 13.2-11 .6-6.7-4.3-12.6-11-13.2-6.6-.6-12.6 4.3-13.2 11z"/></g><g><path class="st1" d="M364.6 267.7c-2.1-.2-3.7-2.1-3.5-4.2.2-2.1 2.1-3.7 4.2-3.5 2.1.2 3.7 2.1 3.5 4.2-.2 2-1.9 3.5-3.9 3.5h-.3zm-2.4-4.1c-.1 1.5 1 2.8 2.5 3 1.5.1 2.8-1 3-2.5.1-1.5-1-2.8-2.5-3h-.2c-1.5 0-2.6 1.1-2.8 2.5z"/></g></g><path transform="rotate(-180 524.693 258.478)" class="st1" d="M520.8 256.8h7.8v3.3h-7.8z"/><path transform="rotate(-180 427.728 258.478)" class="st1" d="M423.8 256.8h7.8v3.3h-7.8z"/><path transform="rotate(-180 279.35 258.478)" class="st1" d="M275.4 256.8h7.8v3.3h-7.8z"/><path class="st1" d="M262.6 250.3s-.1 6.2-.8 7.1c-1.2 1.8-4 2.4-7.2 2.3v-9.4h8z"/><path class="st2" d="M267.1 178.7v8.8c0 5.2 4.3 9.5 9.5 9.5v-27.8c-5.2 0-9.5 4.3-9.5 9.5z"/><path class="st53" d="M267.1 179.3v9c0 5.3 4.3 9.6 9.5 9.6v-28.2c-5.2 0-9.5 4.3-9.5 9.6z"/><path class="st1" d="M695.5 249.4h4c.8 0 1.4-.6 1.4-1.4v-33.1c0-.8-.6-1.4-1.4-1.4h-4c-.8 0-1.4.6-1.4 1.4V248c0 .8.6 1.4 1.4 1.4z"/><path class="st60" d="M639.6 271.4v-17.2c0-8.8-7.2-16-16-16H609c-8.8 0-16 7.2-16 16v17.2h46.6z"/><g><path class="st1" d="M595 261.6c-.4 4.2.5 8.2 2.3 11.6 3.2 6 9.3 10.4 16.6 11.1 11.5 1 21.7-7.4 22.7-18.9.5-5.1-1-10-3.7-13.9-3.4-4.9-8.9-8.2-15.2-8.8-11.5-1-21.6 7.4-22.7 18.9z"/><path class="st1" d="M613.2 241.6c1.5-.2 3-.2 4.6-.1.2 0 .3 0 .5.1l-2.5 21.9-2.6-21.9zM618.5 285.3c-1.5.2-3 .2-4.6.1-.2 0-.3 0-.5-.1l2.5-21.9 2.6 21.9z"/><path class="st1" d="M594 266.1c-.2-1.5-.2-3-.1-4.6 0-.2 0-.3.1-.5l21.9 2.5-21.9 2.6zM637.7 260.8c.2 1.5.2 3 .1 4.6 0 .2 0 .3-.1.5l-21.9-2.5 21.9-2.6z"/><g><path class="st1" d="M629.4 246.1c1.2.9 2.3 2 3.3 3.2.1.1.2.3.3.4l-17.3 13.7 13.7-17.3zM602.3 280.7c-1.2-.9-2.3-2-3.3-3.2-.1-.1-.2-.3-.3-.4l17.3-13.7-13.7 17.3z"/><g><path class="st1" d="M598.6 249.8c.9-1.2 2-2.3 3.2-3.3.1-.1.3-.2.4-.3l13.7 17.3-17.3-13.7zM633.2 277c-.9 1.2-2 2.3-3.2 3.3-.1.1-.3.2-.4.3l-13.7-17.3 17.3 13.7z"/></g></g><g><path class="st1" d="M622 242.3c1.5.4 2.9 1 4.3 1.7.2.1.3.2.5.3l-10.9 19.2 6.1-21.2zM609.7 284.5c-1.5-.4-2.9-1-4.3-1.7-.2-.1-.3-.2-.5-.3l10.9-19.2-6.1 21.2z"/><g><path class="st1" d="M594.7 257.3c.4-1.5 1-2.9 1.7-4.3.1-.2.2-.3.3-.5l19.2 10.9-21.2-6.1zM637 269.5c-.4 1.5-1 2.9-1.7 4.3-.1.2-.2.3-.3.5l-19.2-10.9 21.2 6.1z"/></g></g><g><path class="st1" d="M634.7 252c.8 1.3 1.4 2.7 2 4.2.1.2.1.3.2.5l-21 6.7 18.8-11.4zM597 274.8c-.8-1.3-1.4-2.7-2-4.2-.1-.2-.1-.3-.2-.5l21-6.7-18.8 11.4z"/><g><path class="st1" d="M604.5 244.6c1.3-.8 2.7-1.4 4.2-2 .2-.1.3-.1.5-.2l6.7 21-11.4-18.8zM627.3 282.2c-1.3.8-2.7 1.4-4.2 2-.2.1-.3.1-.5.2l-6.7-21 11.4 18.8z"/></g></g><g class="st61"><path class="st62" d="M597.4 273.2c3.2 6 9.3 10.4 16.5 11 11.5 1 21.6-7.4 22.6-18.9.5-5.1-1-10-3.7-13.9l-11.2 6.9-13 8-11.2 6.9z"/></g><g><path class="st2" d="M603.8 262.4c-.6 6.7 4.3 12.6 11 13.2 6.7.6 12.6-4.3 13.2-11 .6-6.7-4.3-12.6-11-13.2-6.7-.6-12.6 4.3-13.2 11z"/></g><g><path class="st1" d="M615.5 267.4c-2.1-.2-3.7-2.1-3.5-4.2.2-2.1 2.1-3.7 4.2-3.5 2.1.2 3.7 2.1 3.5 4.2-.2 2-1.9 3.5-3.9 3.5h-.3zm-2.4-4.1c-.1 1.5 1 2.8 2.5 3 1.5.1 2.8-1 3-2.5.1-1.5-1-2.8-2.5-3h-.2c-1.4 0-2.6 1-2.8 2.5z"/></g></g><path class="st2" d="M675 165.9h-47.6c.4.1.9.2 1.4.2h44.8c.5 0 .9-.1 1.4-.2zM557.6 165.9H449.8c.4.1.9.2 1.4.2h105.1c.4 0 .9-.1 1.3-.2z"/><g><path class="st18" d="M250.9 227.7l-22.6-20.1-30.9-12.6h-71.7l-16.4 12.6v13.2l78.1 8.8H227z"/><path class="st3" d="M184.9 245.9c0 .6-.5 1.1-1.1 1.1h-5.3c-.6 0-1.1-.5-1.1-1.1 0-.6.5-1.1 1.1-1.1h5.3c.6 0 1.1.5 1.1 1.1z"/><path class="st63" d="M190.2 221s-1.2 2.8.1 5.1c1.5 2.7 8 14 8.5 14.3 3.5 2.4 4.3-1.2 4.1-3-.3-1.8-.5-6.6-2.5-10.8-1.8-3.7-5.3-10.4-10.2-5.6z"/><path class="st63" d="M190.4 226.4l4.5 13.8h11.7l1-13.5z"/><path class="st63" d="M193.3 245.2c-.1.2-2.3 3.3-2.6 6-.3 2.9 2.6 6.4 2.6 6.4l11.2.1 1.3-7.8.6-10-11.6.2c.1 0-.7 3.4-1.5 5.1zM202.2 208.3l-6.5.1s-1 2.9-.8 8.4c0 .2 5.6 1.8 5.6 1.8l1.7-10.3z"/><path class="st63" d="M206.4 222.2c-1.3-2.3-5.7-7.4-5.7-7.4l-5.8-1s-4.2 3-5.2 7.9c0 .2.4 5.4.4 5.4h17.5c0-.1-1.2-4.9-1.2-4.9zM204 203c-.1.3-.3.8-.3 1.1 0 .6.4 1.2.3 1.6-.1 2.9.5 2.6.3 3.7-.2.8-1.2.8-2.9 1.2-1.2.2-4.3-1.1-4.8-1.4-2.3-1.1-3.2-5.6-3.2-7.5 0-3.9 3.2-4.4 5.6-3.9 1.3.2 2.3.8 3.1 1.4 1.4 1.1 2.1 3.5 1.9 3.8z"/><path d="M201.7 203c.2-.2 1.1-.8 2.1-.1"/><circle class="st3" cx="202.7" cy="204.1" r=".3"/><path class="st63" d="M203.6 203.4c.5 1.4 1 2 1.2 2.6 0 .1-.8.2-.8.2 0-.1-.4-2.8-.4-2.8z"/><path class="st64" d="M198.5 210.7c.1.1-.7 3.6 2.5 4.6l.8-4.8-3.3.2z"/><path class="st63" d="M204.1 206.7s-.9.2-.8.4c0 .3.9.4.9.4l-.1-.8z"/><path d="M206.5 199.8c0-.7-.8-1.3-1.5-1.2-.3 0-.6.2-.8.2-.3 0-.6-.1-.7-.3-.1-.2.1-.5.1-.7.1-.6-.4-1.2-1-1.4-.6-.2-1.2.3-1.8.3-1.8-.1-3.4-.5-5.6.9l2.3 1.8c-.1-.1-.2.2-.2.3.1.9.6 1.6 1.3 2.2.4.3.8.6 1.2.6 3 .5.8-2.6 3.5-1.7.8.4 1.3.8 2 .6.7-.2 1.3-.9 1.2-1.6z"/><path d="M202.4 199.7s-3.5-4.6-8.8-1.4c-3.2 1.9-1.8 6.6 1.8 10.7 0 .1 1.6-.3 2-1 .5-.9.5-3.5.5-3.5l1.8.4.6-2.4c.4-1.6 2.1-2.8 2.1-2.8z"/><path class="st64" d="M197.7 203.8s-.1 1.3.5 1.6c.4.2.9 0 .9 0s-.2 1.9-1.3 1.5c-1.1-.4-.1-3.1-.1-3.1z"/><path class="st63" d="M199 204.3s-.6-1.2-1.1-.7c-.5.5-.3 1.7.7 1.7.6 0 .7-.1.7-.1l-.3-.9z"/><path class="st63" d="M198.5 204.3c0-.2-.3-.3-.4-.1v.2c0 .1 0 .2.1.3.1.1.2.1.3 0v-.4z"/><pattern id="SVGID_10_" xlink:href="#Unnamed_Pattern_23" patternTransform="matrix(.2276 0 0 .2323 -2959.238 -6649.355)"/><path d="M194.4 213.9l8.5 3.1 3.6 5.1 1 4.2-1.5 20.5-12.4-2.9 1.3-4.1-5.1-13.9s-1.2-5.2 1.2-8.2 3.4-3.8 3.4-3.8" fill="url(#SVGID_10_)"/><path fill="none" stroke="#fff" stroke-width=".836" stroke-linecap="round" stroke-linejoin="round" stroke-miterlimit="10" d="M194.2 213.8l9.1 3.4"/><path class="st67" d="M193.6 213.3s12.4 4.3 13.5 10.2c.6 3.3.3 3.7.3 3.7s-3.5-9.9-15.4-12.1"/><pattern id="SVGID_11_" xlink:href="#Horizontal_line_5" patternTransform="translate(-781.462 -3700.594) scale(.5901)"/><path d="M154.2 228.2s-5.3-4.4-5-4.4c.3 0 3.2-5.9 3.2-5.9" fill="url(#SVGID_11_)"/><path class="st69" d="M146.9 218.6s-.4 2.6 1.9 7.1c2.3 4.6 10.4 10.4 10.9 10.6 3.8 1.1 3.9-2 3.1-3.6-.7-1.3-2.5-4.3-7.3-10.2-2.2-2.7-6-6.4-8.6-3.9z"/><pattern id="SVGID_12_" xlink:href="#Horizontal_line_5" patternTransform="rotate(26.326 3744.443 -8452.436) scale(.5901)"/><path fill="url(#SVGID_12_)" d="M152.5 219.1l3.7 3.8-6.7 6.3"/><path class="st69" d="M141.6 226.3l3.3 13 9.7.1 1-13.3z"/><path class="st69" d="M144.5 239.3l9.9-.1s2.7 4-.6 10.8c-.3.7-2 7.6-2 7.6s-8.1 2.4-11.8-.4c-.4-.3-1.4-4-1.7-5.3-1.3-4.8 2.8-7.1 6.2-12.6zM152.9 228.7s5 .4 5-2.5c0-1.6-.1-.5-4.3-6.4M159.8 236.4c1.5 1.7 3.4.1 3.4.1 3.6-3 9.4-9.7 11-12.6.3-.5.5-.9.6-1.3 0 0 .3-1-.7-1.3-.5-.2-1.9 1-1.9 1-16.6 11.2-13.4 12.9-12.4 14.1zM176.4 217.5c-.1.1.6-.9 1.1-1.2.1-.1.3-.8.6-1.2V214c0-.4.3-.5.3-.5l.6 1.9-.5 1.5-.6 1.7s-.5.2-1.1-.2c-.5-.4-.4-.9-.4-.9z"/><path class="st69" d="M174.6 216.9c-.2.3-.4.9-.6 1.2-.5.9-.9 3.2-1.2 3.7-.3.5-.6 1.1.2 1.7.9.7 1.4-.4 1.4-.4.3-.4.3-.6.5-.9.5-.7 2.2-2.3 2.9-3.4 0 0 .1-.8-.4-1.1-.6-.4-1.1-.1-1.1-.1-.1.1-.3.3-.5.2-.3-.3-.4-.7-.3-1 .5-1 .5-1.1.3-1.3-.1 0-.9.9-1.2 1.4z"/><path class="st69" d="M176.1 217.9s.4-1 .8-1.4c.1-.1.1-.9.3-1.3 0-.1-.2-.6-.3-1-.1-.4.2-.6.2-.6l1 1.8-.1 1.6-.2 1.8s-.4.4-1.1.1c-.4-.3-.6-.9-.6-1zM154.9 221.6c-1-1.1-3.4-7-3.4-7l-5.5-.3s-3.5 3.4-4 6.1c-.5 2.7-.1 5.7-.1 5.7h12.4c.1 0 .6-4.5.6-4.5z"/><pattern id="SVGID_13_" xlink:href="#Horizontal_line_5" patternTransform="translate(-781.462 -3700.594) scale(.5901)"/><path d="M144.5 216s1.7 2 4.5 2.1c2.8.1 3.4-1 3.4-1l.6 1.2 4.8 7.2s1 2.3-2.5 3.3c-3.5.9 0 0 0 0l-.8 10.7-9.8-.1s-4.5-12.7-3.6-17.1 3.4-6.3 3.4-6.3" fill="url(#SVGID_13_)"/><g><path class="st69" d="M143.1 219s-3.1 2.5-1.4 7.2c1 2.8 4.8 13.9 5.2 14.3 3 2.7 4.4 0 4.4-1.8 0-1.5-.1-8.1-1.7-12.3-1.3-3.3-3-8.6-6.5-7.4z"/></g><g><path class="st69" d="M146.3 237.9c-.9 2.1 1.3 3.1 1.3 3.1 4.2 2 12.7 4.6 16 4.8.6.1 1 .1 1.4.1 0 0 1-.2.9-1.2-.1-.5-1.7-1.3-1.7-1.3-17-10.5-17.2-7-17.9-5.5zM170.4 245.2c-.1 0 1.1.2 1.5.5.1.1.9-.1 1.4 0 .1 0 .5-.3.9-.5.3-.2.6.1.6.1l-1.5 1.4-1.6.1-1.8.2s-.4-.3-.2-1.1c.1-.6.6-.7.7-.7z"/><path class="st69" d="M170.2 243.3c-.3-.1-1 0-1.3 0-1.1-.1-3.3.5-3.8.4-.6 0-1.3 0-1.5.9-.3 1.1.9 1.1.9 1.1.5 0 .7 0 1 .1.8.2 3 1 4.3 1.2 0 0 .7-.2.8-.8.2-.7-.4-1.1-.4-1.1-.2-.1-.4-.1-.4-.4.1-.4.5-.7.8-.7 1.1.1 1.2 0 1.3-.3-.1 0-1.2-.3-1.7-.4z"/><path class="st69" d="M169.8 245.2s1.1 0 1.6.1c.1 0 .8-.3 1.3-.2.1 0 .4-.4.8-.7.3-.2.6 0 .6 0L173 246l-1.5.4-1.7.6s-.5-.2-.5-.9c0-.5.5-.9.5-.9z"/></g><pattern id="SVGID_14_" xlink:href="#Horizontal_line_5" patternTransform="translate(-781.462 -3700.594) scale(.5901)"/><path d="M142.4 229.6s-3.8-10.3 1.2-10.8c4.4-.5 6.8 8.9 6.8 8.9l-8 1.9z" fill="url(#SVGID_14_)"/><g><path class="st3" d="M150.6 198.9s2.9.3 3.5 3.6c.7 3.7 1 11.6 1 11.6l-13.3-.1c0 .1-1.7-16.8 8.8-15.1z"/><path class="st69" d="M146.9 210.5l-1.2 5h5.9v-6.2z"/><path class="st73" d="M147.2 210.7c.1 0 0 2.8 4.5 3.3l-.2-4.6-4.3 1.3z"/><path class="st69" d="M153.4 206c0 3-1.6 5.4-4.3 5.4-2.7 0-4.3-2.5-4.3-5.5s1.6-5.4 4.3-5.4c2.6 0 4.3 2.5 4.3 5.5z"/><path class="st3" d="M146 205.4c.3-.3 1.8-.4 2.1 0M150.4 205.5c.5-.5 2-.3 2.3.1"/><circle class="st3" cx="146.9" cy="206.2" r=".3"/><circle class="st3" cx="151.4" cy="206.2" r=".3"/><path class="st2" d="M148 208.1h2.4s-.2 1-1.2 1c-1.1.1-1.2-1-1.2-1z"/><path class="st69" d="M145.1 207.6h-.6c-.2 0-.3-.1-.3-.3v-1.4c0-.2.1-.3.3-.3h.6c.2 0 .3.1.3.3v1.4c0 .2-.1.3-.3.3zM153.4 207.6h-.6c-.2 0-.3-.1-.3-.3v-1.4c0-.2.1-.3.3-.3h.6c.2 0 .3.1.3.3v1.4c0 .2-.1.3-.3.3z"/><path class="st3" d="M146.8 200.8s-.7 3.5-.4 3.6c.3.1 3.8.1 3.8.1s.7-3.7.6-3.3.3 3.3.3 3.3l1.4.3s.9-5.8-1.7-5.7c-2.6.1-3.8.3-4 1.7z"/><path class="st73" d="M149.5 205.4v1.6l-.9.2s.9.9 1.3.4c.5-.5 0-2.1-.4-2.2zM145 206.1h-.2c-.1 0-.1 0-.2.1 0 .1 0 .1-.1.2v.3c0 .1.1.2.1.2h.2M153.1 206.1c.1 0 .2.1.3.2v.3c0 .1 0 .2-.1.3 0 .1-.1.2-.2.1h-.1"/></g><path class="st67" d="M145.2 215.1l-1.7 2s11.3 6.8 10.7 20.8l.5.2s3.5-16.1-9.5-23"/><g><path class="st3" d="M227.5 229.3c-.3 0-.5-.1-.8-.2-.8-.4-1.1-1.4-.7-2.2l6.3-12c.4-.8 1.4-1.1 2.2-.7.8.4 1.1 1.4.7 2.2l-6.3 12c-.3.6-.8.9-1.4.9z"/><path class="st1" d="M191.2 219.9c0 .4-1.9 3.8 1.5 11.3 3.5 7.8 13.6 11.3 13.6 11.3l.3-3.4-15.4-19.2z"/><path class="st47" d="M207.5 232.5c.5 1.9 3.1 1.7 3.1 1.7 5.1-2 10.9-4.7 14.1-6.1.6-.2.7-.6 1.1-.7l-.5-2.5c-18.1 1.3-18.2 6-17.8 7.6zM229.4 223.5c-.1 0 1-.6 1.6-.7.1 0 .6-.7 1.1-.9.1 0 .2-.6.4-1s.6-.4.6-.4l-.3 2.1-1.2 1.2-1.3 1.4s-.6 0-.9-.7c-.3-.5 0-.9 0-1z"/><path class="st47" d="M228 222.2c-.3.2-.9.7-1.1.9-.9.7-1 1.1-2.6 2.6-1.7 1.6-.2 2.9.7 2.4.3-.2.6-.5.9-.6.8-.4 3.1-1.2 4.3-2 0 0 .4-.7.1-1.2-.4-.7-1.1-.6-1.1-.6-.2.1-.4.2-.6-.1-.2-.4-.1-.7.3-1 .8-.6.9-1 .7-1.2-.1.2-1.1.5-1.6.8z"/><path class="st47" d="M229 223.9s.9-.7 1.4-1c.1-.1.5-.8.9-1.1.1 0 .1-.6.2-1.1.1-.4.5-.5.5-.5l.1 2.2-.9 1.4-1 1.7s-.6.2-1-.4c-.3-.4-.2-1.2-.2-1.2zM192 222.3s.4 3 2.7 4.3c2.7 1.6 13.3 8.5 15.8 7.2 3.8-1.9 2-2.2.8-3.6-1.1-1.4-3.7-5.5-7.6-8.1-3.4-2.4-9.8-6.5-11.7.2z"/><pattern id="SVGID_15_" xlink:href="#Unnamed_Pattern_23" patternTransform="matrix(.1693 -.08657 .08834 .1728 -2472.1 -7611.689)"/><path d="M204.5 222.3l-5.1 7.4s-11.1-5.6-8.5-9.2 7.1-6 13.6 1.8z" fill="url(#SVGID_15_)"/><g><path class="st2" d="M199.9 230.2c1.8-2.4 3.5-4.8 5.3-7.2.4-.5-.5-1-.9-.5-1.8 2.4-3.5 4.8-5.3 7.2-.4.5.5 1 .9.5z"/></g></g><path d="M185.7 225.3s-7.2 13-4.8 21.1c3.3 11.1 10.5 26.2 10.5 26.2" fill="none" stroke="#000" stroke-width=".587" stroke-miterlimit="10"/><path class="st26" d="M320.8 247.4c0-17.7-72.7-22.3-72.7-22.3L89.6 225l-4-.1-2.1 39.4 9.7 8.9h221.7c3.5 0 6.1-2.8 5.5-5.9l-.7-3.4s.6-15.3.9-15.5c1.8-1.7.2-.8.2-1z"/><path class="st1" d="M148.6 236.7h-10.2c-.4 0-.7-.3-.7-.7v-1.4c0-.4.3-.7.7-.7h10.2c.4 0 .7.3.7.7v1.4c0 .4-.3.7-.7.7zM202.8 236.7h-10.2c-.4 0-.7-.3-.7-.7v-1.4c0-.4.3-.7.7-.7h10.2c.4 0 .7.3.7.7v1.4c0 .4-.3.7-.7.7z"/><path class="st2" d="M305.4 240.7s1 10.2 4.5 10.2c7.4 0 12.1.2 12.1.2s.5-7.4-6-9.5c-5.2-1.7-10.6-.9-10.6-.9z"/><path class="st76" d="M257.7 272.8H134.3l-3-11.7H262z"/><path class="st1" d="M143.3 274.8h114.4v3.5H143.3zM102.7 278.3H89.2v-1.7c0-1 .8-1.7 1.7-1.7h11.8v3.4zM296.8 274.8h23.3v3.5h-23.3z"/><path class="st2" d="M83.7 232.6h15.8s.2 11.1-8.9 12.7c-7.6 1.4-7.1.2-7.1.2l.2-12.9z"/><path class="st1" d="M99.5 231.7H83.6c-.6 0-1.2-.5-1.2-1.2v-2.3c0-.6.5-1.2 1.2-1.2h15.9c.6 0 1.2.5 1.2 1.2v2.3c0 .6-.5 1.2-1.2 1.2z"/><g><path class="st26" d="M145.7 222.5c-.7-.1-4.7-.5-9.8-1.2l-.8 4.4h49.6l-.1-.7c-13.4-.6-27.2-1.4-38.9-2.5zM190 225.2l.1.5h14.4c-4.6-.1-9.5-.3-14.5-.5z"/><path class="st26" d="M110.8 214.4c-.6-2.3 11.9-17.1 23.4-17.5h3.5l.1-.3h2.5l-.1.3c9.7-.1 28.6-.2 39.9-.2v-.1h5.4v.1h.5c31.3 0 56.4 25.7 56.4 25.7 0-.1-1.9 2.1-2.9 3.3H254s-2.2-1.4-11.6-10.2c-7.3-6.8-28.4-22.4-54.3-22.4-18.4 0-73-.5-73.7-.5-7.6 0-9.3 3.1-8 8 1.4 5.7-19.9 22.7-21 25.2h47l.9-4.8c-9.6-1.6-21.8-3.9-22.5-6.6z"/><path class="st26" d="M132.1 228.6h2.5l.5-2.9h-2.5zM140.3 196.6h-2.5l-.1.3h2.5l.1-.3z"/><path class="st26" d="M133.5 220.9l-.9 4.8h2.5l.8-4.4c-.8-.1-1.6-.3-2.4-.4z"/><path class="st26" d="M137.8 196.9l-4.3 24c.8.1 1.6.2 2.4.4l4.4-24.4h-2.5zM185.1 228.3h5.4l-.4-2.6h-5.4zM185.6 196.6h-5.4v.1h5.4v-.1zM184.5 225l.1.7h5.4l-.1-.5c-1.7-.1-3.5-.1-5.4-.2z"/><path class="st26" d="M180.2 196.7l4.4 28.3c1.8.1 3.7.2 5.5.2l-4.4-28.5h-5.5z"/></g><path class="st1" d="M313.8 254.7c-2.3 0-6.6 8-6.6 11.9 0 3.8 4.2 7 6.6 7h1.9c3 0 5.4-2.4 5.4-5.4v-6.8c0-1-.8-6.6-1.7-6.6h-5.6zM82.6 248.2s13.6-2.7 20.1 4.8c6.5 7.5 9 19.9 9 19.9l-18.6.1c-5.1 0-10.6.1-10.6-10.3l.1-14.5z"/><path class="st76" d="M320.6 254h-13.1c-.6 0-1.2-.5-1.2-1.2 0-.6.5-1.2 1.2-1.2h13.1M236.8 219.5v16.6c3.1 0 5.6-2.5 5.6-5.6v-5.3c.1-3.1-2.5-5.7-5.6-5.7z"/><path class="st59" d="M242.9 251.4h-49.8c-1.3 0-2.4-1.1-2.4-2.4v-4.9c0-1.3 1.1-2.4 2.4-2.4h49.8c1.3 0 2.4 1.1 2.4 2.4v4.9c0 1.3-1.1 2.4-2.4 2.4zM178 251.4h-33.1c-1.3 0-2.4-1.1-2.4-2.4v-4.9c0-1.3 1.1-2.4 2.4-2.4H178c1.3 0 2.4 1.1 2.4 2.4v4.9c0 1.3-1.1 2.4-2.4 2.4z"/><path class="st76" d="M84.6 235.6c2 0 3.7 1.6 3.7 3.7 0 2-1.6 3.7-3.7 3.7"/><g><path class="st2" d="M257.3 273.3c0-11.3 9.2-20.5 20.5-20.5s20.5 9.2 20.5 20.5"/><path class="st1" d="M294.7 273.6c0 3.4-1 6.6-2.7 9.2-3 4.6-8.2 7.7-14.2 7.7-9.4 0-16.9-7.6-16.9-16.9 0-4.2 1.5-8 4-10.9 3.1-3.7 7.7-6 12.9-6 9.4 0 16.9 7.5 16.9 16.9z"/><g class="st61"><path class="st62" d="M292 282.8c-3 4.6-8.2 7.7-14.2 7.7-9.4 0-16.9-7.6-16.9-16.9 0-4.2 1.5-8 4-10.9l8.6 6.4 9.9 7.4 8.6 6.3z"/></g><path class="st2" d="M284.1 273.6c0 3.5-2.8 6.3-6.3 6.3s-6.3-2.8-6.3-6.3 2.8-6.3 6.3-6.3 6.3 2.8 6.3 6.3z"/></g><g><path class="st2" d="M102.3 273.3c0-11.3 9.2-20.5 20.5-20.5s20.5 9.2 20.5 20.5"/><path class="st1" d="M139.7 273.6c0 3.4-1 6.6-2.7 9.2-3 4.6-8.2 7.7-14.2 7.7-9.4 0-16.9-7.6-16.9-16.9 0-4.2 1.5-8 4-10.9 3.1-3.7 7.7-6 12.9-6 9.3 0 16.9 7.5 16.9 16.9z"/><g class="st61"><path class="st62" d="M137 282.8c-3 4.6-8.2 7.7-14.2 7.7-9.4 0-16.9-7.6-16.9-16.9 0-4.2 1.5-8 4-10.9l8.6 6.4 9.9 7.4 8.6 6.3z"/></g><path class="st2" d="M129.1 273.6c0 3.5-2.8 6.3-6.3 6.3s-6.3-2.8-6.3-6.3 2.8-6.3 6.3-6.3 6.3 2.8 6.3 6.3z"/></g></g><path class="st78" d="M64.5 199.6h49.3M54.9 210.1h49.3M688.6 157.2h49.3M688.9 212.6h49.3M704.1 184.3h49.2"/></g><g class="st12"><path class="st303" d="M-373.5 533.5c0-120.3 97.5-217.8 217.8-217.8S62.2 413.2 62.2 533.5"/><path class="st303" d="M57.5 533.5c0-120.3 97.5-217.8 217.8-217.8s217.8 97.5 217.8 217.8M497.8 533.5c0-120.3 97.5-217.8 217.8-217.8s217.8 97.5 217.8 217.8M-578.1 252.2h1937.4M57.5 292.5v-40.4M135.3 292.5v-40.4M213.1 292.5v-40.4M290.9 292.5v-40.4M368.7 292.5v-40.4M446.5 292.5v-40.4M524.3 292.5v-40.4M602.1 292.5v-40.4M679.9 292.5v-40.4M757.7 292.5v-40.4"/><path class="st1" d="M-578.4 278.2h1937.7v35.1H-578.4z"/><path class="st1" d="M40.3 305v206.6l-24.5 17.2v38.4h92.7v-40.4l-27.8-18.5V305zM476 305v206.6l-24.5 17.2v38.4h92.7v-40.4l-27.8-18.5V305z"/></g></g></svg>