<svg width="48" height="48" viewBox="0 0 48 48" fill="none" xmlns="http://www.w3.org/2000/svg">
<g clip-path="url(#clip0_15274_25316)">
<circle cx="24" cy="24" r="24" fill="#DDDDDD"/>
<path fill-rule="evenodd" clip-rule="evenodd" d="M5 21.7415V19.3708C5 17.8298 5.95 17 7.375 17C17.4729 17 27.222 17 37.3199 17C41.1 17 43 20.8206 43 23.6381C43 23.3306 43 23.9312 43 24.7761V29.35C43 29.8747 42.5747 30.3 42.05 30.3H10.7L5.6467 28.5975C5.26025 28.4674 5 28.1051 5 27.6973V21.7415Z" stroke="#054752"/>
<path fill-rule="evenodd" clip-rule="evenodd" d="M5 21.75C23.05 21.75 32.55 21.75 33.5 21.75C34.925 21.75 35.875 24.1184 37.3 24.1184C38.25 24.1184 40.15 24.1184 43 24.1184V29.35C43 29.8747 42.5747 30.3 42.05 30.3H10.7L5.64697 28.5993C5.26038 28.4692 5 28.1068 5 27.699V21.75Z" fill="#054752" stroke="#054752"/>
<path d="M9.75 24.125H20.2" stroke="#EDEDED" stroke-linecap="round" stroke-linejoin="round"/>
<path d="M10.2266 21.75V17" stroke="#054752" stroke-linecap="square"/>
<path d="M17.8281 21.75V17" stroke="#054752" stroke-linecap="square"/>
<path d="M25.4219 21.75V17" stroke="#054752" stroke-linecap="square"/>
<path d="M33.0234 21.75V17" stroke="#054752" stroke-linecap="square"/>
<path d="M35.875 33.1502C37.1867 33.1502 38.25 32.0869 38.25 30.7752C38.25 29.4635 37.1867 28.4002 35.875 28.4002C34.5633 28.4002 33.5 29.4635 33.5 30.7752C33.5 32.0869 34.5633 33.1502 35.875 33.1502Z" fill="#EDEDED" stroke="#054752"/>
<path d="M12.125 33.1502C13.4367 33.1502 14.5 32.0869 14.5 30.7752C14.5 29.4635 13.4367 28.4002 12.125 28.4002C10.8133 28.4002 9.75 29.4635 9.75 30.7752C9.75 32.0869 10.8133 33.1502 12.125 33.1502Z" fill="#EDEDED" stroke="#054752"/>
<path d="M18.2969 33.1502C19.6086 33.1502 20.6719 32.0869 20.6719 30.7752C20.6719 29.4635 19.6086 28.4002 18.2969 28.4002C16.9852 28.4002 15.9219 29.4635 15.9219 30.7752C15.9219 32.0869 16.9852 33.1502 18.2969 33.1502Z" fill="#EDEDED" stroke="#054752"/>
<circle cx="24" cy="24" r="23" stroke="white" stroke-width="2"/>
</g>
<defs>
<clipPath id="clip0_15274_25316">
<rect width="48" height="48" fill="white"/>
</clipPath>
</defs>
</svg>
